<svg xmlns="http://www.w3.org/2000/svg" viewBox="0 0 178.58 249.45">
  <title>C11</title>
  <g>
    <g>
      <path d="M13.77,40c-3.14.07-4.55,3.75-2.22,6.61.34.42.37.66-.25.26-1.57-1.09-4.57-.37-4.72,3-.19,4.11,5.32,5.29,6.36.92.05-.46.41-.45.33.2A14,14,0,0,1,11.91,56h3.73a14,14,0,0,1-1.36-5.05c-.09-.65.27-.66.33-.2,1,4.37,6.55,3.18,6.36-.92-.15-3.33-3.16-4-4.72-3-.62.4-.58.16-.25-.26,2.33-2.86.92-6.54-2.22-6.61h0Z"/>
      <path d="M164.81,209.47c3.14-.07,4.55-3.75,2.22-6.61-.34-.42-.37-.66.25-.26,1.57,1.09,4.57.37,4.72-3,.19-4.11-5.32-5.29-6.36-.92-.05.46-.41.45-.33-.2a14,14,0,0,1,1.36-5.05h-3.73a14,14,0,0,1,1.36,5.05c.09.65-.27.66-.33.2-1-4.37-6.55-3.18-6.36.92.15,3.33,3.16,4,4.72,3,.62-.4.58-.16.25.26-2.33,2.86-.92,6.54,2.22,6.61h0Z"/>
      <path d="M164.9,238.38v-2.76h-2.68s-.06-2.66-.09-8.31c0-5.49-.13-8.21.22-9.77.94-3.6,6.16-3.62,7.2-1a10.48,10.48,0,0,1,.47,4.19h2.89s0-.76,0-1.7c0-4-1.36-6-4.5-6.75s-7,.46-8.34,3.21c-.8,1.57-.71,1.68-.73,11.18,0,6.34-.11,9-.11,9h-2.47v2.76h8.17Z"/>
      <path d="M13.69,11.07v2.76h2.68s.06,2.66.09,8.31c0,5.49.13,8.21-.22,9.77-.94,3.6-6.16,3.62-7.2,1a10.48,10.48,0,0,1-.47-4.19H5.69s0,.76,0,1.7c0,4,1.36,6,4.5,6.75s7-.46,8.34-3.21c.8-1.57.71-1.68.73-11.18,0-6.34.11-9,.11-9h2.47V11.07H13.69Z"/>
    </g>
    <g>
      <g>
        <g>
          <path d="M49.3,225.5c-.68,1-3.64-5.86-5.54-11-.93-2.54-2.18-4.64-1.67-5.31,1.35-1.37,4.85-.14,7.4,1.82a22.45,22.45,0,0,1,4.64,5.18Zm-23.87-5.07-.11-4A90.47,90.47,0,0,0,34,207.75l-8.7,0c-.6-49.65-.55-148.46-.47-148.45s10.11,10.27,9.86,10.31c0,0,.29,59.81.33,100,.08.19-5.29.2-5.63,2.83-.23,1.74,5.63,1.5,5.72,1.62,0,18.08.05,30.85.05,30.85l5.38.18ZM57,201.81c-.78-1.56-2-7.56-3-7.42-4.37,1.45-5.78-5-1.26-5.35,1.71-.13,3.63,2.11,4.7,4.9.52,1.46,0,8.45-.46,7.87Zm1-9c-1.29-2.11-2.52-9.83-4.87-9.39a2.72,2.72,0,0,1-3.31-3c1.1-4.64,9-.23,11,.84A52.86,52.86,0,0,0,58,192.81ZM41.42,171.06c1.8-4.08,1.32-7.43-.21-11.54,4.67-2,8.84-4.2,13.44-6.61.14-.46.88,15.7-.86,23.23-.52,1.12-2.42.23-3.51-.32A74.06,74.06,0,0,1,41.42,171.06Zm82.84-73.87c-1-7.6,1.16-24.8,1.16-24.8s11.27,6.26,12.05,6.74c-2.13,4,.78,13.16.46,11.51-.75.53-13.42,7.31-13.67,6.55Zm-4.65-31.54c.2-.49,1-6.18,1.26-6.2.82-.07,2,5.57,4.12,7.43,4-.46,4.41,2.23,3.64,3.53.19.57-1.28,1.81-2.65,1.69C122.57,70.76,118,69.58,119.61,65.65ZM74.27,55.94s3-16.72,3-16.7c7.34-1.06,14.41-2.28,21-1.54-1.29,17.38-3.32,32.42-8.9,35L100.87,82s12.83-8,12.1-7.9c-.32.09-.57,6.82-.75,17.71.33,28.43,16.65,57.2,17.28,56.91.35.23-13.9,1.35-24.15-3.07l-.46,37.64s5.08,2.54,6,3.72c1.87,6.55-3.18,8.22-6.21,6.58-1.42,5-3.57,17.28-3.65,17.28a95.42,95.42,0,0,1-20.91,1.61,110.32,110.32,0,0,0,2.29-16c.88-8.68,2.66-16.91,7.21-18.86-.81.32-11.33-9-11.33-9l-12.92,8c4.15-27.09-2.95-53.4-15.2-74.68,6.18-.71,13.17-.38,24.08,2.9,0,0-.61-37.71-.62-37.51C61.57,62.57,68.16,53.28,74.27,55.94Zm47-3.38c0-.38.22-4.64.22-4.64,1.71,2,3.09,7.91,3.43,7.81,0,0,2.19-.35,2.88.38,2.23,2.38,0,5.19-2.19,4.66s-4.65-4.37-4.34-8.21Zm22.7,127.87s-.47-66.88-.46-100.41c8.44.13,6.78-4.57-.11-4.07l0-30.91-4.57-.16s8.61-9,14.06-14.76l.13,2.93-8.3,9h8.6c0,49.44,2.75,99.42,0,148.31ZM129.57,25.08c2.08-.46,4.25,9.18,7.87,15-4.1,2.47-10.58-2.23-12-6C126.35,30.92,129.63,25.11,129.57,25.08Z" style="fill: #e2cf00"/>
          <path d="M154.89,230.32V19.12H23.69v211.2Zm-43.17-.82-63.16,0c.88-1.79,1.72-4.09,1.72-4.09-1.93-.78-3.43-3.67-4.35-6.12-.81-2.14-2.22-7.38-4.07-9.93,3.24-1.85,11.39,2.27,12.55,7.89l2.73-4.66c18.5,3.6,38.52,1,44.64.13,3,5.76,7.28,10.9,9.94,16.84Zm-80-.67c-2.33,0-4.48,0-6.06,0v-7.44l16.53-17-6.55-.28.23-29.32c2.39-.5,5.21-3,5.21-3l11.1,6s-2.88,1.21-2.8,3.14c.11,2.16,1.4,3.93,4,3.27.59-.09.85.16,1.42,1.49,1.08,2.54,2.15,5.33,1.74,5.24A8.5,8.5,0,0,0,53.77,189a3.13,3.13,0,0,0-3.87,4.23c.88,2.09,2.35,2.21,3.82,2,.22,0,.4.29.54.56A22.36,22.36,0,0,1,56,201c.85,4,1,9,.42,10.29-.86,1.74-2,4.11-2,4.11-2.32-4.43-7.36-8.32-13-6.94-.19.12-.23.75,0,1.11,2.09,3.34,2.44,6.21,3.77,9.58,1.4,3.53,2.44,5.13,4.08,6.44l-1.78,3.24s-8.67,0-15.67,0Zm121.09-.15H112.92l-10.29-17.4c-.2-.34-.5-.22-.73-.55l3-16.35c4.8,2.22,8.84-3.52,6.22-8.17,14.8-5.43,31.82-19,31.82-19l.11,13.46,9.73,10.12ZM25.17,220.57c.59-16.58-.24,2,.22-52.91L25.07,63a7.64,7.64,0,0,1-.6-4.2L34.72,69.7v30.42s9.7,14.38,11.93,21c5.91,14.71,7.46,23.25,8.18,35.32l-1.07,1.71,1.2,1.54v4.11l-1.6,1.63,1.46,1.86-.41,3.84-1.14,1c1,1.13.67,2.72.5,3.84-.29.87-.76.75-1.47.58-3.65-1-7.34-3.63-10.71-5.67.15-2,2.61-6.55-.82-11.57-1.27-1-4.95-.6-5.27-.75l0-15.47,2.59-.15-1.94,2.2,2.64-.2L37,146.84l2.75.11-2,2.1,2.7-.05-2,2,2.55.07L39.35,153l2.8-.22-2,2.22,3-.05L40.83,157l3,0-.9,1,.8.4c.82-.38,5.67-3,5.67-3,0-.42-4.11,1.1-4.3,1-1.23-5.43-6.51-17.44-10-20.94l-.24,33.93c-.53.5-1.38.25-1.93.47-1.77-.09-4.72,2.88-3.18,3.46.81.18,5.28.95,5.29,1.17-.23,9.66-.34,19.72.07,30.22,1.25.19,5.33.42,5.33.42s-15,15.7-15.27,15.38ZM83,212.7h0c-2.06,0-3.34-.2-3-.73.08-.27-.48.56-.48.56,0,.36-14.73-.37-22-1.76-.12-1,.13-1.47.05-3.32,4.44.74,7.68-.71,8.65-3.84.59-1.7.31-3.22-.59-7.76s-.89-3.93-.78-4.52a5,5,0,0,1,2-2.36,2.4,2.4,0,0,0,.65-1.35,1.9,1.9,0,0,0-.55.45c-.48.64-1.1.57-1.81.94-1.67.87-1.61,1.72-.63,5.34a36.09,36.09,0,0,1,1,4.37s-.57-.45-1.25-.92a8.64,8.64,0,0,0-3.15-1.59c1.19,1.27,2.41,1.8,3.34,3.11a9.36,9.36,0,0,0-6.37.17s.28-1.83.39-4.28c.28-6.21,1.74-12.84,5.86-16.67,5.89-5.48,15.58-1.76,20.95,3.31l.58-.89c-3.61-3-9.86-6.83-15.95-6.1,2.55-2.13,8.16-5.66,8.16-5.66,3.85,2.8,6.69,5.6,10.92,8.64l.74-.49L78.07,168.1l-12.53,8.3s.52-8,.72-10.87l-5.44,4.82L65,176.58l-4.44,4.59s.75-.11-.07,1.31C58,189.22,57.66,195.73,57,202.6a24.44,24.44,0,0,0-1.84-6.25c-.87-2.25-1.21-2.23-2.19-1.9-5.32.45-2.91-9.85,3.37-3.11.28.29.73.64.75.57a35.53,35.53,0,0,0-2.36-7.09c-.74-1.32-.74-1.51-1.83-1.39-2,.21-2.73-.52-2.94-2.68.27-4.08,4.67-2.36,7.49-1.1.25.2-1.32-1.44-1.89-2a3.31,3.31,0,0,1-.89-1.29l.17-2.17,4.31-4L55.63,165l.15-1.88,3.79-4.56-4-4.4,0-1.57,3.28-4.38-4.4-3.54-.21-1.41S57,138,56.9,137.78s-4.77-3.42-4.77-3.42l-.47-2.21,2-5.6-4.89-2.8-.89-2.53L49.3,116l-5.07-2.35-1.44-2.92.94-5.45L38,103.63l-1.51-2.4.2-4.79-1.45-.14V94.91l1.63.22.25-6.61-1.87-.16V87.11h2.36l1,1-.45,7.43,7.26,1.22.69.93-1.22,6.89,6.82,2,.92,1.67-1.93,7.17,6.87,3,.45,1.33-2.92,6.36,6.31,3.08.4,1.53-3.51,6.56,6.26,4.57-.18-1.16-5-3.62,2.93-5.6c0-2.36-2-7.75-2.83-10.27l9.64-6.51c-4.13-2.5-9.34-2.41-14.12-3.35a6.72,6.72,0,0,0-.57-1.27c-1.39-2.24-2.64-5.09-4.2-8a10.55,10.55,0,0,1,2.87-.71c3.4-10.27.56-24.46,6.39-32.38l.2-.07c.55-.19.93.72.93,1.34a1.43,1.43,0,0,1-1.14,1.4v.72a2.14,2.14,0,0,0,1.12-3.75c.26-.08,1-.43,1-.43l1.78,2L59.41,74v1.31c1.68-1.75,5-5.21,5-5.21l-2.15-2.26,1.06-.5,1.74,1.92,3.9-4,1,.68a46.62,46.62,0,0,1-4.14,4.35c1,1.2,4.79,4.86,4.93,5V74L66.93,70.2l3.92-3.87s2.39.75,3.34,1.11c-1.29-1.06-3.6-2-4.86-2.9-5.69-3.37-.29-10.34,5-8.61.15.56,2.88-16.49,2.88-16.49s17.32-1.71,21.06-1.74c-.52,2.47-1.44,11.38-1.44,11.38-1,8.67-1.81,19.57-7.51,23.17a10.51,10.51,0,0,0,1.63,1.41s-.67-.71-.69-.79a.68.68,0,0,1,.31-.54,14.21,14.21,0,0,0,2.63-3.07c4.7,4.1,12.06,7.63,16.5,6.17,1.75-.37,2.53-2.06,3.45-.69-3.13,19.33,1.25,40.11,6.36,54.89-1.61.57-9.87,6.13-9.87,6.13,4.27,2.62,13.14,2.06,14.63,3.07a1.91,1.91,0,0,0-1.48-3.49c-.49-1.22-.92-2.28-.92-2.28l5.56,2.43-1.81,6.11.61,1.36,2.21-8-7.1-3.05-.48-1.41,2.94-6-6.35-3.78-.27-1.2,3.42-6.48-6.15-4.74,4.5-5.84-5.54-4.67.06-.77,4.59-5.3-4.74-4.89-.13-2,5.17-4.61-4.46-6.51A19.72,19.72,0,0,0,118,69.6l1.09.48-4,3,4.23,6.14,4.47-4.05-2.42-4,1.48.67L124.21,74,124,76.19l-4.41,4,3.79,5.52,0,1s-2.36,2.72-4.08,4.75l4.81,5.33-3.93,5,4.95,4.23-.14-1.27-3.65-3.09,2.8-3.41c.2-2.05-.24-5.58.8-7.13-1.69-1.66-.81-5.66,0-7-1.61-1.92-.69-6.13.34-6.3-1.23-1.55-.74-4.69.29-5.72.33-.18-4.4-1.89-7.38-3.94,2.48-4.64,1.9-9,2.68-10.57a78.86,78.86,0,0,0,3.63,8.8c.13.25.39.19.78.2,4.93.44,4.46,4.52.76,5.57,3.68,1.81,8.47,5.71,11.21,6.74a14,14,0,0,0-.93,4.77,20.38,20.38,0,0,0,.95,6.44l-1.56,1c-.31,1.34-2.06,1.37-2.22,2.33.37,4.11,8.36,19.84,10,21.61.64-11.22-.58-23.41,0-34.61,7.53,0,9.14-4,0-4.66.17-10.16,0-30.58,0-30.58l-5.38,0s13.29-13.89,14.54-15.07C154,78.6,153.91,190.5,153.91,190.5l-10.15-10.2-.11-31.78c-3.4-3.46-5.35-8.5-7.37-11.77L130.72,134l1.31-4.48-.56-1.27-1.73,6.34,6.07,2.9.64,1.31-1,6,5.75,2,1,1.37-.36,5.83,1.21.36v1.16l-1.2-.1L141.4,162l1.63.48v2.26a10.06,10.06,0,0,1-3.11-2.54l.57-7.27-7.29-1.47-.54-.77,1.34-7.27L126.34,143c.79,1.94,1.83,3.76,2.69,5.67-1.05.31-2.15.37-3.21.6-.29,9.82,0,20-.26,29.27-2.73.77-4.08,2.56-5.95,3.07a1.27,1.27,0,0,1-.19-2.52v-.64a1.9,1.9,0,0,0-.83,3.49l-1.06.38-1.86-2.11,3.75-3.61v-1.09l-4.71,4.73,2.08,2.42-1.24.65-1.9-2s-4.09,4.21-3.84,4.28c3.58,4.57.06,10.18-5.36,8.06-1.22,5.82-2.39,11.06-3.35,17.09,1.28.15-11.9,2-18.08,2Zm-10-4.52c2.44,0,5.53-1.19,7.46-2.14,1.77-.79,1.43-1.26.32-.93-1.6.42-3.3.85-4.85,1.15a9.94,9.94,0,0,1-5.36-.6c-.94-.46-1.26-.19-.85.71a3.36,3.36,0,0,0,3.29,1.8Zm-12.39-1.94a3.75,3.75,0,0,1-3-1.56l0-1c1.94,1.71,5.23,1.12,7.07.14a4.46,4.46,0,0,1-4.14,2.42Zm15.33-1a5.91,5.91,0,0,0,4.4-1.53,12.21,12.21,0,0,1-8.32.07,7.16,7.16,0,0,1-1.35-.83l.34-.22a5.23,5.23,0,0,1,1.37.25,10.37,10.37,0,0,0,7.67-.21c.66-.29,1.19-.68,1.86-.9l0-.79a5.61,5.61,0,0,1-2.56-.9c-2.25-1.24-3.34-1.12-5.48-1.11a5.77,5.77,0,0,0-1.13.16,6.53,6.53,0,0,1,1.47-.86,38.39,38.39,0,0,0,4.23-1.64,16.66,16.66,0,0,0-7.46,2.48c-1.31,1-1.67,1.28-1.12,1.69s.9.39.2,1.11a3.74,3.74,0,0,0-.67.89c0,.51,3.11,2.16,4.91,2.28.55,0,1.1.06,1.65.06Zm-14.73-1.09a4,4,0,0,1-3.42-1.5l.05-.56c2.37,1.84,5.16,1.14,7.33.39A5,5,0,0,1,62.45,204a7.89,7.89,0,0,1-1.25.16Zm16-2.13h-.52c-.48-2.57-2.45-2-2.89-.15l-.61-.18c.51-1.33,1.25-1.87,2-1.89A2.26,2.26,0,0,1,77.19,202Zm.66,0a5.34,5.34,0,0,0-.87-1.92,14.36,14.36,0,0,1,1.47.41c1.33.57,1.47.8.79,1.16a3.07,3.07,0,0,1-1.39.35Zm-15.39-.46a.8.8,0,0,1-.31-.07c-.34-2.08-1.91-1.65-2.29-.26a1.67,1.67,0,0,1-.71-.12,2.54,2.54,0,0,1,2.06-1.65c.81,0,1.54.69,1.75,2a1.35,1.35,0,0,1-.5.06Zm10.21,0a3.31,3.31,0,0,1-1-.67c-.13-.3.18-.53.84-.74a6.89,6.89,0,0,1,1.18-.12A4.55,4.55,0,0,0,72.67,201.52Zm-8.92-.06h0l-.18,0a3.7,3.7,0,0,0-.89-1.94,3.55,3.55,0,0,1,2.56,1v.24a2.31,2.31,0,0,1-1.48.71Zm-5.11-.57-.69-.36L58,200a5.38,5.38,0,0,1,1.72-.48,6.26,6.26,0,0,0-1.13,1.36ZM71,194.14a2.85,2.85,0,0,0,1.65-1.19c1.94-2.64-.19-5.31-2.89-3.79-.61.34-1.45.45-2.07.85-1.3.9-.08,1.65.82,1.46a3.92,3.92,0,0,0,1.27-.58c1.63-1.09,2.53-.93,2.69.39s-2,2.06-1.81,2.72A.34.34,0,0,0,71,194.14Zm3.4-8.42c0,.23.13,0,.6-1.26.32-.79.42-1.45.1-1.44a.9.9,0,0,0-.47.25c-.6.4-1.84.37-3.87-.81a3,3,0,0,0-3.45.18c-.52.4-1.47,1.47-2.2,1.14s-1.49-.86-1.34-.33a12.76,12.76,0,0,1,.18,1.58c0,1.1.05,1.64.84.78.34-.37.8-1,1.57-.67a1.5,1.5,0,0,0,1.46-.06c.57-.56,1-1.23,2.24-.12a2,2,0,0,0,1.83-.08,1.53,1.53,0,0,1,2.29.68c.08.14.16.19.23.17Zm34.11-.66,4.37-4.49-4.2-4.41v1.06l3.15,3.31-3,3.07c-.44.6-1.56.47-1.91.51C107.11,184.86,107.78,184.77,108.47,185.06Zm.17-2.68a1.9,1.9,0,0,0,0-3.78v.64a1.26,1.26,0,0,1,0,2.5Zm-35.83-.77a.26.26,0,0,0,.19,0c.3-.26-.75-1.27-1.76-1.46-.77-.15-1.77,0-1.77-.15a4.07,4.07,0,0,0,1.14-.48.62.62,0,0,0-.46-.69c-.3,0-.53.26-.75.35a2,2,0,0,1-.65,0c-.66,0-1.48-.47-1.66-.38s-.24.58-.13.73a3.76,3.76,0,0,0,1.41.58l-.82.18c-.33.08-.6.1-.82.4s-.14.52.08.52c1.32,0,3-.56,4.56,0a7.48,7.48,0,0,0,1.44.43Zm-13.39-1.06,4.32-3.71-3.7-5.41-4.72,3.8,3,4.68Zm54.4-.88,4.46-4.74-4.64-4.68-4.51,4.52Zm-54.28-2.46A1.19,1.19,0,1,1,60.74,176,1.19,1.19,0,0,1,59.55,177.22ZM113.72,176a1.19,1.19,0,1,1,1.19-1.19A1.19,1.19,0,0,1,113.72,176Zm-48.63-.82-3.27-4.8,3.95-3.4c-.06.8-.11,1.44-.15,2a2.15,2.15,0,0,0-.29,4C65.28,173.65,65.2,174.33,65.09,175.19Zm54.33-.87V173l-3.63-3.75,3.63-3.8-.07-1.22-4.83,4.95ZM108.64,174l4.5-4.77-4.5-4.69v1.51l3.08,3.26-3.08,3.18Zm-73.56-.35h0a10.68,10.68,0,0,1-2.29-.21c.39-1.55-1.25-2.39-1.49-2,0,0-.16.28,0,.3a1.18,1.18,0,0,1,.95,1.56c-1.3,0-2.15,0-2.28-.6-.08-.36.13-.91.89-1.54s5-.7,5-.7a4.54,4.54,0,0,1,.4-1.85c.36-.59.86-1.25.52-1.53a2.09,2.09,0,0,1-1.08-1.71c-.16-1.61.09-5.49,0-5.54.69-.07,1.48-.14,2.25-.14,1.27,0,2.46.22,2.94,1.07,1.95,2.62,1.39,8,0,9.85-2.27,2.07-3.81,3-5.87,3.07ZM55,172.95l.09-1.09a2.15,2.15,0,0,0,.31-4.08l.12-1.54,2.73,3.85Zm10.38-.7a1.43,1.43,0,0,1,.16-2.42c-.06.91-.1,1.66-.16,2.42Zm43.23-1.07a1.9,1.9,0,0,0,0-3.74v.65a1.26,1.26,0,0,1,0,2.44Zm10.73-.07c0-.25,0-.46,0-.64a1.27,1.27,0,0,1,0-2.54c0-.27,0-.52,0-.64a1.91,1.91,0,0,0,0,3.81Zm-64.2,0,.2-2.53a1.43,1.43,0,0,1-.2,2.53Zm5.07-1.86,4.68-4.68-4.52-5L56.26,164Zm53.56-.47,4.46-4.78-4.56-4.68-4.62,4.62Zm-53.38-3.21a1.19,1.19,0,1,1,1.19-1.19A1.19,1.19,0,0,1,60.42,165.54Zm53.27-.47a1.19,1.19,0,1,1,1.19-1.19A1.19,1.19,0,0,1,113.7,165.07ZM66.21,164l0-1.19-4-4.2,3.74-4.38-.09-1.28-4.79,5.73Zm53.13-.42a9.67,9.67,0,0,0,.09-1.18l-3.76-3.81,3.55-3.68.14-1.44-4.92,5Zm-10.7-.62,4.32-4.48-4.32-4.38v1.35l3,3-3,3.06Zm-52.91-1.27,0-1.06a2.15,2.15,0,0,0-.08-4l0-1.09,2.86,3Zm83.47-.5-1.39-1.69a1.91,1.91,0,0,0-1.52-3,1.88,1.88,0,0,0-.83.2l-1.7-2.06,5.8,1.1Zm-19.77-.54V160a1.27,1.27,0,0,1,0-2.53v-.64a1.9,1.9,0,0,0,0,3.81Zm-53.23-.13v-.75a1.43,1.43,0,0,1,0-2.69v-.75a2.15,2.15,0,0,0,0,4.19Zm42.44-.23a1.91,1.91,0,0,0,0-3.71v.67a1.26,1.26,0,0,1,0,2.38Zm-53-.47,0-2.36a1.42,1.42,0,0,1,.64,1.19,1.44,1.44,0,0,1-.59,1.17Zm81.69-.84-1.5-1.83a1.27,1.27,0,0,1,1.67,1.2,1.28,1.28,0,0,1-.17.63Zm-77.31-1.25,4.3-5.06-4.79-3.71-3.7,4.73Zm53.64-.09,4.59-4.7L115,149.33l1.61.15a9.89,9.89,0,0,0,2.68,2.68l-.12-.93c-.06,0-1.52-1.37-1.29-1.6l1.28.09c.1,0,0-.47,0-.47a45.55,45.55,0,0,1-10.6-2.27l.1.66.57.25s-.36.43-.66.77v1.18l1.52-1.73.74.27-2.26,2.3v.87l3-2.95,1.46.4-4,3.93Zm-53.55-3.25a1.19,1.19,0,1,1,1.18-1.19A1.19,1.19,0,0,1,60.14,154.35Zm53.68-.34a1.19,1.19,0,1,1,1.19-1.19A1.19,1.19,0,0,1,113.82,154Zm26.79-.23.48-5.94-5.94-2-1,6.56Zm2.4-.37-.45-.1.17-3.17.29.05ZM65.94,152.3,65.85,151l-4.18-3,3.18-4.25-.27-1.5L60.22,148Zm66-.59-1.34-2.24a1.9,1.9,0,0,0-1.91-3.19l-1.22-2,5.69,1.79Zm-76.56-.2-.13-.93a2.15,2.15,0,0,0-.5-3.78l-.1-.79,3,2.26Zm82.17-.32A1.19,1.19,0,1,1,138.7,150,1.19,1.19,0,0,1,137.52,151.18ZM55.11,149.7l-.27-2A1.35,1.35,0,0,1,55.11,149.7Zm10.5-.19-.09-.73a1.42,1.42,0,0,1-.34-2.73l-.09-.73a2.14,2.14,0,0,0,.53,4.19Zm64.62-.61L129,146.85a1.28,1.28,0,0,1,.27,0,1.27,1.27,0,0,1,1,2.09Zm-70.87-1.57L62.84,142l-4.91-3.42-3,5.31Zm81-1.72-4-1.42.63-3.76.78,1.21a1.91,1.91,0,0,0,1.93,3Zm-6.25-1.21,1.21-6.25-5.87-2.66-1.65,6.6Zm-75.26-.18A1.19,1.19,0,1,1,60,143,1.19,1.19,0,0,1,58.84,144.22Zm80.51-.17h0a1.2,1.2,0,0,1-1.13-1.82ZM35.54,142.73l0-1.39,1.66-.29Zm18.28-.82-.26-1.21a2.15,2.15,0,0,0-.83-3.87l-.27-1.26,3.35,2.32A31.51,31.51,0,0,1,53.81,141.92Zm77.75-.76a1.19,1.19,0,1,1,1.19-1.19A1.19,1.19,0,0,1,131.56,141.16Zm-96-.63s0-1,0-1.39l.94.27Zm17.87-.62-.48-2.28a1.44,1.44,0,0,1,.48,2.28Zm10.32-1.6a1.72,1.72,0,0,0,.22,0c-.09-.3-.16-.47-.22-.69a1.43,1.43,0,0,1-1.43-1.43,1.41,1.41,0,0,1,.86-1.29l-.17-.72a2.15,2.15,0,0,0,.73,4.16Zm60.37-.29c-.28-.63-.66-1.25-1-2.09a.74.74,0,0,1,.24,0,1.26,1.26,0,0,1,1.26,1.26A.86.86,0,0,1,124.07,138Zm-66.6-1.26,2.77-6.21-5.54-3.27-2.56,6Zm76.22-2.3a2.84,2.84,0,0,0,.63-.07c.55-.74-.23-3.56-1.68-3.52a2,2,0,0,0-.85,1.69,1.9,1.9,0,0,0,1.9,1.91Zm-5.14-.42,1.58-6-5.71-3.19-2.18,5.87Zm5.14-.22a1.29,1.29,0,0,1-1.26-1.27,1.27,1.27,0,0,1,.47-1c1.09-.82,1.25,2.36,1.07,2.2a.54.54,0,0,1-.28.06Zm-77.39-.74a1.19,1.19,0,1,1,1.18-1.19A1.19,1.19,0,0,1,56.29,133.09Zm-5-2-.47-1.52a2.15,2.15,0,0,0-1.09-3.48l-.41-1.33,3.6,2.11Zm75.12-.45a1.19,1.19,0,1,1,1.19-1.19A1.19,1.19,0,0,1,126.39,130.64Zm-6.14-.9-.69-2.32a1.91,1.91,0,0,0-1-3.48l-.58-1.94,4.65,2.68ZM50.5,128.66,50,127a1.43,1.43,0,0,1,.52,1.66Zm10.5-.53-4.73-2.49a32.6,32.6,0,0,1,2.2-4.8,13.42,13.42,0,0,1,.88,2,2.15,2.15,0,0,0,1.07,3.93l.24,0Zm70.11-.83-.45-1.17-4.46-2.58,1.91-4.66-.4-1.36L125.08,124Zm-11.75-.54-.65-2.17a1.27,1.27,0,0,1,.65,2.17Zm-59-.7a1.3,1.3,0,0,1-1.22-1.41,1.42,1.42,0,0,1,.48-1.06Zm-6.21-.58,2.51-6.19-6.28-2.84-1.73,6.15Zm75.47-1.05c1.91,0,.93-3.83,0-3.81a1.9,1.9,0,0,0-1.9,1.91,1.88,1.88,0,0,0,1.9,1.91Zm0-.64a1.27,1.27,0,0,1,0-2.54C130.16,121.49,130.3,123.72,129.6,123.79Zm-5.51-.6,2.63-5.95-5.26-3.71-3.1,6.15ZM52.58,122a1.19,1.19,0,1,1,1.19-1.19A1.19,1.19,0,0,1,52.58,122ZM47.33,120l-.43-.89a2.15,2.15,0,0,0-1.58-3.28l-.53-1.09,3.53,1.61Zm75.16-.43a1.19,1.19,0,1,1,1.19-1.19A1.19,1.19,0,0,1,122.48,119.57Zm-5.7-1.27s-.27-1-.6-2.42a1.91,1.91,0,0,0-.81-3.63h0c-.18-.83-.34-1.64-.45-2.31l4.52,3.25Zm-70.3-.06-.75-1.56a1.4,1.4,0,0,1,.78,1.27C46.51,118.11,46.5,118.12,46.48,118.24Zm10.66-.85-5.57-2.45,1.58-5.56,1.27,2.23a2.15,2.15,0,0,0,1.28,3.88,2.11,2.11,0,0,0,.51-.07Zm70.28-.89-.38-1.3-3.91-2.88,2.27-4.18-.24-1.55L122,112.66ZM116,115.24c-.18-.74-.36-1.54-.54-2.34a1.27,1.27,0,0,1,.54,2.34Zm-60.31-.46a1.43,1.43,0,0,1-1-2.48l1.16,2.47h-.2Zm-6.17-.07,1.46-6.9-6.16-2.05-1.3,6.53Zm76.87-1.49c1.43-.35.66-3.66,0-3.81a1.51,1.51,0,0,0-1.32.53,1.91,1.91,0,0,0,1.32,3.28Zm-.25-.63a1.29,1.29,0,0,1,.25-2.54c.79.24.52,2.45,0,2.54a.94.94,0,0,1-.25,0Zm-4.94-.83,3-5.2-4.85-3.74-3.52,4.75Zm21.82,0-.65-.49.66-.73Zm-95.54-.59A1.19,1.19,0,1,1,48.69,110,1.19,1.19,0,0,1,47.51,111.17ZM42.17,110a6.31,6.31,0,0,0-.59-1.19,2.15,2.15,0,0,0-1.87-3.19h-.17l-.61-.9,4,1.17ZM143,109.78l-1.26-.63,1.29-1.07Zm-23-1.6a1.19,1.19,0,1,1,1.18-1.19A1.19,1.19,0,0,1,120.09,108.18Zm-79-.13c-.34-.55-.72-1.13-1.06-1.65a1.43,1.43,0,0,1,1.09,1.39,1.48,1.48,0,0,1,0,.26Zm102-.72L141.3,107l1.5-1.91-2.65.12,1.82-2L139,103.2l2.29-1.95-3.08,0,2.29-1.92-3.38.15,2.42-2.09h-3.34l2.49-2.1-3.26,0,2.12-1.88-2.85,0L138,91.06A13.9,13.9,0,0,0,143,92Zm-28.72-.87-.22-1.72a1.91,1.91,0,0,0-.46-3.69l-.25-2,4.17,3.41Zm-63.19-.77-5.31-1.57,1-5.49s.62,1,1.34,2.12a2.15,2.15,0,0,0,2.15,3.57c.28.53.8,1.37.8,1.37Zm-7.33-1.47L44.6,98l-6.49-1.21s-.31,3.92-.48,5.8Zm70.22-.14-.3-2.37a1.27,1.27,0,0,1,.3,2.37Zm-64.31-.39a1.43,1.43,0,0,1-1.12-2.32c.47.75,1,1.56,1.38,2.29l-.26,0Zm20.81-.15v-.39l-1.09-.28,1.11-1.33v-1.26l-2.1,2.26-.78-.18,2.88-3V98.11l-3.85,4-1.16-.26,4-4.15L65.15,93l-4.8,4.89,3.39,3.54-1.87-.21-2.52-2.58v1L60.57,101l-1.23,0v.32h0c3.95,1,8.4,1.77,11.25,2.23Zm54.16-.24c.35-.14.42-3.32-.07-3.83a1.91,1.91,0,0,0,0,3.81.07.07,0,0,0,.07,0Zm0-.65h0a1.27,1.27,0,0,1,0-2.54A7.4,7.4,0,0,1,124.68,102.65Zm-83.43-1.17a1.19,1.19,0,1,1,1.19-1.19A1.19,1.19,0,0,1,41.25,101.48Zm78.27-.06,3.41-4.24-4.3-4.77-3.91,4.72Zm-83.65-.95-.58-.9V97l.73.12ZM65,98.8a1.19,1.19,0,1,1,1.18-1.19A1.19,1.19,0,0,1,65,98.8Zm53.83-.62A1.19,1.19,0,1,1,120,97,1.19,1.19,0,0,1,118.82,98.18Zm-59.47-.84,5.05-5.25-5-5.14V88.2l3.88,3.87L59.36,96Zm11.26-.43V95.64L67,92l3.69-3.79V87L66,91.94ZM44.85,95.84l-5.69-.92L39.47,89s1.21,1.3,1.62,1.83a2.14,2.14,0,0,0,1.62,3.54,2.11,2.11,0,0,0,.94-.22C43.88,94.5,44.85,95.84,44.85,95.84Zm68.39,0v-2.1a1.91,1.91,0,0,0,0-3.6v-2l3.62,3.62Zm10.14-1.11-2.87-3.17,2.7-3.18,0,1.48a1.91,1.91,0,0,0,.1,3.71Zm-64-.49a2.13,2.13,0,0,0,0-4.21v.73a1.42,1.42,0,0,1,0,2.75Zm11.27-.07v-.72a1.43,1.43,0,0,1,0-2.8v-.72a2.14,2.14,0,0,0,0,4.24Zm-27.92-.48a1.43,1.43,0,0,1-1.43-1.43,1.41,1.41,0,0,1,.25-.81l1.67,2.15a1.4,1.4,0,0,1-.49.09ZM113.23,93V90.82a1.27,1.27,0,0,1,0,2.21Zm10.1-.15a1.27,1.27,0,0,1-.07-2.39ZM64.89,91.09l4.52-4.79L65.14,82l-4.53,4.68ZM118.78,91l3.88-4.74-3.82-5.15-4.72,4.73ZM143,90.85s-3.52,0-4.75-.91c-1.28-2.35-2.16-7.42-.27-10.2a16.73,16.73,0,0,1,2.74-2.12,5.1,5.1,0,0,1,3.06-1,2.2,2.2,0,0,1,2.18,1c.21.38.32.71.63.85.6.28,1.41.09,1.45-.12a4.43,4.43,0,0,1-1.13-.26c-.8-.73-.67-1.18.47-1.09.37,0,1.39,0,1.42.43.23,1.39-1.61,2.41-4,2.22-1.68-.28-1.69.37-1.81,1.27a6.1,6.1,0,0,1-.54,1.15c-.59,1.07-.79.92-.38,1.33a3.41,3.41,0,0,1,.92,1.79ZM65.12,87.73a1.19,1.19,0,1,1,1.19-1.19A1.19,1.19,0,0,1,65.12,87.73Zm53.36-.65a1.19,1.19,0,1,1,1.18-1.19A1.19,1.19,0,0,1,118.47,87.09Zm-59.09-.66,5-5.34-5-5.18v1.24l4,3.94-4,4.13Zm-24.1-.12V84.53L37,86.29Zm35.41-.06v-1.4L67,81l3.77-3.76v-1.3l-4.89,5ZM123.31,84l-2.61-3.77,3.15-3-.13,1.63a1.9,1.9,0,0,0-.3,3.68Zm-10.21-.39.21-2.25a1.91,1.91,0,0,0,.34-3.66l.2-2.14L117.12,80Zm-42.38-.3v-.72a1.42,1.42,0,0,1,0-2.84V79a2.14,2.14,0,0,0,0,4.27Zm-35.37,0V69.33L25.29,58.69V21H64.84l11.6,19.47c-.7,5.1-2.5,15-2.5,15-1.06-.26-4.66-.6-6.59,2.2-.93,1.33-1.42,3.15-.17,6,.18.34.47.83.47.83a2.15,2.15,0,0,0-.54.23c-15.2,5.65-31.47,18.23-31.75,18.6Zm24-.06a2.14,2.14,0,0,0,0-4.22v.74a1.42,1.42,0,0,1,0,2.75Zm64.08-1.32a1.27,1.27,0,0,1,.19-2.35Zm-10.11-1.23.21-2.31a1.27,1.27,0,0,1-.21,2.31Zm-48.2-.45,4.5-4.67L65.25,71l-4.57,4.65ZM138,78.31l-9.79-5.44-.7-.36a3.66,3.66,0,0,0,.84-.46,3.43,3.43,0,0,0,1-3.87c-.82-2.2-2.52-1.8-3.93-1.81-1.18-.91-2.18-4-3-6a13,13,0,0,1-.84-2.07,5.2,5.2,0,0,1-.08-.89s.19.06.47.63c1.56,3.3,5.2,4.89,7.14,1.77,1-1.91.3-4.1-1.34-4.71a8.44,8.44,0,0,0-2.22,0c-.1.06-1.24-1.62-2.86-7.14-.66-2.28-.84-7.22-.2-7.94,1.07-1.3,1.34-3.14,2.25-4.45.11-.22.33-.61.33-.61,1.75,3.71,6.85,6.93,10.3,6.64,2.5-.21,3.29-1,2.69-1.7a11.81,11.81,0,0,1-2.73-5.14c-1.05-4-2.17-7.65-5-10.8l1.62-3.19,20.89.14v7.74l-16.1,17.18,6.21.08-.07,29.48A28.91,28.91,0,0,0,138,78.31ZM65.21,76.77a1.19,1.19,0,1,1,1.19-1.19A1.19,1.19,0,0,1,65.21,76.77Zm54.22-1.56A1.19,1.19,0,1,1,120.62,74,1.19,1.19,0,0,1,119.44,75.21Zm-11.91-.47c-4.33.09-9-2.37-13.89-6.2,3.27-9.1,3.63-18.73,3.75-19.09a10,10,0,0,1,2.3.53,9.09,9.09,0,0,0,3.95,1.19l1.44.07c-1.66,1.12-3.61,1.28-5.05,2a2.91,2.91,0,0,0,1.45.18,12.67,12.67,0,0,0,5.91-2.32c1.4-.94,1.45-.94,1.08-2.11-.09-.28-.28-.71.39-1s.6-.54.2-.86c-.1-.08-.35-.1-.45-.17s0-.54,0-.6c-2.39-2-6.5-2.21-10.06-.38-.23.12-.84.36-.84.36l.08-.88a13.65,13.65,0,0,1,7.06-1.78c1.29,0,1.54.14,3.48.74.8.24,1.24.31,1.32.19.17-.28-.12-1.1-.74-1.54-2.07-1.49-5.09-1.37-9.21.27-.49.19-1.82.89-1.82.89a36.33,36.33,0,0,1,.56-4.08c.2-1.21.48-2.4.48-2.4.44-.25,19.77.7,22.4,2.33.26.25.05.58,0,1.28-.08,1.12-.16,1.83-.16,1.83s-.64-.31-1-.48a5.94,5.94,0,0,0-6.36,1.7c-2.09,2.28-2.16,4.63-.85,9.26,1.49,5.21,1.46,5.9-.33,7a4.47,4.47,0,0,0-1.77,2.84A9.23,9.23,0,0,1,113,61.75c2.08-1.43,2.73-2.16,1.77-4.79s-1.7-5.14-1.31-5.3c.19-.08.9.77,1.35,1,.91.52,3.19,1.46,3.19,1.46a5.19,5.19,0,0,0-1.08-.82c-2.5-1.65-3.53-3.14-1.11-2.2a6.12,6.12,0,0,0,4.86-.61s.09,1.12.09,1.52a51.25,51.25,0,0,1-.42,6.1c-.46,4.69-1.25,8.64-3.3,11.18-3,3.72-6.19,5.34-9.55,5.42ZM70.81,72.34v-.72a1.42,1.42,0,0,1,0-2.82v-.72a2.14,2.14,0,0,0,0,4.25Zm37-1a1.36,1.36,0,0,0,.87-.34c.63-.54,2.35-.4,3.33,0,.43.19.47-.62,0-.79s-1.22-.38-1.22-.38.78-.28,1.64-.56c.5-.16.54-1,0-.82a8.14,8.14,0,0,1-5.11.45c-1.58-.49-1.21.71.51.86.55,0,1.47.16,1.47.16a5.44,5.44,0,0,0-1.29.82c-.39.37-.34.54-.13.56Zm3.91-3.67c1.18-.53,1.9-1.58,3-.66.64.54.61.13.44-1s-.31-1.93-.66-1.89c-.14,0-.3.14-.52.39a2.59,2.59,0,0,1-1.53,1.11c-.93.18-1.21-.05-1.91.21s-.62.33-1.29,0a2.79,2.79,0,0,0-2.07-.17c-.83.24-1.49-.79-2.06-1.07s-.75-.22-1,.3a12.31,12.31,0,0,1-.68,1.36c-.61.94-.46,1.1.82.7.88-.27,2.4.29,3.58.86a4.72,4.72,0,0,0,3.83-.18Zm-4.34-6c1.35,0,2.41-.92,3.89-1.33.73-.19.56-1.14.09-1.55s-1.52-.2-2.76.75c-2.43,1.87-3-1.72-.8-2.36.34-.1.19-.89-.54-.69a2.69,2.69,0,0,0-1.95,2.94,2.2,2.2,0,0,0,1.45,2.16,2.93,2.93,0,0,0,.6.07Zm18.81-.93c-1.17.07-2.4-.67-3.37-2.27a8.75,8.75,0,0,1-1.61-4.54c.11-2.7,0-4.15.14-6.86,1.72,2.65,2,6.55,3.84,8.66,3.38-.63,5,2.56,2.13,4.68A2.63,2.63,0,0,1,126.22,60.73Zm-8.23-10c-.82.08-1.64-.65-2-2l.59,0c.62,1.69,2.07,1.64,2.63.17h.53c-.44,1.14-1.07,1.7-1.71,1.76Zm-1.76-.29a8.9,8.9,0,0,1-1.75-.26c-.32-.12-.6-.31-.64-.52s.18-.49.52-.59.64-.14.94-.22A4,4,0,0,0,116.23,50.4Zm-12.75-.13c-.74,0-1.48-.66-1.87-2l.75-.06c.54,1.85,1.76,2.11,2.49.17l.57.09C105,49.67,104.22,50.28,103.48,50.27Zm16.08,0a4.41,4.41,0,0,0,.73-1.19l.47.13-.05.72a2.53,2.53,0,0,1-1.14.34Zm-13.83-.1h-.44a2.7,2.7,0,0,0,.82-1.52,2.21,2.21,0,0,1,.77.34c.26.32.33.58,0,.8a2.16,2.16,0,0,1-1.13.39Zm-4-.19a3.91,3.91,0,0,1-2.31-1.37l1.34-.23C101.12,48.88,101.2,49.36,101.68,49.93Zm-4.15-2,.1-.92c2.12-1.08,7-2.19,10.15-.35a.75.75,0,0,1,.1.72c-4.48-1.61-7.34-.74-10.34.55Zm23.23-.19c-2-1.29-4.59-.74-7.08,0,2.32-2.24,5.57-1.57,7.17-.91ZM114,46.5c1.68-2.68,4.17-3,7-1.65l0,1.19a6.8,6.8,0,0,0-6.94.46Zm21.43-5.82q-.36,0-.73,0c-4.2-.25-8.29-3.88-9.74-7.91l-3.07,5.29c-13.74-1.84-25.57-2.7-45,.27l-10-17.7L131,20.21a25.91,25.91,0,0,0-1.85,3.9,22.74,22.74,0,0,1,4.93,8.73,15.59,15.59,0,0,0,3.65,7.2c0,.07-.07.15-.18.23A7.22,7.22,0,0,1,135.38,40.68Z" style="fill: #131f67"/>
          <path d="M111.18,229H48.62l8.15-16.36a145.56,145.56,0,0,0,45-.33L111.18,229ZM25.65,215.72l-.13-7.84,8.1.18ZM94.05,163l.09-23.81a102.32,102.32,0,0,0,9.79,6.4l-.13,24.64Zm-27.27-5.21C66.21,144.3,64.26,139,63,132.22l11.6-7.53,0,27.64ZM35.07,134.15,35.13,101c10.66,15.4,17.4,31,19.26,52.17-2.9,1.17-5.73,2.47-8.7,3.52a137.34,137.34,0,0,0-10.62-22.53ZM143.49,148c-9.85-12.57-16.17-29.52-19.27-50.15l9-4.4c3,7.29,6.54,16,10.33,22Zm-38.95-22.43,0-27.73,7.7-5a129,129,0,0,0,3.8,25.61ZM84.27,111a49.09,49.09,0,0,0-9.11-5.64l.48-24.6,8.69,6.72Zm61.11-69.31s5.42-5.53,7.43-7.33l0,7.51ZM77.1,38.07,67,20.74l63.38-.53-8.78,17.92C104.81,35.05,91.08,36,77.1,38.07Z" style="fill: #d40000"/>
          <path d="M112.32,229.57,102,211.44c-13.76,3.05-30.19,2.52-45,.08a50,50,0,0,0-2.5,4.83c-2.07-5.59-8.69-9.2-13-7.65,0,0,0,.27.67,1.52,2.08,3.63,2.56,7.48,4.4,11.37A8.73,8.73,0,0,0,50,225.5l-2.29,4.07Zm-1.85-1h-2.12l-7.88-13.1-10.63,1.21,3.5,11.9H90.18L87,217a141.36,141.36,0,0,1-16.54-.09l-1.67,11.71h-3l1.91-11.69-10-1.28-5.41,13H49.21c2-3.41,7-14.32,8-15.4,23.77,3.07,33.44,1.52,44.36.06Zm-4.25,0H95.36l-3.65-10.86,7.75-.92Zm-17.75,0H70.36l1.49-10.07c4.75.29,9.4,0,14.07-.13Zm-24.84,0H54l4.83-11.44a55.31,55.31,0,0,0,6.77.85Zm-14.1-4.13a1.17,1.17,0,0,1-.68-.32c-1.2-1.26-2.36-3.57-3.4-6.8a56.72,56.72,0,0,0-2.69-7c-.54-1.1-.49-1.16,1.1-1.18,3.41,0,6.26,1.58,8.79,5,.8,1.1,1.12,1.6,1.11,2.06a12.4,12.4,0,0,1-1.14,2.24,22.32,22.32,0,0,1-.76-2.52c-.92,3.39-1.28-.54-1.64-1.58-1.12,3.28-1.72-1.23-1.67-2.44-1.52,2.1-1.43-1.35-2.17-2,0,1.82-1.09.58-2.47.19.72,1,2.13,1.7.33,1.93,1.79,1.24,2.69,1.05,1,1.74,1.34.74,3.55,1.64,1.11,2.13,1.49.94,3.89,1.34,1.31,2.24,1.95,1.2,4.54,1.11.89,2.07,1.32.78,3.65,1.07,1,1.74a10.32,10.32,0,0,1,1.1.65Zm-24.73-3,16.6-16.85-6.25-.18V173.93a8.3,8.3,0,0,0-1.35-.21c-3.15-.18-4-.44-4-1.2,0-.94,1.41-2.1,2.6-2.12a2,2,0,0,0,.72-.27l-.38-99.74-7.43-7.81,0-2.48,9.15,9.73.34,99.68.35-.16,0-33.48c4.69,7,7.32,14,9.93,21l1-.34s-.33-.12-.33-.12a81.21,81.21,0,0,0-10.39-22.14l.06-32.44C46.6,117.7,52,132,54.25,152.53l-5.66,2.84-.55.74-4.27,2.15-.41-.69-2.59,1.8c2,3.51,1.93,8.55.3,11.22l.7.44a13,13,0,0,0-.27-11.21l1.93-1.19c2.79,5.78,1.49,12,.18,13.61a43.81,43.81,0,0,0,8.33,4.34,1.91,1.91,0,0,0,1.9-.1l.57-3.23L53.5,172l1-.85.48-4.94-1.12-1.14,1.16-1.28.16-4.71-1.27-1,1-1.63-.07-4.17-.29-.2c-2.44-29.87-17-47.51-19.28-51.52l-.32-.52c-.16-10.13-.11-20.31,0-30.62L24.24,58l.06,4.19.52.38V81.64l-.45,0s-.14,5.13-.1,8.66l.64,0,0,13.11-.54.07,0,8.5H25s.14,8.91-.07,13.24l-.44,0,0,8.45.5,0,0,12.08-.61.09.17,8,.5,0c.18,4.93.1,13.45.1,13.45l-.57,0,.14,7.92.41,0L25,189.27l-.37,0,.14,8.21.4,0-.07,6.83-.28,0L24.77,207l.3.68,0,9.1-.23.1Zm.85-1.55,0-2.89,9.75-9.62-9.83-.15,0-2,14.32.14Zm.08-4.41L25.67,208l7.69.12Zm56.92-2.66a90.53,90.53,0,0,0,18.66-1.93s2.52-12,3.41-17.09a4.45,4.45,0,0,0,2.36.69c5.9-.64,5.4-8.77,2.35-9a1,1,0,0,1-.85-.34,1.67,1.67,0,0,0-1.06-.62c-.32,0-.47,0-.47-.18s.14-.16.67-.12c.32,0,1-.48,1-.48v-36.6a43.71,43.71,0,0,0,10.44,2.27l.22,32.62s4.83-2.54,6.58-3.55l.06-29.2,3.42-.37-5.4-11c-.76.59-11.39-.41-14-2.15l9.7-6.08c-1-3-1.88-5.9-2.71-9,0-.09-.2-.08-.23-.18-.2-.75-.34-1.08-.53-1.83,0-.14,0-.37,0-.51a111.23,111.23,0,0,1-3.81-25.39c0-.08.34,0,.34,0l-.06-5.24-.34.23,0-2.37.35-.35c0-.46,0-1.33,0-1.33l-.45-.28.23-4,.46-.07.25-6.29L101,81.1s-8-5.77-11.52-8.76c3.86-2.63,4.88-7.77,5.84-12a71.6,71.6,0,0,0,1.58-11.23A111,111,0,0,1,98.44,37.6a99.08,99.08,0,0,0-21.5,1.85c-.65,5.68-1.65,10.83-2.83,16.33,0,0-.13-.46-2.05-.44-5.62.08-7.59,6.36-2.89,9.13.44.26,1.2.77,1.94,1.16.21.11,2.91,1.7,2.91,1.7l-3.23-1.46-.23,37.66s-6.74-2-11.18-2.22l0-32.65L53.22,72l-.28,29.19-3.4.22s1.29,2.75,1.57,3.33c.57,1.16,2,3.73,3,5.36.35.58,1.17,1.86,1.17,1.86a35,35,0,0,1,13.37,2.68L58.91,121c4.07,11.52,9.15,28.37,6.32,55.56l.68-.44.19-2.93,12.13-8.38,15,12.1-1.33,0c-3.82-.14-6.5,3.78-7.43,7.06-1.63,5.77-1.84,7.19-2.59,16.34a84.32,84.32,0,0,1-1.74,10.55,7.78,7.78,0,0,0-.33,1.91q1.43,0,2.87,0Zm-.54-.28-1.46,0c2.13-10.58,2.14-19.63,4.41-28,1.12-4.13,4-7.08,6.78-7.07,6.18.77,4.54,7.28,1.94,8.63-3.55,1.66-6.39-1.68-4.12-5.07,1.66-2.48,4.82-.84,3.6,1.88-.69,1.53-2.11,1.35-2.1-.2.51-1.47,0-.95-.36-.43-1.25,1.63,1.27,3.37,2.57,1.75a3.45,3.45,0,0,0,.69-3.1c-.47-1.6-2.31-2.54-4.39-1.06-2.49,3-3.82,6.88-4.56,11.23-1.57,9.24-1.65,19-3,21.43Zm.95,0c.64-.42,1.47-13.29,2.76-21.54.1-.67,1.53-7.25,2.32-6.85a16.7,16.7,0,0,1,1,2.28c-1.54,2.23-2,5.88-2.22,8.65-.87,7.85-1.77,17.33-2.17,17.42Zm2.49-.11c.82-2.78,1.2-10.56,2-17.07.47-3.3,1-7.83,2.2-8.5l1,.67a57.57,57.57,0,0,0-2,11c-.55,4.59-1,9.31-1.7,13.81Zm2.37-.13c.36-2.59,1-8.36,1.62-13.67.67-6.17,1.73-10.83,2-10.68l1.32.77a56.85,56.85,0,0,0-1.29,5.83c-.61,4.32-.84,9.57-2.24,17.63Zm2.15-.11c.76-3.51,1.62-11.76,2.3-17.57.4-3.38,1.21-5.76,1.41-5.69l1.28.72a86,86,0,0,0-1.7,9.66c-.57,4.16-1,8.22-1.78,12.79Zm2.26-.17c.46-3.2,1.09-8.26,1.75-12.74.75-5.07,1.45-9.4,1.69-9.42l1.84.85c-.23,0-.66,1.23-1.08,3.22-1.29,6.05-2.57,18-2.78,18Zm2.39-.32c-.11.17,1.32-11.52,2.5-17.43.4-2,1-3.33,1.11-3.26l1.4.84a7.83,7.83,0,0,0-.87,2.46c-1.26,6-1.83,11.33-2.61,17.19Zm2.36-.25a167.68,167.68,0,0,1,2.84-18.17,2.78,2.78,0,0,1,.59-1.22l1.5.74c-1.63,4.63-1.78,9.06-3.34,18.36Zm2.3-.36c.89-4.92,1.35-10.61,2.54-15.1a26.84,26.84,0,0,1,.73-2.85l1.69.68-3.53,17Zm-42.24-6.18s.83-8.2,1.09-11.47c.48-5,1.16-8.26,3.09-12.24a35.93,35.93,0,0,0-5.07-2.34,9.49,9.49,0,0,1-2.1-.72,2.65,2.65,0,0,0-1.55-.44,3.15,3.15,0,0,0-3.16,3.12c.15,2.1,1.39,3,3.44,2.83,1.09-.11,1.06-.13,1.8,1.19a38.49,38.49,0,0,1,2.42,7c-.84-1.12-2.8-3.19-4.6-3.1s-3.57,2-2.11,4.6A2.91,2.91,0,0,0,54,194.44c2.11,3.3,2.51,6.6,3.18,10.43Zm-24-.79.08-29.74,1.7.36v29.38Zm-4-.28a1.19,1.19,0,1,1,1.19-1.19A1.19,1.19,0,0,1,29.15,203.81ZM57,201.75c-.2.11-.82-5.28-3-7.72a2.47,2.47,0,0,1-3.12-3.74c3.52-3,6.6,3.45,6.6,5.53a51.46,51.46,0,0,1-.49,5.93Zm-29.37-.68a1.19,1.19,0,1,1,1.19-1.19A1.19,1.19,0,0,1,27.67,201.07Zm3.09-.07a1.19,1.19,0,1,1,1.19-1.19A1.19,1.19,0,0,1,30.76,201Zm-1.55-2.8A1.19,1.19,0,1,1,30.4,197,1.19,1.19,0,0,1,29.21,198.19Zm-3.61-1.32V194l6.59-6.33v3.09Zm81.74-2.82a3.4,3.4,0,0,1-.54,0,3.75,3.75,0,0,1-.65-.11,8,8,0,0,0,3.12-3.25c1.1-2.17.1-4.3.43-4.3,2,.61,1.56,4.55.74,5.68a4.36,4.36,0,0,1-3.1,2Zm-2.64-.69a1,1,0,0,1-.8-.36c-.33-.32-.64-.43.19-.72a4.74,4.74,0,0,0,3.57-5.32c0-.62-.62-2.24.4-1.47,2.26,1.54,1.05,6.34-2.09,7.52a4.11,4.11,0,0,1-1.27.35Zm-79.1-.28V190l6.59-6.32v3.14Zm77.2-.94a2.11,2.11,0,0,1-1-.15c-.67-.29-.44-.34.82-1a5.56,5.56,0,0,0,2.9-5.7c-.11-.91-.48-1.16-.22-1.16a1.67,1.67,0,0,1,1.43,1.06c.9,3.31-.17,6-3.89,6.95ZM57.95,192c-.14,0-.37-.62-.71-1.72-1.92-6.1-2.43-7.27-3.76-7a3.11,3.11,0,0,1-2.07-.08c-1.69-.94-1.85-4.08.62-4.68,2-.43,3.21,1.31,3.91,2.45a17.48,17.48,0,0,1,2.52,6.68,24.42,24.42,0,0,1-.4,4c0,.17-.06.26-.11.27Zm96.27-.89V28.33s-11.09,11.38-16.3,17l5.44.07V76.26c1.77.24,4.72,0,5.89,1.19.72,1.07-2.07,3.19-3.65,2.74a5.76,5.76,0,0,0-2.24-.06v34.34c-.05.22-6.09-9.34-9.64-21.09,1.08-.75,2.19-1.33,2.37-1.46-1.43-3.46-2.42-8.9-.42-13.65l1.38.82a15.5,15.5,0,0,0,.27,11.13l.38-.4a13.53,13.53,0,0,1,0-11.14c-4-1.65-7.06-4.2-10.55-5.92a2,2,0,0,1-.59-.4c1.36-.76,2.65-1.75,2.64-3.08,0-2-1.12-2.81-3.47-2.67a5.61,5.61,0,0,1-.84,0c-1.46-3-2.77-6.17-4-9.31-.83,4-1.41,7.95-3.08,11.33.11.1,2,1,2.85,1.33,3.42,1.41,5,2.28,4.44,2.49-.37.15-.5.4-.59,1.13a19.46,19.46,0,0,0-.11,2.85l.57,1.23-.89.71a15,15,0,0,0-.2,1.66,20.6,20.6,0,0,0,0,3.1l.85,1.1-.87,1.08-.2,5,1.17.89-1.09,1.08.39,4.53a2.23,2.23,0,0,1-.33.63c1.85,19.16,8.87,38.48,19.58,51.64v31.48Zm-53.83,0c-.94,0-1-.43.12-1.12,2.23-1.31,3.38-3.86,2.74-5.88-.31-1-.6-1.37-.3-1.39a1.88,1.88,0,0,1,1.28,1c1.41,2,.24,6.29-2.64,7.18a5.12,5.12,0,0,1-1.19.24Zm-2.1-.9a3.32,3.32,0,0,1-1.11-.33c-.32,0,.14-.31.75-.66,2.14-1.24,3.56-3.46,3.19-5.54-.23-1.29-.62-2-.34-2a.93.93,0,0,1,.78.25c1.18,1.15,1.37,4.39.23,6a9.21,9.21,0,0,1-2.68,2.25,3.79,3.79,0,0,1-.82.05Zm54.58-.73L144,180.2V80.64l1.85-.08v99l7,7.44ZM96,189.1c-.52,0-.83-.33-.68-.72a5.88,5.88,0,0,0,3.61-5.82c-.07-1-.41-1.56-.21-1.59a1.51,1.51,0,0,1,.92.56c1.83,2.21.34,6-2.53,7.28A2.12,2.12,0,0,1,96,189.1Zm-2.32-1.19c-.62,0-1.12-.24-1.12-.59s.06-.35.33-.35c2.18,0,4.49-3,3.85-6.25-.08-.49-.23-1.13-.06-1.15s.33.1.61.36c1.94,1.92.89,6.25-1.7,7.49a3.29,3.29,0,0,1-1.91.5Zm-34.74-2.08c-.28-.11-.66-1.19-1.42-3-.17-.6-1.93-3.32-1.59-3.33,2.46,1,4,2.44,3.59,4.83C59.28,185.18,59.15,185.92,58.91,185.82ZM29,183a1.19,1.19,0,1,1,1.19-1.19A1.19,1.19,0,0,1,29,183Zm31.35-.72a3.24,3.24,0,0,0-.39-.9l.67.32Zm90.41-1.11-.59-.92-1-.63L150,179l.63-1,.59.92,1,.63-.92.59Zm-48.53-.06c-1.61,0-2.14-.48-2.44-2.33-.21-1.28-.34-1.35-2.48-1.29-2.73.08-2.94-.09-3.23-2.48-.25-2.05-.6-2.26-2.94-1.82-1.7.32-2.61-.43-2.83-2.36-.25-2.16-.34-2.24-2.76-2.33s-3.1-.52-3.12-2c0-2.27-.32-2.47-3.3-2.38a32.78,32.78,0,0,1-3.78-.07c-1.8-.19-1.8-.2-2,1.55-.27,2.6-.65,2.84-4.08,2.59-1.43-.11-1.53,0-1.63,1.05-.12,1.37-.63,2.21-1,1.7-.2-.27-.2-.29,0-2.3.23-2.24.25-2.26,3.17-2,2,.15,1.88.22,2.09-1.58.26-2.19.22-2.69,2.8-2.72s4.31.15,6.83.15c1.84,0,2.44.58,2.48,2.58,0,1.78,0,1.77,2.33,1.87,2.79.12,3.53.84,3.56,3.48,0,1,.84,1.43,2.47,1.2,2.56-.37,3.06,0,3.35,2.38.25,2,.11,1.89,2.46,1.87,2.52,0,3.09.41,3.11,2.36,0,1.13.29,1.47,1.27,1.56s1.49.63,1,1.16a3.18,3.18,0,0,1-1.34.17Zm-74.67-1.21a1.19,1.19,0,1,1,1.19-1.19A1.19,1.19,0,0,1,27.52,179.89Zm3.24-.09a1.19,1.19,0,1,1,1.19-1.19A1.19,1.19,0,0,1,30.76,179.8Zm118.07-1.44-.59-.92-1-.63.92-.59.63-1,.59.92,1,.63-.92.59Zm3.48,0-.59-.92-1-.63.92-.59.63-1,.59.92,1,.63-.92.59Zm-48.65-1L77.83,157.46l-11,7.77.1-2.83,11-7.65,25.82,20Zm-74.75-.57a1.19,1.19,0,1,1,1.19-1.19A1.19,1.19,0,0,1,28.91,176.82Zm23.64-.22A14.91,14.91,0,0,1,49.08,175l-2.24-4.27,2.57-2.22-2.61-3,2.74-3.26-2.75-1.94,3-4.62,3.39-1.57-3.74,5.62,2.95,2-2.79,3.77L52.5,169l-2.92,2.52Zm.65-.19-2.46-4.79,2.91-2.57-3-3.65,2.81-3.81-2.92-2.06,4.08-6,.08,3-1.45,2.21,1.63,1.41h0v3.5l-1.7,1.84,1.47,2-.48,3.76-1.25.95.89,1.78-.28,2.19Zm97.36-.88-.59-.92-1-.63.92-.59.63-1,.59.92,1,.63-.92.59Zm-125.14-.75v-2.59l6.77-6.38v2.74Zm121.45-1v-3.13l5.84-5.56v3.18ZM25.41,171.31v-2.8l6.77-6.4V165Zm121.45-1.51v-2.54l5.84-5.73v2.63Zm-43.36-.16-9.19-6.87,0-23.07a101.93,101.93,0,0,0,9.08,5.86Zm-9.94-7.52-1.83-1.43,0-23.49,1.69,1.51Zm-64.66-.42a1.19,1.19,0,1,1,1.19-1.19A1.19,1.19,0,0,1,28.89,161.7Zm121.2-1.32a1.19,1.19,0,1,1,1.19-1.19A1.19,1.19,0,0,1,150.1,160.38Zm-59.11-1-4.81-5L91,149.54l.13,2.36-2.77,2.37,2.53,2.66Zm-63.52-.57a1.19,1.19,0,1,1,1.19-1.19A1.19,1.19,0,0,1,27.46,158.8Zm3.2,0a1.19,1.19,0,1,1,1.19-1.19A1.19,1.19,0,0,1,30.66,158.79ZM88,157.61l-2.82-2.07.62-.69s1.85,2,2.47,2.71Zm60.37-.22a1.19,1.19,0,1,1,1.19-1.19A1.19,1.19,0,0,1,148.35,157.39ZM67,157.33c.13.07-.9-16.18-3.69-24.85l11-7.29v26.94Zm84.48-.1A1.19,1.19,0,1,1,152.7,156,1.19,1.19,0,0,1,151.52,157.23ZM28.91,155.76a1.19,1.19,0,1,1,1.19-1.2A1.19,1.19,0,0,1,28.91,155.76ZM84.63,155l-4.49-3.5v-2.41l5.07,5.23Zm65.47-.72a1.19,1.19,0,1,1,1.19-1.19A1.19,1.19,0,0,1,150.1,154.31Zm-64.41-.4-5.11-5.4,5.21-5.33,5.11,5.32Zm-38.6-.57,5.21-2.56C49.81,130.47,44,119.21,38,109.37l0,24.86c3.55,6.1,7.2,12.25,9.1,19.11Zm-21.68-.09v-2.57l6.67-6.48V147Zm121.45-1v-2.78l5.84-5.83v2.9Zm-61.09-.43,3.33-3.24-3.3-3.38-3.32,3.3Zm-6.29-.92L78.13,150l.1-27.39,1.11-.54Zm6.42-.92-1.46-1.43,1.4-1.45,1.42,1.47Zm-60.49-.39v-2.49l6.67-6.52v2.85Zm98.47-.74a45.93,45.93,0,0,1-28.89-10c-3.53-2.92-6.4-6.48-9.9-11.66-6.73-10.54-18.58-15.62-29.61-15.74L54.57,110l1.84.06a30.79,30.79,0,0,0,.21-3.58c0-2.54,0-3-.19-3.06a24.85,24.85,0,0,0-5.25.1l-.83-1.49c13.15-1.36,26.1,3.24,34.29,10.62,6.37,5.54,11.27,13.94,16.64,18.64a39.32,39.32,0,0,0,10.36,5.75,29.46,29.46,0,0,0,9.07,1.51c2.58,0,2.6.06,2.6.06l1.09,2-1.81,0-.12,6.9a32.67,32.67,0,0,0,5.64-.24l.67,1.26a40.5,40.5,0,0,1-4.92.36Zm23-.25v-2.82l5.84-6v3Zm-66.69-.75,0-2.62L83,142.65l-2.87-3,.06-2a62.71,62.71,0,0,1,5.06,5.08Zm39.64-.45c.51,0,.86-.08.88-.28.13-1.4.21-4.68.23-5.8,0-.37,0-.73-.42-.77-2.34-.28-4.94-.9-6.19-.94-.46,0-.46.5-.81,2.08-.08.34-.32,1.26-.54,2-.66,2.37-.75,2.41,1.3,2.82a45.13,45.13,0,0,0,5.54.84Zm-28.87,0-4.56-4.66L91,138.24v2.06l-2.19,2.23,2.2,2.4Zm52.42,0a108.09,108.09,0,0,1-18.59-49.5s5.59-2.48,8.34-4.09c3,6.94,1.87,7.88,10.25,22ZM116,146l-.88-.93-1.09,0,.4-1.48-.7-.68,1-.5.08-1.32,1.09.65,1-1,.53,1.14,1.12-.37v1.36l1,.63-1.2.56-.11,1.66-1.22-.37Zm10.19-.09-1-.49-1.1.41.17-1.36-.85-.68.86-.79,0-1,1,.34,1.5,2.54Zm-16.15-.67c.33,0,.42-.26.51-.6s.34-1.16.64-2.15c1.07-3.49,1.39-3.33-.2-3.86-.55-.18-2.27-.77-3.36-1.27s-1.56-.94-1.91-.93c-.76.55-2.84,4.5-3.19,5.36a6,6,0,0,0,2.25,1.43c1.07.5,4.52,1.89,4.84,2A1.4,1.4,0,0,0,110.1,145.25Zm-1.33-1.7-1.17-.7-.89.39-.65-1.21-1.38-.06.75-1.31-.71-1,1-.07.78-1.41,1,.85.85-.51.49.88,1.22.17-.55,1.34.72,1-1.19.22Zm-23-1.41-5.33-5.65,4.93-4.66,5.54,5.33Zm14.72-1.31a.47.47,0,0,0,.42-.27c3.49-5.24,3.64-5.06,2.26-6.08A38.16,38.16,0,0,0,99,131.25c-.47-.23-.55-.09-1,.33-1.14,1-3.57,3.8-3.56,4.26s3.36,3.38,5.38,4.67a1.65,1.65,0,0,0,.71.32Zm-71.68-.25a1.19,1.19,0,1,1,1.19-1.19A1.19,1.19,0,0,1,28.76,140.58ZM85.69,140l3-2.9-3.2-3.39-3.1,2.93Zm55.08-.14V115.63c-3.43-5.45-6-12-8.65-18.52l-5,2c1.9,17.26,7,30.21,13.61,40.7Zm9.24-.4a1.19,1.19,0,1,1,1.19-1.19A1.19,1.19,0,0,1,150,139.45Zm-50.22-.61-1.09-1.11-1.26.11.07-1.24-1.11-.54.7-.81-.44-1.11,1.33.21.76-1,.93.83,1.11-.29L101,135l1.07.4-.57,1.12.08,1.41-1.08-.2Zm-14.15-.46-1.54-1.59,1.43-1.41L87,136.92Zm-55-.89a1.19,1.19,0,1,1,1.19-1.19A1.19,1.19,0,0,1,30.63,137.49Zm-3.47,0a1.19,1.19,0,1,1,1.19-1.19A1.19,1.19,0,0,1,27.15,137.48Zm121.26-1.24a1.19,1.19,0,1,1,1.19-1.19A1.19,1.19,0,0,1,148.41,136.24Zm3.27,0a1.19,1.19,0,1,1,1.18-1.19A1.19,1.19,0,0,1,151.68,136.19ZM80,135.7l0-2.13,2.7-2.59-2.63-2.7v-1.57l4.65,4.51Zm29.67-.36-1.93-1,10.83-6.91.66,2Zm-80.92-.72A1.19,1.19,0,1,1,30,133.43,1.19,1.19,0,0,1,28.79,134.62Zm60.47,0-3.36-3.38.42-.46Zm3.51-.31h.11a2.21,2.21,0,0,0,.78-.62c.78-.89,3.62-3.31,3.54-4s-1.14-1.59-3.57-4.89c-.32-.42-.51-.61-.73-.61a1.1,1.1,0,0,0-.62.32c-.24.19-.84.61-1.32.92a26.52,26.52,0,0,0-3.35,2.41c-.14.33,1.65,2.67,4.13,5.48.53.6.77.94,1,1Zm57.34-1.18a1.19,1.19,0,1,1,1.19-1.19A1.19,1.19,0,0,1,150.1,133.13Zm-124.69-.25V130.1L32,123.85v2.75Zm66.82-.73-.66-1.28-1.39,0,.19-1.23-1-.82,1.06-.63.15-1.12.91.08,1-1,.71,1.34,1.08-.18-.14,1.23.92.72-.9,1.25.12.89-1.06-.24Zm-29.26-1-.47-1.31,14.79-9.59,1.18.89Zm83.89-.15v-3.06l5.84-5.5v2.93Zm-61.57-.37-4.77-4.73,1.4-1.38,3.89,5.59Zm16.49-.13L100.49,129,116,119l.59,1.81Zm-76.37-1.33V126.1L32,119.87v3Zm74-.67.1-28.87,1.22.59.05,27.63Zm-.45-1.06-.65-.57.53-.53Zm47.93-.45v-3.28l5.84-5.79v3.58Zm-49.22-.65-4.3-5.75.19-.16,5.07,4.89Zm-11.17,0a8.5,8.5,0,0,0,2.59-1.58c2.91-2.1,2.89-1.78.22-5.25-1.54-2-2.27-3.22-2.9-3.17s-1,.62-1.95,1.63-2,2.17-2.27,2.33c-.74.52-.7.65.58,2.09.39.44,1.13,1.34,1.63,2s1.32,1.49,1.48,1.66a.68.68,0,0,0,.61.29Zm18.22-1,.1-27.44L112,93.12c.83,9.47,1.41,16,3.85,25Zm-24.47-.58,0-2,1.1,1Zm18.67-.15-4.95-5,5-5,0,2.1-2.83,2.65L99,122.3Zm-12.26-.25-.81-1-1,.11,0-1.16-1-.56.69-.76,0-1.3,1.42-.05.69-.65.72,1,1.22-.08-.18,1.17.65.47-.63.88,0,1.12-1-.24Zm-26.18-1.06-.64-1.77,9.46-6.22,1.8.92Zm32.2-3.49-1.75-2.27,1.92,2.07Zm-64-.32a1.19,1.19,0,1,1,1.19-1.19A1.19,1.19,0,0,1,28.65,119.42Zm51.62-.13c.44,0,.94-.68,2.41-2.15s2.48-2,1.88-2.78c-1.45-1.25-2.64-2.16-4.22-3.36-1-.78-1.58-1.15-1.94-1.14s-.5.3-.77.86c-.12.24-.79,1.51-1.42,2.49-1.41,2.21-1.41,2.1,0,3a30.64,30.64,0,0,1,3.15,2.57c.41.37.65.57.91.55ZM93.52,119,88,113.6l5-5L98.51,114ZM150,118a1.19,1.19,0,1,1,1.19-1.19A1.19,1.19,0,0,1,150,118Zm-70-.34-.73-.7-1.42.1-.23-1.21-.61-.48.48-.8-.35-1.07,1.21-.08.74-.83.9.67,1.06-.46.08,1.25,1,.48-.61.89.37,1.17-1,0Zm13.65-.69,3-3.11-3.43-3.38-3.23,3.18Zm-63.34-.66a1.19,1.19,0,1,1,1.19-1.19A1.19,1.19,0,0,1,30.36,116.28Zm-3.41,0a1.19,1.19,0,1,1,1.18-1.19A1.19,1.19,0,0,1,26.95,116.24Zm66.51-1-1.57-1.63,1.45-1.37,1.56,1.44Zm55-.27a1.19,1.19,0,1,1,1.19-1.19A1.19,1.19,0,0,1,148.43,115Zm3.18-.12a1.19,1.19,0,1,1,1.19-1.19A1.19,1.19,0,0,1,151.61,114.87Zm-78.12-.7c.35,0,.54-.37.91-1s1-2,1.4-2.69c1.1-1.81,1.13-1.72-.89-2.7-1.19-.58-1.91-.81-4.41-1.83a4.67,4.67,0,0,0-1.47-.47c-.63,0-.71,1.18-1.39,3.39-1,3.09-1,2.8.81,3.44.81.29,2.37.81,3.19,1.2A4.5,4.5,0,0,0,73.49,114.17Zm-44.8-.86a1.19,1.19,0,1,1,1.19-1.19A1.19,1.19,0,0,1,28.69,113.31Zm58.14-.1-1.68-1.54-.1-23.48,1.74,1.34Zm.77-.08-.09-2.41A33.79,33.79,0,0,0,90.41,108l-2.88-3v-1.84l5,5Zm11.4,0L93.52,108l5.53-5.48L98.89,105,96,108l3.11,3Zm-26.25-.51-1-.71-1.07.39-.3-.8-1.09-.53.4-.88-.54-1.18,1.25-.1.64-1.27.88.55,1-.41.2,1.06,1.08.42-.31,1,.47.78-.92.18Zm77.41-.63a1.19,1.19,0,1,1,1.18-1.19A1.19,1.19,0,0,1,150.16,112Zm-85.69-.9c.8,0,.64-.38,1-1.27.39-1.11.6-2.1,1.09-3.69s.24-1.5-2.62-2a35.74,35.74,0,0,0-4.87-.65c-.28,0-.45,0-.48.08s0,1.21-.27,5.15c-.09,1.44-.19,1.45,1,1.6,1,0,3.27.62,4.78.79l.41,0Zm-38.91-.15v-2.84l6.13-5.8v2.83Zm58.65-.16a54.66,54.66,0,0,0-8.83-5.48l.35-24.39,8.52,6.66Zm-22-.75-.69-.88-1,0,.05-1.25-.65-.55.78-.7-.1-1.11,1.23.21.78-.91.53.88,1.28.21-.22.89.65.92-.8.6,0,1.11-1,0Zm84.62-.15v-3l5.84-5.94v3.13Zm-92.81-1.22-1.8-3.54,1.17.48.89-.6.27,1.31.79.52-.8.56,0,.85Zm39.08-1.19-5.32-5.06,5.57-5.45L98.53,102Zm-67.58,0v-3.07l6.13-5.76v2.89Zm121.31-1.57v-2.7l5.84-5.7v2.72Zm-53.46-.49,3.18-3.21L93.38,99l-3.28,3.21Zm-.16-1.67-1.46-1.5,1.54-1.57,1.49,1.5Zm-5.66-2.26,0-2.35,3-2.88-3-3.12.22-1.62,5.19,4.88Zm11.33-.24L94,96.46l.8-.79,4.11,3.15Zm-70.22-3A1.19,1.19,0,1,1,29.89,97,1.19,1.19,0,0,1,28.7,98.16Zm121.46-1.28a1.19,1.19,0,1,1,1.19-1.19A1.19,1.19,0,0,1,150.16,96.89Zm-24.43-.74,4.08-5.38-3.38-2.33,3.2-3.46-2.87-3.78,3-2.33-3.22-5.3.21-.25,3.08,1.63,2.93,4.77-2.92,2.13,2.66,3.41-2.87,3,3.15,2-2.95,4.12Zm-32.35-.2-3.65-4,4.33,3.21Zm31.31-.13,0-2.65,1.43-1.73-1.64-1.14V86.66l1.67-1.77-1.53-1.55.27-4,1.46-1.16-1.2-1.66.43-2.4c.09.16.38.22.52.44,1,1.49,2.7,4.15,2.7,4.15l-3,2.43,2.8,3.69L125,88.41l3.57,2.44a34.56,34.56,0,0,1-3.89,5Zm-97.76-.74a1.19,1.19,0,1,1,1.19-1.19A1.19,1.19,0,0,1,26.93,95.08Zm74.28,0a1.67,1.67,0,0,1-1.08-.4c-8-6.4-16.28-12.61-24.44-18.88l0-1.89L97.41,90.16s2,1.51,2.58,1.88c1.22.77,1.46.46,2.67-.37C105.4,90,112,85.51,112,85.51L112,87.85s-6.67,5-10.36,7.09a1,1,0,0,1-.4.12ZM30.41,95a1.19,1.19,0,1,1,1.18-1.19A1.19,1.19,0,0,1,30.41,95Zm117.82-1a1.19,1.19,0,1,1,1.19-1.19A1.19,1.19,0,0,1,148.23,94Zm3.38-.14a1.19,1.19,0,1,1,1.19-1.2A1.19,1.19,0,0,1,151.6,93.84Zm-123-1.69A1.19,1.19,0,1,1,29.84,91,1.19,1.19,0,0,1,28.65,92.15ZM149.88,91a1.18,1.18,0,1,1,1.17-1.18A1.18,1.18,0,0,1,149.88,91ZM25.24,89.61V86.36l6.44-6.1v3.45Zm121.62-.79v-3l5.84-5.72v3Zm-41.41-.24a8.8,8.8,0,0,1-2.24-.25,30.78,30.78,0,0,0-3.66-.09c-4.45,0-4.5.06-4.49-3.08,0-1.32-.29-1.61-2.61-1.54-2.92.09-2.77.17-3.27-3.36C89,79,88.91,79,86.49,79c-2.64,0-3.23.08-3.08-2.15.14-2-.35-2.56-2.55-2s-2.79-.45-3-2.26-.35-1.26-1.47-1.35-1.1-1.5.22-1.63c.22,0,.43-.05.61-.06,1.3,0,1.7.57,1.91,2.54.15,1.36.44,1.48,2.56,1.12s3,.23,3.15,2.56c.13,1.85.11,1.83,2.66,1.85s2.78.27,3.07,2.85c.21,1.92.14,1.87,2.61,1.83,2.73,0,3,.17,3.17,2.6.15,2,.28,2.1,2,2a36.23,36.23,0,0,1,5.4,0c1.46.32,1.52.26,1.83-1.71.41-2.59.92-2.92,4.1-2.6,1.56.16,1.74.13,2-1.25.3-1.84.66-2.38.66-.79,0,4-.28,4.21-3,3.5-2-.54-2-.12-2.25,1.82-.18,1.71-.47,2.41-1.1,2.69a1.66,1.66,0,0,1-.55.09Zm-80.21-3v-3l6.44-6.08v3.07ZM101,85.24,86.35,73.86l2.29-.62L101,82.48l11.67-7.85-.07,2.86Zm45.88-.35V82.35l5.84-5.94V79.3ZM28.41,77.68l-.59-.92-1-.63.92-.59.63-1,.59.92,1,.63-.92.59ZM145.85,75.8l-1.91-.07V45.87h1.91Zm4.16,0a1.19,1.19,0,1,1,1.18-1.19A1.19,1.19,0,0,1,150,75.76Zm-119.8-.84L29.62,74l-1-.63.92-.59.63-1,.59.92,1,.63-.92.59Zm-3.53,0L26.09,74l-1-.63.92-.59.63-1,.59.92,1,.63-.92.59ZM86.61,73c-3.22.05-5.48-4.07-3.16-7.21,2.09-2.83,5.37-2.8,6.36.07.82,2.37-1.82,5.34-3.92,4.42-1.46-.64-1.09-3.29.55-3.91.68-.26,1.26.61.92,1.39-.26.61-.29,1,.07.74,1.49-1.05.37-3.56-1.48-2.62-2.46,1.25-2,4.93.43,5.09,3.14.31,5.56-3.57,7.11-10.95,1.7-8.25,1.28-15.64,2.91-22.12l1.44,0c-.2,4-1,6.72-1.27,11.39C96.26,55,95.28,62.08,92.73,68A8.75,8.75,0,0,1,88,72.71a4.07,4.07,0,0,1-1.43.29Zm61.74-.4a1.19,1.19,0,1,1,1.18-1.19A1.19,1.19,0,0,1,148.35,72.6Zm3.34-.07a1.19,1.19,0,1,1,1.19-1.19A1.19,1.19,0,0,1,151.69,72.53ZM28.41,72l-.59-.92-1-.63.92-.59.63-1,.59.92,1,.63L29,71Zm97.7-.18c-1.33,0-2.59-1.25-3.79-3.67-1.87-3.8-2.38-6.61-1.48-8.13A.15.15,0,0,1,121,60c.28,0,.79,1,1.58,3.13a21.57,21.57,0,0,0,2.26,4.69,1.85,1.85,0,0,0,.77-.27c2.6-1.37,4.43,2.52,1.87,4A2.61,2.61,0,0,1,126.1,71.87ZM81.65,70.62a3.12,3.12,0,0,1-1.31-1.5c-.92-1.82.78-5.33,3.1-6.4a3.84,3.84,0,0,1,1.49-.34c1,0,1.69.4.72.91-3.11,1.65-4.42,4-3.82,6.93,0,.23,0,.35-.06.39a.18.18,0,0,1-.11,0ZM121.88,70a3.41,3.41,0,0,1-1.77-.81,3.78,3.78,0,0,1-.48-3.64c.15-.3.26-.48.37-.47.69,1.67,1.4,3.31,2.21,4.84,0,.07-.17.1-.33.08Zm28-.34A1.19,1.19,0,1,1,151,68.45,1.19,1.19,0,0,1,149.86,69.64Zm-70.63-.19q-.34.06-1-1c-1.56-2.33,1.57-7.38,4.12-7.49a1.75,1.75,0,0,1,.9.19c.67.35.58.61-.46,1.22a5.25,5.25,0,0,0-2.1,1.95,5.44,5.44,0,0,0-1.11,3.87Q79.57,69.39,79.23,69.45Zm-2.14-1.37c-.08,0-.2,0-.37-.17-2.28-1.75.16-7.84,3.25-8.11h.24c1.16,0,1.32.56.28,1.28a7.66,7.66,0,0,0-3.26,6C77.25,67.75,77.22,68,77.09,68.08Zm-1.91-.57c-.13,0-.34-.22-.71-.59-1.56-1.62-.46-6,2.56-7.67a2.43,2.43,0,0,1,1.13-.3c.7,0,1,.46.2,1a7,7,0,0,0-3.1,6.21C75.34,67.08,75.39,67.54,75.18,67.51Zm-2.06-1a2.38,2.38,0,0,1-.9-.49c-1.28-1.07-1-3.85.34-5.76A5.68,5.68,0,0,1,76.18,58a1.08,1.08,0,0,1,.5.1c.55.27.35.32-.66,1a7,7,0,0,0-2.87,5.24C73,65.4,73.6,66.55,73.12,66.5Zm17.76-.17s0,0,0,0a7.44,7.44,0,0,0-1.13-2.2,52.94,52.94,0,0,0,2.82-12.86c.51-4.65.65-9,1.29-13.22l1.65,0c-.13.61-.16,1.26-.27,2-.65,4.33-1,10.65-1.7,15.6C92.63,62.13,91.1,66.27,90.87,66.34Zm56-.09v-3l5.84-5.84v2.9Zm-76.11-1h-.18c-.43-.07-.69-.52-.81-.91-1.42-2.85,1.21-7.17,4-7.28a2.51,2.51,0,0,1,.86.12c.7.22.44.24-.73,1-2.24,1.49-2.92,3-3,5.95,0,.45.06.82,0,1a.13.13,0,0,1-.13.1Zm-2.22-1.67c-.1,0-.29-.17-.62-.48-2.29-3.21,1-7.12,3.66-7.1,1.18,0,1.75.37,1,.68-2.6,1-3.76,2.69-3.9,5.58,0,.91.06,1.33-.11,1.32Zm20.57-.12-1.34-.82C90,55.3,90.57,45.87,91.54,38.08L92.93,38c-.05,1.4-.61,7.87-1.27,13.53C90.92,57.93,89.39,63.44,89.1,63.44Zm57.76-.84V60.14L152.7,54v2.55Zm-59.94-.37-1.31-.46c.88.28,3-16.85,3.42-23.5l1.57-.15c-.23,3.35-.8,8.61-1.43,13.36C88.42,57.23,87.42,62.31,86.93,62.24Zm-2-1a7.48,7.48,0,0,1-1.44-.8c1.4.2,2.53-15.75,3.33-22.06l1.45-.07a155.29,155.29,0,0,1-2.72,21.27c-.25,1.09-.33,1.56-.53,1.65Zm41.37-.47a2.92,2.92,0,0,0,2.57-4c-.52-1.41-1.82-1.62-3.48-1.34,0,0-.72-.51-1.56-3.07a52.66,52.66,0,0,0-2.56-6.14c-.1,3.8-1,7.75.67,10.86,1.23,2.26,2.17,3.08,3.25,3.52a2.47,2.47,0,0,0,.76.17Zm-.26-.31c-2.46-.15-4.83-4.52-4.56-9.19a19.64,19.64,0,0,1,.33-2.62c1.1,2.29,1.33,4,2.4,6.09.47.91.89,1.68.89,1.68,3.49-1.65,4.83,2.5,2,3.82a2.15,2.15,0,0,1-1.05.21Zm-43.2-.3-1.47-.69c.4.13,1.45-4.26,1.8-9.23.31-4.33,1.09-9,1.32-11.64l1.6-.19c-1,7-1.12,15.21-3.25,21.76Zm-2.19-1.08-1.5-.76c.79.24,2.16-14.26,3-19.42l1.51-.24c-.59,2.48-.58,6.13-1,9.17-.54,3.77-1.12,11.42-2,11.25Zm-2.27-1-1.43-.76a173.82,173.82,0,0,0,2.75-18l1.52-.21c-.73,5.66-2.06,18.86-2.85,19ZM76.18,56.9l-1.57-.71s1.09-5.32,1.6-9.06S76.8,42.91,77,42a10.18,10.18,0,0,1,.46-2.2l1.31-.22C78.09,45.76,77.5,52.06,76.18,56.9Zm73.74-2.74A1.19,1.19,0,1,1,151.1,53,1.19,1.19,0,0,1,149.92,54.17Zm-1.56-2.81a1.19,1.19,0,1,1,1.19-1.2A1.19,1.19,0,0,1,148.36,51.36Zm3.25-.05a1.19,1.19,0,1,1,1.19-1.19A1.19,1.19,0,0,1,151.61,51.31Zm-1.75-2.77A1.19,1.19,0,1,1,151,47.34,1.19,1.19,0,0,1,149.86,48.54Zm2.85-3.82H139.13L152.7,30.36v2.48l-8.8,9.8h8.8Zm0-3.19H146l6.66-7ZM134.9,41a5.84,5.84,0,0,0,2.34-.53c.31-.13.56-.3.56-.46-1.71-1.57-2.62-4.26-3.2-6.46-1.31-3.48-2.28-7.67-5.29-9.52l2.08-4.16H66L76.89,39c12.39-2.42,29.86-3.67,44.81.16,0,0,2.57-4.79,3.22-6.08a17.9,17.9,0,0,0,.78,2c1.75,3.31,5.69,6,9.21,5.92Zm.13-.36a5.38,5.38,0,0,1-.58,0c-3.42-.23-7.75-3.55-9-6.64.19-.37,1-1.91,1-1.91.43.85.11,1.69.39,2.45.07.33.78-2.2.78-2.2a7.25,7.25,0,0,1,.77,3.27c0,.33.89-1.44.89-1.44a7.81,7.81,0,0,1,1,4.08c1.25-1.52.47-2.39,2.39,1.48.22-.4.11-.83.41-.72a7.41,7.41,0,0,0,2.47.8c-.56-.71-1.66-1.08-2-2a6.41,6.41,0,0,0,.92,0,7,7,0,0,1-2.67-2c.22-.08,1.11.07,1.07,0-1.33-1.21-3.33-2.18-.44-1.91-1.88-1.33-4-2.24-.71-2.14-2.33-1.1-3-1.79-2.52-2a5.45,5.45,0,0,0,2,0c-1.87-.77-2.64-1.12-2.71-1.37s.8-.47,1.41-1.14c0,0-.75.17-1.08-.18,0,0,.36-1.06.65-1.67,2.38,2.17,3.32,5.24,3.93,7.22.31,1,.63,2,.7,2.23,1.14,3.1,1.61,4.13,2.36,5.16.12.17.16.15,0,.3a4,4,0,0,1-1.59.38Zm-57.63-3L68,21h2L77.4,34.26l11-1.1L85.38,21H88.3l3,11.86,17.09-.09C109,28.78,110,21,110,21h3.16L111.09,33l10.09,1.27L127,21h2.74l-8.41,16.47c-16.22-2.53-24.81-2.85-43.94.18Zm42.76-4.83-7-.94L115.08,21H125Zm-41.48-.18L72.4,21H83.17l3.09,10.93Zm14-1.4L90.45,21h17.39l-1,10.12Z"/>
        </g>
        <path d="M47.87,26.16c-7.85.17-11.38,9-5.56,15.86.84,1,.93,1.57-.61.61-3.92-2.62-11.43-.9-11.81,7.1-.48,9.85,13.31,12.69,15.9,2.21.14-1.11,1-1.08.82.49a32.57,32.57,0,0,1-3.4,12.12h9.34a32.58,32.58,0,0,1-3.4-12.12c-.22-1.57.68-1.59.82-.49,2.59,10.48,16.37,7.64,15.9-2.21-.38-8-7.89-9.72-11.81-7.1-1.55,1-1.46.39-.61-.61,5.82-6.86,2.3-15.69-5.56-15.86h0Z"/>
        <path d="M130.7,223.29c-7.85-.17-11.38-9-5.56-15.86.84-1,.93-1.57-.61-.61-3.92,2.62-11.43.9-11.81-7.1-.47-9.85,13.31-12.69,15.9-2.21.14,1.11,1,1.08.82-.49a32.57,32.57,0,0,0-3.4-12.12h9.34A32.58,32.58,0,0,0,132,197c-.22,1.57.68,1.59.82.49,2.59-10.48,16.37-7.64,15.9,2.21-.38,8-7.89,9.72-11.81,7.1-1.55-1-1.46-.39-.61.61,5.82,6.86,2.3,15.69-5.56,15.86h0Z"/>
      </g>
      <path d="M13.77,40c-3.14.07-4.55,3.75-2.22,6.61.34.42.37.66-.25.26-1.57-1.09-4.57-.37-4.72,3-.19,4.11,5.32,5.29,6.36.92.05-.46.41-.45.33.2A14,14,0,0,1,11.91,56h3.73a14,14,0,0,1-1.36-5.05c-.09-.65.27-.66.33-.2,1,4.37,6.55,3.18,6.36-.92-.15-3.33-3.16-4-4.72-3-.62.4-.58.16-.25-.26,2.33-2.86.92-6.54-2.22-6.61h0Z"/>
      <path d="M164.81,209.47c3.14-.07,4.55-3.75,2.22-6.61-.34-.42-.37-.66.25-.26,1.57,1.09,4.57.37,4.72-3,.19-4.11-5.32-5.29-6.36-.92-.05.46-.41.45-.33-.2a14,14,0,0,1,1.36-5.05h-3.73a14,14,0,0,1,1.36,5.05c.09.65-.27.66-.33.2-1-4.37-6.55-3.18-6.36.92.15,3.33,3.16,4,4.72,3,.62-.4.58-.16.25.26-2.33,2.86-.92,6.54,2.22,6.61h0Z"/>
      <path d="M164.89,238.38v-2.76h-2.68s-.06-2.66-.09-8.31c0-5.49-.13-8.21.22-9.77.94-3.6,6.16-3.62,7.2-1a10.48,10.48,0,0,1,.47,4.19h2.89s0-.76,0-1.7c0-4-1.36-6-4.5-6.75s-7,.46-8.34,3.21c-.8,1.57-.71,1.68-.73,11.18,0,6.34-.11,9-.11,9h-2.47v2.76h8.17Z"/>
      <path d="M13.69,11.07v2.76h2.68s.06,2.66.09,8.31c0,5.49.13,8.21-.22,9.77-.94,3.6-6.16,3.62-7.2,1a10.48,10.48,0,0,1-.47-4.19H5.69s0,.76,0,1.7c0,4,1.36,6,4.5,6.75s7-.46,8.34-3.21c.8-1.57.71-1.68.73-11.18,0-6.34.11-9,.11-9h2.47V11.07H13.69Z"/>
    </g>
  </g>
</svg>
