<svg xmlns="http://www.w3.org/2000/svg" viewBox="0 0 178.58 249.45">
  <title>C12</title>
  <path d="M164.81,209.47c3.14-.07,4.55-3.75,2.22-6.61-.34-.42-.37-.66.25-.26,1.57,1.09,4.57.37,4.72-3,.19-4.11-5.32-5.29-6.36-.92-.05.46-.41.45-.33-.2a14,14,0,0,1,1.36-5.05h-3.73a14,14,0,0,1,1.36,5.05c.09.65-.27.66-.33.2-1-4.37-6.55-3.18-6.36.92.15,3.33,3.16,4,4.72,3,.62-.4.58-.16.25.26-2.33,2.86-.92,6.54,2.22,6.61h0Z"/>
  <path d="M13.77,40c-3.14.07-4.55,3.75-2.22,6.61.34.42.37.66-.25.26-1.57-1.09-4.57-.37-4.72,3-.19,4.11,5.32,5.29,6.36.92.05-.46.41-.45.33.2A14,14,0,0,1,11.91,56h3.73a14,14,0,0,1-1.36-5.05c-.09-.65.27-.66.33-.2,1,4.37,6.55,3.18,6.36-.92-.15-3.33-3.16-4-4.72-3-.62.4-.58.16-.25-.26,2.33-2.86.92-6.54-2.22-6.61h0Z"/>
  <path d="M8,28.73H5.75v-3H8s0-1.62.08-4.48c.14-6.09.29-7,2.05-8.72,3.48-3.31,9.32-.61,9.25,4.37-.1,7,0,13.74-.23,14.69-.37,1.67-.4,1.77-.25,2.07.31.61,2.94.88,2.94.71v3a5.45,5.45,0,0,1-4.46-1.18,6.62,6.62,0,0,1-6.5.8C9,36.08,7.58,33.83,8,28.73H8ZM15.41,34c-1.09-1.58-2.93-3.74-4.66-4.5-.11,1.82,0,3.34.69,4.16a2.54,2.54,0,0,0,4,.34Zm.91-17.38c-.81-2.3-2.9-3.08-4.42-1.64-1,.89-1.1,1.84-1.13,7,0,3.16,0,4.48,0,4.48,3,1,5.74,4.42,5.71,4.37l.07-9.54a26.74,26.74,0,0,0-.23-4.63h0Z"/>
  <path d="M170.62,220.71h2.21v3h-2.21s0,1.62-.08,4.48c-.14,6.09-.29,7-2.05,8.72-3.48,3.31-9.32.61-9.25-4.37.1-7,0-13.74.23-14.69.37-1.67.4-1.77.25-2.07-.31-.61-2.94-.88-2.94-.71v-3a5.45,5.45,0,0,1,4.46,1.18,6.62,6.62,0,0,1,6.5-.8c1.85.87,3.25,3.12,2.88,8.22h0Zm-7.46-5.25c1.09,1.58,2.93,3.74,4.66,4.5.11-1.82,0-3.34-.69-4.16a2.54,2.54,0,0,0-4-.34Zm-.91,17.38c.81,2.3,2.9,3.08,4.42,1.64,1-.89,1.1-1.84,1.13-7,0-3.16,0-4.48,0-4.48-3-1-5.74-4.42-5.71-4.37l-.07,9.54a26.74,26.74,0,0,0,.23,4.63h0Z"/>
  <g>
    <path d="M95.58,228.76c.44-6.53.06-13.54.36-18.86-.2-.37.52-1.41.56-1.41a7.2,7.2,0,0,1,0-4.61c4.26-16.29,12-29,19.93-40.78,6.47,19.53-13.84,33.23-18.11,50.3-1.42,5.91-1.21,10-1.76,15.37ZM61.82,229,37.67,191.6,42.91,189l24.83,39.84ZM93.06,159.7c.21,1.07,1.06,1.65,2,1.16s1-.51.43.33a1.74,1.74,0,0,0,2.8,2.08,1.43,1.43,0,0,0,.14-2c-.57-.53-.69-.81.15-.4,2.11.86,3.28-2.21,1.23-3.24a2,2,0,0,0-1.94.37c-.47.49-.53.32-.41-.06a9.52,9.52,0,0,1,.3-1,5.8,5.8,0,0,0,.24-.8l-2.16,0s.17.5.35.91.23.69.31.85c.29.59-.06.37-.64-.06a1.68,1.68,0,0,0-2.45.37A2.48,2.48,0,0,0,93.06,159.7Zm3.12-30.44,4.64-.14a74.69,74.69,0,0,0,5.11,14.13c-4.09,6.8-5.19,14.48-.43,22.25l-14.72,0C94.75,153.71,96,141.14,96.18,129.26ZM101,147.65a1.64,1.64,0,0,0,.14-2.25c-.71-.85-.55-.89.41-.34,1.38.8,2.7-.93,1.89-2.46a1.82,1.82,0,0,0-2.83-.32c-.53.72-.47.06-.06-.9.15-.35.37-1,.37-1l-2.25,0s.29.64.45,1c.41,1.09.43,1.43-.21.73a1.74,1.74,0,0,0-3,1.34,1.5,1.5,0,0,0,2.18,1.5c.61-.36.89-.45.2.38a1.76,1.76,0,0,0,.32,2.28A2,2,0,0,0,101,147.65Zm-31.1,4.4c.18-.13.25,0,.14.13a6.83,6.83,0,0,1-.54.6c-1.05,1.17.31,2.66,2,2.43,1.15-.16,1.83-2,1-2.69-.28-.18-.49-.22-.7-.47,0-.1,0-.17.13-.13s.46.31.61.35a1.65,1.65,0,0,0,2.15-.91,2.21,2.21,0,0,0-.71-2.31,1.64,1.64,0,0,0-2.22.44c-.59.78-.67,0-.19-1a6,6,0,0,0,.3-1l-2.07.11s.11.45.29,1c.46,1.17.79,1.51.2.9-2.53-1.49-3.37.54-3.41,1.34a1.8,1.8,0,0,0,3,1.25ZM80,129.14h3.73c-2.81,15-8.58,27.57-18.28,36.22l-18.26-.06-8.8-6.17,3.4-4.43C65,157.12,74.89,145.59,80,129.14Zm-16.8,34.78a1.65,1.65,0,0,0,.82-2.56c-.65-.75-.72-1,.28-.4,1.34.78,2.64-.78,2-2.31a1.76,1.76,0,0,0-2.63-.6c-.82.61-.8.34-.37-.63a7.91,7.91,0,0,0,.37-1.24l-2.29,0a9.73,9.73,0,0,0,.33.92c.38.86.52,1.25.34,1.25s-.37-.26-.53-.41a2,2,0,0,0-2.16-.06c-1.37,1.31-.6,3.6,1.14,3.18,1.12-.27,1.38-.7.45.36C59.84,162.76,61.62,164.64,63.25,163.92Zm-14.43-.46a1.53,1.53,0,0,0,.73-2.25c-.53-.71-.8-1.17.15-.53,1.26.64,2.36-.21,2.35-1.65a1.78,1.78,0,0,0-2.94-1.3,2.07,2.07,0,0,1-.51.29c-.15,0,.12-.81.43-1.35.13-.23.36-.7.36-.7l-2.29-.09A8.85,8.85,0,0,0,47.4,157c.36,1,.45,1.3-.19.75-1.72-1.61-3.56.44-2.83,2.21a1.45,1.45,0,0,0,2.25.5c.63-.49.31.16-.12.68C45.33,162.54,47.05,164.29,48.82,163.46ZM153.3,125.85l.12,2.78-29.57,24.71-1.24-1.9Zm-110,5.2c4.26-3,9-8.49,13.67-11.33C60.41,127.58,52.4,135.29,43.33,131Zm77.73-1.44c-3-16.63,14.81-13.17,13.88-11.68ZM25.35,119.42,54.62,95.5l1.33,2L25.07,122.87Zm80.18-24.14c.08.25,1,1.2,1,1.29-.25-.19-1.76-1-2.49-.21a2.8,2.8,0,0,0-.55,1.76,1.73,1.73,0,0,0,2.9.89c.31-.26.58-.58.64-.47a2.49,2.49,0,0,1-.25.92c-.16.37-.75,1.16-.32,1.15h2.08a4.37,4.37,0,0,0-.33-1c-.46-1-.45-1.56.12-.83,1.09,1.42,3.21.24,3-1.46A1.58,1.58,0,0,0,109,96c-.1.06-.39.35-.43.36s.19-.46.4-.85c.67-1.29-.33-2.48-1.86-2.35a2.13,2.13,0,0,0-1,.4A1.7,1.7,0,0,0,105.53,95.29Zm25.27-12a50.3,50.3,0,0,0,8.79,6.41l-2.76,4.37c-18.73-1.74-32.35,5.69-38,25.81l-2.9-.06c1.16-12.56,5.17-24.35,17.58-36.52Zm-17.95,3c0,.6,1.1,1.3.85,1.47s-.76-.51-1.06-.54c-2.16-.23-2.61,3.14-.47,3.52a2.73,2.73,0,0,0,1.55-.4c.34-.28.58-.51.65-.49s-.17.65-.4,1.09a13.15,13.15,0,0,0-.52,1.28h2.46s-.22-.76-.44-1.29-.34-1.12-.15-1.08.17.23.35.38a1.83,1.83,0,0,0,3-.91c.39-1.35-1.22-2.73-2.34-2-.39.26-.39.07,0-.52A1.79,1.79,0,0,0,116.3,85,2,2,0,0,0,112.85,86.29Zm17.65,4c-.06-.3,0-.21.33.11a1.81,1.81,0,0,0,3.12-.49c.43-1.36-.89-2.92-2-2.38-.6.28-.61.18-.27-.27A1.7,1.7,0,0,0,130,84.6a1.65,1.65,0,0,0-1.52,2.49c.28.47.19.57-.3.33-1.41-.69-2.73,1.55-1.69,2.88a2,2,0,0,0,2.82.09c.43-.41.42-.22.11.64a14.39,14.39,0,0,1-.57,1.35l2.44,0A10.5,10.5,0,0,1,130.5,90.28ZM78.17,120.39c.71-.18-2.51-10.41-4.87-15,2.62-6.08,6.09-11.23.18-22l15,0c-4.4,12.23-5.83,37-5.83,37Zm1.32-11.85a4.44,4.44,0,0,1-.79-1.85c-.09-.53,0-.56.32,0,1.34,1.48,3.15.05,3.16-1.26s-1.25-2.23-2.15-1.63c-.63.42-.8.3-.24-.48a1.62,1.62,0,0,0-1.49-2.52c-1.84,0-2.55,1.75-1.23,3,1,.91.07.37-.71,0-1.51-.63-2.5.91-1.82,2.46a1.59,1.59,0,0,0,2.65.48c.44-.48.85-.76.61,0a10.43,10.43,0,0,1-.8,1.82Zm2.33-16.23a5.9,5.9,0,0,1-1-2c-.05-.31.17-.23.67.2,1.62,1.39,3.84-1.1,2.33-2.63a1.29,1.29,0,0,0-1.65-.36c-.75.4-.69.2-.32-.21a1.65,1.65,0,0,0-.08-2.22c-1.64-1.47-4.25.72-2.72,2.29.67.68.35.59-.38.16-1.38-.83-2.92,1.45-1.88,2.78,1.23,1,2.16.53,3-.13.19-.1.35-.14.35-.06s-.85,2.17-.85,2.17ZM62,86.14C57.68,72,69,58.32,75.88,47.77c7.28-10.47,6.38-27.86,6.69-27.16l1,.12s-.8,10.19-.35,14.8c.47,4,.37,4.3.08,4.7-.08.38,0,1.48,0,1.86C81.27,50.86,73.63,72,62,86.14Zm75-26.33L112.4,20.66l5.91-.27c2.19,3.48,23.56,36.71,23.56,36.71Z" style="fill: #d40000"/>
    <path d="M35.71,229.7c2.8-10.28-4.78-34.2-9.52-37.32,5.55-.24,12.23-.35,12-.66,0,0,23.62,37.25,23.43,37.45s-25.93.53-25.93.53Zm95.72-58.33c-5.72-.82-3.47-5.58.21-6.07-.48.08.39-2.37,3.36-3.36.67-1.23,1.2-3.32,1.82-4.29-1.78.58-3.94,2.09-12,.9.7-3.84,8.44-4.5,11.22-3.9,1.61.38,3.2,2.78,3.69,2.83,5-.83,11.28,3.67,9.37,8.24-.3.65-1.05-.77-2.72-1.38-5.4-2-5.78-4.89-7-6.21-.45-.09-2.84,4.65-2.84,4.65l.75,3.22c1.29-.12,7.05,3.45-.11,5.86-2,6.85-5.71,2-5.7-.49ZM145,140.8c-.31-.31.24-2.44,1-3.67a2.13,2.13,0,0,1,1.83-1c.95.17.8,1.55-.46,5.59C147.29,142.29,146,142.35,145,140.8ZM31,112.48c-1.57,0-.16-4.29.8-5.65.32-.42,1.57.48,1.64,1.1C33.57,109,31.87,112.92,31,112.48ZM29.9,83.36a23.59,23.59,0,0,1,6.39,3.46c1.8,1.35,1.31,4,2.75,4.22,1-.48,2.75-4.81,2.75-4.81S42.24,84,41,83.33c-3.15-1.7-3.1-3.54-2.9-3.71.94-2.43,2.8-2,3.8-2.13,0-1.33,0-4.14,2.72-3.85,2.4.23,2.64,3.67,1.63,3.7,0-.06,4.54-.66,4.5,2.36,0,1.64-2.73,3.73-3.57,3,0,0,.45,3.26-3.64,4.38-1,1-1.73,5.12-1.73,4.75,2.46-2.23,6.33-2.75,12.42-2-3.77,7-14.21,3.73-15,2.37C33.93,90.63,29,88.56,29.9,83.36ZM74.84,66.55l16.6-.21c-.06.56,5.22,3,9.79.36.88-.5,18.55-.22,18.55-.22l11.29,16.73-16.68.39C100.23,95.11,98.43,108,95,120.7l6.17.06c9.91-28.51,34.38-28.39,49.77-16.22L135.1,117.46c-12.27-6.2-17.52,12.08-13.8,12.13l31.88-26.13s.55,2.13.49,2.21c-2.27,3-40.28,33.92-40.28,33.92l-1.67-1.85-2.17,1.84A14,14,0,0,0,111.2,142c-7.53,6.06-7.78,17.18-2.23,23.24l-2.72.22c-1,1.28-7.91-13-.16-22.13-3.13-6.15-5.06-14.52-5.45-14.91.08,1-4.94.66-4.94.66A169.63,169.63,0,0,1,91,165.61l23.07.5-9.82,17.09s-11-.28-15.77-.61c-5-2.89-7.81-.69-12.47.38-6.62.19-16.36-.11-16.36,0A80.11,80.11,0,0,0,48,165.88c-.61-1,19.59-.39,19.59-.39s10.1-15.32,11.94-19.65c1.44-3.38,4.66-15.67,4.66-15.67.15.64-1.83-3.2-6.45-3.11-3.82,25.46-34,34-52.15,17.65l-.17-3,40-32.54,1.78,2.06C66.81,111,42.63,131.13,43,131c7.17,3.76,15.46.72,14.49-11.63a135.91,135.91,0,0,0,15.65-13.81c.11-.19,5.52,12.17,5.38,14.55,3.11-1,5,1.15,4.9.77-1.12-7.15,5.12-34.25,5.24-37.37-3.47-.28-8.07-.15-15.28-.44,5.79,11.24,3.78,18.86-4.32,25.78l-1.69-2.13c.69.38,11.83-9.28,2.86-23.72-.41,0-4.73-.39-4.73-.39Zm43-46.46s25.25-.61,25.26.13a59.3,59.3,0,0,0,10,37.49s-11.18-.4-11-.26Z" style="fill: #e2cf00"/>
    <path d="M154.89,230.32V19.12H23.69v211.2ZM36.1,229C37.79,210.58,28.3,193,27,192.47c7.93.11,13.21-1.22,15.59-3.52l-.76-1.17c-4.67,4-11.66,4.22-16.32,3,.11-9.92-.31-20.41,0-30.33a14.51,14.51,0,0,1,13,5.66c5.14,6.79,8.62,15.42,13.16,23.32,5.93,10.32,11.47,22,20.75,39.21l-.89.28Zm46.43-.12a3.65,3.65,0,0,1-.53,0c-.35-.14-.53-.79-1.19-2A15.18,15.18,0,0,0,74,220a2.87,2.87,0,0,1-.92-.55c-.18-.37-.41-1.41,0-1.48a18.18,18.18,0,0,1,10.19,10.84c-.23,0-.51,0-.75,0Zm6.9,0a1.34,1.34,0,0,1-.43,0c-.23-.13-.26-.83-.18-1.11a20.57,20.57,0,0,1,4.92-8.56c.73-.79,1.17-1.2,1.41-1.22s.34.48.25,1.49a1.7,1.7,0,0,1-.21.85,20.73,20.73,0,0,0-5,8.56A6.75,6.75,0,0,0,89.42,228.82Zm4.78,0h0c-.26,0-.51,0-.69,0a.73.73,0,0,1-.25-.77c.21-.6,1.28-2.73,1.64-2.8h0a10.56,10.56,0,0,1,0,3.57,6.31,6.31,0,0,1-.69,0Zm-1.87,0H91.07c.15-1.85,1.85-4.88,4.09-7.27a6.37,6.37,0,0,1-.17,2c-.08.41-.35.59-.6.91A13.58,13.58,0,0,0,92.33,228.81Zm-4.4,0H87c-.28-.05-.36-.2-.33-.52.27-2.94,1.93-7.89,8.53-12.79.55.23,0,1.35,0,1.32-3.06,2.35-6.77,7.94-7.11,10.69-.06.53,0,1.11-.16,1.3Zm-2.9,0h-.74c-.4-.74-.7-1.72-1.07-2.42A20,20,0,0,0,74,217.5c-1.5-.74-1.66-.65-1.77-1.27-.09-.46,0-.67.27-.67a2.9,2.9,0,0,1,1,.31,19,19,0,0,1,5.55,3.07c3.31,2.71,7,9.29,5.93,9.89Zm-4.24,0c-.62,0-.58,0-1.2,0a22.68,22.68,0,0,0-5.64-6.29c-.32-.53-1.06-1.79-.07-1.65a12,12,0,0,1,2.75,1.67c1.85,1.36,4.74,5.68,4.16,6.28Zm-2.37,0c-.76,0-.4,0-1.31,0a22.08,22.08,0,0,0-2.93-3.7l-.11-1.45s0-.05.06,0c.56.07,4.93,4.66,4.29,5.19Zm-2.19,0c-.51,0-1.41,0-1.47,0a5.4,5.4,0,0,1-.16-2.06l.08,0C75.13,226.73,76.34,228.5,76.22,228.81Zm-50.72,0V193.08c11.76,14.69,9.88,35.86,9.49,35.69Zm71.82-.07c-.7-6.14,1.14-14.26,4.19-22.39,1.88-5,4.59-8.76,7.64-13.26,5.85-8.58,10.27-17.29,8.57-28.34a17.48,17.48,0,0,1-.37-2.87,32.1,32.1,0,0,1,5.59-7.08c3-2.48,7.24-6.18,7.57-6a13.34,13.34,0,0,0,3.77,4.7c.28.3.28.57-.35.7-4.18,0-8.48.88-9.87,4.59-.19.7-.19.69.65.61.43,0,2.14,0,3.34,0,2.2.17,5.67.19,7.41-1.14.34-.32.52-.3.58-.13.15.86-1.54,3.68-1.54,3.68l-2.79,1.55s-1.14.05-2.55,0l0,2.51a3.27,3.27,0,0,0,0,5.63l-.1,2.74,2.69,0c1.79,1.71,3.24,1.71,4.88.09h3.1v-3a3.26,3.26,0,0,0,.18-5l0-3-2.39,0s-.49-.38-.51-.69a41.14,41.14,0,0,1,2.08-4.05c.43-.63.32-.27,1,1.18,1,2.07,2,2.91,4.5,4.13a13.67,13.67,0,0,1,3.7,2.22c.52.5.82.34,1-.4a6.07,6.07,0,0,0-.6-4.81c-1.91-3.19-5.24-3.33-5.77-4.07-.07-.18.61-.38,1.34-.71a10.33,10.33,0,0,0,3.34-4,5.89,5.89,0,0,1,.47-2.18,4.56,4.56,0,0,0,.27-2.31,5.23,5.23,0,0,1,.08-2.35,5.15,5.15,0,0,0-.88-2.81c-.22-1-.17-.77.5-3.12.11-.38.87-3.65-.1-3.87a7.79,7.79,0,0,1-1.12,6.08,6.1,6.1,0,0,1-1.76-1.14,12.73,12.73,0,0,1,.24-2.45c-.15.41-.25,1.48-.73,1.73-.26.06-.61-.17-1.28-.75-.26-.22-.8-.6-.8-.6s7.79-6.69,10.73-8.91v99.09Zm-.86,0h-.89L96,209.36s.52-.77.54-.85a3.49,3.49,0,0,1-.16-3c-1.78-6.24-1.92-17.46-7.66-22.61-2.81-2.42-6.55-2.52-11.39-.53-10.68,0-9.1.57-17.72.08A80.16,80.16,0,0,0,47,164.79c-2.19-2.45-5.24-3.77-8.1-5.55a13.8,13.8,0,0,1,3.88-4.83,7.11,7.11,0,0,1,.88-1.24C72.73,156,79,127.73,77.71,128.45l-.26.22c-8,29.1-36.38,28-50.61,15.4-1.61,1.61-2-.19-2.09-1.7l40.76-33.31,1.84,1.84,1.79-1.65-1.46-2.63c10.68-11.09,5.86-16,2.43-23.64.1-.4-4.56-.24-4.56-.24,2.89-4.32,5.35-8.76,7.76-13.21C77.07,62.79,82.26,51,83.89,42.42c1.21,10,3,24.87,11.52,25.46,2.8.19,6-1.73,6.57-1.41l17.75-.14a69,69,0,0,0,12.18,17.23c6.43,3.87,15.54,6.38,21.06,4.88-3.51,2.78-7.56,2-12,.8-.25-.07-.51-.14-.77-.24l-3.37,5.08c-7.5-1.78-31.57-.52-37.92,25.73,0,0,.65.33.5.15,5-22.78,26.33-27.32,36.48-25.05L135,96.23c-16.84-2.07-30.56,8.5-33.82,23.48l.32.3c6.32-22.65,32.89-31,49.36-15.33l3-2.15-.1,2.9-40.5,34-1.62-1.68a18.46,18.46,0,0,0-2,1.74s1.63,1.9,1.68,2c-6.72,5.49-8.87,16.09-2.47,23.48.69.8.58,1,.45.11-5.73-6.25-5-17.3,2.14-22.54l1.44,1.89c-3.08,6.92-4.71,17.71,3.44,18.65,3,8-.45,17.38-4.25,23.7-4,7.28-8.91,13.33-12,21.26-1.48,3.31-3.84,13.12-3.71,20.62Zm-23.08-.65c-.27.06-.82-1-2.42-4-.89-1.71-1.32-2.52-1.2-2.55s.43.32,1.06,1c1.86,2,3,4.12,2.76,5.22C73.53,227.92,73.47,228.06,73.38,228.08Zm12.44-1.27c-2.88-5.83-7-10.39-13.76-12.22l-.1-1.22c2.37,1.14,7,2.69,9.87.95,1.56-1.07,1.09-1.76-.81-1-2.25.88-6.33.77-8.36-.37a1.1,1.1,0,0,0-1,0c-.11-.68-1.09-3.27-.94-4.24-.08-.14.62-.14.75,0a9,9,0,0,0,6.39,2.82,5.45,5.45,0,0,0,4-1.89c.11-.1.63-.16.7-.24s0-.32,0-.39-.22-.38-.35-.7a1.27,1.27,0,0,1-.17-.79c0-.19.13-.28.22-.41a1.08,1.08,0,0,0,0-.74.46.46,0,0,1-.09-.67c.33-.38-2.25-2.85-3.58-3.7a4.13,4.13,0,0,0-1.05-.3,3.06,3.06,0,0,0,.86.9c2,1.31,3.39,3,3.07,3.23s-1.13-.2-2-.42a7.06,7.06,0,0,0-6.29,1c-.87.72-3.18.83-3.18.83,0-1.22-5-14.49-5.34-14.76,1.95-2.27,8-7.61,14.09-9.91a15.47,15.47,0,0,1,4.11-.8,6.85,6.85,0,0,1,1.12,0c3.94.11,5.49,3.11,7.91,8.62a45.65,45.65,0,0,1,2.9,14.38c0,.27-.48,0-.69,0a7.43,7.43,0,0,0-3.89-.16,10,10,0,0,1-1.77.21,9.63,9.63,0,0,1,2.64-2.22c.37-.23.75-.51.75-.51a7.78,7.78,0,0,0-3.33,1.52,9,9,0,0,1,.36-1.28c1.15-2.83,1.49-4.5-.21-5a2.56,2.56,0,0,1-1.89-2A2.41,2.41,0,0,0,88,198.16c1.19.85,1.42,1.09.78,3.11-.9,2.83-1.1,3.53-1.26,4.19-.1.38-.28,1-.37,1.44a15.47,15.47,0,0,0-.25,4.34c.39,3,3.6,4.45,7.9,2.8.41-.16.58,0,.58,0-3.43,3.5-7.28,5.73-9.52,12.79ZM72.45,223a.11.11,0,0,1-.09,0,24.31,24.31,0,0,1-4.84-5.59c-1.33-2.16-1.88-3.4-1.58-3.43h0c.19,0,.63.41,1.33,1.2,3.63,4.13,5.64,6.5,5.27,7.69,0,0,0,.15-.12.16Zm-.76-4.31c-.3.12-1.15-.88-1.15-.88s-6.6-7.08-6.6-7.08a20.1,20.1,0,0,1-1.48-3c3.38,2.87,5.93,6.13,8.63,9.13a2.32,2.32,0,0,1,.69,1.75.16.16,0,0,1-.09.12Zm-1-3.78a2.07,2.07,0,0,1-.4-.19c-2.92-3.45-6.23-6.58-9.48-9.76,0,0-1.93-3.11-1.47-3.21,3.59,2.42,8.53,7.89,11.06,11.12a2,2,0,0,1,.38,2s-.05,0-.1,0Zm21.21-1.35c-2,.1-4-.63-4.43-2.11-.2-1-.33-1.73.1-1.76a2.85,2.85,0,0,1,1,.46c2.73,1.55,4.74,1.26,6.42.23.3-.28.47-.14.51.12.14.94.19,1.62-.24,2.08a3.33,3.33,0,0,1-1.32.6A7.63,7.63,0,0,1,91.9,213.54ZM70,210.9a12.93,12.93,0,0,1-1.87-1.84c-1.86-2-4.92-5-6.93-6.76a24.51,24.51,0,0,1-3.31-3c-.37-.54-1.88-3.14-1.59-3.22a72.92,72.92,0,0,1,13.38,13c.53.69.1.91.36,1.73,0,.08,0,.11,0,.08Zm7.54-.14a9.9,9.9,0,0,1-3-.51,6.84,6.84,0,0,1-1.87-1.09c-.34-.36-.42-.51-.12-.5A9.21,9.21,0,0,1,74,209c3.25,1,4.24,1,6.11.09,1.19-.55,1.68-.47,1.17.36S79.2,210.79,77.54,210.76Zm14.7-.13a6.18,6.18,0,0,1-3.32-.92c-1-.59-1.35-1.21-.45-1,3.4.94,4.22.76,6.27-.57a.66.66,0,0,1,.4-.14c1,0,.34,1.7-1.07,2.11a4.44,4.44,0,0,1-1.83.48Zm-15.93-2.79-.93-.13a2.55,2.55,0,0,1,2.83-2.13,2.83,2.83,0,0,1,2.6,2l-.87,0c-1.65-2.18-2.89-.72-3.63.19Zm13.94-.23-.58-.15c-.29-.27.58-2.33,2.1-2.27.69,0,1.51.49,2.41,1.75l-.77.39C92.23,205.58,91.15,205.55,90.25,207.62Zm-15.46,0a8.28,8.28,0,0,1-1.27-.14c-.35-.33,1-1.42,2.09-1.45.41,0,.29,0,.11.2a4.19,4.19,0,0,0-.61,1C75.06,207.46,75,207.57,74.79,207.58Zm13.72-.09a.65.65,0,0,1-.23,0,.57.57,0,0,1-.29-.17c-.67-.61.36-1.58,1.27-1.56a1.11,1.11,0,0,1,.38.07,3.24,3.24,0,0,0-.48,1.43,2.69,2.69,0,0,1-.66.24ZM80.87,207c-.05,0-.09,0-.14-.17a1.07,1.07,0,0,0-.18-.29c-.14-.17-.12-.18,0-.21l.35,0c.27,0,.21.36.12.51s-.15.17-.2.18Zm13.69-.39a4.22,4.22,0,0,1-.71-.86c-.16-.2-.09-.31.15-.3s.89.19,1,.52a.43.43,0,0,1-.46.63Zm-25.93-.23c-.19,0-.86-.78-3.21-3.17a90.47,90.47,0,0,0-8.62-7.8c-1.48-1.08-1.74-1.22-2.43-2.5s-.89-1.8-.57-1.78c4.72,2.89,10.46,8.68,13.91,12.82a4.21,4.21,0,0,1,1,2.1c0,.19,0,.3-.07.31Zm-1.31-4.2h-.07a2.48,2.48,0,0,1-.85-.72,64.88,64.88,0,0,0-13.12-11.7c-.64-.34-2.62-3-1.95-3.28h0c.82,0,9.6,7.18,10.85,8.87.15.2,1,1.15,2,2.09,2.27,2.28,3.21,3.6,3.22,4.54,0,.13,0,.19-.09.21Zm15.76-.92-.66-.51c-1.19-.92-1.07-2.35.29-2.37.47,0,.5.16,1.59.95,1.28.92,2.79.92,2.78,0,0-.68-.27-1.38-1.41-1.27a3.17,3.17,0,0,1-1.05,0,3.64,3.64,0,0,1-.76-.35,2.89,2.89,0,0,0-1.13-.27h-.15a1.82,1.82,0,0,0-1.09,3.28,3,3,0,0,0,1.6.56Zm-18-4.17a18.85,18.85,0,0,1-2.4-2.32A80.27,80.27,0,0,0,50.63,185c-.84-.58-.68-.65-1.29-1.72s-.85-1.54-.63-1.53a2.9,2.9,0,0,1,.61.32c5.52,3.05,13.53,10.74,15,12.59a5.09,5.09,0,0,1,.85,2.25c0,.13,0,.19-.11.19ZM80,194.34a3.2,3.2,0,0,0,.64-.32c.64-.36.77-1.2,2.14-.88s.82.09,1.43-.23.72-.4,1.29-.17a3.41,3.41,0,0,0,2.59-.07c.86-.45,1.39.85,1.73,1s.65.09.47-.38a6.66,6.66,0,0,1-.21-1.24c0-.42-.1-.8-.26-.82l-.07,0c-.6-.17-1,.3-1.54,0a6.66,6.66,0,0,0-6.43.1c-1.76,1-.62.72-1.76.33s-.79-.05-.4,1.08a6.86,6.86,0,0,1,.29,1.36c0,.13,0,.19.09.18ZM63,192c-.05,0-.1,0-.29-.18a99.74,99.74,0,0,0-14.6-11.39c-.56-.28-2.45-3.27-2.05-3.33,3.14,1,12.11,8.21,15.64,11.74.61.63,1.59,2.83,1.37,3.09L63,192Zm1.15-.42c-1.45-2.92-1.89-4.37-3.23-6.61l11.06.17c-2.78,1.4-7.83,6.44-7.83,6.44Zm18.62-1.84a1.63,1.63,0,0,0,.75-.23c1.21-.6,3.71.19,3.78.21.25.07-.83-.72-1.19-.88a4,4,0,0,0-1.56-.24c-1.29,0-2.63.4-2.33.87a.61.61,0,0,0,.55.27ZM84.31,188a5.39,5.39,0,0,0,3.12-.75c1.15-.91-.36-.43-.83-.23a5.61,5.61,0,0,1-3.81,0,13.87,13.87,0,0,0-1.63-.42c-.25,0-.21.23-.07.45a5.21,5.21,0,0,0,3.22.93Zm-23.52-.75c-4.38-5-14-10.79-15.28-11.24A20.36,20.36,0,0,1,44,173.17c5.33,2.26,12,7.7,15.4,10.93A6.3,6.3,0,0,1,61,186.72c.07.35-.11.33-.17.51Zm-3-5.61c-.2,0-.7-.37-1.46-1.08A54,54,0,0,0,43.47,172l-1.56-2.77c.42-.25,11.77,6.46,13.43,8.19a11.84,11.84,0,0,1,2.53,4C57.87,181.54,57.83,181.6,57.77,181.62Zm-2.91-5.26c-.55-1-10.3-6.89-13.73-8.23l-2-2.61A57.24,57.24,0,0,1,53,173.26a11.15,11.15,0,0,1,1.83,3.1Zm79.28-1.19c-1.2,0-2.29-1.06-2.22-3.95-6.17.48-4.1-6.53-.3-5.21-.11-3,1.86-3.35,3.25-4.08a12.54,12.54,0,0,0,1.84-4.23l-.28-.9c-1.17,2-6.15,2.64-11.62,1.55,1.48-3.52,6-3.42,10.13-3.95a35.35,35.35,0,0,1,4.24,2.71l-2.79,5.82a11.34,11.34,0,0,1,.71,3.18c3.53-.27,5.44,5.69-.06,5.14a3.39,3.39,0,0,1-2.91,3.92Zm-83.89-4.74a36.56,36.56,0,0,1-3.87-2.17,78,78,0,0,0-7.72-3.66l-.35-.15a3.93,3.93,0,0,0-.51-.47c-.91-.71-2.68-2-2.39-2.07,1.42-.11,9.17,3.09,12.63,5.47a20,20,0,0,1,2.37,2.9c0,.12,0,.17-.16.15Zm98.4-4.91c-.63-.35-1.17-1-1.82-1.25-3.26-1.41-5.86-2.57-6.33-4.64-.67-1.76,0-2.3,1.25-2.19,2,.18,5.42,2.16,6.16,3.27,1.42,2.13,1.33,4.45.74,4.81ZM46,165.31a4.37,4.37,0,0,1-1-.42c-2.52-1.21-8.78-4-11.79-4-5.59-1.57-5.78-.86-7.73-1.36,6.62-2.11,14.68,0,19.94,5C46,165.09,46.17,165.3,46,165.31Zm94.34-8.08a1.35,1.35,0,0,1-.84-.26s-3.09-2.25-4.43-3.37a15.07,15.07,0,0,1-4.32-5.35l11-9a11.16,11.16,0,0,1,2,1.26c.11.43-.19.57-.64,1a1.58,1.58,0,0,0-.35,1.09c0,.61.19.89-.06,1.16-.41,0-.74.52-.73,1s-.42.71-.68,1c-.45.45-.59.54-.88,2.06,0,.15,0,.54-.23.75-.63.06-1.09,1.62-1.38,1.71a1.84,1.84,0,0,1-1.38-1.44,7.17,7.17,0,0,1,0-2.28,6.64,6.64,0,0,0,.17-1.74c-.12-.45-.42-.17-.41.46A10.87,10.87,0,0,1,137,147c-.16.73-.61,1.7-.41,2.27.3.86,1.39,1.22,1.89,1.67a7.22,7.22,0,0,1,1.73,2c1,1.9,1,2.23.78,3.66a.65.65,0,0,1-.59.61Zm2.06-.81c-.3,0-.51-.07-.57-.34a6.65,6.65,0,0,0-.86-3c-.83-1.25-1-1.69-.07-1.32a1.78,1.78,0,0,0,1.55-.12,1.37,1.37,0,0,1,.71-.21c.45,0,.69.46,1.2,1.48.78,1.57.56,2.43-.79,3.12a3.48,3.48,0,0,1-1.17.42Zm-2.19-.86a.42.42,0,0,0,.17,0c.05-.63-1.18-1.61-1.87-1.62-.31,0-.52.19-.43.7.29.14.74,0,1.08.13s.67.73,1.06.8Zm-18.43-.89-11.59-15,1.4-1.13,11.68,14.84Zm23.81-1c-.19-.05-.37-.39-.71-1.08a10.72,10.72,0,0,0-2.58-3.24c-.41-.33-.55-.79-.26-.83l.8,0a1.2,1.2,0,0,0,1-.37.94.94,0,0,1,.6-.3c.54,0,1,.53,1.65,1.6,1.13,1.83,1.19,2.44.23,3.64-.35.43-.54.66-.73.61Zm-21.6-.3-1.49-2.06s21.62-18.68,30.88-25.63l-.09,3.06C143.68,137,124,153.4,124,153.41Zm17.39-2.08c-.58,0-1.59-.78-1.6-1.29a.73.73,0,0,1,.77-.77,2.16,2.16,0,0,1,1.64.81c.55.58.48,1.11-.59,1.21a.49.49,0,0,1-.22,0Zm-19.13-.59-1.3-1.68,32.26-26.54v2.41Zm25-1.06c-.18,0-.4-.14-.75-.61a20.78,20.78,0,0,0-1.3-1.63c-.93-1-1.07-.73-.52-1.47.26-.34.43-.66.68-.69.42,0,1,.54,1.74,1.5s.84,1.43.62,2.09c-.16.48-.29.76-.47.81Zm-4.48-1.53a1.63,1.63,0,0,1-1.5-.86.8.8,0,0,1,.91-1.12,1.51,1.51,0,0,1,.67.25c1,.5,1,1.14.48,1.6A1.19,1.19,0,0,1,142.76,148.16Zm4.51-2.16a3.66,3.66,0,0,1-1.36-.9c-1.34-1.14-1.36-1.19-.82-1.8.3-.35.44-.81.9-.83,1,0,2,2.31,1.83,3C147.67,145.84,147.54,146,147.27,146Zm-3.85,0a1,1,0,0,1-.93-1.23,1,1,0,0,1,1-.67c1.07.16,1.34,1,.85,1.57a.94.94,0,0,1-.61.34,1.11,1.11,0,0,1-.26,0Zm-23.71-.51a1.08,1.08,0,1,1,1.08-1.08A1.08,1.08,0,0,1,119.71,145.47Zm3.35-.41a1.09,1.09,0,1,1,1.08-1.09A1.09,1.09,0,0,1,123.06,145.05Zm21.11-1.85a1,1,0,0,1-.34-.09.76.76,0,0,1-.11-1.44.89.89,0,0,1,1,.09C145.6,142.34,145,143.26,144.17,143.21Zm-23.78-1a1.08,1.08,0,1,1,1.08-1.08A1.08,1.08,0,0,1,120.39,142.25Zm2-.24,1.79-4.34,4.73-1-1.81,4.55Zm-7.4-.33L113.69,140l39.41-32.87v2.74ZM25.5,141v-2.26l38.23-31.55,1.22,1.57Zm22.93-2.31c10.89-.24,19.9-10.66,13.92-23.83l-5,4c1.29,10.47-3.79,15.8-14.71,12.21l-5.28,4.2A18.65,18.65,0,0,0,48.43,138.71Zm81.93-2.18a1.08,1.08,0,1,1,1.08-1.08A1.08,1.08,0,0,1,130.36,136.53Zm3.5-.46a1.08,1.08,0,1,1,1.08-1.08A1.08,1.08,0,0,1,133.86,136.07Zm-17.77-2.29,5-4c-2.16-10.93,6.46-15.28,14.66-12.11l5.1-4.36a15.92,15.92,0,0,0-10.08-3.46C121.2,109.74,111.11,117.2,116.09,133.78Zm15.42-.68a1.08,1.08,0,1,1,1.08-1.08A1.08,1.08,0,0,1,131.5,133.1Zm1.86-.17,1.79-4.34,4.73-1-1.81,4.55Zm-107.07-.18a1.08,1.08,0,1,1,1.08-1.08A1.08,1.08,0,0,1,26.29,132.75Zm1.5-2.33,1.79-4.34,4.73-1-1.81,4.55Zm113.54-2.92a1.08,1.08,0,1,1,1.08-1.09A1.09,1.09,0,0,1,141.34,127.5Zm3.06-.19a1.09,1.09,0,1,1,1.08-1.09A1.08,1.08,0,0,1,144.4,127.31ZM36.27,127A1.08,1.08,0,1,1,37.35,126,1.08,1.08,0,0,1,36.27,127ZM25.5,126.1v-3c.79.1,21.44-17.93,30.79-25l1.42,1.84Zm116.69-1.57a1.08,1.08,0,1,1,1.08-1.08A1.08,1.08,0,0,1,142.19,124.53Zm1.83-.33,1.79-4.34,4.73-1-1.81,4.55ZM34.1,123.89a1.08,1.08,0,1,1,1.09-1.08A1.08,1.08,0,0,1,34.1,123.89Zm3.11-.12a1.08,1.08,0,1,1,1.08-1.08A1.08,1.08,0,0,1,37.21,123.77Zm-12-1.09-.24-3L54.6,95.22l1.3,2.19s-3.75,3.21-4.74,4.12C43.2,108,25.23,122.68,25.23,122.68Zm13.36-1.45,1.79-4.34,4.73-1-1.81,4.55Zm113.13-2.66a1.08,1.08,0,1,1,1.08-1.08A1.08,1.08,0,0,1,151.72,118.57Zm-126.22-.35h0V20.73H81.68a49,49,0,0,1-3.39,21.21C75,49.35,69.92,54.87,66,61.69a36.58,36.58,0,0,0-4.61,25.4,58.37,58.37,0,0,1-12.7,12.27l-4.48-4.74s.68-.06,1.47-.09c3.65-.41,7.6-.93,9.13-4.74.22-.42.13-.61-.13-.67-2.86.4-5.34,0-7,.11-4,.28-5.64,1.66-5.64,1.66A41.74,41.74,0,0,0,43.72,87,3.74,3.74,0,0,0,47,85.49c.91,0,1.61,0,2.85-.06,0-1.23,0-3,0-3,1.26-1.3,2.12-2.81.16-5.11,0,0-.08-1.07-.11-2.9A21,21,0,0,0,47,74.4a3.16,3.16,0,0,0-5.41,0s-1.3.07-2.19.08c0,.49-.17,2.65-.17,2.65s-3.81,2.6.14,5.67l-.05,2.58a15.77,15.77,0,0,1,2.23.2s-1.51,3.52-2.5,5.19c-.34.09-.26-.11-.67-1.27a9,9,0,0,0-2.56-3.62c-1.29-1-3-1.3-4.27-2.17s-2-1.91-2.39-1.71a11.89,11.89,0,0,0,.18,4.37c.63,2.54,4.27,4.16,7.31,5.37.23.15.44.38.44.46,0,.42-.4.29-1.4.19a2.14,2.14,0,0,0-2.66,1.55,7.7,7.7,0,0,1-.84,1.23,4.82,4.82,0,0,0-.67.87c0,.15-.36.94-.67,1.59A3.45,3.45,0,0,0,30.37,99a32,32,0,0,0,.18,5.81c.2,1.13,1.63,1.78,2.12,1.87.75.14.89.91.77,1.53-.58,3.09-2.36,5-2.93,4-.15-.27-.31-1.53-.35-1.51a4.07,4.07,0,0,0-.19,1.51,1,1,0,0,0,1.29.59c.87-.32,1.55-1.18,2.09-3.14.22-.8.43-1.25.8-1.31.69,0,1.76,1.46,1.76,1.46-3.56,3-10.4,8.38-10.4,8.38ZM47,118a1.08,1.08,0,1,1,1.08-1.08A1.08,1.08,0,0,1,47,118Zm-2.14-3.14a1.08,1.08,0,0,1,0-2.17,1,1,0,0,1,1,1A1.09,1.09,0,0,1,44.9,114.84Zm3.28-.27a1.08,1.08,0,1,1,1.08-1.08A1.08,1.08,0,0,1,48.18,114.58Zm1.48-2.23L51.45,108l4.73-1-1.81,4.54Zm17.7-2.14L55.22,95.57l1.41-1.26,12.1,14.84Zm-30.87-.79s-.92-.95-1.22-1.26-.2-.55.15-.89a1.51,1.51,0,0,0,.25-1.15,1.22,1.22,0,0,1,.48-1.32,1.29,1.29,0,0,0,.49-1,1.5,1.5,0,0,1,.62-.82A1.77,1.77,0,0,0,38,100.8c-.11-.35-.17-.44.28-.75a1.91,1.91,0,0,0,1-2.21c-.16-.84.58-.63,1.19.43a8.6,8.6,0,0,1,.59,2.6c.2,1.27.33,1.62.4,1.44.39-1-.07-4.88-1.24-5.4-1.71-.76-3.13-2.32-2.71-2.93.15-.21.17-.14,1.21.34a9.15,9.15,0,0,0,1.26.51c1.21,0,.47-.48.08-.53a5.34,5.34,0,0,1-2-1.23c-.27-.5-.12-.75.26-.76A2.94,2.94,0,0,1,40,93a21.77,21.77,0,0,0,3,1.9l.46.19,4.42,5Zm21.76-.19a1.08,1.08,0,1,1,1.08-1.08A1.09,1.09,0,0,1,58.25,109.23Zm-23.9-2a.85.85,0,0,1-.6-.23c-.62-.5-.59-1.1-.11-1.38a1.19,1.19,0,0,1,.78-.16c1,0,1,1,.46,1.51A1,1,0,0,1,34.35,107.26Zm21.5-1.05a1.08,1.08,0,1,1,1.08-1.08A1.08,1.08,0,0,1,55.85,106.2Zm11.44,0c-1.14-1.33-2.19-2.72-3.21-4.13,6.76-5.65,4.71-11.3-.17-16.95l2.58-1.71,3.07.05C74.36,89.31,75.66,99.64,67.29,106.2Zm-34.73-.27c-.6,0-1.51-1-1.62-2.13-.08-.79-.08-1.22.14-1.23s.48.24,1,.78a6.23,6.23,0,0,0,1.38.92c.62.35.65.47.32.75-.14.12-.62.13-.75.51a.52.52,0,0,1-.46.41Zm26.51-.17a1.08,1.08,0,1,1,1.08-1.08A1.08,1.08,0,0,1,59.08,105.76Zm-23.8-1.13a1.52,1.52,0,0,1-1.25-.93c-.07-.38.6-1,1-1a1,1,0,0,1,.69,1.84.63.63,0,0,1-.44.09Zm-1.95-1.3c-.1,0-.23-.1-.46-.24a3.33,3.33,0,0,1-1.62-1.78,4.39,4.39,0,0,1,0-2.9c.09,0,.22.28.58.82a9.26,9.26,0,0,0,2.16,2.4c.72.55.8.85.31.85a.94.94,0,0,0-.65.49C33.52,103.22,33.43,103.32,33.33,103.32Zm3.44-.84a1.08,1.08,0,0,1-.7-.2c-.79-.47-.94-1.19-.29-1.6a1.2,1.2,0,0,1,.59-.19,1.07,1.07,0,0,1,.87,1.71A.89.89,0,0,1,36.77,102.48ZM34.56,101c-1.08,0-3-3.21-2.46-4.53.24-.59.44-.87.67-.87s.51.31.89.89a12.89,12.89,0,0,0,1.8,2.23c1.47,1.36,1.62,1.24.42,1.37-.48.05-.63,0-.92.72a.47.47,0,0,1-.4.19ZM38,99.54A1.61,1.61,0,0,1,37,99c-.59-.55-.57-1.1-.18-1.24a1.58,1.58,0,0,1,1,.24c.64.26.68.42.58,1-.05.29-.19.48-.42.49Zm-2.1-1.93c-.46,0-1.06-.5-1.47-1.2-1.31-2.2-.85-3.41,1-3.43,1.11,0,1.33.29,1.34,1.25,0,.57.22,1,1.1,2.13.36.46.6.81.58,1s-.15,0-1.37-.16c-.43-.05-.65-.06-.81.17A.51.51,0,0,1,35.89,97.61ZM45.62,94a10.43,10.43,0,0,1-3.1-.31s-4.59-2.19-4.93-2.25c-5.94-1.91-7.69-3-8.1-8.59,0-.2.11-.2.31,0,.52.36,2.51,1.66,3.25,2,3.38,1.6,4.35,3.32,5.37,6,.24.26.44.24.75,0A15.1,15.1,0,0,0,41.7,86c.08-.2.25-.41.15-.7-.24-.8-.82-1.84-.23-2.63-1.91.09-3.74-1.31-3.5-2.71.51-2.6,1.61-2.13,3.67-2.51-.12-3,1.22-4.14,2.59-4A3.45,3.45,0,0,1,47.14,77c6.16.52,3.25,6.23-.33,5.36,1.42,3.24-2.84,4.46-3.44,3.91-.24,1-1.86,4.42-2.21,5.43,4.56-3.24,11.9-1.8,13-2C52.47,93.19,48.47,94,45.62,94Zm106.11-6a14.25,14.25,0,0,1-8.06-2.68A20.41,20.41,0,0,1,138,79.48c-.33-.39-2.41-4.26-6.21-11.59-1.93-3.73-4.49-8.81-6.57-12.75-1.34-2.55-3.84-7.37-4-7.76-.37-.8-3.09-6.13-4.15-8.07-2.8-5.12-7.32-14-8.93-17.25-.36-.83-.9-1.3.07-1.27a4.16,4.16,0,0,1,.56,0c.17.09.38-.16.38-.16L142.56,20s-1.69,22.35,9.94,37c-7.11-1.08-11.18,0-15.32,2.94l.57.58c5.7-3.51,10.54-2.59,15.48-2V87.3c0,.44-.59.68-1.5.71Zm-7.09-.66a33.22,33.22,0,0,1-6.25-1.81c-4.92-1.82-6.66-2.86-8.44-4.46-.4-.42-2.27-2.66-2-2.88,4.49,2.53,8.31,5,12.41,6.31a5.68,5.68,0,0,1,1.17.44c.29.21,1.54,1,1.83,1.15,1.87,1.1,2.06,1,1.6,1.23A.81.81,0,0,1,144.64,87.35ZM62,85.93c-1-4.38-.42-10.23.73-14.64,1.68-6.11,4.82-11,8.32-15.93,8-11.24,11.54-19.72,11.4-34.82l1.19.14c0,2.39-.41,4.16-.5,7.34a57.22,57.22,0,0,0,.27,9.31c.18,1.63.28,2.69,0,2.9a1,1,0,0,0-.13.88c0,.45-.08,1.36-.08,1.36-1.83,9-11.66,32.05-20.71,43.29l-.5.17Zm77.74-2.37c-4.42-1.93-8.92-4-12.74-7.16a4.58,4.58,0,0,1-.88-1c-.34-.45-1.34-2-1.44-2.21,1.16.89,11,7.06,12.8,7.2,0,0,.87,1,1.58,1.87s.91,1,1,1.13S139.81,83.57,139.76,83.56Zm-3.08-4.28a2,2,0,0,1-.72-.22c-3.95-1.82-12.42-7.66-12.42-7.66-.81-1.34-2-2.73-2.22-4a82.91,82.91,0,0,0,14.17,9.43c.31.29,1.06,2.1,1.31,2.3s.05.15-.12.13Zm-1.52-3.39C127.9,72.36,120,65.39,120,65.39a25.38,25.38,0,0,1-1.53-3.17c0-.08,0-.12,0-.14s.27.11.34.17a71.27,71.27,0,0,0,14.8,10.84,20.78,20.78,0,0,0,1.5,2.8Zm-2.41-4.15a.21.21,0,0,1-.13,0,72.23,72.23,0,0,1-15.68-12.33,19.41,19.41,0,0,1-1.33-3,.15.15,0,0,1,.1-.12c.14,0,.35.14.44.19,3,2.86,6.64,7.22,15.27,12.28.45.79,1.06,1.84,1.44,2.66C132.87,71.55,132.84,71.7,132.74,71.74ZM95.63,67.39H95c-6-.24-8.14-10.11-9.47-15.57a34.4,34.4,0,0,1-.9-7.92.34.34,0,0,1,.26-.06,11.22,11.22,0,0,0,3.63.12c1.6-.38,1.92-.66,2-.42s-.55.91-1.72,1.71c-.51.35-2,1.23-2,1.23a13.25,13.25,0,0,0,3.7-1.72s-.53,2.37-.62,2.62c-1,2.37-.86,2.58,1,4a8.76,8.76,0,0,1,1.38,1.23,8.59,8.59,0,0,0,.56,1s-.09-.71-.24-1.58a4.13,4.13,0,0,0-1.55-2c-1-.71-.86-1.4,0-3.8,2.47-7.09,1.84-10.25-.88-11.79-1.23-.69-4.66-.51-5.75.4-.53.45-.46-.43-.37-.49,6.53-4.5,8.06-9,9.73-13.1-.22,0,3,9.58,12.3,12.39.8.25,1.27.6,1.22,1.07s0,.68-.94.23a10.23,10.23,0,0,0-9.14-.41c-.47.24-.95.89-.57,1.3.22.21.75.05,1.42-.21,3.5-1.37,8.86-.56,9.81,1.59.67,1.53.79,2.65.42,2.84s-.76-.37-1.59-1.11c-2.66-2.34-5.85-3-8.38-.74-.55.49-1.09.4-1.28.6s0,.63.19,1.06a1,1,0,0,1,0,.95A4,4,0,0,0,97,42.52c.06,1.2.85,2.23,3.13,3.82a7.47,7.47,0,0,0,2.17,1.11l-1.17-.93c-3.73-3-4.41-4.26-2-3.21s5.76,0,8.13-1.82c.81,0,1.29-.16,1.71.16,1.77,4.16,3.21,9.7,5.56,15.07-2.72,3.08-12,10.48-18.89,10.69Zm34.82-.25c-.07,0-.18-.08-.18-.08-4.45-2.58-10.32-7.69-15.88-13.5a14.51,14.51,0,0,1-.7-2.12l.09,0a.72.72,0,0,1,.28.09,89.64,89.64,0,0,0,15.11,12.82,23,23,0,0,1,1.33,2.72.1.1,0,0,1-.05.08Zm-12.27-3.4-11.11,0a43,43,0,0,0,7.81-6.19ZM128.47,63a.41.41,0,0,1-.18-.05c-2.14-1.06-11.1-8.52-15.69-14.07a22.25,22.25,0,0,1-1-2.75c0-.1,12.66,12.78,14.29,12.54.76.45,2.64,4.11,2.64,4.11S128.6,63,128.47,63ZM91,62.26a.5.5,0,0,0,.19-.07c1.29-.78,4.51-1,6.94-.16.39.14.46-.1.05-.44a5.56,5.56,0,0,0-3.57-1c-1.91,0-3.71.7-3.85,1.47a.19.19,0,0,0,.23.21ZM94,60a4.82,4.82,0,0,0,2.38-.63c.42-.27.73-.86.29-.8a1,1,0,0,0-.24.07c-1.82.73-2.1.88-3.91.44-1.05-.26-.76.36-.22.61A3.83,3.83,0,0,0,94,60Zm-.33-1.95a7.62,7.62,0,0,0,3-.48c1.31-.37,1.74-1.1,2.64-.36.55.45,1.27.38.85-.45A5.18,5.18,0,0,1,99.71,55c.06-.59-.07-1-.29-1h0c-1.58,1.31-1.64,2-2.93,1.57-.9-.27-1-.25-1.59.15A1,1,0,0,1,93.6,56c-.95-.43-1.39-.12-2.26.19S89.8,55,89,54.83A16.54,16.54,0,0,0,89,58s.78-.46,1.2-.68c.73-.37,1.56.21,2.34.66a8.14,8.14,0,0,0,1.16.12Zm31.34-.89a2,2,0,0,1-.57-.23,91.83,91.83,0,0,1-13.89-13.54c-.18-.65-.58-1.27-.11-1.77A103.7,103.7,0,0,0,124,54.21,24.88,24.88,0,0,1,125.34,57c-.1.12-.17.17-.29.16Zm28.19-.86c-6.91-9.74-10.48-20.93-9.39-35.59h9.39Zm-30.29-3.93c-4.19-2.94-13.62-13.06-13.52-13s-.79-1.85-.55-2.28c3.61,3.63,7.28,7.67,11.19,10.79.55.47.92.77,1.17,1,.52,1,1.7,3.47,1.7,3.47ZM96.78,51.23a1.84,1.84,0,0,0,1.81-1,2.23,2.23,0,0,0-1.74-2.93c-.93.08-.7.53-.3.71,2.21,1.07,1.26,3.27-1.08,1.87-1.84-1.12-3.3-1.22-3.29-.25a1.09,1.09,0,0,0,1,.93,17.59,17.59,0,0,1,2.63.59A4.26,4.26,0,0,0,96.78,51.23Zm22.88-4.8a.82.82,0,0,1-.37-.22c-3.48-2.85-6.39-6.33-9.66-9.51-.43-.44-1.27-1.41-1.27-1.41S107.28,33,108,33c.54.21.89.8,1.24,1.17,1.72,1.84,5,5,8.74,8.7.65,1.07,1.13,2,1.44,2.65s.38.86.26.87ZM87.05,43.5a2.11,2.11,0,0,1-1.85-2.17l.39,0c1.34,2.52,2.88,1,3.36-.25h.44A2.18,2.18,0,0,1,87.05,43.5Zm14.2-.35a2.83,2.83,0,0,1-2.46-2.2h.46c1.71,2.68,3,1.1,3.77-.17l.46,0C103.2,42.43,102.24,43.17,101.25,43.14Zm-16.38-.06a.76.76,0,0,1-.48-.33.76.76,0,0,1,0-.69c.16-.26.32-.1.34-.08A.87.87,0,0,1,85,43a.24.24,0,0,1-.17,0ZM89.82,43c-.41,0-.4-.56.16-1.27.47-.39.86-.55,1.22-.3s.17.75-.83,1.36A1.12,1.12,0,0,1,89.82,43Zm13.93-.32c-.29,0-.24-.23,0-.8.42-.86.38-1,1.05-1,1.5,0,1.4.89-.16,1.49A3.54,3.54,0,0,1,103.75,42.71Zm-5.41-.32a.65.65,0,0,1-.39-.46.45.45,0,0,1,.33-.48c.18-.06.6.74.24.93A.23.23,0,0,1,98.34,42.39Zm18.26-2.06A2.45,2.45,0,0,1,116,40c-3.08-2.84-5.92-6-8.87-9.06,0,0-.23-1.25-.24-1.77,0-.06,0-.09.09-.1s.31.15.4.22,4.86,5.32,7.64,7.94a32.57,32.57,0,0,1,1.57,3.09s0,0,0,0Zm-32.09-.05c-.33,0-.4-.3-.23-.8a2.61,2.61,0,0,1,2.64-1.55,5.13,5.13,0,0,1,2.07.45c2.22,1,2.62,1.61.72,1.31a11.69,11.69,0,0,0-4.08.19,7.79,7.79,0,0,0-1,.38Zm14.1-.79a.51.51,0,0,1-.19,0,.22.22,0,0,1-.14-.13c-.41-.75,1.55-1.63,3.53-1.65a5.45,5.45,0,0,1,2,.43c1.82.72,3,1.49,1.08,1.24a14.45,14.45,0,0,0-4.48-.22C99.36,39.32,98.87,39.45,98.62,39.49Zm-7-.48c-.3,0-.91-.47-.91-.47-3.38-1.9-4.54-1-6.37-.43-.26.08-.54-.63-.2-1.32.67-1.16,2.38-1.45,3.49-1.48a4.44,4.44,0,0,1,3.56,1.21c.65.8.91,2.07.55,2.44a.17.17,0,0,1-.11,0Zm22.15-4.55s-.3-.12-.44-.23c-1.36-1-7-7.43-7-7.43-.26-1.05-.44-1.41-.06-1.86a75.57,75.57,0,0,1,5.55,6.13A24.66,24.66,0,0,1,113.63,34C113.74,34.16,113.86,34.37,113.78,34.46Zm-29.84-1c-.23,0-.31-.27-.36-.79s.22-.78.84-1.21a17.86,17.86,0,0,0,6.48-8.92c.21-.68.13-1.53.5-1.74.45,0,.86,0,1.31,0a2.8,2.8,0,0,1-.15,1.29A26.2,26.2,0,0,1,85.2,32.69c-.65.5-1,.75-1.26.75ZM106.51,33a18.47,18.47,0,0,1-12.08-12.2c.25,0,.76,0,1,0,1.32,2.44,4.06,8.18,10.48,10.42.46.1,1,1.42.6,1.78ZM84.08,30.62c-.23,0-.24-.29-.19-.92s.11-.62,1-1.51a17.86,17.86,0,0,0,3.57-5c.82-1.78.83-2.35,1-2.48h1c.38,1.53-3.11,7.82-5.65,9.51A1.83,1.83,0,0,1,84.08,30.62ZM106,30.27c-3.5-.52-8.08-5.87-9.31-9.49h1.15a19,19,0,0,0,7.77,8.13c.45.26.24.91.39,1.36Zm4.22-2.43s-.13,0-.28-.12a25.35,25.35,0,0,1-1.87-2c-2.24-2.55-2.31-2.39-2.26-3s-.36-1.71.16-1.9a4.28,4.28,0,0,1,.52,0c1.25,1.47,2.07,3.94,3.14,5.78.11.19.78,1.24.59,1.31Zm-5-.18c-.68-.22-5.68-4.47-6.27-6.89a7,7,0,0,1,1.32,0c1.47,2.78,5.07,5.46,5.06,5.45a5.34,5.34,0,0,1,0,1.42s0,0-.08,0ZM84.1,27.61a.28.28,0,0,1-.24-.09c-.23-.51-.22-1.1.58-2a20.17,20.17,0,0,0,2.25-3.55c.12-.36.25-1,.48-1.19.49,0,.57,0,1.06,0,.24.6-1.12,3.45-2.79,5.6-.65.84-1.06,1.23-1.34,1.26Zm20.65-3c-.83-.11-3.49-3.5-3.38-3.89h1.29a8.75,8.75,0,0,1,2.08,2.53,2.6,2.6,0,0,1,.15,1.33.21.21,0,0,1-.14,0Zm-20.64-.53c-.23-.07-.18-.72.13-2.35.06-.34.1-.88.31-1h1.21C86,21.14,85,23.6,84.44,24c-.14.09-.25.14-.33.11Z" style="fill: #131f67"/>
    <path d="M111.45,19.5l.62.82-3.63,0c.59.5,14.05,27.66,31.26,59,2.85,5.51,8.28,7.49,14.59,7.73l-16.71-27c1.78-1,5.32-3.58,7.45-3.09.13.66.77.4.77-.19l.77,0,.27.42h3.25l.27-.39,2.8.4c-7.48-9.25-11.43-23.5-10.15-37.41l-24.81.05-.33-.44Zm-29.21.84a50.53,50.53,0,0,1-2.33,18.1C77.09,47.58,70.12,55.1,66,62.66c-4.44,8.26-5.48,15.44-4.23,23.3l.81.07A135.25,135.25,0,0,0,83.45,42.4c.09-.33-.06-.92,0-1.25a1,1,0,0,1,.09-1c.24-.25.15-1.24,0-2.87a66.77,66.77,0,0,1,0-13c.31-3.37.29-3.9.29-3.9Zm60.31.39c-.81,9.12,1,21.64,5.29,29a3.75,3.75,0,0,1-.23.63c-.41.61-.61.08-.85-.41-.91-1.68-2.63-1.95-3.38-1-1.66,2.27.14,3.17,1.54,4.45-5.72-.35-7.62-6.66-6.3-9.78a4.14,4.14,0,0,0,.71,2.13c1.61,2.44,4,.38,3.28-1.55a10.93,10.93,0,0,0-1.3-2.13,7.38,7.38,0,0,0,2-.55,1.6,1.6,0,0,0,.73-1.72,3.47,3.47,0,0,0-.48-1.5,2.31,2.31,0,0,0-1.78-.85c-1.18.08-1.32.89-2.09,1.45-.19-1.47-1.13-2.58-2.66-2.31a2,2,0,0,0-1.29,3c.36.79.86,1,1.37,1.72-8.21-.92-7.32-10.7-6.41-10.53,0,0,.25,0,.17.33-.47,2.39,2.5,3.82,3.8,2.08.83-1.41-1-3.64-1-3.64A8.09,8.09,0,0,0,135.4,29c2.15-1.24-.14-4.8-2.14-3.93-.7.32-.88,1-1.56,1.32-.46-.51-.48-1.07-1.31-1.53-2.25-1.26-3.66,1.72-2.41,3,.51.53,1.41,1,1.24,1.08-7-.88-6.91-8.29-6.75-8.24Zm-29.47,0h4.82l23.42,36.52-4.27,2.1Zm5.8,0h2.66c.41,8.16,7.26,9.26,8.32,9.14C128.12,35.41,131,41.47,138,42.33c-1.6,5.12,1.23,11.86,6.81,11.68l.59.38a6.84,6.84,0,0,0-.42,2.27,18.35,18.35,0,0,0-2.72.43c-7.21-10.91-23.38-36.33-23.38-36.33Zm-36.36,0h1c-.28,4.35-.9,10.08-.5,14.32.47,4,.49,4.62.2,5s-.19.66-.11,1a1.85,1.85,0,0,1,0,1.05A88.68,88.68,0,0,1,79.8,52.7C75.31,65.13,68,78.67,62.23,85.78c0,0-.26,0-.27,0a36.06,36.06,0,0,1,3.54-21.57C69.07,57.33,74.65,51.46,78,44.26A49.72,49.72,0,0,0,82.53,20.8Zm49.1,7.09a1.1,1.1,0,1,1-1.1,1.1A1.1,1.1,0,0,1,131.63,27.89Zm7.77,12.18a1.11,1.11,0,1,1-1.11,1.11A1.11,1.11,0,0,1,139.4,40.07ZM83.6,42.24h0C84,43.83,76.16,67.72,65,82.92l4.86.1.15.54c6.81,10.08,2.55,19-2.95,23.14l1.9,2.54-1.71,1.39-1.72-2c-13.93,10.48-41.12,33.68-41.12,33.68L24.6,146l2.12-1.68c13.79,13.39,43,12.65,50.71-15l2.06,0C74.85,149.63,56,157.56,41.72,154.2L38.38,159l.89.48c-.16-.26-.31-.34-.07-.58L42,155.25C63.36,158,76.23,145.89,80.4,129.5l2.72,0a66.71,66.71,0,0,1-17.95,35.37c-6.62,0-18.27-.18-18.27-.18,4.24,4.12,12.34,16.69,12.66,18,0,0,8.33.27,17.26,0,3.28-1.48,7.66-2.07,9.71-1,3.6,1.82,7,8.56,8.5,19.38a45.86,45.86,0,0,0,.85,4.53c0,.1.26.18.3.16s-.22.49-.23.91a2.31,2.31,0,0,0,.2,1.27c.25.28.22.46.19.58a4.68,4.68,0,0,1-.51.53c-.07,6.3,0,12-.38,19.78h1.24c0-12.48,3.74-24,9.53-32,3.52-5.22,7.24-10.83,9.3-16.19a30.66,30.66,0,0,0,1.4-17.69l-.85,0c-5.09-3.5-7.16-11-.9-16.29L113,143.87c-6.26,4.85-7.7,13.8-1.21,21.21H109.2c-6.33-7.92-4.93-17,2.38-23.5L110,139.49l1.78-1.57,1.6,1.76,40.81-34.2,0-3.74L151,104.29c-18.31-17-45.46-5.06-49.44,15.38l-2.49,0c5.22-22,24.44-28.22,38.35-25.29l3.43-5.21a20.43,20.43,0,0,1-7.31-4.38,18.27,18.27,0,0,1-2.31-2.19c-6.59-7-11.06-16.67-11.27-16.69L102,65.9c-2.63,1.3-7.13,2.78-9.6.79-5.3-4.29-7.08-13-7.81-18.53-.22-1.73-.41-4.75-.57-5.75a.41.41,0,0,0-.47-.16Zm63.5,9.63A1.09,1.09,0,1,1,146,53,1.09,1.09,0,0,1,147.1,51.88Zm2.33,1.28a13.28,13.28,0,0,1,2.1,3.58c-.41,0-.8.12-1.26-.24A5,5,0,0,0,149,53.63Zm-3.28,1.61c.36.18.65,1.55.4,1.78-.44.09-.73.06-.88-.09a1.92,1.92,0,0,1,.48-1.69ZM74.92,66.68l16.63,0c2.89,2.22,5.72,1.93,9.82.15h18.49l1,1.9H74c.26-.71.9-2.06.9-2.07Zm-1.37,3H121.4l1.21,2H72.36Zm4.62,2.84h5.37l-2,3.39H76Zm11.92,0h5.12l-2.28,3.38H87.85Zm16.57,0-2.16,3.38H99.3l2.24-3.35Zm6.42,0h5.13l-1.92,3.38H111ZM44.15,73c-3.33,0-2.71,4.39-2.4,4.25-2.09-.48-3.63.52-3.89,2.3a3.07,3.07,0,0,0,3.59,3.15,3.9,3.9,0,0,0,.33,2.71,11.77,11.77,0,0,1-1.23,3C39,91.56,38.73,91.71,38,89.63c-.74-2.23-1.87-3.37-4.84-4.81a18.24,18.24,0,0,1-2.49-1.49c-1.33-1-1.34-1-1.28,1,.08,2.64.88,3.8,3.69,5.36a20.57,20.57,0,0,0,4.49,1.84A14.55,14.55,0,0,1,41,93.1a8.4,8.4,0,0,0,3.14,1,16.11,16.11,0,0,0,7.57-1.53c1.22-.7,1.69-1.33,2.58-3.14a20.86,20.86,0,0,1-4.48-.21c-2.92-.17-4.37,0-6.58,1.15-1.85,1-2,1.14-1.18-.46a23.57,23.57,0,0,0,1-2.45c.32-.85.41-.92,1.22-1a3,3,0,0,0,2.95-3,4.91,4.91,0,0,0,0-1c1.21.18,3.68-.42,3.6-2.93-.07-2.26-1.67-2.77-3.65-2.93A3.16,3.16,0,0,0,44.15,73Zm0,.7c2.92,0,2.85,2.7,1.58,4.23l-1.55-1.28L43,77.82c-1.36-.87-1.36-4.12,1.22-4.1Zm79.78,0,1.44,2.12h-3Zm-54.43,3H75l-2.2,3.1H67.63S68.79,77.92,69.53,76.8Zm17.3,0L84.76,80H80l1.92-3.16Zm6.43,0h5l-2,3.44h-4.9Zm11.67,0h5l-2,3.44h-5Zm11.38,0h5.18l-2.14,3.44h-5Zm-68,.62a2.24,2.24,0,0,1,2.24,2.45c-.44,2.9-3.22,2.74-4,1.32l1.14-1.3-1.39-1.37a2.23,2.23,0,0,1,2-1.11Zm-4,0,2.47,2.49-2.4,2.42L41.85,80Zm-3.61.2a2.3,2.3,0,0,1,1.58.85L40.9,80l1.46,1.41c-.94,1.31-4.57,1.21-3.84-2a2.08,2.08,0,0,1,2.13-1.81Zm86.14.48,1.53,2.1-2.86,0Zm-82.49.59-1.25,1.25,1.25,1.24,1.24-1.24Zm22.94,2,61.39.2,1.64,2c-21.43.37-42.42-.34-64.32-.36ZM45.67,82c2.43,1.5.63,4.65-2,4.11-1.95-.86-2.34-2.88-.59-4.06l1.37,1.13Zm21,1.21H65l-1.63,1.91c6.17,6.52,5.94,12.17.19,17.09l2.31,2.59c6.45-5.53,7.88-14.22.8-21.61Zm6.34.25c3.46,5.42,6.45,15.68-3.85,25.08L68,107c9-8.78,6.86-16.17,2.84-23.5Zm1,.13L88,83.64c-3,11.4-5.08,18.12-5.39,36l-4,0c.44-.41-2.09-10.77-5-14.37,6.18-10.52,2.85-16.45.51-21.67Zm-43.85,0h0a10.71,10.71,0,0,1,1.7.89c3,1.52,5.34,3,5.92,5.11.41,1.16.15,1.18-1,.09a33.58,33.58,0,0,0-4.12-3.11c-.82-.56-1.08-.47-.6.22a8.92,8.92,0,0,0,2.57,2c1.08.66,2.57,2,2.45,2.18s-.29.16-.81-.07l-1.72-.71c-3-1.24-4.33-2.75-4.51-5.28-.06-.88-.12-1.28.16-1.29Zm63.62.06a3.7,3.7,0,0,1,.47.79c.12.5-.37,1-1.92,1.65-.53.24-1,.36-1,.67.07.73,1.46,1.84,1.29,2.83-.32.76-2.25,1.5-2.73,2.4,0,.61,1.25,1.56,1.08,2.39-.1.25-.5.5-1.1,1-1.22,1.07-1.3,1.23-.85,2.06,1,1.93,1.08,1.78-.34,3.15S87.32,102,88,103.18s.71,1.23-.29,2.06-.93,1-.41,2,.62,1-.23,1.74-1.17,1-.48,2.08.77,1.1,0,2-.86.93-.44,1.53c.53.76.62,1,.07,1.79s-.59.84,0,1.68a2.54,2.54,0,0,1,.38,1.49H84.8a4.27,4.27,0,0,0-.21-1.36c-.49-.89-.48-1.16.11-1.95s.49-.88-.06-1.68-.48-.81.25-1.74.7-1.25.32-1.74c-.9-1.15-.9-1.64,0-2.4.69-.58.76-.84.16-1.84s-.66-1.06.42-2,1.09-1,.35-2.1-.67-1.17.47-2.23S87.78,99.4,87,98s-.72-1.25.67-2.49,1.85-1.3.47-3c-.77-1.32-.22-1.45,1-2.1,2.21-1.36,1.21-1.27.28-3.28-.78-1.35-.33-1.36,1-2a11.66,11.66,0,0,0,1.09-.53c.91-.51.41-1,.41-1Zm2.89,0,6.66.08c-7.71,9.88-11.43,22.51-12.76,35.84l-2.52,0c-.16-10.41,3.11-23.41,8.62-35.88Zm7.61.07,3.28.06s.62.74.89,1c1.42,1.61,1.54,1.29-1.58,3.06-2,1.11-2.84,1.63-3,2.1s.86,1.41,1,2c0,.07-2.68,1.87-3.16,2.12-.68.33-.71.61,0,1.78.77,1.34.71,1.3-1,2.46s-1.94,1-1.25,2.15c1,1.57.51,1.92-1.75,3.15-.57.31-.59.62-.19,1.69.55,1.49.7,1.34-.47,2.15-1.38,1-1.62,1-1.32,1.56.89,1.7,1.24,2.11.05,2.66-.9.42-.92.66-.42,1.78s.63,1.08-.26,1.71-1.31.46-.51,1.42c.64.76.58,1.36.06,1.83-.45.19-.65,1-.52,1.06l-1.15,0a1.3,1.3,0,0,1,.32-2c.15-.28,0-.48-.4-1.14-.5-.91-.48-1,.24-1.55s.75-.4.27-1.58c-.56-1.38-.54-1.54.35-2.17s.88-.77.29-2-.63-1.27.93-2.31c1.09-.73,1.11-.68.53-2-.4-.93-.12-1.25,1.37-2.27.85-.58.91-.7.51-1.39-1.1-1.91-1.09-2,.81-3.2,1.55-1,1.54-1.1.94-2.44s-.71-1.34,1.42-2.62c1.75-1.05,1.85-1,1.13-2.26-.9-1.58-.84-1.32,2.67-3.33,1.26-.87,2.4-.57,1.15-2-.55-.71-1.23-1.47-1.23-1.47Zm10.64.11,15.93.06c3.81,3.21,6.63,5.05,8.63,5.78,0,0-2.68,4.47-2.89,4.3a32.59,32.59,0,0,0-38,25.51l-2.43,0a53.57,53.57,0,0,1,6.59-20.67,57.26,57.26,0,0,1,12.12-15ZM42.39,86.35c.24,0,.43.29.42.85A6.82,6.82,0,0,1,42,89.53c-.74,1.58-1.48,2.75-1.87,2.76-.92,0-.89-.19.33-2.58.62-1.1,1.28-3.26,1.89-3.36Zm6.52,3.36c1.6,0,3.26.18,4.74.22,0,3.35-10.46,5-11,3.35,1.83-1.43,7.23-.8,8.37-2.08-1.38-.08-3.25.15-4.53.17-1.6,0-4.18.71-4.2,1-.17-.88,2.74-2.54,5-2.64.51,0,1,0,1.58,0Zm5.64,5.34S34.12,112,24,120.21l.06,3.66L56.41,97.33Zm-.07.84,1.31,1.59-30.35,24.8-.11-2.6Zm75.79,1c6.45,0,13.38,2.32,20.14,7.67l-1.09,1.17c-29.64-22.12-56.94,11.46-41.89,35.49a6.13,6.13,0,0,1-1.18,1.08C93.42,121,109.22,96.84,130.28,96.93Zm3.83,2.82a9.69,9.69,0,0,1,6.09,2.75c1.52,1.84,1.08,2.66-.86.92-2.08-1.52-3.8-1.87-.91-.08a4.51,4.51,0,0,1,1.24,1.25c.11.31-.43,0-2.85-.9a8.08,8.08,0,0,1-3.74-2.92C132.74,100,133.23,99.74,134.11,99.75Zm-6.24,0a4.83,4.83,0,0,1,1.32.13,9.09,9.09,0,0,1,3.58,1.55c.54.42.37.73-.26.46a16.51,16.51,0,0,0-3.46-1c-.6.06,0,.46.87.68,1.92.48,2.87,1,1.5,1a35.49,35.49,0,0,1-4.69,0c-1.42-.17-3.55-1.47-3.06-1.93s2.62-.91,4.2-.93Zm-6.08,2c2.51,0,3.87,1,1.13,1.16-4.72.75-5.63,1.78-.4.55,1.22-.29,1.2.15.35.57-.69.34-1.55.5-2.26.85a10.2,10.2,0,0,1-5.4.22c-1.7-.65,3.64-3.38,6.59-3.35Zm20.23.43c1.27,0,4,1.88,5.19,3.61.79,1.13.4,1.94-.8,1-.24-.18-2-1.64-2-1.68s1.42,1.45,1.65,1.87.65,1.18-.2,1.2c-1.33-.16-4.46-3.67-4.48-5.4,0-.46.26-.65.68-.64Zm-15.76,1c.53,0,.26.26-.75,1-1.81,1.28-.87,1,1.25-.07a8,8,0,0,1,1.69-.64c.27-.05.6-.13.72-.16.57-.18.13.53-.8,1.27a17,17,0,0,1-5.67,3.18c-1.94.48-2.35.54-1.63-.67,1.14-1.93,2.8-3.47,4.38-3.77a5.65,5.65,0,0,1,.8-.11Zm6.52,0a15.58,15.58,0,0,1,3.38.49c1.1.35.81.42-.51.56-2.49.27-1.45.56,1,.52,3.3,0-1.66,1.2-3.26,1.44a15.17,15.17,0,0,1-4.36-.5c-1-.2-.42-1,1.56-1.91a5,5,0,0,1,2.23-.6Zm20.42.45.09,2.14-40,33.53-1.36-1.51Zm-13.61,1.84c1.59,0,3.9,1.09,3.65,1.76-.09.25-.27.24-1.49-.09-.8-.21-2.23-.44-2-.26a11.2,11.2,0,0,0,1.61.59c1.41.34,3.1,1.14,2.72,1.37-.65.4-1.25.09-2,0-1.93-.27-5.11-1.25-5.63-1.74s1.49-1.62,3.2-1.65Zm-18.66.12c.29,0,.4.28.12.65a12.72,12.72,0,0,0-1,1.69,10.26,10.26,0,0,1-3.47,3.69c-1.29.8-1.47.66-1.36-1a5.71,5.71,0,0,1,3.13-4.41c.81-.11,1.27-.33.42.69-1.5,1.81-.47,1.62.93-.43C120.17,105.87,120.64,105.63,120.93,105.65Zm-5.19.24c.87,0,1.16.3,0,.83a17.24,17.24,0,0,0-3.21,2.13c-.09.27.7-.16,2-.87,1.75-1,1.9-.93,1.06.16a12.21,12.21,0,0,1-5.06,3.36c-2.53.69-2.46.21-1.05-1.67,1.35-2,2.49-3,4.21-3.57a7,7,0,0,1,2-.36Zm-42.85.31c9.17,15.85,4.08,32-6.56,40.17-11.12,8.59-28.41,8.08-38.62-2.23l1.42-1.34s16.09,16.44,36.36,1.85c10.29-7.4,14.54-24.89,6.05-37.08Zm-41.06,0-.07,0a20.06,20.06,0,0,0-1.71,5,1.26,1.26,0,0,0,.37,1.16c.24.23.63.08.75,0,.78-.35,1.2-.89,1.88-2.6a4.54,4.54,0,0,0,.43-2.44,1.63,1.63,0,0,0-.6-.74,2.84,2.84,0,0,0-1-.48Zm.18.71a1.71,1.71,0,0,1,1.18,1c0,.74-.42,2-.74,1.8-.53-.66-1.14-.24-1.24-.48a5,5,0,0,1,.72-2.32H32Zm99,.59h0a16.64,16.64,0,0,1,11.1,3.84l-1.59,1.46a17.34,17.34,0,0,0-19.92-.16c-4.77,3.33-9,10.7-4.85,21.09l-1.49,1.36a18.7,18.7,0,0,1,6-24.62,20.2,20.2,0,0,1,10.31-3h.4Zm-60.27,1.23c.12,0,.31.41.29.9s-.28,1.38-.68,1.54S69.6,110,69.6,110a5.24,5.24,0,0,1,1.13-1.27Zm73,.47a2.78,2.78,0,0,1,.47,0c.46.06.46.46,0,.86s-.7.45-1.17.11-.44-.53-.08-.79a1.63,1.63,0,0,1,.75-.19Zm-78.28.09L66.78,111l-4.68,3.78-.56,0L25.67,144.6V142Zm64.94.85a14.77,14.77,0,0,1,10,3.18l-4.88,4c-9.76-5.09-17.59,4-14.83,12.21l-4.22,3.68C111,118.34,120.89,110.46,130.37,110.17Zm-15.58,0h0a.22.22,0,0,1,.1.06,10.53,10.53,0,0,1-.42,3.44,1.54,1.54,0,0,0-.16.53,22.18,22.18,0,0,1-1.61,3.36,8,8,0,0,0-.63,1.38c-.57,2.73-1.79-1.66-1.36-4.21.2-1.2,1.9-3.67,2.39-3.49.25.09.23.28-.21,1.24-1.22,2.67-1.53,4-.24,1.47,1.48-3,1.87-3.74,2.1-3.78Zm-83,.05h0a.45.45,0,0,1,.4.32,1.22,1.22,0,0,1,0,.74,1.4,1.4,0,0,1-1.29.9.58.58,0,0,1-.51-.47,1.14,1.14,0,0,1,.31-.9,1.64,1.64,0,0,1,1.08-.6Zm37.19.17c.58,0,1.19,1.59.8,2.3s-.38.47-.93-.65a12.79,12.79,0,0,1-.52-1.23l.47-.37.12,0H69Zm-1,.66a7.82,7.82,0,0,1,.76,2c.09.54.08.44-.51.22a2.73,2.73,0,0,1-.86-.82,5.52,5.52,0,0,0-.38-.58Zm3.66.24c.31,0,.64.3.94,1.06,1.14,2.86,1,6.08-.24,7.59-.21.25-.26.26-.52.11a2.9,2.9,0,0,1,0-1.88,6,6,0,0,0,.26-1.41c0-1.1-.27-1.24-.41-.22-.17,1.18-.35,2-.67,1.29a10.17,10.17,0,0,1-.36-1.1C70,114.28,70.76,111.33,71.68,111.3Zm-4.95.73s1.09,1.41,1.54,1.92c.16.27.15.34-.1.44-.43.17-1.88-.8-2.45-1.1-.31-.25-.17-.44-.17-.44a13.26,13.26,0,0,1,1.18-.83Zm43.09.05c.58,0,.58.2,0,1.09-3.48,5-2.77,4.27-.56,1.53,1.23-1.52,1.44-1.67,1.58-1.33a18.3,18.3,0,0,1-2.12,4.3,9,9,0,0,1-2.4,1.83c-1.65.84-1.47.5-.86-1.58.78-3.23,2.74-5.82,4.4-5.84ZM64.7,113.82C74.22,137.57,48.14,148,36.36,137l1.37-1.09c16.37,11.14,32.53-6.7,25.14-20.66,0,0,.67-.56,1.82-1.44Zm2.2.58h0c1.57.16,3.88,3,4,4.64.25,1.14-.07,1.33-.63.53-.94-1.74-.83-.64,0,1.09.42.87.52,1.92.08,2-.6-.12-1.91-2.21-2.31-3.07a10.07,10.07,0,0,1-1.54-4.36c-.1-.52,0-.8.42-.81Zm-4.74.78c7.26,14-8.35,30.72-24.23,19.88l4.76-3.79c8.29,4,17.53-1,14.88-12.42Zm68.13,1.6a8.24,8.24,0,0,1,4.27,1l-13.09,10.94C119.36,121.63,124.94,116.92,130.29,116.78Zm-20,1h0c.43-.09.79,2.66.87,6.51s.17,4.14-1,2.76a11.17,11.17,0,0,1-1.36-1.61c-.78-1.47-.53-3-.31-5.17s.92-1.7.8.41c-.08,1.35-.06,3,.15,3s.1-.13,0-.31a33.81,33.81,0,0,1,.55-5.26c.08-.22.17-.34.24-.35Zm-36.08,1.66c.95.37,1.21,3.53.19,6.59a4.39,4.39,0,0,1-2.12,2.7c-.72.38-.89.26-.56-.4a10.92,10.92,0,0,0,1.16-3.58c.1-1.35-.62-.27-.56.31-.56,2.53-1.29,2.9-1.2.24a6.47,6.47,0,0,1,1.25-4.15c.46-.67,1-1.6,1.85-1.73Zm32.83.32c.39,0,.48.53.13,1.55a31.29,31.29,0,0,0-1,3c.06,0,.94-2.06,1.12-2.4.3-.55.4-.66.66-.63a10,10,0,0,1-.13,3.34c-.53,2.74-2.4,5.58-3.11,4.73-1.16-1.37-.62-6.94.92-8.63.58-.64,1.06-.95,1.36-.95Zm-49.86.42c1.41,9.7-6.58,13.85-13.48,10.92C43.81,131,57.14,120.15,57.14,120.15Zm32.64.18,1.39,1.83,2.55.13-1.31,1.93,1.3,2.47-2.84.05-1.63,1.89-1.42-1.7-2.49-.13,1.45-2.32-1.17-2.22,2.69-.13Zm-21.39.83a7.19,7.19,0,0,1,2,2.85c.47,1.85.3,5.36-.36,5.24-.72-2.52-.44-3.83-.7-3.54-.45.46.28,4.33,0,5.29-.11.24-.5-.05-.93-.68-1.16-1.67-1-8.19-.12-9.15h0Zm85.11,3.93-31.45,26.13,1.81,2.34L153.56,129Zm-45.43.45c.14,0,.45.19,1,.84a16.42,16.42,0,0,1,2.52,4.78,16.58,16.58,0,0,0,.54,1.69c.22.53.24.68.11.84-.54.67-2.82-1-3.56-2.65-1-2.28-1.06-4.33,0-2.33.38.73.84,1.79.84,1.37a13.38,13.38,0,0,0-.81-2.33c-.22-.43-1-2.14-.66-2.21Zm45.09.63.07,2.16-29.3,24.57-1.15-1.4,30.38-25.33Zm-45.74,1.34c.14,0,.21.21.17.65-.13,1.43-.49,4.54-.41,4.81s.46-2.06.56-2.45c.5-2.06,1.27,2.87.8,5.07-.07.35-.22.91-.29,1.25a5,5,0,0,1-.42,1.09c-.83,1.31-2.78-3.9-2.45-6.56C105.59,129.73,106.94,127.47,107.44,127.52Zm-33.89,1.14c.38,0,.46.36.39,1.15-.22,2.72-2,5.57-4,6.33s-2.15.6-1-.81c.88-1.07,1.42-2.19,1.27-2.34s-.28.37-1,1.29c-.9,1.15-1,.18-.23-1.52a6.9,6.9,0,0,1,2.69-3.13,5.12,5.12,0,0,1,1.85-1Zm17.81.83A86.35,86.35,0,0,1,82.44,165H77.19c6.43-9.49,10.53-21.25,11.67-35.43Zm2.31,0a9.82,9.82,0,0,1,1.11,1.37c.35.61.45,1.14-.19,1.6-.75.63-1.06.4.16,2,.64.83.43,1-.36,1.66s-.87.76-.1,1.73,1,1.2-.1,2-1,.89-.22,2.07.9,1.07-.42,2.19c-1.13,1-1.16.69-.07,2.45.4.65.37.69-.36,1.34-1.8,1.6-1.71,1.5-1.45,1.92,2,2.84,1.08,2.76-.85,4.11-.39.33-.29.71.58,2.13.74,1.21.63,1.47-1.1,2.67s-1.87,1.41-1,2.69.91,1.17-.54,2.46c-.65.58-1.19,1.12-1.19,1.12H84.39s.68-.62,1.14-1c2.63-2,2.62-1.75,1.51-3.16-1-1.25-.89-1.33.11-2,.72-.51,1.68-1,2.41-1.57.39-.28.1-.51-.55-1.74s-.77-1.22.59-2.34,1.51-1.18.7-2.73-.82-1.42.2-2.25c1.51-1.24,1.59-1.17.79-2.61-.63-1.14-.64-1.11.43-2.19s.95-1,.31-2-.62-1.14.24-1.91.79-.77,0-1.83-.74-1,.17-1.77c.48-.42,1-.85.94-1.05a6,6,0,0,0-1-1.94c-.18-.27.18-.35.75-.95s.56-.46.12-1.26c-.24-.44-.69-1.17-.69-1.17Zm-8.59,0,.91,0a5,5,0,0,0,.37.42c.59.6.61,1,0,1.27s-.35.74.12,1.44.5.65-.22,1.38-1.13.78-.31,1.92c.46.53.41,1.08-.31,1.55-.55.37-1.48.67-.51,2.06.47,1,.51.93-.48,1.63-1.32.94-1.56.78-1,2.14.67,1.52.74,1.54-.64,2.56-1.6,1.18-1.66,1.28-1,2.7s.69,1.07-1,2.39c-1.24,1-1.53,1-1.16,1.83.69,1.5,1,1.91-1,2.94-2.32,1.19-2.44,1.28-1.33,3.06.91,1.44.71,1.24-.79,2.1-2.17,1.25-3.12,1.79-3.19,2.18s1.69,1.75,1.69,1.75l-3,.08s-1.27-1-1.77-1.52c-1.37-1.33-1.38-.9,3.16-3.11,2.51-1.22,2.3-.94,1.89-1.66-1.21-2.1-1.25-2.32,1-3.47,2-1,1.63-1.07,1.15-2.57-.42-1.31-.35-1.19.69-2,2.51-1.87,2.44-1.68,2.05-2.59s-.68-1.32-.39-1.77c.91-1.3,2.83-1.58,2-3.13-.37-1-.5-1.22.61-2.09s1-.73.36-1.84-.67-1.18.47-2c.81-.75.8-.73.35-1.45-.63-1-.6-1,.3-1.82.73-.64.86-.68.39-1.39-.62-.94-.52-1.15.3-1.61.5-.28.5-.4.46-.88a5.25,5.25,0,0,0-.27-.62Zm11.34.05h4.21a34.73,34.73,0,0,0,5,13.51c-5.32,8.56-4.11,15.68-.86,22l-13.33,0a117.48,117.48,0,0,0,4.93-35.44Zm-28.88,0c.15,0,.26.24.53.69.84,1.44.25,3.49-1,5.63-.92,1.6-1.09.38-.67-1.93.27-1.45-.47.72-.81,2.48-.19,1-.64,1.72-1.14,1.67s-.32-1.41-.31-1.71c.11-2.1.89-3.59,2.4-5.68.57-.79.81-1.14,1-1.15Zm43,4.11a1.64,1.64,0,0,1,.82.27c.27.15.75.45,1.08.63,1.17.64,1.26.84.71,1.49-.69.8-1.12.5-2.31-.84C110,134.38,110,133.75,110.49,133.73Zm-.39,1.76a1.71,1.71,0,0,1,1,.64c.77.88.68,1.63-.17,1.42-.35-.51-.53-1.29-.86-1.86-.08-.13,0-.2.08-.2Zm37.58.11a2.93,2.93,0,0,0-2.23,2c-.72,3.06-.72,2.93-.07,3.38l.43.28c.38.3.9.77,1,.67.62,0,1.56-3.92,1.52-4.73s.07-1-.14-1.34a.5.5,0,0,0-.47-.25Zm-38.15.07a.25.25,0,0,1,.19.08,5.85,5.85,0,0,1,.93,2,1.28,1.28,0,0,1-.12.49c-.42.81-1.08,0-1.15-1.38,0-.79,0-1.15.15-1.18Zm38,.6h.1c.5,0,.42.54-.27,1.29-.37.4-1.12.58-1.37.34s.38-1.33,1.2-1.56a1.63,1.63,0,0,1,.35-.07Zm-84.51.43h.08a.92.92,0,0,1,.65.34,1.79,1.79,0,0,1,0,1.59c-.4,1.4-3,4.11-3.95,4.12-.56-.1,1.78-3.07,1.85-3.57-.17-.17-1.62,1.51-2.3,2.67a6.11,6.11,0,0,1-.84,1.29c-.49.06-1.05.37-1.05,0,.08-1.49,3-4.73,4-5.63a2.53,2.53,0,0,1,1.55-.84Zm7,.14c2.24,0-2.17,4.89-5,5.6a6,6,0,0,1-2.65.09c-.12-.19,0-.34.38-.43a15.45,15.45,0,0,0,3.51-2.24c0-.28-1.21.18-2.24.85-.67.43-1,.34-.62-.18a7.91,7.91,0,0,1,6.64-3.7Zm38.8,0h0c.13,0,.25.27.33.83.41,1.05.43,1.34,0,1.65-.66.53-.82.38-.81-.84,0-1,.22-1.66.43-1.64ZM35,138.25s.82.31.48.7-1.24,0-1.24,0Zm112.61,0c.27,0,.27.23.13.85a6,6,0,0,1-1,2.53,3.65,3.65,0,0,1-1.12-.68c-.1-.11-.43-.35-.47-.51a1.6,1.6,0,0,1,.4-1.54,1.17,1.17,0,0,1,.63-.21,3.33,3.33,0,0,0,.86-.28A1.8,1.8,0,0,1,147.62,138.28ZM35.29,139.47a5.46,5.46,0,0,1,1.76.24A23.13,23.13,0,0,1,42.2,142c.68.65-1.09,1.34-3.22,1.37-1.13,0-1.34-.22-2.91-1.16-.2-.13-1.11-.73-.85-1s1.16.09,2.25.64c.35.18,1.22.13,1.21,0a17.15,17.15,0,0,0-3.8-1.52c-1.07-.34-1-.68-.39-.83a5.76,5.76,0,0,1,.79-.05Zm-2.14.74s.45.4,1,.84a7.67,7.67,0,0,1,1.88,1.84c.74.9,1.91,3.16,1.78,3.56-.3.93-3.42-.71-6-3.27a18.15,18.15,0,0,1-1.32-1.45l1-.88s.86.72,1.85,1.59c1.86,1.64,1.84,1.08,0-.65l-1-.93c0-.31.32-.59.82-.65Zm76.33.08s1,1,1.37,1.52c-6.08,6-8.4,14.29-2.53,23.16h-2.82C100.23,154.54,102.73,146.7,109.49,140.29Zm-51.43.25c.38,0,0,.43-.64,1.57-1.25,2.14-1.5,2.68-3.54,3.21a9.34,9.34,0,0,1-1.58.07c-.87.11-.48,0,.86-.87,1.86-1.21.28-.59-1.44.3-1,.51-2,.49-2.13.22s.4-.53.7-.8c2.62-2.34,3.42-2.25,5.85-3.09a12.45,12.45,0,0,1,1.91-.61Zm-10.93,2.13h0a12.51,12.51,0,0,1,2.61.28c.52.12,1.37.22.65.87a8.85,8.85,0,0,1-4.61,1.87c-.23,0-3.55-.23-2.84-.94a8.21,8.21,0,0,1,1-.13c1.84-.35,1.35-.65-.92-.53-2.84.15-3-.14-.82-.73a18.76,18.76,0,0,1,4.54-.68h.41Zm15.18.23c1.26,0,2.25.21,2.25.7,0,.78-2.39,2.51-4,2.85l-1.17.26a21.17,21.17,0,0,1-3.88-.09c-1.42-.52-.43-.72,2.18-1,1.14-.13,1.68-.43,1.67-.65a4.71,4.71,0,0,0-2.08,0c-1.39.18-1.12-.23.61-1.13a10.74,10.74,0,0,1,4.38-.93ZM38.9,144a5.69,5.69,0,0,1,1.31.45c1.51.44,3.6.94,5,2.5,1.15,1.12,1.43,1.48,1.19,1.87s-3.86.11-5.37-.53a7.12,7.12,0,0,1-2.72-2.13c-1.31-1.91-.76-2.42.91-1.08,2,1.61,2.3,1.78,2.66,1.7.14,0-.21-.36-.88-.86C39.34,144.64,38.51,144,38.9,144ZM51.25,146a6.56,6.56,0,0,1,3.67.88c2,.72,1.55,1.36-2.07,2.27a6.67,6.67,0,0,1-5-.69c-2.92-1.8-2.73-2.16.53-1.36,1.07.26,2.14.31,2.2.11s-1.24-.48-2.3-.83-.16-.35,2.12-.37h.81Zm84,7.78-.54.27a13.86,13.86,0,0,1-2.24.28c-3.71.21-6.59,1.11-8.28,4.32,1.49-.1,9.92,1.43,12.26-1.62.49-.64-1.26,4.81-2.15,5.06-2.22-.27-3.16,3.23-2.93,3.08-2.24.87-4,1.38-3.41,4,.25,1.14,1.4,2.49,3.83,2.15-.66,4.52,4.86,5.69,5.46.24,0,0,1.08-.21,1.49-.25,2.52-.6,3.13-4.29-.57-5.46-1-.3-1.08-.5-1.08-.5a3.37,3.37,0,0,0-.45-2.67c.81-1.95,2.84-5.7,2.84-5.7Zm-.31,1c.36,0,.62,0,.7.13.51.68-2.14,1.81-5,2.05a17.34,17.34,0,0,0-2.06.24c-.3.53,5.45.15,7.25-.86.61-.34.67,0,.4.49-2.08,2.68-7.11,2-11,1.55-.22-.23,0-.5.85-1.22a8.44,8.44,0,0,1,5.33-2c.53,0,2.47-.36,3.54-.37Zm2.84,2.11a.84.84,0,0,1,1,.79,50,50,0,0,1-2.25,4.68c-.23.23-1.06.4-1-.5S137.26,157,137.74,156.91Zm3.49.13c-.62,0-1.31.44-1.32.93.55,4,3.61,5,6.55,6.28.77.36,1.43,1,2.2,1.39,1.45-2-.19-5.84-2.74-7.1C144,157.67,142.3,157,141.23,157Zm.25.69c3.13-.11,7.13,2.48,7.4,5.68,0,.1.15,2.06-.29,2-.67-.19-1-.88-2.12-1.33-2.25-1.07-5.29-2-6-4.93-.12-.82.16-.9.84-.24,1.54,1.23,3.05,1.64,4.57,2.83.42.33,1.94,1.17.9.12a19.16,19.16,0,0,0-3.86-2.48C141.44,158.64,140.61,157.75,141.48,157.74Zm-115.11,4q-.72,0-1.48,0L42.24,189c-4.27,2.26-6.38,3.25-13.47,2.69l0,.36-3-.18C31,200,37.42,210.63,35.59,229.17l21.27,0c.41.58.49.42,1,0l9.55-.05.26.31,4.45,0s-20.33-38.15-30.54-57.09c-3.93-7.12-8-10.54-15.2-10.53Zm108,.95a2.18,2.18,0,0,1,2.28,2.28,4.7,4.7,0,0,1-.67,1.9l-1.55-1.48-1.48,1.49a2.56,2.56,0,0,1-.92-2.41,2.74,2.74,0,0,1,2.33-1.78Zm-18,.54c1.47,5.74,3.05,13.65-9.68,31.94-7.53,10.82-10,21-10.3,33.48h-.76c.36-6.84.41-19.23.41-19.23l.71-.63a4.34,4.34,0,0,1-.47-1.15c-.24-1,0-.69.58-3.49,2.6-13.52,19.51-40.92,19.51-40.92Zm-68,2.63,64.55.3-.86,1.7-62.47-.45Zm86,.49,2.4,2.34-2.34,2.64L132,168.73Zm-4.06.07a2.87,2.87,0,0,1,2.09.92l-1.31,1.4,1.14,1.2c-1.17,2.46-4.27.54-4.17-1.3A2.27,2.27,0,0,1,130.35,166.41Zm7.83.22a2.4,2.4,0,0,1,2.2,2.21c.19,1.7-2.45,3.61-3.79,1.26l1-1.33-1.18-1.29A2.54,2.54,0,0,1,138.18,166.63Zm-3.76.91-1.25,1.25,1.25,1.24,1.24-1.24Zm-74.28.94,5.29.05-2,3.69-5.36,0Zm11.78,0h4.86l-2.05,3.74H69.8Zm11.47,0h5.15l-2.09,3.74H81.15Zm11.53,0h5.27l-1.92,3.74H92.79Zm11.75,0h5.08l-2.06,3.74h-5.23Zm-56.12,0H54L52.56,171ZM133,170.8l1.47,1.34,1.21-1.26a2.34,2.34,0,0,1-1.44,4.2A2.39,2.39,0,0,1,133,170.8Zm-69.16,2.07h5L67,176.24H62.09Zm11,0h5.45l-1.92,3.37H73.24Zm11.66,0H92l-1.77,3.37H84.74Zm11.62,0h5.38l-1.67,3.37H96.2ZM53.83,173h3.43l-1.46,2.69Zm2.58,3.9,50.32.45-.86,1.64H57.69Zm1.77,2.93,47.15.12-1.09,2.26L88,182.17c-3.18-2.38-6.81-1.28-11,.07,0,0-12.47.13-17.37,0ZM42.5,189.45l24.87,39.36-5.5-.06-23.61-37Zm-5,2.56L61,228.8c-1.08,0-2.08,0-3.15,0a9.38,9.38,0,0,0-8.32-10.26c1.94-8-3.9-11.41-7.79-12.05,1.58-10.44-7-11.92-7.17-11.82a9.46,9.46,0,0,0-.23-2.19A11.74,11.74,0,0,0,37.52,192Zm-3.8.58c-.05.22.44,2.3-.48,1.92l-.07-1.92Zm-6,0,1.09,0c.34,1.38,1,1.66,2,2.58,0,0-1.23.21-1.52,0A12.12,12.12,0,0,1,27.68,192.61ZM32.44,195a1.08,1.08,0,1,1-1.08,1.08A1.08,1.08,0,0,1,32.44,195Zm2.13.83c3.09-.2,7.57,3.12,6.39,9.33a10.23,10.23,0,0,0-.95-2.07c-2.13-2.88-4.64,1.07-2.95,2.68.83.79,1.22,1.1,1.13,1.17a2.25,2.25,0,0,0-2.55,3.2c1.32,2.43,3.16,1.14,4.22-.3,0,0,.65,2.17,1.3,2.45A2.23,2.23,0,0,0,44,211c.7-1.79-1-2.25-1.37-3.25,3.57.12,8.12,5.35,6.05,9.89.27-1-.83-3.35-3-2.76-1.07.38-1.45,1.95-.58,3.56a5.77,5.77,0,0,0,.43.71,5.16,5.16,0,0,0-1.17.27c-2.79,1.72.81,6.43,2.88,3.49a6.67,6.67,0,0,1,.56-.75c.34.65.45,1.58,1.08,1.89,2.57,1.3,3.72-1.44,2.64-2.78l-1.29-1.63c-.11-.48,7.71,1.57,6.75,9.19l-20.72,0c1.92-11.71-2.73-25.11-5.1-29.19l1-1.36c.26.51.69,1.78,1.44,2,2.4.78,3.14-.91,2.81-2.64-.17-.92-1.46-1.66-1.87-1.8Zm5.49,11a1,1,0,1,1-1,1A1,1,0,0,1,40.06,206.85ZM47.84,219a1,1,0,1,1-1,1A1,1,0,0,1,47.84,219Z"/>
  </g>
  <path d="M130.71,223.29c7.85-.17,11.38-9,5.56-15.86-.84-1-.93-1.57.61-.61,3.92,2.62,11.43.9,11.81-7.1.48-9.85-13.31-12.69-15.9-2.21-.14,1.11-1,1.08-.82-.49a32.57,32.57,0,0,1,3.4-12.12H126a32.58,32.58,0,0,1,3.4,12.12c.22,1.57-.68,1.59-.82.49-2.59-10.48-16.37-7.64-15.9,2.21.38,8,7.89,9.72,11.81,7.1,1.55-1,1.46-.39.61.61-5.82,6.86-2.3,15.69,5.56,15.86h0Z"/>
  <path d="M47.88,26.16c7.85.17,11.38,9,5.56,15.86-.84,1-.93,1.57.61.61,3.92-2.62,11.43-.9,11.81,7.1.48,9.85-13.31,12.69-15.9,2.21-.14-1.11-1-1.08-.82.49a32.57,32.57,0,0,0,3.4,12.12H43.21a32.57,32.57,0,0,0,3.4-12.12c.22-1.57-.68-1.59-.82-.49-2.59,10.48-16.37,7.64-15.9-2.21.38-8,7.89-9.72,11.81-7.1,1.55,1,1.46.39.61-.61C36.5,35.16,40,26.33,47.87,26.16h0Z"/>
</svg>
