<svg xmlns="http://www.w3.org/2000/svg" viewBox="0 0 178.58 249.45">
  <title>C13</title>
  <path d="M164.81,209.47c3.14-.07,4.55-3.75,2.22-6.61-.34-.42-.37-.66.25-.26,1.57,1.09,4.57.37,4.72-3,.19-4.11-5.32-5.29-6.36-.92-.05.46-.41.45-.33-.2a14,14,0,0,1,1.36-5.05h-3.73a14,14,0,0,1,1.36,5.05c.09.65-.27.66-.33.2-1-4.37-6.55-3.18-6.36.92.15,3.33,3.16,4,4.72,3,.62-.4.58-.16.25.26-2.33,2.86-.92,6.54,2.22,6.61h0Z"/>
  <path d="M13.77,40c-3.14.07-4.55,3.75-2.22,6.61.34.42.37.66-.25.26-1.57-1.09-4.57-.37-4.72,3-.19,4.11,5.32,5.29,6.36.92.05-.46.41-.45.33.2A14,14,0,0,1,11.91,56h3.74a14,14,0,0,1-1.36-5.05c-.09-.65.27-.66.33-.2,1,4.37,6.55,3.18,6.36-.92-.15-3.33-3.16-4-4.72-3-.62.4-.58.16-.25-.26,2.33-2.86.92-6.54-2.22-6.61h0Z"/>
  <path d="M14.41,34.56h2.66l-3.9-9.75-3,4.12,0,5.63H12.3v2.9H4.92v-2.9H7.35v-21H4.92V11.07h7.48v2.62H10.34l0,10.22,6.53-10.3H14.52V11.07h8v2.54h-2.1L15,22l5.27,12.54h2.34v2.9H14.44l0-2.91Z"/>
  <path d="M164.17,214.89h-2.66l3.9,9.75,3-4.12,0-5.63h-2.09V212h7.38v2.9h-2.43v21h2.43v2.54h-7.48v-2.62h2.07l0-10.22-6.53,10.3h2.31v2.54h-8v-2.54h2.1l5.38-8.42-5.27-12.54H156V212h8.19l0,2.91Z"/>
  <g>
    <path d="M128.77,20.76l-65.66.32L71.45,37c17.06-1.55,32-.17,47.6.34Zm-44.84,56c-.07.09-2.73.79-2.46,1.4,7,15,10.06,27.21,13,42.63a6.74,6.74,0,0,1,3.84-1.15c-1.17-5.73,6-6.44,6-.45,1.37.32,2.79.33,4,1.73C108.9,104,115.25,86.16,123,74.08c-8.83,3.52-22.14,12.75-22.14,12.75S90.08,82.34,83.93,76.74Zm53.67,1.79c-11.75,11.24-16,41.44-15.51,42.88-15.15-.51-19.74,16.32-6.61,25.39-.52,1.76-1.8,3.19-2.79,4.75a10.62,10.62,0,0,0,4.31,1.11c1.12,1.34,2.22,2.88,3.44,3a22.47,22.47,0,0,0,3.36-3.13,23.51,23.51,0,0,0,4-1.34c-1.15-1.62-2.52-3.26-2.56-4.78,11.42-8.11,9.85-19.14-.44-24.79C126.36,102.27,132,91,137.56,82.77ZM56.67,92.89c-1.49.73-2.31,2.28-3.39,3.5a12,12,0,0,0-4.34,1.22s3.41,4.74,3.19,5c-11,7.29-11,17.94-.35,25,1.8,15.16-11,39.15-11.63,38.45l0,5c9.1-10,14.29-28.12,14.81-42.73,18.17-1.22,18.81-18.91,6.3-25.56-1-.89,3.14-5,3.14-5-1-1-2.79-1.15-4.31-1.28A18.24,18.24,0,0,0,56.67,92.89Zm89.81,13.18c1.15,2.06,4.32,3.72,4.66-.14-.54-2.9-2.43-3.54-9.95-2.28-4.43,2-3.91-3.23-6.09-1.19C128,109.08,146.33,108.35,146.48,106.06Zm-4.25,7.47c-2.11,0-2.46,8.3-2.43,10.79-6.1,9.71,12.51,8.6,4.46-2,.35-1.09-.91-3.15-1-4.63C142.6,117.63,142.31,113.89,142.22,113.53ZM33.29,126c-.19,2.51,1.63,10.13,2.31,9.87,2.38-3.87,2.1-7.18,1.85-11C43.13,113.94,23.73,118.47,33.29,126Zm35.41,1.77C67.85,144,63.91,159.94,55,173.73c7.69-3.61,15.15-8.27,22.37-12.26L94.22,172a6.65,6.65,0,0,0,2.3-1.28c-7.78-11.46-10.18-28-13.57-42.88a11.71,11.71,0,0,1-3.71,1.38c-.17,5.18-5.56,6.85-6.66.1ZM28,140.47c-1.8.11-3.15,4.61,1.95,5.27,3.6.51,8.21-1.27,10.49-.45,2.66,4.27,5-2,1.49-3-3.81-1.1-11.58,1.77-12.44-.67C29,140.75,28.48,140.44,28,140.47Zm30.6,70.23L48.4,228.81l65.08-.4L105,211.14C105.12,210.94,76.55,214.56,58.58,210.69Z" style="fill: #e2cf00"/>
    <path d="M72.47,38.73l1.29,2.36c15.24-2.53,27.25-2.93,43,.14l1.44-2.46C103.82,36.17,89.14,35.09,72.47,38.73ZM86.85,74.25l13.3,8.67,9.09-6.46L107.59,74c-5.63,12.5-15.52,2.61-19.22-3.27C88.36,70.76,87.36,73,86.85,74.25Zm35.73,4.2a1.85,1.85,0,0,1,1.9,1.28c.52,1.07.72.8.39-.53-.53-2.1,1.68-3.47,3.77-2.06,1.51,1,1.44,3.46-.21,3.92-1.33.37-1.36.72-.2.66,2.09-.1,2.65,2.71,1.16,4.09a2.37,2.37,0,0,1-4.1-1.52c-.09-.56-.21-.55-.39-.24a5.45,5.45,0,0,0-.47,3.19l-3.09-1.93a7.91,7.91,0,0,0,2.57-1.71c.1-.11.18-.19.18-.24s-.34,0-1,.09c-1.87.2-3.31-1-2.92-2.8.33-1.51,1.1-2.17,2.4-2.2Zm-13.64,48.93c3.36-3.88,7.54-6.37,13.35-6,.74-16.26,6.33-30.71,15.29-43.74l-9.85-6-4,2.4C114.66,87.7,108.44,104.89,108.94,127.38Zm-73.86-38s-6.67,5-9.77,7.47l.15,44.83a29.23,29.23,0,0,0,3.11-2c-1.85-1.65-1.38-2.92-1.74-4.14-.83-1.29-.07-2.25-.21-3.06-.2-5.72.83-6.47,5.43-7-1,.35-3.42-7.16,3.21-7.12Zm84.16,2.5a4.56,4.56,0,1,1-4.45,4.62A4.53,4.53,0,0,1,119.23,91.89Zm0,.81A3.65,3.65,0,1,0,123,96.3,3.63,3.63,0,0,0,119.28,92.7Zm.09,1.16A2.47,2.47,0,1,1,117,96.37,2.46,2.46,0,0,1,119.37,93.86ZM29.65,95.73a1.79,1.79,0,0,1,.58.09,1.46,1.46,0,0,1,.91,2.31c-.48.74-.42.81.41.49a1.18,1.18,0,0,1,1.52.35c1.56,1.56-.76,4.17-2.29,2.59-.76-.79-.83-.55-.3.8.17.44.45,1.12.45,1.12l-2.24,0,.51-1.32c.39-1,.4-1.17-.41-.53a1.73,1.73,0,1,1-2.21-2.65c.34-.33.89-.34,1.65,0q.83.33.2-.46A1.65,1.65,0,0,1,29.65,95.73Zm46.25,3.45c-.91,6,0,15,0,19.51,2.43.47,2.45,2.13,2.83,4.2,1.18-.41,3.76,1.34,4.11,1.19C83.12,118.27,79.92,102.57,75.89,99.19Zm40.41,6.58c3.45.28,2.79,3,1.76,4.06-.49.57-.4.82.14.49,1.46-.89,2.61-.25,3.08,1.28.8,2.61-2.6,4.85-4.12,2.51-.51-.79-.83-.61-.7.22a11.36,11.36,0,0,0,.85,2.46l-3.38-.31s1-1.73,1.21-2.2c.38-1,.18-1.23-.54-.45-2.11,2-5-.55-3.68-3.13a2,2,0,0,1,3.25-.67c.9.59,1.1.34.29-.38-1.51-1.35-.19-4.05,1.83-3.89ZM29.81,107.9h.12a1.88,1.88,0,0,1,.9.26,1.51,1.51,0,0,1,.54,2.23c-.3.47-.21.77.14.46a1.46,1.46,0,0,1,1.92.5c1,1.65-1,3.8-2.29,2.43-.57-.6-.79-.63-.73-.23.19.75.67,2,.67,2l-2.34,0a15.27,15.27,0,0,0,.62-2c.09-.54-.13-.46-.68.18a1.13,1.13,0,0,1-1.73.22c-1.71-1.14-.34-4.07,1.44-3.08.61.34.7.14.22-.5a1.55,1.55,0,0,1,1.21-2.51Zm121.54-1c-3.79,3.95-2.6,1.61-.84,4.62.94,5.17-.23,5.25-.08,7.72.29,3.32-2.8,3.86-5.53,4.42.44,0,4.23,7-2.84,7.58l.08,28.7,11.09-8.24,0-44.8ZM68.13,122c-2.8,2.23-7.35,7.27-13.12,6a78.93,78.93,0,0,1-14.82,43.69,94.35,94.35,0,0,0,9,5.08A28.24,28.24,0,0,0,55.47,173C65.47,157.4,68.64,140.38,68.13,122Zm26.11,3.28c.56,9.2,2,17.91,6.79,24.89l.32-19.55c-1.69-.41-3.08-1.51-3.57-4.64Zm-34.3,5.43,3.17.08s-.72,1.45-1,2.25c-.38,1-.2,1.19.52.5a2.39,2.39,0,0,1,3.23-.18c2.1,2.12-.1,5.57-2.58,4.05-1.06-.65-1.24-.43-.4.49,1.64,1.53-.07,3.74-2,3.75a2.45,2.45,0,0,1-2.39-2.35,2.07,2.07,0,0,1,1-1.93c.69-.39.2-.65-.56-.24-2.46,1.34-4.11-2.09-2.25-4,1.07-1.13,2.2-1,3.29.05q1.14,1.12.82-.2a11.16,11.16,0,0,0-.85-2.23Zm85.61,2.69h2.27c-.22.57-.51,1.14-.69,1.7s-.05.69.55.1c1.57-1.06,3.24,0,2.9,1.68a1.56,1.56,0,0,1-2.31,1.22c-1-.44-.67-.25-.11.42a1.52,1.52,0,0,1-.38,2.36,1.77,1.77,0,0,1-2.57-2.32c.6-.95.33-.84-.22-.39-.83.61-2.08-.25-2.1-1.45-.1-1.72,1.63-2.69,2.84-1.47.58.49.72.43.46-.28A12.64,12.64,0,0,0,145.54,133.4Zm.12,12.52,2.38,0a4.28,4.28,0,0,1-.4.88c-.43.82-.37,1.66.08,1.09a1.74,1.74,0,0,1,2.9.48c.62,1.38-.58,2.9-1.83,2.32-.81-.38-.87-.3-.33.49a1.55,1.55,0,0,1-.56,2.25c-1.67,1.08-3.68-1.07-2.28-2.45.37-.37.26-.55-.2-.3-1.85,1-3.21-1.5-1.61-3,.68-.63,1.2-.58,2.32.19.35.24.41,0,.16-.62A7.18,7.18,0,0,0,145.66,145.92Zm-88.4,1.51a4.84,4.84,0,1,1-4.73,4.91A4.81,4.81,0,0,1,57.26,147.42Zm.05.86a4,4,0,1,0,4,3.91A4,4,0,0,0,57.31,148.29Zm0,1.53A2.45,2.45,0,1,1,55,152.29,2.43,2.43,0,0,1,57.36,149.81Zm-6,11.72,2.77,1.37s-1.31,1.07-1.83,1.63c-.67.71-.62,1,.28.71A2.41,2.41,0,0,1,56,167.35c0,2.4-2.77,3.55-4.12,1.74-.4-.54-.88-.76-.69-.32a2.56,2.56,0,0,1-.62,3,2.74,2.74,0,0,1-2.39.27c-2-1.06-2.13-3.41-.19-4.33,1-.47,1-.9,0-.66-2,.5-3.15-1.93-1.72-3.6s4-1.41,4.28,1.22c0,.47.36.13.51-.59A16.51,16.51,0,0,0,51.32,161.54Zm25.83,3.94-9.84,6.07,2.25,3.14c5-11.5,17.09-2,19,3.89a5.45,5.45,0,0,0,.95.39c0-.41.88-4.49.88-4.49ZM60.52,207.93l-1.63,2.35c-.56.24,25.29,4.66,45.69.17l-1.41-2.7c-16.61,4.27-42.9.48-42.64.18Z" style="fill: #d40000"/>
    <path d="M23.69,19.12v211.2h131.2V19.12ZM128.9,20.5l-12.17,21c.12-1.11-23.67-4.5-43.11-.36L63,20.76Zm23.47.34.39,85.77.81,45-11.38,8.36-.17-28.8a14.44,14.44,0,0,0-2.06-.84.29.29,0,0,0-.08.53,10.59,10.59,0,0,0,1.45.65l.24,28.54c-9.26,6.7-20.82,11.36-29.62,15.05-.72-2.4-7.84-8-15.84-4a10.52,10.52,0,0,0-2.25.94c-3,.56-4.05,3.85-4.51,7,0,.13.24.1.25.11s.73-3.06,1-3.65a4.22,4.22,0,0,1,1.72-2.13c.18,0,.33.25.09.69a13.59,13.59,0,0,0-1,3.6c-.1.78-.13,1.4,0,1.43s.71-2.36,1-3.2c.8-2.19,1.31-3.1,2.08-3.57s1-.41.82.1a16.37,16.37,0,0,0-1.89,6.53c0,.49.21.51.41-.31.64-2.59,1.53-6.09,3.62-7.13.89-.41,1.29-.39,1.19-.1a14.16,14.16,0,0,0-3.08,7.83c0,.38.16.3.48-.52.84-3.12,2.09-5.78,3.58-7.09a3.31,3.31,0,0,1,1.85-.72c1.76-.22,1.82.44.29,1.34-1.74,1-3.76,4.75-4,7.54-.08,1,.26,1.07.5-.22,1-5.56,5.76-9.23,9.55-7.53,1.7.77,2,1.83.53,1.36-3-1-6.34,1.19-7.71,4.18-1.24,2.71-1.22,4.13-.34,7.75.6,3.35,1.76,7.62,1.37,10.9-.41.64-1.72-.26-3.26-.45a5.73,5.73,0,0,0-3,.16c-.85.33-1.32.41-1.48-.05-.05-.15.65-.87,1-1.27a2.29,2.29,0,0,0,.33-.6,2.67,2.67,0,0,0-.82.55,8,8,0,0,1-1.29,1.17c-.45.09-.46-.42-.1-1.7,1.26-5,.92-5.09-1.24-6.1-2.14-.82-1.47-1.24-2.42-2.06-.67.53.87,2.94,2.62,3.47,1.43.43,1.25,1.17.63,3.15-.63,2.77-1.72,6.44-1.09,8.9,1.32,5.17,6.52,5.06,10.51,3l.49,1.32c-3.37,1.38-21.15,2.55-27.14,1.86a16.92,16.92,0,0,1-.7-4,31.78,31.78,0,0,0,5.55,2c2.31.36,5.86.38,6.77-1.76.28-.63,0-1.16-.8-.8a13,13,0,0,1-11.14-.39,1.18,1.18,0,0,1-.53-1.63c.34-.08.8.31,1.07.45,3.06,1.56,4.78,2,6.73,1.26,1.3-.47,2.76-1.13,3-2.57-1.13.57-2.17,1.6-3.38,1.93-2.4.66-5-.34-7.47-2-.77-.67-.42-1.17.53-.63,3.75,1.9,5.31,3.16,8.89.49.8-.6,1.25-.52,1.72-.16,1.86,1.68,1.86.74.49-1a5,5,0,0,1-.78-1.54,3.29,3.29,0,0,0-.42-1.16,6,6,0,0,0-2.05-1.11,2.57,2.57,0,0,0-1.38-.25,3.53,3.53,0,0,0,.63.42c1.62.8,2.41,1.65.4,1.19a7.68,7.68,0,0,0-6.61.85c-1.36.67-2,1.38-2.28-.13-.67-3.15,0-7.42-.92-12.92-.17-1-.38-1.71-.16-1.85s1,.49,1.84,1.72c.39.56,1.17,1.63,1.17,1.41,0-1.16-1.77-3.35-3.25-4.21-.81-.47-1.37-2.66-.44-2.18a27.53,27.53,0,0,1,5.17,4.85c.33.55.61.2.26-.45A14.45,14.45,0,0,0,75.4,181c-1.52-1.49-1.69-1.42-1.4-1.73.58-.6,1.81.18,4,2.18.56.72,1.31,1.36,1.22,1,.22-.56-2-2.94-3.28-3.58-.24-.15-.28-.32-.25-.61.12-1.13,2.65.53,4.75,2.46.79.72.13-.64-.77-1.56A9.62,9.62,0,0,0,77,177.24c-.78-.32-.82-1-.22-1.29,2.1-.09,4.27,2.08,5.56,3.78.36.47.68.83.31-.06a7.93,7.93,0,0,0-5.41-4.47c-1.4-.25-1.37-1.52-.05-1.38S81,175.3,83,177.34c.59.59,1.57,1.94,1.37,1.15a7.13,7.13,0,0,0-1.33-1.87,12.06,12.06,0,0,0-5.59-3.54c-.95-.27-3.76.28-3.78-.22s.29-.58,1.19-.88c3.48-1.17,8.57,1.85,11.35,6.48.2.33.58.47.6.4-1.34-3.78-5.52-7.21-8.84-7.8-2.26-.37-4.54.22-5.62,1.75-1.22,1.73-.74,4,1.09,3.85,1-.09.89-.64.87-.66s-.62.2-1,.13a1.21,1.21,0,0,1,.71-2.3c2.11.26,2.4,3.61,0,4.31-2.17.65-3-.35-3.56-1.54-.87-1.74.06-4.54,1.6-5.61,4.3-3,9.73-.49,12.8,2.5a13.74,13.74,0,0,1,3.33,5.12c.18.44.56.39.39-.06-4.32-11.13-17.23-12.43-19.12-3.79-3.12-4.94-5.86-5.28-10-3.13-4.27,1.78-6.37,3.23-10.32,5.1l-9-4.85c-.53-9-.23-18-.19-26.95,0-.21-1.94.14-5.22.66-8.71,1.75-8-3-9.1-3.19-.61-.12-.56.14-.73-16.42,0-4.81-.14-13.26-.21-18.79s-.09-10.13,0-10.22a6.47,6.47,0,0,1,1.1-.92c2.12-1.52,3.31-2.43,8-6a12.87,12.87,0,0,1,1.32-.95c.53,9.95.06,20.39.32,28.94h.39l-.15-28.71c-.8-.21,18.31-11.48,28.78-15.14.2-.07.69.15.69.15,6,7.43,21.82,5.18,23.1-3.86,2.62,5.51,14.13,16.22,19.39,3.31,0,0,1.91,3.71,3.54,4,3.68.49,4.08-.09,12.17-4a88.92,88.92,0,0,0-15,47.27,4.49,4.49,0,0,0-4.15-1.63c0-1.73-.29-4.07-2.88-4.32s-4,3.3-3,4.78c-1.62-.68-4.06,1-4.06,1.18-.21,0-2.07,5,3.56,5.22a5.71,5.71,0,0,0,3.19,4.43l0,19.1.64.87.06-20c2.88-.13,3.24-3.45,3-4.22a5,5,0,0,0,3.42-1l.34,3.26s.68-1.15.53-1.76c-1.25-18.75,5.48-39,14.31-52.19.47-.55.62-1.21.85-1.22,2.15-1.17,3.52-2,3.52-2,3.55,1.72,9.9,5.88,9.9,5.88l.1,26.72c-.1-.26,11.82-1.34,11.64-1,0,0-1-.41-1.06-1.11L148,39.5l-5.21-3.43s-4.29,2.82-5.49,3.79l.13,36.82-9.24-5.46s.15-1.3.16-1.72c.39-4.25-2.58-6.68-7.25-5.22-.62.2-1.06.37-1.36.12-2-5.78-2.84-21-2.84-21L130.07,21Zm-126.82.4H61.37L73.45,43a4.13,4.13,0,0,1,.29,2.79,14,14,0,0,1-1.28,3c0-.45-3.48-.9-3.19,2.14A2.8,2.8,0,0,0,74,52.63c.31,0,.3.26.24.76-.18,1.18-1.42,4.92-2.27,5.17-4.34-3.58-5.88,3-3,4.27a4.56,4.56,0,0,0,5.51-1.92c.93-1.57.83-1.31,1.12.59.11.71.26,1.53.34,1.9.25,1.15,0,1.38-1.93,1.9a30.33,30.33,0,0,1-4.72,1.29A5.24,5.24,0,0,0,64.82,72c0,.58,0,.85-.12,1A137.16,137.16,0,0,0,25.55,95.69ZM143.37,37.43s2.54,1.69,3.76,2.53l0,2.72-3.67-2.41Zm-1.33.41c.79,2.5.78,7.86.49,10.24-.49,1.55-.71,8.47-.15,12a35.89,35.89,0,0,1-.06,9.67,61.84,61.84,0,0,0,.27,8.7,26,26,0,0,1-.18,7,28.78,28.78,0,0,0,.13,7,60,60,0,0,1,.33,10.46c-.54.62-4.78.71-4.49.5l-.12-63L142,37.83ZM96,41.19c3.56,0,6,.09,5.95.12a28.16,28.16,0,0,1,.6,4.12,49.51,49.51,0,0,0-4.92-2.13c-2.6-.8-6.71.08-7.44,1.58-.41.85-.2,1.42,1.55.47,2.86-1.55,8.7-.37,10.75,1.28.47.38.45.46.46.91,0,.68.05.72-.88.21-4.91-2.53-9.1-2.23-10.55,1.09-.33-.1-1.61-.32-1.61-.32l1.37,2,.26,2.13c1.36.7,1.77.93,4.06,2a15.12,15.12,0,0,0-1.57-1.31c-1.09-.77-.22-1,.5-.72a7.34,7.34,0,0,0,6.15-.83,3,3,0,0,1,2.59.16s.24,1.86.47,5.75c.11,1.84.34,4.24.46,5.23.39,3,.5,3.15-1.06,1.72a17.85,17.85,0,0,0-1.4-1.23c-.2.92,2.1,2.55,2.63,3.11.81.85,1.46,3,1.14,3.14s-2.39-1.78-4.1-3.46a16.89,16.89,0,0,0-1.63-1.44c-.35.24,1.09,1.88,2.44,3.1,1.57,1.43,1.76,1.56,1.23,1.77-1,.4-1.86-.1-4.23-2.07a7,7,0,0,0-1.17-.79c-.22.29,2,2.38,2.47,2.56.92.33,1.19,1.23.46,1.59-.49.24-2.3-.77-3.75-2a3.09,3.09,0,0,0-1-.56c-.29.19,1.34,1.6,2.89,2.54s1.76,1.15,1.37,1.91-3.69-1-5.36-2.92c-.35-.4-.63-.57-.56-.44.73,2,3.11,3.48,4.89,4.06a3.84,3.84,0,0,1,1,.4c.51.4.39.83-.16,1.06-1.89.54-4.88-1.78-7-4.2-.25-.1-.1.21,0,.32,1.78,2.87,5.19,5,7.25,4.64,1.2-.24,2.17.13,2.18.53s-.65.86-1.95,1c-2.92.21-7.49-3-10.16-7.12-.08-.13-.18-.18-.19-.1-.07.87,1.59,3,2.86,4.22,3.78,3.63,7.36,4.85,10.15,2.81,1.57-1.23,3.09-3.92.75-4.81-1.24-.48-2,1.25-1,.75,1.4-.17,1.71.58,1.53,1.28a1.63,1.63,0,0,1-2.5.89c-1.67-.91-1.32-4,.85-4.59a3.33,3.33,0,0,1,3.88,2.78c.35,2.46-2.41,5.12-4.61,5.78-7.53,2.26-13.41-8.29-13.44-8.53-.38-.73-.83-1.12-1.12-.27-.31,1.24-2,4.86-2.92,4.84.28-1.28,1.47-3.43,1.19-5.32-.5,1.55-1.56,4.85-3.59,6.61-.53.48-2.07,1.05-1-.19,1.28-1.82,3-4.3,2.61-6.63-.34.52-.53,1.85-.92,2.73-1,2.19-3.1,4.79-4.5,5.22-1,.31-.94,0,.12-1.17s3.15-4.76,3-6.28c-.06-.68-2.09,5.84-5.91,7.62a1.68,1.68,0,0,1-1.62-.1c1.5-.87,5.65-5,5.26-9.68l-.55,1.73c-1.41,4.47-4.43,7.41-6.78,7.65-1.88.19-3.19-.57-2.73-.91a6.57,6.57,0,0,0,6-3.23c1.59-2.43,2.18-6.35,1.22-10.49a71.24,71.24,0,0,1-1.36-10.68c2.67.92,5.36,1.53,8,.51-.26,1.07-.7,1.2-1.38,2a1.17,1.17,0,0,0-.23.41,15.7,15.7,0,0,0,2.86-1.73s-.24,1.33-.8,3.52c-.85,3.28-.63,3.52,2.5,4.75a2.15,2.15,0,0,1,1,.7c.1.11.61,1,.66,1.08s.09-1,0-1.21A2.38,2.38,0,0,0,87,60.72a6.38,6.38,0,0,0-2.07-.88c-.85-.4-1.17-.39-1-1.32.11-.61,1-4.74,1.39-6.33,1.23-4.77.07-7.42-3.42-8.49a8.29,8.29,0,0,0-6.82.94l-.43-1.35C81,41.62,90.08,41.23,96,41.19Zm47.66,0,3.41,2.33,0,3-3.44-2.3Zm-40.7.12,1.51.17a63.58,63.58,0,0,1,1.18,8.09c.3,2.93.62,9,.87,11.81.38,4.16,2.24,10.8,3.4,12.48,1.88,2.74,5.67,1,4.4-2.28-.66-1.69-3.2-1.41-2.85.34,0,.31.24-.22.61-.55a1.45,1.45,0,0,1,1.69,2.12c-.8,1.77-3.17,1-4-1.27-.94-2.67,2.23-4.67,4.59-3,2.64,1.81,2.64,6.41.52,7.86-3.57,1.31-6-1.31-7.17-4a42.39,42.39,0,0,1-2.38-6.45c-1.07-8.11-1.28-17.74-2.42-25.29Zm2.5.45,1.57.1a92.18,92.18,0,0,1,1.15,10.75c.08,5.77.78,11.85,2.13,15.84l-1.15,1.22c-2-4.57-2.12-11.78-2.56-16.65A93,93,0,0,0,105.48,41.81Zm2.27.22,1.38.15c.42,3.9,1.06,6.54,1.31,10.83.32,5.55,1.27,10.11,1.86,14.45l-1,.35c-.69.32-1.84-4.8-2.35-15.19-.15-3.14-.68-6.68-1.17-10.59Zm2.08.15,1.65.3a190.37,190.37,0,0,0,3.08,24.44l-1.43.3C111.35,59.62,111.23,50.64,109.83,42.18Zm2.38.35,1.51.26c1.82,22.56,2.94,22.27,3.29,23.15l-1.64.67C113.61,60.13,113.25,51,112.21,42.53Zm2.17.42,1.8.19c-.06,0,1.28,18.5,2.9,21.55-.26.76-.87.69-1.54.77a34,34,0,0,1-1.5-7C115.34,53.17,115.09,48.19,114.37,42.95ZM80.24,44.86c2.38.12,4.35,1.19,4.54,2.77,0,.35-.24.18-.56-.07A7,7,0,0,0,77,46.51c-.61.22-1.11.57-1.39.52a.64.64,0,0,1-.13-.86c.66-1.1,3.55-1.37,4.72-1.31Zm63.48.4,3.44,2.37,0,2.56-3.66-2.47ZM74.51,46s.2,1.41.21,2c.05,2.48-.55,3.85-1.84,4.43-1.56.69-3.56-.79-2.59-2.45.74-1.25,2-.88,2.24.44Zm4.92.8h.5a7.09,7.09,0,0,1,2.31.5c1.8.72,2.46,1.6,2.53,2-.1.29-.28.09-1.6-.62a6.27,6.27,0,0,0-7,.13c-.58.12-.64-.22-.06-.85a5.57,5.57,0,0,1,3.31-1.15Zm16.5,0A11,11,0,0,1,101,48a8.52,8.52,0,0,1,1.8,1c.37.19.4,1,.13,1.1s-.64-.16-1.23-.57C97.91,47,95.18,47.32,93,48.85a1.52,1.52,0,0,1-.65.16c-.42,0-.44-.2-.27-.43a5.48,5.48,0,0,1,3.87-1.77Zm47.55,1.79,3.67,2.58v2.54L143.25,51Zm-66.19,1,.53,0c1.25,3,2.81,1.48,3.46.26l.65.11c-1,4.08-5.17,1.95-4.65-.38Zm20.63.22.43.14c-.11,1.74-3,3.6-4.4,0l.58,0c1.58,2.42,2.49,1,3.39-.07ZM76.38,50c.61.07.59.76.77,1.27.42,1.12-1.18.17-1.46-.1C75.22,50.71,75.89,50.09,76.38,50Zm23,.16a3.14,3.14,0,0,1,.82.25c.86.35.82.61-.14,1-1.53.69-2.06.78-1.61-.19C98.73,50.85,98.9,50.26,99.39,50.2Zm-6.18.32a.23.23,0,0,1,.17.05,1.47,1.47,0,0,1,.68,1.11c0,.36-1.17-.05-1.16-.63,0-.28.15-.51.31-.54Zm-10.42.19c.79.29.69.67.14,1-1,.55-1.4.44-.77-.42C82.46,50.89,82.52,50.71,82.79,50.7ZM143.24,52l4,2.81,0,2.58-4-2.73a10.34,10.34,0,0,1,0-2.67Zm-.11,3.52,4,2.92,0,2.57-3.94-2.73a13.5,13.5,0,0,1-.05-2.76Zm-52.35.32c-.61,0-.51.45.36.78A1.24,1.24,0,0,1,91.4,59c-1.26.86-3.32-1.32-4.83-1.14a1.17,1.17,0,0,0-.77,1.73c.32.58,1.41.94,1.85.55s.53-.41,1.31-.12c2.44.93,4.39-.84,3.81-2.69a2.51,2.51,0,0,0-1.69-1.46h-.3ZM74.61,56c.19,0,.26.63.31,1.55.07,1.53-1.47,3.65-3,4.38-1.88.88-3.88-.36-3.55-2.19S71,58,71.12,59.53c-.23.41.09.75.23.72A5.85,5.85,0,0,0,74,57.31,5.79,5.79,0,0,1,74.52,56a.14.14,0,0,1,.09,0ZM97,58.58a2.39,2.39,0,0,0-2,1c-.3.51-.05,1.42.56.64a1.64,1.64,0,0,1,2.65,1.94c-1.11,1.34-2.48.91-5.37-.2-2.11-.81-2.44-.53-3,.05s-.21,1.45.34,1.44c1.71.39,3.18.77,4.95,1.14,3.73.77,6-4.07,2.6-5.85a1.57,1.57,0,0,0-.74-.15Zm46.38.8L147.12,62l0,2.47-3.62-2.63ZM80,59.63a2.28,2.28,0,0,0-1.49.5c-1.46,1.32-.26,4.77,1.88,5.08A4.61,4.61,0,0,0,82.26,65c1.5-.44,3.15-1.33,3.22-1.85.31-2.37-3.19-.25-3.65,0A2.08,2.08,0,0,1,79,63c-1.32-1.81,1-3.88,2.49-1.67l.24.35a4.23,4.23,0,0,0-.4-1.37A1.54,1.54,0,0,0,80,59.63ZM143.67,63l3.53,2.56.06,2.57-3.71-2.46c.07-.92.09-1.79.11-2.67Zm-19.8,1.48c3.11.05,4.86,4.68,3.22,6.6-.49.57-.88.73-1.1.51a7.87,7.87,0,0,1,.06-1.15,5.43,5.43,0,0,0-1.65-4.56C123.39,64.82,123,64.5,123.87,64.48Zm-30.5.36a3.68,3.68,0,0,0-.64.09,8.06,8.06,0,0,0-3.44.65c-.72.44-.81.56-1.8,0-.73-.43-1.24-.17-1.87.06s-1.21-.26-1.69-.36-.7.13-.89.51c-.63,1.29-.24,1.46.92,1.08.73-.24.9.65,2.69,1a6.7,6.7,0,0,0,3.27-.07c1.4-.37,2.23-1.45,2.94-1.06,1.86.37,1-.78.59-1.77a.11.11,0,0,0-.09-.09ZM121.6,65a2.12,2.12,0,0,1,1.43.51c2.1,1.77,2.64,3.34,2.44,4.63-.1.94-.17,2-1.09,2.54a2.47,2.47,0,0,1-.65.16c.71-2.66-.13-5-3.1-7.59A2.31,2.31,0,0,1,121.6,65Zm-46,.51c.59,0,.56.93.44,1.43s-.52.05-.85-.71C74.93,65.84,75.19,65.53,75.6,65.53Zm43.73.57a3,3,0,0,1,1.6.47c2,1.33,3.09,4.8,1.89,6.77a1.29,1.29,0,0,1-.5.51c-.4.26-.64.46-.73.28s.16-.73.19-.92c.86-4-3-6.74-3.1-6.61A.64.64,0,0,1,119.33,66.11Zm-45.68.17c.77,0,1.06.69,1.19,1.26s0,1.92-.44,1.42a4.52,4.52,0,0,0-.85-1.54c-.74-.57-.67-1.12.1-1.13Zm69.92.16,3.65,2.64V71.9l-3.82-2.59c.09-1,.13-1.93.16-2.87ZM71.49,67a2.33,2.33,0,0,1,.43,0c1.2.2,2.12,2.13,1.84,3.22-.63,1.17-.87.38-1.08-.68a6.51,6.51,0,0,0-1-1.49C71.1,67.34,71,67,71.49,67Zm45.83,0c2.91,0,4.76,4.69,3.42,7-.35.37-1.4,1.13-1.43.78s.19-1.21.24-1.65a6.07,6.07,0,0,0-2.05-4.86C116.3,67.16,116.19,67,117.32,67Zm-48.2.56c1.79,0,3.31,2.1,2.75,4.12s-4.18,1.66-3.6-.44a1,1,0,0,1,1.42-.67c.88.55.78-.34.22-.66a1.56,1.56,0,0,0-2.32.79c-.92,3.44,3.46,4.61,5.84,1.06.87-1.3,1.82-2.69,2.34-3.28s.57-.48.5.21c-.3,3.19-2.51,7.18-6.65,7-4-.39-5.28-4.69-2.24-7.38A3,3,0,0,1,69.12,67.58Zm46,.19a4.93,4.93,0,0,1,3.34,2.83,5.83,5.83,0,0,1-.09,4.86c-.58.37-1.48,1.12-1.74,1s0-.37.18-1a6.24,6.24,0,0,0-1.35-6.24c-.89-1-1.22-1.19-.76-1.38a1,1,0,0,1,.42-.06ZM90.8,68a4.76,4.76,0,0,1-4.26.35c-1.07-.47-1.05,0-.59.46,1.35,1.16,3.8.63,4.84,0,.34-.21.45-.82,0-.8Zm52.5,2.19,3.93,2.7v2.57l-4.08-2.75a11.94,11.94,0,0,1,.14-2.51Zm0,3.55,3.88,2.58.1,2.54-3.77-2.36Zm.27,3.57,3.71,2.58.05,2.78-3.67-2.43ZM53.19,80.2l-2.27,6.91L53.41,89,56,87,53.1,83.62Zm90.54.92,3.57,2.47.05,2.56-3.71-2.59Zm-.15,3.14,3.66,2.67.07,2.72-4.15-2.79ZM61.65,85.81,59.4,93.2,61.85,95l2.33-1.71-2.77-3.74Zm-16.91.55L43.67,90,42.6,93.71l1.32.92,1.32.92,1.34-.92,1.34-.92L44.84,90Zm98.37,1.35,4.3,3,0,2.89-4.17-2.81Zm.29,4,4,2.88,0,2.53-3.62-2.6ZM70.63,95,68,102.49l2.5,1.81,2.59-1.79-2.74-3.75Zm73.39.75,3.35,2.32,0,2.6-3.3-2.23ZM75.21,97.94c.05,1.84.17,20.67.14,20.8-2.31.27-3,1.85-3.17,4a3.49,3.49,0,0,0-3,1.14c-.67-.92-.17-2.28-.7-3.24-1.6,5.64,1.51,9,4.22,8.69.44,5.41,6.35,6.39,6.15-.17,7.15-.42,4.73-7.05-.11-6.18a3.91,3.91,0,0,0-2.7-4.17s-.21-18.13-.18-18.67c0,.08-.32-2-.35-2.08l-.3-.08ZM144,99.24l3.28,2.35,0,1.13-3.27-.07Zm-98.9.95-2.59,7.32,2.94,1.4,2.44-2.27L45,103.41ZM147.34,107c-7.21.34-13.69.85-13.44,10.7-1,4.18.72,7.91,5.75,6.76,1.1-1,.38-2.43.24-3.12a8.6,8.6,0,0,1,.2-4c.43-2.76,2.43-5.31,2.65-1,.35-.54.19-.62.76-.85,1.38-.5,1.38.91,1.1,1.47-.18.29-.46.27-.74.23s-.93-.2-.94-.35c-.11.45.73,1.28.64,1.7s-.18.37.19.1c1.73-1.25,2.82,1.54.31,1.22,1.24.67-.59,2.61.68,3.61,3.89.3,6.79-2.37,5.55-4.28,1.45-3.9.56-7.93-1.53-9.64-.32-.38.74-.75,1.15-1.41C148.68,108.43,148,107.8,147.34,107Zm-4.31,1.4c.67,0,.84.13.79.67.26,1.34.59,2,2.32,1.81s2.29-.34.54.72a3.42,3.42,0,0,1-2.22.37c-1.06-.1-1-.2-1.58.16a3.74,3.74,0,0,1-1,.5c-.41.07-1.12.23-1.12.23a7.93,7.93,0,0,1-1.88,4.1c-1.21,1.38-1.82,1.62-.34,1.52.55,0,.26-.24.5,2a11.82,11.82,0,0,0,.34,2c.38,1,.44,1.53-1,1.6-3.65.28-4.5-3.3-4-5.13a12.2,12.2,0,0,0,.19-3.18c.08-3.41.89-4.31,3.89-6.52a7.07,7.07,0,0,1,3.74-.82l.84,0Zm2.36.22c1.68,0,3.31.78,2.5,1.31a4.18,4.18,0,0,1-2.94-.18C144.27,109.21,144.53,108.58,145.4,108.57Zm3.64,2.34a1.24,1.24,0,0,1,.86,1.84c-.61,1.36-4.69,2-4.69,2a3.12,3.12,0,0,0-.37-1.8,13.9,13.9,0,0,0,3.29-1.24C148.5,111.37,148.74,110.92,149,110.91Zm-78.72.55-.67,1.19c.23,1.44-.91,4.8-.91,4.8l-.07,1.87,1.78,1.82,2.81-1.86-3-3.92Zm73.26,1.75a.91.91,0,0,1,.86.69c.06,1.24-1.58,1-1.64.18a.85.85,0,0,1,.77-.87Zm6.26.79c.4,0,.61.29.71.88a1.19,1.19,0,0,1-.32.93,7,7,0,0,1-5,1.63,10.13,10.13,0,0,1,.18-1.83C146.82,115.65,149.18,114.4,149.84,114Zm-48.52,2a2.37,2.37,0,0,1,2.12,1.46,3.09,3.09,0,0,1,0,2,.86.86,0,0,1-.53.6l-1.79-1.54-1.75,1.64a2.52,2.52,0,0,1-.48-2.6,2.62,2.62,0,0,1,2.4-1.51Zm48.41,1.21c1.15-.07.55,1.26-1.14,2.16a3.07,3.07,0,0,1-2.33.52,1.93,1.93,0,0,1,.1-1.45A30.09,30.09,0,0,1,149.73,117.21Zm-74,2.5a2.36,2.36,0,0,1,2.42,2.5,3.14,3.14,0,0,1-.32,1.31l-2.13-1.58L74,123.69c-.28.1-1.27-1.15-.59-2.52a2.54,2.54,0,0,1,2.24-1.47Zm73.73.08c.31,0,.39.12.48.41.25.82-.39,1.65-1.49,1.92s-.92.36-1.4-.56c-.38-.72-.48-.69.11-.92S148.59,120.14,149.41,119.79Zm-43.85.51a1.93,1.93,0,0,1,.88.15,2.43,2.43,0,0,1,.36,4.31c-.83.46-2.13.72-2.74-.22l1.76-1.93-2-1.71A3,3,0,0,1,105.56,120.3Zm-8.25.32c.74,0,1.32.29,1.19.41s-1.27,1.3-1.83,1.84l1.91,2c.09.24-2.2,1.29-3.41-.29a2.76,2.76,0,0,1,.77-3.65A2.54,2.54,0,0,1,97.31,120.62Zm3.66.33a2.11,2.11,0,0,1,2.34,1.88c-.27,2.94-4,2.23-4.09.06a1.92,1.92,0,0,1,1.75-1.94Zm44.58,0a1,1,0,0,1,1,.92c0,.78-.88,1-1.57.6a.81.81,0,0,1-.28-1.23A1.28,1.28,0,0,1,145.55,121Zm-44.3,1.51a.42.42,0,0,0-.42.42h0a.42.42,0,1,0,.42-.42Zm-21,1.08a1.72,1.72,0,0,1,.81.16A2.47,2.47,0,1,1,78.64,128l1.8-2-1.91-1.85a2.73,2.73,0,0,1,1.73-.59Zm-8.35.26a2.59,2.59,0,0,1,1.41.46l-1.83,1.93,2,2.17a10.08,10.08,0,0,1-2.13.15c-2.7-.51-2.43-3.7-.35-4.54A2.77,2.77,0,0,1,71.91,123.81Zm4.05.45a2,2,0,1,1-1.94,2,2,2,0,0,1,1.94-2Zm-36.88.4a8.84,8.84,0,0,0-1.74.26s.36,4.1.69,5.5c-.22,1.6-1.24,2.68-1.7,4.32-.25.73-1.17,1.71-1.35.68-.67-1.27,0-2.84-.58-3.74s-.2-1.33-.38-2.21c-.52-.73-.76-1.06-.68-1.71-.11-2.9-.83-2.32-2.1-2.09-4.95.43-4.95,3.3-4.64,6.95-.7,3.42.59,2.61.55,3.22-.07,1,.09,2.34.38,2.49,1.76,2,1.85,3.45,4.15,3.1,3.88.31,10.06-.28,11.39-5,.75-6.1,1-11.92-4-11.72Zm0,.65a3.14,3.14,0,0,1,2.31.83c1.52,1.47,1.19,2.78.91,8.48-.16,3.37-3.05,5.11-6.28,5.89a7.77,7.77,0,0,1-2,.2c-.58,0-.91-.27-1-.76.13-1.32-1.21-1.45-2-1.37-1.38.06-1.52.2-.66-.47s3.25-.78,3.68-.33A4.28,4.28,0,0,1,37,136.64a2.5,2.5,0,0,1-.3-1.87c.58-1,1.57-2.86,2.6-3.55,1-1.34.15-.74-.48-.71-.36,0-.33-.11-.39-.35a22.56,22.56,0,0,1-.62-4.17C37.79,125.42,38.31,125.32,39,125.31Zm64.12.19a2.45,2.45,0,0,1-1.79,4.1,2.58,2.58,0,0,1-2.4-3.48c.34-.48.49-.41.49-.41l1.88,1.7ZM76,125.86a.42.42,0,0,0-.42.42h0a.42.42,0,0,0,.85,0h0a.42.42,0,0,0-.42-.42Zm-44.09.7a.89.89,0,0,1,.66.2.77.77,0,0,1,0,1.23.88.88,0,0,1-1.45-.61.87.87,0,0,1,.82-.82Zm-1.79.13a.68.68,0,0,1,.43.15,3.21,3.21,0,0,0,.07,1.29c-.33.24-1.72.65-2.47,1a.65.65,0,0,1-.83-.76c.2-.84,1.42-1.39,2.31-1.65a1.76,1.76,0,0,1,.49,0Zm76.55,1.65-2.53,1.51,2.73,3.82-.27,3.81,1.14-3c.36-.94,1-4.16,1-4.16Zm-28.85.52c1.25,2.8-.19,4.08-1.72,4-1.68,0-3.48-1.65-1.91-3.93l2,1.61Zm-47,.38c.5-.06.35,1,.17,1.61-.19.4-.74.39-1.24.42-.88.05-2,1.08-2.47.91-.16-.07-.27-.5-.29-.76.1-1.48,2.54-2,3.83-2.18Zm1.71.06a1,1,0,0,1,1,1.48,1.17,1.17,0,0,1-1.16.24.92.92,0,0,1-.21-1.64A1.51,1.51,0,0,1,32.54,129.29Zm-1.11,2.58c.48.09.24,1.57.16,1.62a8.9,8.9,0,0,0-2.81,1c-1.53,1.21-2.18.47-1.47-1,.67-.84,3.13-1.61,4-1.62h.11Zm1.84.08a.89.89,0,0,1,.74,1.42.92.92,0,0,1-1.55-.61A.82.82,0,0,1,33.27,132Zm-1.57,2.43c.7,0,0,1.08.57,1.84.09.39,0,.27-.76.48a11.21,11.21,0,0,0-1.66.71c-.95.48-1.21.74-1.55.69s-.58-.18-.66-.45c-.33-1.09.55-2.2,2.6-3A8,8,0,0,1,31.7,134.38Zm1.78.21c1,0,1.18,1.31.44,1.54C32.18,136.58,32.32,134.59,33.48,134.59Zm-2.59,4.68h0c.68,0,1.15,0,1.37.2a.61.61,0,0,1,0,.94c-.57.28-2.77,0-2.78-.58,0-.41.73-.55,1.41-.56Zm100.87.27L130,142l-.41.55,2.52,2-.09,4.13,2.22-7.42ZM25.55,143.64a7.25,7.25,0,0,0,3.47,2.8c.42,18.88.35,62.14.35,62.14l5.33,3.65,5.61-4.06c-.06-13.62-.11-23-.17-35.62l8.22,4.55a4.33,4.33,0,0,1,.22,2.07c-.57,4.7,3.94,7.76,6.94,5.9,1.16-.49,1.25-.58,1.49-.21.67,1,1.43,5.35,1.56,8.11.19,4.17,1.28,12.66,1.54,12.72L46.74,228.45H25.55Zm81.14,1-2.21,1.54,2.56,4-.44,4,2.57-7.73ZM39.2,145.74l.47,61.9s-2.6,1.88-3.44,2.43c-.44.17-.65.2-.75-.23a14,14,0,0,1,.26-3.12,11.38,11.38,0,0,0-.08-3.72,19.25,19.25,0,0,1-.08-5.27,48.08,48.08,0,0,0,0-8.45,55.75,55.75,0,0,1-.05-8.55,30.48,30.48,0,0,0-.23-7.62c-.68-3.78-.79-5.09-.08-7.94a10,10,0,0,0,.34-3.42,42.57,42.57,0,0,0-.8-7c-.41-2.53-.44-2.88-.06-6.88.08-.81.1-1.35.41-1.6s4.07-.52,4.07-.52Zm-5.25.73a14.63,14.63,0,0,0-.41,3.17l-3.59-2.38,0-.75Zm-4,1.68,3.56,2.34a21.06,21.06,0,0,0,.07,2.92L30,151Zm0,3.71,3.81,2.63c.15,1,.46,2.05.58,3L30,154.52Zm123.14,1,.2,75.56H115.4l-12-23.26a21.46,21.46,0,0,1,.42-3.23c.36-1.32.46-1.61,1-1.67a2.52,2.52,0,0,0,3.31-1.26c.57-1.27-.58-3.19-2.34-3.6a3.05,3.05,0,0,0-2.48.82c-.5.42-.61.47-.71.1-.22-.82.5-3.05,1.79-5,.72-1.07.91-1.37,1.15-1a2.31,2.31,0,0,0,3.73.37,2.86,2.86,0,0,0-1.37-4.35c-4.11-1.33-6,2.83-5.94,2.82l-.88-5c4.95-1.22,7.8-1.65,9.37-3.16a6.55,6.55,0,0,0,1.67-5.08s13.74-5.63,20.17-9.12A154.52,154.52,0,0,0,153.11,152.9Zm-20.92.55-2.46,1.8,3,3.8,0,3.8,2.23-7.94Zm-16.92,1.25L112.94,156l2.73,3.77-.27,3.77c.75-2.18,2.16-7.31,2.16-7.31Zm-85.12.93,4.36,3a12.9,12.9,0,0,1,.09,3L30,158.58Zm-.08,3.87,4.51,3a5.64,5.64,0,0,1-.26,2.47l-4.26-2.76Zm93.87.33-2.76,2,2.81,3.61-.19,3.61,2.85-7.15ZM30.08,163l3.91,2.9c.06,0-.22,1.32-.16,2l-3.72-2.31Zm.11,3.58,3.65,2.53a15.69,15.69,0,0,0,.22,2.67l-4-2.59Zm-.06,3.65,4.22,3,.22,2.43-4.47-2.83Zm33.47.86a3.07,3.07,0,0,1,1.27.16c4,1.52,7.85,9.28,7.73,19.33-.08,7,2,16.94,2,16.82s-1.17.16-1.51-.11a65.62,65.62,0,0,1-2.27-15,81.44,81.44,0,0,0-.64-8.23c-.67-3-1.39-6.51-3.29-8.79-1.48-1.72-3.17-2-4.19-.09-.83,1.58.92,4.2,2.36,3.33.35-.2.56-.53.1-.52a1.81,1.81,0,0,1-1.56-2.87c1.67-1.76,4.6,2.16,3.24,4.32-.6.93-2.16,1.1-3.42.75a5.44,5.44,0,0,1-2.55-6.87A3.44,3.44,0,0,1,63.59,171.1ZM60,172.26c.32-.08.1.63-.2,1.58-.72,2.29.63,5.84,2.49,6.55.56.38.53.53.16.74-1.22.69-3.42-1.38-4-3.68-.42-1.66-.32-3.63.48-4.46a1.93,1.93,0,0,1,1.08-.73Zm-2.69,1.31c.33,0,.21.55.12,1.58a6.05,6.05,0,0,0,2.19,5.56c.71.61.9.8.59,1.12s-1.67-.15-2.63-1.17c-1.77-1.86-2.36-5.38-1-6.66a1.34,1.34,0,0,1,.71-.43Zm-27.19,0,4.51,3a8.14,8.14,0,0,1,0,2.91l-4.51-3.17Zm77.31.38c1.93-.08,3.55.68,3.73,3,.26,3.47-2.95,5.37-5.19,3.38-2-2,0-5.14,2.35-3.67,1.17.74-.23,2.44-1.17,1.56-.43-.4-.61-.15-.31.31.92,1.38,2.72.23,2.59-1-.25-2.39-3.16-2.36-4.26-1.42a25.79,25.79,0,0,0-3.8,4.54c-.81,1.19-1,1.16-.86-.31A7.35,7.35,0,0,1,107.39,174ZM55,174.75c.31,0,.18.43.21,1.57a6.84,6.84,0,0,0,2.91,5.78c.52.58-.15,1-1.13.71-2.24-.69-4.52-5.54-2.62-7.62C54.58,174.91,54.79,174.75,55,174.75Zm-2.17,1c.31,0,.13.63.16,1.85.06,2.58.85,3.81,2.75,5.38.62.51.7.45.45.74-.65.76-2.86-.31-3.8-1.86-1.12-1.84-1.28-4.61-.24-5.65C52.4,175.88,52.62,175.72,52.78,175.71Zm-2.16,1.24c.26,0,.11.47.15,1.58.1,2.7.71,4,2.4,5.28,1.07.78,1.33.55,1,.86-.57.54-2.14.08-3.31-.92-1.76-1.5-2.25-5.18-.82-6.45.25-.23.44-.35.57-.35Zm-20.46.38,4.33,3-.12,2.55L30.06,180Zm73.83,1.2c.1,0,.21.13.32.37.26,1,.93,2.4,1.84,2.67.37.11.06.62-.28.55a2.58,2.58,0,0,1-2.22-3.1C103.69,178.72,103.82,178.49,104,178.53Zm-36,.58c2,5,2,10.56,2.28,15.76.44,6.92,1.65,11.58,2.05,12.37,0,0-1.94,0-2-.26,0,0-1.83-9.18-1.56-13.72a42.79,42.79,0,0,0-1.56-11.55c-.63-1.78-.66-.6.82-2.6Zm20.92.46c-.9,0-2.74.51-2.73.84,0,.15.6.28,1.54.05a5.88,5.88,0,0,1,2.88,0c.85.24.95,0,.18-.38a3.92,3.92,0,0,0-1.87-.53Zm13.69.75c.13,0,.29.11.45.42a7.52,7.52,0,0,0,.7.94c.54.63.69.63.44.89-.56.59-1.74-.26-1.87-1.35C102.23,180.71,102.36,180.33,102.57,180.31Zm-36.85.64c1.95,2.79,2.23,9.35,2.27,14a70.69,70.69,0,0,0,1.56,11.85,1.69,1.69,0,0,1-1.45,0c-.5-.66-.81-2.5-1.39-7.48-.15-1.29-.44-5.38-.51-8.67-.06-2.91-1.67-9.2-1.67-9.2a2.58,2.58,0,0,1,1.18-.46Zm23.41,0a7.74,7.74,0,0,0-2.09.31c-2,.32-2.07.84-2.53.54a4,4,0,0,0-1.11-.61c-.2,0-.13.68,0,2,.14,1.75.34.59,1,.28.49,0,.82-.5,1.73-.16,1.16.43,1.05.18,1.87-.23.5-.25.9-.33,1.14-.14a2.22,2.22,0,0,0,2.87.11c.54-.28,1.23.77,1.68.81.66.06.46-.54.54-1.38s-.21-.81-1-.56-1.64-.39-2.31-.64A5.4,5.4,0,0,0,89.13,181Zm-59,.1,4.17,2.75c-.06.94-.07,1.88-.06,2.82l-4.08-2.91Zm33.42.57c1.77,4,2.06,7.95,2.14,12.75a88.55,88.55,0,0,0,1.46,12.22c-.6.06-1.23.11-1.48-.16-1-3.32-1.31-8.85-1.6-12.83-.35-5.6-.44-7-1.22-9.78-.45-1.58-.6-1.55-.27-1.86a1.7,1.7,0,0,1,1-.34Zm38.11.05c.12,0,.22.27.42.53.45.59.58.87.21.92-1,.15-1.25,0-1.21-.58s.14-.7.46-.86A.15.15,0,0,1,101.66,181.7Zm-40.2.89c1.47,1.49,1.84,9.84,2,11.64.53,9.74,1.45,11.14,1,11.87-.55,0-.75.2-1.11-.29-1.25-3.57-1.18-7.24-1.38-11a44.22,44.22,0,0,0-1.46-10c-.46-1.62-.45-1.65.37-2.1A1.6,1.6,0,0,1,61.47,182.59Zm-2.55,1a1.27,1.27,0,0,1,.57.13A46,46,0,0,1,61.18,195a88.06,88.06,0,0,0,1.15,10.94,1.55,1.55,0,0,1-1.43-.47c-1.6-7.11-1.09-14-2.94-21.15A1.06,1.06,0,0,1,58.92,183.64Zm37.65.21a4.53,4.53,0,0,0-2.17.46c-2.44,1-3.07,1.74-2.69,2.43s1.29.38,3.89-.72c1.94-.82,2.55-.46,2.95.77,0,1.82-1.76,2-2.76,1.78a2.2,2.2,0,0,1-.34-.12,1.42,1.42,0,0,0,.43.71c2,1.66,4.48-1.52,3.25-3.49A3.11,3.11,0,0,0,96.57,183.85ZM81,184.43a2.71,2.71,0,0,0-1.87.61c-2,1.59-1.29,4.46.38,4.89a1.67,1.67,0,0,0,1.43-.06c.25-.17.25-.44-.27-.53-1.55-.26-2.44-1.41-1.69-2.58s2.08-.91,4.68.21c2.25,1,3.23.67,3.5-.5.12-.52,0-1-1.1-1C84,185.38,82.38,184.48,81,184.43Zm-50.77.21,4.32,3.12.09,2.67-4.41-3.15ZM106.62,187a2.17,2.17,0,0,1,2.28,1.91,1.46,1.46,0,1,1-2.88.5c-.13-.83-1.46,0-2.35,1.48s-1,1.65-1.14.15c-.26-2.23,2-4,3.46-4A3.75,3.75,0,0,1,106.62,187Zm-76.53,1.1,4.58,3.17a17.92,17.92,0,0,1,.06,2.61l-4.6-3Zm60,.76a1.15,1.15,0,0,0-.44.13,1.49,1.49,0,0,1-1.29.15,5.38,5.38,0,0,0-3.36,0,2.3,2.3,0,0,0,.57,4.12c1.47.29,1.57-.74.11-1a1.15,1.15,0,0,1-.68-1.63c.7-1.15,2-.4,2.73,0,1.66.8,2.52,1.09,3,.54.82-.86.28-2.3-.69-2.23Zm-60,3,4.5,3.11-.14,2.75-4.22-3.12Zm.09,3.77,4.23,3a16.48,16.48,0,0,0,0,2.36l-4.28-2.79Zm74.85.58c3.39.33,2.27,4.27-.1,3.21-.63-.48-.82-.44-1.52,1.28-.9,2.21-1.12,2-1-.52S103.69,196.26,105.08,196.24Zm-7.75.43c.93,0,1.88.87,2.62,2.66l-1,.06c-.92-2.23-2.23-2.57-3.33-.36l-.8-.23C95.49,197.4,96.4,196.64,97.33,196.68Zm-2.51.12c.53,0,.46.21-.09,1s-.59.76-1.07.4C92.88,197.57,94.19,196.83,94.82,196.79Zm-14.07,0c.86,0,1.68.55,2.11,2.07l-.61.09c-.92-2.06-2.82-1.59-3.41.32l-.84-.1A3.43,3.43,0,0,1,80.75,196.8Zm-2.42,0a.31.31,0,0,1,.18,0c.23.26-.46,1.29-1,1.89-.43.28-1.48-.48-1.22-.86A4.76,4.76,0,0,1,78.34,196.84Zm21.35,0a1.87,1.87,0,0,1,.35,0c1.06.26,1.54.77,1,1.42-.32.4-.64.56-.85.29C99.5,197.43,99.1,196.82,99.69,196.86Zm-16.65.4a.68.68,0,0,1,.67.3c.11.44-.24.76-.62.39a.84.84,0,0,1-.28-.59A.4.4,0,0,1,83,197.26Zm-52.85,1.82,4.35,3.15a19.05,19.05,0,0,1,.17,2.71l-4.48-3Zm62.13.31a3.54,3.54,0,0,1,1.31.65c2.51,1.73,5.45,1.71,7.28.19.41-.34.77-.35.78,0-.26,1.21-3.46,2.77-6,1.89a6.12,6.12,0,0,1-3.4-2.26c-.2-.32-.17-.44,0-.44Zm.11,1.48h.14c3.66,3.19,6.58,2.3,8.78.69.33-.08.33.21.4.76.09.7-.49,1.05-2.07,1.53-3.07.93-6.67-.09-7.32-2.16-.07-.36-.19-.81.07-.84Zm-62.26,1.92,4.41,3-.14,2.33-4.3-2.93Zm.07,3.57,4.17,2.85v1.93l-4.05-2.91Zm73,.84,10.95,21.65-66,.09c4.31-7,7.89-14.73,12.31-21.67C78.26,211.32,90.86,209.39,103.22,207.19Z" style="fill: #131f67"/>
    <path d="M62.15,20c1.9,3.29,3.4,6.7,5.11,10.07l.27.18.41.78,0,.38,1,1.64v.35l4.3,8.07c3.55-1.34,32.72-3.74,43.52.19L118.39,39h.38l2.77-4.9,0-.41.93-1.07.14-.49,3.06-4.83v-.78l3.83-6.43Zm66,.93s-2,3.87-3,5.43c-.83-.66-3.25-.21-3.1,2.35-3.93-1.5-4.88,3.23-1.84,4.29-1.56,1.37-3.05-.18-4.24-1.23-1.16.29-3.56,1.15-4.92-1.38,0,0,.57.31,1.14.65,3.22,1,3.48-3.39,1.08-4.11a5.87,5.87,0,0,0-.87-.11c.8-3.37-4.36-4.54-4.46-.5a3.8,3.8,0,0,0-1.08,0c-2.74.5-2.11,4.57.69,4.38a3.07,3.07,0,0,1,.73,0c0,.65-3.43,1.9-5.87-.34-1.16.89-3,2-5.38-.21,1.57-.06,3.08-.51,3.06-2.31a2.47,2.47,0,0,0-2.56-2.27A2.76,2.76,0,0,0,95.24,23a2.49,2.49,0,0,0-2.32,2.65,2.37,2.37,0,0,0-2.24,2.62c.38,1.81,1.76,2,3.34,1.69-1.92,3.11-5,1.49-6,.5-1.15,1.08-3.15,2.54-5.61.54,1.31-.23,2.77-1,2.53-2.85a2.35,2.35,0,0,0-2.52-1.81A2.29,2.29,0,0,0,80,23.93c-1.85.18-1.74,2.54-1.72,2.56a2.28,2.28,0,0,0-2.21,2.85c.53,1.41,1.64,1.85,3.69,1.47-2.39,2.26-3.9,1.38-5.2.91a3.08,3.08,0,0,1-4.27.53c3.53.17,3-6.12-1.22-3.84-3-3.53-2.92-2-5.59-7.16Zm-32.9,6.2a1.06,1.06,0,0,1,.53.12c.55.28.66.78.32,1.51a1.75,1.75,0,0,0-.26.82c3.89,7.23,12.46,4,13.27.64a1.06,1.06,0,0,0-.16-.67,1,1,0,0,1,.14-1.38,1.06,1.06,0,0,1,1.69,1.23,1.33,1.33,0,0,0-.18,1c2.2,5,6.58,5.42,10.26,3.42-1.69,3.06-8.26,4.93-11-2.43-4.4,6-11.38,5.88-14.55-.89-2.85,6.93-11.45,7.09-14.58,1.34-2.85,6.58-9.46,5.09-11.33,1,6.14,4.48,10.18-.2,10.91-2.19a2.58,2.58,0,0,0-.34-.43c-.79-.78-.76-1.69,0-2.05a1.11,1.11,0,0,1,1.48,1.53c-.15.28-.28.34-.18.58,1.91,4.49,11.32,5.79,13.22-.5a1.38,1.38,0,0,0-.13-1A1.08,1.08,0,0,1,95.28,27.17ZM67.82,29.71c1.48.08,1.07,1.37.77,1.47Zm55.1.8s-.91,1.67-.91,1.67C121.52,31.39,121.65,30.41,122.92,30.51Zm-5,8.3a12,12,0,0,1-1.26,2.29c-17.58-4.54-42.1-.59-42.7-.16l-1.08-2C88.27,35.79,103.64,36.45,117.91,38.81ZM88.22,70.2c-1.7,6.6-5.81,7.27-10.77,8.07-6.15,1-10.15-1.26-12-4.71,0,0-8.79,3.35-12,5.29,6.67,3.08,15.48,9.9,20.49,17.64,1.78,2.36,1.69,1.83,1.69,7,0,11.23,0,15.41,0,15.41,2.75.42,2.9,2.32,2.75,4.47,2.21-1,4.33.22,4.32,2.32,0,3.86-3.78,2.81-4.56,2.39,1.22,3.4-.21,4.81-1.68,5-1.81.21-3.88-.67-3.28-4.57-4.48,1.08-4.7-3.2-4.91-6.95,4.88-9.25-1.25-16.77-7-19.24,0,0,1.63-3.39,3.73-4.34.21-.07-1.28-2.27-3.78-1.79-1.15,0-.88,0-2-1.4-2.14-2.8-3.15-3-5.24,0-.92,1.32-1.14,1.36-2.23,1.38s-3,.89-3.43,1.67c-.09.18.38.36,1,1.09.9,1.06,2.28,2.51,2.06,4-4.73,1.94-12.58,10.46-4.33,21.36l-6,.08-.28-38.82L36.7,87.86l.18,30.41-1.18-.4c.09-9.7-.05-19.39-.36-29.09l-10.95,8,.49,45.6,1.16.25c.86,6.21,13.07,1.87,13.78,2.41L40,170.42l-.53,1.26L49.16,177l8.91-4.66a8.48,8.48,0,0,0,1.65-.46c3.69-2,6.45-1.52,8.46,1.36,1.24,1.78,1.45,2,1.45,2,.75-5.12,5.26-7,9.63-5.67,3.22,1,7.61,4.21,9,8.16a3.86,3.86,0,0,0,.48.86l.18.08c0-.1-.21-.59-.29-.83-4.51-10.44-17.21-12-19.17-3.51l-1.8-2.54L77.07,166,90,174.57s-.61,3-.68,4.32l.22.1a11.64,11.64,0,0,1,1.3-4.72,4.71,4.71,0,0,1,1.06-1.33c.77-.45,1.49-.41,2.27-1.15l-1.89-1.42,0-4.56L96,171.16c1.19-.28,5.84-1.68,8.6-.13.31.1,4.35-1.06,6.87,4.62,4.45-1.89,9.4-3.86,12.9-5.63-12.08-4.49-24.28-20.41-23.11-20.66,0,0,0-1.63.06-5.64.1-4.46,0-9,.12-13.5-4.11-1.32-3.09-4.66-3.09-4.66-2.47.55-2.87.06-3.49-.38L94.47,121a4,4,0,0,1,4.21-1,4.13,4.13,0,0,1-.08-3.35,3,3,0,0,1,3.94-1.11,3.4,3.4,0,0,1,1,4.29l0,.06a3.61,3.61,0,0,1,4.9,2,107.23,107.23,0,0,1,1.93-17.14,97.73,97.73,0,0,1,9.86-25.9c1.14-1.94,2.29-3.41,3.33-5.35a10.18,10.18,0,0,1-1.9.79,11.53,11.53,0,0,0-2.62.91,14.39,14.39,0,0,1-3.48,2c-3.88,1.52-6.49-.75-8.1-4.22-.9,4.4-4.9,8.13-10.8,5.81-3.34-1.78-4.38-2.93-7.5-7.58a4.62,4.62,0,0,0-.94-1Zm.13.72c2.21,4.4,5.51,7.52,8.72,8.76a8,8,0,0,0,10.59-5.21l1.11,1.89-8.68,6.22L87,74.19a23,23,0,0,0,1.37-3.26Zm39.43.3-3.89,2.31s-2.58,4.2-3.45,5.79a89.43,89.43,0,0,0-9.72,25.59,100.9,100.9,0,0,0-2,22.24l.3.33s-.48.84-.82,1.55a9.56,9.56,0,0,0-1.1,5.26,13.89,13.89,0,0,0,7.63,12.09l.58.26a11.69,11.69,0,0,1-2.12,3.5c-.91,1-1.11,1-.78,1.48.45.66,1.89,1.23,3.69,1.21.64,0,.63,0,1.81,1.28,2.29,2.52,3,2.47,5.07-.39a2,2,0,0,1,1.88-1.07c1.33,0,3.77-1.12,3.76-1.62-1.64-.73-3.54-4.51-3.24-4.55,9-4.79,10.88-14.71,4.32-22l6.26-.1.23,39.59c1.23-.82,4-2.58,4-2.58l-.09-30.8a15.17,15.17,0,0,0,1.71.53l.25,29.33s8-5.72,11.87-8.7l-.23-44.89h-.91l.15,44.86-10.63,7.82-.07-27.88,1.15-.17c3.11-.44,4.55-4.44,2.49-7-.73-.93-.21-.86,1.35-1.16,2.76-.25,4.29-2.35,3.49-3.85-.34-.64.1-.57.4-1.19a3,3,0,0,0,.07-1.55,1.94,1.94,0,0,1,.3-1.29,2.07,2.07,0,0,0-.4-1.9,2.6,2.6,0,0,1-.32-1.68c0-.91-.35-1-1.3-1.92-.72-.67-.14-.81.92-1.36,1.68-.87,1.79-3.95-.44-5.26-2.79-1.15-7.16.1-11.94.58,0,0,0-17.55-.14-26.6Zm0,.62s9.54,5.63,9.47,5.79C134,82.06,122.09,99.69,122,121c-8.77-1.11-12.36,5.8-12.78,5.77A87.34,87.34,0,0,1,124,74.09Zm-6.28,2.87,0,1.44-1.91,3.06L119.53,76Zm-2.66,1.56.07,4.59-3.87,3-.11-4.79ZM82.92,77.32l2,1.39-.07,4.55-3-5.5Zm54.51,1.53,0,3.29c-7.64,10.86-11.65,23.27-12.87,39l-1.86-.06A74.73,74.73,0,0,1,137.43,78.86Zm-51.74.34,4.71,3.1-.2,5.19-4.28-2.77-.4-1.06Zm28.53.22,0,4.83L110.56,87l-.17-4.79ZM70.1,80.68c.54,0,1,.4,1.07,1.15.4,3.21,2.82,2.28,3.4,3.25.22.33-.3.61-2,.48-3-.23-5.26-2.71-3.7-4.34A1.78,1.78,0,0,1,70.1,80.68Zm21,2.07,4,2.58v5.33l-3.94-2.43Zm18.36,0,.31,4.72-4.41,3-.16-4.69Zm8.38,0-2.53,5.43-14.76,10.7-12.25-8L86,85.68l14.29,9.4Zm-39.8,2.15c3.92,0,6.93,4.15,8,7.82.75,2.43.86,3.31.94,7.17s.2,4.61.93,5.17c.45.34.58.25.64-.45.13-1.54,2-.59,2,1,0,1.81-1.94,2.39-3.4,1-.78-.74-.79-.73-1,.72-.16,1-1.29,7.07,1.59,8.58.54.05.67-.39.27-.9-.81-1,.8-2.2,2.12-1.55,1.59.79,1.43,3.37-.27,4.28-1.94,1-4.45-.14-5.62-2.67-.86-1.85-.86-4.43,0-8.25a25,25,0,0,0,.67-4.23A10.52,10.52,0,0,1,85,101.6c.09-.41-.11-.43-.8-.08-1.9,1-4,.28-4.48-1.48-.61-2.11,1.72-4.29,3.16-3,.55.51.48,1-.17,1.33-1.13.56-.75,2,.46,1.75,4-1.2.34-12.41-4.12-13.19-3-.51-5.27,2.88-3.13,4.69.84.71,1.69.33,1.5-.67-.25-1.4,1.59-1.25,2.27.19,1.11,2.33-1.76,4.23-4.43,2.94C70.42,91.25,73.71,85,78.06,84.94Zm17.78.89,4,2.68,0,5.2L95.9,91.36Zm8.71.45,0,4.78-3.82,2.8V88.77Zm10.28,3.13-2,5.48-12.32,8.49L90.39,97l-1.75-5.07,12,7.82Zm-80,.4v27.76c-4,.17-6.28,4.15-3.29,7.91l-1.13.16c-2.7.37-4.51,1.82-4.15,3.57a2.12,2.12,0,0,1-.15,1.34,2.2,2.2,0,0,0,.15,1.89,1,1,0,0,1,.07,1,2,2,0,0,0,.13,2c.44.44.32.79.26,1.5-.07,1,.11,1.39.73,1.78.8.5,1.1,1.31.19,1.25-.45,0-2,1.51-2,1.51l-.15-44.55Zm21.65,3.56c.71,0,1.45.9,2.51,2.43.64,1.09.65.95,2.11.89a4.15,4.15,0,0,1,2.79,1c.15.17-.24.22-1.19,1.18A9.4,9.4,0,0,0,61,101.35a.57.57,0,0,1-1,.07c-.19-.3.3-1.27,1.23-2.41,1.31-1.27,1-1.4-.87-1.2-1.34.14-1.48.07-2-.74-1.51-3-2.32-2.93-3.77.09-.4.85-.24.79-2,.66-1.35-.1-1.68.24-.92,1A6,6,0,0,1,53.31,102l-.92.09a9.14,9.14,0,0,1-.4-.85,8.88,8.88,0,0,0-1.65-2.46c-1-1.12-.46-1.73,1.83-2,1.28-.14,1.31-.16,1.9-1C55.11,94.28,55.8,93.37,56.52,93.37Zm55.89,2.76-1.33,4.74-10.51,7.43L92,102.55l-1.13-4.45,9.82,6.27ZM76.17,99.88a72.24,72.24,0,0,1,4.14,9.83c1,3.36,2.29,13.1,1.94,13.7-.75-1-3.21-.8-3.25-.79a3.76,3.76,0,0,0-2.81-3.89Zm34.58,2.18-1,4.66-8.95,6.52-7.38-5.08-1-4.51,8.17,5.5Zm-52,.26,1.16.41.22,8.42,9,1.5.2,1.44-10.37-1.69C58.78,108.82,58.72,102.33,58.72,102.33Zm-4.54.25.25,9.79c-.1,0-7.46,1-10.28,1.77l.17-1.34s5.12-1.12,8.83-1.55c0-2.74,0-5.62,0-8.41Zm83.29,1.8a16.17,16.17,0,0,0,3.82-.35c6.72-1.19,8.54-.7,9.4,1.38.94,3.24-2.58,3.32-3.21,1.26-.4-1.33-1.84-1-6.66.11-4.12,1-6.73.2-6.68-2.16S136.93,102,137.47,104.38Zm-55.22-1.77a1.52,1.52,0,1,1-1.48,1.54A1.51,1.51,0,0,1,82.25,102.61Zm-21.83.27,1.06.32s.16,6.39.19,6.4c2.28.51,7.08,1.41,7.08,1.41l.25,1.26c-2-.47-8.4-1.53-8.4-1.53C60.39,108,60.41,102.88,60.41,102.88Zm-7.75.12s0,5.1-.08,7.84c0,0-5.43.88-8.2,1.46l.22-1c2.19-.5,4.58-1,7-1.51,0-2,0-6.4,0-6.4Zm3.9,1.1a1.22,1.22,0,0,1,0,2.44,1.22,1.22,0,0,1,0-2.44Zm90.92,3.18a1.79,1.79,0,0,0,2.1,1c-.18.05-1,.57-1,.74s-.36,1.49.23,1.55c2.23.22,1.1,2.55,1.37,2.91.6.69,1,1.13.63,2s-.89.74-.48,1.4c.89,1.35-.34,1.63-.23,2.54a3.75,3.75,0,0,1,.07,1.74c-.61,1.3-2.77,2-5.16,2.14-.34,0-.08-.55-.24-.9-.59-.38-.27-1-.07-1.43s.2-.55-.17-.83c-1-.64-1-.94-.89-1.4.22-1.37,0-1.5-.4-1.71s-.45-.84-.22-1.58c.16-.51,0-.64-.2-1.1a1.24,1.24,0,0,1-.19-.6c.07-.71-.55-.7-1.43,0a33.28,33.28,0,0,0-1.47,4.07c-.36.82-.42,1.69,0,3.59.83,2.91.21,3.39-3,2.77-2.44-.61-3.16-3.23-2.48-6.44a4.38,4.38,0,0,0,0-1.43,6.69,6.69,0,0,1,1.83-5.79c2.56-2.42,3.82-2.79,9.11-2.45a7.93,7.93,0,0,1,2.23.28,5.43,5.43,0,0,1,.07-1Zm-38.07.67-.62,4.51-5,3.5c-2.22-2.07-4.58-1.38-5.7.79-1.3-.67-3.91-2.48-3.91-2.48l-.67-5.11,7.22,5ZM56.68,109a1.22,1.22,0,1,1-1.2,1.24A1.21,1.21,0,0,1,56.68,109Zm51.91,4.62-.27,4.34-1.76,1.34-2.28-.12a9.19,9.19,0,0,0-.1-2.64Zm-51.95,0a1.22,1.22,0,0,1,0,2.44,1.22,1.22,0,0,1,0-2.44Zm4.87.14A1.22,1.22,0,1,1,60.32,115,1.21,1.21,0,0,1,61.51,113.8Zm-9.68.23a1.22,1.22,0,1,1-1.19,1.24A1.21,1.21,0,0,1,51.84,114Zm89.87.2c.34,0,.84.48.6,1.24s-.1,1.17.45,1.87.38.68.31,1.06c-.11,2.51,1.49,1.42.8,3.24a3.23,3.23,0,0,0,.12,1.43c-.16-.43-3.1-.39-3.35,0-.42-.06-1-2.85-.53-3.22a3.77,3.77,0,0,1,.52.75c.4.68.48.65.36-.13C140.5,117.41,140.79,114.24,141.71,114.23Zm-75.32.22a1.22,1.22,0,1,1-1.19,1.24A1.21,1.21,0,0,1,66.39,114.44Zm-19.57.22a1.22,1.22,0,1,1-1.2,1.24A1.21,1.21,0,0,1,46.82,114.67Zm47.39.35,3.62,2.37a6.36,6.36,0,0,0,.21,2.18,4.3,4.3,0,0,0-3.56,1.14Zm-25.79,3.79-.28,1.29a45.07,45.07,0,0,0-22.73.09l-.59-1.35A39.8,39.8,0,0,1,68.41,118.81Zm-33.78-.08a3.49,3.49,0,0,1,1.59,6.68,3.59,3.59,0,0,1-4.81-4.68A3.48,3.48,0,0,1,34.63,118.72Zm73.54.38,0,1.29-.9-.76Zm-18.91.06a2.39,2.39,0,1,1-2.34,2.43A2.38,2.38,0,0,1,89.26,119.16Zm-54.57.08a1.93,1.93,0,0,0-1.09.36c-.63.59,0,.6.84.76,1.48.27,1.89,1.56,1.76,3s.3,1.24.64.78A3,3,0,0,0,34.7,119.24Zm22,1.39c1.77,0,2,2.91.39,6.19-.47,1-.71.87-1.23-.63C54.54,122.51,54.82,120.66,56.66,120.62Zm4.11.09a1.15,1.15,0,0,1,.95.43c1,1.1.22,2.87-2.32,5.6-.62.66-.94.92-1.16.92-.64,0-.63-.09.09-2.46C58.78,123.8,59,120.79,60.76,120.71ZM55,125.86a4.33,4.33,0,0,1,.29,1.21c-.16.44-1.29-.16-2.1-1.1-1.63-1.91-2.28-3.57-1.94-4.46.49-.71,1.88-1.12,2.34-.41C54.48,122.46,54.47,124.25,55,125.86Zm10.56-4.42c1.72,1-.26,3.35-4.11,5.29-1.65.83-1.53.45-.28-1.18a17.35,17.35,0,0,0,1.43-2.26C63.3,121.91,64,120.54,65.57,121.44Zm-17.14,0c.55,0,1.1.58,2.14,2.09.75,1.13,2.07,2.27,2.46,3.23-.18,1.06-5.53-2.29-5.92-3.7A1.39,1.39,0,0,1,48.42,121.45Zm76.67,3.07c1,2,1,3.25.25,3.7a1.86,1.86,0,0,1-2.63-1.76,14.85,14.85,0,0,0-.95-3.24c-.37-.89-.42-1.44-.12-1.49A6.63,6.63,0,0,1,125.1,124.52ZM118.69,123c-.55,1.42-.62,3.25-1,4.38-.78,2.12-3.3.38-2.45-1.75.77-1.92,2.73-3.91,3.5-4C119.23,121.6,118.74,122.83,118.69,123Zm1.56-1.1c.39,0,.71.81,1.21,2.25.68,1.94.65,3.45-.08,4.1-1.56,1.38-3.2-.62-2.57-3.14C119.32,123.09,119.81,121.94,120.25,121.9Zm-52.37.36c1.94,28.83-12.72,51-13.76,51.61l-5,2.75-8.75-4.8a75.93,75.93,0,0,0,14.9-43.58A13.55,13.55,0,0,0,67.88,122.26Zm48.07.09c.61-.17.18.37-.42,1.25s-1.49,3.5-2.16,3.91c-1.5.72-3.19-.66-2.28-1.86A12.07,12.07,0,0,1,116,122.35Zm8.9.2a3.78,3.78,0,0,1,1.31.47c3.11,1.53,4.65,3.56,3.32,4.52-.94.68-1.94.15-2.87-1.64a16.22,16.22,0,0,0-1.28-2C124.62,123,124.46,122.54,124.85,122.54Zm17.51,1a3.65,3.65,0,1,1-3.57,3.7A3.63,3.63,0,0,1,142.36,123.57Zm-1.1.95c-2.36,1.05-1.65,4.78.38,5.32.86.24,1.9-.12,1.47-.53-2.68-.85-2.7-2.84-1.62-4.3C141.67,124.77,141.43,124.44,141.26,124.52Zm-98.1,5.13c-.09,2.11.35,4.55-.64,6.84-1.52,3.51-6.37,5.12-9,4.81a2.28,2.28,0,0,0-1.7-.21,1.32,1.32,0,0,1-1.06,0c-.33-.16-.65,0-1-.07s-1-.84-.92-1.27c.12-.61.07-1.06-.64-1.26-1-.28-1.18-.81-.89-2.38.06-.34.14-.49-.08-.64a1.75,1.75,0,0,1-.52-2.34c.31-.55.51-.76.06-1.31s-.25-.76.23-1.4.59-.68.27-1.2c-.73-1.17.1-2,1.08-2.51a13.63,13.63,0,0,1,3.84-1c.52,0,.49.49.8.93.46.72-.19,1.75.18,2.12a1.2,1.2,0,0,1,.74,1.17,2.7,2.7,0,0,0,.31,1.75,2.16,2.16,0,0,1,.13,1.88c-.25.51-.22.48.1.78a3,3,0,0,1,.36,1.77l1.35-.12a13.18,13.18,0,0,1,2-5.08c-.08-1.79-.76-3.43-.7-5.79,3.33-1.2,5.73,1.65,5.6,4.57Zm51.68-4a10.26,10.26,0,0,0,3,1,4.23,4.23,0,0,0,3.11,4.13c0,3.21,0,18,0,18-3.46-5.85-5.61-13.4-6.06-23.13Zm-57.92.52a9.31,9.31,0,0,1,.25,1.25c.21,1.69,0,1.92-.46.76-.52-1.35-.55-.3,0,2.79a2.08,2.08,0,0,1,0,1.43c-.11.32-.32,1.05-.48,1.63-.47,1.7-.74,2.18-1.22.83-.25-.69-.45-.8-.28-1.33a1.88,1.88,0,0,0-.27-1.84,1.84,1.84,0,0,1-.26-1.05c.14-1.57-.56-1.58-.69-2,0-.61-.26-2.1.16-2.06a6.79,6.79,0,0,0,2.18-.15c.26-.1,1.08-.28,1.08-.28Zm51.61.19a2.35,2.35,0,1,1-2.3,2.38A2.34,2.34,0,0,1,88.53,126.35Zm-36,1.43,1.76.34c.39.13.11,24.66-14,42.36l-.12-4.1C46.93,156.57,51.77,144.54,52.58,127.78Zm29.92.52.32,5.86c-1-.85-3.52-2.45-3.5-2.48v-2.17s2.17.17,3.16-1.21Zm-13.6.08a5.47,5.47,0,0,1,1.16.9l-1.15.78Zm40.42.29a43.76,43.76,0,0,0,22.54.55l.51,1.43a41.25,41.25,0,0,1-24-.48Zm-36.9,1.1.41,2.53-4.3,2.81.21-3.84L71,129.8Zm38.06,2.1a1.27,1.27,0,1,1-1.24,1.29A1.26,1.26,0,0,1,110.49,131.87Zm19.57.1a1.27,1.27,0,1,1-1.24,1.29A1.26,1.26,0,0,1,130.07,132ZM93.4,135.92c.56,2,.44,6.53-.28,9.59a40.9,40.9,0,0,0-.35,4.19c-.13.17,4.32-3.71,5.75,1.38A2.47,2.47,0,0,1,95.67,154c-.26-.09-.18-1,.07-1.47.74-1.52-1.37-2.31-2.58-1-2.79,3.12.08,11,4.45,11.78,3.63.64,6.53-3,4.11-5.17-1.06-.95-2.75.36-2,1.57s-.7,1.8-1.85.61c-2-2.08.25-5.22,3.28-4.5,4.85,1.11,3.85,8.76-1.23,9.19a7.87,7.87,0,0,1-8.16-4.41c-1.55-2.91-1.66-5.23-1-10.34.42-3,.07-5.59-.76-5.57a.83.83,0,0,0-.89.78c-.15,1.11-.27,1.32-1,.91a2,2,0,0,1,.07-3.28c1.47-1.14,3.37.64,3.29.95a5.44,5.44,0,0,0,.38-1.65c.64-4.23-.78-8.7-2.54-8-.39.16-.34.33.17.62,1.17.67.14,2.37-1.33,2.2-2.09-.24-2.56-3.18-.72-4.48,2.89-1.57,5.25.89,5.88,3.11Zm-14.24-3.52s3.7,2.28,3.9,2.86c.13.37.28,3.64.28,3.64l-6.42-4.05-9.21,5.74c.15-1.26.81-4.5.81-4.5l4.9-3.12C73.44,133.14,76.8,135.38,79.16,132.39Zm46,.22a1.27,1.27,0,1,1-1.24,1.29A1.26,1.26,0,0,1,125.15,132.61Zm-9.8,0a1.27,1.27,0,1,1-1.24,1.29A1.26,1.26,0,0,1,115.35,132.63Zm4.93.29A1.27,1.27,0,1,1,119,134.2,1.27,1.27,0,0,1,120.27,132.92Zm-12.34,1.8c3.33.7,6.68,1.42,9.88,1.77l.13,9.89-.93-.05-.13-8.84a48.26,48.26,0,0,1-8.74-1.6Zm24.8.32-.17,1.16s-5.77,1-8.78,1.4c0,2,0,8.65,0,8.65l-1.15.21V136.38c3.42-.37,6.84-.76,10.16-1.35Zm-55.83.56,6.79,4.53.8,4.8-7.92-5.31s-7.18,4.87-9.86,6.68l.82-4.52Zm31.36.9a67.71,67.71,0,0,0,8.2,1.43l.12,8-1.26-.34-.1-6.46a54.52,54.52,0,0,1-6.53-1.07Zm24.19.24-.23,1.08s-4.38.67-6.63,1.07c-.2,0-.13,7-.13,7l-1.08.17-.13-8.13Zm-12.26.89a1.27,1.27,0,1,1-1.24,1.29A1.26,1.26,0,0,1,120.19,137.62ZM76.8,140.49l8,5.46A32.88,32.88,0,0,1,86,150.37l-9.24-6-11.56,7.73,1.34-4.77Zm-48.67.17a1.34,1.34,0,0,1,1.2,1.07c.35,1,1,1.35,2.71,1.31,3.36-.18,6.88-1.77,10.05-.58,1.54.57,2.09,2.86.8,3.46s-2,.24-2.48-.87c-.45-.47-1-.4-4,.12-1.33.22-2.89.41-4.2.52-3.36.27-5.21-.79-5.63-2.81A1.82,1.82,0,0,1,28.12,140.65Zm92,1.85a1.27,1.27,0,1,1-1.24,1.29A1.26,1.26,0,0,1,120.12,142.5ZM95.52,144a1.65,1.65,0,1,1-1.61,1.67A1.64,1.64,0,0,1,95.52,144ZM76.81,145.2l9.67,6.51,1.69,4.9-11.26-7.38-13.77,9,1.65-5Zm47.71,1.53a12.75,12.75,0,0,0,2.84,4.13s-.64,1.22-2.93,1.15c-1.25,0-1.32.16-1.74,1a9.17,9.17,0,0,1-1.72,2.14c-.8.62-2.3-.31-3.54-2.19-.45-.69-.64-.85-2-.82-2.09,0-2.84-.54-1.76-1.48.94-1.16,1.62-2.44,2.47-3.65l.94.11a7.85,7.85,0,0,1-1.81,3.43c-.55.62.22.85,1.56.57.85-.26,1.07-.16,1.7,1.15,1.31,2.5,2,2.38,3.55-.16.54-1.13.52-1.24,2-.92,1.61.16,2.09,0,1.43-.6a9.35,9.35,0,0,1-2.07-3.83Zm-47.66,3.35s12,7.89,11.92,7.72l2.39,5.69-14-9.41L60,165.32l2.56-5.63Zm.46,5.18L81.5,158v5l-4.26-2.88Zm-1.07.14.08,4.91-3.74,2.24-.21-4.6Zm-4.7,3.13.18,4.7-4.3,3,0-5Zm11,.09,3.92,2.64.16,5.26-4.25-2.81Zm4.84,3.21,3.93,2.75.14,5.25-4-2.72Zm-20.79,0,0,4.86-3.91,2.7-.18-4.91Zm41.35,6.27c-.78.82-1.06.71-1.73-.63a3.26,3.26,0,0,0-3.22-2c-1.89,0-.65-1.22,1.35-1.36C107.78,164,109.54,166.3,107.92,168.13Zm-46.44-3,.2,4.82-3.94,2.24-.07-2.28,2-3.53Zm-4.55,5.69L57,172.5l-1,.67Zm46.45,36.11c-16.37,3.53-32.07,2.28-43.33.18l-5.15,8.87-.35,0-1.33,2.29.14.26s-4.28,8.27-6.08,10.88c21-.2,67.22-.31,67.22-.31l-2.81-5.7.15-.16-2.78-6-.9-1a21.32,21.32,0,0,1-1-2.23c-.38-1.06-2-4-2-4l-.23,0Zm-42.74,1.25c.22.17,21,4.12,42.48.07l1.18,2c-18.83,4.37-46.07.2-45-.21ZM61,212a6.32,6.32,0,0,1,5.12,2.67,15.22,15.22,0,0,1,1.09,2.15A11.26,11.26,0,0,1,69,214.6a7.84,7.84,0,0,1,5.62-2c2.33.08,4.89,1.35,7.2,5,.58-2.12,8.23-9.32,14.53-.34.72-2.39,4.09-7.15,9.55-3.82.37.8.76,1.69.76,1.69-3.22-2.27-8.53-.75-9.79,2.8a1.5,1.5,0,0,0,.2,1.08c1.66,2.39-2.66,2.34-1.38.4a1.16,1.16,0,0,0-.12-1.38,9,9,0,0,0-6.3-3.39,8.66,8.66,0,0,0-6.4,3.36,1.54,1.54,0,0,0-.12,1.67,1,1,0,0,1-.23,1.25,1,1,0,0,1-1.58-1.2c.28-.48.24-1.07-.34-1.88a8.44,8.44,0,0,0-6.21-3.32c-3.37.08-6.77,2.52-6.55,4.53.09.88-.15,1.21-.86,1.11-.87-.12-1-1-.35-1.63a1.21,1.21,0,0,0,0-1.12C63,212.57,57.7,214,56.48,215.07A5.43,5.43,0,0,1,61,212Zm-3.16,3.36a4.29,4.29,0,0,1,3.23,1.82c.33-.34,3.35-1.79,4.81.28-3.84-.29-3.89,3.82-1,4.21-1.29,4,4.51,4.2,4.14.48,4.33.65,3.8-4.89-.28-4.31,2.14-1.57,3.59-1.06,6.16.74.86-1.13,4.39-2.19,5.25-.21-4-.25-3.35,4.46-.33,4.5-.9,3.27,5,4.47,4.12-.41,3.76.27,3.22-4.86-.39-4.44.27-.93,3.93-1.34,5.55.45,1.49-1.37,3.13-2.31,6.09-.35-4-.68-4.09,4.61-.34,4.29-.35,3.5,5,3.56,4.07-.48,4-1.1,1.82-5.46-1.15-4.26,1.32-1.58,3.57-.84,4.46-.52,2.75-3.17,5.15-.52,5.15-.52-4.79-.5-3.75,6.37.92,3.88a2.55,2.55,0,0,0,2.5,2.84l2.26,4.72-64.16.43,3.54-6.28a2.33,2.33,0,0,0,2.84-2.12c4.22,1.35,4.5-3.6,1.35-4.38a2.12,2.12,0,0,1,1.26-.37Zm-2.5,1.79c.42.68.07,1.12-.65,1.14A8.16,8.16,0,0,0,55.33,217.2Zm52.78.88.42.88C108.08,218.77,108,218.58,108.11,218.08Z"/>
  </g>
  <path d="M130.71,223.29c7.85-.17,11.38-9,5.56-15.86-.84-1-.93-1.57.61-.61,3.92,2.62,11.43.9,11.81-7.1.47-9.85-13.31-12.69-15.9-2.21-.14,1.11-1,1.08-.82-.49a32.57,32.57,0,0,1,3.4-12.12H126a32.58,32.58,0,0,1,3.4,12.12c.22,1.57-.68,1.59-.82.49-2.59-10.48-16.37-7.64-15.9,2.21.38,8,7.89,9.72,11.81,7.1,1.54-1,1.46-.39.61.61-5.82,6.86-2.3,15.69,5.56,15.86h0Z"/>
  <path d="M47.88,26.16c7.85.17,11.38,9,5.56,15.86-.84,1-.93,1.57.61.61,3.92-2.62,11.43-.9,11.81,7.1.47,9.85-13.31,12.69-15.9,2.21-.14-1.11-1-1.08-.82.49a32.57,32.57,0,0,0,3.4,12.12H43.21a32.58,32.58,0,0,0,3.4-12.12c.22-1.57-.68-1.59-.82-.49-2.59,10.48-16.37,7.64-15.9-2.21.38-8,7.89-9.72,11.81-7.1,1.54,1,1.46.39.61-.61C36.5,35.16,40,26.33,47.88,26.16h0Z"/>
</svg>
