<svg xmlns="http://www.w3.org/2000/svg" viewBox="0 0 178.58 249.45">
  <title>C2</title>
  <path d="M89.29,223c7.85-.17,11.38-9,5.56-15.86-.84-1-.93-1.57.61-.61,3.92,2.62,11.43.9,11.81-7.1.48-9.85-13.31-12.69-15.9-2.21-.14,1.11-1,1.08-.82-.49A32.57,32.57,0,0,1,94,184.56H84.62A32.57,32.57,0,0,1,88,196.68c.22,1.57-.68,1.59-.82.49-2.59-10.48-16.37-7.64-15.9,2.21.38,8,7.89,9.72,11.81,7.1,1.55-1,1.46-.39.61.61-5.82,6.86-2.3,15.69,5.56,15.86h0Z"/>
  <path d="M89.29,25.82c7.85.17,11.38,9,5.56,15.86-.84,1-.93,1.57.61.61,3.92-2.62,11.43-.9,11.81,7.1.48,9.85-13.31,12.69-15.9,2.21-.14-1.11-1-1.08-.82.49A32.57,32.57,0,0,0,94,64.22H84.62A32.57,32.57,0,0,0,88,52.1c.22-1.57-.68-1.59-.82-.49-2.59,10.48-16.37,7.64-15.9-2.21.38-8,7.89-9.72,11.81-7.1,1.55,1,1.46.39.61-.61-5.82-6.86-2.3-15.69,5.56-15.86h0Z"/>
  <path d="M13.77,40c-3.14.07-4.55,3.75-2.22,6.61.34.42.37.66-.25.26-1.57-1.09-4.57-.37-4.72,3-.19,4.11,5.32,5.29,6.36.92.05-.46.41-.45.33.2A14,14,0,0,1,11.91,56h3.73a14,14,0,0,1-1.36-5.05c-.09-.65.27-.66.33-.2,1,4.37,6.55,3.18,6.36-.92-.15-3.33-3.16-4-4.72-3-.62.4-.58.16-.25-.26,2.33-2.86.92-6.54-2.22-6.61h0Z"/>
  <path d="M164.81,209.47c3.14-.07,4.55-3.75,2.22-6.61-.34-.42-.37-.66.25-.26,1.57,1.09,4.57.37,4.72-3,.19-4.11-5.32-5.29-6.36-.92-.05.46-.41.45-.33-.2a14,14,0,0,1,1.36-5.05h-3.73a14,14,0,0,1,1.36,5.05c.09.65-.27.66-.33.2-1-4.37-6.55-3.18-6.36.92.15,3.33,3.16,4,4.72,3,.62-.4.58-.16.25.26-2.33,2.86-.92,6.54,2.22,6.61h0Z"/>
  <path d="M172.72,212l-.13,1.63c-.41,5-1.49,6.73-7.62,12-3,2.55-4,3.8-4.09,5.26-.39,3.44,2.65,4.51,4.63,4.53,2.57,0,5.47-1.54,4.09-5.17l2.88-.86c.58,3.39,0,6.56-2.71,8-3.6,1.84-8.22,1.12-10.55-1.78a6.91,6.91,0,0,1-1.08-6.74c2.46-5.38,10.78-7.74,11.47-14h-9.2v3.46H157.7V212l15,.06Z"/>
  <path d="M6.26,37.41l.13-1.63c.41-5,1.49-6.73,7.62-12,3-2.55,4-3.8,4.09-5.26.39-3.44-2.65-4.51-4.63-4.53C10.9,14,8,15.56,9.38,19.19l-2.88.86c-.58-3.39,0-6.56,2.71-8,3.6-1.84,8.22-1.12,10.55,1.78a6.91,6.91,0,0,1,1.08,6.74c-2.46,5.38-10.78,7.74-11.47,14h9.2V31.09h2.71v6.38l-15-.06Z"/>
</svg>
