<svg xmlns="http://www.w3.org/2000/svg" viewBox="0 0 178.58 249.45">
  <title>C3</title>
  <path d="M89.29,26.49c-7.85.17-11.38,9-5.56,15.86.84,1,.93,1.57-.61.61-3.92-2.62-11.43-.9-11.81,7.1-.47,9.85,13.31,12.69,15.9,2.21.14-1.11,1-1.08.82.49a32.57,32.57,0,0,1-3.4,12.12H94a32.57,32.57,0,0,1-3.4-12.12c-.22-1.57.68-1.59.82-.49,2.59,10.48,16.37,7.64,15.9-2.21-.38-8-7.89-9.72-11.81-7.1-1.55,1-1.46.39-.61-.61,5.82-6.86,2.3-15.69-5.56-15.86h0Z"/>
  <path d="M89.29,223.63c-7.85-.17-11.38-9-5.56-15.86.84-1,.93-1.57-.61-.61-3.92,2.62-11.43.9-11.81-7.1-.47-9.85,13.31-12.69,15.9-2.21.14,1.11,1,1.08.82-.49a32.57,32.57,0,0,0-3.4-12.12H94a32.58,32.58,0,0,0-3.4,12.12c-.22,1.57.68,1.59.82.49,2.59-10.48,16.37-7.64,15.9,2.21-.38,8-7.89,9.72-11.81,7.1-1.55-1-1.46-.39-.61.61,5.82,6.86,2.3,15.69-5.56,15.86h0Z"/>
  <path d="M89.29,105.86c-7.85.17-11.38,9-5.56,15.86.84,1,.93,1.57-.61.61-3.92-2.62-11.43-.9-11.81,7.1-.47,9.85,13.31,12.69,15.9,2.21.14-1.11,1-1.08.82.49a32.57,32.57,0,0,1-3.4,12.12H94a32.57,32.57,0,0,1-3.4-12.12c-.22-1.57.68-1.59.82-.49,2.59,10.48,16.37,7.64,15.9-2.21-.38-8-7.89-9.72-11.81-7.1-1.55,1-1.46.39-.61-.61,5.82-6.86,2.3-15.69-5.56-15.86h0Z"/>
  <path d="M164.81,209.47c3.14-.07,4.55-3.75,2.22-6.61-.34-.42-.37-.66.25-.26,1.57,1.09,4.57.37,4.72-3,.19-4.11-5.32-5.29-6.36-.92-.05.46-.41.45-.33-.2a14,14,0,0,1,1.36-5.05h-3.73a14,14,0,0,1,1.36,5.05c.09.65-.27.66-.33.2-1-4.37-6.55-3.18-6.36.92.15,3.33,3.16,4,4.72,3,.62-.4.58-.16.25.26-2.33,2.86-.92,6.54,2.22,6.61h0Z"/>
  <path d="M13.77,40c-3.14.07-4.55,3.75-2.22,6.61.34.42.37.66-.25.26-1.57-1.09-4.57-.37-4.72,3-.19,4.11,5.32,5.29,6.36.92.05-.46.41-.45.33.2A14,14,0,0,1,11.91,56h3.73a14,14,0,0,1-1.36-5.05c-.09-.65.27-.66.33-.2,1,4.37,6.55,3.18,6.36-.92-.15-3.33-3.16-4-4.72-3-.62.4-.58.16-.25-.26,2.33-2.86.92-6.54-2.22-6.61h0Z"/>
  <path d="M5.21,31.68l2-1.49C9,33.06,11,35,14,34.63c4.53-.31,6.4-5.06,5.46-8.63a5.24,5.24,0,0,0-7.65-3.06,7.47,7.47,0,0,1-1.52.74c-.31,0-1-1.41-.92-1.84a93.35,93.35,0,0,1,6.86-8H8.63v3.43H5.72V11.07H20.55v2.09a50.48,50.48,0,0,0-5.29,6.38A7.2,7.2,0,0,1,22,24.95a14.34,14.34,0,0,1-.41,7.29,9.15,9.15,0,0,1-7.44,5.21c-5,.34-7.66-3.17-9-5.76Z"/>
  <path d="M173.38,217.77l-2,1.49c-1.76-2.87-3.74-4.76-6.75-4.44-4.53.31-6.4,5.06-5.46,8.63a5.24,5.24,0,0,0,7.65,3.06,7.47,7.47,0,0,1,1.52-.74c.31,0,1,1.41.92,1.84a93.35,93.35,0,0,1-6.86,8h7.59v-3.43h2.91v6.15H158v-2.09a50.49,50.49,0,0,0,5.29-6.38,7.2,7.2,0,0,1-6.78-5.41,14.34,14.34,0,0,1,.41-7.29,9.15,9.15,0,0,1,7.44-5.21c5-.34,7.66,3.17,9,5.76Z"/>
</svg>
