<svg xmlns="http://www.w3.org/2000/svg" viewBox="0 0 178.58 249.45">
  <title>C4</title>
  <path d="M47.88,223c7.85-.17,11.38-9,5.56-15.86-.84-1-.93-1.57.61-.61,3.92,2.62,11.43.9,11.81-7.1.48-9.85-13.31-12.69-15.9-2.21-.14,1.11-1,1.08-.82-.49a32.57,32.57,0,0,1,3.4-12.12H43.21a32.57,32.57,0,0,1,3.4,12.12c.22,1.57-.68,1.59-.82.49-2.59-10.48-16.37-7.64-15.9,2.21.38,8,7.89,9.72,11.81,7.1,1.55-1,1.46-.39.61.61C36.5,214,40,222.79,47.88,223h0Z"/>
  <path d="M130.71,223c7.85-.17,11.38-9,5.56-15.86-.84-1-.93-1.57.61-.61,3.92,2.62,11.43.9,11.81-7.1.47-9.85-13.31-12.69-15.9-2.21-.14,1.11-1,1.08-.82-.49a32.57,32.57,0,0,1,3.4-12.12H126a32.57,32.57,0,0,1,3.4,12.12c.22,1.57-.68,1.59-.82.49-2.59-10.48-16.37-7.64-15.9,2.21.38,8,7.89,9.72,11.81,7.1,1.55-1,1.46-.39.61.61-5.82,6.86-2.3,15.69,5.56,15.86h0Z"/>
  <path d="M47.88,25.82c7.85.17,11.38,9,5.56,15.86-.84,1-.93,1.57.61.61,3.92-2.62,11.43-.9,11.81,7.1.48,9.85-13.31,12.69-15.9,2.21-.14-1.11-1-1.08-.82.49a32.57,32.57,0,0,0,3.4,12.12H43.21a32.57,32.57,0,0,0,3.4-12.12c.22-1.57-.68-1.59-.82-.49-2.59,10.48-16.37,7.64-15.9-2.21.38-8,7.89-9.72,11.81-7.1,1.55,1,1.46.39.61-.61C36.5,34.83,40,26,47.88,25.82h0Z"/>
  <path d="M130.71,25.82c7.85.17,11.38,9,5.56,15.86-.84,1-.93,1.57.61.61,3.92-2.62,11.43-.9,11.81,7.1.47,9.85-13.31,12.69-15.9,2.21-.14-1.11-1-1.08-.82.49a32.57,32.57,0,0,0,3.4,12.12H126a32.57,32.57,0,0,0,3.4-12.12c.22-1.57-.68-1.59-.82-.49-2.59,10.48-16.37,7.64-15.9-2.21.38-8,7.89-9.72,11.81-7.1,1.55,1,1.46.39.61-.61-5.82-6.86-2.3-15.69,5.56-15.86h0Z"/>
  <path d="M13.77,40c-3.14.07-4.55,3.75-2.22,6.61.34.42.37.66-.25.26-1.57-1.09-4.57-.37-4.72,3-.19,4.11,5.32,5.29,6.36.92.05-.46.41-.45.33.2A14,14,0,0,1,11.91,56h3.74a14,14,0,0,1-1.36-5.05c-.09-.65.27-.66.33-.2,1,4.37,6.55,3.18,6.36-.92-.15-3.33-3.16-4-4.72-3-.62.4-.58.16-.25-.26,2.33-2.86.92-6.54-2.22-6.61h0Z"/>
  <path d="M164.81,209.47c3.14-.07,4.55-3.75,2.22-6.61-.34-.42-.37-.66.25-.26,1.57,1.09,4.57.37,4.72-3,.19-4.11-5.32-5.29-6.36-.92-.05.46-.41.45-.33-.2a14,14,0,0,1,1.36-5.05h-3.73a14,14,0,0,1,1.36,5.05c.09.65-.27.66-.33.2-1-4.37-6.55-3.18-6.36.92.15,3.33,3.16,4,4.72,3,.62-.4.58-.16.25.26-2.33,2.86-.92,6.54,2.22,6.61h0Z"/>
  <path d="M164.62,212v2.33h-2.1v3.85H173v2.71l-11.39,17.5H159.8v-17.5h-3.22v-2.71h3.22l.06-3.85h-1.76V212h6.53Zm-2.1,20,7.23-11.1h-7.23Z"/>
  <path d="M14,37.47V35.14h2.1V31.29H5.54V28.57l11.39-17.5h1.86v17.5H22v2.71H18.79l-.06,3.85h1.76v2.33H14Zm2.1-20L8.83,28.58h7.23Z"/>
</svg>
