<svg xmlns="http://www.w3.org/2000/svg" viewBox="0 0 178.58 249.45">
  <title>C5</title>
  <path d="M130.7,26.49c-7.85.17-11.38,9-5.56,15.86.84,1,.93,1.57-.61.61-3.92-2.62-11.43-.9-11.81,7.1-.47,9.85,13.31,12.69,15.9,2.21.14-1.11,1-1.08.82.49A32.57,32.57,0,0,1,126,64.89h9.34A32.57,32.57,0,0,1,132,52.77c-.22-1.57.68-1.59.82-.49,2.59,10.48,16.37,7.64,15.9-2.21-.38-8-7.89-9.72-11.81-7.1-1.55,1-1.46.39-.61-.61,5.82-6.86,2.3-15.69-5.56-15.86h0Z"/>
  <path d="M47.87,26.49c-7.85.17-11.38,9-5.56,15.86.84,1,.93,1.57-.61.61-3.92-2.62-11.43-.9-11.81,7.1-.47,9.85,13.31,12.69,15.9,2.21.14-1.11,1-1.08.82.49a32.57,32.57,0,0,1-3.4,12.12h9.34a32.57,32.57,0,0,1-3.4-12.12c-.22-1.57.68-1.59.82-.49,2.59,10.48,16.37,7.64,15.9-2.21-.38-8-7.89-9.72-11.81-7.1-1.55,1-1.46.39-.61-.61,5.82-6.86,2.3-15.69-5.56-15.86h0Z"/>
  <path d="M130.7,223.63c-7.85-.17-11.38-9-5.56-15.86.84-1,.93-1.57-.61-.61-3.92,2.62-11.43.9-11.81-7.1-.47-9.85,13.31-12.69,15.9-2.21.14,1.11,1,1.08.82-.49a32.57,32.57,0,0,0-3.4-12.12h9.34a32.57,32.57,0,0,0-3.4,12.12c-.22,1.57.68,1.59.82.49,2.59-10.48,16.37-7.64,15.9,2.21-.38,8-7.89,9.72-11.81,7.1-1.55-1-1.46-.39-.61.61,5.82,6.86,2.3,15.69-5.56,15.86h0Z"/>
  <path d="M47.87,223.63c-7.85-.17-11.38-9-5.56-15.86.84-1,.93-1.57-.61-.61-3.92,2.62-11.43.9-11.81-7.1-.47-9.85,13.31-12.69,15.9-2.21.14,1.11,1,1.08.82-.49a32.57,32.57,0,0,0-3.4-12.12h9.34a32.57,32.57,0,0,0-3.4,12.12c-.22,1.57.68,1.59.82.49,2.59-10.48,16.37-7.64,15.9,2.21-.38,8-7.89,9.72-11.81,7.1-1.55-1-1.46-.39-.61.61,5.82,6.86,2.3,15.69-5.56,15.86h0Z"/>
  <path d="M89.29,105.86c-7.85.17-11.38,9-5.56,15.86.84,1,.93,1.57-.61.61-3.92-2.62-11.43-.9-11.81,7.1-.47,9.85,13.31,12.69,15.9,2.21.14-1.11,1-1.08.82.49a32.57,32.57,0,0,1-3.4,12.12H94a32.57,32.57,0,0,1-3.4-12.12c-.22-1.57.68-1.59.82-.49,2.59,10.48,16.37,7.64,15.9-2.21-.38-8-7.89-9.72-11.81-7.1-1.55,1-1.46.39-.61-.61,5.82-6.86,2.3-15.69-5.56-15.86h0Z"/>
  <path d="M164.81,209.47c3.14-.07,4.55-3.75,2.22-6.61-.34-.42-.37-.66.25-.26,1.57,1.09,4.57.37,4.72-3,.19-4.11-5.32-5.29-6.36-.92-.05.46-.41.45-.33-.2a14,14,0,0,1,1.36-5.05h-3.73a14,14,0,0,1,1.36,5.05c.09.65-.27.66-.33.2-1-4.37-6.55-3.18-6.36.92.15,3.33,3.16,4,4.72,3,.62-.4.58-.16.25.26-2.33,2.86-.92,6.54,2.22,6.61h0Z"/>
  <path d="M13.77,40c-3.14.07-4.55,3.75-2.22,6.61.34.42.37.66-.25.26-1.57-1.09-4.57-.37-4.72,3-.19,4.11,5.32,5.29,6.36.92.05-.46.41-.45.33.2A14,14,0,0,1,11.91,56h3.74a14,14,0,0,1-1.36-5.05c-.09-.65.27-.66.33-.2,1,4.37,6.55,3.18,6.36-.92-.15-3.33-3.16-4-4.72-3-.62.4-.58.16-.25-.26,2.33-2.86.92-6.54-2.22-6.61h0Z"/>
  <path d="M5.45,30.64l2.59,0c.49,1.59,1.59,3.21,3.07,3.66a6.19,6.19,0,0,0,7.77-4.13c1.08-3.34,0-8-2.91-9.68-2.39-1.38-5.94-.22-7.57,2.73L6.59,22.06l1-11H19.4v2.6H9.81l-.15,4.58a7.58,7.58,0,0,1,7.3-.43c3.91,1.9,5.73,6.22,5,11.31-1.05,5.06-3.38,7.93-8.61,8.34-5.83.05-7.88-4-7.86-6.83h0Z"/>
  <path d="M173.13,218.81l-2.59,0c-.49-1.59-1.59-3.21-3.07-3.66a6.19,6.19,0,0,0-7.77,4.13c-1.08,3.34,0,8,2.91,9.68,2.39,1.38,5.94.22,7.57-2.73l1.81,1.13-1,11H159.18v-2.6h9.59l.15-4.58a7.58,7.58,0,0,1-7.3.43c-3.91-1.9-5.73-6.22-5-11.31,1.05-5.06,3.38-7.93,8.61-8.34,5.83-.05,7.88,4,7.86,6.83h0Z"/>
</svg>
