<svg xmlns="http://www.w3.org/2000/svg" viewBox="0 0 178.58 249.45">
  <title>C6</title>
  <path d="M130.7,26.49c-7.85.17-11.38,9-5.56,15.86.84,1,.93,1.57-.61.61-3.92-2.62-11.43-.9-11.81,7.1-.47,9.85,13.31,12.69,15.9,2.21.14-1.11,1-1.08.82.49A32.57,32.57,0,0,1,126,64.89h9.34A32.58,32.58,0,0,1,132,52.77c-.22-1.57.68-1.59.82-.49,2.59,10.48,16.37,7.64,15.9-2.21-.38-8-7.89-9.72-11.81-7.1-1.55,1-1.46.39-.61-.61,5.82-6.86,2.3-15.69-5.56-15.86h0Z"/>
  <path d="M47.87,26.49c-7.85.17-11.38,9-5.56,15.86.84,1,.93,1.57-.61.61-3.92-2.62-11.43-.9-11.81,7.1-.48,9.85,13.31,12.69,15.9,2.21.14-1.11,1-1.08.82.49a32.57,32.57,0,0,1-3.4,12.12h9.34a32.57,32.57,0,0,1-3.4-12.12c-.22-1.57.68-1.59.82-.49,2.59,10.48,16.37,7.64,15.9-2.21-.38-8-7.89-9.72-11.81-7.1-1.55,1-1.46.39-.61-.61,5.82-6.86,2.3-15.69-5.56-15.86h0Z"/>
  <path d="M130.7,223.63c-7.85-.17-11.38-9-5.56-15.86.84-1,.93-1.57-.61-.61-3.92,2.62-11.43.9-11.81-7.1-.47-9.85,13.31-12.69,15.9-2.21.14,1.11,1,1.08.82-.49a32.57,32.57,0,0,0-3.4-12.12h9.34a32.58,32.58,0,0,0-3.4,12.12c-.22,1.57.68,1.59.82.49,2.59-10.48,16.37-7.64,15.9,2.21-.38,8-7.89,9.72-11.81,7.1-1.55-1-1.46-.39-.61.61,5.82,6.86,2.3,15.69-5.56,15.86h0Z"/>
  <path d="M47.87,223.63c-7.85-.17-11.38-9-5.56-15.86.84-1,.93-1.57-.61-.61-3.92,2.62-11.43.9-11.81-7.1-.48-9.85,13.31-12.69,15.9-2.21.14,1.11,1,1.08.82-.49a32.57,32.57,0,0,0-3.4-12.12h9.34a32.57,32.57,0,0,0-3.4,12.12c-.22,1.57.68,1.59.82.49,2.59-10.48,16.37-7.64,15.9,2.21-.38,8-7.89,9.72-11.81,7.1-1.55-1-1.46-.39-.61.61,5.82,6.86,2.3,15.69-5.56,15.86h0Z"/>
  <path d="M130.7,105.86c-7.85.17-11.38,9-5.56,15.86.84,1,.93,1.57-.61.61-3.92-2.62-11.43-.9-11.81,7.1-.47,9.85,13.31,12.69,15.9,2.21.14-1.11,1-1.08.82.49a32.57,32.57,0,0,1-3.4,12.12h9.34a32.58,32.58,0,0,1-3.4-12.12c-.22-1.57.68-1.59.82-.49,2.59,10.48,16.37,7.64,15.9-2.21-.38-8-7.89-9.72-11.81-7.1-1.55,1-1.46.39-.61-.61,5.82-6.86,2.3-15.69-5.56-15.86h0Z"/>
  <path d="M47.87,105.86c-7.85.17-11.38,9-5.56,15.86.84,1,.93,1.57-.61.61-3.92-2.62-11.43-.9-11.81,7.1-.48,9.85,13.31,12.69,15.9,2.21.14-1.11,1-1.08.82.49a32.57,32.57,0,0,1-3.4,12.12h9.34a32.57,32.57,0,0,1-3.4-12.12c-.22-1.57.68-1.59.82-.49,2.59,10.48,16.37,7.64,15.9-2.21-.38-8-7.89-9.72-11.81-7.1-1.55,1-1.46.39-.61-.61,5.82-6.86,2.3-15.69-5.56-15.86h0Z"/>
  <path d="M164.81,209.47c3.14-.07,4.55-3.75,2.22-6.61-.34-.42-.37-.66.25-.26,1.57,1.09,4.57.37,4.72-3,.19-4.11-5.32-5.29-6.36-.92-.05.46-.41.45-.33-.2a14,14,0,0,1,1.36-5.05h-3.73a14,14,0,0,1,1.36,5.05c.09.65-.27.66-.33.2-1-4.37-6.55-3.18-6.36.92.15,3.33,3.16,4,4.72,3,.62-.4.58-.16.25.26-2.33,2.86-.92,6.54,2.22,6.61h0Z"/>
  <path d="M13.77,40c-3.14.07-4.55,3.75-2.22,6.61.34.42.37.66-.25.26-1.57-1.09-4.57-.37-4.72,3-.19,4.11,5.32,5.29,6.36.92.05-.46.41-.45.33.2A14,14,0,0,1,11.91,56h3.73a14,14,0,0,1-1.36-5.05c-.09-.65.27-.66.33-.2,1,4.37,6.55,3.18,6.36-.92-.15-3.33-3.16-4-4.72-3-.62.4-.58.16-.25-.26,2.33-2.86.92-6.54-2.22-6.61h0Z"/>
  <path d="M6,29.35A53,53,0,0,1,6,19.68c.82-5.21,2.81-7.59,6.14-8.37s7.78.09,8.78,4.44l-2.7.05c-1.46-2.94-5.16-2.16-7.25-.88-1.66,1-2.42,5.28-2.09,5.54,0,0,3.15-2.33,5.63-2.16,5.3.55,7.48,5.15,7.3,9.49-.17,5.22-1.82,9.39-7.44,9.67C9,37.26,6.53,34.35,6,29.35H6ZM19.19,28c0-3.62-1.61-6.34-4.73-6.63s-6.25,2.74-6,6.43,1.65,6.83,5.42,6.81c4.06,0,5.32-4,5.34-6.6Z"/>
  <path d="M172.56,220.1a53,53,0,0,1,.05,9.67c-.82,5.21-2.81,7.59-6.14,8.37s-7.78-.09-8.78-4.44l2.7-.05c1.46,2.94,5.16,2.16,7.25.88,1.66-1,2.41-5.28,2.09-5.54,0,0-3.15,2.33-5.63,2.16-5.3-.55-7.48-5.15-7.3-9.49.17-5.22,1.82-9.39,7.44-9.67,5.34.21,7.79,3.12,8.3,8.12h0Zm-13.17,1.38c0,3.62,1.61,6.34,4.73,6.63s6.25-2.74,6-6.43-1.65-6.83-5.42-6.81c-4.06,0-5.32,4-5.34,6.6Z"/>
</svg>
