<svg xmlns="http://www.w3.org/2000/svg" viewBox="0 0 178.58 249.45">
  <title>C7</title>
  <path d="M130.7,26.49c-7.85.17-11.38,9-5.56,15.86.84,1,.93,1.57-.61.61-3.92-2.62-11.43-.9-11.81,7.1-.47,9.85,13.31,12.69,15.9,2.21.14-1.11,1-1.08.82.49A32.57,32.57,0,0,1,126,64.89h9.34A32.58,32.58,0,0,1,132,52.77c-.22-1.57.68-1.59.82-.49,2.59,10.48,16.37,7.64,15.9-2.21-.38-8-7.89-9.72-11.81-7.1-1.54,1-1.46.39-.61-.61,5.82-6.86,2.3-15.69-5.56-15.86h0Z"/>
  <path d="M47.87,26.49c-7.85.17-11.38,9-5.56,15.86.84,1,.93,1.57-.61.61-3.92-2.62-11.43-.9-11.81,7.1-.47,9.85,13.31,12.69,15.9,2.21.14-1.11,1-1.08.82.49a32.57,32.57,0,0,1-3.4,12.12h9.34a32.58,32.58,0,0,1-3.4-12.12c-.22-1.57.68-1.59.82-.49,2.59,10.48,16.37,7.64,15.9-2.21-.38-8-7.89-9.72-11.81-7.1-1.54,1-1.46.39-.61-.61,5.82-6.86,2.3-15.69-5.56-15.86h0Z"/>
  <path d="M130.7,223.63c-7.85-.17-11.38-9-5.56-15.86.84-1,.93-1.57-.61-.61-3.92,2.62-11.43.9-11.81-7.1-.47-9.85,13.31-12.69,15.9-2.21.14,1.11,1,1.08.82-.49a32.57,32.57,0,0,0-3.4-12.12h9.34a32.58,32.58,0,0,0-3.4,12.12c-.22,1.57.68,1.59.82.49,2.59-10.48,16.37-7.64,15.9,2.21-.38,8-7.89,9.72-11.81,7.1-1.54-1-1.46-.39-.61.61,5.82,6.86,2.3,15.69-5.56,15.86h0Z"/>
  <path d="M47.87,223.63c-7.85-.17-11.38-9-5.56-15.86.84-1,.93-1.57-.61-.61-3.92,2.62-11.43.9-11.81-7.1-.47-9.85,13.31-12.69,15.9-2.21.14,1.11,1,1.08.82-.49a32.57,32.57,0,0,0-3.4-12.12h9.34a32.58,32.58,0,0,0-3.4,12.12c-.22,1.57.68,1.59.82.49,2.59-10.48,16.37-7.64,15.9,2.21-.38,8-7.89,9.72-11.81,7.1-1.54-1-1.46-.39-.61.61,5.82,6.86,2.3,15.69-5.56,15.86h0Z"/>
  <path d="M89.29,66.17c-7.85.17-11.38,9-5.56,15.86.84,1,.93,1.57-.61.61-3.92-2.62-11.43-.9-11.81,7.1C70.83,99.6,84.61,102.44,87.2,92c.14-1.11,1-1.08.82.49a32.57,32.57,0,0,1-3.4,12.12H94a32.58,32.58,0,0,1-3.4-12.12c-.22-1.57.68-1.59.82-.49,2.59,10.48,16.37,7.64,15.9-2.21-.38-8-7.89-9.72-11.81-7.1-1.54,1-1.46.39-.61-.61,5.82-6.86,2.3-15.69-5.56-15.86h0Z"/>
  <path d="M130.7,105.86c-7.85.17-11.38,9-5.56,15.86.84,1,.93,1.57-.61.61-3.92-2.62-11.43-.9-11.81,7.1-.47,9.85,13.31,12.69,15.9,2.21.14-1.11,1-1.08.82.49a32.57,32.57,0,0,1-3.4,12.12h9.34a32.58,32.58,0,0,1-3.4-12.12c-.22-1.57.68-1.59.82-.49,2.59,10.48,16.37,7.64,15.9-2.21-.38-8-7.89-9.72-11.81-7.1-1.54,1-1.46.39-.61-.61,5.82-6.86,2.3-15.69-5.56-15.86h0Z"/>
  <path d="M47.87,105.86c-7.85.17-11.38,9-5.56,15.86.84,1,.93,1.57-.61.61-3.92-2.62-11.43-.9-11.81,7.1-.47,9.85,13.31,12.69,15.9,2.21.14-1.11,1-1.08.82.49a32.57,32.57,0,0,1-3.4,12.12h9.34a32.58,32.58,0,0,1-3.4-12.12c-.22-1.57.68-1.59.82-.49,2.59,10.48,16.37,7.64,15.9-2.21-.38-8-7.89-9.72-11.81-7.1-1.54,1-1.46.39-.61-.61,5.82-6.86,2.3-15.69-5.56-15.86h0Z"/>
  <path d="M164.81,209.47c3.14-.07,4.55-3.75,2.22-6.61-.34-.42-.37-.66.25-.26,1.57,1.09,4.57.37,4.72-3,.19-4.11-5.32-5.29-6.36-.92-.05.46-.41.45-.33-.2a14,14,0,0,1,1.36-5.05h-3.74a14,14,0,0,1,1.36,5.05c.09.65-.27.66-.33.2-1-4.37-6.55-3.18-6.36.92.15,3.33,3.16,4,4.72,3,.62-.4.58-.16.25.26-2.33,2.86-.92,6.54,2.22,6.61h0Z"/>
  <path d="M13.77,40c-3.14.07-4.55,3.75-2.22,6.61.34.42.37.66-.25.26-1.57-1.09-4.57-.37-4.72,3-.19,4.11,5.32,5.29,6.36.92.05-.46.41-.45.33.2A14,14,0,0,1,11.91,56h3.74a14,14,0,0,1-1.36-5.05c-.09-.65.27-.66.33-.2,1,4.37,6.55,3.18,6.36-.92-.15-3.33-3.16-4-4.72-3-.62.4-.58.16-.25-.26,2.33-2.86.92-6.54-2.22-6.61h0Z"/>
  <path d="M9.71,37.47c1.74-9.18,3.58-16.07,8.44-23.55H8.29v3.22H5.67V11.07H20.1l1.78,2.85c-5.15,5.63-9.87,23.81-9,23.55Z"/>
  <path d="M168.87,212c-1.74,9.18-3.58,16.07-8.44,23.55h9.86v-3.22h2.62v6.07H158.48l-1.78-2.85c5.15-5.63,9.87-23.81,9-23.55Z"/>
</svg>
