<svg xmlns="http://www.w3.org/2000/svg" viewBox="0 0 178.58 249.45">
  <title>C8</title>
  <path d="M47.88,223c7.85-.17,11.38-9,5.56-15.86-.84-1-.93-1.57.61-.61,3.92,2.62,11.43.9,11.81-7.1.47-9.85-13.31-12.69-15.9-2.21-.14,1.11-1,1.08-.82-.49a32.57,32.57,0,0,1,3.4-12.12H43.21a32.58,32.58,0,0,1,3.4,12.12c.22,1.57-.68,1.59-.82.49-2.59-10.48-16.37-7.64-15.9,2.21.38,8,7.89,9.72,11.81,7.1,1.54-1,1.46-.39.61.61C36.5,214,40,222.79,47.88,223h0Z"/>
  <path d="M130.71,223c7.85-.17,11.38-9,5.56-15.86-.84-1-.93-1.57.61-.61,3.92,2.62,11.43.9,11.81-7.1.47-9.85-13.31-12.69-15.9-2.21-.14,1.11-1,1.08-.82-.49a32.57,32.57,0,0,1,3.4-12.12H126a32.58,32.58,0,0,1,3.4,12.12c.22,1.57-.68,1.59-.82.49-2.59-10.48-16.37-7.64-15.9,2.21.38,8,7.89,9.72,11.81,7.1,1.55-1,1.46-.39.61.61-5.82,6.86-2.3,15.69,5.56,15.86h0Z"/>
  <path d="M47.88,25.82c7.85.17,11.38,9,5.56,15.86-.84,1-.93,1.57.61.61,3.92-2.62,11.43-.9,11.81,7.1.47,9.85-13.31,12.69-15.9,2.21-.14-1.11-1-1.08-.82.49a32.57,32.57,0,0,0,3.4,12.12H43.21a32.58,32.58,0,0,0,3.4-12.12c.22-1.57-.68-1.59-.82-.49-2.59,10.48-16.37,7.64-15.9-2.21.38-8,7.89-9.72,11.81-7.1,1.54,1,1.46.39.61-.61C36.5,34.83,40,26,47.88,25.82h0Z"/>
  <path d="M130.71,25.82c7.85.17,11.38,9,5.56,15.86-.84,1-.93,1.57.61.61,3.92-2.62,11.43-.9,11.81,7.1.47,9.85-13.31,12.69-15.9,2.21-.14-1.11-1-1.08-.82.49a32.57,32.57,0,0,0,3.4,12.12H126a32.58,32.58,0,0,0,3.4-12.12c.22-1.57-.68-1.59-.82-.49-2.59,10.48-16.37,7.64-15.9-2.21.38-8,7.89-9.72,11.81-7.1,1.55,1,1.46.39.61-.61-5.82-6.86-2.3-15.69,5.56-15.86h0Z"/>
  <path d="M89.29,183.28c7.85-.17,11.38-9,5.56-15.86-.84-1-.93-1.57.61-.61,3.92,2.62,11.43.9,11.81-7.1.47-9.85-13.31-12.69-15.9-2.21-.14,1.11-1,1.08-.82-.49A32.57,32.57,0,0,1,94,144.88H84.62A32.58,32.58,0,0,1,88,157c.22,1.57-.68,1.59-.82.49-2.59-10.48-16.37-7.64-15.9,2.21.38,8,7.89,9.72,11.81,7.1,1.55-1,1.46-.39.61.61-5.82,6.86-2.3,15.69,5.56,15.86h0Z"/>
  <path d="M47.88,143.59c7.85-.17,11.38-9,5.56-15.86-.84-1-.93-1.57.61-.61,3.92,2.62,11.43.9,11.81-7.1.47-9.85-13.31-12.69-15.9-2.21-.14,1.11-1,1.08-.82-.49a32.57,32.57,0,0,1,3.4-12.12H43.21a32.58,32.58,0,0,1,3.4,12.12c.22,1.57-.68,1.59-.82.49-2.59-10.48-16.37-7.64-15.9,2.21.38,8,7.89,9.72,11.81,7.1,1.54-1,1.46-.39.61.61-5.82,6.86-2.3,15.69,5.56,15.86h0Z"/>
  <path d="M130.71,143.59c7.85-.17,11.38-9,5.56-15.86-.84-1-.93-1.57.61-.61,3.92,2.62,11.43.9,11.81-7.1.47-9.85-13.31-12.69-15.9-2.21-.14,1.11-1,1.08-.82-.49a32.57,32.57,0,0,1,3.4-12.12H126a32.58,32.58,0,0,1,3.4,12.12c.22,1.57-.68,1.59-.82.49-2.59-10.48-16.37-7.64-15.9,2.21.38,8,7.89,9.72,11.81,7.1,1.55-1,1.46-.39.61.61-5.82,6.86-2.3,15.69,5.56,15.86h0Z"/>
  <path d="M89.29,65.51c7.85.17,11.38,9,5.56,15.86-.84,1-.93,1.57.61.61,3.92-2.62,11.43-.9,11.81,7.1.47,9.85-13.31,12.69-15.9,2.21-.14-1.11-1-1.08-.82.49A32.57,32.57,0,0,0,94,103.91H84.62A32.58,32.58,0,0,0,88,91.79c.22-1.57-.68-1.59-.82-.49-2.59,10.48-16.37,7.64-15.9-2.21.38-8,7.89-9.72,11.81-7.1,1.55,1,1.46.39.61-.61-5.82-6.86-2.3-15.69,5.56-15.86h0Z"/>
  <path d="M13.77,40c-3.14.07-4.55,3.75-2.22,6.61.34.42.37.66-.25.26-1.57-1.09-4.57-.37-4.72,3-.19,4.11,5.32,5.29,6.36.92.05-.46.41-.45.33.2A14,14,0,0,1,11.91,56h3.73a14,14,0,0,1-1.36-5.05c-.09-.65.27-.66.33-.2,1,4.37,6.55,3.18,6.36-.92-.15-3.33-3.16-4-4.72-3-.62.4-.58.16-.25-.26,2.33-2.86.92-6.54-2.22-6.61h0Z"/>
  <path d="M164.81,209.47c3.14-.07,4.55-3.75,2.22-6.61-.34-.42-.37-.66.25-.26,1.57,1.09,4.57.37,4.72-3,.19-4.11-5.32-5.29-6.36-.92-.05.46-.41.45-.33-.2a14,14,0,0,1,1.36-5.05h-3.74a14,14,0,0,1,1.36,5.05c.09.65-.27.66-.33.2-1-4.37-6.55-3.18-6.36.92.15,3.33,3.16,4,4.72,3,.62-.4.58-.16.25.26-2.33,2.86-.92,6.54,2.22,6.61h0Z"/>
  <path d="M173.39,219.71c-.13,3.54-1.41,4.87-3.93,6.73a6.11,6.11,0,0,1,2.69,5.41c-.41,4.41-3.82,6.62-7.54,6.52s-6.92-3-7.17-6.25a5.45,5.45,0,0,1,2.59-5.6c-2.35-2-3.84-3.28-3.79-6.77a8.21,8.21,0,0,1,8.2-7.77c5.18-.13,9.08,4.19,9,7.73Zm-14.45,0c-.22,3.21,2.62,5.37,5.82,5.4a5.9,5.9,0,0,0,5.91-5.51c0-3.09-3.63-4.77-6-4.78C161.84,214.8,159.13,216.94,158.94,219.7Zm1,11.48a4.71,4.71,0,0,0,5,4.56c2.29-.07,4.7-1.81,4.71-4.07,0-2.83-2.75-4.24-5.1-4.29C162.44,227.32,160,229.14,160,231.18Z"/>
  <path d="M22.35,29.74c-.13-3.54-1.41-4.87-3.93-6.73a6.11,6.11,0,0,0,2.69-5.41c-.41-4.41-3.82-6.62-7.54-6.52s-6.92,3-7.17,6.25A5.45,5.45,0,0,0,9,22.92c-2.35,2-3.84,3.28-3.79,6.77a8.21,8.21,0,0,0,8.2,7.77c5.18.13,9.08-4.19,9-7.73Zm-14.45,0c-.22-3.21,2.62-5.37,5.82-5.4a5.9,5.9,0,0,1,5.91,5.51c0,3.09-3.63,4.77-6,4.78-2.85,0-5.56-2.12-5.75-4.89Zm1-11.48a4.71,4.71,0,0,1,5-4.56c2.29.07,4.7,1.81,4.71,4.07,0,2.83-2.75,4.24-5.1,4.29C11.4,22.13,9,20.31,8.93,18.27Z"/>
</svg>
