<svg xmlns="http://www.w3.org/2000/svg" viewBox="0 0 178.58 249.45">
  <title>C9</title>
  <path d="M130.7,26.49c-7.85.17-11.38,9-5.56,15.86.84,1,.93,1.57-.61.61-3.92-2.62-11.43-.9-11.81,7.1-.47,9.85,13.31,12.69,15.9,2.21.14-1.11,1-1.08.82.49A32.57,32.57,0,0,1,126,64.89h9.34A32.58,32.58,0,0,1,132,52.77c-.22-1.57.68-1.59.82-.49,2.59,10.48,16.37,7.64,15.9-2.21-.38-8-7.89-9.72-11.81-7.1-1.55,1-1.46.39-.61-.61,5.82-6.86,2.3-15.69-5.56-15.86h0Z"/>
  <path d="M47.87,26.49c-7.85.17-11.38,9-5.56,15.86.84,1,.93,1.57-.61.61-3.92-2.62-11.43-.9-11.81,7.1-.47,9.85,13.31,12.69,15.9,2.21.14-1.11,1-1.08.82.49a32.57,32.57,0,0,1-3.4,12.12h9.34a32.58,32.58,0,0,1-3.4-12.12c-.22-1.57.68-1.59.82-.49,2.59,10.48,16.37,7.64,15.9-2.21-.38-8-7.89-9.72-11.81-7.1-1.55,1-1.46.39-.61-.61,5.82-6.86,2.3-15.69-5.56-15.86h0Z"/>
  <path d="M130.7,223.63c-7.85-.17-11.38-9-5.56-15.86.84-1,.93-1.57-.61-.61-3.92,2.62-11.43.9-11.81-7.1-.47-9.85,13.31-12.69,15.9-2.21.14,1.11,1,1.08.82-.49a32.57,32.57,0,0,0-3.4-12.12h9.34a32.58,32.58,0,0,0-3.4,12.12c-.22,1.57.68,1.59.82.49,2.59-10.48,16.37-7.64,15.9,2.21-.38,8-7.89,9.72-11.81,7.1-1.55-1-1.46-.39-.61.61,5.82,6.86,2.3,15.69-5.56,15.86h0Z"/>
  <path d="M47.87,223.63c-7.85-.17-11.38-9-5.56-15.86.84-1,.93-1.57-.61-.61-3.92,2.62-11.43.9-11.81-7.1-.47-9.85,13.31-12.69,15.9-2.21.14,1.11,1,1.08.82-.49a32.57,32.57,0,0,0-3.4-12.12h9.34a32.58,32.58,0,0,0-3.4,12.12c-.22,1.57.68,1.59.82.49,2.59-10.48,16.37-7.64,15.9,2.21-.38,8-7.89,9.72-11.81,7.1-1.55-1-1.46-.39-.61.61,5.82,6.86,2.3,15.69-5.56,15.86h0Z"/>
  <path d="M89.29,105.86c-7.85.17-11.38,9-5.56,15.86.84,1,.93,1.57-.61.61-3.92-2.62-11.43-.9-11.81,7.1-.47,9.85,13.31,12.69,15.9,2.21.14-1.11,1-1.08.82.49a32.57,32.57,0,0,1-3.4,12.12H94a32.58,32.58,0,0,1-3.4-12.12c-.22-1.57.68-1.59.82-.49,2.59,10.48,16.37,7.64,15.9-2.21-.38-8-7.89-9.72-11.81-7.1-1.55,1-1.46.39-.61-.61,5.82-6.86,2.3-15.69-5.56-15.86h0Z"/>
  <path d="M164.81,209.47c3.14-.07,4.55-3.75,2.22-6.61-.34-.42-.37-.66.25-.26,1.57,1.09,4.57.37,4.72-3,.19-4.11-5.32-5.29-6.36-.92-.05.46-.41.45-.33-.2a14,14,0,0,1,1.36-5.05h-3.73a14,14,0,0,1,1.36,5.05c.09.65-.27.66-.33.2-1-4.37-6.55-3.18-6.36.92.15,3.33,3.16,4,4.72,3,.62-.4.58-.16.25.26-2.33,2.86-.92,6.54,2.22,6.61h0Z"/>
  <path d="M47.87,79.4c-7.85.17-11.38,9-5.56,15.86.84,1,.93,1.57-.61.61-3.92-2.62-11.43-.9-11.81,7.1-.48,9.85,13.31,12.69,15.9,2.21.14-1.11,1-1.08.82.49a32.57,32.57,0,0,1-3.4,12.12h9.34a32.58,32.58,0,0,1-3.4-12.12c-.22-1.57.68-1.59.82-.49,2.59,10.48,16.37,7.64,15.9-2.21-.38-8-7.89-9.72-11.81-7.1-1.55,1-1.46.39-.61-.61,5.82-6.86,2.3-15.69-5.56-15.86h0Z"/>
  <path d="M47.87,170.71c-7.85-.17-11.38-9-5.56-15.86.84-1,.93-1.57-.61-.61-3.92,2.62-11.43.9-11.81-7.1-.47-9.85,13.31-12.69,15.9-2.21.14,1.11,1,1.08.82-.49a32.57,32.57,0,0,0-3.4-12.12h9.34a32.58,32.58,0,0,0-3.4,12.12c-.22,1.57.68,1.59.82.49,2.59-10.48,16.37-7.64,15.9,2.21-.38,8-7.89,9.72-11.81,7.1-1.55-1-1.46-.39-.61.61,5.82,6.86,2.3,15.69-5.56,15.86h0Z"/>
  <path d="M130.7,79.4c-7.85.17-11.38,9-5.56,15.86.84,1,.93,1.57-.61.61-3.92-2.62-11.43-.9-11.81,7.1-.47,9.85,13.31,12.69,15.9,2.21.14-1.11,1-1.08.82.49A32.57,32.57,0,0,1,126,117.8h9.34a32.58,32.58,0,0,1-3.4-12.12c-.22-1.57.68-1.59.82-.49,2.59,10.48,16.37,7.64,15.9-2.21-.38-8-7.89-9.72-11.81-7.1-1.55,1-1.46.39-.61-.61,5.82-6.86,2.3-15.69-5.56-15.86h0Z"/>
  <path d="M130.7,170.71c-7.85-.17-11.38-9-5.56-15.86.84-1,.93-1.57-.61-.61-3.92,2.62-11.43.9-11.81-7.1-.47-9.85,13.31-12.69,15.9-2.21.14,1.11,1,1.08.82-.49a32.57,32.57,0,0,0-3.4-12.12h9.34a32.58,32.58,0,0,0-3.4,12.12c-.22,1.57.68,1.59.82.49,2.59-10.48,16.37-7.64,15.9,2.21-.38,8-7.89,9.72-11.81,7.1-1.55-1-1.46-.39-.61.61,5.82,6.86,2.3,15.69-5.56,15.86h0Z"/>
  <path d="M13.77,40c-3.14.07-4.55,3.75-2.22,6.61.34.42.37.66-.25.26-1.57-1.09-4.57-.37-4.72,3-.19,4.11,5.32,5.29,6.36.92.05-.46.41-.45.33.2A14,14,0,0,1,11.91,56h3.74a14,14,0,0,1-1.36-5.05c-.09-.65.27-.66.33-.2,1,4.37,6.55,3.18,6.36-.92-.15-3.33-3.16-4-4.72-3-.62.4-.58.16-.25-.26,2.33-2.86.92-6.54-2.22-6.61h0Z"/>
  <path d="M6.4,32.38l2.42-.77a4.28,4.28,0,0,0,4.7,3c3.5-.28,4.66-4.19,4.92-7.64a6.94,6.94,0,0,1-5.15,2.1c-5.57-.3-7-4.76-7.05-9.43-.15-3.94,1.47-6.79,4.27-8.1a9.56,9.56,0,0,1,6.35.12c3.41,1.8,4.68,4.91,4.45,12.35,0,6.11-1.3,13.23-7.85,13.39a6.35,6.35,0,0,1-7.05-5Zm9.49-6.7a5.72,5.72,0,0,0,2.29-2.41,4.53,4.53,0,0,0,.44-3c-.31-4.43-2.63-6.95-6-6.45-1.88.28-2.91,1.33-3.5,3.29C8,20.75,9.4,25,12,26A5,5,0,0,0,15.88,25.68Z"/>
  <path d="M172.18,217.07l-2.42.77a4.28,4.28,0,0,0-4.7-3c-3.5.28-4.66,4.19-4.92,7.64a6.94,6.94,0,0,1,5.15-2.1c5.57.3,7,4.76,7.05,9.43.15,3.94-1.47,6.79-4.27,8.1a9.56,9.56,0,0,1-6.35-.12c-3.41-1.8-4.68-4.91-4.45-12.35,0-6.11,1.3-13.23,7.85-13.39a6.35,6.35,0,0,1,7.05,5Zm-9.49,6.7a5.72,5.72,0,0,0-2.29,2.41,4.53,4.53,0,0,0-.44,3c.31,4.43,2.63,6.95,6,6.45,1.88-.28,2.91-1.33,3.5-3.29,1.09-3.62-.29-7.85-2.88-8.82A5,5,0,0,0,162.7,223.77Z"/>
</svg>
