<svg xmlns="http://www.w3.org/2000/svg" viewBox="0 0 178.58 249.45">
  <title>D1</title>
  <path d="M164.81,193.47a45.14,45.14,0,0,0,5.82,8,45.13,45.13,0,0,0-5.82,8,45.13,45.13,0,0,0-5.82-8A45.13,45.13,0,0,0,164.81,193.47Z" style="fill: #d40000"/>
  <path d="M13.77,40a45.14,45.14,0,0,0,5.82,8,45.13,45.13,0,0,0-5.82,8A45.13,45.13,0,0,0,8,48,45.13,45.13,0,0,0,13.77,40Z" style="fill: #d40000"/>
  <path d="M89.29,105.52c4.15,6.85,8.51,13.51,14,19.2-5.45,5.69-9.82,12.35-14,19.2-4.15-6.85-8.51-13.51-14-19.2C80.78,119,85.14,112.38,89.29,105.52Z" style="fill: #d40000"/>
  <path d="M172.88,212v2.26h-2.15l-4.59,24.14h-2.61l-5.05-24.14h-1.74V212h5.93v2.26h-1.6l.64,3.7h6l.46-3.7h-1.6V212Zm-10.67,8.59,2.6,12.92,2.43-12.92Z" style="fill: #d40000"/>
  <path d="M21.85,37.47V35.21H19.69L15.11,11.07H12.49L7.44,35.21H5.7v2.26h5.93V35.21H10l.64-3.7h6l.46,3.7h-1.6v2.26ZM11.18,28.88,13.78,16l2.43,12.92Z" style="fill: #d40000"/>
</svg>
