<svg xmlns="http://www.w3.org/2000/svg" viewBox="0 0 178.58 249.45">
  <title>D10</title>
  <path d="M164.81,193.47a45.13,45.13,0,0,0,5.82,8,45.12,45.12,0,0,0-5.82,8,45.12,45.12,0,0,0-5.82-8A45.13,45.13,0,0,0,164.81,193.47Z" style="fill: #d40000"/>
  <path d="M47.88,184.89c4.15,6.85,8.51,13.51,14,19.2-5.45,5.69-9.82,12.35-14,19.2-4.15-6.85-8.51-13.51-14-19.2C39.36,198.4,43.73,191.74,47.88,184.89Z" style="fill: #d40000"/>
  <path d="M13.77,40a45.13,45.13,0,0,0,5.82,8,45.12,45.12,0,0,0-5.82,8A45.12,45.12,0,0,0,8,48,45.13,45.13,0,0,0,13.77,40Z" style="fill: #d40000"/>
  <path d="M130.7,184.89c4.15,6.85,8.51,13.51,14,19.2-5.45,5.69-9.82,12.35-14,19.2-4.15-6.85-8.51-13.51-14-19.2C122.19,198.4,126.56,191.74,130.7,184.89Z" style="fill: #d40000"/>
  <path d="M47.88,132c4.15,6.85,8.51,13.51,14,19.2-5.45,5.69-9.82,12.35-14,19.2-4.15-6.85-8.51-13.51-14-19.2C39.36,145.49,43.73,138.83,47.88,132Z" style="fill: #d40000"/>
  <path d="M130.7,132c4.15,6.85,8.51,13.51,14,19.2-5.45,5.69-9.82,12.35-14,19.2-4.15-6.85-8.51-13.51-14-19.2C122.19,145.49,126.56,138.83,130.7,132Z" style="fill: #d40000"/>
  <path d="M89.29,158.44c4.15,6.85,8.51,13.51,14,19.2-5.45,5.69-9.82,12.35-14,19.2-4.15-6.85-8.51-13.51-14-19.2C80.78,171.95,85.14,165.29,89.29,158.44Z" style="fill: #d40000"/>
  <path d="M130.7,26.15c4.15,6.85,8.51,13.51,14,19.2-5.45,5.69-9.82,12.35-14,19.2-4.15-6.85-8.51-13.51-14-19.2C122.19,39.66,126.56,33,130.7,26.15Z" style="fill: #d40000"/>
  <path d="M47.88,26.15c4.15,6.85,8.51,13.51,14,19.2C56.39,51,52,57.69,47.88,64.55c-4.15-6.85-8.51-13.51-14-19.2C39.36,39.66,43.73,33,47.88,26.15Z" style="fill: #d40000"/>
  <path d="M47.88,79.07c4.15,6.85,8.51,13.51,14,19.2-5.45,5.69-9.82,12.35-14,19.2-4.15-6.85-8.51-13.51-14-19.2C39.36,92.58,43.73,85.92,47.88,79.07Z" style="fill: #d40000"/>
  <path d="M130.7,79.1c4.15,6.85,8.51,13.51,14,19.2-5.45,5.69-9.82,12.35-14,19.2-4.15-6.85-8.51-13.51-14-19.2C122.19,92.61,126.56,85.95,130.7,79.1Z" style="fill: #d40000"/>
  <path d="M89.29,52.61c4.15,6.85,8.51,13.51,14,19.2-5.45,5.69-9.82,12.35-14,19.2-4.15-6.85-8.51-13.51-14-19.2C80.78,66.12,85.14,59.46,89.29,52.61Z" style="fill: #d40000"/>
  <g>
    <path d="M172.83,212v26.4h-2.56V212Z" style="fill: #d40000"/>
    <path d="M162.68,238.38c2.46,0,4.44-2.25,4.44-5V217c0-2.79-2-5-4.44-5h-1.44a4.76,4.76,0,0,0-4.45,5v16.31c0,2.79,2,5,4.45,5Zm-.74-2.5a2.56,2.56,0,0,1-2.62-2.51V216.84a2.63,2.63,0,0,1,5.25,0v16.53A2.56,2.56,0,0,1,161.94,235.88Z" style="fill: #d40000"/>
  </g>
  <g>
    <path d="M5.76,37.47V11.07H8.32v26.4Z" style="fill: #d40000"/>
    <path d="M15.9,11.07c-2.46,0-4.44,2.25-4.44,5V32.43c0,2.79,2,5,4.44,5h1.44a4.76,4.76,0,0,0,4.45-5V16.11c0-2.79-2-5-4.45-5Zm.74,2.5a2.56,2.56,0,0,1,2.62,2.51V32.6a2.63,2.63,0,0,1-5.25,0V16.08A2.56,2.56,0,0,1,16.65,13.57Z" style="fill: #d40000"/>
  </g>
</svg>
