<svg xmlns="http://www.w3.org/2000/svg" viewBox="0 0 178.58 249.45">
  <title>D11</title>
  <path d="M14.11,56a45.13,45.13,0,0,0-5.82-8,45.12,45.12,0,0,0,5.82-8,45.12,45.12,0,0,0,5.82,8A45.13,45.13,0,0,0,14.11,56Z" style="fill: #d40000"/>
  <path d="M164.47,209.47a45.13,45.13,0,0,0-5.82-8,45.12,45.12,0,0,0,5.82-8,45.12,45.12,0,0,0,5.82,8A45.13,45.13,0,0,0,164.47,209.47Z" style="fill: #d40000"/>
  <path d="M48.06,64.56c-4.15-6.85-8.51-13.51-14-19.2,5.45-5.69,9.82-12.35,14-19.2,4.15,6.85,8.51,13.51,14,19.2C56.58,51,52.21,57.7,48.06,64.56Z" style="fill: #d40000"/>
  <path d="M130.52,223.3c-4.15-6.85-8.51-13.51-14-19.2,5.45-5.69,9.82-12.35,14-19.2,4.15,6.85,8.51,13.51,14,19.2C139,209.79,134.67,216.45,130.52,223.3Z" style="fill: #d40000"/>
  <path d="M24,230V19.46H154.6V230ZM71,54.47c-4.67-1.27-4.56,3.37-1.14,3.54,3.83.33,5.47-6.2,3.64-8.78C73.51,49.23,71.92,54.15,71,54.47ZM40.7,80.71l-5.61,2.5,0,4.19a23,23,0,0,0,5.63-6.69ZM79,206.61c-1.1-.56-2.43-1.76-2.23-2s.7.08,1.24.33c4.38,1.85,7.79,1.73,13-.17.4-.14,1,.61.77,1-2.31,3.43-9.8,2.21-12.79.78Zm-1.53-5.08c3.24,3,7.64,4,11.41,1.2a.49.49,0,0,0,.15-.51c-.11-.28-.11,0-1.72.58-3.62,1.36-6.67.24-9.65-2-1.23-.95-1.79-1.41-1.79-1.66s.23-.37.64-.3c.26,0,1,.19,1.49.24.91.07.84,0,1.76-.39a9.41,9.41,0,0,1,5.88-.88,11.43,11.43,0,0,0,1.17.22c.46-.15-.22-.77-2-2.16a4.62,4.62,0,0,1-.92-.75c-.22-.37,0-.47.27-.46.72,0,4,2.72,5.08,4.34.34.49.57.54.57,1.05a2,2,0,0,0,.42,1.78,7.44,7.44,0,0,1,.81,1.43s-.08.31-.46.07c-.17,0-.25-.22-.57-.17a5.68,5.68,0,0,0-1.21.49c-4.24,2.78-7.71,1.59-11.11-1s-.63-1.39-.26-1Zm9.19-.27a4.91,4.91,0,0,0-.77-2.17,2,2,0,0,0-3.11-.16,9.24,9.24,0,0,0-1,2.13,6.53,6.53,0,0,0,.93.21,2.54,2.54,0,0,1,.76-1.91,1.41,1.41,0,0,1,1.42,0c.59.29.84,1.47.85,1.93a2,2,0,0,0,.9,0Zm-5.5-2.42c-.64.29-1.47.48-1.67.91s.65.72,1.1.93c.65.29.65.2.86-.3.13-.31.3-.71.46-1.08.48-.93,0-.8-.76-.46Zm7.05,1.49c.27-.3.29-.54,0-.91a2.56,2.56,0,0,0-1-.54c-.59-.2-.85-.44-.48.36l.53,1.15c.24.49.43.39.76.16a1.09,1.09,0,0,0,.22-.22ZM27.4,161.16a24.92,24.92,0,0,0,3.26-1.09c.79-.3.88-.29.57-.73a3.79,3.79,0,0,1-.1-1.84,4.16,4.16,0,0,0-3.93,1.45C26.75,159.73,26.59,160.9,27.4,161.16Zm-.17,3.56c.34.31.54.28,1.68-.14a5,5,0,0,1,2-.71c1.52-.4,1.52-.24,1.09-1.22a2.11,2.11,0,0,1-.2-1.23c.07-.49.13-.56-.14-.64-.72-.23-4.15,1-4.7,2A1.46,1.46,0,0,0,27.23,164.71Zm78.31,33.16c.06.78.08,2,.08,2.63,0,1.26.47,1.56,1,.86.53-1.65.74-4.25,2-5.56.94-.27,2.09.21,2.77-.44a1.85,1.85,0,0,0-1.08-3.31C107.44,192,105.34,195.51,105.54,197.87Zm7.06-4a2.41,2.41,0,0,1-3.11,2.32c-.66-.17-.85,0-1.29.92a33.63,33.63,0,0,0-1.59,6.83c-.11,1.52-.67,5.47-.26,6.72,4.61,5.71,9.47,11.65,14.79,17.52h31.73V190.87l-9.09-8.69,0-13.78c-9.83,4.64-19.64,9.34-29.45,14,2.14,6.86-5.11,8.3-6.7,3.7-1.38,1.26-2.51,8.08-2,8.41,0,0,.18.25.49-.3a5.44,5.44,0,0,1,1.86-2C110,191,112.46,191.61,112.6,193.83Zm-25.18-.7a2.13,2.13,0,0,1,.57-3.68,4.34,4.34,0,0,1,3,.17,4.31,4.31,0,0,0,2.78.28c.72-.08.59,1.43-.17,1.82-.53.27-1.75.14-3.23-.7-2.55-1.46-3.68.43-2.09,2.13.88.94-.62.19-.85,0ZM34.85,170.56a1.43,1.43,0,0,0-.47-2.69,1.46,1.46,0,0,0-.92,2.68c0,.24-.61,0-.94-.2-.51-.38,0-1.88-.52-1.94a30.77,30.77,0,0,0-4.28,1.51c-1.59.9-.1,2.94.82,2.71,1.92-.48,4.52-.91,6.31-2.07Zm-7.9-2.91c0,.91.29,1.31.88,1.32a26.35,26.35,0,0,0,3.56-1.19c.91-.3,1.28-.63.58-1.2a1.39,1.39,0,0,1-.29-1.24c.24-.75.06-.79-.26-.82a11.92,11.92,0,0,0-2.89,1c-1,.37-1.16.54-1.42,1.07a3.14,3.14,0,0,0-.17,1.08Zm10.31,11.71a7.39,7.39,0,0,0,.69-2.22c-.1-.65-.58-.8-1-.38s-.38,1.17-.69,1.71a1.09,1.09,0,0,0-.19.55.74.74,0,0,0,1.2.34ZM49.81,98.24c-1.08-1-2.66,2.4-2.71,2.44l-2.19,1.91c11.63,20.06,9.61,43.15-4.61,59.56l0,1c0,2.29.69,2.19,1.66,1.12s.34-.2-.08.24-.93,1.14-1.08,1.34c.17,1.27.92,3.54.61,4.6C65.71,147,61.23,118,49.81,98.24Zm-9.54,67.43a13.3,13.3,0,0,1-.43-2.3c-.05-.52-.08-1-.1-1.53a18.67,18.67,0,0,0-.92-3.86,3,3,0,0,0-2.24-1c-.84-.05-.92,0-1.1.24-.31.47-.1,2.86.22,3.73a3.65,3.65,0,0,1-.14,2.6c-.1.37-.14.39,0,.42.79-.06,1.05-1,1.37-.74a4,4,0,0,1-.54,1.71,4.73,4.73,0,0,0,0,3.46,2,2,0,0,1,0,1.55,9.54,9.54,0,0,0-.29,2.31,2.63,2.63,0,0,1,0,2.21,5.62,5.62,0,0,0-.58,3.28c.11.35.4.05.62-.55.33-1.19.72-1.45,1.7-1.46.71,0,.78.25,1-.07a14.23,14.23,0,0,0,1.86-4,9,9,0,0,0-.4-6Zm7.58,12a2.49,2.49,0,0,0,1.09-1.39c0-.35-2.66-2.93-3.76-3.65-.5-.32-.74-.09-1.63,1.1s-.89,1.07-.74,1.27a36.08,36.08,0,0,0,3.78,2.51,1.62,1.62,0,0,0,1.26.15Zm5-4.6c-.4-.3-3.58-3.83-4.52-4-.36-.07-1.51,1.24-1.51,1.54a34.68,34.68,0,0,0,4.38,4.1C51.62,174.43,52.77,173.5,52.83,173Zm3.38-3.33c0-.21-.35-.64-1.21-1.48-2.18-2.14-3.4-3.13-3.78-3.12A3.52,3.52,0,0,0,50,167c.14.27,3.79,3.58,4.26,3.9.58.56,1.86-.75,1.94-1.15Zm3.42-3.42c.09-.31-.09-.58-.55-1-1.73-1.53-2.95-3.23-4.8-4.41A2,2,0,0,0,53,162.47c-.09.45.56,1,1.94,2.32,2.38,2.33,2.94,2.8,3.31,2.8a2.45,2.45,0,0,0,1.38-1.31Zm-25.58-2a1.13,1.13,0,0,0-1.08.2c-1.69,1.44.71,3.29,1.69,2.14a1.37,1.37,0,0,0-.61-2.34Zm29.09-1.51c0-.24-.49-.78-2.2-2.41-4.22-4-4-3.88-4.5-3.63a3.14,3.14,0,0,0-.86,1.64c2.25,2.22,3.28,3.85,6.22,5.79.5-.25,1.31-.78,1.33-1.39Zm-29,.15a1.24,1.24,0,1,0-1.66-1.08,1.23,1.23,0,0,0,1.66,1.08Zm32.45-3.54c0-.48-7.22-7.24-7.74-7.24-.35,0-.6.28-.93,1s-.26,1.06.1,1.4c.52.5,1.91,1.79,3.24,3,.78.71,1.68,1.56,2,1.88a4.61,4.61,0,0,0,1.87,1.35,3.16,3.16,0,0,0,1.45-1.43Zm-32.83-.87a1,1,0,0,0-.26-.76,1,1,0,0,0-1.65.45C31.66,159.82,33.71,159.89,33.78,158.48Zm5.35-52.62,1.41-4.32,4.32-.11.61-4.3,4.44-.64L50,92.05l4.25-.58L54,86.72l3.94-.93-.2-4.4,3.58-1.1-.14-3.83.62-.48-1.55-1.58-1.33.43,0,3.94-3.58,1.15.38,4.36L52,85.1l0,4.74-4.15.47-.3,4.18-4.05.8-.6,4.09L39,99.64l-1.2,3.6-2.6,0v2.41Zm47.81,77.46c.65.41.69.25,1.83-.39s4.66-1.37,6.33-.57,2.7,1.18,3.35.25c.76-1.09.54,1,.55,1.25,0,1.13.15,2.44-.66,1.83-.48-.25-1.7-1.8-2.37-1.35a1.64,1.64,0,0,1-2,.07c-.65-.26-1-.31-1.48.14-1.33.78-1.43.38-2.5.19s-1.56.85-2.37,1.49c-.43.25-.54.06-.87-.89s-.58-2-.67-2.25.26-.17.88.22Zm1.8-1.86c-.08-.12.57-.76,1-1a8.21,8.21,0,0,1,5.66,0c1,.35,1.1,1,.17.83-1.93-.4-4.34-.74-6.2.15a1,1,0,0,1-.64,0Zm1.63-2.75c-1.32-.49-2-1-2-1.18s.28-.15,1.32.14a6.83,6.83,0,0,0,4.47.31c1-.37,1.5-.6,1.5-.38a2,2,0,0,1-1.1,1.2,6.41,6.41,0,0,1-4.22-.09Zm29-3,1-.13-.34-4.08,3.6-1.07-.25-4.06,3.84-1.32L127,160.5l4-.79.52-4,3.76-.27.78-4.35,4-.14.83-3.62,2.69,0v-2H139.4l-.89,3.91-4,.11-.84,4.3-4.15,0-.53,4.63-3.9.64v5l-3.76,1,.29,4.27-3.76,1.37.42,4.07Zm24.56-94c.36,1.45,2.39,1,2.61-.06a1.12,1.12,0,0,0-.69-1.25c-.09,0-.41,0-.57-.17s.62-.5,1.06-.36a1.71,1.71,0,0,1,1,1.53,1.66,1.66,0,0,0,.14.72,12.79,12.79,0,0,0,2.78-.79c1.63-.45,2.22-1.39,1.86-2.49-.3-.92-1.24-1.28-2.47-.82-1.61.61-3.49.91-4.94,1.78a1.73,1.73,0,0,0-.79,1.89ZM74.77,180.17c5.53-3.89,8.79-6.11,15.89-6.5-2.53-1-2.95-2.41-3.66-3.72a36,36,0,0,0-17.65,6.27,14.71,14.71,0,0,1,5.41,4Zm30.84-5.39a28.5,28.5,0,0,0-9.19-3.93l-2.54,2.63a52.43,52.43,0,0,1,11.73,1.3Zm25.76-25c-17.3-26.61-5.68-50,6.35-64.94.39-.49.48-.51.39-.9a28.79,28.79,0,0,1-.17-4.59c-22.24,22.06-22.81,50.79-8.86,73.59,1-.89,3-2.08,2.28-3.16Zm2.59-2.28c-2.84-4.73-18-30.36,5.14-59a12.68,12.68,0,0,0-.25-2,3,3,0,0,0-.79-1.38c-9.7,14.58-23.81,32.82-6.19,64.5ZM120.73,99.29a3.39,3.39,0,0,0,.85-1.73c0-.38-.27-.69-2.88-3.34-3.48-3.53-4.07-4.07-4.52-4.07s-1.52,1-1.52,1.44c0,.19,1,1.29,3.44,3.7,4.48,4.47,4.27,4.29,4.63,4Zm3.2-6.5c0-.21-.32-.63-1.08-1.42a43.45,43.45,0,0,0-5.13-4.69,2.85,2.85,0,0,0-1.43,1.16.51.51,0,0,0,0,.68c.35.55,4.84,4.81,6.11,5.88.77.7,1.46-1.07,1.49-1.61Zm1.73-2.64a3.09,3.09,0,0,0,.95-1.77,26.86,26.86,0,0,0-2.53-2.72c-2.67-2.66-2.83-2.76-3.5-2.16s-1,1.08-.91,1.3a67.12,67.12,0,0,0,4.91,5C125.24,90.32,125.32,90.34,125.67,90.16Zm20.4-.2a1.13,1.13,0,0,0-1.2-1.92,1.21,1.21,0,0,0-.57,1.26A1.29,1.29,0,0,0,146.07,90Zm2.49-.31c2.13-.56,3.15-.93,3.59-1.6.31-.46.34-.74,0-1.49s-.69-.9-2-.17c-.92.5-3,.74-3.67,1.16-.28.25-.15.24.08.39.51.33.76.55.71,1-.12.94,0,1.08,1.31.73Zm-2.25-3.34c1-.53.82-1.8-.33-2.31a1.34,1.34,0,0,0-1.26,2.33A2,2,0,0,0,146.31,86.31Zm3.43-.52c1.49-.51,2.07-.91,2.5-1.74a2.26,2.26,0,0,0,.15-1.58c-.07-1-.55-.85-1.94-.35-.68.26-3.93,1.18-4,1.51,1.57.9,1.17,1.37,1.18,2.52.08.26.82.07,2.09-.36Zm-20.36-1.53c0-.43-4.17-4.52-4.61-4.52-.69,0-1.68,1.07-1.53,1.66a47.72,47.72,0,0,0,4.47,4.5C128.39,86.31,129.34,84.92,129.38,84.27Zm3.11-3.36c.45-.65.42-1-.12-1.36-.2-.13-1.07-.92-1.94-1.76a16.92,16.92,0,0,0-1.84-1.62c-.72-.1-2,1.06-1.88,1.65a31.46,31.46,0,0,0,4,3.93C131.58,82.18,132,81.55,132.49,80.91Zm4.94-5.28c-1.79-.93-5.31-2.88-5.31-2.88a3.75,3.75,0,0,0-2,1.41,26,26,0,0,0,4.57,4.23C135.29,78,137.34,76.16,137.43,75.63Zm5-1.82a4.36,4.36,0,0,0,.7-2.71.87.87,0,0,0-1,.06,7.85,7.85,0,0,0-.85,2.81c.11.28.8.15,1.18-.15Zm-38.82,77.55a5.38,5.38,0,0,0,2-1.28c1-.88,4.27-2.84,4.62-3.62.16-.45,0-1.09-.3-1.14s-.31.16-2.47,1.71c-1.45,1-4,2.92-4.39,3.32A.81.81,0,0,0,103.59,151.36Zm-.3,12.53c2.22-1.54,4-3.14,6.91-4.92a1.17,1.17,0,0,0,.12-1.09c-.17-.44-.4-.27-1.28.34-2.13,1.44-4.33,3.13-6.16,4.39-.59.4-1.09.62-1,.84S103,163.84,103.29,163.89Zm2.16.95c1.46-1.19,3.21-2.34,4.77-3.49a1.26,1.26,0,0,0,.05-1.25c-.18-.24,0-.19-.46.05-.63.36-4.41,2.93-5.11,3.52-.41.34-.75.51-.65.63a3.58,3.58,0,0,0,1.41.55Zm1.83.93c.3-.2,2.9-1.86,3.11-2.08s.17-1.38-.06-1.47c-.66.52-4.12,2.63-4.12,3a2,2,0,0,0,1.08.58Zm2.77.23c.4-.37.48-.43.49-.84,0-.74-.17-.71-1.23,0-.74.48-1.19.81-1.05,1.1.52.82,1.27.17,1.79-.31Zm.29,1.52c.21-.08.21-.18.18-.44s-.08-.28-.39-.28C109.29,166.82,110,167.58,110.34,167.51Zm-10.1-4.15a7.8,7.8,0,0,1,1.79-3.2c3.49-3.09,2.42-6.9.22-10,2.85-4,5.7-8.23,8.15-12.11v-6.3l.33,0c-.11,13.76.51,36.32.51,36.32l2.84,2.16-.38.19c.47-.07-8.25-5.54-13.45-7.09Zm2.56-1.57c2.41-1.82,4.76-3.26,7.16-5.2.25-.21.4-.22.41-.7,0-.91-.17-.92-1.06-.28-.4.28-1.85,1.3-3.23,2.23a31.6,31.6,0,0,0-3,2.15c-1.35,1.56-1.85,2.3-1.71,2.52s.42,0,1.46-.73Zm2.63-4.42c1.24-.82,4.21-2.88,4.48-3.13.47-.44.55-1.15.13-1.23a29,29,0,0,0-4.45,3c-.95.72-1.16.88-1.16,1.56C104.44,157.94,104.68,157.86,105.43,157.37Zm1.24-3.21c3.8-2.71,3.71-2.48,3.62-3.49,0-.34-.1-.49-.25-.52a8.19,8.19,0,0,0-1.55,1c-.76.53-1.66,1.25-2.11,1.56-1.32.92-1.76,1.16-1.76,1.69s.14.85.37.85A12.46,12.46,0,0,0,106.67,154.16Zm-.55-2.1a44.4,44.4,0,0,0,3.95-3c.32-.4.26-1.28-.15-1.28-1.76,1.18-3.87,2.72-5.36,3.94-.19.17-.44.33-.51.55a.85.85,0,0,0,.49.68c.29,0,.74-.32,1.59-.92ZM105,147.87c1.34-.91,2.55-2,3.88-2.9,1-.68,1.28-.89,1.22-1.75,0-.5-.47-.21-2.16.92a9.22,9.22,0,0,0-2.25,1.72c-.31.71-1.32,1.38-1.38,2.2,0,.3.2.16.68-.18Zm4.11-5.45c1-.68,1.13-.7,1-1.6-.14-1.13-.26-1.07-1.24.44-.65,1-.87,1.27-.77,1.46s.35.13,1-.29Zm-3.74-8.33c-.11-.5-.26-.39-.78.06-1,.84-1.1,1.44-.51,1.76.31.17.56.15.75-.26A4.73,4.73,0,0,0,105.35,134.09ZM100,142a2.61,2.61,0,0,0-1.11-1.31c-.42-.22-.68-.18-1.09.34s-.2.76.36,1.47c.41.52.58.69.9.69.39-.15,1-.68.94-1.18ZM79.39,161.85c-.27-.53-.85-1.08-1.11-1a1,1,0,0,0-.56.75,1.09,1.09,0,0,0,.89.87C79.23,162.4,79.62,162.3,79.39,161.85Zm2.52-.8a15.41,15.41,0,0,0-1.79-1.84c-.28,0-.93.69-.93,1a4.28,4.28,0,0,0,1.3,1.81C81.3,161.92,82.81,162,81.9,161.05Zm3.11.16a25.21,25.21,0,0,0-3.34-3.53c-.29,0-.87.64-.87.94a10.52,10.52,0,0,0,1.9,2.48c.45.47.49.54,1.05.46s1.4,0,1.26-.34Zm5.4-.73c0-.66-.34-1-1.72-2.51-.5-.54-1.35-1.49-1.88-2.09-1-1.18-1.47-1.54-1.89-1.54a1.1,1.1,0,0,0-.82.86,61.85,61.85,0,0,0,4.84,5.61c.51.55.74.71,1.23.45.28-.19.24-.52.24-.77Zm-4-7.81c-.52.42-.71.6-.71.88s4.38,5.26,4.77,5.26c.23,0,.19,0,.33-.55.27-1.57-.16-2-1.29-3.07-.76-.7-2.3-3.09-3.1-2.51Zm7.74-3.23c-1.22-1.47-1.9-2.14-2.15-2.14a1.19,1.19,0,0,0-.7.47c-.46.43-.41.42-.12.93a7.47,7.47,0,0,0,.94,1.17c.67.7,1,.92,1.35.58s1-.65.69-1Zm-.64-3.66a1.13,1.13,0,0,0-.8.83,7.64,7.64,0,0,0,1.69,2.12c.56.5.87.69,1.21.31a.92.92,0,0,0,0-1.13c-.5-.57-1.58-2.09-2.14-2.12Zm3.44.36a5.53,5.53,0,0,0-1.66-2.22c-.33,0-1,.77-1,1.12A2.78,2.78,0,0,0,95,146.2c.89,1,1.12,1.27,1.32,1.11A1.68,1.68,0,0,0,97,146.15Zm1.41-1.84c.08-.36-.14-.73-.64-1.36-.63-.79-.93-.84-1.52-.23a1,1,0,0,0-.32.53,5.63,5.63,0,0,0,1.56,2c.56-.07.74-.48.93-.91Zm-2.31,4.13a1.47,1.47,0,0,1-.86,1.14c-4,2.89-3.88,7.6-4.73,11.95-6.49-.07-16.75,2.6-16.69,2.74l34.49-34.82s.43.11.17.41c-2.79,2-2.62,5.91-4.45,7.87-3.07,3.71-5.92,6.93-7.92,10.71ZM77.36,162.67c.06-.39-.31-.5-.62-.18s-.19.55.25.5c.23,0,.34-.12.37-.32ZM88,161.21c.13-.33-.18-.64-2-2.69s-2.3-2.56-2.62-2.56a1.62,1.62,0,0,0-.95,1,2.78,2.78,0,0,0,.65.94c.36.39,1,1.15,1.52,1.69a11.9,11.9,0,0,0,1.52,1.6,1.52,1.52,0,0,0,1,.2C87.78,161.34,87.93,161.36,88,161.21Zm3.2-6.53a7.91,7.91,0,0,0,.31-.92,17.56,17.56,0,0,0-2.76-3c-.48-.31-1.38.7-1.15,1.29a15,15,0,0,0,1.56,1.84c1,1.08,1.52,1.59,1.68,1.56s.19-.28.36-.81Zm1-2.53a1.79,1.79,0,0,0,.31-.75,4.33,4.33,0,0,0-1-1.29c-1.05-1.19-1.32-1.32-1.9-.77s-.38.81.63,2c1.26,1.43,1.41,1.61,1.92.86Zm9-11.32c.39-.47.4-.7,0-1.13l-.49-.59c-.32-.39-.75-.32-1.2.18a1.43,1.43,0,0,0-.35.57,2.64,2.64,0,0,0,.5.74c.62.73,1,.81,1.49.23Zm1.38-1.79c.27-.41.15-.86-.35-1.31s-.71-.45-1-.08-.37.66.1,1.19,1,.69,1.29.21Zm1.11-1.48a.71.71,0,0,0,0-1.11c-.31-.39-.63-.5-1-.33-.57.3-.51.83.05,1.42.34.36.5.4.88,0ZM77.31,211.82c7.06.79,14.65,1.35,28-.73l.07-4.54c-4.17,3.26-9.65,1-10-2.72A38.86,38.86,0,0,1,97,193.88c.56-2,.72-2.83.2-3.23-1.15-.65-3.2-.73-3.73-2.09-.25-.72-.27-1.48.09-.94a6.78,6.78,0,0,0,2.54,1.1c1.81.4,2.1.54,2.31,1.28a9.94,9.94,0,0,1-.65,3.56,19.7,19.7,0,0,0-.74,3.06c0,.35.28.41.59.31a13.31,13.31,0,0,0,1.17-1c1.74-1.55,2.25-1.51.76,0-.59.6-1.41,1.44-1.41,1.5,0,.32.3.28,1,0a7.67,7.67,0,0,1,4.52.21c1.33.67,1.39.64,1.36-1.39a46.58,46.58,0,0,0-2.1-11.81c-1.89-5.35-5.81-10.32-11.6-10.1-7.06.37-11.32,3.18-16.12,6.55,2.9,6.44-1.29,11.37-2.81,12-.15.06,1.9,6.55,2.78,9.84.79,3,2.13,9,2.13,9Zm30-155.31c-.16-.42-4.09-13.23-5.19-18.58-10.62-.62-18.47-1.5-27.81,1.16,0,0-.2,3.61-.1,3.78.1.45.42.44.68.29,4.32-2.37,9-1.3,9.32,4.55.12,2.24-.63,3.81-.76,5.93-.12,1.85-1.58,4.32-.69,5.73a5.27,5.27,0,0,0,1.58.88c1.59.68,2.21,1.3,2.32,2.34.17.72-.26,1.2-.4.46-.08-.47-.17-.88-2.12-1.55s-2.42-1.41-2.61-1.81a2.25,2.25,0,0,1,0-1.82,20.75,20.75,0,0,0,1-4.67c0-.32-.38-.17-.83.22a24.16,24.16,0,0,1-3.14,2.06,5.21,5.21,0,0,1,1.11-1.36,13.33,13.33,0,0,0,1.9-2c0-.32-.12-.1-.94.15a6.67,6.67,0,0,1-4.18-.15c-.94-.41-1.6-.65-1.74-.43-.35,5.7.5,11.58,2.89,16.17,2.14,4.17,6.59,9.38,13.29,8.21,6.92-1.21,13.65-6.78,13.4-6.78-2.58-5.85.36-10.2,3-12.81ZM52.52,212.2c-5-4.32-12.69-7.29-17-8.28v10.89L26,223.91v4.24H46.33l13.36-19.6s.64-.12.72-.24a93.19,93.19,0,0,0-8.49-22.9,4.48,4.48,0,0,1-6.38-.61c-1.68-1.89-.65-5.21.95-6.42a24.11,24.11,0,0,0-6-3.31c-.38-.09-.95.68-1.13,1.38-.33,1.13-.89,2.15-1.26,3.29-.41,1-.81,1.1-1.42.83-1-.28-1.21-.38-1.21-.38l0,12.39a26.12,26.12,0,0,1,17,19.62ZM83,79.77l2.17-2.36A60.8,60.8,0,0,1,73.9,75.05,37.07,37.07,0,0,0,83,79.77ZM71,73.13s8.67,4.25,14.72,3.13c-5.51-2.19-9.7-7.3-11.48-17.71-.39,2-1.2,6.22-2.47,6.68-1.78-6.91-9-2.89-6.08,2.74-7.27,5-16,7.82-23.93,11.67,0,0-1.19,3.66-7.13,8.68-.61-5.8.22-14.61-.48-20.53L24.88,59a33.08,33.08,0,0,1,0,4.68,3,3,0,0,0,1,.73c.6,33.9-.2,98.2-.2,98.2.09,19,.43,37.86.11,56.71l-.32,4.54,9.5-9.06A81,81,0,0,1,35,203.47c6,1.21,11.59,4,16.61,7.12.63.18-3.08-12.34-16.57-17.89,0,0,0-3.91,0-12.4,0-8.2-.13-9.06-.31-9.2-.55.59-7.45,2.92-7.8,2.53.18.06-1.95-14.51-.1-16.72l6.6.14c1.89,1.53,1.13-.33,2.23-.64.66-.18,3.71,1,3.71,1,12.58-14.87,11.33-39.31,2.3-53.07-2.31,1.88-4.77,4.43-7.09,5.52,0-.08,0-7.58,0-7.58,12-7.72,25.1-30.1,24.27-30.17A59.41,59.41,0,0,1,64,77.8L52.09,95c2.72,5.48,5.47,10.45,7.25,15.26.24.65,1,.63,1.17,1.32s-.55,1.4-.46,2c2.51,9.59,3.07,19.76.6,29-.52,2.07.43,3.76,1.71,5.32.11.14-1.19-1.12-1.3-1.19-.44-.27-1.18.67-1.34,1.85.1.72.49.85,1,1.44.92.76,4.56,4.35,6.16,6,1.42,1.45,1.79,1.52,2.75.49.27-.25.55-.6.81-.81,0,.08.4-.29.52-.41l21.44-20.94c2.49-2.43-21.4,22-21.4,22S59.43,167.69,56.59,170.5s-3.33,3.53-3.45,3.75c-.21.38.95.37,1.47.3a4.13,4.13,0,0,1-.93.11c-3-.41-4,2.66-5.95,3.34-5,3.58-1.65,9.32,3.16,7.42l1.17-.56a108.14,108.14,0,0,1,9.09,23.86l-.8.37-12.68,19h71.91c-5.17-5.15-9.56-11.46-14-16.19-7.17,2.15-28.86,1.71-28.51.78,0,0-3.28-13.3-5.14-19.83,5.89-5.05,5.29-13-3.27-16.6a32.09,32.09,0,0,1,18.62-7c2,5,6.65,5.37,8.85.74,0-.05,8.27,2.54,11.31,5.34-4.51-.47-9-1.37-13.48-1.58a16.63,16.63,0,0,1,9.32,10.36c.63,1.67,1.61,7.2,1.86,7.22,0,0,1.51-6.39,2.67-6,3,6.22,8.11,1.54,5.95-3.41,7.58-3.62,16.12-7.67,23.1-11,2-3.07,7-8.67,7.33-8.7l.26,19.78,9.14,8.41s.28-85.39.28-98.17c-.31-21.22-.05-45.54-1-65.39V21.17h-19.4L119.57,41.55a2.23,2.23,0,0,0-.1.46,97.71,97.71,0,0,0,8.14,22.88c5.27-4,9.7,2.57,5.75,6.38-.36.35-.82.86-.82.86,2.57,1.24,4.69,2.63,7,3.54.9-1.34,1.17-3.33,1.78-4.84.15-.58.59-.65,1.46-.55,1.12.13,1.11.6,1.08-6.53l0-6.12c-6.75-3.11-15.69-11-16.11-19.25,3.9,2.84,13.58,7.68,16,8.05,1.05.29.18-2.25.21-3,.28.19.39,3,.39,3-4-1.2-6-1-15.93-6.69,1.7,8.09,9.79,14.47,15.67,17.38,0,0,.25,3.84.23,8.15,0,13.13.09,13.76.09,13.76,1.9-.18,2.38-1.53,8.53-2.32a98.65,98.65,0,0,1,.08,15.66c-4.95,1.09-7.31,2.17-8.39-1-.26.15-.37,1.34-.47,2.59-.12.63-3.39-.47-3.72-.65-14.13,16.28-12.93,35-3.33,52.37a60.07,60.07,0,0,1,7-4.46c.07,2.21.1,6.75.1,6.75-11.06,8.12-24.31,29.64-23.86,29.7l-4.49-5.37s2.83-4.5,3.83-5.69a8,8,0,0,0,.19-1.53l6.87-9.94c-2.93-6.63-6.95-11.73-8-18.21-4.58-20.71.38-31,0-31.8,0,0-.06-.41-.16-.5s0-.24.21-.54c.33-.57.85-1.75.67-2.1s-3.85-4-7-7c-1.68-1.61-1.61-1.79-2.47-.92-.32.33-1.11,1.25-1.11,1.25C97.34,106,88.2,115.68,76.65,127l-.55-.5c16.8-16.71,33.76-33.26,50.4-50.13l-2.93,0a.75.75,0,0,1,.37-.47,9.18,9.18,0,0,0,4.35-1.14c2.37-1.76,5.78-4.13,6-6.45-.17-4.48-3.95-5.13-6.67-2.94a83.65,83.65,0,0,1-8.4-22.65c-.08-.38-.61-1-.69-1.47.81-2.54,13.68-20.09,13.68-20.09H60L73.75,37.62c0-.65,19.6-3,28.58-.23l5.47,19.43c-5,4.8-6.43,12.7,2.7,16.82.18.39-.87,1-.87,1,.15-.24.4-.48.3-.7a20.17,20.17,0,0,1-5.1-3.8c-5.49,4.3-10.63,6.69-15.66,6.9,0,0,2.66,1.8,3.17,3.78-3.22-5-6.28-3.76-9.34-.86-3.88-1.85-6.31-1.35-11.95-6.84Zm-.73,47.56,2-2a10.2,10.2,0,0,1,2.32-5.37c1.88-2.26,4-4.38,5.48-6.38,1.84-2.41,2.83-4.6,2.35-5.61,2.74-.49,5.25-2.91,5.33-7.3A18.31,18.31,0,0,1,89,88.44s19.1-.65,32.24-13.18c0,0,.92.2.7.37a45.69,45.69,0,0,1-16.53,11l-34.51,34.5Zm3.82-4c.52-.52.63-.69.34-.93-.45-.37-1.3.39-1.3,1.16,0,.49.39.34,1-.23ZM75.92,115c.41-.39.4-.68.06-1s-1.14-.18-1.37.57.67,1.06,1.32.45Zm1.57-1.59a2,2,0,0,0,.38-.55c0-.27-.66-.87-.95-.87a1.41,1.41,0,0,0-1,1c0,.29.66.89,1,.89A1.27,1.27,0,0,0,77.49,113.38Zm1.48-3c-.47-.4-.78-.4-1.17,0s-.4.95.13,1.42.58.38,1.14,0S79.62,111,79,110.42Zm1.74-.26c.51-.43.44-.78-.12-1.33s-1-.59-1.45,0a1.07,1.07,0,0,0-.18.53,2.68,2.68,0,0,0,1.21,1.08,1.07,1.07,0,0,0,.54-.31Zm1.67-1.65c.43-.45.38-.77-.24-1.41s-.88-.58-1.34-.15-.38.9.16,1.44S81.9,109,82.39,108.5Zm1.9-1.92c.32-.34.23-.31,0-.67a4.36,4.36,0,0,0-1.65-1.49c-.36,0-.68.58-.68,1.15s.28.8,1,1.37c.48.38.33.41.7.19a2.48,2.48,0,0,0,.62-.55Zm1.5-1.38c.68-.77.55-.92-1.09-2.65-.56-.59-.67-.65-1.07-.62s-.4.12-.6.52c-.36.73-.09,1.11.94,2.2S85.19,105.89,85.79,105.21Zm1.68-1.81a1.14,1.14,0,0,0,.44-.67,6.62,6.62,0,0,0-1.8-2c-.34-.19-.69-.08-1.12.29-.26.23-.25.28-.19.53a7.58,7.58,0,0,0,2.09,2.2A1.09,1.09,0,0,0,87.47,103.4Zm1.67-1.62a1.73,1.73,0,0,0,.5-.79,7.1,7.1,0,0,0-1.87-2.21c-.38-.2-.59-.11-1,.41s-.26.88.59,1.85,1.06,1.21,1.21,1.21A2.33,2.33,0,0,0,89.13,101.78Zm1.57-1.69c.36-.22.83-.68.64-1.06a29.59,29.59,0,0,0-3-3.19c-.53-.28-.51.12-.51,1.44V98L89,99.09c1.68,1.65,1.3,1.24,1.7,1Zm2-1.87a1.42,1.42,0,0,0,.38-.66c-1-1.27-4.06-5.27-4.61-5.12-.06,0-.08,0-.12.13a5,5,0,0,0-.1,1.9c1,.92,3.2,3.91,3.71,4.09.3.12.44-.06.73-.34Zm1.62-1.71a1.1,1.1,0,0,0,.35-.55A3.81,3.81,0,0,0,94,95c-.36-.42-1.06-1.27-1.56-1.9-2.85-3.55-3.06-3.82-3.49-3.46A1.59,1.59,0,0,0,88.76,91a50.12,50.12,0,0,0,4.36,5.26C93.76,96.91,93.89,97,94.37,96.51ZM96,94.94a1.38,1.38,0,0,0,.44-.68A5.6,5.6,0,0,0,95.51,93c-.48-.57-1.28-1.53-1.78-2.14-1.28-1.57-1.29-1.63-2.24-1.73-1.45-.15-1.25.17.38,2.08.4.46,1.14,1.38,1.66,2,1.21,1.53,1.75,2.09,2,2.09s.24-.14.48-.37Zm1.67-1.64c.74-.62.59-.83-1.81-3.32C95.07,89.17,95,89,94.4,89s-.82.13-.82.43a39.06,39.06,0,0,0,3.37,4c.31.12.35.15.72-.17Zm1.76-1.8a1.31,1.31,0,0,0,.36-.61,4.59,4.59,0,0,0-1.32-1.69,1.9,1.9,0,0,0-.92-.53,2.05,2.05,0,0,0-1.23.43,9.33,9.33,0,0,0,1.77,2.25c.61.64.84.7,1.34.16ZM101,90c.39-.39.38-.74,0-1.26s-.37-.41-1-.41c-1.12,0-1.15.29-.29,1.21C100.35,90.2,100.53,90.42,101,90Zm1.65-1.62c.44-.55.06-.86-.65-.53a.67.67,0,0,0-.3.37C101.45,88.77,102.2,88.88,102.62,88.35ZM75.07,93C73.48,94,70.8,96,69,97.23a5.75,5.75,0,0,0,0,1.51c1-.7,4.35-2.82,5.86-4,.08-.45.19-1.24.24-1.69ZM78,88.41c-.05-.27-.23-.1-.7.3S71.43,93.12,70,94.1a6.16,6.16,0,0,0-1.08.82,2.89,2.89,0,0,0,.1,1.44c1.13-.87,6.52-4.48,6.6-4.61.56-.89,1.8-2.44,2.34-3.34Zm-.6,11.71S71,107.85,68.9,111.7c0,0,0,4.4-.07,6.94l-.35.1s0-6.8-.12-14.18c-.22-18.44-.4-22.91-.4-22.91l-2.09-1.53-.09-.73S75,85.88,79.56,86.92c-3.3,5.18-6.35,7.17-2.17,13.2Zm-7.63,9.24c.13-.31,0-.3-.22-.28a.36.36,0,0,0-.31.39c0,.23,0,.28.19.25A.63.63,0,0,0,69.77,109.36Zm1.55-2.29c.92-1.14,1.69-1.88,1.83-2.72a18.6,18.6,0,0,0-4.06,2.74c0,1.27-.26,1.42.78.86.46-.25.83-.55,1.44-.89Zm.29-2.82c1-.83,4.62-2.78,5-3.74a.7.7,0,0,0-.44-.82c.07.06-5.19,3.21-7.11,4.86a.94.94,0,0,0,0,.88c.21.55.63.1,2.52-1.18Zm-1.21-1.52c1.08-.72,3.64-2.49,4.27-2.93,1.08-.75,1.3-1,.91-1.56a.52.52,0,0,0-.72-.2c-3.13,2.18-3.4,2.55-5.77,4.08a1.4,1.4,0,0,0,.13,1.3c.18,0,.48-.21,1.19-.69Zm0-2.35A50.65,50.65,0,0,0,74.88,97c.11-.25.14-1.23,0-1.34-1.06.81-3.9,2.54-5.83,4.12-.05.32-.11,1,0,1.21.39.16.51-.05,1.34-.65ZM70,92.93c2.08-1.54,4-2.88,6.15-4.33,1.83-1.22,2.14-1.49,1.43-1.85a1.62,1.62,0,0,0-1-.22c-2.43,2-5.14,3.85-7.71,5.75a8.43,8.43,0,0,0,0,1.1c0,.39.49.06,1.18-.46Zm-.29-2.2c.17-.15,1.26-.87,2.41-1.71,3.1-2.25,3.47-2.47,3.47-2.71,0-.65-.9-.79-1.71-.13-1.5,1.22-5.07,3.44-5.08,3.76s-.09.92,0,1.13.42,0,.86-.34Zm.9-3c3.16-2.21,3-2.1,3-2.5S73.38,85,72.9,85s-.46.09-1.33.75c-1.84,1.39-2.52,1.78-2.71,2.19-.06.13-.1.64,0,.75S69.34,88.6,70.66,87.68Zm.21-2.19a9.81,9.81,0,0,0,1.16-1c.09-.23-.38-.65-.73-.65s-.68.2-1.62,1-1,.57-.94,1a4.1,4.1,0,0,0,.12.85C69.05,86.91,69.49,86.64,70.86,85.49Zm-1-2.59c-.44-.44-1-.55-1.23-.28a6.52,6.52,0,0,0,0,1.59c0,.37.47.23,1-.24S70.39,83.39,69.91,82.9ZM84.58,72.62a3.73,3.73,0,0,1,2-1.29,5.63,5.63,0,0,1,3.48.37c.84.42,1.75,1.43.4.82a8.13,8.13,0,0,0-4.87-.11c-.72.36-1.05.46-1.05.21ZM83.71,69a8.05,8.05,0,0,1,1.89.38A8.6,8.6,0,0,0,90.53,69c.42-.12.63.17.37.38a6.81,6.81,0,0,1-3.12,1.1c-2.25.21-4.66-.94-4.07-1.53Zm-11.8-4.54c1-.47,2.23-7.13,1.85-8.27-1.17,1.79-2.49,2.6-4.36,2.29-3.07-.51-3.18-4.29-.81-4.67.95-.15,2.11.47,2.3.33,1-.47,1.8-3.87,2.05-5s.45-4.07.49-5c.09-2,0-5,0-5l-14.94-18H26s-.08,25,0,37.79l9,8.9.12,14.38C45.48,77.72,55.5,73,65.31,67.83c-1.14-1.36-1.13-4.82,1-6.08a3.65,3.65,0,0,1,5.64,2.69Zm8.3,3c.07-.81.67-1.48.71-2.3,0-.18.15-.4.64-.14s1,1.39,1.78,1.11c1.34-.51,1.29-.26,2.15.28a3.7,3.7,0,0,0,3.07-.11c1.15-.83.63-.14,1.71-.09s1.51-1.11,2.09-1.9c.44.65.35,1.68.63,2.26.5,1,.3,1.68-.28,1.2-1.23-1-1.53,0-3.3.45s-1.53.88-5,0c-1.71-.52-2.4-1.42-2.86-1.09-.7.47-1.24.52-1.35.33ZM89.71,61c-1-.26-2.19-1.19-3-.94a1.2,1.2,0,0,1-1.1-1.84c.92-.89,2.34,0,2.89.43,1.2.91,1.37,1,1.86,1,2,0,1.61-1.9.65-2.58-.57-.6-.63-1-.51-1.13s.77,0,1.39.62c1.19,1.12,1.22,3.35-.24,4A2.36,2.36,0,0,1,89.71,61Zm4.16-6.45a23.43,23.43,0,0,1-3-2.72,2.87,2.87,0,0,1-.93-2.22c.07-.57.16-.9-.21-1.09A1.84,1.84,0,0,1,89,47c0-.12.46-.05.72.28.33.05.27-.14.63-.39,3.79-2.54,6.82-2.05,10.42-.31,1,.5,3.76,2.57,2.31,1.9-.09,0-1-.45-2-.94-3.12-1.49-6.59-2.4-9.41-.48-.49.34-.78.6-.4.6,1.59-.31,3.16-1,4.79-.87,2.43,0,3.9,1.23,5.73,2.06,2,.89,2.36,1.19,1.64,1.92-.2.23-.37.22-1.32.15s-1.11,0-1.69.32a8.75,8.75,0,0,1-5.23,1.36c-2.06-.17-2.28-.34-2.32,0s.42.52,1,1.08A14.08,14.08,0,0,1,95,54.79C95.22,55.09,94.43,54.94,93.87,54.53Zm-1.31-4.88c-.26-.26-.46-.16-1,.23s-.46.52-.08.87c.81.72,1.83.84,1.82.51A4,4,0,0,0,92.56,49.65Zm3.83,1.73c.83-.4,1.68-1.83,1.29-2.29-.23-.28-.43,0-.86.76a4,4,0,0,1-.72.95c-.68.48-1.58,0-2-1-.23-.63-.47-1-.73-.8-.48.43.06,2,1,2.41A2.56,2.56,0,0,0,96.39,51.38ZM99,51.14c.84-.26,1.25-.64,1.18-1s-.67-.66-1.08-.66c-.18,0-.55,0-.68.17a8.15,8.15,0,0,0-.76,1.67c.1.26.38.14,1.34-.16Zm2.92-6.29c-4.21-1.61-7.53-2.26-11.53-.55-1.28.56-2,.61-2.08.16s.87-1.52,1.87-2a10.67,10.67,0,0,1,9,0,23,23,0,0,1,4,2.8C103.11,45.38,102.84,45.22,101.9,44.85ZM151.14,92c1-.53,1.46-1.57.85-2.18a.85.85,0,0,0-.64-.18,19.93,19.93,0,0,0-3.49,1c-.33.18-.21.49.11.78a1.15,1.15,0,0,1,.28.73c0,.4-.05.76.21.7a11.66,11.66,0,0,0,2.69-.82Zm-3.74,1a1.22,1.22,0,0,0-.59-1.67c-.39-.2-.7-.09-1,.35C145.05,93,146.9,93.62,147.4,93Zm-3.75.64c.16-1.74.08-6.87.08-6.87a3.76,3.76,0,0,1-1.52.82,10.76,10.76,0,0,1,.79-1.76,11.91,11.91,0,0,0,.25-2.95c-.06-.86-.67-.89,0-2.44a3.22,3.22,0,0,0,0-2.61,1.16,1.16,0,0,1,.23-1.38c.43-.57.26-.86.25-2,0-1.65,0-1.92-.5-.59-.75,1.1-1.09.89-2.22.76-1.1,2.46-2.38,5-2.43,7.17,0,1.33,0,1.54.78,4.34a7.49,7.49,0,0,1,.43,2.65A7.48,7.48,0,0,0,140,91c.32,1.18,1.65,3.13,3.66,2.62Zm-38.2,110.76v-2.48s-4,1.22-6,.47c-2.07-.56-2.06-.66-2-.44.07.4,1.61,1.21,3,1.54a10.23,10.23,0,0,0,4-.29c.56-.17.62,0,.39.16-2.43,1.9-5.5,1-7.44-.55-1-1-1.73-1-1.17.34,2.66,5.39,9.25,2.21,9.18,1.24Zm-2.67-3.68.9,0a5.36,5.36,0,0,0-.74-2,2.14,2.14,0,0,0-3.16.13,5.92,5.92,0,0,0-.69,1.91l.72,0c.27-.7,1.41-4,3,0Zm-3.6-2.37a3.91,3.91,0,0,0-2.18.73c-.2.22-.2.26,0,.57.52.69,1.33,1,1.38.76a8.35,8.35,0,0,0,.76-2.06Zm5.95,1.75a1.66,1.66,0,0,0-1-1.6c-.31-.08-.61-.14-.52.2a9.41,9.41,0,0,0,.51,1.41c.14.31.24.47.54.35s.44-.15.52-.37Zm38.62-32.82v-4.19a55.32,55.32,0,0,0-5.72,7.1ZM79.1,51.67c.9-.38,1.55-1.56,1.33-2.15-.14-.37-.51-.07-.89.47-.61.88-.76,1-1.29,1s-.79-.15-1.18-.91-.46-.83-.71-.52c-.12.14-.11.34,0,.87A1.8,1.8,0,0,0,79.1,51.67Zm2.44-.43c1-.34,1.2-.45,1.15-.78s-.84-.81-1.29-.72a4.36,4.36,0,0,0-1.12,1.76C80.4,51.68,80.74,51.52,81.54,51.24Zm-5.74-.58a1.82,1.82,0,0,0-.16-.71.58.58,0,0,0-1,.38c0,.37.53.79,1,.79S75.87,51.19,75.81,50.66Zm5.62-2.51c1.41.53,2.13.59,1.36-.13-1.06-1.17-5.91-2.52-8.51-.6-.19.26-.15,1.28.06,1.22a7.77,7.77,0,0,1,7.09-.49Zm-4.84-4c-1.19.4-2.3,1-2.45,1.6-.23.93.19.94,1.74.45a7.48,7.48,0,0,1,5.95.63c1.3.94,1.68.63,1.46-.16-.72-2.62-4.77-3.09-6.7-2.52Z" style="fill: #131f67"/>
  <path d="M152.89,27.26l-8.74,8.67.12,10.26c.88,1.61-13.49-4.6-15.76-6.48.26,6.85,9.61,14.66,15.69,17.52l.17,21.94a23.65,23.65,0,0,1,7.82-2.27C153.37,62,154.39,42.58,152.89,27.26ZM104.26,38c-.85,0-1.36.25-1.35.79-.26,0,3.23,12.81,4.82,18.18-6.91,6.68-3.78,14,2.81,16.58.76.74-9.38,7.29-18.41,7.29-2.89-6.35-6.94-2.84-9.17-.62-1.74-.15-8.25-4-11.57-6.25a6.81,6.81,0,0,1,0-1.12c.23,1.51,13,4.78,13.61,3.26-.37,0-5.74-3.64-7.29-7.23a70.15,70.15,0,0,1-3.55-9.61c-.72,2.06-.47,4.9-2.45,5.92-.59-6.69-10.14-3.28-5.39,3.26-2.67.78-5,2.17-7.55,3.32A44.42,44.42,0,0,0,79.54,87c-1,2.22-7.18,7.21-2.14,13.09.23.18-4.82,5.69-7.3,10-1.87,3.24-1.3,5.73-1.09,5.81A103.83,103.83,0,0,0,79.69,101.4c-.06.91,8.12.42,8-6.95a21,21,0,0,1,1.3-6c12.47.59,23.2-3.86,32.26-13.2,3.31,1.66,7.07.3,9.53-2.47,1.36-1.1,2.71-2.16,3.19-3.29,1.78-7.67-6.05-4.67-6.42-4.26-4.48-6.09-8.26-23.39-8.87-23.53-2.5-.5-11.05-3.78-14.39-3.72ZM73.54,49.75c-.33,0-1.53,5.38-2.6,5.34-4.5-2.9-4.6,3.1-.73,2.83,3.27-.23,5.1-5.51,3.34-8.16h0Zm-48,10.19q.22,48.84,1.35,97.66c2.94-.73,5.08-1.28,8,0,.27-9.25-.54-32.6-.35-55.21,11-8.55,18.71-18,24.13-30.32L41.89,79.91s-5.48,7.87-7.24,8.37c-.25-1.12-.53-14.44-.3-20.15ZM62.71,80.08l-3.3,4.77s.08,16.4.27,24.3c.14,1.57,1.57,3,.42,4.43.7,0,3.74,21.27.85,29.9-.52,1.54,0,2.64.78,3,4.14,4.58,6.41,9,11.86,6.38,5.95-5.45,14.4-15,14.4-15L65.65,116.73c-1.92-5.13-2.94-36.65-2.94-36.65Zm81.41,68.38c-9.67,8.13-19.41,18.37-23.21,29.69,5.42-2.18,10.58-4.85,15.86-7.3,2.56-3.07,4.52-6,7.45-9,0,0,.32,13.34.06,20,2.64,2,8.91,8.1,8.91,8.1s1.73-94.79-2-97.19c-3.63.7-5.45,2-6.8-2.18-1,19.3-.26,57.81-.26,57.81ZM109,95.11c-3.9,3.19-17.31,16.36-17.28,16.49,3.56,6,17.6,17.93,24.34,24.61l1,34.05c1-1.33,1.71-2.59,2.79-3.92,0,0-.18-17.24-.59-25.33-.12-2.39-.67-4.27-.5-4.49-1.9-9.81-2.68-20.65,0-31.17-6.36-5.48-8.38-9.13-9.72-10.24ZM110,134l0,0c-3.29,4.69-9.59,14.88-10,14.86-.13-.3-6.51,0-7.71,4-1,3-1.09,5.74-1.83,8.82-12.79-.42-22.15,3.63-32,12.72-4.83,0-8.42,1.09-10.1,3.12-2.5,1.81-3.18,3.36-3.06,5.26.22,3.43,6.29,3.92,6.6,1.5,5.51,9.13,8.46,21.6,9.4,25.24,2.27.15,15.94,3.35,15.94,3.35-1.58-7.9-3.52-13.42-5.33-19.85,9.82-8.25-1-17.06-3.55-16.74a35.91,35.91,0,0,1,19.09-7c1.1,3.94,6.18,6,8.73.73,0,0,11,3.94,11,5.25-4.53-.68-8.26-1-12.79-1.48,8.69,4.72,9,10.94,10.73,17.14a63.7,63.7,0,0,1,2.53-5.89c2.95,6.54,8.55,2,6.24-3.28l7-3.24c.8-.41-10.43-13.05-20.64-14.84.51-.94.72-1.83,1.25-2.59,2.56-2.51,4.55-6.2.63-10.6,2.58-3.61,8.58-12.34,8.2-12.49,0,0,.12-4.08-.19-4Zm-84,40.21s-.28,30.26-.07,45.27a28,28,0,0,0-.41,3.95l9.3-8.74.28-11.3c2.43-.58,17.57,7.11,16.36,7.07,1.16-.49-7-15.88-16.49-17.58-.18-8.72-.27-18.59-.51-21.24A66.31,66.31,0,0,0,26.05,174.22Zm82.59,18.2c-2.6.78-3.69,6.26-2.85,8.91.16.49.06.6.47.12,1-1.49.69-4.46,2.49-6C113.49,196.85,113,190.69,108.64,192.42Z" style="fill: #e2cf00"/>
  <path d="M48.37,228.11l12.31-18.62c14.7,4.92,29.71,5,44.88,2.58l13.56,16h-5.54L105,215.92c-3.09.71-6.31,1-9.51,1.47l4,10.73H95.19L92.05,217.5a100.71,100.71,0,0,1-17.48-1l-1.84,11.58H68.31l3-12A86.42,86.42,0,0,1,61.4,214l-9,14.1Zm14.1-11,5.11,1.39-2.5,9.57H55.74Zm13.2,11,1.45-8.45a66.38,66.38,0,0,0,12.64.77L92,228.11Zm24.2-7.84,4-1.07,6,8.91h-7.35ZM41,166.48c19.67-22.89,17.05-46.92,6.19-66.31l2.31-2.38c12.57,20.66,15.24,50-7.92,72.81C41.38,169.23,41,166.48,41,166.48Zm78.44-25.67c2.83,4.81,4.55,9.69,7.54,14.53l-7.08,9.58ZM34.86,156c-.18-15.11,0-45.71,0-45.71l6.64-5.08c7.94,9.65,12.27,35.07-2,52-1-.76-3.86-.44-4.7-1.2Zm94.23-3c-18.2-30.72-8.86-53.16,8.68-73.06.05,1.53.08,3.1.22,4.62-15.06,17.26-21.08,42.78-6.32,65.87ZM96.22,148.4c2.07-3,11.18-14.68,9.89-15.79l2.72-2.64,1.55,1.52c-1.65,6.66-6.66,12.05-10.52,17.63Zm44-54.82c.26-.3,3.55,1.08,3.55,1.08l.21,46.45-6.59,4.24c-1.91,1-16.85-29.51,2.82-51.76Zm-69.4,19.57c3-4.09,6.16-7.63,9.07-11.38a13.78,13.78,0,0,0,2.73.3c.21.11-.66,3.12-2.82,5.19-5.9,7.07-7.24,8.37-7.46,11.29-.07.94-2.15,2-2.15,2L68.68,119a19.42,19.42,0,0,1,2.13-5.83ZM52.11,95.34l6.78-8.87.48,23.07ZM73.71,37.58,60.64,21.24H67L74.76,32.8l9.32-1.06L80.8,21.24h3.86l2.73,10.33c5.72.14,11.31.58,16.73,1.12l2.79-11.46h3.93l-3.57,12L117.8,36l9.38-14.76h4.66L118.55,40.29c-17.38-5.22-31.34-4.62-44.83-2.71Zm37.68-6.84,3-9.51h8.91L116.46,32.1ZM89.84,28.43,88,21.24h15.7l-2,8a70.26,70.26,0,0,0-11.79-.85ZM71,21.24h6.27l2.44,7.44-3.62.41Z" style="fill: #d40000"/>
  <path d="M58.6,20.18,73.73,38.3c3.15-1.13,19-2.94,28.58-.77,1.66,6.51,3.42,13.09,5.28,19,0,0-.6.7-1,1.14-6.09,7-1.78,13.8,3.79,16-1,2.09-11.68,7.29-18.18,6.67,0-.06-2-4.77-6.07-3.18-1.39.54-2,1.59-3,2.61-3.88-1.17-9-3.73-11.68-6.54,5,2.49,9.9,3.82,14.83,3.16C78,72.92,75.71,64.61,74.2,57.9c-.52,1.57-.75,5.72-2.12,6.58-.36.23-.42.16-.68-.72-1.94-5.08-8.91-1-5.87,4.11l-2.32,1.29v.38l-1.43.68-.3-.2c-6.64,3.21-13.14,6.55-19.92,9.62,0,0-3.6,6-6.89,8.35l-.13-20.28L24.8,58.9l0,4.82.7.74c.13,33.94,0,67.34,0,98.16l0,28.37-.59,0,0,3.31.67.15-.09,4.67-.35,0-.05,3,.53.08v16.7l-.53.68v4.77l10.18-9.68v-11c8,1.52,16.64,7.29,16.64,7.29-1.41-9.22-11.18-16.81-16.78-18.33l0-21.84a35.82,35.82,0,0,1-6.23,2c-1,.14-1.41,0-1.9-.75-.35-.54-.36-1,0-2.14a1.44,1.44,0,0,0,0-1.18,3.55,3.55,0,0,1,0-2.36,2.22,2.22,0,0,0-.13-1.87c-.3-.75-.33-.89-.2-1.33.34-1.14.36-1.33.18-1.84a2.89,2.89,0,0,1,0-2.37c1.5-2.52,4.86-1.9,6.69-1.81.93,1,1.48,1.6,1.56.11.65-1.78,3.16,0,4.33.8,10-13.39,14.91-31.52,2.38-54.21l-7,5.58,0-7C44,96.53,54.41,83,58.91,72.37c1.5,1.76,3.22,3.48,4.84,5.25l-1.06,1.77-.31-.18A127.8,127.8,0,0,1,51.6,94.93a156.55,156.55,0,0,1,7.63,16.2l.57-.26.51,1.64-1,.3c3.41,11.19,3.52,21.55,1,31.11l.6,2.54s3.61,3.5,4.58,4.52l5.37,5.21L74.11,153l-.19-.27L102.78,124l1.8,1.72C86.9,143.57,56.2,174.33,56.2,174.33l-1.06.15a11.21,11.21,0,0,1-2.07.09,2.58,2.58,0,0,0-1.81.31A7.28,7.28,0,0,0,48.77,177a2.53,2.53,0,0,1-1.2.91c-6,3.59-.58,10.82,4.54,7a95.32,95.32,0,0,1,8.68,23.79,3.24,3.24,0,0,1-.67.29L46.63,229h5.19l.54-.92H48.47l12.41-17.94a100.7,100.7,0,0,0,45,2.35l12.8,15.58h-5.08l.72.92,6.57.1-15-17.77c-5.39,1.44-19.6,2.6-28.51,1.09C76,205.83,73.71,198.63,72,192.9c8.51-6.66,2.12-15.46-3.13-16.68-.25-.48,10.65-7.11,18.41-6.65,2.22,5.34,7.09,4.55,8.84.58,3.22,1.18,7.4,2.36,10.72,5a73.19,73.19,0,0,0-13.77-1.57c8,3.11,10.28,9.67,11.26,15.86a13.42,13.42,0,0,0,.72,2.35c.68-2.23,1.24-4.54,2.59-6.46.61,2.19,2.63,4.26,5.19,2.59,2.29-1.5,1.6-3.64,1.2-5.9l1.78-1,.23.2s2-.83,2.92-1.31c.15-.07-.18-.38-.18-.38l18-8.51a69.6,69.6,0,0,1,7.19-8.77c.08,7.55.06,10.66.06,19.62,3.7,3.23,7.14,7,10,9.16L154,59h-.15V56.46h.21V49.84l-.19-.11V47.65l.25-.18,0-17.84-.29,0,0-4.28-10,10.64V46c-3.29-.62-9.49-3.47-13.85-5.77-1.23-.75-1.92-1-1.88-.52.54,6,9.18,15.1,15.81,17.49V79.63s1.57-.78,2.53-1.19l.14.4,2.14-.89.17-.46,1.86-.23c0,.38.08.33.08.33,1.65.46,2.38,1.59,1.72,2.86-.23.42-.28,1-.09,1.18.72,1.13.9,2.13,0,3.2a1.15,1.15,0,0,0,0,1.44c.89,1.8.39,1.69-.29,2.76-.15.81.74,1.34.44,2.11a3.08,3.08,0,0,1-1,1.36c-.42.31-.77-.26-.77-.26a14.1,14.1,0,0,1-2.3.76c-.95.31-2.58.86-3.14-.42-.32-.73-.06-1.4-.09-2.21L144,90.21,144,93.92c-.79.42-4-1.19-4-1.19-13.56,17.58-13.18,37.09-3.12,53.43.1.26,7.08-4.78,7.08-4.78s0,4.14,0,6.38a92.51,92.51,0,0,0-23.6,29.44l-3.8-4.51a2.72,2.72,0,0,0,.67-2.19l2.76-4.12,0-1.07,7.17-10c.11.6-7.4-13.46-8.4-18l.5-.14c-3.37-12.77-2.68-21.71-.24-32.12l-.7-.67-9.46-9.46L106.63,97c-.12.11-.69,0-.81.15-5,4.67-9.77,9.36-14.51,14.24-.12.13.08.65,0,.77-4.75,4.89-9.67,9.54-14.47,14.42L75,124.9c17-17,49.06-48.63,49.06-48.63a.51.51,0,0,1,.36-.26,10.45,10.45,0,0,0,2.57-.49c1.06-.25,1.23-.32,1.67-.78a9.6,9.6,0,0,1,1-.88q.7-.51,3.18-2.68c3.85-3.9.64-9.16-5.42-6.22-3.47-7-6.85-15.91-8.28-23.22-.08-.46,0-.6.34-1.18l1.13-1.77C125,32,129.41,26.39,133.2,20.18h-5.35l-.66,1.05h4.41L118.49,40.11c-24.15-7.9-43.95-2.89-44.42-2.78L61,21.24h6l-.72-1.05Zm11.76,0L71,21.24h6.26l-.36-1.05ZM80.8,21.24h3.86l-.22-1.05h-4Zm6.91-1.05L88,21.24h15.7l.28-1.05Zm19.2,1.05h3.93l.3-1.05h-4Zm7.79-1.05-.34,1.05h8.92l.67-1.05Zm38.15,7.28v2.93l-6.28,6.78v9.47l-1.95-.43V36.42ZM151,33.71c.05,2.9-.41,5.68.35,8.64a25.08,25.08,0,0,1,1.24,4.88l-2.12-.05c-.27-.87-.37-1.83-.69-2.9a16.8,16.8,0,0,1-.84-8.21Zm-46.3,4.73c.08.14.33,1.37.57,2.51a109.79,109.79,0,0,0,4.13,15.58c1.93,5.94,4.8,13.41,7.58,16.87.37.43.55.92.42,1.14s-1.36-.14-2.12-.95A12.32,12.32,0,0,1,114,71.51c-1-1.82-2.28-4.47-2.41-4.89-.05-.17-.57-1.48-1.14-2.91a73.78,73.78,0,0,1-2.45-7c-.67-2.21-1.28-4.52-2-6.85a84.16,84.16,0,0,1-2.6-10.33,5.19,5.19,0,0,1-.21-1.24A1.55,1.55,0,0,1,104.74,38.44Zm.68.24c-.12-.1,1.11-.12,1.5.21a6.35,6.35,0,0,1,.5,1.79A128.64,128.64,0,0,0,112.14,58a66.31,66.31,0,0,0,5.35,12.31,25.08,25.08,0,0,0,2.7,3.76c.64.75.69.86.52,1.07s-.58.22-1.29-.12a9.62,9.62,0,0,1-2.84-3.1,80.16,80.16,0,0,1-6.71-15.69,115.45,115.45,0,0,1-4.4-16.91l0-.62Zm3.91.81A4.19,4.19,0,0,1,110,41.4c1.29,5.32,2.36,10.08,3.88,14.45.82,2.35,1.54,4.7,2.42,6.91a37.74,37.74,0,0,0,5.25,9.44,12.52,12.52,0,0,0,3,2.61c.74.44.85.55.8.81s-.78.32-1,.31A6.76,6.76,0,0,1,121,74.14c-3.57-3.86-6.12-10.17-8-15.34-3.19-8.91-5.77-20-5.28-19.7,0-.26,1.28,0,1.59.38Zm1.92.38c.67.18.75.28.91,1,1.14,5.09,2.35,9.58,3.7,13.85a79.36,79.36,0,0,0,5,12.74,14.09,14.09,0,0,0,5.85,6.4,13.59,13.59,0,0,1,1.25.67c.12.61-.4.6-.82.62a4.37,4.37,0,0,1-2.76-1c-2.8-1.93-5.25-6.31-6.33-8.8a99.57,99.57,0,0,1-3.63-9.61,108.06,108.06,0,0,1-4.08-15.44C110.28,39.66,110.58,39.8,111.25,39.87Zm41.61,10.06c-7.06.47-14.31-2.52-20.13-5.2,4.38,5.81,9.06,11,20.11,12v1.86c-14.39-.2-24.51-14.79-24-18.42,5.92,3.83,16.57,8.25,23.95,7.92,0,.6,0,1.2,0,1.8Zm-38.73-9.1c1.18,4.39,2,9.27,4,14.17,2.39,6,3.71,11.33,8.15,16.28,1.38,1.42,4.08,1.37,4.08,1.37s-.34.77-.8.89a4.91,4.91,0,0,1-2.33,0c-2.57-1.08-4.53-3.83-5.54-5.69-.95-1.39-3.26-7.13-5.17-13-2.08-6.37-3.79-13-3.59-14.33A1.4,1.4,0,0,1,114.14,40.83Zm2,.59c.66.44.49,1.48.75,2.56a97.73,97.73,0,0,0,3.82,11.94,72.31,72.31,0,0,0,4.42,9.89,21.33,21.33,0,0,0,2.28,3.53c2.62,2.79,5.58.5,4.78-1.94-.36-1.11-2.51-1.29-2.63-.44a1.5,1.5,0,1,1,.91,2.85c-2.34.54-4-2.63-1.9-4.57,3.5-2.38,6.18.87,5.35,4A4.26,4.26,0,0,1,130,72.08c-2.29.07-3.23-.63-5.58-4-2.69-4.32-3.85-8.53-5.75-13.25a57.66,57.66,0,0,1-3.54-13.38c.18-.4.62-.13,1,0Zm1.56.54a1.47,1.47,0,0,1,1.11.46c3.15,11.51,5.78,18.4,8.45,23.26a3.5,3.5,0,0,1-.22,1.15c-.32.46-.47.34-.89-.38-1.68-3.26-3.29-6.86-4.78-10.57a61.53,61.53,0,0,1-4-13.19c-.1-.62-.21-.77.3-.74ZM139,48.53a.81.81,0,1,1-.81.81A.81.81,0,0,1,139,48.53Zm-65.48-.15c-.93,1.27-1.7,5.83-2.67,5.89s-2.37-.63-3.21.34c-1,1.18-.39,2.47.86,3.19a4.37,4.37,0,0,0,2.55.14c3.06-1,4.22-6,2.46-9.56Zm68.54,1.2a1.17,1.17,0,1,1-1.16,1.17A1.17,1.17,0,0,1,142.05,49.58Zm-68.48.55c1.72,3.46-2.1,9.81-5.45,7a1.54,1.54,0,0,1,1.15-2.65,2.35,2.35,0,0,1,1.57,1c1.06.11,2.29-5.28,2.73-5.38Zm72.54.64a1.32,1.32,0,1,1-1.32,1.32A1.32,1.32,0,0,1,146.11,50.78Zm4.66.93a1.34,1.34,0,1,1-1.34,1.34A1.34,1.34,0,0,1,150.77,51.71Zm-43.36,6.11c.2,0,.34.19.47.58.27.8.27.9-.16,1.43-4.13,5.91-.37,11.82,5.62,12.2.51,0,.76.6,1,1.27,0,.31,0,.31-1.4.34-8.83-.71-11.17-10.45-6.4-15.23C107,58,107.22,57.82,107.42,57.82Zm39.22.64V78.08l-2.09.76V58Zm3.88.76q3.9,9.7.37,17.79l-2.37.34c3.26-7.6,1.87-13,0-18.29ZM25.68,60.29l8.45,8,.29,88.91-1.35-.48-.54-87.45-6.86-6.42Zm83.19,1.11a1.25,1.25,0,0,1,0,1.29c-1.16,2.84-.21,5.55,2.65,6.4.68.22.79.33,1.19,1.17.26.55.38.75.27.87-2,.28-4.81-1.58-5.59-3.44a6.5,6.5,0,0,1,.85-7.17C108.47,60.52,108.68,60.86,108.87,61.4ZM75.08,64.05c-.23,1.38-2.18,3.58-3.9,4.39-1.59.61-4,.3-5-.76-3.65-4.27,3.16-8.56,4.87-4.11,1,2.92-3.15,3.61-3.34,1.37,0-.58.19-.76.72-1.13s.42-.63,0-.63a1.81,1.81,0,0,0-.91,3c1.42,1.49,3.18.62,4.4-.47,1.63-1.47,1.92-3.69,2.29-5.57a39.1,39.1,0,0,1,.84,4Zm34.48-.61c.08,0,1.75,4,2,4.57-.06.4-.49.37-1.24-.15a2.93,2.93,0,0,1-1.3-2.13C108.9,65.29,108.74,63.7,109.56,63.44ZM75.64,65.13c.37,0,.75,1.35.58,2-.3,1.2-3.44,3.23-5.65,3.64l-1.05.2A1.86,1.86,0,0,1,68,70.27c-.39-.4-.58-.8-.48-.89s1.09.1,1.95.09c2.4,0,4.26-1.7,5.68-3.75.22-.32.45-.59.52-.59Zm-47.77,1s1.63,1.47,2.48,2.32c-.09,3.92-1.54,8.17-1.54,11.67,0,3,2,5.59,2.21,8.24a14.85,14.85,0,0,1-1.23,6.2,14,14,0,0,0-1.2,5.58c.1,4.33,3.21,9.07,2.12,13.35-1,4-2.19,6.35-1.88,8.49.6,4.12,2.79,7.78,2.21,11.21-.54,3.19-2,6.38-1.83,9.27.18,3.33,1.42,6.11,1.77,9.14a22,22,0,0,1-.33,5.05l-2.28.19c1.25-4.67-.61-8.9-1.33-13.39-.61-3.82,1.1-6.87,1.61-10.13a12.15,12.15,0,0,0-1-6.54c-2-4.76-1.27-7.87.16-12,1.77-4.42-.66-7.92-1.27-12.15a18,18,0,0,1,1.3-9.47c1-3.12,1.31-4.93-.21-7.93a10.11,10.11,0,0,1-1.22-5.51c.5-4.95,1.83-7.72,1.51-13.57Zm48.86,2c.35,0,.53.25.53.76,0,.92-1.38,2.09-3.81,3.24-1.26.59-2,.68-2.73.33s-.66-.61.1-.83A11.37,11.37,0,0,0,75.6,68.9a3.9,3.9,0,0,1,1.12-.8Zm-11,.64C72,75.46,78.14,78.92,82.85,80.53l-.74,1.76c-6.18-2.4-12.48-5.73-17.82-12.89Zm12.09,1.1a2.18,2.18,0,0,1,.81,1,2.66,2.66,0,0,1-.52.9,4.93,4.93,0,0,1-1.82,1.37c-1.4.77-2.25,1-2.86.64s-.4-.59,1.11-1.48a17.15,17.15,0,0,0,2.31-1.65A8.49,8.49,0,0,1,77.81,69.83Zm-16.62,1A38.19,38.19,0,0,0,80.73,85L79.5,86.69C72.4,84.24,65.44,79.8,59.09,72Zm18,.87c.26,0,.84.66.84.95a1.17,1.17,0,0,1-.25.57A12.28,12.28,0,0,1,77.4,75a1.31,1.31,0,0,1-1.36,0c-.62-.31-.51-.57.5-1.22a13.43,13.43,0,0,0,1.66-1.31,3.62,3.62,0,0,1,.94-.73Zm-20.68.51c-.15.18-7.57,17.19-23.29,29.25l-.07-2.82c8.71-6.91,15-16.37,19.82-24.64Zm22.17,1.22c.24,0,.41.15.57.47s0,.72-.9,1.38a1.62,1.62,0,0,1-1.21.49c-1.17,0-1.14-.3.14-1.45.67-.6,1.08-.88,1.39-.89Zm30.36.84,3.28.25c.88.61-12.81,9.58-22.3,8.78l.25-2.15C100.55,81.39,111.22,74.66,111,74.27Zm-28.11.84c.75.42,1.69.92,1.46,1.08a6.7,6.7,0,0,1-3.08-.2c-.38-.21-.36-.31.17-.91S82.18,74.72,82.88,75.11Zm-29.22-.53c-5.19,9.17-11.38,17.54-18.54,23L35,92.71c6.81-5.25,12-14.84,12-14.87Zm65.05.58,1.59.93c-9.9,9.17-20.6,13.13-30.88,12.14l.83-1.86c16.68,1.32,27.76-11,28.46-11.21Zm2.41.33s.53-.07.48,0a77.69,77.69,0,0,1-10.76,8.59c-14,14.39-26,25.75-38.19,38.56l-1.95-2,1.77-1.87c0-3.8,4.75-8,7.2-11.09,1.51-1.92,3.75-5.12,2.89-6.23,4.24-.85,5.25-4.29,5.34-7.33a19.55,19.55,0,0,1,1.15-5.55C108.24,90.11,120.59,76,121.12,75.48ZM87.7,77.61a3.86,3.86,0,0,1,3.82,4.16c0,1-.38,1.8-1.76,4.5-1.34,2.31-1.52,3.72-2,6.38l-1.36-1.23-2.48,2.24,0-3.26s.86-1.09,2.24-2.64c1.75-1.95,3.34-4.46,3.27-5.86a2,2,0,0,0-3.06-1.64c-1.32.92-1.93,2.6-2.71,7.6-.14.89-.27,1.93-.34,2.16a13.21,13.21,0,0,1-2.11,2.42,30.36,30.36,0,0,1-.92-3.67l-1.93.32a25.54,25.54,0,0,0,5.1-8.43c1-1.89,2.36-3,4.25-3Zm-42,.78s-3.85,8-10.6,13.19l0-3.13a32.68,32.68,0,0,0,6.91-8.28Zm92.56.2c-13.35,13.83-30.77,39.3-9.15,75.08l2.86-3.3c-17.41-32.36-5.07-49.13,6.39-66ZM66,79.73C70,82.51,74,85.27,79.31,87c-.28.94-7.53,7-2.33,12.69.22.3-.34,1-1.18,2-2.49,3.4-5,5.82-7,9.65l-.09,7.19-2.08-1.84Zm71.67.66.09,4.1c-19.83,24.12-17.6,45.84-6.39,65.85l-2.15,2.18c-18.38-31.65-6.91-55.51,8.45-72.13ZM88.79,82.82c-.87,2.31-4.7,6.27-4.7,6.27s.51-3.86.83-5.07a7.79,7.79,0,0,1,1.34-2.78C87.79,79.53,89.33,81.46,88.79,82.82ZM62.47,80.65,62.84,113l-2.79-2.81-.41-24.71ZM58.7,87l.55,21.94a131.33,131.33,0,0,0-6.77-13.7Zm22,6.87c.87-.86,1.52-1.56,2.51-2.52.1,1.29,0,2.27,0,3.63a34.94,34.94,0,0,0,3.24-2.71,6.78,6.78,0,0,1,1,2.87,6.06,6.06,0,1,1-10.12-4.37,10.79,10.79,0,0,1,2.41-1.21s.63,2.95,1,4.3Zm65.87.16c-.2,31.42,0,87.05,0,87.05l6.27,5.93v2.59l-8.37-7.67s-.45-65.58,0-90.38c.66,2,1.17,2.25,2.1,2.47Zm4.17-1c.22,3-.29,6.24.23,9.36,1.82,4.66,1.9,9,.46,12-1.31,3.77-.77,7.4.42,11.21,1.6,5.55-1.5,9.7-1.28,14.31,1.79,7.14,2.21,13,.77,16.66a12.1,12.1,0,0,0-.18,8.49c1.73,4.28,2.12,7.78.5,11.85-1,2.44-.35,4.94,0,7.68l-2.52-2.15a9.33,9.33,0,0,1,.21-6.29c1.92-3.89.89-6.56-.5-10.59a10.78,10.78,0,0,1,0-7.92c1.89-4.44,1.14-9.56.21-13a17.07,17.07,0,0,1-.65-4.83,21.81,21.81,0,0,1,.84-6.07,14.09,14.09,0,0,0-.27-9.06c-1.15-3.7-1.43-7.21.13-10.45a11.35,11.35,0,0,0,.44-7.84,37.35,37.35,0,0,1-1.22-12.69Zm-7.07,1.72c-.22,21.53,0,46.19,0,46.19s-6.38,4.47-6.35,4.23c-8.21-13.55-11.34-33.52,3-51.53a18.82,18.82,0,0,0,3.34,1.11Zm-97,5.13c11.63,21.72,13.14,43.67-6.08,66.18a11.79,11.79,0,0,1,.21,5.66c3.75-2.92,33.8-33,8.49-74.78ZM106,98.05l5.71.34.38,4.92-1.85,1.83a18.69,18.69,0,0,0-.35-4,34.41,34.41,0,0,0-.37,4.85,6.67,6.67,0,0,1-1.39,1.31c-.3-.51-.22-2.92-.56-3.84-.29,1.63-.14,3-.36,4.79a3.77,3.77,0,0,1-1.51,1.34c-.36-.75,0-1.58-.62-3.61a24.71,24.71,0,0,0-.32,4.82c-.24.44-1.36,1.39-1.56,1.32-.53-1.27-.27-2.49-.49-3.68-.47,1.59-.23,2.68-.25,4.66a7.58,7.58,0,0,1-1.7,1.68c-.33-1.28-.17-3.32-.48-4.19-.42,1.66-.08,3.14-.26,5a20.64,20.64,0,0,1-1.7,1.79L98.09,112l-6-.26A11.61,11.61,0,0,1,93.87,110c1.68-.3,2.9.08,4.85-.22a20.11,20.11,0,0,0-4-.56c.5-.52,1-1,1.52-1.54,1.47,0,3.37.29,4.6-.17a15.54,15.54,0,0,0-3.74-.57l1.65-1.67a31.54,31.54,0,0,0,5.05-.35c-1.31-.22-4.17-.61-4.17-.61s1-1.08,1.72-1.71a13.86,13.86,0,0,0,4.44-.18,11.34,11.34,0,0,0-3.83-.34,18.5,18.5,0,0,1,1.76-1.8c1.44,0,2.88,0,4.33-.09a15,15,0,0,0-3.55-.61L106,98.05Zm-56.53.06c16,26.11,10.21,54.32-7.6,71.89l-.52-3.43c16.81-20.46,19.75-41.59,6.15-66.44Zm29.71,3.51c-2.87,4.32-7.25,8.57-8.91,12.09-.34.4-.45,1.29-1,1.47-.26,0-.35-.5-.28-1.65a4,4,0,0,1,.55-2c2.26-4.13,4.89-7.11,7.78-11Zm.67.42,2.65.17c-1,3.53-4.33,6.84-6.66,9.49s-3.66,5.61-3.55,6.86a20.4,20.4,0,0,1-1.81,1.75l-1.55-1.42C70.05,113,75.61,107.59,79.82,102Zm32.43,2.39c1.89.17,3.72.29,5.74.53a11,11,0,0,1,.31,1.14l-1.11,5c-.56-.56-.78-2.31-.89-3.18a18.44,18.44,0,0,0-.15,4,7.43,7.43,0,0,1-1.47,1.74c-.17.13-.39-2.27-.57-3.65-.78,1.32-.33,2.75-.32,4.63a7.59,7.59,0,0,1-1.59,1.42c-.05-1.26-.19-3.33-.64-3.67-.09,1.59-.05,2.94-.09,4.58a4.84,4.84,0,0,1-1.5,1.51c-.55-1.1-.36-2.3-.62-3.35a13.65,13.65,0,0,0-.26,4.24,9.18,9.18,0,0,1-1.59,1.44c-.35-.81,0-2-.55-2.91a33.68,33.68,0,0,0-.35,3.89,7.4,7.4,0,0,1-1.43,1.53,19.49,19.49,0,0,1-.37-4.85c-2.06-.19-3.79-.19-6-.34a15.89,15.89,0,0,1,1.8-1.87s4.08.36,4.51-.19c-1.2-.15-3.7-.57-3.7-.57a9.75,9.75,0,0,1,1.21-1.36,40.41,40.41,0,0,0,5-.16c-.6-.5-3.8-.7-3.8-.7a5.92,5.92,0,0,1,1.38-1.49c1.63.06,3.67.12,4.67-.37-1.1-.45-2.43-.25-3.69-.6a6.22,6.22,0,0,1,1.33-1.55c1.55.1,3.73.18,4.8-.29-1.27-.43-2.58-.15-3.68-.65a6.65,6.65,0,0,1,1.33-1.53,18.2,18.2,0,0,0,4.55,0c-.86-.67-2.51-.4-3.51-.83a5.19,5.19,0,0,1,1.3-1.46Zm-70.56,1.08C52.17,124.3,50.6,142,39.44,157.06a10.13,10.13,0,0,0-4.11-1.31L35,110.39Zm75.17,7.27a16.33,16.33,0,0,1-.26,2.78,8.28,8.28,0,0,1-2.15-.34,6.82,6.82,0,0,1,2.41-2.44Zm-56.48.91s1.38,0,2.07,0c0,0,.11,3.51.39,5.54l4.49.22-1.74,1.82-3.41-.11c-.6-2.52-1-5-1.8-7.48Zm53.55,2.13a16.19,16.19,0,0,1,2.49.47,86.77,86.77,0,0,0-.06,8.93,8.16,8.16,0,0,0-.58.64,37.31,37.31,0,0,0-.53-3.79,32.83,32.83,0,0,0-.11,4.48,6.62,6.62,0,0,1-1.1.9c-.46-.75-.25-2.26-.9-3.11a38.23,38.23,0,0,0,.18,4,8.31,8.31,0,0,1-1.76,1.6,17.79,17.79,0,0,0-.67-5.12s-1.09-.09-2.21-.14a24.11,24.11,0,0,1-3.24-.34l1.5-1.55s4,.63,4.45,0a15.59,15.59,0,0,1-3.68-.83,7,7,0,0,1,1.25-1.47c1.34.42,4.39.45,4.14.14a12.56,12.56,0,0,1-3.14-1,5.26,5.26,0,0,1,1.2-1.38c1.49.05,3.68.61,4.28.09-1-.42-2.53-.54-3.34-.89a12.5,12.5,0,0,1,1.84-1.61Zm-46,4.23a9.34,9.34,0,0,1,.29,2.69c0,2.13.12,2.79.12,2.79a38.61,38.61,0,0,1,5.11.57c-.64.65-1.15,1-1.55,1.38-1.42-.07-2.67-.13-4.14-.06.82.64,2.45.43,3.58.9A5.47,5.47,0,0,1,70,129.72a22,22,0,0,0-4.59.08,19.78,19.78,0,0,0,3.66.61c.06.18-1.12,1.44-1.65,1.83-1.49.27-3.19-.14-3.82.28a8.41,8.41,0,0,1,2.84.69,4.32,4.32,0,0,1-1.54,1.6,2.76,2.76,0,0,1-2.43-.26c.25-3.09.25-6.1.24-9.59l.61-.44a16.59,16.59,0,0,0,.71,4,31.11,31.11,0,0,0,0-4.5,5.74,5.74,0,0,0,1.39-1.46,17.53,17.53,0,0,0,.53,3.83,17.62,17.62,0,0,0,.37-4.7,16.49,16.49,0,0,1,1.6-1.63Zm-5.62,1.77a17.75,17.75,0,0,1,2.53,0A8.44,8.44,0,0,1,62.65,124,6.35,6.35,0,0,1,62.32,121.82ZM116.48,126l.41,2.86-3.12-.21Zm-42.09.37c.52,2.17.34,3.2.65,5.72,1,.24,3.73-.24,5,.52a19.5,19.5,0,0,1-1.33,1.54,15.77,15.77,0,0,0-4.6.16c1,.64,2.53.12,3.73.55a21.75,21.75,0,0,1-1.49,1.75,19.84,19.84,0,0,0-4.86,0c.72.77,2.73.46,3.86.84a6.14,6.14,0,0,1-1.22,1.42,25.77,25.77,0,0,0-4.84,0,14.61,14.61,0,0,0,3.76.82,7.38,7.38,0,0,1-1.61,1.67c-1.44,0-3.08-.09-4.57,0,.55.71,2.7.5,3.77.9a4.16,4.16,0,0,1-1.47,1.66,14,14,0,0,0-4.49-.06,16.18,16.18,0,0,1,3.73.83,5.79,5.79,0,0,1-1.7,1.64l-5.63-.51a9.12,9.12,0,0,1,.28-3.74c.51-2.46.91-3.08,1-2.56a7.22,7.22,0,0,0,.68,2.75,16,16,0,0,0-.23-3.88,10.41,10.41,0,0,1,1.53-1.84s.59,3.06.81,3.56a15.28,15.28,0,0,0-.08-4.25l.82-.84c.75-.77.92-.74.92-.74a35.94,35.94,0,0,0,.74,3.67,41.14,41.14,0,0,0-.06-4.45,14.13,14.13,0,0,1,1.89-2c.63,1.15.33,2.27.6,3.59.49-1.29.22-2.88.17-4.5.54-.55,1.09-1.1,1.67-1.61,0,0,.64,4.81.78,3.32,0-1-.09-2-.12-2.87a2.51,2.51,0,0,1,.28-1.57,12.67,12.67,0,0,1,1.61-1.5ZM107,128.26s1.26,1.08,1.26,1.38c-2,2.6-2.57,2.8-2.68,4.13a14.86,14.86,0,0,1-2,4.21,111.21,111.21,0,0,0-7.34,9.56c-.2.88-.26,1.46-1.07,1.88a6,6,0,0,0-1,.64A6.69,6.69,0,0,0,91.63,154c-.2.88-.33,1.67-.68,4.38-.15,1.11-.63,3.06-.63,3.06-7.48-.11-14.48,1.19-20.72,4.71Zm10,1.15,1.66,7.56-1.71,0-.17-5.49-5.35-.51,2-1.77Zm-8.11.69c.46.47,1,1,1.44,1.49-1.43,4.78-6,11-10.46,17.15l-3.3-.36a94.69,94.69,0,0,1,6.78-9,17.47,17.47,0,0,0,3.28-6.92c.78-.94,2.25-2.31,2.25-2.32Zm1.78,1.68,2.49,2.53.61,35.8a46,46,0,0,0-13.2-7l.84-1.92.93-1c3.28-3.56,2.55-7.39.05-10.09,3-4.44,5.8-7.75,8.12-12.09a41.85,41.85,0,0,1,.15-6.27Zm-29.34,7a22.73,22.73,0,0,0,2.51.15c2.18.07,2.64.13,2.64.36a9.16,9.16,0,0,1-1.25,1.37c-1.41,0-2.84,0-4.24,0,.51.56,3.53.74,3.53.74-.7.71-1.06,1.05-1.88,1.84a20.41,20.41,0,0,0-4.35.18,22.54,22.54,0,0,0,3.77.54s-1.07,1.08-1.6,1.64a16.75,16.75,0,0,0-4.68,0c1.25.23,3.56.74,3.56.74L77.71,148a13,13,0,0,0-4,0,25,25,0,0,0,3.35.72,14.92,14.92,0,0,1-1.3,1.41c-1.7.14-2.81-.13-4.36.29,1,.42,2.28.14,3.38.58.17.17-1.45,1.71-1.45,1.71l-5.41-.08-.5-5.73a11.22,11.22,0,0,0,1.39-1.37c.68,1.14.69,3.07,1,3.78a39.7,39.7,0,0,0-.16-4.5c0-.3,1.23-1.59,1.47-1.54.48,1,.15,2,.89,3.35a20.6,20.6,0,0,0-.13-4.26,6.12,6.12,0,0,1,1.5-1.51c.4,1.86.18,3.34.87,3.88a40.64,40.64,0,0,0,0-4.86,10,10,0,0,1,1.47-1.36c.59,1.11.28,2.73.95,3.63a32.77,32.77,0,0,0-.22-4.47A11.24,11.24,0,0,1,78.25,136c.53,1.32.22,2.93.82,3.85.14-1.58-.05-3.2.13-4.62a13.13,13.13,0,0,1,1.6-2,15.38,15.38,0,0,1,.47,5.45ZM110,134.3l0,3.5c-1.4,3-4.64,7.4-7.93,12.13l-1.71-.93A93.12,93.12,0,0,0,110,134.3Zm-46,1.32a8.16,8.16,0,0,1-1.63,1.66,6.76,6.76,0,0,1,.15-1.89Zm52.64,2.3,2.42,2.39.61,25.64-2.55,4.16Zm3,3.38a94.85,94.85,0,0,0,7,13.87l-6.48,9.15ZM103.92,154a5.77,5.77,0,0,1-3.09,6.63,4.85,4.85,0,0,1-1.28.31c-.28-1.66-.16-3.26-.54-4.94a32.07,32.07,0,0,1-2.64,2.75s0-2.39,0-3.51L93,158.8a5.9,5.9,0,0,1-.61-1.27,6.26,6.26,0,0,1,2.54-7.31c3.38-2.28,8.42.29,9,3.79Zm39.77-1.79c-5.4,4.19-13.1,13-19.7,24.52L121.09,178c4.58-10.36,13.34-21.35,22.54-28.91,0,1.06,0,2.11.06,3.17Zm0,1,.06,4.67a71.14,71.14,0,0,0-12.51,15.41c-2.1,1-6,2.93-6,2.93-.49-.12,10.61-17.41,18.45-23Zm-48,3.83a5.86,5.86,0,0,1-.74,3.75c-1.74,2.06-4.52,4.87-4.89,7.47-.19,1.39.9,2.7,2,2.56,3.32-.42,3.67-6.31,4-9.22a8.4,8.4,0,0,1,.29-1.55,12.94,12.94,0,0,1,2.39-2.47l.41,4.51,1.87-.62c-5.27,7.17-3.76,7.62-6.54,10.55-2.58,2.73-7.59-.38-6.31-4.53,1.11-2.79,2.84-5.59,3.3-8.58.13-.89.2-1.5.2-1.5l1.2,2.5a33.94,33.94,0,0,1,2.9-2.86Zm48.19,1.71V162a67.14,67.14,0,0,0-7.09,8.72l-4,1.82c2.6-5,6.87-9.6,11.09-13.76Zm-48.72,2.84a12.25,12.25,0,0,1-.32,4.23c-.28,1.29-1.52,5.07-3.49,4.18-1.67-1.48.37-4.21,1.39-5.51.79-.93,1.65-1.93,2.42-2.9Zm-5.25.39-1.09,2.33c-9.77,0-19.26,3.53-27.7,10.67l-2.14-.7A43.33,43.33,0,0,1,89.91,162Zm10.27,1.79c11,3.69,16.09,9.07,20.26,14.72l-1.74.89c-4.36-5.65-9.75-10.82-19.78-13.81Zm-12.61,3.48-.47,2c-6.17.19-12.67,2.37-19,6.77l-2.28-.36A38.78,38.78,0,0,1,87.57,167.24Zm28.18,13.47-2,.92C108,174.06,102.68,171.9,96.68,170l.65-1.68a31.6,31.6,0,0,1,18.41,12.42Zm-81.36-8.93V192l-1.44-.28V172.16Zm-3.26,1.1c-2.68,10.06-.6,12.66.37,18.53L29.27,191a26.8,26.8,0,0,1-.56-17.66Zm67.48,1.54c.17.16-.14.65-.55.9s-.31.2-1,0-1.42-.81-1.42-1a15.94,15.94,0,0,1,2.92.17Zm1.89.14c.37,0,1.43,0,1.5.36s-.39.52-1.24,1.1c-1.3.89-1.74,1.06-2.12.64s-.25-.81.35-1.37a2,2,0,0,1,1.51-.73Zm-44.22.22a4.89,4.89,0,0,1,2.87,2c.81,1.27,1.75,2.58,2.5,3.86a54.11,54.11,0,0,1,4.14,8.93,119.26,119.26,0,0,1,6,21.18c0,.59-.53.58-1,.44a.85.85,0,0,1-.48-.33c-.6-1.7-.81-3.45-1.27-5.16a111.82,111.82,0,0,0-3.76-12.76,87.81,87.81,0,0,0-4.61-10.84,25.17,25.17,0,0,0-4.24-5.89,13.09,13.09,0,0,1-1-1c0-.3.29-.46.81-.46Zm47,.23c.69.17,2.35.36,1.72.91a13.07,13.07,0,0,0-4.33,2.86,2.56,2.56,0,0,1-.92-1.14A14.69,14.69,0,0,1,103.32,175ZM62,177c3,4.42,5.57,10.72,7.68,16.89a99.15,99.15,0,0,1,4.35,17.57c-.05.14-.34.19-.66.19-.61,0-.7-.15-.86-.64a143.69,143.69,0,0,0-6.21-21.81,63.64,63.64,0,0,0-5.09-10.55c-1.49-2.18-2.33-3.32-2.26-3.49,1-.63,2.53,1,3.05,1.84Zm-9.09-1.89c1.32,0,3.49,1.56,5,3.57C61,183,62.84,188,64.7,192.92a101.14,101.14,0,0,1,4.6,16.68c.16.7.41,1-.25,1.23-.49-.14-.73-.2-.89-.37-2.47-9.7-5.25-20.26-9.67-28-4.72-7.57-6.1-5.46-6.86-6.8.06-.3.58-.51,1.29-.51ZM64.31,177c4.06,7.07,5.85,11.41,7.08,15.67,1.87,6.47,4.09,11.63,5.06,19.19a5.54,5.54,0,0,1-1.49-.15,4.43,4.43,0,0,1-.48-1.55,125.78,125.78,0,0,0-4.25-16.61,70.48,70.48,0,0,0-7.18-15.88c-.84-1.37-1-1.91-.48-1.93.92.06,1.32.77,1.74,1.27Zm42.28-.76a1.46,1.46,0,0,1,1.35.61c.17.26-.29.41-1.33.65a15,15,0,0,0-4.6,2.85c-.25,0-.86-.67-.86-.95a8.69,8.69,0,0,1,5.44-3.16Zm-55.92.17c3.44.11,6.12,4.1,7.53,6.79.55,1.05,1.26,2.2,1.8,3.4a115.59,115.59,0,0,1,6.31,19.06c.56,2.4,1.2,4.17,1,4.64a1.2,1.2,0,0,1-1.16-.19,6.39,6.39,0,0,1-.58-1.7c-.8-2.58-2.13-9.94-5.59-17.68A54.94,54.94,0,0,0,55.31,181a7.86,7.86,0,0,0-4.82-3.47c-.87-.14-1.13,0-1.08-.51,0-.3.13-.38.6-.53a2.37,2.37,0,0,1,.66-.11Zm21.48,16c-.24,0-.44-.45-.6-1.18-.08-.36-.18-.62.5-1,4.26-4.54.6-11.2-4.76-11.77-.5-.08-1.14-.08-1.32-.15a6.22,6.22,0,0,1-1-1.51c7.4-1.8,15.26,8.81,7.17,15.66ZM109,177.56c.44.11,1.4,1,1.28,1.2s-1,.24-2.17.45c-2.55.45-3.64,2.11-4.82,3.35-.26.08-.5-.1-.73-.5a2.27,2.27,0,0,1-.31-.79c1.32-1.93,4.87-3.88,6.76-3.7Zm-60.1.57a6.91,6.91,0,0,1,5.54,2.76c4.44,6.65,9.43,21.45,10.63,28.74-.12.23-1.32-.12-1.32-.12.18-.09-5.24-20.09-10.48-27.37a4,4,0,0,0-5-2.13,2.24,2.24,0,0,0-.56,3.71,2.15,2.15,0,0,0,3.07-.48,1,1,0,0,0,0-1,.25.25,0,0,0-.38,0c.08,1.29-1.57,1.38-2.29.87-1.15-.86-.38-3.58,2.75-2.49a2.26,2.26,0,0,1,1,3.12,2.87,2.87,0,0,1-2.9,1.89,3.55,3.55,0,0,1-3.65-3.38,4.42,4.42,0,0,1,2.14-3.83,2,2,0,0,1,1.41-.38Zm18.33,1c5.25.24,7.67,6.43,4.9,10.16-.7.89-1.15.73-1.45-.42-.15-.47-.31-.54.11-.91,2.46-2.36.44-6.94-3.61-7.13a5.9,5.9,0,0,1-.83-1.69,2.66,2.66,0,0,1,.88,0Zm43.8.43c.4.1,1.24.91,1.24,1.19s-.17.27-1.1.11c-2.21-.4-4.42.88-6.27,3.67-.9,1.68-1,1.52-1.48.07-.24-.74-.25-.72.69-2.09a7.53,7.53,0,0,1,6.91-3Zm2.05,2.84c1.85,1.68,1,5.38-1.51,5.76-2.2.25-4.16-2.13-2.77-3.75,2.45-2.49,4.25,1.58,2.12,1.94-.12,0-.22.13-.22.21,1.62.54,2-1.65,1.34-2.57a2.11,2.11,0,0,0-2.43-.85c-1.48.53-3,2.54-3.85,5.07-.24.71-.38,1.38-.49,1.54-.21.32-.2.31-.39.19a6.48,6.48,0,0,1-.49-2.25,8.39,8.39,0,0,1,.9-2.65c1.6-3,5.21-5,7.79-2.64Zm-45-.75c2.15.13,3.85,3.18,2.92,5.3-.29.39-.71.66-.9.41-.61-1.57-1.16-2.86-1.87-4.49-.34-.73-.59-1.23-.15-1.22Zm-14.61,1.77a89.34,89.34,0,0,1,6.2,14.18,77.78,77.78,0,0,1,3,10.79c.06.33.14.51,0,.65s-1.41-.36-1.41-.36c-2.48-9.55-4.67-16.59-8.85-23.73a2.37,2.37,0,0,1,.44-1.68c.14-.15.32-.16.59.15ZM26,191.61c11.59.78,20.54,5.66,25.33,18.57A50,50,0,0,0,26,201.72v-1.79c10.66-.09,21.16,5.47,20.95,5.39C43,197.13,33,193.81,26,193.6Zm79.33,4.7c.15,1.93.2,4.13.37,5.77a.53.53,0,0,0,.78.06c.7-2,.91-4.36,2.06-6.13.25-.33.62-.23,1.67-.11,2.36.21,2.87-3,1.15-3.83C108.6,190.72,106,194.34,105.3,196.31Zm3.54-1.32c-1.69,1.39-1.74,3.39-2.25,5.23-.27,1.24-.66,1.89-.82,0-.25-2.82.23-7.38,4-8.07a1.75,1.75,0,0,1,2,2.52,2.07,2.07,0,0,1-2.87.29ZM29,195.82a1.51,1.51,0,1,1-1.51,1.51A1.51,1.51,0,0,1,29,195.82Zm4.81,1a1.35,1.35,0,1,1-1.35,1.35A1.35,1.35,0,0,1,33.84,196.86Zm4.38,1.48a1.1,1.1,0,1,1-1.1,1.1A1.1,1.1,0,0,1,38.22,198.34Zm3.11,2a.85.85,0,1,1-.85.85A.85.85,0,0,1,41.33,200.31ZM30.43,203a9.31,9.31,0,0,0,.31,4.48c.86,2.5.47,6.92.47,6.92L28.69,217A52.84,52.84,0,0,0,29,210.2c-.09-1.31-.68-2.53-.83-3.85a25,25,0,0,1,.07-3.65Zm3.95.75v10.67L26,222.79v-2.2l7.18-7.28v-9.89Zm21.36,24.34-.57.92h9.71l.21-.92Zm12.57,0-.23.92h4.5l.15-.92Zm7.37,0-.14.92H92.23l-.25-.92Zm19.51,0,.27.92H99.9l-.37-.92Zm7.43,0,.33.92h7.64l-.63-.92Z"/>
  <path d="M14,11.07v2.76h2.68s.06,2.66.09,8.31c0,5.49.13,8.21-.22,9.77-.94,3.6-6.16,3.62-7.2,1a10.48,10.48,0,0,1-.47-4.19H6s0,.76,0,1.7c0,4,1.36,6,4.5,6.75s7-.46,8.34-3.21c.8-1.57.71-1.68.73-11.18,0-6.34.11-9,.11-9h2.47V11.07H14Z" style="fill: #d40000"/>
  <path d="M164.56,238.38v-2.76h-2.68s-.06-2.66-.09-8.31c0-5.49-.13-8.21.22-9.77.94-3.6,6.16-3.62,7.2-1a10.48,10.48,0,0,1,.47,4.19h2.89s0-.76,0-1.7c0-4-1.36-6-4.5-6.75s-7,.46-8.34,3.21c-.8,1.57-.71,1.68-.73,11.18,0,6.34-.11,9-.11,9h-2.47v2.76h8.17Z" style="fill: #d40000"/>
  <path d="M58.6,20.18,73.73,38.3c3.15-1.13,19-2.94,28.58-.77,1.66,6.51,3.42,13.09,5.28,19,0,0-.6.7-1,1.14-6.09,7-1.78,13.8,3.79,16-1,2.09-11.68,7.29-18.18,6.67,0-.06-2-4.77-6.07-3.18-1.39.54-2,1.59-3,2.61-3.88-1.17-9-3.73-11.68-6.54,5,2.49,9.9,3.82,14.83,3.16C78,72.92,75.71,64.61,74.2,57.9c-.52,1.57-.75,5.72-2.12,6.58-.36.23-.42.16-.68-.72-1.94-5.08-8.91-1-5.87,4.11l-2.32,1.29v.38l-1.43.68-.3-.2c-6.64,3.21-13.14,6.55-19.92,9.62,0,0-3.6,6-6.89,8.35l-.13-20.28L24.8,58.9l0,4.82.7.74c.13,33.94,0,67.34,0,98.16l0,28.37-.59,0,0,3.31.67.15-.09,4.67-.35,0-.05,3,.53.08v16.7l-.53.68v4.77l10.18-9.68v-11c8,1.52,16.64,7.29,16.64,7.29-1.41-9.22-11.18-16.81-16.78-18.33l0-21.84a35.82,35.82,0,0,1-6.23,2c-1,.14-1.41,0-1.9-.75-.35-.54-.36-1,0-2.14a1.44,1.44,0,0,0,0-1.18,3.55,3.55,0,0,1,0-2.36,2.22,2.22,0,0,0-.13-1.87c-.3-.75-.33-.89-.2-1.33.34-1.14.36-1.33.18-1.84a2.89,2.89,0,0,1,0-2.37c1.5-2.52,4.86-1.9,6.69-1.81.93,1,1.48,1.6,1.56.11.65-1.78,3.16,0,4.33.8,10-13.39,14.91-31.52,2.38-54.21l-7,5.58,0-7C44,96.53,54.41,83,58.91,72.37c1.5,1.76,3.22,3.48,4.84,5.25l-1.06,1.77-.31-.18A127.8,127.8,0,0,1,51.6,94.93a156.55,156.55,0,0,1,7.63,16.2l.57-.26.51,1.64-1,.3c3.41,11.19,3.52,21.55,1,31.11l.6,2.54s3.61,3.5,4.58,4.52l5.37,5.21L74.11,153l-.19-.27L102.78,124l1.8,1.72C86.9,143.57,56.2,174.33,56.2,174.33l-1.06.15a11.21,11.21,0,0,1-2.07.09,2.58,2.58,0,0,0-1.81.31A7.28,7.28,0,0,0,48.77,177a2.53,2.53,0,0,1-1.2.91c-6,3.59-.58,10.82,4.54,7a95.32,95.32,0,0,1,8.68,23.79,3.24,3.24,0,0,1-.67.29L46.63,229h5.19l.54-.92H48.47l12.41-17.94a100.7,100.7,0,0,0,45,2.35l12.8,15.58h-5.08l.72.92,6.57.1-15-17.77c-5.39,1.44-19.6,2.6-28.51,1.09C76,205.83,73.71,198.63,72,192.9c8.51-6.66,2.12-15.46-3.13-16.68-.25-.48,10.65-7.11,18.41-6.65,2.22,5.34,7.09,4.55,8.84.58,3.22,1.18,7.4,2.36,10.72,5a73.19,73.19,0,0,0-13.77-1.57c8,3.11,10.28,9.67,11.26,15.86a13.42,13.42,0,0,0,.72,2.35c.68-2.23,1.24-4.54,2.59-6.46.61,2.19,2.63,4.26,5.19,2.59,2.29-1.5,1.6-3.64,1.2-5.9l1.78-1,.23.2s2-.83,2.92-1.31c.15-.07-.18-.38-.18-.38l18-8.51a69.6,69.6,0,0,1,7.19-8.77c.08,7.55.06,10.66.06,19.62,3.7,3.23,7.14,7,10,9.16L154,59h-.15V56.46h.21V49.84l-.19-.11V47.65l.25-.18,0-17.84-.29,0,0-4.28-10,10.64V46c-3.29-.62-9.49-3.47-13.85-5.77-1.23-.75-1.92-1-1.88-.52.54,6,9.18,15.1,15.81,17.49V79.63s1.57-.78,2.53-1.19l.14.4,2.14-.89.17-.46,1.86-.23c0,.38.08.33.08.33,1.65.46,2.38,1.59,1.72,2.86-.23.42-.28,1-.09,1.18.72,1.13.9,2.13,0,3.2a1.15,1.15,0,0,0,0,1.44c.89,1.8.39,1.69-.29,2.76-.15.81.74,1.34.44,2.11a3.08,3.08,0,0,1-1,1.36c-.42.31-.77-.26-.77-.26a14.1,14.1,0,0,1-2.3.76c-.95.31-2.58.86-3.14-.42-.32-.73-.06-1.4-.09-2.21L144,90.21,144,93.92c-.79.42-4-1.19-4-1.19-13.56,17.58-13.18,37.09-3.12,53.43.1.26,7.08-4.78,7.08-4.78s0,4.14,0,6.38a92.51,92.51,0,0,0-23.6,29.44l-3.8-4.51a2.72,2.72,0,0,0,.67-2.19l2.76-4.12,0-1.07,7.17-10c.11.6-7.4-13.46-8.4-18l.5-.14c-3.37-12.77-2.68-21.71-.24-32.12l-.7-.67-9.46-9.46L106.63,97c-.12.11-.69,0-.81.15-5,4.67-9.77,9.36-14.51,14.24-.12.13.08.65,0,.77-4.75,4.89-9.67,9.54-14.47,14.42L75,124.9c17-17,49.06-48.63,49.06-48.63a.51.51,0,0,1,.36-.26,10.45,10.45,0,0,0,2.57-.49c1.06-.25,1.23-.32,1.67-.78a9.6,9.6,0,0,1,1-.88q.7-.51,3.18-2.68c3.85-3.9.64-9.16-5.42-6.22-3.47-7-6.85-15.91-8.28-23.22-.08-.46,0-.6.34-1.18l1.13-1.77C125,32,129.41,26.39,133.2,20.18h-5.35l-.66,1.05h4.41L118.49,40.11c-24.15-7.9-43.95-2.89-44.42-2.78L61,21.24h6l-.72-1.05Zm11.76,0L71,21.24h6.26l-.36-1.05ZM80.8,21.24h3.86l-.22-1.05h-4Zm6.91-1.05L88,21.24h15.7l.28-1.05Zm19.2,1.05h3.93l.3-1.05h-4Zm7.79-1.05-.34,1.05h8.92l.67-1.05Zm38.15,7.28v2.93l-6.28,6.78v9.47l-1.95-.43V36.42ZM151,33.71c.05,2.9-.41,5.68.35,8.64a25.08,25.08,0,0,1,1.24,4.88l-2.12-.05c-.27-.87-.37-1.83-.69-2.9a16.8,16.8,0,0,1-.84-8.21Zm-46.3,4.73c.08.14.33,1.37.57,2.51a109.79,109.79,0,0,0,4.13,15.58c1.93,5.94,4.8,13.41,7.58,16.87.37.43.55.92.42,1.14s-1.36-.14-2.12-.95A12.32,12.32,0,0,1,114,71.51c-1-1.82-2.28-4.47-2.41-4.89-.05-.17-.57-1.48-1.14-2.91a73.78,73.78,0,0,1-2.45-7c-.67-2.21-1.28-4.52-2-6.85a84.16,84.16,0,0,1-2.6-10.33,5.19,5.19,0,0,1-.21-1.24A1.55,1.55,0,0,1,104.74,38.44Zm.68.24c-.12-.1,1.11-.12,1.5.21a6.35,6.35,0,0,1,.5,1.79A128.64,128.64,0,0,0,112.14,58a66.31,66.31,0,0,0,5.35,12.31,25.08,25.08,0,0,0,2.7,3.76c.64.75.69.86.52,1.07s-.58.22-1.29-.12a9.62,9.62,0,0,1-2.84-3.1,80.16,80.16,0,0,1-6.71-15.69,115.45,115.45,0,0,1-4.4-16.91l0-.62Zm3.91.81A4.19,4.19,0,0,1,110,41.4c1.29,5.32,2.36,10.08,3.88,14.45.82,2.35,1.54,4.7,2.42,6.91a37.74,37.74,0,0,0,5.25,9.44,12.52,12.52,0,0,0,3,2.61c.74.44.85.55.8.81s-.78.32-1,.31A6.76,6.76,0,0,1,121,74.14c-3.57-3.86-6.12-10.17-8-15.34-3.19-8.91-5.77-20-5.28-19.7,0-.26,1.28,0,1.59.38Zm1.92.38c.67.18.75.28.91,1,1.14,5.09,2.35,9.58,3.7,13.85a79.36,79.36,0,0,0,5,12.74,14.09,14.09,0,0,0,5.85,6.4,13.59,13.59,0,0,1,1.25.67c.12.61-.4.6-.82.62a4.37,4.37,0,0,1-2.76-1c-2.8-1.93-5.25-6.31-6.33-8.8a99.57,99.57,0,0,1-3.63-9.61,108.06,108.06,0,0,1-4.08-15.44C110.28,39.66,110.58,39.8,111.25,39.87Zm41.61,10.06c-7.06.47-14.31-2.52-20.13-5.2,4.38,5.81,9.06,11,20.11,12v1.86c-14.39-.2-24.51-14.79-24-18.42,5.92,3.83,16.57,8.25,23.95,7.92,0,.6,0,1.2,0,1.8Zm-38.73-9.1c1.18,4.39,2,9.27,4,14.17,2.39,6,3.71,11.33,8.15,16.28,1.38,1.42,4.08,1.37,4.08,1.37s-.34.77-.8.89a4.91,4.91,0,0,1-2.33,0c-2.57-1.08-4.53-3.83-5.54-5.69-.95-1.39-3.26-7.13-5.17-13-2.08-6.37-3.79-13-3.59-14.33A1.4,1.4,0,0,1,114.14,40.83Zm2,.59c.66.44.49,1.48.75,2.56a97.73,97.73,0,0,0,3.82,11.94,72.31,72.31,0,0,0,4.42,9.89,21.33,21.33,0,0,0,2.28,3.53c2.62,2.79,5.58.5,4.78-1.94-.36-1.11-2.51-1.29-2.63-.44a1.5,1.5,0,1,1,.91,2.85c-2.34.54-4-2.63-1.9-4.57,3.5-2.38,6.18.87,5.35,4A4.26,4.26,0,0,1,130,72.08c-2.29.07-3.23-.63-5.58-4-2.69-4.32-3.85-8.53-5.75-13.25a57.66,57.66,0,0,1-3.54-13.38c.18-.4.62-.13,1,0Zm1.56.54a1.47,1.47,0,0,1,1.11.46c3.15,11.51,5.78,18.4,8.45,23.26a3.5,3.5,0,0,1-.22,1.15c-.32.46-.47.34-.89-.38-1.68-3.26-3.29-6.86-4.78-10.57a61.53,61.53,0,0,1-4-13.19c-.1-.62-.21-.77.3-.74ZM139,48.53a.81.81,0,1,1-.81.81A.81.81,0,0,1,139,48.53Zm-65.48-.15c-.93,1.27-1.7,5.83-2.67,5.89s-2.37-.63-3.21.34c-1,1.18-.39,2.47.86,3.19a4.37,4.37,0,0,0,2.55.14c3.06-1,4.22-6,2.46-9.56Zm68.54,1.2a1.17,1.17,0,1,1-1.16,1.17A1.17,1.17,0,0,1,142.05,49.58Zm-68.48.55c1.72,3.46-2.1,9.81-5.45,7a1.54,1.54,0,0,1,1.15-2.65,2.35,2.35,0,0,1,1.57,1c1.06.11,2.29-5.28,2.73-5.38Zm72.54.64a1.32,1.32,0,1,1-1.32,1.32A1.32,1.32,0,0,1,146.11,50.78Zm4.66.93a1.34,1.34,0,1,1-1.34,1.34A1.34,1.34,0,0,1,150.77,51.71Zm-43.36,6.11c.2,0,.34.19.47.58.27.8.27.9-.16,1.43-4.13,5.91-.37,11.82,5.62,12.2.51,0,.76.6,1,1.27,0,.31,0,.31-1.4.34-8.83-.71-11.17-10.45-6.4-15.23C107,58,107.22,57.82,107.42,57.82Zm39.22.64V78.08l-2.09.76V58Zm3.88.76q3.9,9.7.37,17.79l-2.37.34c3.26-7.6,1.87-13,0-18.29ZM25.68,60.29l8.45,8,.29,88.91-1.35-.48-.54-87.45-6.86-6.42Zm83.19,1.11a1.25,1.25,0,0,1,0,1.29c-1.16,2.84-.21,5.55,2.65,6.4.68.22.79.33,1.19,1.17.26.55.38.75.27.87-2,.28-4.81-1.58-5.59-3.44a6.5,6.5,0,0,1,.85-7.17C108.47,60.52,108.68,60.86,108.87,61.4ZM75.08,64.05c-.23,1.38-2.18,3.58-3.9,4.39-1.59.61-4,.3-5-.76-3.65-4.27,3.16-8.56,4.87-4.11,1,2.92-3.15,3.61-3.34,1.37,0-.58.19-.76.72-1.13s.42-.63,0-.63a1.81,1.81,0,0,0-.91,3c1.42,1.49,3.18.62,4.4-.47,1.63-1.47,1.92-3.69,2.29-5.57a39.1,39.1,0,0,1,.84,4Zm34.48-.61c.08,0,1.75,4,2,4.57-.06.4-.49.37-1.24-.15a2.93,2.93,0,0,1-1.3-2.13C108.9,65.29,108.74,63.7,109.56,63.44ZM75.64,65.13c.37,0,.75,1.35.58,2-.3,1.2-3.44,3.23-5.65,3.64l-1.05.2A1.86,1.86,0,0,1,68,70.27c-.39-.4-.58-.8-.48-.89s1.09.1,1.95.09c2.4,0,4.26-1.7,5.68-3.75.22-.32.45-.59.52-.59Zm-47.77,1s1.63,1.47,2.48,2.32c-.09,3.92-1.54,8.17-1.54,11.67,0,3,2,5.59,2.21,8.24a14.85,14.85,0,0,1-1.23,6.2,14,14,0,0,0-1.2,5.58c.1,4.33,3.21,9.07,2.12,13.35-1,4-2.19,6.35-1.88,8.49.6,4.12,2.79,7.78,2.21,11.21-.54,3.19-2,6.38-1.83,9.27.18,3.33,1.42,6.11,1.77,9.14a22,22,0,0,1-.33,5.05l-2.28.19c1.25-4.67-.61-8.9-1.33-13.39-.61-3.82,1.1-6.87,1.61-10.13a12.15,12.15,0,0,0-1-6.54c-2-4.76-1.27-7.87.16-12,1.77-4.42-.66-7.92-1.27-12.15a18,18,0,0,1,1.3-9.47c1-3.12,1.31-4.93-.21-7.93a10.11,10.11,0,0,1-1.22-5.51c.5-4.95,1.83-7.72,1.51-13.57Zm48.86,2c.35,0,.53.25.53.76,0,.92-1.38,2.09-3.81,3.24-1.26.59-2,.68-2.73.33s-.66-.61.1-.83A11.37,11.37,0,0,0,75.6,68.9a3.9,3.9,0,0,1,1.12-.8Zm-11,.64C72,75.46,78.14,78.92,82.85,80.53l-.74,1.76c-6.18-2.4-12.48-5.73-17.82-12.89Zm12.09,1.1a2.18,2.18,0,0,1,.81,1,2.66,2.66,0,0,1-.52.9,4.93,4.93,0,0,1-1.82,1.37c-1.4.77-2.25,1-2.86.64s-.4-.59,1.11-1.48a17.15,17.15,0,0,0,2.31-1.65A8.49,8.49,0,0,1,77.81,69.83Zm-16.62,1A38.19,38.19,0,0,0,80.73,85L79.5,86.69C72.4,84.24,65.44,79.8,59.09,72Zm18,.87c.26,0,.84.66.84.95a1.17,1.17,0,0,1-.25.57A12.28,12.28,0,0,1,77.4,75a1.31,1.31,0,0,1-1.36,0c-.62-.31-.51-.57.5-1.22a13.43,13.43,0,0,0,1.66-1.31,3.62,3.62,0,0,1,.94-.73Zm-20.68.51c-.15.18-7.57,17.19-23.29,29.25l-.07-2.82c8.71-6.91,15-16.37,19.82-24.64Zm22.17,1.22c.24,0,.41.15.57.47s0,.72-.9,1.38a1.62,1.62,0,0,1-1.21.49c-1.17,0-1.14-.3.14-1.45.67-.6,1.08-.88,1.39-.89Zm30.36.84,3.28.25c.88.61-12.81,9.58-22.3,8.78l.25-2.15C100.55,81.39,111.22,74.66,111,74.27Zm-28.11.84c.75.42,1.69.92,1.46,1.08a6.7,6.7,0,0,1-3.08-.2c-.38-.21-.36-.31.17-.91S82.18,74.72,82.88,75.11Zm-29.22-.53c-5.19,9.17-11.38,17.54-18.54,23L35,92.71c6.81-5.25,12-14.84,12-14.87Zm65.05.58,1.59.93c-9.9,9.17-20.6,13.13-30.88,12.14l.83-1.86c16.68,1.32,27.76-11,28.46-11.21Zm2.41.33s.53-.07.48,0a77.69,77.69,0,0,1-10.76,8.59c-14,14.39-26,25.75-38.19,38.56l-1.95-2,1.77-1.87c0-3.8,4.75-8,7.2-11.09,1.51-1.92,3.75-5.12,2.89-6.23,4.24-.85,5.25-4.29,5.34-7.33a19.55,19.55,0,0,1,1.15-5.55C108.24,90.11,120.59,76,121.12,75.48ZM87.7,77.61a3.86,3.86,0,0,1,3.82,4.16c0,1-.38,1.8-1.76,4.5-1.34,2.31-1.52,3.72-2,6.38l-1.36-1.23-2.48,2.24,0-3.26s.86-1.09,2.24-2.64c1.75-1.95,3.34-4.46,3.27-5.86a2,2,0,0,0-3.06-1.64c-1.32.92-1.93,2.6-2.71,7.6-.14.89-.27,1.93-.34,2.16a13.21,13.21,0,0,1-2.11,2.42,30.36,30.36,0,0,1-.92-3.67l-1.93.32a25.54,25.54,0,0,0,5.1-8.43c1-1.89,2.36-3,4.25-3Zm-42,.78s-3.85,8-10.6,13.19l0-3.13a32.68,32.68,0,0,0,6.91-8.28Zm92.56.2c-13.35,13.83-30.77,39.3-9.15,75.08l2.86-3.3c-17.41-32.36-5.07-49.13,6.39-66ZM66,79.73C70,82.51,74,85.27,79.31,87c-.28.94-7.53,7-2.33,12.69.22.3-.34,1-1.18,2-2.49,3.4-5,5.82-7,9.65l-.09,7.19-2.08-1.84Zm71.67.66.09,4.1c-19.83,24.12-17.6,45.84-6.39,65.85l-2.15,2.18c-18.38-31.65-6.91-55.51,8.45-72.13ZM88.79,82.82c-.87,2.31-4.7,6.27-4.7,6.27s.51-3.86.83-5.07a7.79,7.79,0,0,1,1.34-2.78C87.79,79.53,89.33,81.46,88.79,82.82ZM62.47,80.65,62.84,113l-2.79-2.81-.41-24.71ZM58.7,87l.55,21.94a131.33,131.33,0,0,0-6.77-13.7Zm22,6.87c.87-.86,1.52-1.56,2.51-2.52.1,1.29,0,2.27,0,3.63a34.94,34.94,0,0,0,3.24-2.71,6.78,6.78,0,0,1,1,2.87,6.06,6.06,0,1,1-10.12-4.37,10.79,10.79,0,0,1,2.41-1.21s.63,2.95,1,4.3Zm65.87.16c-.2,31.42,0,87.05,0,87.05l6.27,5.93v2.59l-8.37-7.67s-.45-65.58,0-90.38c.66,2,1.17,2.25,2.1,2.47Zm4.17-1c.22,3-.29,6.24.23,9.36,1.82,4.66,1.9,9,.46,12-1.31,3.77-.77,7.4.42,11.21,1.6,5.55-1.5,9.7-1.28,14.31,1.79,7.14,2.21,13,.77,16.66a12.1,12.1,0,0,0-.18,8.49c1.73,4.28,2.12,7.78.5,11.85-1,2.44-.35,4.94,0,7.68l-2.52-2.15a9.33,9.33,0,0,1,.21-6.29c1.92-3.89.89-6.56-.5-10.59a10.78,10.78,0,0,1,0-7.92c1.89-4.44,1.14-9.56.21-13a17.07,17.07,0,0,1-.65-4.83,21.81,21.81,0,0,1,.84-6.07,14.09,14.09,0,0,0-.27-9.06c-1.15-3.7-1.43-7.21.13-10.45a11.35,11.35,0,0,0,.44-7.84,37.35,37.35,0,0,1-1.22-12.69Zm-7.07,1.72c-.22,21.53,0,46.19,0,46.19s-6.38,4.47-6.35,4.23c-8.21-13.55-11.34-33.52,3-51.53a18.82,18.82,0,0,0,3.34,1.11Zm-97,5.13c11.63,21.72,13.14,43.67-6.08,66.18a11.79,11.79,0,0,1,.21,5.66c3.75-2.92,33.8-33,8.49-74.78ZM106,98.05l5.71.34.38,4.92-1.85,1.83a18.69,18.69,0,0,0-.35-4,34.41,34.41,0,0,0-.37,4.85,6.67,6.67,0,0,1-1.39,1.31c-.3-.51-.22-2.92-.56-3.84-.29,1.63-.14,3-.36,4.79a3.77,3.77,0,0,1-1.51,1.34c-.36-.75,0-1.58-.62-3.61a24.71,24.71,0,0,0-.32,4.82c-.24.44-1.36,1.39-1.56,1.32-.53-1.27-.27-2.49-.49-3.68-.47,1.59-.23,2.68-.25,4.66a7.58,7.58,0,0,1-1.7,1.68c-.33-1.28-.17-3.32-.48-4.19-.42,1.66-.08,3.14-.26,5a20.64,20.64,0,0,1-1.7,1.79L98.09,112l-6-.26A11.61,11.61,0,0,1,93.87,110c1.68-.3,2.9.08,4.85-.22a20.11,20.11,0,0,0-4-.56c.5-.52,1-1,1.52-1.54,1.47,0,3.37.29,4.6-.17a15.54,15.54,0,0,0-3.74-.57l1.65-1.67a31.54,31.54,0,0,0,5.05-.35c-1.31-.22-4.17-.61-4.17-.61s1-1.08,1.72-1.71a13.86,13.86,0,0,0,4.44-.18,11.34,11.34,0,0,0-3.83-.34,18.5,18.5,0,0,1,1.76-1.8c1.44,0,2.88,0,4.33-.09a15,15,0,0,0-3.55-.61L106,98.05Zm-56.53.06c16,26.11,10.21,54.32-7.6,71.89l-.52-3.43c16.81-20.46,19.75-41.59,6.15-66.44Zm29.71,3.51c-2.87,4.32-7.25,8.57-8.91,12.09-.34.4-.45,1.29-1,1.47-.26,0-.35-.5-.28-1.65a4,4,0,0,1,.55-2c2.26-4.13,4.89-7.11,7.78-11Zm.67.42,2.65.17c-1,3.53-4.33,6.84-6.66,9.49s-3.66,5.61-3.55,6.86a20.4,20.4,0,0,1-1.81,1.75l-1.55-1.42C70.05,113,75.61,107.59,79.82,102Zm32.43,2.39c1.89.17,3.72.29,5.74.53a11,11,0,0,1,.31,1.14l-1.11,5c-.56-.56-.78-2.31-.89-3.18a18.44,18.44,0,0,0-.15,4,7.43,7.43,0,0,1-1.47,1.74c-.17.13-.39-2.27-.57-3.65-.78,1.32-.33,2.75-.32,4.63a7.59,7.59,0,0,1-1.59,1.42c-.05-1.26-.19-3.33-.64-3.67-.09,1.59-.05,2.94-.09,4.58a4.84,4.84,0,0,1-1.5,1.51c-.55-1.1-.36-2.3-.62-3.35a13.65,13.65,0,0,0-.26,4.24,9.18,9.18,0,0,1-1.59,1.44c-.35-.81,0-2-.55-2.91a33.68,33.68,0,0,0-.35,3.89,7.4,7.4,0,0,1-1.43,1.53,19.49,19.49,0,0,1-.37-4.85c-2.06-.19-3.79-.19-6-.34a15.89,15.89,0,0,1,1.8-1.87s4.08.36,4.51-.19c-1.2-.15-3.7-.57-3.7-.57a9.75,9.75,0,0,1,1.21-1.36,40.41,40.41,0,0,0,5-.16c-.6-.5-3.8-.7-3.8-.7a5.92,5.92,0,0,1,1.38-1.49c1.63.06,3.67.12,4.67-.37-1.1-.45-2.43-.25-3.69-.6a6.22,6.22,0,0,1,1.33-1.55c1.55.1,3.73.18,4.8-.29-1.27-.43-2.58-.15-3.68-.65a6.65,6.65,0,0,1,1.33-1.53,18.2,18.2,0,0,0,4.55,0c-.86-.67-2.51-.4-3.51-.83a5.19,5.19,0,0,1,1.3-1.46Zm-70.56,1.08C52.17,124.3,50.6,142,39.44,157.06a10.13,10.13,0,0,0-4.11-1.31L35,110.39Zm75.17,7.27a16.33,16.33,0,0,1-.26,2.78,8.28,8.28,0,0,1-2.15-.34,6.82,6.82,0,0,1,2.41-2.44Zm-56.48.91s1.38,0,2.07,0c0,0,.11,3.51.39,5.54l4.49.22-1.74,1.82-3.41-.11c-.6-2.52-1-5-1.8-7.48Zm53.55,2.13a16.19,16.19,0,0,1,2.49.47,86.77,86.77,0,0,0-.06,8.93,8.16,8.16,0,0,0-.58.64,37.31,37.31,0,0,0-.53-3.79,32.83,32.83,0,0,0-.11,4.48,6.62,6.62,0,0,1-1.1.9c-.46-.75-.25-2.26-.9-3.11a38.23,38.23,0,0,0,.18,4,8.31,8.31,0,0,1-1.76,1.6,17.79,17.79,0,0,0-.67-5.12s-1.09-.09-2.21-.14a24.11,24.11,0,0,1-3.24-.34l1.5-1.55s4,.63,4.45,0a15.59,15.59,0,0,1-3.68-.83,7,7,0,0,1,1.25-1.47c1.34.42,4.39.45,4.14.14a12.56,12.56,0,0,1-3.14-1,5.26,5.26,0,0,1,1.2-1.38c1.49.05,3.68.61,4.28.09-1-.42-2.53-.54-3.34-.89a12.5,12.5,0,0,1,1.84-1.61Zm-46,4.23a9.34,9.34,0,0,1,.29,2.69c0,2.13.12,2.79.12,2.79a38.61,38.61,0,0,1,5.11.57c-.64.65-1.15,1-1.55,1.38-1.42-.07-2.67-.13-4.14-.06.82.64,2.45.43,3.58.9A5.47,5.47,0,0,1,70,129.72a22,22,0,0,0-4.59.08,19.78,19.78,0,0,0,3.66.61c.06.18-1.12,1.44-1.65,1.83-1.49.27-3.19-.14-3.82.28a8.41,8.41,0,0,1,2.84.69,4.32,4.32,0,0,1-1.54,1.6,2.76,2.76,0,0,1-2.43-.26c.25-3.09.25-6.1.24-9.59l.61-.44a16.59,16.59,0,0,0,.71,4,31.11,31.11,0,0,0,0-4.5,5.74,5.74,0,0,0,1.39-1.46,17.53,17.53,0,0,0,.53,3.83,17.62,17.62,0,0,0,.37-4.7,16.49,16.49,0,0,1,1.6-1.63Zm-5.62,1.77a17.75,17.75,0,0,1,2.53,0A8.44,8.44,0,0,1,62.65,124,6.35,6.35,0,0,1,62.32,121.82ZM116.48,126l.41,2.86-3.12-.21Zm-42.09.37c.52,2.17.34,3.2.65,5.72,1,.24,3.73-.24,5,.52a19.5,19.5,0,0,1-1.33,1.54,15.77,15.77,0,0,0-4.6.16c1,.64,2.53.12,3.73.55a21.75,21.75,0,0,1-1.49,1.75,19.84,19.84,0,0,0-4.86,0c.72.77,2.73.46,3.86.84a6.14,6.14,0,0,1-1.22,1.42,25.77,25.77,0,0,0-4.84,0,14.61,14.61,0,0,0,3.76.82,7.38,7.38,0,0,1-1.61,1.67c-1.44,0-3.08-.09-4.57,0,.55.71,2.7.5,3.77.9a4.16,4.16,0,0,1-1.47,1.66,14,14,0,0,0-4.49-.06,16.18,16.18,0,0,1,3.73.83,5.79,5.79,0,0,1-1.7,1.64l-5.63-.51a9.12,9.12,0,0,1,.28-3.74c.51-2.46.91-3.08,1-2.56a7.22,7.22,0,0,0,.68,2.75,16,16,0,0,0-.23-3.88,10.41,10.41,0,0,1,1.53-1.84s.59,3.06.81,3.56a15.28,15.28,0,0,0-.08-4.25,10.5,10.5,0,0,1,1.73-1.61,37.13,37.13,0,0,0,.76,3.7,41.14,41.14,0,0,0-.06-4.45,14.13,14.13,0,0,1,1.89-2c.63,1.15.33,2.27.6,3.59.49-1.29.22-2.88.17-4.5.54-.55,1.09-1.1,1.67-1.61,0,0,.64,4.81.78,3.32,0-1-.09-2-.12-2.87a2.51,2.51,0,0,1,.28-1.57,12.67,12.67,0,0,1,1.61-1.5ZM107,128.26s1.26,1.08,1.26,1.38c-2,2.6-2.57,2.8-2.68,4.13a14.86,14.86,0,0,1-2,4.21,111.21,111.21,0,0,0-7.34,9.56c-.2.88-.26,1.46-1.07,1.88a6,6,0,0,0-1,.64A6.69,6.69,0,0,0,91.63,154c-.2.88-.33,1.67-.68,4.38-.15,1.11-.63,3.06-.63,3.06-7.48-.11-14.48,1.19-20.72,4.71Zm10,1.15,1.66,7.56-1.71,0-.17-5.49-5.35-.51,2-1.77Zm-8.11.69c.46.47,1,1,1.44,1.49-1.43,4.78-6,11-10.46,17.15l-3.3-.36a94.69,94.69,0,0,1,6.78-9,17.47,17.47,0,0,0,3.28-6.92c.78-.94,2.25-2.31,2.25-2.32Zm1.78,1.68,2.49,2.53.61,35.8a46,46,0,0,0-13.2-7l.84-1.92.93-1c3.28-3.56,2.55-7.39.05-10.09,3-4.44,5.8-7.75,8.12-12.09a41.85,41.85,0,0,1,.15-6.27Zm-29.34,7a22.73,22.73,0,0,0,2.51.15c2.18.07,2.64.13,2.64.36a9.16,9.16,0,0,1-1.25,1.37c-1.41,0-2.84,0-4.24,0,.51.56,3.53.74,3.53.74-.7.71-1.06,1.05-1.88,1.84a20.41,20.41,0,0,0-4.35.18,22.54,22.54,0,0,0,3.77.54s-1.07,1.08-1.6,1.64a16.75,16.75,0,0,0-4.68,0c1.25.23,3.56.74,3.56.74L77.71,148a13,13,0,0,0-4,0,25,25,0,0,0,3.35.72,14.92,14.92,0,0,1-1.3,1.41c-1.7.14-2.81-.13-4.36.29,1,.42,2.28.14,3.38.58.17.17-1.45,1.71-1.45,1.71l-5.41-.08-.5-5.73a11.22,11.22,0,0,0,1.39-1.37c.68,1.14.69,3.07,1,3.78a39.7,39.7,0,0,0-.16-4.5c0-.3,1.23-1.59,1.47-1.54.48,1,.15,2,.89,3.35a20.6,20.6,0,0,0-.13-4.26,6.12,6.12,0,0,1,1.5-1.51c.4,1.86.18,3.34.87,3.88a40.64,40.64,0,0,0,0-4.86,10,10,0,0,1,1.47-1.36c.59,1.11.28,2.73.95,3.63a32.77,32.77,0,0,0-.22-4.47A11.24,11.24,0,0,1,78.25,136c.53,1.32.22,2.93.82,3.85.14-1.58-.05-3.2.13-4.62a13.13,13.13,0,0,1,1.6-2,15.38,15.38,0,0,1,.47,5.45ZM110,134.3l0,3.5c-1.4,3-4.64,7.4-7.93,12.13l-1.71-.93A93.12,93.12,0,0,0,110,134.3Zm-46,1.32a8.16,8.16,0,0,1-1.63,1.66c0-.71.17-1.9.15-1.89Zm52.64,2.3,2.42,2.39.61,25.64-2.55,4.16Zm3,3.38a94.85,94.85,0,0,0,7,13.87l-6.48,9.15ZM103.92,154a5.77,5.77,0,0,1-3.09,6.63,4.85,4.85,0,0,1-1.28.31c-.28-1.66-.16-3.26-.54-4.94a32.07,32.07,0,0,1-2.64,2.75s0-2.39,0-3.51L93,158.8a5.9,5.9,0,0,1-.61-1.27,6.26,6.26,0,0,1,2.54-7.31c3.38-2.28,8.42.29,9,3.79Zm39.77-1.79c-5.4,4.19-13.1,13-19.7,24.52L121.09,178c4.58-10.36,13.34-21.35,22.54-28.91,0,1.06,0,2.11.06,3.17Zm0,1,.06,4.67a71.14,71.14,0,0,0-12.51,15.41c-2.1,1-6,2.93-6,2.93-.49-.12,10.61-17.41,18.45-23Zm-48,3.83a5.86,5.86,0,0,1-.74,3.75c-1.74,2.06-4.52,4.87-4.89,7.47-.19,1.39.9,2.7,2,2.56,3.32-.42,3.67-6.31,4-9.22a8.4,8.4,0,0,1,.29-1.55,12.94,12.94,0,0,1,2.39-2.47l.41,4.51,1.87-.62c-5.27,7.17-3.76,7.62-6.54,10.55-2.58,2.73-7.59-.38-6.31-4.53,1.11-2.79,2.84-5.59,3.3-8.58.13-.89.2-1.5.2-1.5l1.2,2.5a33.94,33.94,0,0,1,2.9-2.86Zm48.19,1.71V162a67.14,67.14,0,0,0-7.09,8.72l-4,1.82c2.6-5,6.87-9.6,11.09-13.76Zm-48.72,2.84a12.25,12.25,0,0,1-.32,4.23c-.28,1.29-1.52,5.07-3.49,4.18-1.67-1.48.37-4.21,1.39-5.51.79-.93,1.65-1.93,2.42-2.9Zm-5.25.39-1.09,2.33c-9.77,0-19.26,3.53-27.7,10.67l-2.14-.7A43.33,43.33,0,0,1,89.91,162Zm10.27,1.79c11,3.69,16.09,9.07,20.26,14.72l-1.74.89c-4.36-5.65-9.75-10.82-19.78-13.81Zm-12.61,3.48-.47,2c-6.17.19-12.67,2.37-19,6.77l-2.28-.36A38.78,38.78,0,0,1,87.57,167.24Zm28.18,13.47-2,.92C108,174.06,102.68,171.9,96.68,170l.65-1.68a31.6,31.6,0,0,1,18.41,12.42Zm-81.36-8.93V192l-1.44-.28V172.16Zm-3.26,1.1c-2.68,10.06-.6,12.66.37,18.53L29.27,191a26.8,26.8,0,0,1-.56-17.66Zm67.48,1.54c.17.16-.14.65-.55.9s-.31.2-1,0-1.42-.81-1.42-1a15.94,15.94,0,0,1,2.92.17Zm1.89.14c.37,0,1.43,0,1.5.36s-.39.52-1.24,1.1c-1.3.89-1.74,1.06-2.12.64s-.25-.81.35-1.37a2,2,0,0,1,1.51-.73Zm-44.22.22a4.89,4.89,0,0,1,2.87,2c.81,1.27,1.75,2.58,2.5,3.86a54.11,54.11,0,0,1,4.14,8.93,119.26,119.26,0,0,1,6,21.18c0,.59-.53.58-1,.44a.85.85,0,0,1-.48-.33c-.6-1.7-.81-3.45-1.27-5.16a111.82,111.82,0,0,0-3.76-12.76,87.81,87.81,0,0,0-4.61-10.84,25.17,25.17,0,0,0-4.24-5.89,13.09,13.09,0,0,1-1-1c0-.3.29-.46.81-.46Zm47,.23c.69.17,2.35.36,1.72.91a13.07,13.07,0,0,0-4.33,2.86,2.56,2.56,0,0,1-.92-1.14A14.69,14.69,0,0,1,103.32,175ZM62,177c3,4.42,5.57,10.72,7.68,16.89a99.15,99.15,0,0,1,4.35,17.57c-.05.14-.34.19-.66.19-.61,0-.7-.15-.86-.64a143.69,143.69,0,0,0-6.21-21.81,63.64,63.64,0,0,0-5.09-10.55c-1.49-2.18-2.33-3.32-2.26-3.49,1-.63,2.53,1,3.05,1.84Zm-9.09-1.89c1.32,0,3.49,1.56,5,3.57C61,183,62.84,188,64.7,192.92a101.14,101.14,0,0,1,4.6,16.68c.16.7.41,1-.25,1.23-.49-.14-.73-.2-.89-.37-2.47-9.7-5.25-20.26-9.67-28-4.72-7.57-6.1-5.46-6.86-6.8.06-.3.58-.51,1.29-.51ZM64.31,177c4.06,7.07,5.85,11.41,7.08,15.67,1.87,6.47,4.09,11.63,5.06,19.19a5.54,5.54,0,0,1-1.49-.15,4.43,4.43,0,0,1-.48-1.55,125.78,125.78,0,0,0-4.25-16.61,70.48,70.48,0,0,0-7.18-15.88c-.84-1.37-1-1.91-.48-1.93.92.06,1.32.77,1.74,1.27Zm42.28-.76a1.46,1.46,0,0,1,1.35.61c.17.26-.29.41-1.33.65a15,15,0,0,0-4.6,2.85c-.25,0-.86-.67-.86-.95a8.69,8.69,0,0,1,5.44-3.16Zm-55.92.17c3.44.11,6.12,4.1,7.53,6.79.55,1.05,1.26,2.2,1.8,3.4a115.59,115.59,0,0,1,6.31,19.06c.56,2.4,1.2,4.17,1,4.64a1.2,1.2,0,0,1-1.16-.19,6.39,6.39,0,0,1-.58-1.7c-.8-2.58-2.13-9.94-5.59-17.68A54.94,54.94,0,0,0,55.31,181a7.86,7.86,0,0,0-4.82-3.47c-.87-.14-1.13,0-1.08-.51,0-.3.13-.38.6-.53a2.37,2.37,0,0,1,.66-.11Zm21.48,16c-.24,0-.44-.45-.6-1.18-.08-.36-.18-.62.5-1,4.26-4.54.6-11.2-4.76-11.77-.5-.08-1.14-.08-1.32-.15a6.22,6.22,0,0,1-1-1.51c7.4-1.8,15.26,8.81,7.17,15.66ZM109,177.56c.44.11,1.4,1,1.28,1.2s-1,.24-2.17.45c-2.55.45-3.64,2.11-4.82,3.35-.26.08-.5-.1-.73-.5a2.27,2.27,0,0,1-.31-.79c1.32-1.93,4.87-3.88,6.76-3.7Zm-60.1.57a6.91,6.91,0,0,1,5.54,2.76c4.44,6.65,9.43,21.45,10.63,28.74-.12.23-1.32-.12-1.32-.12.18-.09-5.24-20.09-10.48-27.37a4,4,0,0,0-5-2.13,2.24,2.24,0,0,0-.56,3.71,2.15,2.15,0,0,0,3.07-.48,1,1,0,0,0,0-1,.25.25,0,0,0-.38,0c.08,1.29-1.57,1.38-2.29.87-1.15-.86-.38-3.58,2.75-2.49a2.26,2.26,0,0,1,1,3.12,2.87,2.87,0,0,1-2.9,1.89,3.55,3.55,0,0,1-3.65-3.38,4.42,4.42,0,0,1,2.14-3.83,2,2,0,0,1,1.41-.38Zm18.33,1c5.25.24,7.67,6.43,4.9,10.16-.7.89-1.15.73-1.45-.42-.15-.47-.31-.54.11-.91,2.46-2.36.44-6.94-3.61-7.13a5.9,5.9,0,0,1-.83-1.69,2.66,2.66,0,0,1,.88,0Zm43.8.43c.4.1,1.24.91,1.24,1.19s-.17.27-1.1.11c-2.21-.4-4.42.88-6.27,3.67-.9,1.68-1,1.52-1.48.07-.24-.74-.25-.72.69-2.09a7.53,7.53,0,0,1,6.91-3Zm2.05,2.84c1.85,1.68,1,5.38-1.51,5.76-2.2.25-4.16-2.13-2.77-3.75,2.45-2.49,4.25,1.58,2.12,1.94-.12,0-.22.13-.22.21,1.62.54,2-1.65,1.34-2.57a2.11,2.11,0,0,0-2.43-.85c-1.48.53-3,2.54-3.85,5.07-.24.71-.38,1.38-.49,1.54-.21.32-.2.31-.39.19a6.48,6.48,0,0,1-.49-2.25,8.39,8.39,0,0,1,.9-2.65c1.6-3,5.21-5,7.79-2.64Zm-45-.75c2.15.13,3.85,3.18,2.92,5.3-.29.39-.71.66-.9.41-.61-1.57-1.16-2.86-1.87-4.49-.34-.73-.59-1.23-.15-1.22Zm-14.61,1.77a89.34,89.34,0,0,1,6.2,14.18,77.78,77.78,0,0,1,3,10.79c.06.33.14.51,0,.65s-1.41-.36-1.41-.36c-2.48-9.55-4.67-16.59-8.85-23.73a2.37,2.37,0,0,1,.44-1.68c.14-.15.32-.16.59.15ZM26,191.61c11.59.78,20.54,5.66,25.33,18.57A50,50,0,0,0,26,201.72v-1.79c10.66-.09,21.16,5.47,20.95,5.39C43,197.13,33,193.81,26,193.6Zm79.33,4.7c.15,1.93.2,4.13.37,5.77a.53.53,0,0,0,.78.06c.7-2,.91-4.36,2.06-6.13.25-.33.62-.23,1.67-.11,2.36.21,2.87-3,1.15-3.83C108.6,190.72,106,194.34,105.3,196.31Zm3.54-1.32c-1.69,1.39-1.74,3.39-2.25,5.23-.27,1.24-.66,1.89-.82,0-.25-2.82.23-7.38,4-8.07a1.75,1.75,0,0,1,2,2.52,2.07,2.07,0,0,1-2.87.29ZM29,195.82a1.51,1.51,0,1,1-1.51,1.51A1.51,1.51,0,0,1,29,195.82Zm4.81,1a1.35,1.35,0,1,1-1.35,1.35A1.35,1.35,0,0,1,33.84,196.86Zm4.38,1.48a1.1,1.1,0,1,1-1.1,1.1A1.1,1.1,0,0,1,38.22,198.34Zm3.11,2a.85.85,0,1,1-.85.85A.85.85,0,0,1,41.33,200.31ZM30.43,203a9.31,9.31,0,0,0,.31,4.48c.86,2.5.47,6.92.47,6.92L28.69,217A52.84,52.84,0,0,0,29,210.2c-.09-1.31-.68-2.53-.83-3.85a25,25,0,0,1,.07-3.65Zm3.95.75v10.67L26,222.79v-2.2l7.18-7.28v-9.89Zm21.36,24.34-.57.92h9.71l.21-.92Zm12.57,0-.23.92h4.5l.15-.92Zm7.37,0-.14.92H92.23l-.25-.92Zm19.51,0,.27.92H99.9l-.37-.92Zm7.43,0,.33.92h7.64l-.63-.92Z"/>
</svg>
