<svg xmlns="http://www.w3.org/2000/svg" viewBox="0 0 178.58 249.45">
  <title>D12</title>
  <path d="M66.22,228.41S45.94,199,39.06,193.81c-.51-.24-9,1.39-9,1.39,4.35,10.43,7.14,21.22,4.32,33.33ZM55,181.93c14-4,27.94-7.68,43.1-1.23l16.55-16c.14-.41-20-9.13-20.34-8.11,9.87-26.63-5.52-31.47-15.32-2.17-12.83,1.68-28.22,3.43-40.93,12.28A60.45,60.45,0,0,1,55,181.93Zm84.1-4.74c5.3,3.26,9.44-3.45,5.56-6.8.46-2,.61-4.87-1.28-6.15-1.74-1.1-5,0-5.44,0,0,0-.08-3.52.19-3.51.5,0,2.4,1.64,3.57,2,4,1.19,9.55,2,9.45,1.76s.94-1.34-3.47-4.12c-1.64-1-6.81.13-10.93-1.17-2.51-.79-4.76-2.06-6.13-1.4-3.59,1-5,5.69-4.75,5.66.12.14,10.87-2.77,9.86-3.28l0,4.09c-4.24-.47-8.06,2.61-3.9,7.89-3.1,3.09,1.24,10.46,7.24,5ZM121.4,158.5c10.43-10.53,31.73-30.31,31.73-30.31l-.23-14.76L132.09,94.77c-1.65,19.82-12.89,38.33-23.59,47.58C107.52,145.16,119.13,157.51,121.4,158.5Zm-74.28-3.64c1.57-12.19,3-28.81,23.63-47.29-3.57-6.1-8.12-12.31-14.67-15.28-.46-1-18.93,19.15-30.28,28.7l.06,12.94Zm93-2.62c0-.27.8-3.47,1-3.38,0-.17-2.11.78-2.35,1.66s-.69,1.81-.72,2C138.5,155.77,139.39,153.43,140.09,152.24Zm7.72-8.52A17.6,17.6,0,0,0,149,136.4c-3.69-1.85-4.7,5.86-3.7,6.59A9.72,9.72,0,0,0,147.82,143.72ZM33.76,108.37c.34-1.54.27-2-.41-2.29-1.2-.53-1.73.11-2.69,2.61-.57,1.49-1.08,3.73-.62,4.62,2.27,1.58,3.46-3.78,3.72-4.94ZM98.35,95.44c15.16-2.41,30.33-3.89,42.36-13.31-1.36.16-15.95-13.58-16.7-15.51-22.3,10.92-44,2.67-44,2.67L63.74,85.06c-.63.3,17.75,7.89,21.21,9.17-12.51,33.77,7.3,28.69,13.4,1.21ZM38.68,99.29a12.19,12.19,0,0,0,2.26-2.57l-.78-1.26-2,2.21ZM53,85.08c-2.1,1-9.56,4.57-9.88,3.74l.16-3.63c1.14.37,8.5-.85,4.25-8.47,2.68-6.05-3.29-9.18-7.48-5.17-8.77-3-7.6,5.78-5.79,7.21-1.43,2.22.37,7,1.26,7,0,0-7.66-1.73-6.91-.36A6.57,6.57,0,0,0,31,88.2c2,1.31,5.41.84,8.2,1.42,3,.63,4.9,1.69,7.41,1.84,3.78-.35,7.31-3.67,6.32-6.39Zm85.33-28.57,10.55-2.83C144.44,42.8,142.7,32.8,144,20.6l-30.62-.16Z" style="fill: #e2cf00"/>
  <path d="M110.8,20.55c13.44,19.22,25.88,37.51,42.41,57.66,0,0,0,7.79-.07,15.52l-50.78-73Zm-27.2,31a79.68,79.68,0,0,0,2.24,11.78l-9.27,8.76c1-7.83,2.54-13.84,7-20.54ZM39.29,79.21c-2.07-2.76,1.43-4.3,2.75-3.07C44.72,78.63,40.79,81.21,39.29,79.21Zm91.93,17.4c1.54-1-2.76,24.09-14.58,37.05C109.46,113,122.13,101.46,131.22,96.61Zm-58.27.09,7.84,2.12-3.69,11s-7.58-1.73-6.95-4a83.52,83.52,0,0,1,2.8-9.11Zm36.31,4.23A67.45,67.45,0,0,0,104,112.24l-7.86.16,3.95-10.9ZM62,116.36c6.07,12.12-1.08,31.3-14.29,36.58A58.35,58.35,0,0,1,62,116.36Zm40.81,3.44a62.66,62.66,0,0,0,.82,12.81A153.1,153.1,0,0,0,76,128.93l-1-11.6A126.8,126.8,0,0,0,102.79,119.8ZM82.73,137.48A59.25,59.25,0,0,1,79.13,148l-9.57.45c0,.19,4.08-6.38,5-11.12,1.52.16,8.12.16,8.12.16Zm18.14,2.87c2.79,1,6.61,1.26,8.1,3.43l-2.9,9.23-8.6-2.65Zm-24.14,88-6.74.06s-32.4-41.55-44.54-57.72c.4-1.65-.14-15.59-.14-15.59C42.51,179.4,76.73,228.39,76.73,228.39Zm61.78-58.9c3.7,2,.16,5.59-2,3.61C134.67,171.46,136.93,168.63,138.51,169.49Zm-36,7.73c-.1,9.63-6.92,21.06-6.85,20.77.08,0-1-9.41-2.28-12.38C93.73,185.09,102.18,176.62,102.5,177.23Z" style="fill: #d40000"/>
  <path d="M154.6,230V19.46H24V230Zm-1.63-1.6H95.5s-.06-.83.08-4.41c.25-7.27.55-14.89.08-22.3a67.52,67.52,0,0,0-.4-7.64c-.36-2.47-.52-5.14-1.67-7.44-.46-1.25-.48-1.15,1.29-2.79A6.81,6.81,0,0,0,96.45,182c0-.05,0-.24-.09-.13s-.73.71-.8.79c-.48.57-1.28-.16-4-.93a7.35,7.35,0,0,1-1.87-1.08c-4.08-3.45-9.82-2.37-14.11-.49a9.09,9.09,0,0,1-3.47.82,67.59,67.59,0,0,0-15,4l-.95-1.55a.63.63,0,0,1-.61-.32c-4.17-7.89-17.78-16.91-17.54-16.5l8.9-4.94c-.68-.85-1.47-1.76-2.32-2.71l-.14,0-.05-.19c-7.17-8-18.86-18.71-18.86-18.71V120.5a131.47,131.47,0,0,0,11.4-10.41c1-1,1.71-1.57,1.33-1.59-.91.14-1.69-.76-2.43-1.38-.47-.52-.36-.47.18-1.19.38-.5.52-.65.52-1a1.77,1.77,0,0,1,.61-1.7,2.48,2.48,0,0,0,.68-1.38,2.41,2.41,0,0,1,.46-1.46c.67-.14.73-1.12.62-1.56a1.45,1.45,0,0,1-.45-1.29c1.34-1.46,2.75-2.72,1.85-.68a6.13,6.13,0,0,0-.55,1.39s.65-.67,1-1c.52-.48.71-.2.72,1.29a9.84,9.84,0,0,0,.73,3c.11.17.12-.12.07-1.21a6.45,6.45,0,0,1,.27-3.27c.68-1.92,1.16-2.2.06-2.13s-1.92.08-2.38-.55a2.14,2.14,0,0,0-.77-.78,7.88,7.88,0,0,1-2-1.51c-1.54-1.68-1.1-3.18,1.88-2.16,1.57.54.54,1.21-1.14,1.06-1-.1-1.21.29-.31.56,1.67.31,1.94.5,3-.81a10.71,10.71,0,0,1,8.45,5.15c.52.88.67,1.11.31,1.61,1.9-.64,4.23-3.87,5.85-5.38,4.78,2.72,10.67,7.62,14,13.18a80.24,80.24,0,0,0,3.65-8.89l7.5,2.1.09-.16-7.41-2.14.72-2.48c.08-.27,1.22-3.09,1.22-3.09L63.76,85.25c1-1.76,2.78-2.35,3.07-4.26l-16,15.34a37,37,0,0,0-2.84-3.78c-.72-.65-.95-.81-.1-1,3.77-.55,6.7-3.42,5.68-7.26-.16-.43-.5-.27-1.21.18-2.5,2.27-8.62,4.38-8.83,3.84l0-2.44c6.59-.1,5.91-4.95,5.43-7.55,0-.06,1.91-1.73,1.91-1.73a17.79,17.79,0,0,1-2-1.16c.58-3.24-2.17-7.93-7.58-5.53-.47-.48-.91-1-1.42-1.57a10.92,10.92,0,0,0-1.19,2.16c-2.69-1.22-8.26,1.51-5.41,7.75l-1.57,1.5,1.51,1a7.64,7.64,0,0,0,1.23,4.39A28.77,28.77,0,0,0,30,84.34c-1.16-.1-2.14-.13-2,.57a14.29,14.29,0,0,0,.31,1.55c.56,1.64,3.46,2.84,6.28,3,.46,0,1,0,1.05.13s-.15.54-.45.49a2.93,2.93,0,0,0-3.3,2.33A3.53,3.53,0,0,1,31,93.62c-.8.88-.87.86-.85,2.13a2.21,2.21,0,0,1-.55,1.67,4.1,4.1,0,0,0-.5,3.09,2.51,2.51,0,0,1,.13,1.77c-.47,1.47.57,2.81,1.93,3.57.8-.57,2-.12,2.91.32.31.15-1.05,8.1-3.88,7.39-.47-.29-.67-1.67-.63-1.69-.13,0-.2.81,0,1.35a1.24,1.24,0,0,0,1.47.95,4,4,0,0,0,1.75-1.43c1.32-1.69,1.33-2.77,1.78-4.56.21-.85.24-.8,1.41.12.84.66,1.25.87,1,1.26-.13.17-.68.72-.68.72l-10.71,9.87V21H83.89l-.4,13c-1.09,8.93.82,27.69,2.27,29.46-1.11,1.26-4.57,4.28-4.38,4.42l.46.27,1.83-1.69,4.52,1.37a19.52,19.52,0,0,0,5.93,3.09c3.33.86,9.75-1.87,9.75-1.9a53.18,53.18,0,0,0,18.34-4.9,8.71,8.71,0,0,1,1.05,1.71c5.28,7.37,10.48,11.5,17.57,16.54l-9,5,21.3,22.31.19,18.11-30.85,29.57c-.18.51-9.84-6.84-13.44-12.82a71.55,71.55,0,0,1-3,8.45c-.11.26-6.14-2.23-7.93-2.34a.67.67,0,0,0-.48.27l8,2.59-1.63,4.67s-.57,1.27.07,1.48c3.63,1.18,7,3.25,10.49,5,0,0-1.62,1.8-1.64,1.88s-.68,1-.52,1.38c1.76-1.72,16.16-15.1,16.16-15.1a7.06,7.06,0,0,0,2.45,4.52,6.49,6.49,0,0,0-2.65,1.3c-2.11,1.54-3.26,4.29-3,5.89a46.11,46.11,0,0,1,6.39-1.86,8.13,8.13,0,0,0,3.6-1.6l.13,2.56s-3.41-.6-5,1.69c-1.36,2-.8,4.24-.49,5.39,0,.26,0,.23-.55.77-.43.4-1.11.92-1.11.92s1.76.81,2.06,1.42c-.48,4.75,3.31,6.58,6.51,5.74.6-.18.88-.29,1.6.5l1,1s.38-.87.57-1.25c.63-1.24.8-.87,2.16-.93,3.43-.17,5-2.95,4.18-6.36-.18-.8-.1-.68.42-1.69.27-.52.7-1.18.7-1.18s-.63-.35-1.05-.54c-.63-.28-.66-.61-.66-1.24a6.36,6.36,0,0,0-1.18-3.5,19.67,19.67,0,0,1,7.18,1c-.37-3.75-3.13-5.15-6.51-5.7a2.76,2.76,0,0,1,.73-.48,1.71,1.71,0,0,0,1.28-1.55,3,3,0,0,1,.85-1.51,2.28,2.28,0,0,0,.75-2.34,2.19,2.19,0,0,1,.53-1.51,2.8,2.8,0,0,0,.58-2.29,9.67,9.67,0,0,1-.11-2.26c.15-1.56-.41-2.14-1.12-3.24-.46-.71-.36-.73-.26-1.25a28.45,28.45,0,0,1,.79-2.82c.61-2.11.64-3.71.14-4.12a2.11,2.11,0,0,0-2-.31c-3,.93-2.47,3.87-2.63,5.84-.09.51-.26.75-.43.73a9.28,9.28,0,0,0-2.89-2.19c4-4.06,6.53-6.54,11.56-11Zm-58.35,0h-2.4c.51-.95,2.4-3.9,2.57-3.11Zm-3.33,0h-1.4A23.47,23.47,0,0,1,95,221.21l-.06,2.09a19,19,0,0,0-3.63,5.09Zm-2.41,0H87.5a3.33,3.33,0,0,1,.13-1.11c1-3.39,7.54-9.82,7.36-8.85l.07,1.66c0-.07-4.88,4.78-6.17,8.3Zm-2.37,0H85c-4.94-8.6-13.78-11.61-16-12.19l-1.29-1.89a28.13,28.13,0,0,1,18.62,12.9A3,3,0,0,1,86.51,228.39Zm-2.56,0h-1.6a23.21,23.21,0,0,0-11.29-9.17c-.55-.6-1.14-1.71-1.37-2C75.24,218.76,81.44,223.55,84,228.39Zm-2.42,0H80.07c-1.76-2.55-4.52-4.41-6.07-5.62-.84-.66-1.94-2-1.83-2.26C75.62,221.6,79.67,225.54,81.53,228.39Zm-2.23,0H77.38c-.82-1.19-1.56-2.15-2.42-3.37a.94.94,0,0,1-.22-.61c.13-.34.52-.09,1.6.87a26.29,26.29,0,0,1,3,3.11Zm-2.53,0H35c1.06-11.66,1.25-20.67-4.78-32.76,1.09-1.15,9.3-1.47,11.89-2.83,0-.33-.67-.89-.67-.89-2.71,1.26-13.26,2.41-13.26,2.41C32.57,202,36.2,217,33.47,228.39H25.55V172.13s-.09-10.69-.32-16.8c4.06,5.25,9.28,12.45,12.79,17.9,4.26,6,9,13.06,13.88,19.67,1.44,2.08,3.48,4.79,5.15,7.22,2.62,3.76,4.79,6.68,7.51,10.72,2.91,4.19,5.69,8,9.14,12.86C76.64,227.85,76.77,228.39,76.77,228.39Zm10.08-1.65-1-1.54A32.6,32.6,0,0,1,95,215.15l0,2c-4.42,3.19-6.33,6.4-8.21,9.58Zm-1.56-2.22h0a29.52,29.52,0,0,0-18.37-11.29,11.42,11.42,0,0,1-1.34-1.58c-1-1.38-1-1.43-1.16-3.69a46,46,0,0,0-2.76-13.26c.16-.88.32-1.32,2-3.56C70.52,181.83,85.16,173,92.37,185c2.41,3.85,2.64,11.23,2.79,15.83,0,0,0,.32-.06.41-.17.84-.41.7-1.71.35-1.32-.57-2.69-.11-4.09.27-1.59.64-1.72.15-.19-1.29a9.44,9.44,0,0,0,1.11-1.22,8.83,8.83,0,0,0-1.36.7c-1.23.94-1.52.58-1.06-.45,1.93-4.37,2.27-4.54-.44-5.75a4.87,4.87,0,0,1-1.27-.81c-1.85-1.75-1.19-.81-.67,0,.8,1.26.08,1.92-1.27,1.14a4.3,4.3,0,0,0-2.72-.74c-1.25.41-1.63,1.78-1.26,3.28.3.83,2,2.31,1.61.77a1.45,1.45,0,0,1-1-2.4c.67-.91,1.87-.42,3.71.8,1,.76,2.25.37,2.2-.57,0-.63.86-.49,1.44.32.32.45.1,1.73-.5,3-3.81,7.68-.6,15.12,6,13,.73-.23,1.38-.42,1.38-.42l0,2.94a35,35,0,0,0-9.72,10.35Zm-9-11.92a6.51,6.51,0,0,0,5.16-1.86c1-1.2.64-2.27-1.54-1.2a7,7,0,0,1-4,1.05c-2.75.1-5.22-.78-8.27-2.66-2-1.25-2.32-1.34-1.77-.56C67,209.53,71.94,212.46,76.29,212.6Zm16.06-2.09a6.9,6.9,0,0,1-1.56-.14c-1.91-.48-3.74-1.75-3.42-2.27.11-.19.23-.22.47-.1a7.36,7.36,0,0,0,6.84.44c.35-.15.55.08.55.51C95.22,209.8,93.82,210.46,92.34,210.51ZM75,209.41a9,9,0,0,0,4.65-1.47c1.14-.59,1.53-.91,2-.64,1.15.63.91.14.19-1.14-.51-.9-.5-1.08-.43-1.63s.07-.62-.51-1.26a15.81,15.81,0,0,0-3.79-3.9,10.41,10.41,0,0,0-1.24-.72c-.16,0-.1.13.19.41,2.08,2,3.72,3.81,1.6,3-2.47-.81-4.82.2-6.74.86a11.27,11.27,0,0,1-1.81.45c-1.78,0-2.2.74-1.06,1.87C70.52,208,72.67,209.38,75,209.41Zm0-.51a6.92,6.92,0,0,1-4.46-1.76c-.8-.74-1.21-1.14-1.13-1.33s.7.14,1.72.69a9.3,9.3,0,0,0,7.33.52c2.27-.66,1.6.39-.93,1.37a5.84,5.84,0,0,1-2.53.52Zm16.74-.28A7.27,7.27,0,0,1,87,207c-.84-.73-.23-.9,1.14-.33a6.48,6.48,0,0,0,5.52.2,5.78,5.78,0,0,1,1.32-.53.91.91,0,0,1,.16,1.15,5.25,5.25,0,0,1-3.39,1.1ZM63.19,208c-.13,0-.32-.21-.6-.61-.52-.73-.54-1.09-.11-2.37.52-1.56.73-1.31.87.87C63.43,207.33,63.43,208,63.19,208Zm-1.72-2.35c-.2,0-.43-.32-.8-1-.26-.5-.2-.66.61-3,.34-1,.65-1.78.66-1.78.25-.2.22-.18.32,0,.57.74.53,2.17,0,3.89-.37,1.3-.58,2-.83,2Zm15.62-.18a4.23,4.23,0,0,1-.45-.08c0-3.5-2.66-2.79-3-.31,0,0-.66.07-.77-.1-.32-.52.42-2,1.53-2.51a2.47,2.47,0,0,1,2.57.33A5.24,5.24,0,0,1,77.6,205C77.47,205.33,77.28,205.48,77.09,205.49Zm12.32-.4c-.21,0-.3-.11-.34-.4a2.51,2.51,0,0,1,2.51-2.48,1.91,1.91,0,0,1,2.18,2.06c0,.83-.72.94-.8.28-.23-1.9-1.85-2-2.59-1-.28.41-.22,1.43-.7,1.49Zm-10.71,0h-.08a.53.53,0,0,1-.56-.41l-.58-1.78c.43-.51,2,.52,2,1.3A.86.86,0,0,1,78.7,205.08Zm-6.78-.38a1.54,1.54,0,0,1-.5-.12c-1.49-.48-1.53-.71-.26-1.17,1.52-.55,1.62-.62,1.26.44C72.23,204.45,72.17,204.69,71.92,204.7Zm15.81-.17c-1.11-.07-1.2-1-.23-1.32,1.45-.64,1.94-.6,1.38.35C88.57,204.23,88.3,204.52,87.72,204.53Zm6.92-.34a.75.75,0,0,1-.44-.17c-.17-.5-.45-.89-.67-1.41a.93.93,0,0,1,1.11.05c.69.55.57,1.52,0,1.53Zm-34.76-1.08c-.43,0-.87-.68-1-1.19,1.5-1.93,1.26-5.54,1.61-6.63.3-.89.4-.12,1.23,2.17.34.93-1.36,5.53-1.75,5.63Zm-1.53-2a1.78,1.78,0,0,1-.87-1.32,5,5,0,0,1,.28-1.46,39,39,0,0,0,.86-5.8c.06-.93.06-1.77.1-1.85.45-.89,1.4,1.5,1.32,3.4C59.75,195.61,59.58,200.92,58.35,201.13ZM57,199c-.17,0-.4-.11-.74-.58a2.33,2.33,0,0,1-.41-.78,4.81,4.81,0,0,1,.24-2.1A26.61,26.61,0,0,0,56.2,186c-.09-.7.39-.35,1.12.85a6.63,6.63,0,0,1,.79,2.65,33.27,33.27,0,0,1-.65,8C57.33,198.26,57.24,198.9,57,199Zm-1.88-2.4-1.21-1.45A45.93,45.93,0,0,0,54.4,190a78.34,78.34,0,0,0-.82-8.53c.74.83,1.09,1.32,1.9,2.36.09,0,.79,7.17.31,9.91a21.41,21.41,0,0,1-.69,2.84ZM53.2,193.7c-.2,0-.46-.22-.78-.68a2.08,2.08,0,0,1-.45-1.26c0-.37.17-.66.18-1.32A58.22,58.22,0,0,0,51,179.15c-.24-1.29.22-.76,1,.05A4.34,4.34,0,0,1,53,181.29c.07.21.82,7.51.81,8.06a13.27,13.27,0,0,1-.35,4.07c-.09.18-.18.27-.31.27Zm8-.31c-1.18-2.57-2.24-5.19-3.66-7.64,0,0,1.4-.72,1.77-.47.59,1.62,2.73,6,2.77,6.72a8.72,8.72,0,0,1-.88,1.39Zm22.41-4c.42-.5.93-.29,1.95.16.52.16.44-.05,1.31-.5.67-.35,1.23,1.16,1.67,1.16s.8.21.8-.2a9.86,9.86,0,0,1,.17-1.79c.19-.73.35-1,.25-1.17-.3-.27-.55-.11-1.18.5-1,1-1.56-.74-2.79-1.14a5.07,5.07,0,0,0-3.67,0c-1.46.51-2,1.94-2.66,1.5-1.17-.75-1.53-.7-1,1.34.16.66.17,1.68.26,1.86s.41-.37.72-.58c.6-.4.58-1.91,1.93-1.47.6.2,1.25.73,1.61.68a.88.88,0,0,0,.68-.33Zm-21,1.47c-.13,0-.25,0-.36-.22-.52-1.23-2.59-5.34-2.53-5.8.4-.36.94-.63,1.26-.3a37.31,37.31,0,0,1,2.19,5A1.13,1.13,0,0,1,62.69,190.91Zm-11.48-.07c-.15,0-.45-.28-.68-.59a2.59,2.59,0,0,1-.77-2.09,44.56,44.56,0,0,0-1.58-11.4c-.2-.66-.59-1.46-.55-1.57.35-.51,2,.85,2.45,2.93a57.88,57.88,0,0,1,1.28,7.17C51.62,188.42,51.62,190.67,51.21,190.83ZM64,189.17c-.12,0-.24-.09-.33-.37-.6-1.15-1.35-3.15-1.85-4.34-.23-.52.95-.93,1.22-.75.47.35.7,1.35,1,1.94,1,2.16,1.16,2.2.62,2.88-.21.29-.45.63-.65.65Zm-15.1-1.7c-.09,0-.2-.09-.34-.27a5.73,5.73,0,0,1-1.21-1.85,7.15,7.15,0,0,1-.07-1.41c-.11-1.88-.6-4.45-2-9.71a7.23,7.23,0,0,1-.3-1.29c.14-1,1.55.6,2,2.22a48.41,48.41,0,0,1,1.6,6.35c.53,3.44.82,6,.35,6Zm16.78-.17c-.34-.06-.52-.67-.76-1.22-1.18-2.75-1.27-2.74-.53-3s.83-.16,1.75,1.72c.67,1.37.8,1.54.24,2a1.2,1.2,0,0,1-.54.42.36.36,0,0,1-.16,0Zm15.46-1.6c.13,0,.54-.27.95-.4a6.78,6.78,0,0,1,3.75.13c1.81.86,1.35-.14-.26-.83-1.25-.51-3.8-.32-4.24.45C81,185.28,80.93,185.69,81.1,185.69Zm-13.72-.31a.3.3,0,0,1-.3-.09c-1-1.63-1.36-2.27-1.19-2.4a1.79,1.79,0,0,1,1.34-.31c.43.21.8,1.21,1,2a1.45,1.45,0,0,1-.85.81Zm26-.78c-.47,0-1.69-1.64-1.44-1.94.07-.15.53,0,1.59.29.36.13,1.16.24.91.76A3,3,0,0,1,93.37,184.61Zm-24.28-.54a.19.19,0,0,1-.11,0,8.63,8.63,0,0,1-.76-1.7c.1-.28.9-.35,1.23-.32a4.66,4.66,0,0,1,.44,1.29C69.8,183.53,69.37,184,69.08,184.07Zm-22.69-.13h0c-.17,0-.46-.3-.89-.92-.81-1.17-.7-1.08-1.29-3.86-.66-3.16-1.45-5.4-2.25-8.63,0-.53.21-.39.8,0,1,.59,1.29,1.25,1.59,3,.52,2.83,1.62,5.44,2,8.78.22,1.1.24,1.7,0,1.7Zm24.4-1.13c-.57,0-.49-.86-.33-1,.42-.36,1.57-.26,1.77-.28C72.67,182.22,71.16,182.79,70.79,182.81Zm-27.3-3c-.17,0-.62-.66-1.46-1.85s-.63-1-1.12-2.84c-.69-2.6-1.82-4.48-2.49-6.87,0-.27.33-.24.65-.11a7.11,7.11,0,0,1,1.68,1.12c.36.39.35.88,1.41,4.5.38,1.31.48,1.65,1,3.64.4,1.66.57,2.43.38,2.4Zm88-7.77c-2.76-5.09-1.74-7.35,4.2-8.05.43.06,0-2.61,0-3.8-3,1.71-6.57,2.1-9.88,3.17.9-2.9,2.49-6.18,7.28-5.67,5.13,3.88,10.92,1.55,14.92,3.13a5.29,5.29,0,0,1,3,3.65c-2.61-.26-5.56-.82-8.09-.64,2.76,2.13,2,5.09,1.57,6.44,3.29,4,.54,8.68-4.17,7.62a9.61,9.61,0,0,1-1.44-.58c-5.37,4.68-9.78-.67-7.46-5.27Zm-91.7,2.48c-.19,0-.6-.47-1.43-1.64A74.33,74.33,0,0,1,33.76,166c.11-.6,2.67.45,3.32,1.3a29.08,29.08,0,0,1,2.81,6.77C39.9,174.36,39.86,174.51,39.76,174.52Zm100.38-14.8c-1.28-.19-1.64-.3-1.63-.8s3.11-.48,3.55-.17-.1.81-.44.94A3.91,3.91,0,0,1,140.14,159.71Zm-88.47-.62c17.76-8.64,25-31.13,16-48.39l1.25-.91c8.91,18.36,2.28,38-12.19,48-.59.42-1.88.74-2.48,1.14,0,0,5.9-1.35,7.9-2.13A4.87,4.87,0,0,0,65,155a39.87,39.87,0,0,0,4.5-6l9.29-.37v-.34l-9.12.21c9.39-15.5,7.08-30.24,1.29-40.56l-.21-.2a30.45,30.45,0,0,0-8.52,7.83C67.47,132.57,61.81,146,47,153.63a7.5,7.5,0,0,0,.08,1.07l1,1c16.41-7.29,23-25.31,16.29-41.7l1.1-1.2c8.36,16.9-.52,38-16.1,44.15l.64.62A33.63,33.63,0,0,0,66,112.32l1-.93c9.44,18.8-.45,39.85-16,47.12Zm91.27,0s.12-1-.24-1.35c-.16-.72.1-.64.7-.49,1.5.36.33-.5-.89-1.18s-1-.66,0-1.32c.71-.45.63-.62.54-1-.14-.51-.24-.17-.53.1a2.24,2.24,0,0,1-1.65.71c-.82,0-.9-.66-.76-1.18.33-1.08,1.44-1,2.34-.75,1.49.44,3.91,3,3.88,4.54.1,1.36-1.76,1.95-3.4,1.88Zm-5.79,0h0a2.82,2.82,0,0,1-.89-.29c-.58-.21-1.3-.5-2.1-.83a12.53,12.53,0,0,1-2.94-1.4,4.87,4.87,0,0,1-1.9-4.69l11.33-10.76,1.24.62c1.9,1,2.36,1.49,1.31,2a1.66,1.66,0,0,0-.75,1.37c-.1.74-.06.61-.5.95-.77.58-.8.83-.81,1.8a2.29,2.29,0,0,1-.3,1.34c-.57,1.11-.32,2-.78,3.06-.63.62-.92,2.3-1.47,1.83s-.34-1.35-.37-1.76a2.68,2.68,0,0,1-.65.34c-.24.05-.47,0-.54-.4a12.38,12.38,0,0,0-.17-3.17c-.84-2.91-.72-2.5-.39-.09a6.26,6.26,0,0,1-.33,3.6c-.5.87-.52,1,.55,1.47.4.16,1.08.44,1.22.72a2.16,2.16,0,0,0,1.36,1c1.63.38,2.57,2,2.34,2.19s-.81,0-1.22-.06c-1.49-.05-1.8,0-2.46.59-.35.3-.51.57-.79.59Zm-78-2C74.37,144.66,77,124.7,69.45,109.29l1.31-1c9.54,18.07,3.13,37.56-8.59,48.22ZM147,155.53c-.27,0-.56-.37-1.63-1.51a10.64,10.64,0,0,0-1.86-1.67c-.89-.43-.7-.25,0-1,.76-.88.34-1.6,1.25-1.16,2.37,1.11,4,4.4,2.49,5.19a.84.84,0,0,1-.29.11Zm1.18-3.45a.59.59,0,0,1-.18,0c-.29-.07-.65-.62-1-1a7.56,7.56,0,0,0-2.38-1.91c-.83-.37-.85-.46-.27-1.1a2,2,0,0,0,.39-.68c0-.16.06-.36.24-.39.92-.18,4,1.68,4.11,3C149,151.15,148.66,152,148.18,152.08Zm-6.49-.36c-.53,0-.84-.46-.84-1.23,0-.53.3-.75.91-1,1.3-.49,2.1.44,1.19,1.48a2,2,0,0,1-1.26.73Zm.79-3.13c-1,0-1.27-.83-.55-1.55s2-.68,2,.06a1.89,1.89,0,0,1-1.49,1.49Zm6.09-1c-.66-.2-2.28-1.36-3-1.5,0-.39.44-.5-.24-1.24-.3-.34-.33-.57-.07-.71.81-.43,3.62.94,3.81,2.35.09.69-.14,1.08-.51,1.11Zm-3.67-1.69c-1,0-2.06-.07-1.94-.53s.43-1.22.87-1.06a2,2,0,0,1,.57.44c.52.5.65,1.16.5,1.15Zm3-2.3a3.19,3.19,0,0,1-2.66-.76c-.77-1.94.24-6.14,2-6.56.67-.16,1.46-.41,2,.8A50.64,50.64,0,0,1,147.91,143.6Zm-40.17-1.12a1.85,1.85,0,0,0,.63-.59c-2.81-2.55-13-29.24,8.27-48.68l4.52-1.36c-20.46,16.1-17.06,39-11.54,48.83a1.44,1.44,0,0,0,.9-.77c-6.24-9.62-8.57-36.77,16-49.9l-.11-.11a1.72,1.72,0,0,0-.27-.27c0,.35-11.07,3-10.29,3.11-10.28,9.11-19.22,30.82-8.09,49.75Zm3.7-3.31c.51-.54.56-.46.73-.78-8.85-17.43-.63-38.85,15.71-47l-.6-.62a36.41,36.41,0,0,0-15.84,48.35Zm1.45-1.48c.39-.26.44-.26.65-.67-7.35-14.88-1.59-35.53,15.87-44l-.66-.68c-20.35,11-22.24,31.82-15.86,45.35Zm1.69-1.78a22.13,22.13,0,0,1,2.08-2.21c-2.2-1.67-7.42-26.28,14.69-37.17,0-.79.67-1.48-.8-2.43-16,7.27-23,26.6-16,41.81ZM34.24,105.5c-.59,0-1.12-.22-1.67-.29-2-.26-3.28-1.71-2.39-2.6.29-.29.7-.12,2,.51.59.29.69.56.81,1.22s.3.87.5.26.42-1,1.1-.84C36.5,104.19,35.78,105.51,34.24,105.5ZM35.58,103c-1-.05-.92-.74-.22-1.37s1.11-.6,1.48-.22C37.48,102,36.58,103,35.58,103Zm-2.44-.44a3.89,3.89,0,0,1-2.39-1.09c-1.14-1-1.4-3.26-.35-3.65.44-.17.51,0,1.44.89a8.16,8.16,0,0,0,2,1.47c1.38.66,1.55.91.62,1.35a1.71,1.71,0,0,0-.57.52c-.24.38-.31.51-.74.51Zm3.41-2.22a.84.84,0,0,1-.23-1.64c.25-.2,1.05.1,1.1-.13-.06-.39.33-.23.41-.09a1,1,0,0,1,.16.59,1.41,1.41,0,0,1-1.44,1.26Zm-1.78-.84h-.14a2.21,2.21,0,0,1-.81-.32c-2.32-1.27-3.46-3.26-2.67-4.39.52-.74,1.35-.46,2,.59a6.49,6.49,0,0,0,2.4,1.89c1.24.63,1.27.72.37,1.15a1.82,1.82,0,0,0-.82.75c-.16.28-.21.33-.32.33Zm2.36-2.58a1,1,0,0,1-1-.61c-.15-.57.93-.9,1.81-.92.45,0,1-.09,1.1.22s-.31.84-.49,1a2,2,0,0,1-1,.32,2.53,2.53,0,0,1-.43,0ZM35,95.83c-.44-.1-.91-.87-1.15-1.11-1.75-1.75-1.55-2.7-.41-3.42.78-.49,2-.61,2.43-.2.66.58.64,1.24-.09,1.45s-.43.42.21.58c2.27.65,3.67,1.86,1.2,1.59a2.27,2.27,0,0,0-1.77.92.41.41,0,0,1-.43.17ZM153.46,94,102.39,21h41.27c-1.45,11.62,1.46,24.53,5.32,32.94a123.22,123.22,0,0,0-12.2,2.93l.81,1.06a49.67,49.67,0,0,1,13.33-3.09c-5.51-9.4-7.47-22.35-5.82-33.84H153V77.7ZM46,91.57c-3.54-1.09-6.9-2.8-10.18-2.54a11.3,11.3,0,0,1-5.4-1.24c-1.18-.56-1.79-2.65-1.79-2.65,1.85-1,7.61.77,7.61.77-3.66-2.35-2.37-6.7-1.58-7.23-5-6.4,2.8-9.67,5.29-7.37,3.69-3.67,10-.6,7.58,5.46,0,0,4.63,8.87-4.5,8.27,0,0-.16,3.58.1,3.75,3.06.25,6.74-2.39,9.8-4,.92,4.77-3.63,6.07-6.92,6.8Zm98.31-8.4a4,4,0,0,1-2.74-2.2,23.28,23.28,0,0,0-1-2.47c0-.2-1.78-3.41-1-3.13,1.55,2.11,4.32,5.71,5,7.46,0,.23,0,.34-.23.35Zm-3.77-2A5.17,5.17,0,0,1,138.79,80a17.51,17.51,0,0,0-1.06-2.83c-1.1-2.38-2.81-6.12-2.47-7.18.11-.35.12-.52.16-.5.79.92,1.54,2.25,2.28,3.21,0,.08,0,.13.18.86.76,3.47,2,5.29,2.79,7.31C140.74,81.06,140.68,81.15,140.55,81.15Zm-2.74-1.71c-.15-.1-2.18-1.53-2.38-1.74-.72-2.56-3.59-10.77-2.85-12.24a6.66,6.66,0,0,1,1.51,2.21A27.46,27.46,0,0,0,137,77.34c.38.88.67,1.76.82,2.09ZM134,76.55a4.55,4.55,0,0,1-1.68-1.68,7.12,7.12,0,0,1-.62-2c-.74-3.35-2.14-6.75-1.51-10.32.39-.53,1.25.68,1.37,1.87a46.51,46.51,0,0,0,2.14,10.51c.27.9.47,1.61.29,1.64Zm-3.26-3.07c-.14,0-.42-.26-.89-.7a2.68,2.68,0,0,1-1-2.6c0-2.09-.73-4.48-.83-6.59a29.44,29.44,0,0,1-.1-4.56c.27-.37,1.44,1,1.35,3a24.94,24.94,0,0,0,1,8.57c.48,2,.73,2.81.52,2.86h0Zm-2.81-3c-.34,0-1.17-1.22-1.54-2.31s-.23-2.28-.48-3.36a38.82,38.82,0,0,1-.38-8.54c.07-.56.43-.33.93.2.72.77.62.79.61,2.94a66.4,66.4,0,0,0,.59,7.33,15.28,15.28,0,0,1,.41,3.63c0,.08-.07.11-.13.1Zm-32-.35a12.42,12.42,0,0,1-1.47-.09c-3.69-.59-6.63-3.11-8.32-7.26s-2-10-2.29-15.28c0-1.27.54-.95,1.9-.16s1.81.52,4,0c1.36-.31,1.24.61-1,2.15-.76.5-1.65,1.16-1.36,1.26a2.25,2.25,0,0,0,1.32-.53c2.19-1.78,2.79-2.21,2.16-.48-.16.44-.67,1.65-.88,2.23-.79,2.17.12,3.1,2.82,4.47.68.34,1.12.92.44-.28-.55-1,.59-1.78,2-.63a2.78,2.78,0,0,0,3.59-.73,2.51,2.51,0,0,0-.93-3.35c-1.07-.46-1.47-.13-.43.59,1.33.92,1.07,2.49-.42,2.48a10.41,10.41,0,0,1-2.67-1.31c-1.18-.64-2-.37-2,.59,0,.64-.37.59-1.14.2-1-.52-.93-1-.38-2.43.37-1,.56-2.16.9-3.22.88-3.55,1-7.58,0-8.83-2.59-3.34-5.34-3-7.69-.78l.1-3.65c2.4-1.93,5.2-3.25,9.53-10.4,1.51,1.9,8,9.67,18.37,11.42l2.34,3.2c0,.2,1.75,11.92,2.91,15.91,0,0-1.28,2-2.45,3.4-4.37,5.4-11.57,11.53-18.94,11.5Zm11.25-2.6c-.36,0-.35-.44.82-.81.4-.13.53.67.31.82a6.54,6.54,0,0,1-1.13,0Zm2.63-.2a.44.44,0,0,1-.44-.15c-.56-.72-.79-1.15-.28-1.55.68-.56,1.29-.42,1.66.65.24.76-.33,1-.94,1Zm15.72,0a10.9,10.9,0,0,1-1.77-2.27c-.35-2.08-.34-4.24-.49-6.43a12.48,12.48,0,0,1,.39-4.93c.34-.83,1-.26,1.21.88,0,.27-.19,3.1-.19,4.65,0,2.67.68,6,.84,8.1Zm-13.67-.7a4.93,4.93,0,0,1-1.23-2.16c0-.21.22-.39.63-.72s.53-.34,1,.36c.7,1.1,1,1.82.89,2.2-.44.41-.87.59-1.27.31Zm-24.51-.05a21.31,21.31,0,0,1-3-.78l1.49-1.45c.44.74.95,1.48,1.48,2.23ZM115,66a1.28,1.28,0,0,1-.94-.18,8.09,8.09,0,0,1-1.46-3.3,1.69,1.69,0,0,1,.59-.58c.18,0,.35.27,1,1.38,1.08,1.92,1.4,2.46.84,2.69Zm1.25-.62a12.93,12.93,0,0,1-2.09-4.2,1,1,0,0,1,.22-.57c.91-1,.68-.82,2,2,1.14,2.29,1.44,2.52.69,2.78C116.84,65.48,116.53,65.59,116.29,65.39Zm2.17-.75c-.4,0-.51-.66-1.28-2.17-1.29-2.86-1.78-3.26-1.49-3.56.36-.46.57-.78.92-.22.78,1.27,1.55,2.89,2.28,4.32.58,1.06.63,1.19.26,1.45A1.36,1.36,0,0,1,118.46,64.64Zm-23.71.59a5.12,5.12,0,0,0,1.39-.11c.37-.1,2.44-.91,1.24-1-.24,0-.47.26-1.29.31s-3.73-.3-3.64-.07c.14.54,1.29.87,2.29.88Zm24.78-2.82c-1.89-3.54-2.86-4.86-2.54-5.42.27-.34.68-.77.93-.67s.92,1.33,2.24,4,1.5,2.93.8,3.28C120.08,64.06,119.89,63.07,119.53,62.41Zm3.11.71c-.26,0-.52-.59-.65-.82-.85-1.38-.73-1.19-.72-5.68,0-2.79.36-4.57.83-5.25.24-.36.67-.15.89.56.1.32-.18.8-.23,1.31C122.42,56.59,122.65,59.94,122.64,63.12Zm-22.06-.58c.09,0,.16,0,.18-.08.09-.22-.09-.57-.56-1.25s-.3-1-.29-1.78c0-1.07-.07-1.15-.81-.61s-.71,2-1.87,1.22a1.71,1.71,0,0,0-2.13,0c-.4.37-.54.2-1.07.06-.58-.32-.75-.37-2,.23-.84.37-.87-1.07-1.37-1.34-.88-.78-1-.5-.89.52A7.73,7.73,0,0,1,89.55,61c-.44,1.81.27,1.83,1.21.68.36-.45,1.17.58,1.94.94,1.9,1.09,3.68.55,5.46-.42.62-.33,1-.35,1.4,0a1.94,1.94,0,0,0,1,.41Zm19.66-3.87c-.19,0-.47-.52-.89-1.69-.54-1.52.41-6.8,1-7.67.3-.45.5-.73,1.12.11.25.37.05.49-.19,1.53a32.24,32.24,0,0,0-.7,5.33C120.54,57.81,120.46,58.62,120.25,58.67Zm-1.91-5.12c-.13,0-.29-.31-.51-.92a6.63,6.63,0,0,1,.24-3.64,9.59,9.59,0,0,1,.85-2.1c.13-.36.83-.23,1,.56.12.5-.3,1.12-.5,1.92s-.43,1.82-.55,2.33c-.21,1.25-.36,1.87-.56,1.86ZM103.59,51.2h.06s-1.44-1.64-1.83-2.09c-.21-.17-2-2.33-.88-1.84a7.55,7.55,0,0,0,8-1.35c.25-.24.46,0,1.22.06,1.55.12,2.12-.5,1.17-1.27-.14-.12-.45-.17-.58-.36s-.09-.48-.15-.57c-3-4-8.57-4.78-12.07-2.17-.44.33-.69.44-1.1.32-.81-.24-.89.44-.17,1.39.31.42.7.9.48,1-.44.38-.66,1,.11,1.24a2.53,2.53,0,0,1,1.43,1.58c.35,1,3.77,3.94,4.29,4Zm13.66-1.73c-.15,0-.23-.19-.25-.23a7.86,7.86,0,0,1,.28-4.82c.37-.44,1.22.38,1.09,1.23a29.37,29.37,0,0,1-.95,3.7A.29.29,0,0,1,117.25,49.47ZM103.92,47a2.94,2.94,0,0,1-1.9-.78c-.32-.29-.89-1.56-.65-2.05.07-.25.74-.24.8-.05.37,2.55,2.44,2.92,3.09.54,0,0,.43-.36.48.34-.15,1.35-.78,2-1.83,2Zm-16.63-.22h0a1.68,1.68,0,0,1-1.6-1,1.55,1.55,0,0,1-.16-1.12c.07-.16.29-.09.29-.09,1,2.88,2.47,1.55,3,0,0,0,.54-.17.61,0a1.35,1.35,0,0,1-.19.94,2.23,2.23,0,0,1-1.93,1.32Zm14-.19a2.36,2.36,0,0,1-1.48-.76c-.48-.49-.53-.78-.14-1.14.23-.22,1.07-.43,1.23-.05l.7,1.64c.07.16-.14.31-.31.31Zm5-.08c-.42,0-.5-.1.15-1.62.14-.33,1.81.15,1.49.77a2.78,2.78,0,0,1-1.64.84Zm-17.13-.21A10,10,0,0,0,90,44.69c.6.07,1.31,0,1.44.48s-.12.75-1,1.07C90,46.45,89.28,46.49,89.23,46.34ZM84.69,46a1,1,0,0,1-.7-1c.06-.21.38-.23.57,0a1.83,1.83,0,0,1,.48.9c0,.31-.26.23-.35.2Zm31.58-1.48c-.19-.37-.55-2.45-.14-2.4s.58.73.65,1.3c0,.12-.34,1.09-.52,1.1Zm-7-1.11A3.1,3.1,0,0,1,108,42.9a10.43,10.43,0,0,0-7.08-.7c-1.43.37-1.79.59-2,.34-.34-.42.2-.83,2.21-1.51,2.21-.74,4.5-.62,7.52,1.51.81.57.92.85.68.89Zm-25-.42a.27.27,0,0,1-.19-.15c-.37-.7.88-1.44,1.54-1.55a7.18,7.18,0,0,1,4.9.68c1,.71.56,1.22-.5.67a6.42,6.42,0,0,0-4.7-.1c-.46.22-.82.49-1.05.45Zm28-1.46c.13,0-.09-.35-.53-.83-3.11-3.5-10.53-5.4-14.7-1.79-1.31,1.23-1.11,1.78,1,.8,3.42-.85,7.89-1.65,13.07,1.12C111.81,41.37,112.19,41.58,112.3,41.55ZM91,41.52h-.11A6.86,6.86,0,0,1,89.62,41a7.16,7.16,0,0,0-4.23-.07c-1.64.64-2-.17-.43-1a4.73,4.73,0,0,1,5.55.72c.43.39.67.88.48.91Zm20.51-6.26c-6.12-.56-15.7-7-19.3-14.3h2.37c3.62,5.76,9.19,10.72,15.8,12.45.26.2,1.27,1.59,1.13,1.85ZM84.58,33.89v-2a34.86,34.86,0,0,0,7.75-9.1A14.24,14.24,0,0,0,93.18,24c-2.94,5.17-5.91,8.13-8.6,9.85Zm24.53-1.55c-1.4.1-10.54-5.16-13.62-11.38H97.1c3.46,4.52,7.31,7.8,10.73,9C108.66,30.82,109.64,32.3,109.11,32.34ZM84.58,30.86V28.2a25,25,0,0,0,5-7.24h1.7A4.76,4.76,0,0,1,91.83,22,29.87,29.87,0,0,1,84.58,30.86Zm22.14-2.18c-.82,0-7.34-4.81-8.26-7.72h1.64a20,20,0,0,0,5.34,5.31c.77,1,1.71,2.15,1.36,2.34,0,0,0,.06-.09.06ZM84.58,26.94s0,0,0-.09V24.66A26.86,26.86,0,0,0,87.51,21h1.4c-1.2,2.59-4.06,6.15-4.33,6Zm18.88-3.14h-.07c-.51-.13-2.36-2.24-2.3-2.83h.83a17.44,17.44,0,0,1,1.35,2.17c.18.34.3.65.18.67Zm-18.88-.5h0V21h2a7.88,7.88,0,0,1-2,2.46Z" style="fill: #131f67"/>
  <path d="M144.43,20.32,102,20.43l51.93,74.85c.1-6.08-.1-10.08.11-16.63L137.59,57.33l2.56-.86s0-.3.17-.34c3.51-1,9.19-1.93,9.19-1.93-4.23-9.68-7-21.79-5.08-33.89ZM109,21.08,153,78.88l0,14.27-50-72Zm34.49,0s-1.06,8.84.07,15.51c-1.45-.35-2.43-.7-4.1,1.27-2.71-2.25-4.65-.55-4.51,1.39A3.65,3.65,0,0,0,137,42c-2,.67-4.07-3.15-4-5.14a5.58,5.58,0,0,1-4-5.13h.67c1.08,5,6.71,2.26,4.36-1.69,3-1.11,2.77-3.9,1.89-5a3.21,3.21,0,0,0-5.29.87c-2.93-3.79-7,.46-3.4,4-2.92-1.08-3.38-5-2.95-6.22a6,6,0,0,1-2.7-2.6Zm-29.13,0,2.69,0a14.29,14.29,0,0,0,9.2,11.65A13.42,13.42,0,0,0,135.52,45a14,14,0,0,0,6.15,10.3l-1.7.5Zm4.74,0c1,6.34,5,8.87,9.19,10.05-.33,8.95,6.61,11.74,9,12.16-.14,6.45,4,9.1,6.7,11.27-.52.13-1,.23-1.49.34-4.91-3.77-5.15-4.68-6.55-10.49-7-2.37-8.78-7.6-9.23-12a13.83,13.83,0,0,1-9.06-11.28Zm11.5,6.79a1.34,1.34,0,1,1-1.34,1.34A1.34,1.34,0,0,1,130.57,27.95ZM83.81,34a63.45,63.45,0,0,0-17.44,48.1l-3.21,3.22c.06.17,8,4.44,11.34,5.37l-.92,2.93,7.95,2.49-.89,2.32-7.92-2.3c-1.5,3.69-3.09,8.86-3.09,8.86A40.77,40.77,0,0,0,55.82,91.58L24.75,121.38l.2,19.17,21.16,21.21-8.81,4.6c.85.68,2.07,1.33,2.94,2,.06,0-.18.2-.11.24.22.17.38.31.61.47.05,0,.21-.19.26-.16a52.93,52.93,0,0,1,8.33,6.68c.06.06,0,.32,0,.39,1.22,1.31,2.44,2.53,3.68,3.82a20,20,0,0,1,1.53,2l.05.46L56,183.93c4.3-2.54,22.65-8.93,40.4-1.86L93,185.45A25.85,25.85,0,0,1,94.7,192c.93,8,.57,22.3.57,22.3-.08-.2,19-16.42,17.18-46.93l.55-.62-.15-.22c.63-.72,1.24-1.3,1.93-2a69.31,69.31,0,0,0-10.9-5.23l1.32-3.07-8.26-2.67,1.11-2.92,8.13,2.71a72.33,72.33,0,0,0,2.74-8.09c.08-.22.27-.11.56.31,4.29,7.34,13.11,12.63,12.81,12.11L153.55,128l.21-18.37L132.14,87.27a103.61,103.61,0,0,0,9.22-5.11c-2.3-1.88-4.91-3.34-7.2-5.12-4.74-3.35-7.93-8.27-11-11.61A52.79,52.79,0,0,1,81.5,67.86C83,66.31,84.61,65,86.12,63.3c-3.66-9.63-2.49-28.75-2.3-29.27Zm56.12,6.07a1.3,1.3,0,1,1-1.29,1.3A1.3,1.3,0,0,1,139.93,40.1Zm4.51,1.22a67.18,67.18,0,0,0,4.14,12.4c-.56.15-2,.33-2,.33-2.1-.69-3.69-3.61-3.52-5-2.77-.35-5.67-3-5-5.82a.68.68,0,0,1,.85.18c-.74,5.42,7.32,2.73,4.1-1.18ZM83.38,52.44a50.5,50.5,0,0,0,2.14,10.78s-5.3,4.91-8.56,8.24C77,69.92,78.45,59.56,83.38,52.44Zm41,15.15,1.29,1.59a58.88,58.88,0,0,1-25.94,6.15,55.48,55.48,0,0,1-21.22-4.1l1.74-1.64C99.21,76.13,111.63,73.19,124.36,67.59ZM44.09,69.37A6.71,6.71,0,0,0,40,71.08c-4.59-2.18-9.92,1.47-5.76,7.79-1.56,2.76-.46,4.8,1,6.56a42.64,42.64,0,0,0-7-.92c0,3,2.45,4.3,7.57,4.71,3.63-.51,10,2.66,10,2.64,5.28-1,7.85-3.13,7.44-6.69-.09-1.42-1.72.08-1.72.08a20.45,20.45,0,0,1-8.43,3.42l.18-3.27c6.88,0,6.5-5.45,4.52-8.3C48.5,75.79,50,71.19,45,69.44A4.21,4.21,0,0,0,44.09,69.37Zm0,.54c3.5-.14,5,5,3,6.65,3.83,6.3-.88,10.28-5.73,7.5a4,4,0,0,1-3.3,1.8c-3.06,0-6-3.54-3-7.23-5-3.82.43-10.24,4.81-6.5a6.53,6.53,0,0,1,4.12-2.22Zm80.31.64,2.14,4.24-5.26,2-1.8-4.15Zm2.42.13a.24.24,0,0,1,.16.11l1.21,1.41a1.16,1.16,0,0,1-.53.11h0c-1-.06-1.15-1.62-.85-1.62Zm-81.8,1.79-.1,0c-1.08.82-1.6,1.91-2.79,2.88-1.27-.34-2-.65-3.24.4-1.2-.55-1.89-1.4-3.23-2.18-.44-.26-.57.3-.38.5a31.09,31.09,0,0,0,3.05,2.55,3.1,3.1,0,0,0,.46,3.08c-.84,1-1.23,1.46-2.35,3-.34.46.23.73.6.26.73-.93,1.56-1.86,2.34-2.75A3.49,3.49,0,0,0,42.74,80,27.79,27.79,0,0,0,46,82.41c.19.11.41,0,.29-.19-.78-1.14-2-1.78-2.92-2.89A3.3,3.3,0,0,0,43,76.14c.53-.9,1.62-2,2.28-3.27.19-.35-.07-.41-.23-.4Zm33.18.1a1.36,1.36,0,1,1-1.35,1.36A1.36,1.36,0,0,1,78.23,72.57Zm3.12.64,4.52,1.23-1,4.67-5.23-1.7Zm48.29.33,4,3.77-5,2.55L126.67,75Zm-11.81.33a1.36,1.36,0,1,1-1.35,1.36A1.36,1.36,0,0,1,117.83,73.87Zm-2.8.07,1.19,4.73-5.33,1.14-.77-4.65ZM74.68,75.46l4.8,2-1.61,5.33-5-2.09Zm16.39.08,4.27.39-.1,4.93-4.95-.59Zm-3,.17a1.36,1.36,0,1,1-1.35,1.36A1.36,1.36,0,0,1,88.11,75.71Zm17.28.07.4,4.85-5.15.21,0-4.86Zm-64.59.1a1.94,1.94,0,1,1-1.93,1.94A1.94,1.94,0,0,1,40.8,75.88Zm67.19.34a1.36,1.36,0,1,1-1.35,1.36A1.36,1.36,0,0,1,108,76.21Zm-9.82.68a1.36,1.36,0,1,1-1.36,1.36A1.36,1.36,0,0,1,98.18,76.89Zm23.24.19,1.83,5.11L117.54,84l-1.23-5.24Zm3.42.17a1.36,1.36,0,1,1-1.35,1.36A1.36,1.36,0,0,1,124.83,77.24Zm-84.05-.36a1,1,0,1,0,1,1A1,1,0,0,0,40.78,76.88Zm93.61,1,3.7,2.76L136,81.9Zm-49.5,1.37,5.38,1.09-1,5.38-5.51-1.23Zm-15,.07,2.9,1.45-1.77,4.83-5-2.51Zm11.78.25a1.36,1.36,0,1,1-1.36,1.36A1.36,1.36,0,0,1,81.72,79.55Zm50.83.14a1.36,1.36,0,1,1-1.35,1.36A1.36,1.36,0,0,1,132.55,79.69ZM110.92,80l1,5.33-5.72.65-.29-5.3Zm17.72,0,1.86,4.66a46.7,46.7,0,0,1-5.64,2.33l-1.46-4.71Zm-28.1.85.07,5.37L95,86.3,95.32,81ZM114,81a1.36,1.36,0,1,1-1.36,1.36A1.36,1.36,0,0,1,114,81Zm24.54,0,1.77,1.3A73.9,73.9,0,0,1,99.65,94a77.44,77.44,0,0,1-35.58-9l1.46-1.47C87.13,95.23,116.87,95.19,138.58,81ZM92.47,82.1a1.36,1.36,0,1,1-1.36,1.36A1.36,1.36,0,0,1,92.47,82.1Zm10.88.17A1.36,1.36,0,1,1,102,83.63,1.36,1.36,0,0,1,103.35,82.27Zm-25.42.64,5.82,1.64-1.13,4.87-6.21-1.7Zm-3.47.36a1.36,1.36,0,1,1-1.36,1.36A1.36,1.36,0,0,1,74.45,83.26Zm43.12,1.06,1.26,4.76c-2.1.52-4.2.88-6.3,1.26l-.45-4.61Zm3.63.43a1.36,1.36,0,1,1-1.36,1.36A1.36,1.36,0,0,1,121.21,84.75ZM30,85.27a26,26,0,0,1,7.22,1.43c.91.37,2,1.48,2,1.95,0,.28-.54.26-.76,0-.36-.44-1.64-.9-4.57-1.64-2.25-.57-2.48-.59-2.48-.25.36.66,3.66,1.06,5.29,1.6,1.34.44-.9.54-1.45.57-2.67,0-6.2-1.37-6.21-3.45C29,85.33,29.4,85.27,30,85.27Zm22.67.18c.22,0,.29.25.28.69-.15,3.67-4.37,4.86-7,5.18-.5-.06-.34-.63.34-.76,1.08-.21,3.84-1.82,3.84-2.24s-.14-.23-1.15.31c-1.44.72-2.83,1.21-4.32,1.83-.93.42-1.39.13-1.05-.66.22-.52.31-.57,2.46-1.25,2.31-.65,3.38-1.55,5.36-2.62A2.87,2.87,0,0,1,52.63,85.45Zm-10.8,0c.8.05,1.2,1.59.77,3.52-.15.71-.42,1-.77,1-1.5-.23-1.38-3.68-.62-4.28A1,1,0,0,1,41.83,85.5Zm47.55.4,5.52.59-.43,4.88-6-.73Zm-49.3.17A4.79,4.79,0,0,1,40,87.85c-.67-.32-.92-.95-1.29-1.28A3,3,0,0,1,40.08,86.07Zm66.15.1.36,5.06c-1.92.13-3.71.27-5.45.28h-.74l.24-5.08ZM86,86.6A1.36,1.36,0,1,1,84.63,88,1.36,1.36,0,0,1,86,86.6Zm23.43.49a1.36,1.36,0,1,1-1.35,1.36A1.36,1.36,0,0,1,109.42,87.09Zm-11.7.9a1.36,1.36,0,1,1-1.35,1.36A1.36,1.36,0,0,1,97.72,88Zm28.45,1.79c1.8,1.77,5.18,5.3,5.15,5.39l-.22,1.14c-23.17,11.85-16.39,35.61-14.76,37.56a86.78,86.78,0,0,1-8.52,8.41c-7.21-12.47-6.37-29.59,2.13-42l-9.14.64,1.2-2.34,9.74-1c1.49-1.37,2.84-2.93,4.31-4.39l0-.52a88.07,88.07,0,0,0,10.08-2.9ZM56.11,92.69a39.07,39.07,0,0,1,14.3,14.9A11.52,11.52,0,0,0,69,108.82l1.75-1c5.55,8.89,7.9,26.61-1.52,40.82l9.52-.35-1.55,3.25-10.36.57-4.19,4.51s-1.33.25-2.43.5-3.32.89-5,1.42-3,1-3.09,1C43.43,151.15,33.88,141.58,26,133.7l0-12.36Zm32.4,1.39,1.51.24c-2.51,5.88-4.13,10.71-6,16.25L81.24,110l2.36-1.41-1.5-1.75,2.9-1.24-1.76-1.82,2.8-1.15-1.7-2,2.9-1.23-2-1.72,3.26-1-1.24-1.9Zm2.33.34L92,94.6l-.31,1.11,1.09.16s.38-.79.53-1.2l1.17.1a114.79,114.79,0,0,0-6.08,16.42L87.32,111l.33-1.16-1.23-.26-.4,1.25a6.58,6.58,0,0,1-1.1-.17C86.22,105.4,90.78,94.36,90.84,94.42Zm-51.22,0s-.22.59-.37,1.15A2,2,0,0,1,38.12,97a3.09,3.09,0,0,0-.63.48,5.12,5.12,0,0,1,.86,2,6.17,6.17,0,0,0,.71-.59c-.12-.33-.48-.84-.43-1.17s.33-.45.74-.9c1-1.21,1.4-1.08.8.22a4.2,4.2,0,0,0-.29.78,8.34,8.34,0,0,0,.58-1.05l.66-1.29A5.53,5.53,0,0,1,39.62,94.43Zm55.6.38,1.6.25.76.94L95,97l2,2-3.28,1,2,2-3.24.81L94.25,105l-2.91,1.14,1.85,2.39-3.1.85,1.52,2.32c-.85-.1-1.78-.23-2.62-.39a98.88,98.88,0,0,1,6.23-16.46Zm-39,.63L27.55,123l.11,9.2,17.4,17.24c2.31-17.9,12-34.2,22.15-42.5A39.5,39.5,0,0,0,56.26,95.44Zm75.74.3c8.74,8.2,13.16,12.73,21.06,20.69l-.28,11.88-30.34,28.84a37.7,37.7,0,0,1-13.92-14.64C124.58,128.66,130.64,112.53,132,95.74ZM73.09,96.91l7.36,2.17-3.32,10.09-5.52-1.51-1.1-2Zm58,0c-.61,13-6.05,25.43-14.22,36.24C112.12,119.61,116.24,105.25,131.09,96.93Zm-40.23.38-.62,1.56,1.15.24L92,97.59Zm-1.19,3.13-.53,1.44,1.1.23.54-1.43Zm44.57.47c-2.52,15.1-8.3,29.51-22.53,42a34,34,0,0,0,11.07,11l28.1-26.45.08-9.87-9.78-9.94ZM109,101c-3.6,6.32-3.69,7.81-5,11.16l-7.16,0a52.08,52.08,0,0,1,3.71-10.54C103.56,101.45,106.83,101.31,109,101Zm-51.76,0c.6-.11.9.67.86,1.93a22.63,22.63,0,0,1-.51,2.66c6.33-2.14,5.86.76.92,3.29,3,1.45,4.89,2.76-.28,3.06.14.12,1,2.9.07,3.55s-2.81-1.47-2.9-1.57c-.57,2-1.21,3.69-2.77,3.69s-.83-3.29-.34-4.89a10.74,10.74,0,0,1-1.26.86c-2.81,1.32-3.86-.17-2.44-1.91.68-.89,1.61-1.09,2.36-1.84-1.91-.13-3.48-.45-4.52-2.12.81-1.47,3.44-1.08,5.5-.57-1.21-1.43-1.75-5.21-.26-5.25,1.51.4,2.24,2.08,2.83,3.29a9.07,9.07,0,0,1,2-3.78,1.5,1.5,0,0,1,.7-.42Zm31.32,2.34L88,104.81l1.16.21.53-1.44Zm-56.59,2a1.7,1.7,0,0,0-.66.07c-.2.08-.13.59-.2.76-.41,1.12-3.06,7.77-.59,7.59,1.1-.1,1.79-1.08,2.3-1.94.1-.17.3-.24.37-.46a29,29,0,0,0,1.1-5.44,8.21,8.21,0,0,0-2.31-.58Zm105.07.71a5.32,5.32,0,0,1,2.61,1.37l2,2a3.15,3.15,0,1,0,4.45,4.43c.45.44,1,.94,1.65,1.59,1.12,1.05,1.91,1.89,1.8,2.27-1.48,1-4.43-1.76-4.69-2,.22.55-1.41,5.94-3,6.24-2.17-.49-1.17-5.56-.68-6.94,0,0-6.05,3.2-6.42,1.77-.24-2.86,5-4.86,5-4.86s-3.56-3.1-3.66-5c0-.47.21-.73.57-.79H137Zm-104.5,0c.7-.06,1.5.3,1.41.83-.39,2.3-.52,3.28-1.12,3.59a9.64,9.64,0,0,1-1.83.22c-.87,0-.81-.44-.18-2.08s.81-2.15,1.1-2.35A1.25,1.25,0,0,1,32.53,106.12Zm22.26.17a3.15,3.15,0,1,0,3.14,3.15A3.15,3.15,0,0,0,54.79,106.29Zm32.63.34-.47,1.48,1.16.21.53-1.44Zm-32.63.77a2,2,0,1,1-2,2A2,2,0,0,1,54.79,107.4Zm0,1.56a.51.51,0,1,0,.51.51A.51.51,0,0,0,54.76,109Zm80.41.93a1.7,1.7,0,1,1-1.7,1.7A1.7,1.7,0,0,1,135.17,109.88ZM45.54,110a1.7,1.7,0,1,1-1.7,1.7A1.7,1.7,0,0,1,45.54,110Zm96.93.25,1.14,1.14a.51.51,0,1,0,.66.66l1.07,1.07a2,2,0,1,1-2.87-2.87ZM32.31,111.53c.34,0,.41.06.18.51a2.82,2.82,0,0,1-1.65,1.4.67.67,0,0,1-.71-.51c-.28-.67.61-1.4,1.76-1.4h.42Zm29.93,3.93c-7.87,10.14-14,19.67-15.2,38.17,16.51-7.78,20.31-23.73,15.2-38.17Zm-15.41,0L35.55,126.4l.91-6.15c2.36.21,4.34-.16,3.73-4.32a40.44,40.44,0,0,0,6.64-.44Zm15.07,1.68a28.22,28.22,0,0,1-14,35.41A59.81,59.81,0,0,1,61.89,117.17Zm13.41.37a101,101,0,0,0,27.37,3c-.42,3.88.25,8.29.68,11.47a108.37,108.37,0,0,0-27.05-3.14A64.28,64.28,0,0,0,75.3,117.54Zm-23.69,2.27-.36,5.55c-2.92-.37-4,1.17-3.53,4.23a15.24,15.24,0,0,0-4.78.39Zm96,.75a1.7,1.7,0,1,1-1.7,1.7A1.7,1.7,0,0,1,147.56,120.57Zm-16.23.25,5.18.06-9.27,8.54.69-4.06c1.73,0,3.43-.66,3.41-4.54ZM44,121.89a1.7,1.7,0,1,1-1.7,1.7A1.7,1.7,0,0,1,44,121.89Zm99.49,2.5a14.22,14.22,0,0,0-.72,4.94c-3.08-.32-4.37,1.25-3.92,4.47a18.29,18.29,0,0,0-5.6.51Zm-8.4.36a1.7,1.7,0,1,1-1.7,1.7A1.7,1.7,0,0,1,135.11,124.75Zm-103.35.51a1.71,1.71,0,1,1-1.7,1.71A1.7,1.7,0,0,1,31.76,125.26Zm5.73,2.33h0c1.77.3,0,7.35-.05,7.18,1.22-1.29,7.15-2.66,6.74-1.22-.83,2.86-5.26,4-5.85,4.46,2.36,1.42,5.35,5.37,3.43,5.54A4.16,4.16,0,0,1,39,142.7l-2.28-2.35a3.15,3.15,0,0,0-2.17-5.43,5.5,5.5,0,0,0-2.21.91l-3.62-3.75c2.27-.88,4,.83,5.18,2.38.12-1.54,1.25-6.46,3.56-6.86Zm88.89,4.27c.8,0,1.29,1.28.71,3.7-.15.5-.33,1.39-.33,1.39a15.34,15.34,0,0,1,1.48-.77c4.08-1.83,4.74.05,1,2.8-1.05.78-1.41,1.09-1.41,1.09a10.77,10.77,0,0,1,1.79.28c3,.74,3.74,2.52-1,2.43-.7,0-1.41-.06-1.41-.06s.23,1,.48,1.79c1.14,3.55-1.16,4-3.1.79-.41-.68-.53-.68-.53-.68-.26,1.84-1.14,4.16-2.37,4.28-1,.06-1.27-2.39-.78-4.2.18-.65.24-1,.24-1a6.61,6.61,0,0,1-1.2.79c-5.64,2.82-3.82-1.47-1.16-3.05.59-.32,1.21-.69,1.21-.69s-.56-.13-1.18-.24c-3.42-.71-2.7-2.72.88-2.41.53,0,1.15.15,1.15.12a13.2,13.2,0,0,0-.46-1.41c-1.2-3,1-3.28,2.52-1.34.21.27.67,1,.67,1s.14-.56.23-1.11c.64-2.38,1.74-3.54,2.54-3.5Zm7.39,3.92a1.7,1.7,0,1,1-1.7,1.71A1.7,1.7,0,0,1,133.76,135.79Zm14.15.12a3.08,3.08,0,0,0-2.29,1.33c-.43.62-.74,1.89-.81,4.13l-.07,2a19.84,19.84,0,0,1,3.06.9,48.42,48.42,0,0,0,1.55-6.44c.19-1.11,0-1.57-.67-1.82a1.94,1.94,0,0,0-.77-.11ZM34.58,136A2,2,0,0,1,36,139.56l-1.06-1.13a.51.51,0,1,0-.68-.7l-1.1-1.11A2,2,0,0,1,34.58,136Zm113.21.41a1.48,1.48,0,0,1,.9.18c1,.52-.67,1.86-1.82,1.93a1.16,1.16,0,0,1-.46-.06c-.8-.27-.61-1,.42-1.67A2.33,2.33,0,0,1,147.78,136.43Zm-104.24.18a1.7,1.7,0,1,1-1.7,1.71A1.7,1.7,0,0,1,43.54,136.61Zm80.52.51a3.15,3.15,0,1,0,3.15,3.15A3.15,3.15,0,0,0,124.06,137.12Zm-49.39.53,7.67.13a41.27,41.27,0,0,1-3.51,10.08c-3.12.09-5.94.22-8.68.37A40,40,0,0,0,74.67,137.65Zm49.39.58a2,2,0,1,1-2,2A2,2,0,0,1,124.06,138.23Zm-35.38.25a5.7,5.7,0,0,1,1.32.2,88.38,88.38,0,0,1-6.28,16.73l-2.27-1.89,2.58-1-1.34-1.78,2.73-1-1.57-1.85,2.71-1-1.62-2.24,2.82-1-1.78-2,2.54-1.19L87,139l1.68-.55Zm59.88.07c.23,0,.29.28.2,1-.12.87-.55,2.71-.74,3.45a.53.53,0,0,1-.52.51,5.33,5.33,0,0,1-1.78-.36c-.24-.06-.25-.26-.28-.45,0-.85-.21-3.32.57-3.35a3.6,3.6,0,0,0,2.25-.6.7.7,0,0,1,.29-.15Zm-58,.24,1.28.27s-.37,1.24-.37,1.41c.15,0,.87.34,1.1.43.08-.19.53-1.63.53-1.63l1,0a77.36,77.36,0,0,1-6.2,16.31l-.7-.14c-.09,0,.45-1.3.39-1.35-.87-.18-.92-.13-1.18-.21l-.66,1.37-1.09-.21a90.36,90.36,0,0,0,5.89-16.28Zm4.2.59,2.49.74s-1.61.68-2.33,1.1l1.29,2.09-2.45,1,1.45,1.77-2.49,1.44L94,149.1l-2.28,1.14,1.42,1.63-2.39,1.34,1.25,1.56-3.3.84A125.14,125.14,0,0,0,94.74,139.38Zm29.28.4a.51.51,0,1,0,.51.51A.51.51,0,0,0,124,139.78Zm-22.89,1,6.75,2.06.69,1.71-2.77,8.31-7.5-2.42Zm-10.38,1.66-.41,1.19,1.12.39.37-1.18Zm-1,2.64-.4,1.25,1.07.38.44-1.29Zm-1.09,3-.4,1.24,1,.34.43-1.22Zm52.28.89a3.41,3.41,0,0,0-.41,1c-.21.68-.4,2-.51,2.17-.58.18-.67,2.08-1.26,1.82-.34-.15-.28-.46-.08-1.19.42-1.45.58-2.07-.14-1.08-1.07,1.3-1.18,2.47,0,2.71a4.26,4.26,0,0,0,.46,0c.63-.41.27-1.3,1.06-2.06a1.72,1.72,0,0,0,.18-.72c0-.21.66-2.68.66-2.68Zm-53.24,2-.44,1.22,1,.28.47-1.2Zm-62.78,3.22,0,16.53,16.79,21.72a63.17,63.17,0,0,1-12.16,2.32c4.72,10.49,7.08,20.34,5,33.83,14.49.17,28.68.15,42.74,0Zm53.15,1.23a71.81,71.81,0,0,1,36.11,9.44s-1,1-1.52,1.53c-21.35-12.81-52.52-11-72,1.87l-2.1-1.46a73.66,73.66,0,0,1,39.53-11.38Zm-52.2.89,50.52,71.86H70.3L25.95,170.68ZM132,157.5a6.74,6.74,0,0,0-6.38,6.19c1.78-.46,3.74-1.1,5.48-1.48a10.33,10.33,0,0,0,4.28-1.85l.11,3.51c-8.83-.42-5,8-4.49,8.36-1.64,3.32.33,7.09,3.76,7.13a6.85,6.85,0,0,0,4.18-1.62c5.64,2.58,9.33-3.44,5.84-7.43.52-2.87.91-3.41-1.25-6.31,2.29-.29,5.18.31,7.64.69-.42-4.25-6.49-5.24-9-4.77a9.07,9.07,0,0,1-5.41-.79c-1.6-.45-2.6-1.22-4.18-1.6a5,5,0,0,0-.56,0Zm.13.49a2.78,2.78,0,0,1,1.43.26c.89.48.52.77-1.25,1.13-2.29.61-3.79,1.2-3.8,1.63,0,.26.35.23,1.28-.12,1.44-.48,2.93-.69,4.3-1.31,1-.47,1.42-.63,1.65-.35.48.59-1.79,2.07-4.16,2.47-1.77.3-3.56,1.24-5.21,1.37-.18-2.85,3.34-5,5.75-5.08Zm-54,.4,0,4.7-5.71.36-.29-4.79Zm6,.31,6.06.69-.77,4.67-5.53-.72Zm-3,.36a1.3,1.3,0,1,1-1.3,1.3A1.3,1.3,0,0,1,81.13,159.07Zm-15.24.38.74,4.87-5.57,1.4-1.33-5Zm71.34.27a.6.6,0,0,1,.62.55c-.12.48,0,2.78-.05,3.49a1.2,1.2,0,0,1-1.31-.1c-1-.67-.3-3.07.23-3.75a.64.64,0,0,1,.51-.19ZM69,160a1.3,1.3,0,1,1-1.3,1.3A1.3,1.3,0,0,1,69,160Zm75,.23c3.61.1,6.23,1.8,6.81,3.7.05.14,0,.19-.12.19a14.09,14.09,0,0,0-1.72-.23c-2.51,0-7.2-.78-8.58-1.92a5.93,5.93,0,0,1-1.53-1.33c0-.29.41-.3,1,.08a15.18,15.18,0,0,0,5.68,1.73c.47.06.52,0,.53-.17s-.43-.43-1.79-.66a15.24,15.24,0,0,1-2.53-.57c-1-.29-.38-.67.7-.77l.81-.05H144Zm-51.3.28a1.3,1.3,0,1,1-1.3,1.31A1.3,1.3,0,0,1,92.73,160.53Zm3.31.14,6.11,1.76-1.49,4.26-5.57-1.61Zm42,.1c1,.84,2.18,1.74,3.36,2.65a6.44,6.44,0,0,0-3.37.82Zm-80.52,1.63a1.3,1.3,0,1,1-1.3,1.31A1.3,1.3,0,0,1,57.52,162.39Zm-3.58.14,1.65,4.68-5.34,2.33-1.89-4.68Zm24.09.68,5.84.16-.57,5.3-5.34-.1Zm-5.68.36.35,5.41-5.15.7-.9-5.31Zm68.58.39a3.56,3.56,0,0,1,.47,0c2.73.24,4.47,3.27,2.72,6.39,4.84,4.34-1.13,10.17-5.21,6.42a4.42,4.42,0,0,1-3.8,2.17c-3,0-5.69-3.2-2.8-6.75-5.59-4.94,1.57-10.24,5-6.56a5.71,5.71,0,0,1,3.63-1.68Zm-36.58.08a1.3,1.3,0,1,1-1.3,1.3A1.3,1.3,0,0,1,104.35,164Zm-14.92.11,5.51,1.1-1.23,5.3-5.06-1.1Zm18.4.43,4.34,2.32-3.43,3.37L106.06,169Zm-32.59.22a1.31,1.31,0,1,1-1.3,1.31A1.3,1.3,0,0,1,75.25,164.8Zm11,.3a1.3,1.3,0,1,1-1.3,1.31A1.3,1.3,0,0,1,86.2,165.09Zm-25.14.66,1.5,5.32-4.91,1.57-1.89-5.18Zm81.15.14a.28.28,0,0,0-.14.06,17.62,17.62,0,0,0-2.85,3.34,3.62,3.62,0,0,0-3.11.14,24.12,24.12,0,0,0-3-2.19c-.39-.22-.41.36-.4.37a35.42,35.42,0,0,1,2.83,2.4c-.53,2,0,2.65.42,3.3-.76,1.1-1.76,2-2.7,3.6,0,.12.11.37.24.27,1.23-.87,1.94-2.17,3-3.22a3.85,3.85,0,0,0,3.52-.46c1.48.78,1.88,1.38,3.34,2.08.48.23.5-.31.36-.45a26.36,26.36,0,0,0-3.23-2.42,5,5,0,0,0-.48-2.84c.82-1.56,1.6-2,2.31-3.68C142.46,166,142.34,165.87,142.21,165.89Zm-77.73.72a1.31,1.31,0,1,1-1.3,1.31A1.3,1.3,0,0,1,64.48,166.6Zm36.14.23,5.32,2.29-2,5.25-5.2-2.29ZM46.21,167a1.31,1.31,0,1,1-1.3,1.31A1.3,1.3,0,0,1,46.21,167Zm50.54.39a1.3,1.3,0,1,1-1.3,1.31A1.3,1.3,0,0,1,96.75,167.37Zm-53.7.28c.44,1.07,1.23,2.33,1.73,3.37l-3.42-2.43Zm34.91,1,.1,5.12-4.31.21-.64-5Zm5.31.22,5.36.72-.88,4.86-4.67-.55Zm-33,.77,2.15,4.68-2.59,1.17-4-3.59Zm17.29.14.78,5-4.28,1L62.78,171Zm-13.63.13a1.31,1.31,0,1,1-1.3,1.31A1.3,1.3,0,0,1,53.93,169.89Zm84-.18a1.86,1.86,0,1,1-1.86,1.86A1.85,1.85,0,0,1,137.9,169.71Zm-57.41.64a1.3,1.3,0,1,1-1.3,1.3A1.3,1.3,0,0,1,80.49,170.35Zm13.25.31,4.9,1.58-1.32,4.64-4.6-1.43Zm-23.34.11a1.3,1.3,0,1,1-1.3,1.3A1.3,1.3,0,0,1,70.41,170.77Zm67.48-.16a1,1,0,1,0,0,1.93H138a1,1,0,0,0-.07-1.93Zm-47.34.74a1.31,1.31,0,0,1,0,2.61,1.3,1.3,0,0,1,0-2.61Zm-32.9,1.38L59,177.27l-4.49,1.83-1.92-4.63Zm3.05.29a1.3,1.3,0,1,1-1.3,1.31A1.3,1.3,0,0,1,60.7,173Zm17.56,1.35c7.85-.06,15.65,1.35,21.64,4.21l-1.7,1.62c-11.24-5.09-29.54-5.46-43.27,1.58l-1.08-1.55C60.37,176.38,69.36,174.44,78.26,174.37Zm22,.28A1.31,1.31,0,1,1,99,176,1.3,1.3,0,0,1,100.26,174.66Zm1.9,2.87a44,44,0,0,1-6.44,19.7,61.06,61.06,0,0,0-2.06-11.65ZM39.1,194,64.92,228.2H61.51a13.61,13.61,0,0,0-8.37-11.34c-1.3-6.62-3.93-9.59-9.78-12.32-.89-3.86-3.21-8.66-5.62-10.22Zm-1.92.45C41.48,197.9,43,205,43,205c1.37.49,8.36,3.06,9.82,12.43,3.14.58,8.06,5.66,8.22,10.75H60a12.56,12.56,0,0,0-8.63-10.51c-.26-4.14-2.25-9.76-9.8-11.66.22-4.67-2.77-9.14-6-11.28a13.1,13.1,0,0,1,1.54-.28Zm-4.54.79c1.59,1,3.27,2.55,3.45,4.7,4.3,0,5.56,6.73,4,5.92a2.56,2.56,0,0,0-3.08-3c-1.4.2-2.61,2.13-.94,4.26a2.33,2.33,0,0,0-1.34.91,66.8,66.8,0,0,0-4-12.58Zm6.69,11.6a1.48,1.48,0,1,1-1.47,1.48A1.47,1.47,0,0,1,39.32,206.87Zm3,.83c2.62.1,4,2.49,4.49,5,1.61,1,3.29,2,3.45,5.66l-.82-.14a2.53,2.53,0,0,0-3.87-2.6c-1,.76-1.09,1.93-.7,3.75a2.65,2.65,0,0,0-2.16,3.34c.68,3.31,4.06,2.92,5.61.74,1.29,1.6,3.64,1.89,4.59-.58a2.64,2.64,0,0,0-2-3.23c3-.58,4.55,3.6,4.72,6.44l1.26,2.23c-8.19,0-11.77,0-21.51,0,.41-4.77.95-10.08.08-16,2.72,1,3.36-.71,3.81-.89.51,1.15,2.41,3.13,4.56.8,1.12-1.21.57-3.49-2-4.51a4.69,4.69,0,0,1,.54,0Zm5.95,11.46a1.4,1.4,0,1,1-1.39,1.4A1.4,1.4,0,0,1,48.29,219.17Z"/>
  <path d="M164.47,193.47a45.13,45.13,0,0,0,5.82,8,45.12,45.12,0,0,0-5.82,8,45.12,45.12,0,0,0-5.82-8A45.13,45.13,0,0,0,164.47,193.47Z" style="fill: #d40000"/>
  <path d="M14.11,40a45.13,45.13,0,0,0,5.82,8,45.12,45.12,0,0,0-5.82,8,45.12,45.12,0,0,0-5.82-8A45.13,45.13,0,0,0,14.11,40Z" style="fill: #d40000"/>
  <path d="M130.52,184.89c4.15,6.85,8.51,13.51,14,19.2-5.45,5.69-9.82,12.35-14,19.2-4.15-6.85-8.51-13.51-14-19.2C122,198.4,126.37,191.74,130.52,184.89Z" style="fill: #d40000"/>
  <path d="M48.06,26.15c4.15,6.85,8.51,13.51,14,19.2-5.45,5.69-9.82,12.35-14,19.2-4.15-6.85-8.51-13.51-14-19.2C39.55,39.66,43.91,33,48.06,26.15Z" style="fill: #d40000"/>
  <path d="M170.29,220.71h2.21v3h-2.21s0,1.62-.08,4.48c-.14,6.09-.29,7-2.05,8.72-3.48,3.31-9.32.61-9.25-4.37.1-7,0-13.74.23-14.69.37-1.67.4-1.77.25-2.07-.31-.61-2.94-.88-2.94-.71v-3a5.45,5.45,0,0,1,4.46,1.18,6.62,6.62,0,0,1,6.5-.8C169.26,213.37,170.67,215.62,170.29,220.71Zm-7.46-5.25c1.09,1.58,2.93,3.74,4.66,4.5.11-1.82,0-3.34-.69-4.16A2.54,2.54,0,0,0,162.83,215.46Zm-.91,17.38c.81,2.3,2.9,3.08,4.42,1.64,1-.89,1.1-1.84,1.13-7,0-3.16,0-4.48,0-4.48-3-1-5.74-4.42-5.71-4.37l-.07,9.54a26.77,26.77,0,0,0,.23,4.63h0Z" style="fill: #d40000"/>
  <path d="M8.3,28.73H6.09v-3H8.3s0-1.62.08-4.48c.14-6.09.29-7,2.05-8.72,3.48-3.31,9.32-.61,9.25,4.37-.1,7,0,13.74-.23,14.69-.37,1.67-.4,1.77-.25,2.07.31.61,2.94.88,2.94.71v3a5.45,5.45,0,0,1-4.46-1.18,6.62,6.62,0,0,1-6.5.8c-1.85-.87-3.25-3.12-2.88-8.22ZM15.75,34c-1.09-1.58-2.93-3.74-4.66-4.5-.11,1.82,0,3.34.69,4.16A2.54,2.54,0,0,0,15.75,34Zm.91-17.38c-.81-2.3-2.9-3.08-4.42-1.64-1,.89-1.1,1.84-1.13,7,0,3.16,0,4.48,0,4.48,3,1,5.74,4.42,5.71,4.37l.07-9.54a26.77,26.77,0,0,0-.23-4.63h0Z" style="fill: #d40000"/>
</svg>
