<svg xmlns="http://www.w3.org/2000/svg" viewBox="0 0 178.58 249.45">
  <title>D13</title>
  <path d="M154.6,230V19.46H24c.07,63.5,0,141.36,0,210.52Zm-36.85-1.76c-23,0-44.85,0-68.6-.14,2.12-5.06,7.9-14.17,11.52-21.49-.88-2.25.21-2.63-.25-3.17a2.29,2.29,0,0,1,1.35-3.4c6.71-.72,13.88,1.13,19.8,3.4a54.14,54.14,0,0,0,25.86,3.6s.75.08,1.09,1.86C111.56,218.2,114.88,222.1,117.75,228.22Zm35.18-.25h-34s-1.6-2.85-5-9.41c-1.42-2.78-2.62-4-2.75-6.15a3.55,3.55,0,0,0-1.52-3.35c-.35-.2-.95,0-.75-.51s-.45-1.54-.63-1.74c-.21-.35-.08-.44-.1-1.75a9,9,0,0,0-.36-2.75c-.68-2.41-.83-3.62-.44-4.87a69.82,69.82,0,0,1,3.44-8.57c.79-1.73.67-2.41-1.76-3.67-1.82-.94-2.07-.93-1.84-2.31a2.72,2.72,0,0,0,.07-1.36,2.42,2.42,0,0,0-.56-.61c-.24-.2-.17-.63.08-.94s.24-.75,0-1.48c-.77-1.89,1.38-4.53,3.8-5.47.7,2.5,4.24,3.37,6.3,1.76,1.79-1.4,2.09-3,1.61-5.21,4.37-2.65,9.13-5.75,13.82-8.1a19,19,0,0,1,1.12,3.41c.31,1.08.27,1.16.15,3.25-.1,1.89-.16,2.33.28,2.45,2.52.28,3.09-.62,3.57-2.25.21-.72.61-.57.86-.27,1,1.75,2.17,3.58,3,4.82,1,1.59,2.67,2.38,3.55,1.63.18-.62.34-.64,1.45-.38a1.68,1.68,0,0,0,2.25-1.45c.05-.4-.24-.38.49-.77,1.79-1.33,1.11-3.15.84-4.25a1.62,1.62,0,0,0,.78-1.48c.09-5.33-4.51-13-4.4-12.8l6.71-4ZM47.78,228H26v-4L36.7,213v-8.1c5.75,1.45,8.13,7.93,8.59,12.41,10.65-9.78,10.39-24.49.32-33.73-1.16,4.67-5.7,11.63-8.92,11.59V166.06l6.4,6.45,13-.1c-2.22,2.55-1,8.35.18,11.49,2.28,5.91,5.53,15.58,5.29,15.73,0,0-1.88.48-2,1.68-.25,1.77.51,1.64-.59,3.24a1.79,1.79,0,0,0,.18,1.58,1.5,1.5,0,0,1,0,1.46Zm-22.53-4.35,0-67.19c.79-5.46.44-11,.49-16.54L31.13,137l20.11,26.5A7.31,7.31,0,0,1,50,165c.43,1,1.85-1.44,2-1.83-7.29-9.09-20.85-26.88-20.85-26.88l-5.65,3c0-5.46.12-11,.17-16.41,9.86-5.7,15.74-14.91,20-24.35,3.91-1.28,8-3.1,11.95-4.73L52,85.18,54.19,84c25.17,38.28,14.37,65.21-5.72,87.63l-3.7.06-8.63-8.06.16,49c-3.59,3.76-7.58,7.16-11.05,11ZM46,215.43c-.16-.57-.51-2-.54-1.94,5.92-6.19,8.7-16.34.14-26.74a16.41,16.41,0,0,0,.43-1.64c9.21,9,7.84,23.22,0,30.32Zm-.89-2.59a17.2,17.2,0,0,0-5.3-7.41c1.42-3.17,2.27-6.48-.39-10.65A20.57,20.57,0,0,0,45,187.13c8.3,9.69,5.64,19.79,0,25.71Zm55.46-6c-3.92,0-8.42-.46-11.39-1.61-1.21-9.15-7.64-22.73-6.81-26.24,1.64,2.49,8.54,1.83,6.46-5.14a15.2,15.2,0,0,1,1.69-2c2.89-3,3.61-3.44,2.23-.84a35.45,35.45,0,0,0-2.43,5.11c0,.4.29.5.53.17a8.08,8.08,0,0,0,.58-1.26c1.72-4.06,4.67-7.72,6.71-8.6.52-.23.5,0,.14.46a31.61,31.61,0,0,0-5.52,9.37.33.33,0,0,0,.64.17c2.24-4.73,2.91-5.8,5.67-9.13,1.08-1.31,2.09-2,2.9-1.9s.49.18-.15.87a36.2,36.2,0,0,0-2.4,2.75c-2.07,2.63-4.16,6.9-3.39,6.67.13.36.79-.78,1.34-1.86,1.52-2.56,3.13-5.94,6.73-8.17a6.37,6.37,0,0,1,2.3-.5c1,0,.41.29-1.75,1.8s-5.6,6.14-6,7.87c-.18.79.31.85.87-.23,2.57-5,7.42-9.5,11.87-9.3,2.18.1,3.36.69,1.55.95-4.94.61-8.64,3.44-11.87,9.09,0,.13.29.12.63-.1,3-3.64,6.58-8.6,12.44-8.21a3.87,3.87,0,0,1,1.54,7.36c-3.07,1.45-5.83-2.49-3.25-4.52a1.52,1.52,0,0,1,1.28-.18s-.28,0-.78.39c-1.88,1.52.25,4.5,2.5,3.37a2.37,2.37,0,0,0,.66-3.71c-2.47-3-7.78-.73-11.48,4.18-.39.52-.72,1.64-.4,1.52a2.87,2.87,0,0,0,1.26-1.2,11.15,11.15,0,0,1,4.12-3.76,5.5,5.5,0,0,1,1.39-.51,2.58,2.58,0,0,0-.67,1.73,5.22,5.22,0,0,1-.7.58c-2.29,1.49-3.65,3.62-3.71,4.94,0,1,.66,2.23-.1,2.48-2.26-1.12-5.65.49-6.64.69-1-.43-1,.14.14,1.14.76.66,1,1.13,1.4.79a3.15,3.15,0,0,1,2.69-1.41,3.77,3.77,0,0,1,2,.19c1.25.54.93,1.37.95,2.46-.19,1.56,1.32,2.35,3.09,3.37,1,.6.62,1.22-.57,4.19-.62,1.34-1.15,3.15-1.92,4.52a7.54,7.54,0,0,0-.32,5.12c.86,3.55,1.47,5.36-.05,5.68a40.88,40.88,0,0,1-6,.35Zm-61-1.71a13.31,13.31,0,0,0-2.85-1.12v-8a12.36,12.36,0,0,0,2.56-.88h0c2.73,3.38,1.64,8.33.29,10Zm48.56-.09-1.38-.41c-1.38-8.84-5.56-17.07-6.91-25.19-1.41-6.21,5.93-9.67,8.39-4.31a3.22,3.22,0,0,1-1.76,4.07C83.77,180.6,80.88,177,83,175c1.61-1.52,4-.39,3.47,1.55a1.33,1.33,0,0,1-2.56.07c-.09-.43-.3-.85-.45-.62-1,2.33,2.33,3.43,3.71,1.25a2.63,2.63,0,0,0-3-3.56c-3.14.58-3.43,5.12-2.17,9.81,2.19,8.08,5.7,15.32,6.14,21.62Zm-2.39-.77-1.44-.52c-1.56-7-4.16-14.3-5.87-20.5-1.15-4.21-2.44-9,2.11-11.08l1.31,0a6.75,6.75,0,0,0-1.32,1.21c-5.15,4.73,3.21,18.1,5.13,30.27,0,.13.08.59.08.59Zm15.11-.43c2.31.06,4.54-.65,4.36-1.65-.12-.7-.63-.87-2.43-.64-3.95.77-7.75-.85-10.63-2.66a7.08,7.08,0,0,0-1.34-.81c-.13,0-.2.17,0,.37,2.2,2.77,6.37,5.28,10.08,5.39Zm-17.72-.37-1.47-.6c-1.34-7.41-4.64-15.09-6.23-21.76-.93-3.91-.67-6.39,1.49-8.52a3.45,3.45,0,0,1,.68-.47h1.3c-3.29,2.79-2.56,6.91-1.34,11.1C79.8,191,83.5,203.48,83.12,203.52Zm-2.55-1-1.32-.57c-1.36-6.4-1.7-6.54-5-16.79-1-3.08-1.9-5.79-1.72-8.36,0-1.46,1.31-4.36,2.65-4.59H76c-3.14,3.59-1.75,8.5-.38,12.59A141.6,141.6,0,0,1,80.57,202.5Zm-2.38-.86-1.62-.58c-1.63-6.53-3.67-12.88-5.4-18.09a19,19,0,0,1-1.25-6.14,6.19,6.19,0,0,1,2.2-4.58l1.26,0a15.36,15.36,0,0,0-1.72,4.27c-.28,3,.67,5.48,1.74,8.86,2.62,8.27,4,10.92,4.78,16.29Zm-2.62-.92-1.38-.41c-1.81-5.73-3.44-11.59-5.24-16.54a18.45,18.45,0,0,1-1.33-6.56,7.66,7.66,0,0,1,2-4.85h1.22A9,9,0,0,0,69.19,177a21.35,21.35,0,0,0,1.24,6.16C72.43,190,74.47,194.61,75.58,200.72Zm26.72-.67c.34-.07.62-.26.55-.62s-.42-.41-.83-.3c-3.75,1.14-7-1.39-9.94-2.88a.73.73,0,0,0-.44-.16c-.15,0-.22.11,0,.31C95.38,198.58,97.84,200.94,102.3,200.05Zm-29.15,0-1.47-.29c-1.82-5.61-3.68-11.58-5.57-16.73-1.15-3.14-1.61-8.5,1-10.82l1.39,0a8.93,8.93,0,0,0-1.65,5A17.38,17.38,0,0,0,68,183.5c2.18,6.18,3.82,11.5,5.14,16.57Zm-2.61-.48-1.38-.19c-1-5.86-3.76-11.38-5.33-16.33a17.38,17.38,0,0,1-1.08-7.34,6.76,6.76,0,0,1,2-3.58h1a16.35,16.35,0,0,0-1.48,4.7,18.8,18.8,0,0,0,1,6.34c2,5.91,4,11.23,5.26,16.37Zm33.9-.12c.23-.09.1-.71-.33-1.57s-.67-.89-.49-1.44c.4-1.25-.17-1.5-.91-.39-.56.87-.62.85-1.15-.27-.7-1.39-.37-2,.69-1.13.8.69,1,.18,1.32-.37.41-.72.35-1.36-.39-1.3a1.41,1.41,0,0,1-1.15-.53A6.15,6.15,0,0,0,99,190.67c-.39,0-.26.37.65,1,2.19,1.5,2.37,1.77.25,1.73a6.18,6.18,0,0,0-1.86.51c-2.77.93-2.9.85-4.23.54-.44-.1-.89-.29-1.08-.11s-.63.46-.26.86a6.74,6.74,0,0,0,1.41.88c3.21,1.85,3.51,2.29,7.28,2.39.43,0,.65-.21.91-.22a2,2,0,0,1,1.56.72C104,199.39,104.3,199.53,104.45,199.48Zm-42-.07C61,194.27,59,189.07,57.33,184.34c-1.27-3.91-3.22-9.7.38-12.19h0l1,0c-1.76,2.36-2,4.4-1.37,7.34,2.07,8.92,6,14,6.42,19.81Zm6.07-.07-1.61-.09c-1.09-6.06-4.25-10.46-6-17.85-.88-3.21-1.45-6.93,1.63-9.19h.93a13.25,13.25,0,0,0-1.54,4.06c-.17,2.7.87,5.61,1.82,8.78C65.17,189.93,67.63,194.6,68.49,199.34Zm-2.33-.09-1.44,0c-1.59-7.15-4.91-12.26-6.64-20.14-.62-3.28-.09-5.31,2-6.88l1,0s-.15.27-.53.93c-1.82,3.31-.82,6.38.09,9.81C62.29,189.41,65.42,194.5,66.16,199.26Zm32.31-3c.24-.64.45-1.52,1.3-1.81.17-.06.29.07.27.13a5.33,5.33,0,0,1-.56,1.89c-.08.22-.22.25-.42.29C98.44,196.79,98.32,196.77,98.47,196.25Zm-1.38,0c-.43-.2-.81-.8-.53-1a3.74,3.74,0,0,1,1.62-.48c.27,0,.28.09.17.34a8.37,8.37,0,0,1-.74,1.08C97.46,196.39,97.15,196.26,97.09,196.23Zm5.92-6.54c.34,0,.35-.34-.39-.79a1.22,1.22,0,0,1,.71-2.23c.54,0,.9.24,2.26,1.25,1.12.83,2.18.9,2.41-.23.14-.67-.08-1-.79-.79-.32.08-.5-.11-.93-.41-.92-.54-1.82-1.33-2.83-1.1-2.38.66-2.88,3-1.33,4A1.61,1.61,0,0,0,103,189.69Zm-8.64-3.47c.14-.2,0-.5-.54-.57-1.5-.49-2-2.27-.68-3,.74-.39,1.92-.14,3.34.92,2.54,1.89,5.66,2,5.25.1-.1-.46-.3-.53-2.16-.78a6.93,6.93,0,0,1-2.85-1,5.48,5.48,0,0,0-2.73-.77c-3.56.2-3.22,4.58-1,5.32A1.84,1.84,0,0,0,94.37,186.23Zm49.16-12.6c-.76,0-1.1-.58-1.47-1.1-1.38-1.92-2.37-3.83-3.77-6l.19-2a1.12,1.12,0,0,0,.57,0c.4-.2.64-.83.87-1.68s2.55-2.42,3.38-3.32a.61.61,0,0,0,.28-.37c0-.33-.94-.11-1.56.61-.91.81-1.3.53-1.27-.5-.09-1.28-.87-.64-.9.61a2.84,2.84,0,0,1-1.13,2.14c-1.3,1-1.08.78-1,2.23.11,2.53-.86,4.6-1.5,3.23-.23-.49-.49-1-1.06-1.07-.4,0-.6-.41-.82-1.39-.33-1.58-.79-2.6-1.21-4.06l12-6.86c2.1,2.45,3.62,6.53,4.4,9.18.39,1.32.43,2.83.09,3s-.5,0-.43-.81.07-1.17-.21-1.16c-.81.21-.85-1-.76-1.32a2.87,2.87,0,0,1,.2-.44c.2-.48-.32-.42-.87-.42s-.6-.28-.58-.74-.68-.41-1.06,0-.27.77.2,1.06c.68.42,1.32,1.44,2.89,5,.92,2.05.64,3.51-.45,3.49-.76,0-1.64-2.11-2.35-3.64-.18-.4.28-.84.44-1.05.42-.55.35-.73-.27-.74s-.83,0-1.18-.68a1.82,1.82,0,0,1-.18-.95c.3-.8-.32-1-.91-.68-.75.32-.75,1,.4,2.1.74,1.22.55,1.13-.15,2-.15.29-.06.47.25.47.89-.27,1.85,1.34,1.59,1.89-.27.24-1,1.09-.3.93,1.46-.4,2.35,1.75,1.49,2.48-1.28.65-1.59.45-3.57-3.53-.61-1.23-1.35-2.56-1.44-2.7a1.81,1.81,0,0,1-.13-.79c.09-.72-.22-.88-.84-.6-.47.11-.89.5-.3.86.69,1.2.93,1.39.55,1.69-.86.69-.49.66.48.86a1.22,1.22,0,0,1,.84.68c.5,1.13,1.38,2.72,1.47,3,.29.83-.24,1.2-1,1.16Zm-55.24-.55c-1.55-.66-2.93-1.28-4.16-1.88,3.84-7.58,8.34-10.3,16.25-13.67l-.74-3.38c-8.43,3.16-13.8,6.94-18,14.29-5.13-.07-25.93-.22-25.95-.16,8.48-9.7,15.17-24.33,15.9-35.74.18-2.22-.13-1.15.85-1.82L74,128.89l1.21,1.81s.87,1.12,1.42.19c1.55-15.91-.09-34-7.71-46.69a6.52,6.52,0,0,1,4,.64,81.1,81.1,0,0,1,5.5,21.46,103.42,103.42,0,0,1-.15,24.55l.51.07a103,103,0,0,0-.38-29.65,76,76,0,0,0-4.5-15.79c-.43-1-.76-1.21-.35-1.35,9.29-.79,13.56-3.9,16.89-8.88a18.84,18.84,0,0,0,5,2.49A27.59,27.59,0,0,1,78.85,91a3.36,3.36,0,0,0,1.26,2.53,10.93,10.93,0,0,1-.35-2.22c7.75-2,14.57-9.62,16.32-13.56l34.06-.37c-25.25,24.36-26.25,58.64-5.65,87.37l-2.37,1.39c-15.87-23.91-15.71-46.95-11-62.38a62,62,0,0,1,14-24.07s-18.47-.26-27.66.09a39.4,39.4,0,0,1-4.37,5.67s4.67-4.54,4.55-5.32c8.52,0,17.3-.5,25.81.1-10,12-14.86,24.35-15.71,36,0,1.51-.12.67-.62,1.22l-1.57,2.45-1.26-2.55c-.86-.28-2.54.17-3.25-.09-3.5,15.71,0,34.68,4.65,47.05-2.51.8-5.27,0-8.31,1.59a3.64,3.64,0,0,1-.93.74c-3.78,1.38-8.22,6.56-8.22,6.49Zm26.15-.17a1.35,1.35,0,1,1,1.34-1.35A1.34,1.34,0,0,1,114.44,172.92Zm-31.31-1.53H49.52c12.91-14,18.83-25.77,19.76-41.73.89-15.2-3-29.09-14.64-45.79l2.41-1.61c20,30.35,19.06,62.58-3.21,87l28.18,0c3.59-7.12,9.56-11.45,17.21-14.13l.67,2.24c-8.79,2.84-13.23,7.54-16.77,14.05Zm51.3-1.88c-.39-.17-.17-2.22.36-2.22s1.32,1.74.87,2.08a1.14,1.14,0,0,1-1.23.14Zm-16.29-.91a6.25,6.25,0,0,0-1.24-1.38A5.83,5.83,0,0,1,119,168a3.14,3.14,0,0,0-.9.64Zm-1.86-3-4.16-1.6.75-4.5,4.2,1.68Zm-10.2-1.71c-5.6-14.48-6.82-32.31-4.63-46.33l1.46.05c-2.39,23.75,2.31,35.77,6.47,46.22,0,0,0,.42-.15.54A2.84,2.84,0,0,1,106.09,163.86Zm18.95.56c-27.67-38.79-10-72,6.09-87.47l3.3-.18a76.91,76.91,0,0,0-7.2,7.77c6.79,9.39,14.34,19.58,20.69,27.71a16.54,16.54,0,0,0,2.19-1.47c0-.09-.18-.52-.22-.42a11.05,11.05,0,0,1-1.78,1.17L128,85l1.43-1.72c1.56-.52,5.9-5.92,6.12-5.81,3.4,2.62,13.66,13.73,17.62,17.14l0,30.84c-.41,1.23-11.35,6-19.08,23.73-3.89,2.19-8.19,3.37-12.2,5.27a15.13,15.13,0,0,0,1.52,2.05c-.61-1.33-.72-1.58.67-2.15l28.92-11.85-.05,2.39c-2.9,2.26-22.07,16.2-28,19.5Zm16.6-.88a23.16,23.16,0,0,0,3.26-3.16c.25-.49,0-.59-.1-.48a40.34,40.34,0,0,1-3.56,2.68,2.81,2.81,0,0,0-1.05,1.23c.19.26,1,0,1.46-.27Zm-29.14-5-3.74-1.69,1-4.45,3.64,1.77Zm-2.92-7-3.29-2.34,1.55-3.6L111,147.7Zm9.62-2.24A91.45,91.45,0,0,1,132,126.08c-4.07-5.36-15.75-20.84-16.17-20.68h0c-5,15.74-3.52,30.78,3.39,43.87Zm15.73-.69a59.94,59.94,0,0,1,6.92-11.17,78.28,78.28,0,0,1,10.82-10.62l.18,2.89-.71-1.06-1.3,1,.91,1.21,1.14-.89.07,1.17c-7.22,5.24-10.33,11.27-13.26,15.79l-1.3.55-1.48-.47-.73,1.29Zm4-1.81.63-1.27-1.46-.76-.76,1.33Zm1.72-.14c3.35-5.74,7.31-11.07,12.85-15.31l.06,10.29Zm-.77-1.74.76-1.34-1.44-.81-.76,1.33Zm-32.14-.46-3-2.33,1.48-3.3,3,2Zm-44.32-.26c5.23-15.76,3.29-30.52-2.85-44.18-3.65,7.78-7.23,15.8-13,21.86ZM141,143l.82-1.33-1.39-.86-.83,1.29Zm-22.2-.77c-3.19-10-4.63-19.91-1.59-30.64l11.44,14.84A77.78,77.78,0,0,0,118.81,142.21ZM142.3,141l.91-1.29-1.39-.9-.89,1.25Zm1.33-1.85,1-1.21-1.29-1-1,1.2ZM106,137.89l-2.54-2.44,1.88-3.24,2.44,2.61Zm39.18-.64,1-1.14L145,135l-1,1.14ZM62,136.77l-11.34-14.4a104.35,104.35,0,0,0,9.61-14.88A43.24,43.24,0,0,1,62,136.77Zm84.75-1.25,1.07-1.1-1.17-1.13-1.07,1.1Zm1.66-1.73,1.14-1-1.06-1.13-1.14,1Zm-28.71-.56L125,126l-6-7.37C118.63,118.68,118.31,128.45,119.71,133.22Zm30.44-1,1.18-1-1-1.17-1.18,1Zm-44.62-.69-2.24-2.63,1.95-2.63,2,2.51Zm-45.25-1.66a37.39,37.39,0,0,0-.77-15.32l-5.24,7.61ZM74,128.31l-1.84-2.93,2-2.65,1.95,2.8Zm31.25-3.08-1.91-2.43,2-2.51,1.76,2.38Zm-31.18-3-2-2.31,2.07-2.82,2.15,2.53Zm-48.18,0c0-.77,0-.91,0-1.28l.55-.39-.54-.92c0-.47,0-.83,0-2,4.23-3.41,8.58-6.43,13.55-16.08l1.51-.73-.09.27,1.39.66.71-1.38-.48-.19c.76-.44.77-.35,2.26-1.09,0,0-1.12,2.61-1.94,4.15-3.91,6.84-9,13.65-16.89,18.92ZM27.16,120l1.24-.9-.89-1.24-1.24.9Zm2-1.53,1.18-1-1-1.19-1.19,1ZM31,117l1.13-1-1-1.13-1.12,1Zm-5.44-.09-.22-9.5,13.1-5.54a33.39,33.39,0,0,1-12.88,15Zm48.63-.62-2.61-2.4,1.66-3.23,2.57,2.45Zm-41.35-1,1.06-1.11-1.1-1.06-1.06,1.11Zm1.73-1.86,1-1.17-1.16-1-1,1.17Zm1.57-1.89.94-1.21-1.2-.94-.94,1.21Zm37-1.69-2.94-2.44,1.77-3.31,2.87,2.73Zm-35.55-.15.86-1.27-1.26-.86-.86,1.27Zm1.27-1.9.8-1.3-1.3-.81-.8,1.3Zm-13-1.29v-2.29s21.62-8.06,29.4-12.51l1.19,1.8c-10.29,4.1-21.05,9.51-30.59,13Zm14.24-.6.76-1.33-1.32-.77-.76,1.33Zm1.14-2.08.76-1.33-1.32-.77L39.82,103Zm30.51-.5-3.19-2.2,1.47-3.82,3.16,2.32ZM26,99.65V21.38H60.73l8,14.58a3.59,3.59,0,0,0,.51,2.65,3.22,3.22,0,0,1,.42,1.26c.08.72.08.72,1.13,1.67.22.2.26.32.18.53-.35.88-.14,2.69.54,4.84.87,2.72,1.09,2.69-.52,6.32-.34.76-.75,1.78-1.18,2.71-2,4.12-2.3,5.24,1.12,7.43a1.91,1.91,0,0,1,1,2.39c-.19,1-.23,1.59.23,2.13a3.43,3.43,0,0,0,.73.55.39.39,0,0,0-.23.16,3.62,3.62,0,0,0-.21,1.64c.2,1.83-1.91,4.49-3.81,5.46a3.94,3.94,0,0,1-.42.16s-.15-.34-.29-.6c-2-3.49-6.92-2.08-7.25,2.09a4.23,4.23,0,0,0,.06,1.53c-6,3.61-9.77,6.07-14.06,8.54-1.87-3.27-1.21-6.17-.82-9,0-.49-.46-.58-1.09-.59a3.67,3.67,0,0,0-2.94,2.09c-.28.86-.47,1.42-.72,1.42s-.39-.35-1-1.6a17.76,17.76,0,0,0-2.8-4.42c-1-1.2-1.85-1.36-2.83-.46-.68.62-.66.08-1.24-.23-1-.68-2.5-.07-2.54.89,0,.81,0,1.41-.85,1.47s-1.3,1.24-1,2.91c.13.88.16,1-.11,1.35a2.84,2.84,0,0,0-.51,3.26c1.37,4.2,3.36,7,5.24,10.85,0,0-4.62,2.71-7.44,4.29Zm43.54-3.27-3.88-2.19L66.75,90l3.85,2ZM28.91,84.49c-.83-1.81,0-3,1.05-1.55.42.57.2.93,0,2,0,.2.15.12.49.18.54-.06.8.43.78,1.25-.34,1.18.13.54.35.48.43,0,.52.26.76.76.15.69.45.49.89,0s.37-.37-.37-1.25A18.62,18.62,0,0,1,29.39,80a2.22,2.22,0,0,1,0-1.22c.57-1.3,1.37-1.31,2.25.51a10.06,10.06,0,0,0,.65,1.11,2.55,2.55,0,0,1,.53,1.68c-.26.65-.3.66-.08.75A3,3,0,0,1,34.33,85c0,.91.2,1.4.91.86s.47-.87-.34-1.66c-.84-1-.89-1.88-.39-2.61.08-.24,0-.31-.26-.28A1.38,1.38,0,0,1,33,79.16c.31-.55.28-.7-.17-.71a2.13,2.13,0,0,1-.8-.07c-.29-.54-.89-1.31-.89-1.93.28-.87.72-1.23,1.19-1.22h0a2,2,0,0,1,1.49,1.16c.93,1.58,2.06,4.23,2.78,5.69a1.71,1.71,0,0,1,.18.87c.06.86.34,1.18.85.79s1.19-1,.38-1.12c-.81-.62-1.27-1.52-.76-2.07s.23-.67-.07-.68c-1.14,0-2.84-3.43-2-4.16,1.08-1,2.28.24,4.82,5.31,1.12,2.24,1.17,4.69.21,3.48-.33-.31-.26-.15-.64.82a5.27,5.27,0,0,1-1.62,2.13A10.9,10.9,0,0,0,35.74,90c-.06.43.72,0,1.29-.72,1.27-1.25,1.32-1.58,1.31.07,0,1.5-.09,1.77.18,1.76s.64-1.2.84-2.63a3.73,3.73,0,0,1,2-2.65c.3-.2.31-.33.25-.9-.2-1.82.82-5.2,1.29-4.36.07.19.27.63.38.94.09.48.39,1,.84,1.05.57.43.57.66.76,2.22.18,1.07.61,2.05.84,3.11,0,0-7.52,4.71-11.45,7a68.63,68.63,0,0,1-5.35-10.35Zm124.27,9L143,83.38s-.2-13-.19-18.33.09-10.64.07-11.62.05-5.2.09-9.52c.07-9.05-.76-7.93.92-9.67l9.21-8.66ZM66.69,89.7l-4.93-2.29.92-4.81,4.71,2.24ZM35.12,88.6C36.34,87,38,86.3,39,84.83c.16-.27,0-.38-.25-.38a3.07,3.07,0,0,0-1.48.91c-1.35,1.23-3.13,3.25-3.13,3.64.34.19.73-.09,1-.4ZM73,83.85c-1.41,0-.91-.36.37-1.19,2.76-1.78,6.62-6.9,7.25-8.71.15-.43,0-.67-.29-.64C78.05,77,75.06,81,71.57,82.65c-1.88.91-4.24,1.08-5.41.51-.85-.42-.64-.56.87-.66,3.64-.36,7.91-3.8,10-7.44,1.24-2,.37-1.55-1,.39-2.41,3.32-7.2,6.5-10.17,6.24s-4.73-2.52-4.35-4.52a3.46,3.46,0,0,1,2.77-2.81c2.88-.61,4.76,4,2.13,4.84A2.45,2.45,0,0,1,65,79.13c2.76-.57,1.44-3.62,0-3.68a2.1,2.1,0,0,0-2.29,2.16c0,1.2,1,2.38,3,2.41,2.34,0,5.94-1.66,8.12-4.79,1.55-2.39.12-1.58-1,0a13.59,13.59,0,0,1-4.44,3.3,3.87,3.87,0,0,0,.11-1.62c.05.28,5.05-3.43,4.76-6-.12-1.21-.12-1.83.48-2.14,3.86,1.07,4.82-.1,5.09,0s0,.4.43,1,1,1.12.62-.23-.23-2.33-.56-2.44c-.11,0-.35.4-.61.49-2.45.63-6,.76-6-2.09a3,3,0,0,0,0-1.53c-.28-.64-1.4-1.29-2.66-2.23-1.49-1.1-1.21-1.17,2-8.53,1.33-3.09,1.34-3.72.54-6-1.26-3.6-1.46-5,.9-5.55a35.53,35.53,0,0,1,4.12-.23,44.46,44.46,0,0,1,12.6,1.91c2.53,12.88,7,21.54,7,26.58-1.83-1.63-4.69-2.12-6.62.5-1.22,1.6,0,3.83-.62,4.77-1.18,1.74-4.23,5-4.74,4.86s-.31-.24,1-2.25,2.4-4,2-4.46c-.19-.2-.29.22-1.31,2-2.38,4.16-4.47,6.73-5.3,6.4-.39-.16-.19-.5,1.57-2.84,2-2.65,2.54-4.3,2.35-5-.15-.56-.46.35-1.29,2a55.09,55.09,0,0,1-3.76,5.48,3.37,3.37,0,0,1-1.6,1.35,4.39,4.39,0,0,1-1.75.51c-.24,0-.07-.17.25-.49a30.37,30.37,0,0,0,6-8.38c.19-.37-.08-.89-.4-.51-1.9,3.36-4.55,7.56-7.42,9.41a5.31,5.31,0,0,1-2.38.66Zm69.31-1.49-6.21-6-13.31.17c2.19-3.58,2.24-6.43.82-9.78-2.39-5.49-6.09-18-5.8-18a.6.6,0,0,1,.41-.34,2,2,0,0,0,1.49-2.61c-.06-.41-.06-.32.22-.86a4,4,0,0,0-.21-3.88l11.67-19.7h21.56v3.36L142.3,35.56v8.11c-4.06-1.55-7.38-7.25-8.5-11.59-10.21,7.58-10.69,24.38.46,32.92.09-3.71,3.06-11,8-11.54Zm-80-.61c-.86-.14-3.15-.8-2.08-1.31l1-.46A3.51,3.51,0,0,1,62.34,81.74ZM43.52,80.47c0-.26,0-.52-.11-.57-.42-.27.28-1.05.93-1s.61,1.83.24,2.36c-.59.82-1-.28-1.06-.75Zm21.1-1.77a1.29,1.29,0,1,1,1.29-1.29A1.29,1.29,0,0,1,64.62,78.7Zm26.29-4.51a3.3,3.3,0,0,1,1.83-4.56c3.46-1.24,6,3.2,2.6,4.57-1.76.71-3.43-.57-2.64-2.05a1.37,1.37,0,0,1,2.49.15c.3,1.14.8.6.59-.17a2.05,2.05,0,0,0-4.05.39c0,2.82,3.07,3.48,4.9,1.9,1.42-1.27,1.57-3.55,1.21-5.53-.49-4.12-2.81-9.46-4.45-15.56A83.94,83.94,0,0,1,91,43.5l1.23.35S96,57,98.21,63.46c1.67,5.24,3.12,11.68-3,13.07a4.24,4.24,0,0,1-4.33-2.34ZM99,76.66v0H97.3s0-.1.73-.66c4.08-3.07,1.65-9.84.1-15-2.69-8.31-5.09-16.8-5.05-16.79l1.69.66c.93,5.4,5.29,15.71,6.83,23.41.43,4.63.5,6-2.62,8.45Zm8,0-1.16,0c4.41-8.3-2.28-16.89-4.92-29.6l1.57.48C104.66,56.94,112.88,72.38,107,76.66Zm1.84,0h-.49c2-3.09,1.65-7,.57-11.21-1.46-5.67-4.3-11.91-5.25-17.51a8.61,8.61,0,0,0,1.7.55c1.66,7.13,4.69,14.14,6.07,20.78C111.93,72.87,111.13,75.59,108.86,76.63Zm-4.18,0h-1.33a8.89,8.89,0,0,0,1.5-6C104.33,62.16,100,54,98.49,46.17l1.46.54C101.64,56,110,69.92,104.68,76.63Zm-2.87,0h-1.45c1.55-1.55,2.59-2,2.15-7.4-.69-6.93-5.23-15.59-6.83-24.16l1.59.61s.42,1.25.57,2c1.54,6.89,5.75,14.64,6.24,22.7C104.18,73,103.73,75.42,101.81,76.61Zm14.73-.17h-1c2-2.34,1.85-5.52,1-9C115.22,61.82,111.88,55,111,49.32l1.39.13c1.39,6.08,4.09,12,5.84,18.07a14.76,14.76,0,0,1,.5,4.29c-.24,2.59-1.31,4.63-2.24,4.63Zm-3.44,0c1.88-2.52,2.14-5.15,1.29-8.54-1.76-7-4.42-13.05-5.74-18.83l1.34.25c1.57,5.61,4.25,12.56,5.86,18.35,1,3.56.59,7.95-1.62,8.75Zm7.28,0c1.34-1.26,1.8-3.38,1.59-5.58-.6-6.22-5-14.84-6.56-21.46l1.55-.32a170,170,0,0,0,5.79,17.74c1.56,3.13,1.09,7.76-1.25,9.59Zm-2.2,0c-.16,0,1.57-2.7,1.42-5a13.19,13.19,0,0,0-.44-3.86c-2.18-6.27-4.33-11.95-6-17.92l1.4-.07c1.92,7.43,5.63,14.09,6.53,21.14a6.67,6.67,0,0,1-1.8,5.69Zm-6.28,0h-1.4a7.82,7.82,0,0,0,1.72-7c-.52-3-2-7.7-3.32-11.85-1.47-4.82-2.65-8.89-2.52-8.92l1.59.24c3,13.8,9.54,22.37,3.93,27.49ZM81.54,67.43a3.07,3.07,0,0,0,2.94-1.81c.39-1.3.07-3.67-2.52-3.67-.88,0-1.44.66-.34.86,4,.71,1.3,4.84-1.49,2.71-2.51-2.28-5.88-2.27-5.92-.65,0,.41,0,.42.61.54a21.61,21.61,0,0,1,4.29,1.31,9.33,9.33,0,0,0,1.1.5,3.58,3.58,0,0,0,1.31.21Zm52.07-3.74c-10.06-9.18-8.2-22.34-.47-30l.56,1.64c-4.27,2.46-9.5,16.19.1,26.26ZM75.1,63.1c1.84,0,3.32-1.75,2.17-3.55a2,2,0,0,0-1.32-.83.22.22,0,0,0-.11,0c-.1.06.13.47.46.92,1.53,2.08-.59,2.69-2.09,1.58s-3.62-1-3.3.16c.11.41,0,.61.8.62a2.08,2.08,0,0,1,1.53.49A3.18,3.18,0,0,0,75.1,63.1ZM134,60.91c-7.58-7.7-5.89-18.85-.16-25.26,1.47,3,3.14,5.74,5.41,7.39a11.92,11.92,0,0,0,.32,10.56c-1.46.8-3.48,2.94-5.57,7.3Zm-52.78-3c.84,0,.49-.53-.49-.9a4.57,4.57,0,0,1-2.14-1.68c0-.22.3-.09,2-.57a17.55,17.55,0,0,0,2.25-.88,2.92,2.92,0,0,1,1.91-.3c2,.06,2.25,0,.88-1-2.77-2.07-6.46-3.41-8.42-2.55-.59.26-.58.1-1-.15a2.91,2.91,0,0,0-1.32-.47c-.58,0-.59.54.34,1.35.56.5.52.33.49.65-.14,1.35.07,2.58.62,1.19.15-.37.36-.79.58-.74.41.13.2.88.4,1.26.33.67,0,.83-.83.63-.58-.15-.62.17-1,.57-.63.7-.53,1.13.44.91a.88.88,0,0,1,.42,0,3.87,3.87,0,0,1,1.3.82,9.51,9.51,0,0,0,3.09,1.81,3.06,3.06,0,0,0,.44,0Zm-1.82-4.11c-.15,0-.31,0-.36-.07-.18-.26.43-1.52.78-1.7.2-.1.39.06.52.14s0,.25,0,.41c-.23.41-.62,1.19-.62,1.19l-.28,0Zm1-.16L81,52.53c.12-.23.18-.31.27-.31a.76.76,0,0,1,.24.07c.5.2,1.37.61,1,.93a3.64,3.64,0,0,1-2.09.39Zm59.75-.72c-2.72-4.75-.48-9.47-.3-9.24l2.45.92v7.65ZM87,52.35c.18,0,.27-.14.18-.39A8.63,8.63,0,0,0,85,50.38C83,49.12,81.07,48,78.87,48a7.27,7.27,0,0,0-2.31.36c-.83.32-.73,1,0,.84l1-.18c1.89-.33,4.22.35,7,2.07.68.42,1.42.81,1.61,1a1.17,1.17,0,0,0,.71.28Zm1.53-2.41c.45-.05-.1-.88-1.45-1.7-3.48-2.12-7-3.68-10.45-3.53-2.55.11-3,.3-3,.86,0,1.05.41,1.52,2.79,1.26a15.67,15.67,0,0,1,7.08,1c2.34,1,2.89,1.25,3.73,1.68a2.91,2.91,0,0,0,1.28.45Zm-3.32-8.48a67.53,67.53,0,0,0-14-.43c-.85.05-.9-2-.9-2-.6-6.29-5-11.5-8.1-18.34,22.54.62,45.22,0,67.93.13,0,0-8.25,14.45-10.75,19-.55,1-.6,1.71-.31,2.12a2.1,2.1,0,0,1-.09,2.36c-.56.25-.33.71-.09,1.23.4,1.39-.64,2.34-1.73,2.79-11.27,1.92-21.51-4.91-32-6.83Z" style="fill: #131f67"/>
  <path d="M49.42,228.24s9-17.51,12.14-22.11c17-1.83,13.37,6.83,48.42,6.75L117.61,228ZM33.75,210.8l-.24-48.44,2.29,2.14.54,48-10.22,9.84-.06-2.88Zm6.18-5.45c2.43-4.93-.28-10.94-.28-10.94,1.41.35,5.35-7.16,5.69-6.94,6,7.42,7.06,18.49-.29,25.34a19.47,19.47,0,0,0-5.12-7.46Zm4.49-33.8c4.57-4.7,8.2-8.36,11.83-13.62.3-.43-19.3-25.46-19-25.9,3-3.36,7.08-5.83,10.23-9.89,0,0,16.07,21.16,16.44,21,1.63-6.62,2.82-12.61,2.51-19.53-1-17.71-8.52-28.54-8.57-28.33-6.39,25.49-33.63,41.94-32.47,39.15l0-11.37c.3.57,12.88-7.29,19.94-24.1.41-1,12.35-4.89,12.27-5-.51-1.32-5.79-8.82-5.79-8.82a23.09,23.09,0,0,1,2.37-1,68.7,68.7,0,0,1,13.76,30.55c2.13,11.55,3.51,33.28-19.53,57Zm69.07-29.89a64.11,64.11,0,0,1-1.85-31c2.53-14.74,11.79-25.29,19.22-33.34l3.26.11a47.07,47.07,0,0,0-11.19,13.93l19.23,25.27,11-2.38s-.33,11.31,0,11.31c-8.52,7.09-14.64,13.51-19,23.84-2.69,1-11.62,4.87-11.62,4.87-2.66-3.55,12.32-29.2,9.42-28.1-1.32-1.1-16-21-16.24-20.91C108.91,126,115.5,147.8,127.37,163a8.34,8.34,0,0,1-2.46,1.36c-5.08-7.09-9.54-15.56-11.42-22.74ZM78.37,131.24c.76,1.18,4.18-25.35-4.81-46.6.86-.65,8.27-2.08,8.27-2.08l2,6.36-5.06,2.15.93,3c3.93-1.92,12.43-4.74,17.67-13.49,0,0,25.42-.22,26-.17s-5.19,5.55-10.6,16.7a50.67,50.67,0,0,0-4.85,19.41c-.08,1.53-5.82-7.18-5.82-7.18,1.43-7.36,5.25-14.6,9.06-21.84,0,0-5.85-.33-9.93-.21-6.35,7-10.33,10.66-19.91,14,2.19,11-4,12.13,20.11,15.63-2.73,14.24-1.52,31.3,4.3,47.53A30.65,30.65,0,0,0,97,165.94L95,160l5.45-2.52-.88-3.34s-12,3.65-17.89,14.17l-26.28,0c10.13-11.06,14.27-22,16.47-36.45,2.15.39,6.55-.67,6.55-.67ZM143,35.78c3.3-2.78,9.93-10,9.93-10l.09,3.71-7.53,7.87.08,48.59L143,83.47Zm-3.48,17.79c-1.36.65-4.06,3.84-5.34,7.43-8.72-7.83-5.13-22.23-.36-25.23,1.38,3.14,5.4,7.31,5.3,7.22C138.19,46.28,137.49,49.62,139.51,53.56ZM62.32,20.94l67.24.12c-3.84,7.59-7.35,13.73-11.43,21.21C116,44.84,70.09,34,69.87,35Z" style="fill: #e2cf00"/>
  <path d="M26,218.57l-.45-63.8,7.64,7.47.45,49ZM61,206.21c-1.58-.77-.05-2.77-1-4.38,1-3.25,9.35-1.69,14.46-.55,12.74,3.32,15.62,7.61,33.18,6,.14.25,1.93,4.88,1.81,5.37C94.4,215.65,75.12,204.49,61,206.21Zm27.24-33a9.7,9.7,0,0,0-4.56-1.63c2.59-4.59,5.73-8.76,11-11.38l2.44,6.07a25.49,25.49,0,0,0-8.85,6.94ZM56.44,157.4a28.06,28.06,0,0,1-4.4,5.53c-6.35-8.56-20.54-26.78-20.54-26.78l-6,3.07a36.81,36.81,0,0,1,.11-3.77C41.86,127,53,111.08,57.94,96.16c0,0,2.62,2.69,2.27,3.82a75.2,75.2,0,0,1-23,32.42ZM76.73,140l20.54,0,.91,7.18c-7.86,2.65-14.35,8.06-20.42,14.33L68,161.4c3.19-7,7.63-14.18,8.72-21.36Zm76-30.25c.66,2,0,4.21.25,4.12C128.42,126.14,121.39,153,121.39,153s-2.34-3.72-2.23-4.29c12.73-28.46,21.25-29.31,22.89-32.4L122.68,91.1l4.38-6,20.77,27.18C149.9,111.33,151.08,110.53,152.77,109.79Zm-12.13,36.82c4.17-7.54,8.48-11.93,12.76-14.95l-.21,10ZM25.63,117l.11-9.66,12.67-5.48C34.9,109.53,30.15,113.65,25.63,117Zm56.45-8.69-.75-6.79a56.52,56.52,0,0,0,20-14.06c5.89-.28,9.92.12,9.89,0a81,81,0,0,0-9,20.94Zm63.73-71.37,7-7.11L153,93.45l-7-6.85ZM84.28,88.64l-2.22-6.3c3.49-1.32,6.14-4.19,8.6-7a7.2,7.2,0,0,0,4.79,2.32C91.09,84.51,87.41,86.78,84.28,88.64ZM71.15,41s-.87-.51-.78-1.23c.29-.93-.93-3-.93-3C84.35,32.17,106.06,45,119,42.28a10.42,10.42,0,0,1-.32,2.84c.41,1.81.69,1.87-1.07,3-9.05,2.58-18.6-2.92-27.44-5.54C82.9,40.26,77,40.85,71.15,41Z" style="fill: #d40000"/>
  <path d="M61.55,20l2.72,5.16-.47.32c.74,1.24,1.37,2.64,2.13,3.87l.55-.06c.89,1.72,1.26,2.36,2.43,4.4h-.53c.27.91,1,1.51,1,2.16,0,.81-.2,1.63.29,2.18s.66.83.54,1.21a1.6,1.6,0,0,0,1.52,2,47.33,47.33,0,0,1,19.8,1.89c6.69,2,12.53,5,19.05,5.54,6.11.45,9.53-.8,8.5-3.36-.58-.58-.18-.8.07-1.15,1-1,.44-1.78-.17-2.92,0,0,7.84-14.09,11.76-21.11Zm1.08,1.26h66.81l-5.72,9.94a3.06,3.06,0,0,0-3.82,2.39c-4-1-3.36,4.16-1.37,4.51.13.75-3.27,1.68-5.06-.08,2.75.37,3.72-3.29.36-4.1,4.43-3.31-3.88-8.26-4-1.42-3.91-.69-3.4,4.5-.92,4.9-1.27,1.41-5,1.44-6.94-1.52,3.31,1.73,5.11-2.74,1.66-4,4.25-3.75-4.07-7.2-3.87-1.15-3.13-1.87-5.29,2.89-1.11,3.63-.24.86-5.72.86-7.11-1.35,3.89.89,4.07-3.87.64-4.25,3.44-4.39-5.29-6.61-3.83-.62C85,26.86,83.73,31.1,87,32.46c.18.67-5.33,1.25-7.25-1.18,4.23-.64,2.75-4.76,0-4.43,0,0,0-.12.19-.52,1.29-4.14-5.66-4.49-4.7-.1.15.4.33.94.33.94-1.92-.39-3.09.39-3,2.2.48,2.4,1.74,2.22,3.35,1.75.68.71-3.89,3.09-6.77,1,3.52-1,1.73-5.16-1.21-4.6-.12-1.32-1.55-3.18-3.41-2.27Zm90.78,3.07L142.64,35.5l0,47.86,11,11s-.1-47.21-.24-70Zm-.68,1.74v2.75l-7.62,7.9V85.42l-1.87-1.94V36.15Zm-75.25,1a1.32,1.32,0,0,1,1.12.59,1.3,1.3,0,0,1-.24,1.42c-1.56,1.94,3.33,5.32,6.86,4.73,2.68-.45,5-2.06,4-3.3-.8-1-.28-2,.69-2s1.79.8.93,1.89c-1.91,2.42,1,5.25,5.46,5.31,3.15,0,4.2-.74,4-3-.08-1.06.13-1.35.86-1.51,1.17-.26,1.76,1.09.79,2.12-2.09,2.22.29,5.48,4.25,5.69,1.45.08,1.74,0,3.35-.92,1.26-.72,1.71-1.8,1.09-2.64a1.22,1.22,0,0,1,1.52-1.84c.89.38,1.32,1.06.34,2.22-1.29,1.52-.65,2.69,1.8,3.63a4.48,4.48,0,0,0,3.53.16,5.91,5.91,0,0,0,1.55-1c-.61,1.06-1.15,2-1.15,2a6.07,6.07,0,0,1-7.1-1.71c-4.17,2.42-7.87,1.91-11-2.16a10.56,10.56,0,0,1-10.83-3.12c-4.24,2.14-8.18,1.24-11.68-1.15-2.59,2.46-5.31,2.84-8.14,1.66l-.84-1.7c.21-.08,1.12,1.7,5.56.87,1.49-.28,4.05-2.79,2.62-4-.66-.93-.68-1.35-.1-1.92a1.07,1.07,0,0,1,.76-.3Zm-10.59,2.2c.35,0,.7.33.85.62.25.48.28,1.28,0,.8-.14-.25-.9-1.39-.86-1.42Zm85.85,1V93.09l-6.44-6.47V36.8Zm-75.12,3,2,1.29-3.66,0ZM89.1,34.44l1.71,1.68-3.6-.76ZM134,35c-6.73,6-7.81,18.25.15,26.37,1.3-2.94,3-6.68,5.86-7.87-2.1-4.19-1.83-8.39-.34-10.69A21.33,21.33,0,0,1,134,35Zm-12.82.28-.77,1.58C120,36.39,119.89,35.33,121.23,35.31Zm12.76.87.46,1.15c-6,7.37-4.14,17.06.2,22.22l-.62,1.3c-5.3-5.63-7.63-17.52,0-24.67Zm-54.28.2c3.83,0,7.29.68,18.46,4,6.94,2,12.51,5.24,20.53,2.4l0,1.57c-5.11,3.3-15.29-.19-22.16-2.74a57.33,57.33,0,0,0-25.8-3.39c-.54-.11-1-1.53-.1-1.54,4.31,0,6.74-.28,9-.27Zm20,1.2L102,40a37.06,37.06,0,0,1-4.93-1.89Zm34.8.6.45.62c.19.27-1.26.41-1,.09Zm-57.7,1a49,49,0,0,1,18.52,3.44c8.29,3.13,17.41,6.25,23.4,3.45,0,0,0,1.19-.65,1.53a6.14,6.14,0,0,1-2.75.81c-9.69.8-16-3.29-23.8-5.62a45.87,45.87,0,0,0-20-1.92c-1-.08-1-.66-1-1.22A52.24,52.24,0,0,1,76.84,39.18Zm58.92.46.85,1.09-1,1.61a8.11,8.11,0,0,1-1.34-1.63C134,39.93,134.88,39.71,135.77,39.64ZM111,39.93l2.62,2a14.75,14.75,0,0,1-6.39-.71Zm22.23,1c.21,0,.42.21.68.65.49.84.42,1-.52,1.31-1.25.4-1.34.31-.94-.81C132.74,41.32,133,40.95,133.25,40.94Zm4,.51L139,43a13,13,0,0,0,.35,10.49c-.22,0-1.49,1.28-1.89,1.5C136.34,54.47,133.87,45.21,137.24,41.46Zm-2.62,1.93.6,0-.45,2.83c0,.23-2-1.34-1.78-2.13S134,43.36,134.62,43.38Zm6.28.46-1.5,4.43,1.5,4.43h.79l-1.5-4.43,1.5-4.43Zm-8.86.57c.23,0,.6.57,1,1.31.35.58.28.8-.5,1.5-1.14,1.16-1.37.78-1.11-1.19C131.6,45.05,131.77,44.41,132,44.41ZM134.4,47a.63.63,0,0,1,.39.12l.13,2.76c0,.25-2.14-.1-2.43-1.15C132.13,48,133.56,47,134.4,47Zm-2.84,2.33a4,4,0,0,1,1.09.57c.79.47.81.68.13,1.56-.8,1-1.2.87-1.32-.93C131.4,49.86,131.35,49.34,131.55,49.32Zm3.15,1a.33.33,0,0,1,.2.07,6.38,6.38,0,0,1,.72,3.39c-.35.41-2.19-.14-2.6-.79s.64-2.13,1.35-2.55A.5.5,0,0,1,134.7,50.36Zm-2.24,3.27a3.77,3.77,0,0,1,2.18,1.16c.34.4-.11,1.18-.59,1.76-.32.39-.62.1-1.24-1.19C132.32,54.32,132.11,53.66,132.46,53.63Zm3.83,1.26c.57.07.47,1.38-.22,2.15-.85,1-1.66.23-1-.94C135.27,55.42,135.83,54.84,136.29,54.9ZM90.52,74.7c-1.51,2.18-4.05,5.06-6,5.92a2.92,2.92,0,0,0-1.76,1,1.26,1.26,0,0,1-1.39.48,6.62,6.62,0,0,0-2.82.71,4.54,4.54,0,0,1-2.1.46,7.69,7.69,0,0,0-2.63.6c-.92.27-.59.53-.06,1.73A89.49,89.49,0,0,1,79,107.15a101.39,101.39,0,0,1-.5,23.66c-2.57,0-4.18-.11-6.89-.07-1.85,15.09-6.86,27.08-16.87,37.86l27.07.07c3.1-8.32,17.25-14.66,17.72-14.19l.75,3S90.13,159,83.28,172c.7-.43,3.25-.13,4.94,1.63a28,28,0,0,1,8.93-7l.18-.52a16.7,16.7,0,0,1,1.9-.52,10,10,0,0,0,1.26-.3,3.33,3.33,0,0,1,1.83-.36,10.83,10.83,0,0,0,3.83-.39c-5.75-15.93-7.1-30.32-4.86-47,2.12,0,6.76.1,6.76.1a66.08,66.08,0,0,1,2.49-13.83,53.58,53.58,0,0,1,7.64-15.82c2-3,3.78-5.2,5.87-8l-26.49.06C94,85.84,87.28,90.79,81.85,92.85c-1.85.7-2.11.59-2.42-.28-.55-1.56-.52-1.49.92-1.91,7.09-2.52,11.48-7,15.14-12.71.39-.6.47-.85.3-1-2.37.38-3.84-1.16-5.28-2.29Zm.19.87a7,7,0,0,0,4.46,2.28A29.73,29.73,0,0,1,84.39,88.44l-2.12-6C87.47,80,88.86,77.57,90.71,75.58Zm44.49.93-4.13.06c-2.9,3-23.91,22.44-20.38,51.85,1.51,12.58,5,23.45,14.34,36.31l2.49-1.47.38.26,25.87-15V144l-30,12.67a13.82,13.82,0,0,1-1.45-2.13l12-5.14c3.62-10,11.77-18.26,19.37-24.06,0-9.91-.08-30.66-.08-30.66L135.54,76.55a80,80,0,0,0-6.44,6.71l20.77,27.5-.69.45c-1.34-2-6.3-8.61-11.09-14.93-4.95-6.52-9.62-12.62-9.62-12.62l-.42.32s4.67,6.09,9.62,12.61c4.79,6.31,9.77,13,11.07,14.9L148,112,127.49,84.61a105.84,105.84,0,0,1,7.71-8.09Zm-3.72.86,2.41.11c-28,26.05-26.37,58.9-6.75,85.57l-2.06,1.24C106.66,139.47,103.32,102.73,131.48,77.37ZM97.77,80.63l17.38.08-3.82,6.06L101,86.91a43.32,43.32,0,0,1-19.53,13.92L81,98.3l3.12.85.66-3.1-3.11-1L81,98.29l-.8-4A31.64,31.64,0,0,0,97.77,80.63Zm25.33,0-4.68,6.1-6.28,0,4.08-6.06Zm-13,.5-2.42,2.53,1.89,2.55,2.51-2.47Zm-5.41.06-2.39,2.66,2.48,2.54L107,83.83Zm-6.52.4-.41,4,3.11,1,.45-3.4Zm18.93.15-2.26,3.55,3.4.05,2.38-3.54Zm-35.56.91,2.2,6.15-1.93.94-2-6.42Zm-27.15.55-2.79,1.71,5.52,8.37-11.7,5.21c-4.66,9.88-10.18,19-20.29,24.22l-.06,12.79-.18.27.13,4,4.87-2.61c1.23,1.86,6.37,8.62,11.29,15s9.43,12.22,9.56,12.39l-.39.48L29.57,137.7s-3.28,1.62-4.25,2.16l.13,13.89-.56,0L25,224.08l11.48-11.51-.15-47.74c2.43,2.3,4.52,4.76,7.31,7l4.77,0c12.46-12.74,19.28-23.65,20.78-43.18,1-13.06-3.31-29.49-14.76-45.41Zm24.54.44L81.2,90l-1.9.63L77.21,84Zm-2.48.47c2.61,8,4.92,16.51,5.2,24.63h0c.25,8.84.38,14.17-1.09,21.94-.08.41-1.66,0-1.66,0,.2.07.89-8.78.83-14.34a87.25,87.25,0,0,0-6-31.54,9.59,9.59,0,0,1,2.73-.73Zm-22.31.12c9,12.07,15.51,28.44,14.43,44.6-1,18.79-8.12,29.61-20.56,42.62l-3.21.07c14.72-14.2,21.24-26.35,21.75-42.38.59-18.44-5-30.7-14.44-43.77Zm-2.53,1.11L25.2,100.83l0,4.4L56.05,91.94Zm75.73.43,20,26.34-4.94,3.69-19-24.75Zm-29.9.65-3.36.17L94.19,90l3.5-.09Zm14.25,1.15,6,.09-2.31,3.86-5.78,0Zm-1.1.1c-2.75,5.14-6.54,11-8.67,20.47l-19.68,0a50.19,50.19,0,0,0-.64-6.49c8.48-3.12,15-7.79,19.88-14Zm3.64.27-2.57,1.49,1.57,1.81,2.83-1.09ZM90.8,89.85l-.85,3.35,3.19,1.23.59-4Zm32,1.87,18.9,24.64-1.77,1.41L121.46,93.68Zm-13.66.63,5.73,0-2.42,4.85-5.68-.08Zm2.18.39-2.59,2.17,1.95,2.26,2.38-1.91C113.12,95.21,111.32,92.74,111.32,92.74Zm-25.08.18-.79,3.26,3.32.89.59-3.5ZM55.86,94.77c.16,0-.52,3.82-1.53,4.52-.48.33-.73.26-1.15-.19s-1.58-2.44-1.58-2.44l1.11-.56c1.35,2.17,1.35,1.12,1.86-.73Zm2.49,1.91,1.76,3q-10.61,27.16-34.18,39l0-3c18.51-10.59,26.1-23.11,32.45-39ZM50.68,97c.44,0,1,.55,1.58,1.61.87,1.54.84,1.64-.59,2.08-2.58.69-3.54.85-2.74-.86S50.12,97,50.68,97Zm68.68.8c3.3.09,6.76,3.7,6.41,6.68-.25,2.1.15,3.66.72,2.8,1.26-1.9,5-.64,4.92,1.64,0,1.21-.82,1.41-1.29.32-.68-1.62-2.6-1.66-2.89,0s1.07,2.76,4.66,4.06c4.2,1,6.89,4.89,5.23,6.95-.92,1.14-1.1.38-1.15-.58-.17-3.19-4.64-3.68-3.07-.86.51.91.19,1.27-.73.8-1.45-.73-1.93-2.47-.52-3.28,1.67-.67,1.11-.82-1-1.55-4.55-1.56-6.51-4.44-6.75-9.91.09-2.49-.25-3.38-1.42-3.72s-2.28,1.05-1.51,1.77c.42.39.76.75.54,1-.71.69-2.48-.43-2.46-1.63,0-.79.31-.95,1.48-1.87.32-.26,0-.74-.43-.75C118.27,100.25,118.4,97.86,119.36,97.79ZM49,97.8c-4.53,10.86-10.72,20.33-23.1,28.33l0-2.88C39.76,114.82,45.77,99,45.77,99Zm57.42.19,5.57.1-1.49,4.28-5.92,0Zm2.61.42L106.26,100l1.45,2,3.08-1.45ZM54.9,100a.58.58,0,1,1-.58.58A.58.58,0,0,1,54.9,100Zm5.7.25a61.59,61.59,0,0,1,3.18,42.36L47.93,121.86A68.7,68.7,0,0,0,60.61,100.25Zm-7.85.86c1.39,0,.71,3.74-1.1,5-.66.51-1.11.45-1.33-.58A8.11,8.11,0,0,0,49,103c-.82-1.05-.81-1.08.39-1.15S51.73,101.23,52.76,101.11Zm-13.6.09-14.15,6-.08,10.67A40.86,40.86,0,0,0,39.16,101.2ZM38,102.38a37,37,0,0,1-12.14,14.18l0-9.06Zm79.11.06,16.26,21.44-1.61,1.63L116.13,105Zm-65.73.28c-1,0-1.34.47-.72,1.13s.92.44,1.27-.37C52.14,103,52,102.72,51.38,102.72Zm-3.64.44c.52,0,1.71,1.83,2,3.15.25,1,0,1.18-1.85,1.45-.76.21-2.81,0-2.65-.54A23.52,23.52,0,0,1,47.75,103.16Zm56.6.21,5.7.06-1.31,4.7-6-.09Zm2.52.29-2.65,1.85,2.1,2.08,2.81-1.75Zm8.94,2,15.8,20.63c-4.72,6-9.42,13-12.51,22.12C113.47,135.19,111.41,122.3,115.81,105.68Zm-64.19,1.75A.58.58,0,1,1,51,108,.58.58,0,0,1,51.62,107.43Zm-6.5.7a4.78,4.78,0,0,1,1.23.18,15,15,0,0,0,3.45-.1c1,.07.06,3.23-1.43,4.38-1.17.91-1.67.49-1.94-1.17A8.14,8.14,0,0,0,45.15,109c-.39-.56-.43-.83,0-.86Zm57.5.86,6,0-.92,7.14Zm-58.43.22a.45.45,0,0,1,.19.11c.94.88,2.13,4,1.52,4.2a9.39,9.39,0,0,1-4.28-.49c-.37-.32.83-1.71,1.5-2.69C43.43,110,43.76,109.1,44.19,109.21Zm3.52.22c-.91,0-1,.16-.54,1.14.35.8.6.88,1.2.35C49.21,110.18,48.86,109.39,47.71,109.43Zm105.1.48h0l0,3.66c-23,11.46-31.58,38.52-31.7,38.52L119.46,149c10.54-26.13,24.75-33.83,33.34-39.06ZM40.89,113.78c1.08.09,2.32.44,3.47.43,1.37,0,1.77-.12,1.76.39a5.2,5.2,0,0,1-2.82,4.05c-1,.49-1.07.51-1.19-.74A20.88,20.88,0,0,0,40.89,113.78Zm6.53.11a.58.58,0,1,1-.58.58A.58.58,0,0,1,47.42,113.89Zm-7.32.8c1.2,1,1.36,2.92,1.32,4.34-2.16.59-4,0-4.62-.62a39.19,39.19,0,0,1,3.3-3.72Zm2.72.41c-.54,0-.25.36.15,1.31.28.66.65.76,1.08.3.57-.62.65-1.11.29-1.37a3.64,3.64,0,0,0-1.52-.25Zm109.92.4v1.34c-1.69.75-1.52,1.44,0,1.83l0,1.18c-.89-.27-1.45-.65-2.47-1-.63-.21-1-.36-.44-1a10.68,10.68,0,0,1,2.85-2.33Zm-66.37,2h6.35v4.21h5l-.39,4.8H92.71v4.21H86.37v-4.21H81.83l.37-4.8h4.17Zm14.34,0c-3.21,16-.27,33,4.69,46.87l-2.5.28C99,153.55,96,137.78,99.08,117.49,99.08,117.49,100.2,117.47,100.7,117.48Zm47.12.31a.58.58,0,1,1-.58.58A.58.58,0,0,1,147.82,117.79ZM36.15,119.13a13.23,13.23,0,0,1,1.43.44,8.77,8.77,0,0,0,2.33.36c1.58,0,1.79,0,1.11,1.32a7,7,0,0,1-2.36,2.56c-1.09.59-1.51.51-1.44-.57a8.24,8.24,0,0,0-.72-2.91C36.17,119.62,35.8,119.14,36.15,119.13Zm113.48.44a5.16,5.16,0,0,1,1.91.61c1.86.91,1.81,1.12-.71,2.91-1.83,1.39-2.26,1.55-2.32-.65C148.45,120.59,148.65,119.59,149.63,119.57Zm-106.81.08a.58.58,0,1,1-.58.58A.58.58,0,0,1,42.83,119.65Zm104.7.28c.52,0,.22,2,.48,3.78.09,1,0,1.1-.8.64a7.08,7.08,0,0,0-2.7-.88c-.93-.08-1-.47-.71-1.08a6.46,6.46,0,0,1,3.62-2.44l.12,0ZM35.2,120.1c.74,0,1.55,3.87.89,4.21-1,.54-4.22-.51-4.21-1.39a14.74,14.74,0,0,1,3.32-2.82Zm2.89.43a2.39,2.39,0,0,0-.47.06c-.47.1,0,.71.23,1.24.29.68.77.75,1.27.17.7-.82.56-1.19-.46-1.4A2.48,2.48,0,0,0,38.09,120.53Zm108.47.86a2.46,2.46,0,0,0-.81.4c-.6.38-.85.65,0,1s1.19.39,1.13-.29-.09-1.09-.35-1.07ZM87,121.94v4.2H92v-4.2Zm55.06.36a.58.58,0,1,1-.58.58A.58.58,0,0,1,142,122.31Zm10.84.56,0,2.69c-1.8,1.33-13.24,9.66-19.16,23.69l-3.1,1.33a57.3,57.3,0,0,1,22.22-27.7ZM47.45,123l15.94,20.58-1.06,2.68L45.91,124.5Zm-16.11.93a20.47,20.47,0,0,0,4.12,1.39c.45.06.57.15.36.55A6.58,6.58,0,0,1,32.49,129c-1,.32-1.43.2-1.28-.41.41-1.58,0-4.08.13-4.66Zm-1,.35c.66.57.53,4.17-.21,4.94-.39.4-1.51,0-3.18-.92-1.1-.63-1.3-1-.76-1.39C27.17,126.3,29.89,124.11,30.39,124.24Zm113.52.05a1.72,1.72,0,0,1,.38,0,5.41,5.41,0,0,1,1.28.17c2,.45,2.43.91.74,2.26a13.16,13.16,0,0,0-1.48,1.36c-.91,1.12-1.55.31-1.74-1.73-.12-1.25,0-2,.83-2.08Zm-2.1.22c.32,0,.53.17.52.57a19.93,19.93,0,0,0,.57,3.36c.36,1,.1,1.28-.76.82a7.8,7.8,0,0,0-3.19-.53c-1,.08-1-.19-.69-1.06C138.78,126.16,140.83,124.51,141.8,124.51Zm-109.07.75c-.18,0-.33,0-.39.12a2.85,2.85,0,0,0,.1,1.61c.08.38.41.36,1-.08s.7-.84-.12-1.34A1.29,1.29,0,0,0,32.73,125.26Zm4.36.13a.58.58,0,1,1-.58.58A.58.58,0,0,1,37.09,125.39Zm104,.79c-.61.11-1.46,1.1-1.16,1.47a1.78,1.78,0,0,0,1.48.1,1.71,1.71,0,0,0-.08-1.56A.48.48,0,0,0,141.07,126.18ZM43.56,127s.47,2,.67,2.86c.35,1.66,2.67,1.57,2.41-.16-.15-1-.19-1,.32-1,2.4.12,2,3.92-.78,3.63-.58.07-.66.31-.17.51a16.63,16.63,0,0,0,2.63.68c3,0,7.35,4.64,7.25,8.77-.07,2.7.84,4.64,1.77,4.86.74.18,1.81-.5,1.72-1.33-.13-1.14.79-.78,1.33,0,.81,1.13-.24,2.77-2.17,2.64-.82.16.6.68,1.66,1,1,.05.15,1.24,0,1.45-.54.63-2.31.15-3.7-1-1.71-1.39-2.44-3.24-2.64-6.9-.13-2.35-.3-2.82-1-1.86-1.22,2.16-4.14,1.1-4.51-1.18-.2-1.21.85-2.08,1.19-1,.91,2.27,3.12,1.73,2.76-.53-.24-1.49-1.72-2.31-4.65-3.14-3.52-1-4.57-2.21-5.25-5.11-.3-1.29-.26-2,.42-2.63.33-.33.76-.67.76-.67Zm92.76,1a.58.58,0,1,1-.58.58A.58.58,0,0,1,136.32,128Zm-110.51.55c1,.38,1.95.95,3,1.32.7.24.51.8-.22,1.61a7.25,7.25,0,0,1-2.73,2v-1.62c1.36-.48,2.23-1.62-.06-2Zm112.77.89a2.73,2.73,0,0,1,.46,0,8.1,8.1,0,0,1,1.62.16c1.67.35,1.87.5.86,1.68l-1.23,1.47c-1,1.38-1.52.91-2-.88C137.82,130.27,137.66,129.52,138.59,129.46Zm-1.87.44c.62,0,.45.75.65,1.51.16.59.4,1.34.59,1.87.91,2,.33,1.23-1.29,1.06-1.09-.12-2.83.06-3.26-.24-.19-.24,0-.89.34-1.62a5.82,5.82,0,0,1,2.06-2.3A2.44,2.44,0,0,1,136.72,129.91Zm-105.67.24a.58.58,0,1,1-.58.58A.58.58,0,0,1,31.05,130.15Zm8.71.55L58,154.91l-1.43,2-18.73-24.9Zm114.12.09A46.58,46.58,0,0,0,140,147.11l13.88-5.38Zm-18.07.79c-.52.14-1.26,1.11-.94,1.49a1.75,1.75,0,0,0,1.32.09C136.75,133,136.37,131.58,135.81,131.58Zm17.06.63.14,9-11.87,5a48.89,48.89,0,0,1,11.73-14ZM37,132.69l19,25.08-3.88,4.92L31.92,136.39Zm34.69.29,4.75,6.22-5.81-.13Zm60.12.51a.58.58,0,1,1-.58.58A.58.58,0,0,1,131.82,133.49Zm2.95,1.47h.53c2.17,0,2.9.15,2.27,1.22-.84,1-1.34,2-2.26,3-.53.54-1.2-.58-1.75-2.37-.45-1.45-.22-1.81.63-1.83Zm-2.58.77c.32,0,.37.43.61,1.19a21.67,21.67,0,0,0,1.6,3.41c.12.25-.32.31-.88.07-1.25-.54-4.15,0-4.23-.24-.43-.62.22-2.31,1.44-3.48a3,3,0,0,1,1.46-.95Zm-101,.74,20.56,26.86-.69.85c-.19-.25-4.61-5.94-9.48-12.29s-10-13.14-11.24-15Zm100.55.92c-.34-.18-1.27,1.21-1,1.63s1.17.2,1.47-.19A1.13,1.13,0,0,0,131.77,137.39Zm-4,2.74a.58.58,0,1,1-.58.58A.58.58,0,0,1,127.79,140.14Zm-57.37,0,6,0-1.58,5.21L69,145.29Zm26.6.13.78,6.77a45.51,45.51,0,0,0-19.9,14c-1.06-.07-9.53.07-9.53.07.21,0,7.85-14.46,8.73-20.75Zm-23.92.63-2.77,1.91,2.17,2.32,2.87-2Zm57.74,0a16.94,16.94,0,0,1,1.91.17c1,.2,1.17.22.83,1.07a16.42,16.42,0,0,1-1.76,3.31c-.94.58-2.84-3.61-2.31-4.32C129.64,141,130.19,141,130.84,141Zm-2.75,1.27c.27,0,.62.5.73.95a9.57,9.57,0,0,0,1.67,2.59c.75.83.71.95-.36,1a13.71,13.71,0,0,0-3.24.62c-1.11.41-1.26.32-1.12-1C126,144.47,127.29,142.31,128.09,142.24Zm-.12,1.85c-.69.11-1,1.68-.86,2.22.14.38,1.87-.32,2-.78C129.06,145.33,128.38,144.14,128,144.09Zm-59.14,2,5.71.06-1.87,4.73-5.64,0Zm2.56.63-2.73,1.74,2.13,2.07,2.62-1.82Zm57.87.83a2.45,2.45,0,0,1,1.28.25c.3.5-.93,3.31-.93,3.31l-2,.8a12.39,12.39,0,0,1-1.35-2.8c-.07-.42.14-.58.61-.84A6.4,6.4,0,0,1,129.27,147.5Zm-5.21.26a.58.58,0,1,1-.58.58A.58.58,0,0,1,124.05,147.76Zm-26,.08s1,5.83,1.26,6.25c-9.49,3.61-15,8.92-17.68,14.1H63.73l4-6.22,10.57-.05A43.27,43.27,0,0,1,98,147.84Zm-2.29,1.65-.88,2.83L97.52,154l1-3Zm29.07.26c.33,0,.71.23,1.1,1s.79,1.49.79,1.49l-.8.3c-.64-2.21-1.23-1.39-1.3.56a4.75,4.75,0,0,0-.74.37c-.62-.77,0-3.59,1-3.69Zm-58,1.73,5.53.07L70,156.38l-5.63-.16Zm24.14.39-.44,3.58,3,.63.41-3.4Zm-21.79,0-2.73,1.78,1.8,2.37,2.63-1.78ZM86.64,155l-.57,3.3,2.8.64.64-3.31Zm-60.77.19,7,7,.39,48.67-7,7ZM63.95,157s5.58.16,5.58.16l-2.24,4.07-1.92-.09,2.52-1.73-1.62-2.08-2.59,1.7,1.44,2.1-3.79-.08Zm36.1,1.21,1.9,6.31-2.29.4L97.95,159a13.06,13.06,0,0,1,2.1-.77Zm-18,.39,0,3.79,3.05.26.12-3.55Zm15.17.6,1.74,6-1.45.41-2.08-5.7A5.9,5.9,0,0,1,97.26,159.23Zm-2.65,1.24,2.23,5.88a26.06,26.06,0,0,0-8.7,6.64,9.3,9.3,0,0,0-3.94-1.76A24.86,24.86,0,0,1,94.61,160.47Zm-33.72,1.47,5.87.18-4.08,6.13H56Zm17.47.23L78,165.76l3.14,1.87.48-3.68Zm-3.79.5L72.34,165l2.37,2.72,2.18-2.84Zm-5,.12-2.65,2.45L69,168l2.43-2.78Zm-35.72.39,1.91,1.9L36,212.63l-9.75,9.5-.07-2.56L34,211.43q0-24.12-.1-48.25Zm27.85.36L59,167.24h3.19l2.32-3.58Zm-16.61,23c-1.06,3.84-6,8-6,7.94,2.42,3.49,2.34,8.47.2,10.93,0-.05,3.9,3.19,4.44,4.87A7.36,7.36,0,0,0,45,213.06C54.45,203.38,49.93,192,45.11,186.55Zm.14,1c9.22,11.5,3.14,22-.07,25l-.62-1c6.85-8,3.95-17.83,0-22.49Zm-1,2.24c.06.19.42.73.15.69l-.46-.09Zm-.13,1.27a1,1,0,0,1,.52.22c.19.31-.76,3-1.35,2.34-.18-.35-.39-.65-.55-1s-.07-.64.37-1.07A1.39,1.39,0,0,1,44.12,191.06Zm1.39.73c.47,0,1.13,1.51,1.19,2.56a3.63,3.63,0,0,1-2-.74,4,4,0,0,1,.81-1.82ZM41.9,193c2.77,5.61,2.6,10,.16,14l-1.91-1.65a10.41,10.41,0,0,0-.24-10.5Zm1.83,1.41a4.34,4.34,0,0,1,1.35.23c1.87.57,1.93,1.82.14,2.72-.74.37-1,.21-1.4-1.66C43.62,194.77,43.48,194.39,43.73,194.41Zm-6.41,1.28,1.5,4.43-1.5,4.43h.79l1.5-4.43-1.5-4.43h-.79Zm10,.86c.36,0,.52.68.57,1.85s-.19,1.2-1.09.41-1.13-1.06-.25-1.77C46.85,196.83,47.2,196.55,47.36,196.55Zm-2.53,1.84a3.31,3.31,0,0,1,1.19.7c1.27,1,1,1.64-.45,2.11-1,.33-1,.37-.93-1.37,0-.86,0-1.42.19-1.44Zm20.81,1.15a22.57,22.57,0,0,0-4,.43A2.23,2.23,0,0,0,60,203c.23.57.59.57.17.92-.47.54-.71,1.79-.2,2.24s.76-.25.12.92L48.37,228.66l70.08-.13L110,212.67s.67-2.62-.67-2.93a1.11,1.11,0,0,1-.77-.89,2.66,2.66,0,0,0-.81-2.14,47.45,47.45,0,0,1-17.23-.61c-8.73-2.62-16-6.29-23.6-6.55-.44,0-.87,0-1.31,0Zm-.22.58a40.7,40.7,0,0,1,15.76,3.49,46,46,0,0,0,25.33,3.85,1.23,1.23,0,0,1,1.13.32c.77.86.25,1.4-1.69,1.58a58.38,58.38,0,0,1-26.45-4.7c-6.18-2.33-11.86-3.11-16.34-2.43-2.46.38-2.83.44-2.82-.23.48-2.07,3.14-1.88,5.08-1.89Zm-17.55.41h0s0,.11,0,.24a13,13,0,0,1-.28,3.1c-.24.55-1.93-1.25-1.91-1.76a10,10,0,0,1,1.95-1.49l.15-.1h.06Zm-2.84,2c.77.17,2.06,2.22.93,2.55s-1.91.48-2-.2C44.08,204,44.53,202.45,45,202.56Zm22.45.84c8.71,0,14.69,4.84,22.87,6.39a72.46,72.46,0,0,0,15.77,1c2.45-.25,3-.17,2.95.86,0,.64.06.63-3.1.62-7.43.08-15.72-.48-22-2.95-7-2.09-13.46-6.13-23.1-3.42-.28,0-.42-.42-.4-.8a1.14,1.14,0,0,1,.46-.91,25.94,25.94,0,0,1,6.53-.84Zm-20.8,2.15c.42,0,.29.63-.4,2-.58,1.12-.81,1.12-1.14,0s-.32-1.37.38-1.55a11.68,11.68,0,0,1,1.16-.37Zm-2.94.63c.49,0,1.19,2.25.83,2.67s-1.31.11-1.61-.29C42.47,207.93,43.09,206.17,43.73,206.18Zm22,.6a31.78,31.78,0,0,1,5.69.5,19.07,19.07,0,0,0-3.13,1.36,18.77,18.77,0,0,0-2.56-1.86Zm-2.93.44a4.22,4.22,0,0,1,.54,0,9.17,9.17,0,0,1,4.93,2.28c6.9-3.87,9.82,1.47,10.81,2.33,6-1.34,7.22-.68,10.58,3,6-3,9-.45,11.5,1.15,3-2.78,6.71-2.86,8.67-1.46a11.71,11.71,0,0,1,.92,1.63c0,.18-.24,0-.92-.52-3.55-2.55-9.44.63-7.86,4,.42.91.36,1.3-.28,1.66a1,1,0,0,1-1.38-1.44c1-1.73.26-3.18-2.29-4.52-3.59-1.89-9.45.23-8.25,3,.77.89.06,1.52-1,1.48s-1.54-.81-.8-1.64c.92-1.06.68-2.14-.4-3.36-3.22-4.62-9.74-2.79-8.88,1.26.38,1-.7,1.41-1.82,1-.71-.28-.61-1.39.17-1.78.9-.09,1-1.4.92-2.24-.16-1.22-1.94-2.42-3.71-3.06a8,8,0,0,0-3.41-.47A2.85,2.85,0,0,0,68.12,213c.19,1.2-.14,2.44-1.54,1.78-.76-.36-.57-1.23.21-2,2.74-2.69-2.78-6-6.12-3.71a2.5,2.5,0,0,1-1,.55,3.38,3.38,0,0,1,3.11-2.4Zm14.56,1.58,4.17,1.58a12.18,12.18,0,0,0-2.32.74Zm-14.46.4h.41c1.81.09,3.31,1.16,3.16,1.29-3.85-.73-4.06,3.59-1.55,4.29-3.45,4.77,5.58,6.62,3.93.74,4.58.83,3.75-4.41.34-4.36.8-2,7.08-.47,6.81,1-4.25.45-2.55,4.34-.71,4.35-4.44,4.23,4.45,8.13,4.21,1.75,3.57.75,4-4,.56-4.32,1.26-1.78,5.74-.66,7,1.38-3.54.47-3.32,3.6-.55,4.1-3.51,4.49,5.13,6.15,4.23.93,3.09,1.07,4.79-3.08.78-4.27,4.11-2.46,8.57,1.21,8.08,1.28-4.69-.28-3.75,4.44-.36,4.19-2.16,4.9,6.39,5.18,4.22.09,3.85.07,3.51-4.41-.18-4.71,2.32-1.7,4.94-1.85,6.62-.26-3.51.93-2,5,1.48,3.89.33,3.43,3.1,2.7,3.16,2.6l2.48,4.66-67.24.11,5.74-10.65a2.73,2.73,0,0,0,3.12-3.19c2.26,1.62,4.68-2.41,1.38-3.56a4.06,4.06,0,0,1,2.88-1.31Zm-18.51.49c.25,0,.5.15.2.51-.14.14-.18.23-.41,0s0-.52.21-.53ZM58.5,212c.3.24.09.91-.15,1.14-.61.65-.81.6-.28-.53.16-.34.31-.62.42-.61Zm29.46.3,3.5.85-1.66.94A21.09,21.09,0,0,0,88,212.29Zm10.93,1.42,3.8.24a9.39,9.39,0,0,0-1.61,1.29A12.66,12.66,0,0,0,98.89,213.71Zm12.67,3.9a18.77,18.77,0,0,1,1,2C111.29,219.85,111,218,111.55,217.6Z" style="fill: #100f08"/>
  <path d="M48.06,64.56c-4.15-6.85-8.51-13.51-14-19.2,5.45-5.69,9.82-12.35,14-19.2,4.15,6.85,8.51,13.51,14,19.2C56.58,51,52.21,57.7,48.06,64.56Z" style="fill: #d40000"/>
  <path d="M14.11,56a45.13,45.13,0,0,0-5.82-8,45.12,45.12,0,0,0,5.82-8,45.12,45.12,0,0,0,5.82,8A45.13,45.13,0,0,0,14.11,56Z" style="fill: #d40000"/>
  <path d="M130.52,184.9c-4.15,6.85-8.51,13.51-14,19.2,5.45,5.69,9.82,12.35,14,19.2,4.15-6.85,8.51-13.51,14-19.2C139,198.41,134.67,191.75,130.52,184.9Z" style="fill: #d40000"/>
  <path d="M164.47,193.47a45.12,45.12,0,0,1-5.82,8,45.13,45.13,0,0,1,5.82,8,45.13,45.13,0,0,1,5.82-8A45.12,45.12,0,0,1,164.47,193.47Z" style="fill: #d40000"/>
  <path d="M14.75,34.56H17.4l-3.9-9.75-3,4.12,0,5.63h2.09v2.9H5.26v-2.9H7.69v-21H5.26V11.07h7.48v2.62H10.68l0,10.22,6.53-10.3H14.86V11.07h8v2.54h-2.1L15.34,22l5.27,12.54H23v2.9H14.77l0-2.91Z" style="fill: #d40000"/>
  <path d="M163.83,214.89h-2.66l3.9,9.75,3-4.12,0-5.63h-2.09V212h7.38v2.9h-2.43v21h2.43v2.54h-7.48v-2.62h2.07l0-10.22-6.53,10.3h2.31v2.54h-8v-2.54h2.1l5.38-8.42L158,214.88h-2.34V212h8.19l0,2.91Z" style="fill: #d40000"/>
</svg>
