<svg xmlns="http://www.w3.org/2000/svg" viewBox="0 0 178.58 249.45">
  <title>D2</title>
  <path d="M89.29,184.89c4.15,6.85,8.51,13.51,14,19.2-5.45,5.69-9.82,12.35-14,19.2-4.15-6.85-8.51-13.51-14-19.2C80.78,198.4,85.14,191.74,89.29,184.89Z" style="fill: #d40000"/>
  <path d="M164.81,193.47a45.13,45.13,0,0,0,5.82,8,45.13,45.13,0,0,0-5.82,8,45.13,45.13,0,0,0-5.82-8A45.13,45.13,0,0,0,164.81,193.47Z" style="fill: #d40000"/>
  <path d="M13.77,40a45.13,45.13,0,0,0,5.82,8,45.13,45.13,0,0,0-5.82,8A45.13,45.13,0,0,0,8,48,45.13,45.13,0,0,0,13.77,40Z" style="fill: #d40000"/>
  <path d="M89.29,26.16c4.15,6.85,8.51,13.51,14,19.2-5.45,5.69-9.82,12.35-14,19.2-4.15-6.85-8.51-13.51-14-19.2C80.78,39.67,85.14,33,89.29,26.16Z" style="fill: #d40000"/>
  <path d="M172.32,212l-.13,1.63c-.41,5-1.49,6.73-7.62,12-3,2.55-4,3.8-4.09,5.26-.39,3.44,2.65,4.51,4.63,4.53,2.57,0,5.47-1.54,4.09-5.17l2.88-.86c.58,3.39,0,6.56-2.71,8-3.6,1.84-8.22,1.12-10.55-1.78a6.91,6.91,0,0,1-1.08-6.74c2.46-5.38,10.78-7.74,11.47-14H160v3.46H157.3V212l15,.06Z" style="fill: #d40000"/>
  <path d="M6.26,37.41l.13-1.63c.41-5,1.49-6.73,7.62-12,3-2.55,4-3.8,4.09-5.26.39-3.44-2.65-4.51-4.63-4.53C10.9,14,8,15.56,9.38,19.19l-2.88.86c-.58-3.39,0-6.56,2.71-8,3.6-1.84,8.22-1.12,10.55,1.78a6.91,6.91,0,0,1,1.08,6.74c-2.46,5.38-10.78,7.74-11.47,14h9.2V31.09h2.71v6.38l-15-.06Z" style="fill: #d40000"/>
</svg>
