<svg xmlns="http://www.w3.org/2000/svg" viewBox="0 0 178.58 249.45">
  <title>D3</title>
  <path d="M89.29,184.89c4.15,6.85,8.51,13.51,14,19.2-5.45,5.69-9.82,12.35-14,19.2-4.15-6.85-8.51-13.51-14-19.2C80.78,198.4,85.14,191.74,89.29,184.89Z" style="fill: #d40000"/>
  <path d="M164.81,193.47a45.13,45.13,0,0,0,5.82,8,45.13,45.13,0,0,0-5.82,8,45.12,45.12,0,0,0-5.82-8A45.13,45.13,0,0,0,164.81,193.47Z" style="fill: #d40000"/>
  <path d="M13.77,40a45.13,45.13,0,0,0,5.82,8,45.13,45.13,0,0,0-5.82,8A45.12,45.12,0,0,0,8,48,45.13,45.13,0,0,0,13.77,40Z" style="fill: #d40000"/>
  <path d="M89.29,105.52c4.15,6.85,8.51,13.51,14,19.2-5.45,5.69-9.82,12.35-14,19.2-4.15-6.85-8.51-13.51-14-19.2C80.78,119,85.14,112.38,89.29,105.52Z" style="fill: #d40000"/>
  <path d="M89.29,26.16c4.15,6.85,8.51,13.51,14,19.2-5.45,5.69-9.82,12.35-14,19.2-4.15-6.85-8.51-13.51-14-19.2C80.78,39.67,85.14,33,89.29,26.16Z" style="fill: #d40000"/>
  <path d="M173.38,217.77l-2,1.49c-1.76-2.87-3.74-4.76-6.75-4.44-4.53.31-6.4,5.06-5.46,8.63a5.24,5.24,0,0,0,7.65,3.06,7.47,7.47,0,0,1,1.52-.74c.31,0,1,1.41.92,1.84a93.37,93.37,0,0,1-6.86,8H170v-3.43h2.91v6.15H158v-2.09a50.49,50.49,0,0,0,5.29-6.38,7.2,7.2,0,0,1-6.78-5.41,14.34,14.34,0,0,1,.41-7.29,9.15,9.15,0,0,1,7.44-5.21c5-.34,7.66,3.17,9,5.76Z" style="fill: #d40000"/>
  <path d="M5.21,31.68l2-1.49C9,33.06,11,35,14,34.63c4.53-.31,6.4-5.06,5.46-8.63a5.24,5.24,0,0,0-7.65-3.06,7.47,7.47,0,0,1-1.52.74c-.31,0-1-1.41-.92-1.84a93.36,93.36,0,0,1,6.86-8H8.63v3.43H5.72V11.07H20.55v2.09a50.49,50.49,0,0,0-5.29,6.38A7.2,7.2,0,0,1,22,24.95a14.34,14.34,0,0,1-.41,7.29,9.15,9.15,0,0,1-7.44,5.21c-5,.34-7.66-3.17-9-5.76Z" style="fill: #d40000"/>
</svg>
