<svg xmlns="http://www.w3.org/2000/svg" viewBox="0 0 178.58 249.45">
  <title>D4</title>
  <path d="M164.81,193.47a45.13,45.13,0,0,0,5.82,8,45.12,45.12,0,0,0-5.82,8,45.13,45.13,0,0,0-5.82-8A45.13,45.13,0,0,0,164.81,193.47Z" style="fill: #d40000"/>
  <path d="M47.88,184.89c4.15,6.85,8.51,13.51,14,19.2-5.45,5.69-9.82,12.35-14,19.2-4.15-6.85-8.51-13.51-14-19.2C39.36,198.4,43.73,191.74,47.88,184.89Z" style="fill: #d40000"/>
  <path d="M13.77,40a45.13,45.13,0,0,0,5.82,8,45.12,45.12,0,0,0-5.82,8A45.13,45.13,0,0,0,8,48,45.13,45.13,0,0,0,13.77,40Z" style="fill: #d40000"/>
  <path d="M130.7,184.89c4.15,6.85,8.51,13.51,14,19.2-5.45,5.69-9.82,12.35-14,19.2-4.15-6.85-8.51-13.51-14-19.2C122.19,198.4,126.56,191.74,130.7,184.89Z" style="fill: #d40000"/>
  <path d="M130.7,26.15c4.15,6.85,8.51,13.51,14,19.2-5.45,5.69-9.82,12.35-14,19.2-4.15-6.85-8.51-13.51-14-19.2C122.19,39.66,126.56,33,130.7,26.15Z" style="fill: #d40000"/>
  <path d="M47.88,26.15c4.15,6.85,8.51,13.51,14,19.2C56.39,51,52,57.69,47.88,64.55c-4.15-6.85-8.51-13.51-14-19.2C39.36,39.66,43.73,33,47.88,26.15Z" style="fill: #d40000"/>
  <path d="M164.62,212v2.33h-2.1v3.85H173v2.71l-11.39,17.5H159.8v-17.5h-3.22v-2.71h3.22l.06-3.85h-1.76V212h6.53Zm-2.1,20,7.23-11.1h-7.23Z" style="fill: #d40000"/>
  <path d="M14,37.47V35.14h2.1V31.29H5.54V28.57l11.39-17.5h1.86v17.5H22v2.71H18.79l-.06,3.85h1.76v2.33H14Zm2.1-20L8.83,28.58h7.23Z" style="fill: #d40000"/>
</svg>
