<svg xmlns="http://www.w3.org/2000/svg" viewBox="0 0 178.58 249.45">
  <title>D5</title>
  <path d="M164.81,193.47a45.13,45.13,0,0,0,5.82,8,45.13,45.13,0,0,0-5.82,8,45.12,45.12,0,0,0-5.82-8A45.13,45.13,0,0,0,164.81,193.47Z" style="fill: #d40000"/>
  <path d="M47.88,184.89c4.15,6.85,8.51,13.51,14,19.2-5.45,5.69-9.82,12.35-14,19.2-4.15-6.85-8.51-13.51-14-19.2C39.36,198.4,43.73,191.74,47.88,184.89Z" style="fill: #d40000"/>
  <path d="M13.77,40a45.13,45.13,0,0,0,5.82,8,45.13,45.13,0,0,0-5.82,8A45.12,45.12,0,0,0,8,48,45.13,45.13,0,0,0,13.77,40Z" style="fill: #d40000"/>
  <path d="M130.7,184.89c4.15,6.85,8.51,13.51,14,19.2-5.45,5.69-9.82,12.35-14,19.2-4.15-6.85-8.51-13.51-14-19.2C122.19,198.4,126.56,191.74,130.7,184.89Z" style="fill: #d40000"/>
  <path d="M89.29,105.52c4.15,6.85,8.51,13.51,14,19.2-5.45,5.69-9.82,12.35-14,19.2-4.15-6.85-8.51-13.51-14-19.2C80.78,119,85.14,112.38,89.29,105.52Z" style="fill: #d40000"/>
  <path d="M130.7,26.15c4.15,6.85,8.51,13.51,14,19.2-5.45,5.69-9.82,12.35-14,19.2-4.15-6.85-8.51-13.51-14-19.2C122.19,39.66,126.56,33,130.7,26.15Z" style="fill: #d40000"/>
  <path d="M47.88,26.15c4.15,6.85,8.51,13.51,14,19.2C56.39,51,52,57.69,47.88,64.55c-4.15-6.85-8.51-13.51-14-19.2C39.36,39.66,43.73,33,47.88,26.15Z" style="fill: #d40000"/>
  <path d="M173.13,218.81l-2.59,0c-.49-1.59-1.59-3.21-3.07-3.66a6.19,6.19,0,0,0-7.77,4.13c-1.08,3.34,0,8,2.91,9.68,2.39,1.38,5.94.22,7.57-2.73l1.81,1.13-1,11H159.18v-2.6h9.59l.15-4.58a7.58,7.58,0,0,1-7.3.43c-3.91-1.9-5.73-6.22-5-11.31,1.05-5.06,3.38-7.93,8.61-8.34,5.83-.05,7.88,4,7.86,6.83h0Z" style="fill: #d40000"/>
  <path d="M5.45,30.64l2.59,0c.49,1.59,1.59,3.21,3.07,3.66a6.19,6.19,0,0,0,7.77-4.13c1.08-3.34,0-8-2.91-9.68-2.39-1.38-5.94-.22-7.57,2.73L6.59,22.06l1-11H19.4v2.6H9.81l-.15,4.58a7.58,7.58,0,0,1,7.3-.43c3.91,1.9,5.73,6.22,5,11.31-1.05,5.06-3.38,7.93-8.61,8.34-5.83.05-7.88-4-7.86-6.83h0Z" style="fill: #d40000"/>
</svg>
