<svg xmlns="http://www.w3.org/2000/svg" viewBox="0 0 178.58 249.45">
  <title>D6</title>
  <path d="M164.81,193.47a45.13,45.13,0,0,0,5.82,8,45.13,45.13,0,0,0-5.82,8,45.12,45.12,0,0,0-5.82-8A45.13,45.13,0,0,0,164.81,193.47Z" style="fill: #d40000"/>
  <path d="M47.88,184.89c4.15,6.85,8.51,13.51,14,19.2-5.45,5.69-9.82,12.35-14,19.2-4.15-6.85-8.51-13.51-14-19.2C39.36,198.4,43.73,191.74,47.88,184.89Z" style="fill: #d40000"/>
  <path d="M13.77,40a45.13,45.13,0,0,0,5.82,8,45.13,45.13,0,0,0-5.82,8A45.12,45.12,0,0,0,8,48,45.13,45.13,0,0,0,13.77,40Z" style="fill: #d40000"/>
  <path d="M130.7,184.89c4.15,6.85,8.51,13.51,14,19.2-5.45,5.69-9.82,12.35-14,19.2-4.15-6.85-8.51-13.51-14-19.2C122.19,198.4,126.56,191.74,130.7,184.89Z" style="fill: #d40000"/>
  <path d="M130.7,105.55c4.15,6.85,8.51,13.51,14,19.2-5.45,5.69-9.82,12.35-14,19.2-4.15-6.85-8.51-13.51-14-19.2C122.19,119.06,126.56,112.4,130.7,105.55Z" style="fill: #d40000"/>
  <path d="M47.88,105.54c4.15,6.85,8.51,13.51,14,19.2-5.45,5.69-9.82,12.35-14,19.2-4.15-6.85-8.51-13.51-14-19.2C39.36,119,43.73,112.39,47.88,105.54Z" style="fill: #d40000"/>
  <path d="M130.7,26.15c4.15,6.85,8.51,13.51,14,19.2-5.45,5.69-9.82,12.35-14,19.2-4.15-6.85-8.51-13.51-14-19.2C122.19,39.66,126.56,33,130.7,26.15Z" style="fill: #d40000"/>
  <path d="M47.88,26.15c4.15,6.85,8.51,13.51,14,19.2C56.39,51,52,57.69,47.88,64.55c-4.15-6.85-8.51-13.51-14-19.2C39.36,39.66,43.73,33,47.88,26.15Z" style="fill: #d40000"/>
  <path d="M172.56,220.1a53,53,0,0,1,.05,9.67c-.82,5.21-2.81,7.59-6.14,8.37s-7.78-.09-8.78-4.44l2.7-.05c1.46,2.94,5.16,2.16,7.25.88,1.66-1,2.42-5.28,2.09-5.54,0,0-3.15,2.33-5.63,2.16-5.3-.55-7.48-5.15-7.3-9.49.17-5.22,1.82-9.39,7.44-9.67,5.34.21,7.79,3.12,8.3,8.12h0Zm-13.17,1.38c0,3.62,1.61,6.34,4.73,6.63s6.25-2.74,6-6.43-1.65-6.83-5.42-6.81C160.67,214.89,159.41,218.9,159.39,221.48Z" style="fill: #d40000"/>
  <path d="M6,29.35A53,53,0,0,1,6,19.68c.82-5.21,2.81-7.59,6.14-8.37s7.78.09,8.78,4.44l-2.7.05c-1.46-2.94-5.16-2.16-7.25-.88-1.66,1-2.42,5.28-2.09,5.54,0,0,3.15-2.33,5.63-2.16,5.3.55,7.48,5.15,7.3,9.49-.17,5.22-1.82,9.39-7.44,9.67C9,37.26,6.54,34.35,6,29.35H6ZM19.19,28c0-3.62-1.61-6.34-4.73-6.63s-6.25,2.74-6,6.43,1.65,6.83,5.42,6.81C17.91,34.56,19.17,30.55,19.19,28Z" style="fill: #d40000"/>
</svg>
