<svg xmlns="http://www.w3.org/2000/svg" viewBox="0 0 178.58 249.45">
  <title>D7</title>
  <path d="M13.77,56A45.13,45.13,0,0,0,8,48a45.12,45.12,0,0,0,5.82-8,45.12,45.12,0,0,0,5.82,8A45.13,45.13,0,0,0,13.77,56Z" style="fill: #d40000"/>
  <path d="M130.7,64.56c-4.15-6.85-8.51-13.51-14-19.2,5.45-5.69,9.82-12.35,14-19.2,4.15,6.85,8.51,13.51,14,19.2C139.22,51,134.85,57.7,130.7,64.56Z" style="fill: #d40000"/>
  <path d="M164.81,209.47a45.13,45.13,0,0,0-5.82-8,45.12,45.12,0,0,0,5.82-8,45.12,45.12,0,0,0,5.82,8A45.13,45.13,0,0,0,164.81,209.47Z" style="fill: #d40000"/>
  <path d="M47.88,64.56c-4.15-6.85-8.51-13.51-14-19.2,5.45-5.69,9.82-12.35,14-19.2,4.15,6.85,8.51,13.51,14,19.2C56.39,51,52,57.7,47.88,64.56Z" style="fill: #d40000"/>
  <path d="M89.29,104.23c-4.15-6.85-8.51-13.51-14-19.2,5.45-5.69,9.82-12.35,14-19.2,4.15,6.85,8.51,13.51,14,19.2C97.81,90.72,93.44,97.38,89.29,104.23Z" style="fill: #d40000"/>
  <path d="M47.88,143.9c-4.15-6.85-8.51-13.51-14-19.2,5.45-5.69,9.82-12.35,14-19.2,4.15,6.85,8.51,13.51,14,19.2C56.39,130.39,52,137,47.88,143.9Z" style="fill: #d40000"/>
  <path d="M130.7,143.91c-4.15-6.85-8.51-13.51-14-19.2,5.45-5.69,9.82-12.35,14-19.2,4.15,6.85,8.51,13.51,14,19.2C139.22,130.4,134.85,137.06,130.7,143.91Z" style="fill: #d40000"/>
  <path d="M47.88,223.3c-4.15-6.85-8.51-13.51-14-19.2,5.45-5.69,9.82-12.35,14-19.2,4.15,6.85,8.51,13.51,14,19.2C56.39,209.79,52,216.45,47.88,223.3Z" style="fill: #d40000"/>
  <path d="M130.7,223.3c-4.15-6.85-8.51-13.51-14-19.2,5.45-5.69,9.82-12.35,14-19.2,4.15,6.85,8.51,13.51,14,19.2C139.22,209.79,134.85,216.45,130.7,223.3Z" style="fill: #d40000"/>
  <path d="M9.71,37.47c1.74-9.18,3.58-16.07,8.44-23.55H8.29v3.22H5.67V11.07H20.1l1.78,2.85c-5.15,5.63-9.87,23.81-9,23.55Z" style="fill: #d40000"/>
  <path d="M168.87,212c-1.74,9.18-3.58,16.07-8.44,23.55h9.86v-3.22h2.62v6.07H158.48l-1.78-2.85c5.15-5.63,9.87-23.81,9-23.55Z" style="fill: #d40000"/>
</svg>
