<svg xmlns="http://www.w3.org/2000/svg" viewBox="0 0 178.58 249.45">
  <title>D9</title>
  <path d="M164.81,193.47a45.13,45.13,0,0,0,5.82,8,45.12,45.12,0,0,0-5.82,8,45.12,45.12,0,0,0-5.82-8A45.13,45.13,0,0,0,164.81,193.47Z" style="fill: #d40000"/>
  <path d="M47.88,184.89c4.15,6.85,8.51,13.51,14,19.2-5.45,5.69-9.82,12.35-14,19.2-4.15-6.85-8.51-13.51-14-19.2C39.36,198.4,43.73,191.74,47.88,184.89Z" style="fill: #d40000"/>
  <path d="M13.77,40a45.13,45.13,0,0,0,5.82,8,45.12,45.12,0,0,0-5.82,8A45.12,45.12,0,0,0,8,48,45.13,45.13,0,0,0,13.77,40Z" style="fill: #d40000"/>
  <path d="M130.7,184.89c4.15,6.85,8.51,13.51,14,19.2-5.45,5.69-9.82,12.35-14,19.2-4.15-6.85-8.51-13.51-14-19.2C122.19,198.4,126.56,191.74,130.7,184.89Z" style="fill: #d40000"/>
  <path d="M47.88,132c4.15,6.85,8.51,13.51,14,19.2-5.45,5.69-9.82,12.35-14,19.2-4.15-6.85-8.51-13.51-14-19.2C39.36,145.49,43.73,138.83,47.88,132Z" style="fill: #d40000"/>
  <path d="M130.7,132c4.15,6.85,8.51,13.51,14,19.2-5.45,5.69-9.82,12.35-14,19.2-4.15-6.85-8.51-13.51-14-19.2C122.19,145.49,126.56,138.83,130.7,132Z" style="fill: #d40000"/>
  <path d="M89.29,105.52c4.15,6.85,8.51,13.51,14,19.2-5.45,5.69-9.82,12.35-14,19.2-4.15-6.85-8.51-13.51-14-19.2C80.78,119,85.14,112.38,89.29,105.52Z" style="fill: #d40000"/>
  <path d="M130.7,26.15c4.15,6.85,8.51,13.51,14,19.2-5.45,5.69-9.82,12.35-14,19.2-4.15-6.85-8.51-13.51-14-19.2C122.19,39.66,126.56,33,130.7,26.15Z" style="fill: #d40000"/>
  <path d="M47.88,26.15c4.15,6.85,8.51,13.51,14,19.2C56.39,51,52,57.69,47.88,64.55c-4.15-6.85-8.51-13.51-14-19.2C39.36,39.66,43.73,33,47.88,26.15Z" style="fill: #d40000"/>
  <path d="M47.88,79.07c4.15,6.85,8.51,13.51,14,19.2-5.45,5.69-9.82,12.35-14,19.2-4.15-6.85-8.51-13.51-14-19.2C39.36,92.58,43.73,85.92,47.88,79.07Z" style="fill: #d40000"/>
  <path d="M130.7,79.1c4.15,6.85,8.51,13.51,14,19.2-5.45,5.69-9.82,12.35-14,19.2-4.15-6.85-8.51-13.51-14-19.2C122.19,92.61,126.56,85.95,130.7,79.1Z" style="fill: #d40000"/>
  <path d="M172.18,217.07l-2.42.77a4.28,4.28,0,0,0-4.7-3c-3.5.28-4.66,4.19-4.92,7.64a6.94,6.94,0,0,1,5.15-2.1c5.57.3,7,4.76,7.05,9.43.15,3.94-1.48,6.79-4.27,8.1a9.56,9.56,0,0,1-6.35-.12c-3.41-1.8-4.68-4.91-4.45-12.35,0-6.11,1.3-13.23,7.85-13.39a6.35,6.35,0,0,1,7.05,5Zm-9.49,6.7a5.72,5.72,0,0,0-2.29,2.41,4.53,4.53,0,0,0-.44,3c.31,4.43,2.63,6.95,6,6.45,1.88-.28,2.91-1.33,3.5-3.29,1.09-3.62-.29-7.85-2.88-8.82a5,5,0,0,0-3.89.27Z" style="fill: #d40000"/>
  <path d="M6.4,32.38l2.42-.77a4.28,4.28,0,0,0,4.7,3c3.5-.28,4.66-4.19,4.92-7.64a6.94,6.94,0,0,1-5.15,2.1c-5.57-.3-7-4.76-7.05-9.43-.15-3.94,1.48-6.79,4.27-8.1a9.56,9.56,0,0,1,6.35.12c3.41,1.8,4.68,4.91,4.45,12.35,0,6.11-1.3,13.23-7.85,13.39a6.35,6.35,0,0,1-7.05-5Zm9.49-6.7a5.72,5.72,0,0,0,2.29-2.41,4.53,4.53,0,0,0,.44-3c-.31-4.43-2.63-6.95-6-6.45-1.88.28-2.91,1.33-3.5,3.29C8,20.75,9.41,25,12,26a5,5,0,0,0,3.89-.27Z" style="fill: #d40000"/>
</svg>
