<svg xmlns="http://www.w3.org/2000/svg" viewBox="0 0 178.58 249.45">
  <title>H1</title>
  <path d="M13.77,56S12,53.43,9.59,50.43c-1.61-2-2.89-4.18-3-6.05A3.88,3.88,0,0,1,10.09,40c2.35-.1,3.3,1.65,3.68,3.09.39-1.45,1.34-3.2,3.68-3.09A3.88,3.88,0,0,1,21,44.37c-.12,1.87-1.4,4-3,6.05C15.55,53.43,13.77,56,13.77,56Z" style="fill: #d40000"/>
  <path d="M164.81,193.47S163,196,160.63,199c-1.61,2-2.89,4.18-3,6.05a3.88,3.88,0,0,0,3.51,4.39c2.35.1,3.3-1.65,3.68-3.09.39,1.45,1.34,3.2,3.68,3.09a3.88,3.88,0,0,0,3.51-4.39c-.12-1.87-1.4-4-3-6.05C166.59,196,164.81,193.47,164.81,193.47Z" style="fill: #d40000"/>
  <path d="M89.29,143.92s-3.73-6.12-8.77-13.33c-3.37-4.82-6.06-10-6.31-14.53-.29-5.13,2.43-10.28,7.35-10.53s6.92,4,7.73,7.43c.81-3.47,2.81-7.68,7.73-7.43s7.64,5.4,7.35,10.53c-.25,4.49-2.94,9.71-6.31,14.53C93,137.8,89.29,143.92,89.29,143.92Z" style="fill: #d40000"/>
  <path d="M5.7,37.47V35.21H7.85l4.59-24.14h2.61l5.05,24.14h1.74v2.26H15.92V35.21h1.6l-.64-3.7h-6l-.46,3.7H12v2.26Zm10.67-8.59L13.77,16,11.34,28.88Z" style="fill: #d40000"/>
  <path d="M156.73,212v2.26h2.15l4.59,24.14h2.61l5.05-24.14h1.74V212H167v2.26h1.6l-.64,3.7h-6l-.46-3.7h1.6V212Zm10.67,8.59-2.6,12.92-2.43-12.92Z" style="fill: #d40000"/>
</svg>
