<svg xmlns="http://www.w3.org/2000/svg" viewBox="0 0 178.58 249.45">
  <title>H10</title>
  <path d="M130.7,132s3.73,6.12,8.77,13.33c3.37,4.82,6.06,10,6.31,14.53.29,5.13-2.43,10.28-7.35,10.53s-6.92-4-7.73-7.43c-.81,3.47-2.81,7.68-7.73,7.43s-7.64-5.4-7.35-10.53c.25-4.49,2.94-9.71,6.31-14.53C127,138.1,130.7,132,130.7,132Z" style="fill: #d40000"/>
  <path d="M164.81,193.47S166.59,196,169,199c1.61,2,2.89,4.18,3,6.05a3.88,3.88,0,0,1-3.51,4.39c-2.35.1-3.3-1.65-3.68-3.09-.39,1.45-1.34,3.2-3.68,3.09a3.88,3.88,0,0,1-3.51-4.39c.12-1.87,1.4-4,3-6.05C163,196,164.81,193.47,164.81,193.47Z" style="fill: #d40000"/>
  <path d="M13.77,56s1.78-2.55,4.18-5.55c1.61-2,2.89-4.18,3-6.05A3.88,3.88,0,0,0,17.46,40c-2.35-.1-3.3,1.65-3.68,3.09-.39-1.45-1.34-3.2-3.68-3.09a3.88,3.88,0,0,0-3.51,4.39c.12,1.87,1.4,4,3,6.05C12,53.43,13.77,56,13.77,56Z" style="fill: #d40000"/>
  <path d="M89.29,150.78s3.73,6.12,8.77,13.33c3.37,4.82,6.06,10,6.31,14.53.29,5.13-2.43,10.28-7.35,10.53s-6.92-4-7.73-7.43c-.81,3.47-2.81,7.68-7.73,7.43s-7.64-5.4-7.35-10.53c.25-4.49,2.94-9.71,6.31-14.53C85.56,156.9,89.29,150.78,89.29,150.78Z" style="fill: #d40000"/>
  <path d="M130.7,184.89s3.73,6.12,8.77,13.33c3.37,4.82,6.06,10,6.31,14.53.29,5.13-2.43,10.28-7.35,10.53s-6.92-4-7.73-7.43c-.81,3.47-2.81,7.68-7.73,7.43s-7.64-5.4-7.35-10.53c.25-4.49,2.94-9.71,6.31-14.53C127,191,130.7,184.89,130.7,184.89Z" style="fill: #d40000"/>
  <path d="M47.88,132s3.73,6.12,8.77,13.33c3.37,4.82,6.06,10,6.31,14.53.29,5.13-2.43,10.28-7.35,10.53s-6.92-4-7.73-7.43c-.81,3.47-2.81,7.68-7.73,7.43s-7.64-5.4-7.35-10.53c.25-4.49,2.94-9.71,6.31-14.53C44.15,138.1,47.88,132,47.88,132Z" style="fill: #d40000"/>
  <path d="M47.88,184.89s3.73,6.12,8.77,13.33c3.37,4.82,6.06,10,6.31,14.53.29,5.13-2.43,10.28-7.35,10.53s-6.92-4-7.73-7.43c-.81,3.47-2.81,7.68-7.73,7.43s-7.64-5.4-7.35-10.53c.25-4.49,2.94-9.71,6.31-14.53C44.15,191,47.88,184.89,47.88,184.89Z" style="fill: #d40000"/>
  <path d="M89.29,98.67S93,92.54,98.06,85.34c3.37-4.82,6.06-10,6.31-14.53.29-5.13-2.43-10.28-7.35-10.53s-6.92,4-7.73,7.43c-.81-3.47-2.81-7.68-7.73-7.43s-7.64,5.4-7.35,10.53c.25,4.49,2.94,9.71,6.31,14.53C85.56,92.54,89.29,98.67,89.29,98.67Z" style="fill: #d40000"/>
  <path d="M47.88,117.47s3.73-6.12,8.77-13.33c3.37-4.82,6.06-10,6.31-14.53.29-5.13-2.43-10.28-7.35-10.53s-6.92,4-7.73,7.43c-.81-3.47-2.81-7.68-7.73-7.43s-7.64,5.4-7.35,10.53c.25,4.49,2.94,9.71,6.31,14.53C44.15,111.34,47.88,117.47,47.88,117.47Z" style="fill: #d40000"/>
  <path d="M130.7,117.47s3.73-6.12,8.77-13.33c3.37-4.82,6.06-10,6.31-14.53.29-5.13-2.43-10.28-7.35-10.53s-6.92,4-7.73,7.43c-.81-3.47-2.81-7.68-7.73-7.43s-7.64,5.4-7.35,10.53c.25,4.49,2.94,9.71,6.31,14.53C127,111.34,130.7,117.47,130.7,117.47Z" style="fill: #d40000"/>
  <path d="M47.88,64.56s3.73-6.12,8.77-13.33C60,46.41,62.71,41.19,63,36.7c.29-5.13-2.43-10.28-7.35-10.53s-6.92,4-7.73,7.43c-.81-3.47-2.81-7.68-7.73-7.43s-7.64,5.4-7.35,10.53c.25,4.49,2.94,9.71,6.31,14.53C44.15,58.43,47.88,64.56,47.88,64.56Z" style="fill: #d40000"/>
  <path d="M130.7,64.56s3.73-6.12,8.77-13.33c3.37-4.82,6.06-10,6.31-14.53.29-5.13-2.43-10.28-7.35-10.53s-6.92,4-7.73,7.43c-.81-3.47-2.81-7.68-7.73-7.43s-7.64,5.4-7.35,10.53c.25,4.49,2.94,9.71,6.31,14.53C127,58.43,130.7,64.56,130.7,64.56Z" style="fill: #d40000"/>
  <g>
    <path d="M172.83,212v26.4h-2.56V212Z" style="fill: #d40000"/>
    <path d="M162.68,238.38c2.46,0,4.44-2.25,4.44-5V217c0-2.79-2-5-4.44-5h-1.44a4.76,4.76,0,0,0-4.45,5v16.31c0,2.79,2,5,4.45,5Zm-.74-2.5a2.56,2.56,0,0,1-2.62-2.51V216.84a2.63,2.63,0,0,1,5.25,0v16.53A2.56,2.56,0,0,1,161.94,235.88Z" style="fill: #d40000"/>
  </g>
  <g>
    <path d="M5.76,37.47V11.07H8.32v26.4Z" style="fill: #d40000"/>
    <path d="M15.9,11.07c-2.46,0-4.44,2.25-4.44,5V32.43c0,2.79,2,5,4.44,5h1.44a4.76,4.76,0,0,0,4.45-5V16.11c0-2.79-2-5-4.45-5Zm.74,2.5a2.56,2.56,0,0,1,2.62,2.51V32.6a2.63,2.63,0,0,1-5.25,0V16.08A2.56,2.56,0,0,1,16.65,13.57Z" style="fill: #d40000"/>
  </g>
</svg>
