<svg xmlns="http://www.w3.org/2000/svg" viewBox="0 0 178.58 249.45">
  <title>H11</title>
  <path d="M164.81,193.47S166.59,196,169,199c1.61,2,2.89,4.18,3,6.05a3.88,3.88,0,0,1-3.51,4.39c-2.35.1-3.3-1.65-3.68-3.09-.39,1.45-1.34,3.2-3.68,3.09a3.88,3.88,0,0,1-3.51-4.39c.12-1.87,1.4-4,3-6.05,2.4-3,4.18-5.55,4.18-5.55Z" style="fill: #d40000"/>
  <path d="M13.77,56s1.78-2.55,4.18-5.55c1.61-2,2.89-4.18,3-6.05A3.88,3.88,0,0,0,17.46,40c-2.35-.1-3.3,1.65-3.68,3.09-.39-1.45-1.34-3.2-3.68-3.09a3.88,3.88,0,0,0-3.51,4.39c.12,1.87,1.4,4,3,6.05C12,53.43,13.77,56,13.77,56Z" style="fill: #d40000"/>
  <path d="M164.9,238.38v-2.76h-2.68s-.07-2.66-.09-8.31c0-5.49-.13-8.21.22-9.77.94-3.6,6.16-3.62,7.2-1a10.48,10.48,0,0,1,.47,4.19h2.89s0-.76,0-1.7c0-4-1.36-6-4.5-6.75s-7,.46-8.34,3.21c-.8,1.57-.71,1.68-.73,11.18,0,6.34-.11,9-.11,9h-2.47v2.76h8.17Z" style="fill: #d40000"/>
  <path d="M13.69,11.07v2.76h2.68s.07,2.66.09,8.31c0,5.49.13,8.21-.22,9.77-.94,3.6-6.16,3.62-7.2,1a10.48,10.48,0,0,1-.47-4.19H5.69s0,.76,0,1.7c0,4,1.36,6,4.5,6.75s7-.46,8.34-3.21c.8-1.57.71-1.68.73-11.18,0-6.34.11-9,.11-9h2.47V11.07H13.69Z" style="fill: #d40000"/>
  <g>
    <path d="M25.43,220.35l9.21-6,.13-7c5.46,2.63,7.83,6.92,8.69,12,1.54-2,1.69-11.88,1.69-11.88,1.4-.73,1.46-1.61,2.36-2.47A30.28,30.28,0,0,0,44.14,201s1.14-10.26-.22-10.67c-1.24,4.39-2.9,8.22-9,12.24,0,0-.09-16.36.3-32.16,2.58,1.78,8,5,11.56,8.25-4.57,5.91.09,13.61,6.91,8.49,5.77,6.83,4.85,17.28,7.43,24.33,0,0,14.57,4,20.83,3.71-5.26-13.72-4.24-30.44,19-33.57,11.14-5.1,24-10.8,36.53-21.43,2.31-15.83,10.45-23.62,16.21-27.93,0-6.41,0-12.76-.22-19.24,0,0-5.25,3.46-6.08,2.81C143,87.23,126.93,81.55,128.54,80.76c.26-.13,5.27-5.29,5.27-5.29l19.64,13c.67-19.78.28-40,0-59.76-3.47,2-9.84,6.66-9.84,6.66l-.1,6.73c0,.64-8.93-5.61-9-13-.7-.48-2.23,10.71-.83,11.92l-3.67,3.8,4,3.82s-1,6.33,1,10a14.2,14.2,0,0,1,8.25-11s.13,30.52.31,30.55l-12.34-7.83c6.68-9.12-5.08-12.08-6.46-7.64-7.59-7.09-4.67-15.56-8-25.61l-21.54-4c8.88,16.5-.76,35.3-18.19,34a42.13,42.13,0,0,0-6.22,3.33,66.12,66.12,0,0,0,4.9,6.84l37.31.62L95.7,110.48l11.44.37c-7.94,13.76-8.49,13.4-6,28.11L90,138.74c-.4,4.56,4.94,21.93,12.48,33.29l-41.94-.38,23.61-33-12.68-.36c7.6-13.7,9-13.4,6.35-27.71l11.25-.22C87.18,93.54,74.7,75.66,70.31,70.18,63.06,71.9,49.51,82.29,41.1,88.74,40,100,36.13,109.66,26,116.83l0,18.6s5.79-3.75,5.79-3.49c0,4,2.07,12.41,5.94,19.87,4.15,8,11,15.27,12.52,15.73-3.6,5.46-5.14,5.95-5.09,6L25.5,161Zm99.23-40c7.44-1.91,17.52-.17,19.62-6.74.49-1.49-.58-2-1.37-2.42C138.43,176.76,126.91,169.07,124.65,180.35ZM149.43,158c1.73-.22,1.15-3.79.57-4.23C148.8,154,148.45,158.13,149.43,158ZM86.32,128.19l5.8,0,0-6.82H86.32Zm-57-33.95c.13-.68.65-3.61-.76-3.08C26.92,92.45,28.44,98.26,29.35,94.24Zm5.46-17.12c.68,1,2.8-1.49,4.54-1.58,7.73-.41,13.42.62,14.38-7.48C49.28,70.92,43,69.62,39,70.54,36.1,71.51,32.77,74.15,34.81,77.13Z" style="fill: #e2cf00"/>
    <path d="M154.89,230.32V19.12H23.69v211.2Zm-38.45-1.72-66.08-.21c2-5.75,7.33-9.67,10.09-15.37a2.54,2.54,0,0,0,.31-2.56,52.14,52.14,0,0,1-1.49-6.65c-.43-4-.85-9.06-3-13.49-.3-1-2.28-3.48-2.75-3.48-2.88,4-10.35,1.57-8.2-5.4.83-2.7,2.2-2.67,1.61-3.18L35,170.13s-.34,31.95,0,31.94c6.22-3.71,6.48-5.88,9.05-11.76,1.61,2.22-.24,7.65,0,10.57l3.59,3.93s-2.81,3.09-2.81,3.09-1,11.57-1.25,11.41c-.57-4-4.44-10.54-8.91-12l-.1,7.1-9.47,6.06.35-58.62.94-1v-2.54s7,4.59,7.21,4.92c.08.75,2,2.28,2.46,1.51l2.12,1.53c-.31.08,2.18,3.6,2.53,2.51a4.12,4.12,0,0,0,0-1l2.07,1.54s.2.48.27.68a5.88,5.88,0,0,0,.92,1.48c.78.92,1.53,1,1-.42l1.26.82.75-1-2.36-1.51v-1.76l2.92,2.15c.79,0,.88-.11.72-.81l-3.64-2.28v-1.93c1.51,1,4.53,2.95,4.53,2.95l.37-.51c-9-7.94-16.49-21.52-17.91-35.33-2.26,1.13-5.79,4.48-5.4,2.47,0-.48-.6-1-.6-1L25,103.33c6-5.39,9.3-9.66,16.28-14.93,9.43-7.53,22.81-15.45,35.55-21.24,3.63-.21,6.85.78,13.23-3.84,7.21-4.54,9.45-12.52,8.19-21.2C97.6,39,96.39,34.58,95.92,34c-.14-.16-.47.14-.52.14s.1.22.1.22c.67,1.47,3.39,8.65,2.69,14-.26,1.86-.31,4.54-2.38,5.13a1.66,1.66,0,0,1-1.89-.67c-.78-1-.26-2.18.23-3.17-2.66,1.12-1.26,6.15,2.52,4.93a5.33,5.33,0,0,1-.31.73c-1.89,4-6.88,9.42-13.1,11a15.34,15.34,0,0,1-6.63.25c-1.1-.23-1.07-.7-1-2.32s-.6-2-1.19-2.72-.65-1.55-.06-1.26a5.47,5.47,0,0,0,3.9-.59c.52.31.77.48.77.48s-.16-.38-.54-1.12c-1-1.87-.47-1.47-.75-.77a3.21,3.21,0,0,1-4.12.35c-.68-.63-.46-1-.33-1.62.38-1.76-.09-2.44-2.85-4-2.33-1.23-2.13-1.26-.43-5.06.89-2,1.88-4.32,2.84-6.48a2.14,2.14,0,0,0-.32-2.34,10.26,10.26,0,0,1-.82-4c-3.34-4.21-6.09-9.28-9.6-14.4l65.91.39s-6.72,10.14-10.16,14.86a1.72,1.72,0,0,0-.47,2c.06.18,2,13.37,2,13.41.76,3.9,1.76,8.29,5.48,11,1.42-1.6,5-2.58,6.95-.51a4.62,4.62,0,0,1,1.38,2.89,10.31,10.31,0,0,1-.57,4.47c-.26.4-.84.76-.83,1,0,.56,1,1,2.5,1.83,3.11,1.71,9.19,5.92,9.19,5.92s.2-22,0-30.81c-5.93,2.5-8.68,10.8-8.68,10.8-1.5-1.89-.38-7.6-.48-9.52-1.3-1.57-2.5-2.05-3.73-3.75a9.75,9.75,0,0,1,3.24-3.73,19.2,19.2,0,0,1,.55-10.86c2.26,6.7,4,8.87,9.09,12.06-.19-2.59.23-4.62,0-6.89l10-6.9.83,60.75-20.42-14-.28.53L153.2,89.32v2.07l-1.9-1.18s-.19-1.44-.73-1.8a2.31,2.31,0,0,0-1.68,0l-3.18-2.16c.4-.8-2.12-4.12-2.54-1.76L140.7,83c-.29-.71-.21-1.9-1.61-2.61-.53-.19-1.19-.08-.93.67l-1.86-1.1c-.34-1.28-2.23-3.83-2.57-2.67a5.54,5.54,0,0,0,.05.9l-1.31-1s-1.32.31-.72.91L134,79.51l0,1.57-2.85-2s-.68.52-.59.89l3.46,2.38-.08,1.54c-1.42-.75-2.88-1.72-4.34-2.69,0,0-.24.46-.25.45C139.55,90,145.76,104,147.66,116.13c1.66-1,4.46-2.66,6.19-2.92l0,32.36A127.48,127.48,0,0,1,135,162c-10.14,8.2-21.47,13.7-30.69,18.11-1.6.53-3.1,1.36-4.76,1.49-2.43.11-3,.1-7.13,1.83-10.78,5.26-17.82,13.33-10.15,31.67-.33-1.24-2.13-6.22-2.56-10.68-.35-3.68.36-6.94,1-7.82,1.36-1.67,3.33-1.49,3.27.87a6.75,6.75,0,0,1-.53,1.84c1.91.21,3.14-6.39-2.23-4.56,2.44-6.49,12.79-12.26,17.43-12.61,2.42-.37,3.57.26,3.65,2a8.81,8.81,0,0,0,1.36,3.71c.53.75.34.91-.33.91-2.9,0-3.54,2.43-3.89.69-.66-.48-1.15-.62-.82,0a5.11,5.11,0,0,1,.51,1.39c-.05.36.4.46,1.09.93.18.12.15-.49.43-.73,1.4-1.22,5.23-2.43,4,1.47-.29,1.74.26,2.07,2.26,3.35,3.24,2,3.06,1.42-.18,7.81-2.21,4.36-2.31,4.8-1.44,6.91.71,1.72,1.33,3.32-.5,3.56,3.82,1.24,7.45,10.9,11.63,14.36Zm36.61-.14H117.41c-3.13-4.25-10.71-14.89-10.71-14.89a5.77,5.77,0,0,0-.65-3.08c-.62-1.09-.51-2.35.5-4.26.67-1.26,1.47-3.15,2.31-4.91,1.85-3,1.82-3.85.56-4.77s-3.36-1.83-4-2.43c-.42-.39.06-1.42.19-2.15.1-.39.37-1.35,0-1.8-.63-.69-.76-.9-.46-1.65.18-.46-.74-1-.89-1.35a5.29,5.29,0,0,1-.91-2,2.49,2.49,0,0,1,0-1c3.28,1.35,9.14.3,7.91-6.46a177.46,177.46,0,0,0,23.74-14.44c1.71,5.66,4.65,7,7.52,7.36.14.21-.11.59-.49,1-1.29,1.31-4.32,1.59-6.38,1.49-6.91,0-9.36,1.2-11.17,5.7a8.36,8.36,0,0,0-.38,3.53,9.51,9.51,0,0,1,.8-.93c1.69-1.5,4.72-1.82,7.15-1.86,4.24,0,6.45-.43,7.78-1.06,2.69-1.26,4.74-3.12,5-4.82.11-.61.19-.61,1.45-.49s2.09-.68,2.32-2c.1-.6-.08-.65.87-1a2.42,2.42,0,0,0,1.34-3.31c-.2-.56-.17-.67.44-1.09a2,2,0,0,0,.79-2.55c-.14-.42-.25-.53.11-1,.91-1.28-.17-3.31-1.42-3.79.65-4.17.36-4.38.35-4.86a.87.87,0,0,0-1-.66c-1.41.06-1.19,1.18-1.43,2.32l-1.66-2,6.13-5.85Zm-104.57,0H25.8v-7.55l9.4-6v-6.39c6.73,4.32,7.15,9,7.86,12.3,9.52-10.16,7-25.26.17-32.26.23.29-1.22,9.71-8,12.94V171.28l11.07,7.5c-5,5.62,1,14.73,7.45,8.68,4.79,4.78,4.33,14.9,6.62,23.12.25.93-.08,1.76-1.38,3.53-3.47,4.73-7,9.9-10.49,14.36Zm-3.82-10.88s.62-1.77.41-9.59l3.4-2.72A22.49,22.49,0,0,1,44.66,217.58Zm59.21-5.39c1,.05-.12-1.55-1-1.94-4.36-.31-7.13.45-11.63-3.6-1.27-.9-1.19.07.06,1.37a13.45,13.45,0,0,0,9.34,4,26.76,26.76,0,0,1,3,.16l.24,0Zm-1.23-4c.32,0,1,.52,1,.47,0-.84-1.21-2.57-1.53-3,0-.23,0-.66,0-1.34.12-.29,1.93-.29,1.29-1.09-.21-.26-1-.18-1.63-.26-1.16-.16-3.67-2.49-5.4-2.79a4.31,4.31,0,0,0-1,0,13.34,13.34,0,0,1,3.59,2c.81.77-1,.76-1.58.85a7.61,7.61,0,0,0-2,.63c-1.06.49-.67.61-1.77.22-.62-.22-1.26-.56-1.59-.63-1.53-.31-1,.82,1.4,2,.34.16.92.69,1.39,1,1.91,1.25,3.14,1.71,4.64,1.62a14.17,14.17,0,0,1,1.44,0,5.91,5.91,0,0,1-3.4.47c-2.23-.42-4.44-2.27-6.51-3.56,2.94,3.92,8.77,5.68,11.64,3.48Zm-4.15-2.33c-.19,0-.34-.19-.33-.49a5.6,5.6,0,0,1,1.13-1.62c.45-.29.42.34.14,1.36A.94.94,0,0,1,98.49,205.88Zm-1.13-.37c-1.44-.21-2.32-1.15-1.19-1.57.62-.23,2.25-.51,2.24-.26S97.69,205.56,97.36,205.51Zm-48.94-.82-4-3.84a58,58,0,0,0,.62-8.42A20.52,20.52,0,0,1,48.43,204.69Zm54-4.59a2,2,0,0,0,.59-.17,6.55,6.55,0,0,0-.67-.42c-2.43-1.32-1.41-3.77,1.27-2.07,1.87,1.19,3.28,1.44,3.53.06.1-.57.07-1.06-.8-.82a6.78,6.78,0,0,1-2.08-.67c-1-.38-3.1-1.27-3.95,1-.34,1.41.86,3.14,2.12,3.09Zm-8.18-3.5a2.68,2.68,0,0,0,.89-.19,4.32,4.32,0,0,0-.85-.27c-2.65-.4-2.48-4.85,3.43-1.75,2,1,3,.66,4.06-.24.81-.73.36-1.17-1-1-1.69.16-2.89-.53-4.49-1C91.32,190.95,90,196.44,94.2,196.6Zm12.14-12.67a6.08,6.08,0,0,1-4.13-2l.73-.43c1.16.38,1.83.69,3,1.09a4.3,4.3,0,0,1-.26-1.43,14.82,14.82,0,0,0,2.53.63c-.43-.87-.76-1.73-.76-1.73l1.94,0-.67-1.09,1.66-.8a4.25,4.25,0,0,1-4,5.68ZM125,180.3c-.27-2.83,2.15-6.64,10.57-6.56,3.27.07,5.07,0,7.55-2.68l1.51,1.22c-.47,1.81-1.26,5-8,6.48-3.9.59-7.55-.51-11.64,1.53Zm21.29-7.89a2,2,0,0,1-1-.3c-1.52-1-1.75-1.71-.23-2.53.87-.47,1.05-.56,1.85.17C148.18,170.88,147.55,172.44,146.28,172.41ZM102.15,172c-3.18-5.73-10.8-19.59-12.39-33.21l-1.43,0-23.6,32.64Zm40.22-2.12a5.88,5.88,0,0,1-2.61-.64,7.37,7.37,0,0,1-2.22-2.07,7.53,7.53,0,0,1-1.54-3.79,1.29,1.29,0,0,1,.12-.82,39.23,39.23,0,0,1,4.47-3.64,4.14,4.14,0,0,1,0,5.91c-.92.71-1.22,1,.36.93,1.17-.06,1.26-.12,1.19.64-.16,1.8.24,1.16.94.06a3.1,3.1,0,0,1,2.13-1.19c.62,0,.54.46,0,.81-.86.5-.93,1.34-.62,2.35s-.79,1.47-2.17,1.46Zm6.2-.51c-1.38.1-2.38-1.07-1.12-1.93,1-.69.89-1.23-.16-2.11-.55-.46-.89-.71-.84-.83.2-.79,2.19,1.32,3.28,2.06a1.56,1.56,0,0,1-.55,2.69,2.44,2.44,0,0,1-.61.12ZM42.66,168.06,40,166.25v-1.49l2.64,1.54Zm102.85-.26c-.76.07-.58-1.14.44-1.67.6-.31,1.06-.11,1.06.43,0,.28-.64.89-1.12,1.12a1.2,1.2,0,0,1-.38.12Zm4.44-2.47c-1.27-.1-3-1.46-2.7-2,.12-.27.88-.93.75-1.35-.22-.68.31-.68,1.39,0,1.81,1.2,2.27,2.08,1.6,3a1.12,1.12,0,0,1-1,.39Zm-107.25,0L40,163.46v-1.79l2.72,1.81ZM38,164.89l-2.66-1.66-.21-1.8,2.83,1.71Zm8-.27a4.07,4.07,0,0,1-2.23-1.75c-.33-.27-.69-.51-.69-.51l-.66.07-2.64-1.71a3.27,3.27,0,0,0-.54-1.37,3.85,3.85,0,0,0-1.43-1.08c-.21,0-.16.66-.09,1l-3.23-2.2s-.57-1.84-.57-1.84L32,154.12l.22,1.49-2.81-1.9s-.09-.25-.5-1.23c-.54-1.46-2-2.43-2-1.1h-.52V149.3l14.73,9.85a16.48,16.48,0,0,1,1.82,2c1,1.28,3,3.48,3,3.48Zm98.83-.25c-.94,0-1.1-.11-.62-.59s1.52-.22,1.43.39C145.61,164.44,145.43,164.34,144.83,164.37Zm-2.15,0c-.3,0-.57-.31-.44-.86a5.22,5.22,0,0,0-1-5.14l4.41-3.91c.33-.17.8,0,1.3.39,1.49,1.2,2,2.33.75,2.25-.83,0-1.89.79-1.59,1.77.18.59.06,1-.58,1.17a1.85,1.85,0,0,0-.89,2c.17.55.09.72-.31.67s-.86.36-1.15,1.08c-.14.35-.33.52-.52.54Zm3.62-1.74a1.13,1.13,0,0,1-.79-.49c-.55-1.1.91-1.63,1.49-1.11a1,1,0,0,1-.7,1.61Zm-108.36-.45-2.88-1.9-.34-2,3.11,1.84Zm112.85-.38a1.22,1.22,0,0,1-.82-.26c-.23-.17-.86-.67-1.22-.89-.76-.46-.88-.82-.21-.86a.94.94,0,0,0,.7-.87c.37-.36,1.42.18,2.12,1.08a1,1,0,0,1-.58,1.79Zm-117.72-.09-2.93-1.95-.25-1.91,2.94,1.75Zm114.55-2.49a.5.5,0,0,1-.21-.06c-.59-.29-.81-.74-.24-1s.8-.27,1.11,0-.14,1.07-.65,1.05Zm-114.75-.54-3.24-2.19-.06-1.71,2.9,1.61Zm116.78-.52c-1.3-.82-.81-4.68.08-4.67C151,154.5,150.9,157.17,149.65,158.16Zm-121.91-.09-1.33-.86v-1.73l1.26.75Zm12.61-.42-13.94-9.29v-1.69l12.38,8.38ZM27.55,155.1l-1.14-.68v-1.83l1.05.72Zm10-2.14-11.11-7.45v-1.89l9.69,6.49Zm-2.18-4.56-8.93-5.83v-1.95l7.85,5.21Zm-1.45-3.79-7.48-4.92v-1.86l6.69,4.52Zm-1.19-3.52-6.29-4.26v-.66l.78-.55L32.27,139Zm-.7-3.16-4.11-2.72,1.29-.89,2.43,1.9Zm67.8-1c-.08-.88.23-2.95-.23-3.73l-1.31,2.09H96.66c.73-1.69,2.57-5.48,2.57-5.48H92.72S91.06,133.38,90,135H88.5l2.41-5.2H84.77L82,135h-2l2.48-5.26H78.08l-.9,2.07h2l-2.31,5H83.5l2.62-5h1.53l-2.64,5h6.48l2.69-5h2l-2.47,5Zm-68.44-2-1.51-1,1.24-.73A14.89,14.89,0,0,0,31.37,134.91Zm68.91-15.7,1.13-1.93H99.13c.75-1.72,2.39-5,2.39-5H95.22l-2.74,5H90.28l2.5-5H87l-2.74,5h-2l2.43-5H78.58l.31,4.48,1.27-2.46h1.45l-2.18,4.88h6.19l2.49-4.88h1.53l-2.33,4.88H94l2.51-4.88h1.81L96,119.21ZM148,115.3l-.1-.71.82.32Zm1.62-.89-2-1.26-.28-1.59,3.43,2.23Zm2-1-4.65-3.16-.41-1.88,6.54,4.24Zm1.49-1.91-7-4.86-.7-2.06s5.87,3.81,7.65,5.41Zm-63.54-.82,23.42-32.82L76,77.47a111.21,111.21,0,0,1,13.63,33.17Zm63.54-1.81-8.11-5.67-1.13-2.3,9.23,6.22Zm0-2.8s-6.68-5-9.92-6.68c-.38-.73-1.61-3-1.61-3l11.54,8Zm0-2.81-12.1-8.35-2.28-3.27,14.39,9.79ZM25.8,101.5V20.86H60.45C63.81,25.8,67,30.53,70.66,36c.67.92.61,2.12,1.12,3.12a3.16,3.16,0,0,1,0,2.91c-1.42,3.07-3,5.89-4,9.16-.43,1.45,2.5,2.5,4,3.46,1.16.77,1.13,1.18.7,2.8-.4,1.15-.44,1.71.29,2.1.41.22.42.2.31.79s0,1,.75,1.63a4.15,4.15,0,0,1,1,1.44c.16.45.27,1.54-.58,1.46-4.82-1.88-8.33,1-7.29,6.06,0,0-16.12,9.26-23.4,15.08-1-4.35-3.43-7.79-7.83-7.95,2.11-2.31,5.45-2.26,8.43-2.21C51,76,53.93,73,54.36,66.54c-1.88,2.72-6.1,3-10.25,2.87-4-.16-9.52,1.18-10.88,6.49-1.92-.71-3.33-.71-4.08,1.75a1.6,1.6,0,0,1-.6.8c-1.72.67-1.9,2-1.41,3.53.13.45.12.57-.48,1.4a3.14,3.14,0,0,0-.15,2.68,2.88,2.88,0,0,1,.11,1.38,3.64,3.64,0,0,0,.82,2.71c.55.75.59.76.29,2.06-.37,1.58-.48,3.52-.11,3.82.52.42,2.08.55,2.13.06a11.41,11.41,0,0,0,.16-1.8c.33.31,1.85,1.35,1.81,1.34Zm127.4-1c-4.8-3.18-9.8-7.14-15.57-10.67l-2-2.35,1.81.22s1,.13,1.61,1.58c.45,1.14,2.2,2.43,2.88,1.49l1.74,1.06s.29.47.51.91c.9,1.82,2.88,3.36,2.89,2.24,0-.15,0-.67,0-.67l1.85,1,.4.94c.51,1.17,2.09,2.63,2.27,2.11.09-.28.21-.76.21-.76l1.33.69Zm0-3.27-1.79-1.17-.08-1.57,1.87,1.07ZM32.44,95c-1.38-.67-2.49-1.84-2.42-2.53,0-.41.34-.54.86-.62,1.27-.2,1.34-.61,1.32-1.58,0-.8,0-.73.69-1.19.87-.57,1.06-.68,1-2-.07-.87,0-.81.47-1,1.12-.22,1.22-.49,1.39-1.22s.63-.88.52-.23a6.05,6.05,0,0,0,.87,6.14S34.09,93.76,32.44,95Zm-3.62.63c-1.89-1-.46-4.77.16-4.72C30,92.07,29.41,94.49,28.82,95.67Zm120.08-1.4-2.66-1.76V90.91l2.71,1.8Zm4.31,0L151.46,93l0-1.53,1.72.92ZM149,91.37l-2.88-1.9V87.8L149,89.67ZM30.52,91c-.79,0-1.33-.73-.78-1.34.14-.15.31-.16.6-.16,1.28,0,1.67,1.06.53,1.43a1.28,1.28,0,0,1-.35.06Zm113.14-.21-2.77-1.92V87.32l2.76,1.77ZM37.78,90.37c-1.28-2-1.71-3.21-.27-5.85.53-.69.59-.82,0-.91s-1.37-.9-1.27-1.21-.27-.18-1.17.58c-1.09,1-1.66,1.27-1.51.6.37-1.22,1.1-1.31.79-2.62-.07-1.13-.48-1.05.61-1.53,2.48-1.1,5.14.54,6.85,4.21.69,1.47.94,2.19.5,2.94-1.16,1.25-4.55,3.71-4.58,3.8ZM28.4,89.9c-.65-.1-1.08-1.8-1-2.24s2,.7,2,1.26-.64,1-1,1Zm3.68-1.59a1.25,1.25,0,0,1-.68-.29.81.81,0,0,1,.2-1.47c.69-.26,1.09-.18,1.33.41a.9.9,0,0,1-.84,1.35Zm-2-.48a2.93,2.93,0,0,1-.84-.47C27.26,86.09,26.79,85,27.74,84c.54-.56.48-.51,1.46.11,1.92,1.22,2.22,1.36,1.55,2.11-.21.24-.54.63-.51.93C30.29,87.68,30.22,87.85,30,87.83Zm113.64-.07L141,86l0-1.64,2.71,1.61Zm-5.14-.54L136.46,86V84.17l2.08,1.41Zm-106.14-2a5.1,5.1,0,0,1-1.64-.92c-3-2.08-3.76-4.15-1.85-4.9.81-.32,1.74.61,2.29,1.36.35.48,0,1.09-.37,1.61s-.27.93.71,1.8c.76.68,1,1,.86,1Zm2-.06a2.2,2.2,0,0,1-.49,0c-.12-.05-.43-.16-.09-.57.07-.08,1-.46,1.14.12,0,.23-.14.42-.56.46Zm104.16-1-2.08-1.32V81.1l2.08,1.25ZM32,83.19a.43.43,0,0,1-.39-.52,2.37,2.37,0,0,1,.77-1.47c1-.71,1.88.14,1.15,1.18A1.8,1.8,0,0,1,32,83.19Zm.3-3.23a2,2,0,0,1-.58-.25c-1.72-.89-2.29-2.1-1.12-3.09.87-.73,2.2-.49,3.43.82,1,1.08.92,1.13-.51,2C32.83,79.84,32.58,80,32.33,80Zm3.29-2.51s-.53-.17-1.36-1.28c-1.06-1.42.82-2.73,2.68-4.79,4-2.66,11.1,0,16.63-3.25-.13,5.3-3.53,7.56-10.72,7.31A9.17,9.17,0,0,0,35.61,77.45Zm107.43,0-10.6-7.31a6.24,6.24,0,0,0,1.49-4.44c-.09-3.71-4.38-7.75-8.75-4.28-1.29.57-3.29-3.12-4.35-6-1.4-3.48-1.09-9.81-3.17-17.42l11.47-17.12h23.91v7L143,35v6c-6.07-3-7.78-9-8.05-14-6.57,8.18-9.85,22.55.67,34.35.31-5.51,2.06-9.78,7.39-13.17Zm-75.3-6.85c-1.81-5.12,5.06-7.41,7.63-3.54l-1.12.41a13.47,13.47,0,0,0-2.2-.86,3.13,3.13,0,0,1,.37,1.18,13.74,13.74,0,0,0-2.56-.3,3.16,3.16,0,0,1,.67,1.38c-.7.08-1.52-.05-2.28.05.56.49.74.31.75,1Zm14.61-12.2a3.37,3.37,0,0,0,.95-.11,2.62,2.62,0,0,0,1.5-4.48,3.08,3.08,0,0,0-3.54-.16,3.81,3.81,0,0,1,2.7.48c1.68,1.69-.35,3.95-2.88,2.58-3.06-1.6-4.5-1.94-5.52-1.43s-1,1.64-.15,1.47c1.69-.3,4.62,1.6,6.93,1.65Zm51.21-1c-2.31-3.65-3.85-8.91-3.65-12.12l3.9,3.26A40,40,0,0,0,133.56,57.35ZM75.7,53.82a2.21,2.21,0,0,0,1.79-.63c1-1,.58-4.17-1.87-3.52,0,0,1.19.42,1.46,1.13.53,1.4-1.28,2.75-2.94.81-1.26-1.46-3.25-1.15-3.39.13-.06.58.22,1,1,.72.44-.16.84,0,1.49.44A5.57,5.57,0,0,0,75.7,53.82ZM81.78,49c1,0,.67-.24-.66-.75-2-.77-3.42-1.35-3-1.71-.09,0,3.59,0,5.34-1.14a4.63,4.63,0,0,1,1.46.48c1.78.85,2.47-.07.89-1.16-3.23-2.24-5.86-3.33-8-3.1-1.41.15-2.18.22-1.34-.32,4.06-1.74,7.35,1.23,10.07,3a6.93,6.93,0,0,0,.69.42,3.39,3.39,0,0,0-.61-.78c-3.06-2.66-6.2-4.52-10.41-3.33-.72.29-.74.52-1,.4-1.22-1.1-.85.66,0,1.6a2.15,2.15,0,0,1,.68,1.71c.07.7.13.78-.5,1.07-1.38.64-.56.76.24.82A12.47,12.47,0,0,1,78.58,48a6.36,6.36,0,0,0,3.2,1Zm-2.44-3.31L80.28,44a5.81,5.81,0,0,1,2,.67c.14.13,0,.27-.29.4a6.3,6.3,0,0,1-2.62.6Zm-.81-.35c-.15,0-.29-.08-.33-.33a5.49,5.49,0,0,1,.64-1.32c.2-.26.41-.17.62-.05.45.24-.1,1-.49,1.44a.69.69,0,0,1-.44.27ZM130,44.09c-.71-3,2.12-11,3.15-11.61-.06,0-.65,5.54.21,8.29Zm-41.75-.56c.13,0,.06-.17-.2-.56A12.19,12.19,0,0,0,78,37.15c-1.46-.08-3.79-.22-4.07-.31-.69-.22-.72-.4-.81-.11-.52,1.61,1.5,3,5.26,2.45C81,38.8,84,40.31,87.24,42.83A4.31,4.31,0,0,0,88.28,43.53Z" style="fill: #131f67"/>
    <path d="M98.43,20.8l-1,5-9.28-.45S87,22.23,86.6,20.8Zm21.43.12-4.92,8.15-7-1.9,1.61-6.37Zm-13.6-.12-2.12,8.69c4,.88,7.77,1.46,12.19,2.66l7.17-11.34,4.31.11c-3.71,5-10.5,15-10.5,15a92.07,92.07,0,0,0-47-3.43s-5.82-7.69-7.9-11.86l4.1.2,5.1,8.55c3.55-.39,7-.86,10.75-1L79.78,20.8h4.07l2.31,7.52c4.44.17,8.18-.18,13.5.66l1.88-8.17Zm-29.36,0,1.4,5.35-5,.59S71,22.66,69.7,20.8Zm44.94,49.68c-6.23,9.48-28.2,39.89-28.2,39.89l-3.27,0s19.72-27.61,29.21-41.46ZM153.6,85.23l-7.67-5.53-.06-43.08,7.79-5.5Zm-31.84,70.47-4.64-9.1c19.73-18.72,15.86-40.7,5.29-56.37A64.36,64.36,0,0,0,126.75,83c14.3,9.45,18.65,34,18.54,34.26C129.53,131.35,127.41,135.83,121.76,155.71ZM41.14,88.6c-1,13.86-7.79,22.92-15.37,28.46L25.38,103C30.35,98.19,35.6,93.26,41.14,88.6Zm20.6,14c-17.28,16.16-17.87,39.12-5.28,56l-5.15,7.21c-7.3-7.83-14.46-16-17.51-35.09C44.75,122,54.41,107.73,57,93.32Zm23.81,18.81,0,6.61-6.37,0v-6.6Zm13.66.05L99.3,128l-6.39,0,.1-6.67ZM88.36,138.81s-21.63,30.27-30,41.11l-1.79-1.32L85,138.88ZM138.17,160c0-11.85,7.6-21.24,15.35-27.36l-.11,13.49A180.84,180.84,0,0,1,138.17,160ZM25.65,217.22l0-52.59L32.85,169l-.61,44.1Zm34.5-3.11c16.34,4.26,31.22,5.53,46.87,2.17,2,2.44,8.89,12.58,8.89,12.58l-4-.06-5.6-9-10.66,1.4,2.75,7.3-4.4,0-2.19-7.16c0,.06-8.68-.09-13.51-.66-.77,2.66-2.2,7.94-2.2,7.94H71.3c.62-2.54,2.29-8.58,2.29-8.58a112.6,112.6,0,0,1-11.39-2.51c-2.58,3.65-5,7.31-7.32,11l-4.72,0C51.55,226.17,59.89,214,60.15,214.11Zm3,6.3,7.22,1.69-1.88,6.37H58.41Zm41.45,2.31,3.36,5.91h-6.46l-2.14-5.21ZM90,223.92l1,4.71H79.2l1.2-5Z" style="fill: #d40000"/>
    <path d="M116.77,229l-10.43-15.08c-4.18.36-11.4,2.37-24,1.19,0,0-1.78-5.39-2.39-8-1.8-7.16.58-14.43,4.77-18.17a27.84,27.84,0,0,1,7.91-5.3c4.13-1.73,4.55-1.72,7-1.83a4.59,4.59,0,0,0,2.65-.6c.27-.09.45-.38.69-.46a1.52,1.52,0,0,1,.59,0,164.89,164.89,0,0,0,31.85-18.32c.09-.07.15-.37.24-.45.65-.53,1.25-.93,1.88-1.42.09-.07.28.05.37,0a188.14,188.14,0,0,0,16.56-14.73l-.19-33.54s-4.25,2.19-6.43,3.52A54.07,54.07,0,0,0,129.6,81.43L134,75.32,154.44,89.4l-.28-61.88-10.85,7.55v6.53c-3.23-2.18-6.39-3-8.69-13-1.84,3.49-1.68,8.69-.85,12.16a18.37,18.37,0,0,0-3.6,4l4,3.58s-1,8.68.86,10.43c1.5-3.94,2.7-8.11,8.33-11.15l.07,30.15c-2.8-1.78-5.45-3.78-8.22-5.6l-.38.08-2.87-2s.31-.61.58-1c3.48-5.29-2.32-11.78-7-7.87-1.85,1.53-5.32-4.83-6-10.94-.67-3.95-1-8.85-2.1-12.28A1.71,1.71,0,0,1,118,36l10.89-15.37h-5.24l-.38.6h3.86c-3.33,4.43-6.5,9.6-9.95,13.93-12.86-4.85-33.91-6-46.63-3-2.63-3.69-5.18-7.56-7.71-11.32h3.66L66,20H61L71.44,35.39c7.18-2.14,24.7-1.31,24.38-1.13,0,0,0,.12.65,1.86,3,9.72,3.29,18.35-4.26,25.33-4,3.57-8.48,5.92-13.48,5.48-2.23,0-2.28.16-3.21.59A11.41,11.41,0,0,1,74,68L68.89,70.8l-.67.13-1.46.77-.3.36-2.35,1.2-.26,0-3.18,1.83,0,.26-1.25.77-.3-.32A156.24,156.24,0,0,0,41.55,88.16L41.24,88c-5.9,4.79-13.93,12.33-16.31,15.19l.13,14.36.2.17.08,15.9h.46l0,2c2.61-1,5.48-3.4,5.68-3.3a56,56,0,0,0,18,35l-4.3,6-20-13.47-.05,3.93h-.25c-.25,15.09-.38,54.21-.38,54.21l.2,0v3.12l10.22-6.53.14-6.6c4.53,1.48,7.4,6.93,8.35,11.79,1.32-.53,1.65-11.9,1.65-11.9A38.81,38.81,0,0,0,48.26,205s-2.57-2.88-3.92-4.05c.28-.61.85-9.16.25-10.24-.27-.79-1.22-.68-1.22.16C42,197.58,35.6,202,35.24,201.59l.16-31.09,11.34,8c-2.38,2.69-2.88,7.24.12,9.46a4.46,4.46,0,0,0,6.65-1.08c3.68,2.4,4.92,11.31,5.46,14.8A43,43,0,0,0,60,207.73a20.4,20.4,0,0,1,.74,3.71,1.92,1.92,0,0,1-.54,1.48l-11,15.67,5.63,0,.05-.1H50.46l9.94-14.15a96.7,96.7,0,0,0,47.07,2.86l8.2,11.55h-3.73l.15.25Zm-8.66-.13-.16-.28-6.44,0,.1.24Zm-9.55,0-.12-.34H94l.13.33Zm-22.45-.12,0-.16H71.31l0,.15Zm14.85,0,0-.2H79.22l0,.19Zm-22.5-.11,0-.16H58.41l-.09.16ZM25.89,220l0-2.13,6.78-4.32c.17-9.1.43-44.09.43-44.09l1.62,1.07-.32,43.82s-6,3.86-8.48,5.65Zm17.78-1.71h-.23l-.07-.49h.4ZM43.19,217h0l-.18-.66h1l-.12.64Zm-17.1-.35v-1.39l5.85-3.66V213Zm18-1.16-1.53,0-.3-.77h2Zm37.55-.41-1-.15a47.23,47.23,0,0,1-3.36-15.41c-.93-6.5-2.82-13-4.13-15.74h1.5a77.78,77.78,0,0,1,4,15,28.34,28.34,0,0,1,.16,3.14,48,48,0,0,0,2.85,13.21Zm-1.92-.23-1.31-.13c-.91-4-2.24-7.73-2.78-11.73-.86-6.39-1.33-12.92-4.4-19.22h1.22a53.68,53.68,0,0,1,3.77,13.52c.58,2.75.59,4.82.9,7.31a65.23,65.23,0,0,0,2.61,10.25Zm-2-.19-1.31-.19c-.86-3.95-2.33-8.29-2.72-11.86-.8-7.27-1.93-14-4.22-18.83h.92c3.54,6.86,3.59,13,4.58,19.42C75.6,207,76.84,210.79,77.77,214.69Zm-2.08-.31-1.15-.18c-.8-3.93-2.24-8.38-2.58-12.36a50.56,50.56,0,0,0-4.46-18h1.08c3.16,5.55,3.59,12.29,4.57,19.19C73.7,206.79,74.93,210.62,75.69,214.38Zm-49.61,0v-1.72l5.85-3.76v1.7ZM73.81,214l-1.21-.19c-.78-3.79-2.22-7.83-2.56-11.52a59,59,0,0,0-4.34-18.54h1.11a49,49,0,0,1,4.46,18C71.57,205.66,73,210.32,73.81,214ZM42,214l-.63-1.16h3l0,1.15Zm29.86-.36-1.43-.28c-1.52-6-1.92-11.77-3-17.51-1.29-7.14-2.65-10.75-3.77-12.08h1.19c2.89,6.18,3.92,12.31,4.59,18.67C69.84,206.22,71.07,209.92,71.82,213.66Zm-2.19-.41L68.54,213a106.08,106.08,0,0,1-2.46-14c-1-8.49-3.87-14.91-4.47-15.21h1.21c2.61,3.62,3.58,9.79,4.86,18.48C68.25,206.1,68.81,209.69,69.64,213.26Zm-1.76-.35-1.22-.3s-1.1-4.35-1.94-10.11c-.69-4.81-1.06-14.27-6.28-19.71-2.6-2.72-7.19-5.07-10.32-2.51a4.26,4.26,0,0,0-1.4,4.93c1.35,3.28,5.93,2.72,4.41-.72-.17-.82.9-.86,1.65-.05a2.11,2.11,0,0,1,0,2.74c-1.18,1.9-4.33,2.1-6.18.4-3-2.9-1.68-7.87,2.06-9.45a6.16,6.16,0,0,1,2.53-.48c3.75.06,7.75,3.11,9.54,6,3.64,6.29,4.2,12.27,5.05,18.62.43,3.43,1.27,7,2.05,10.6ZM66,212.39l-1.24-.3S63.43,206,63,202.35c-.56-4.47-1.17-9.75-3.08-13.81a15.37,15.37,0,0,0-4.67-5.9c-1.5-1.07-2.85-1.74-4.85-1.3-2.31.5-2.41,4.09-.21,4.09,1.13,0,.39,1.09-.54,1.12-3.32.11-3.42-5.14-.29-6.31a5.78,5.78,0,0,1,2-.37c2.95,0,5.87,2.15,7.82,4.73,4.2,6.53,4,12.48,5,17.74A99,99,0,0,0,66,212.39Zm-25.14-.18-.76-1,4.22,0,0,1Zm23.29-.34L63,211.46a90,90,0,0,1-1.91-10.35c-.86-5.4-1.14-9.9-3.93-13.8-1.16-1.62-3.36-3.79-4.74-4-.86-.19-1.74,0-2,.65-.36,1.07-1.27.58-1.29-.39a1.78,1.78,0,0,1,1.34-1.63,4.53,4.53,0,0,1,.76-.07c3.8,0,7.17,4.68,8.24,7.14,1.54,3.81,2.2,8.07,2.87,13.37.28,2.24,1.64,9.4,1.8,9.54Zm-38.1-.19,0-1.71,5.83-3.68V208Zm36.31-.33L61.06,211a80.23,80.23,0,0,1-1.77-9.32c-.67-5.22-2.12-11.3-4.82-14.43a6.66,6.66,0,0,1-.52-.69c-.19-.43,0-1.15.24-1.15,4.81,2.51,5.94,12.58,6.36,16a80.75,80.75,0,0,0,1.85,10Zm-18.14-.93h-4.8l-1-1H44.2Zm-18.17-1.27v-1.42L31.93,204v1.45Zm15.56-.54c-1.43,0-3.15,0-4.3,0l-2.13-1.26a13.46,13.46,0,0,1,1.49,0c2.71,0,8.17,0,8.17,0a3.34,3.34,0,0,0-.66,1.26ZM26.08,206.9v-1.7l5.85-3.67v1.6Zm19.26-.32-10.13-.11v-.88H46.92Zm1.78-1.93-11.91,0v-1.19H45.92Zm-21-.23v-1.78L31.93,199v1.69Zm19.1-1.91s-6.64,0-10,0l1.95-1h6.56Zm-19.1-.58v-1.68l5.85-3.68v1.65Zm17.7-1.28H38.1l1.11-1.08,4.74.06Zm-17.7-1.18v-1.8l5.85-3.58v1.56ZM44,198.83H40l.72-.92h3.42Zm35.19-.53c-.46-4.9-2.27-9.87-3.89-14.5h1.29A56.27,56.27,0,0,1,80,195.06,19.89,19.89,0,0,0,79.19,198.3Zm-34.93-1.16h-3l.66-1.22h2.45Zm-18.18-.28v-1.57l5.85-3.6v1.43Zm18.28-1.59h-2l.47-1.1h1.55Zm-18.28-.85v-1.68l5.85-3.63v1.62Zm54.41-.3a51.16,51.16,0,0,0-3.37-10.33h1.1s0,0,0,0h0c.29.16,3,8.54,3,8.54s-.23.59-.79,1.79Zm-36.11-.76H43.2l.2-.67,1,0Zm-.11-1.48h-.62l.15-.6h.38Zm-18.19,0V190.5l5.85-3.71v1.28Zm55.76-.15c-.89-2.64-1.76-5.33-2.81-7.91h1.31a66,66,0,0,1,2.31,6.83Zm1.32-1.76L81,183.79h1.24a52.48,52.48,0,0,1,1.94,5A11.87,11.87,0,0,1,83.17,189.94Zm-57.08-.38V188l5.85-3.62v1.38Zm58.55-1.16c-.68-1.45-1-3.09-1.75-4.61h1.53a27.4,27.4,0,0,1,1,3.87Zm1.4-1.2a28.53,28.53,0,0,0-1-3.42h1.43a8.88,8.88,0,0,1,.45,2.67Zm-60-.23V185.3l5.85-3.52v1.56Zm61.4-.93a15.49,15.49,0,0,0-.35-2.26h1.29a6.65,6.65,0,0,1,.14,1.55Zm1.74-1.15s-.09-1.12-.1-1.11h2C90.45,184.15,89.22,184.91,89.22,184.91Zm-63.14-.63v-1.34l5.85-3.65v1.36Zm69.52-2.13-35.13-.05A7.25,7.25,0,0,0,59,180.48c6.69,0,13.34-.11,20.41-.14s14.54,0,22.88.14l-1.84,1c-1.46.26-3.22.15-4.83.71ZM26.08,182v-1.48l5.85-3.55v1.43Zm98.86-1.42a15.54,15.54,0,0,1,7.43-1.4c4.24.34,10.73-1.43,12-5.52.41-1.44.41-1.48-.36-2.22a2.45,2.45,0,0,0-.83-.61,9.13,9.13,0,0,1-2.56,2.06c-3.79,1.37-7.22.26-10.7,1.22-2.8.77-5.33,3.06-5,6.47Zm.12-.37c.48-5.65,6.58-6.38,9.26-6.22,5.44.33,7.58-1.3,8.44-2.31.14-.14.25-.19.33-.17s.1.09.08.21c-.63,3.13-5.67,3.24-8.21,3.21-6.22-.28-7.8,2.72-7.62,2.75.47-.21.82-.4,1.3-.63.21-.09.16,0,.7.35,0,0,.62-1.44,1.42-.11,0-.07.57-1.18,1.65-.14,0-.11.66-1.06,1.72-.09,1-.86,1.47-.38,1.9.22.31-.19,1.24-1.44,2-.09.82-.52,1.17-1.09,1.87-.75,1.65-.3,3.07-2,3.66-3.54.18-.53.55-.62.59,0,.2,1.62-2.47,4.43-5.14,5.2a20.28,20.28,0,0,1-8.06.86,17,17,0,0,0-5.89,1.28Zm-66.65-.43-1.65-1.12,28.66-39.7H88Zm46,0h-3.26v-5.4h2.81l1,1.49a1.77,1.77,0,1,0,.84,1.25l1.05,1.56a16.25,16.25,0,0,1-1.51.74c-.28.12-.94.35-.94.35Zm-10,0H88.82v-5.4h5.52Zm-12.1,0H76.53v-5.4h5.71Zm-12.34,0H64.2v-5.4h5.71Zm-43.74-.13-.09-1.68,5.85-3.56V176ZM67.26,179a1.85,1.85,0,1,0-1.85-1.85A1.85,1.85,0,0,0,67.26,179Zm24.31-.1a1.85,1.85,0,1,0-1.85-1.85A1.85,1.85,0,0,0,91.57,178.92Zm-12,0A1.85,1.85,0,1,0,77.68,177,1.85,1.85,0,0,0,79.53,178.89Zm18.28-.24a1.55,1.55,0,1,1,1.55-1.55A1.55,1.55,0,0,1,97.8,178.64Zm-36.72-.05a1.43,1.43,0,0,1-1-.37l1.69-2.3a1.43,1.43,0,0,1-.73,2.67Zm12.22,0A1.55,1.55,0,1,1,74.86,177,1.55,1.55,0,0,1,73.31,178.58Zm12,0A1.55,1.55,0,1,1,86.89,177,1.55,1.55,0,0,1,85.34,178.58Zm18.71-.11a1.16,1.16,0,1,1,1.16-1.16A1.16,1.16,0,0,1,104.06,178.47Zm3.54-.06a84.77,84.77,0,0,1-17.38-39.49h1.65a87.15,87.15,0,0,0,17.25,38.88Zm-40.34,0a1.22,1.22,0,1,1,1.22-1.22A1.22,1.22,0,0,1,67.26,178.4Zm24.31-.1a1.22,1.22,0,1,1,1.22-1.22A1.23,1.23,0,0,1,91.57,178.3Zm-12,0A1.23,1.23,0,1,1,80.75,177,1.22,1.22,0,0,1,79.53,178.26Zm-30.64-.88c-.65-5,.63-8.18,4.42-8.7,4.83-.66,5.45-1,5.48-5.61,0-5.42.83-7,4.67-7.42,4.32-.48,5.32-1,4.93-6.37-.28-3.92,1.26-5.59,4.58-6.32,2.6-.57,4.85-1.43,5.81-4.06h2.37c-.62,4.13-4.76,6.07-7.42,6.2-2.86.68-3.46,1.64-3,6.67.35,3.79-1,4.94-5.48,5.8-3.55.7-4.42,1.72-4.23,4.63.41,6.24,0,7.17-3.53,7.93-1.8.43-4.74.62-5.86,2-1.27,1.57-.95,2.91-.83,4.83Zm-22.81-.17v-1.63L31.93,172v1.59Zm85.93-1c1.25-5.41-3.05-6.58-5.67-7.49-3-1.06-3.78-2.6-3.43-8,.26-4.06-.19-5-2.81-6.36-4-2.08-5.1-5-3.31-9.35,1.1-2.66.52-3.84-.17-6.16h1.95a7.56,7.56,0,0,1,.38,6.52c-1.66,3.76-1.62,5.64,2.09,7.33,2.87,1.31,3.75,2.54,3.93,5.23a19.81,19.81,0,0,1-.2,4.16c-.33,3.11.77,4.44,5.35,6.15,2,.76,3.43,2.53,3.85,5.34a7.48,7.48,0,0,1,0,1.69Zm-68.54-.59L26,164l.12-2.58,18.49,12.38Zm11.23-.26a1.53,1.53,0,1,1,1.53-1.53A1.53,1.53,0,0,1,54.7,175.41Zm54.83-.67a1.39,1.39,0,1,1,1.39-1.38A1.38,1.38,0,0,1,109.53,174.74Zm-83.4-.16.06-1.56,5.74-3.56V171Zm83.39-.65.32-.48.26-.51-.57,0-.57,0,.26.51Zm-6.2-.37H63.52l1-1.37h37.79Zm13.77-.07h0c-5.27-6.88-10.45-14.09-14.45-27.45l1.7-.66a80.53,80.53,0,0,0,14.35,27.2Zm-91-1.23v-1.71l4.4-2.68,1.29.85Zm93.34-.18-.78-1c1.58-1.41,4.54-2.81,4.91-4.63a3.08,3.08,0,0,0-3.07-3.59c-2.22.15-3.91,1.72-5.84,2.93l-.67-1s3.34-2.51,5.31-3.08a4.4,4.4,0,0,1,1.55-.17,4.52,4.52,0,0,1,2.78,7.63,16.43,16.43,0,0,1-2.33,1.69c-.84.54-1.86,1.24-1.86,1.24Zm-17.72-.68-36.59-.22,23.36-32.27h1a88.19,88.19,0,0,0,12.18,32.49Zm16-1.36-2.14-3a19,19,0,0,1,3.69-2.6,2.27,2.27,0,0,1,1-.29,1.77,1.77,0,0,1,1.65,2.77C120.7,168.59,117.65,170,117.65,170Zm-91.57-.31v-1.56l2.53-1.56,1.16.74Zm91.75-1.2a5.12,5.12,0,0,0,3.36-2.2.9.9,0,0,0-.07-1.08.67.67,0,0,0-.66-.3,4.11,4.11,0,0,0-1.31.53c-2.48,1.33-3,2.11-1.86,2.89a.93.93,0,0,0,.53.16Zm.06-.61a1.16,1.16,0,0,1-.38,0c-.45-.12-.3-.71.15-.84.1.16.84.18.79-.58.18-.43.18-.4.72-.46a.59.59,0,0,0,.67-.32,1,1,0,0,1,.57-.12.4.4,0,0,1,.35.21c.08.22-.23.86-.49.86s-.35.18-.58.34c0,.42-.48.47-.62.47a.82.82,0,0,0-.83.35.62.62,0,0,1-.36.15Zm-91.8-.4v-2.41l1.84,1.18Zm101.52-.3a67.74,67.74,0,0,1-14.52-27.88l1.34-.92c2,8.14,5.13,16.74,14.32,27.92Zm-78-.13a54.72,54.72,0,0,1-17.74-34.91l1.65-1A56,56,0,0,0,50.71,165.7Zm6-.72a1.53,1.53,0,1,1,1.53-1.53A1.53,1.53,0,0,1,55.6,166.38Zm73.85-.6s-1.4-1.44-1.4-1.79c0-.68.54-1.07,3.76-2.24.54-.2,2.92-.75,2.92-.75l-.06,1.18c-1.21.44-4.33,1.2-4.56,1.89-.12.27.46,1,.34,1Zm-22.2-.29a1.39,1.39,0,1,1,1.39-1.39A1.39,1.39,0,0,1,107.26,165.49Zm-56.09-.4a56.14,56.14,0,0,1-16.91-34.61C46,120.92,54,108.91,57.13,93.88c1.56,2.61,2.9,5.62,4.34,8.55-15.65,13.78-18.95,38.59-5.41,56Zm56.05-.36.32-.48.26-.51-.57,0-.57,0,.26.51Zm5.55-1.51-.71-1.09c1.27-1.2,5.15-2.29,5.5-4.91.19-1.9-1.15-3.9-3-3.59a15.12,15.12,0,0,0-5.47,2.35l-.55-1.14a16.93,16.93,0,0,1,4.51-2.35,4.62,4.62,0,0,1,1.54-.29c2.17,0,4,1.62,4.39,4.25.36,2.35-.66,3.61-4.74,5.93-.46.24-1.44.86-1.44.86Zm-48-.52a1.53,1.53,0,1,1,1.53-1.53A1.53,1.53,0,0,1,64.78,162.69Zm62.24-.06-.92-.87a10,10,0,0,1,2.67-2c2-1.23,2.25-1,1.23-1.89-1.9-1.6-4.52-5.16-4.51-6.07s.8-1.7,2.32-2.38c.83-.37,4.11-1.55,4.6-1.63,1-.11,1.23-.49.27-1.36-1.63-1.87-3-5.88-2.46-7.1.63-1.38,1.39-1.61,7.42-1.89.69,0,1,.17.64-.72a21.51,21.51,0,0,1-1.09-4.24c-.48-2.42-.4-3.51.54-4,.54-.29,4.74-.19,6.47.15,2,.39,2.2.42,1.88-.88-.42-1.79-.68-6.58.67-7.5a1.22,1.22,0,0,1,.74-.21h0a11.69,11.69,0,0,1,2.88.76c1.57.53,2.93,1.14,2.93,1.14l0,1.49c-1.28-.53-4.79-2-5.79-1.57-1.18,1.7.46,7.66,1.09,8.94.76,1.52,0,1.86-1.78.91-.92-.65-8.82-3.77-8.37-1s1.34,5.66,3,7.56.77,2.47-.94,1.7c-3-1.36-9.31-1-9,.38.41,2.29,2.49,5.39,5.33,7.8.79.67.82,1-.11,1.12-2.66.21-10.26,1-9.19,2.78a18.29,18.29,0,0,0,3.17,4,14,14,0,0,0,4.18,2.35l0,1.1c-3.46.29-5.26,1.33-7.81,3.12Zm8.38-1.08c1.24-13,6.69-23.77,17.92-31.26l.06,1.46c-9.88,7.43-14.62,18-15.9,28.22Zm-9.54-.62-.92-.83a9,9,0,0,1,1.57-1.43c1-.8.67-.48,0-1.43-.63-.75-1.74-2.27-1.74-2.27l.33-2a33.82,33.82,0,0,0,3.88,4.66c.88.91.83.94-.43,1.59-.94.52-1.71,1.16-2.65,1.71Zm-14.35-.17a37.16,37.16,0,0,1-1.86-3.59c1.5-.94,3.27-2.29,4.69-2.24a1.92,1.92,0,0,1,1.65,1.13,2,2,0,0,1-.95,2.58,24.66,24.66,0,0,1-3.53,2.11Zm-10.87-1.13a1.39,1.39,0,1,1,1.39-1.39A1.38,1.38,0,0,1,100.64,159.64Zm11.2-.12a11.23,11.23,0,0,0,3.34-2.05c.26-.19.05-1.14-.2-1.47a.75.75,0,0,0-.68-.28,2.35,2.35,0,0,0-1,.33c-.3.17-.85.44-1.21.61-1,.47-1.44.82-1.4,1.21S111.31,159.56,111.85,159.53ZM138.4,159c-.28-1.46.6-4,1.09-5.48,3-3.87,7.24-5.85,11.31-7.2a4.6,4.6,0,0,1,1.4-.19,6.61,6.61,0,0,1,.72,0A99.92,99.92,0,0,1,138.4,159Zm-26.7-.14c-.21,0-.34-.37-.45-.73.64-.34,1-.05.91-.53,0,0-.06-.75.87-.77a.81.81,0,0,0,.81-.11.92.92,0,0,1,.24-.06h.19c.42,0,.63.44.08.69-.19.09-.66.24-.79.53s-.37.65-.69.45c-.17,0-.56,0-.69.24s-.35.33-.47.31Zm-11.07-.08.32-.48.26-.51-.57,0-.57,0,.26.51Zm49.33-.53.33,0c.27-.26.71-4.29.43-4.58a1.46,1.46,0,0,0-.91-.35c-.34,0-.64.07-.69.31a37.11,37.11,0,0,0-.42,4.1,1.53,1.53,0,0,0,1.26.56Zm-.42-.43c-.6-.25-.31-2.39,0-3.38.08-.3.24-.42.39-.39h0c.16,0,.32.2.4.48a5.54,5.54,0,0,1-.31,2.88c-.18.32-.35.45-.49.41Zm-26.1,0-1-1.2c2-19.45,15.91-36.27,30.71-42.94l0,1.29c-16.94,8.91-27.13,23.75-29.79,42.85Zm-67-.08-1.84-2.53,2.63-.08Zm78.75-.82c-.91,0-5.73-3-5.09-4.46.38-.88,2.75-1.16,4.69-1.17.65,0,1.25,0,1.71.06l-.28,1.14a7.87,7.87,0,0,0-2.71,0c-2.26.15-2.09.93.5,2.57l1.37.87Zm-13.37-1.6a68.69,68.69,0,0,1-4.24-8.55c18.24-17.24,16.82-40.72,5.32-56.13l5-6.7A56.92,56.92,0,0,1,145,117.44c-14.46,10.42-21.26,26-23.16,37.89Zm-67.72-.76L53,152.48l2.62,0Zm11.29-1A1.53,1.53,0,1,1,66.9,152,1.53,1.53,0,0,1,65.37,153.52Zm42.44-.41-.52-1.18c0-.15,3.66-1.35,4.89-2.83,2.53-3.07-.55-5.75-3.22-4.94a23.26,23.26,0,0,0-4,1.79l-.26-.77c1.91-1,3.52-2.22,5.61-2.26a4.15,4.15,0,0,1,2.54,7.35A24.5,24.5,0,0,1,107.81,153.11Zm-47.7-.73c-11.89-17.19-3.75-36,3.93-42.68l.21,2a32.46,32.46,0,0,0-3,39.65Zm-7.65-.77-.93-2.12,2.76.29Zm47.94-.69a1.39,1.39,0,1,1,1.38-1.39A1.39,1.39,0,0,1,100.4,150.91Zm-38.87-.27c-10.43-15.17-4.61-39.37,15.27-46.74l.1,1.7c-20.28,8.49-22.27,31.1-14.12,43.86Zm45.19-.09L105.41,147a10,10,0,0,1,4.16-1.75,2.1,2.1,0,0,1,.36,0,1.77,1.77,0,0,1,1.12,3.21,18.19,18.19,0,0,1-4.33,2.15Zm33.81,0c-.25,0,0-.6.64-2.12,1.39-3.36,1.48-3.43,5-4a19.71,19.71,0,0,1,3.47-.29c.34,0,.66,0,1,.06,1.95.19,2.78.74,1.52,1a31.49,31.49,0,0,0-10.34,4.54,5,5,0,0,1-1.26.8Zm-66.27-.41A1.72,1.72,0,1,1,76,148.4,1.72,1.72,0,0,1,74.27,150.11Zm26.15,0,.32-.48.26-.51-.58,0-.57,0,.26.51Zm25.44-.47.38-1.32s2.11-1.12,3.12-1.54c.77-.31.82-.38.57-1.09a26.41,26.41,0,0,0-1.45-3.18l.88-2a24,24,0,0,0,2.1,5.39c.94,1.31,1.12,1.48-.35,1.75a32.58,32.58,0,0,0-5.25,2Zm-18.65-.43c1,0,3.2-.92,3.41-1.75.12-.47,0-1.13-.41-1.28a1.65,1.65,0,0,0-.45-.09,4.65,4.65,0,0,0-3.36,1.39c-.18.25.09.77.28,1.09s.12.66.52.64Zm0-.7h-.12c-.18,0-.81-.79-.1-.73a.8.8,0,0,0,.67-.28c0-.39.58-.54.85-.4a.43.43,0,0,0,.51-.23,1.16,1.16,0,0,1,.62-.22c.19,0,.33,0,.36.15s-.27.74-.62.72a1.62,1.62,0,0,0-.56.37c-.11.41-.54.33-.81.31s-.53.3-.8.32Zm-56.07-.07-.76-2.13,2.73.24ZM63.81,148a1.32,1.32,0,0,1-.92-2,1.87,1.87,0,0,1,1.91-.69,2,2,0,0,1-.32-2.64,1.15,1.15,0,0,1,.88-.34c1,0,2,.92,1.91,1Zm74.23-.78s-4.21-3.63-4.24-5.26a.83.83,0,0,1,.68-1,2.84,2.84,0,0,1,.74-.12,22,22,0,0,1,5.51,1l-.59,1.12c-.72-.2-4.29-1.12-4.59-.67s3,3.69,3,3.7Zm-20.88-1.52-.51-1.76,1.72.43ZM50,145.36l-.45-2.43,2.76.64Zm52.51,0-.41-1.43c18.27-8.49,23.61-28,14.08-44.07l1.08-1.48c12.75,20.7-.16,41.72-14.75,47Zm41.56-1.43c-.3,0-.44-.14-.38-.42a16.23,16.23,0,0,1,2.44-3.18,1.61,1.61,0,0,1,.64-.08c1.84.07,5.74,1.85,6.4,3.27.15.47-.35.27-1.45,0-2.67-.76-5.38.1-7.31.35a2,2,0,0,1-.35,0Zm-48.63,0a1.39,1.39,0,1,1,1.38-1.39A1.39,1.39,0,0,1,95.43,143.86Zm23.54,0-.25-2.16,2.12.12Zm-23.53-.76.31-.48.26-.51-.57,0-.57,0,.26.51Zm57.55-.92a11.87,11.87,0,0,0-5.25-2.65c-1.13-.25-.8-.36.24-1.45.61-.64.81-.93,1.12-.94a1.92,1.92,0,0,1,.78.29c1.66.84,3.47,2.76,3.4,3.81,0,.43-.11.94-.29.94ZM49.2,141.92l-.34-2.3,2.6.9Zm72.35-.83L120.7,139l2.31.07Zm-57.16-.49a1.4,1.4,0,0,1-1.52-1.48,7.17,7.17,0,0,1,.07-.78c-1.36.87-3.16.16-3.11-1.24.08-2,1-2,2.61-1.73-.86-1.43.16-2.81,1.78-2.28s1.19,2,.5,3a3.59,3.59,0,0,0,.39-7c.81,1.25,1,2.75-.74,3s-2.32-1-1.62-2.49c-1.53.53-3-.35-2.51-1.84.56-1.8,2.16-1.68,3.1-.58A1.58,1.58,0,0,1,65.42,125c1.87,1,.94,2.78-.31,3.25,4.8.5,5.92-6.16,2.38-7.11.91.57,1,3.19-1.06,2.83s-1.55-2.31-.25-3.17c-1.58.34-3.06-1-2.09-2.44,1.13-1.65,2.69-.47,3.27.65-.18-1.5.77-2.46,2-1.9,2.11,1,.55,3.39-1.1,3.24,3.34,2,7.89-2.17,5.21-5.61.1,1.56-.67,2.84-1.74,2.66a1.77,1.77,0,0,1-1.5-2,2.55,2.55,0,0,1,1.93-1.45c-2.56-.28-2.77-2.1-1.72-3a2.23,2.23,0,0,1,1.18-.59c1-.1,1.56,1.08,1.87,1.84.37-2.54,3.36-1.68,3.46.16.1,2-2.22,2-2.65,1.86a8.41,8.41,0,0,0,4.1,2.25v.72A19,19,0,0,0,70.08,139l-.47.54c-1.27-1-2.54-3.05-4.89-2.29a8.41,8.41,0,0,1,.82.65c1.21,1.19.53,2.6-1.15,2.67Zm51.26-1.47-.81-1.19c11.8-13.84,9.65-29.69,2.86-40.17l1-1.2C124.7,104.28,129.6,123,115.65,139.12Zm37.39-.17a20.66,20.66,0,0,1-2.53-2.16c-.7-.57-.69-.67-.11-1.22a1.25,1.25,0,0,1,.88-.43c.78,0,1.27,1.19,1.59,1.75C153.37,137.89,153.42,138.91,153,138.95Zm-45.87-.06a1.65,1.65,0,0,1-1.57-1.68,4.3,4.3,0,0,0,0-.56,5.16,5.16,0,0,0-.46.69c-1,1.69-3.17.72-2.82-1.22.17-.91,1.7-1.26,2.11-1-.4-1.08-1.47-1.34-2.77-1.81-.46-.09-1.36-.31-1.36-.31v-.73c7.08-4.47,11.18-12,8.58-22.39l.78-1.06c1.43,3.44,2.73,3.36,5.08,3.5a6,6,0,0,1-.92-.81c-.71-.84-.4-2.31.59-2.46,2.28-.35,2.3,1.27,2,2.36,0,0,.41-.34.61-.47a1.4,1.4,0,0,1,2.14,1.19c.1,1.1-.28,1.81-1.41,1.95a4.32,4.32,0,0,1-1-.05l.35.68c.54,1.06-.65,2-1.74,1.74-1.72-.42-1.59-1.9-.59-3.07-2.67-.2-4.07,1.55-3.87,3.28a3.63,3.63,0,0,0,3.31,3.63s-.34-.53-.48-.79a1.46,1.46,0,0,1,1.36-2.12,1.51,1.51,0,0,1,1.45,2.12c-.11.26-.54.58-.48.6s.64-.17.81-.19a1.53,1.53,0,0,1,1.7,2.23,2,2,0,0,1-2.56.68c-.14-.05-.32-.25-.34-.21a3.87,3.87,0,0,0,.13.53c.29,1.12-.25,1.72-1.46,1.64-1.7-.11-2.33-1.5-1.19-2.75l.75-.8c-.06-.25-2.42-.42-3.63.84-1.4,1.47-1.62,4.52-.21,5.52l.7.49c-.67-1.34.56-2.89,1.65-2.6,2.17.52,2,2.31.56,2.87a5.34,5.34,0,0,1,1.87,1.13,1.46,1.46,0,0,1-.32,2.17,2,2,0,0,1-2.77-.64c-.37,1.13-.89,1.89-2.43,1.28-1.08-.51-1.07-2,.12-2.74a5.94,5.94,0,0,1,1.05-.48,5.19,5.19,0,0,0-2.26-.59,3.71,3.71,0,0,0-3.32,5,5.31,5.31,0,0,0,.68,1,4,4,0,0,1,.2-1,1.62,1.62,0,0,1,2.58-.42,1.33,1.33,0,0,1,0,2,3.56,3.56,0,0,1-1.33.77c.64.22,1.35.37,1.66,1a1.6,1.6,0,0,1-1.5,2.12Zm-58.58-.29-.16-2.44,2.71,1Zm74.84-.15-1-2.22H125Zm-52.7,0c-2.37-8.78,1.36-15.56,7.69-20.5v1.4c-4.94,4.21-8.34,9.17-6.71,18Zm72.67,0s-3.66-4.75-2.93-6.36a1.08,1.08,0,0,1,1-.4c1.95,0,5.75,2.21,5.69,2.35l-.73.7c-.92-.37-3.77-2-4.4-1.7-.22,1.44,1.46,3.3,2.1,4.53ZM99.78,138H72l.83-1.34H75l4.3-7.87h20Zm31.21-.37,1-1.74c.9-.28,3.61-.33,3.83-.51a27.33,27.33,0,0,1-.69-3.51l1.07-1.37c.29,1.69.76,3.82,1.18,5.38.36,1.33.26,1-2.56,1.25a25.07,25.07,0,0,0-3.8.5Zm-5.7-2.1-1.14-2,2.32,0Zm27.84-.14c-.13.05-.85-.75-1-1a.91.91,0,0,1,.8-.68c.1,0,.17,0,.2.06a6.4,6.4,0,0,1,0,1.59,0,0,0,0,1,0,0Zm-104.89,0,0-2.54L51,134.06Zm-21.87-.57,0-1.65c10-4.89,25-18.14,29.23-41.67l.78,1.16a61.82,61.82,0,0,1-30,42.16Zm100.48-2.27-1.24-1.87,2.24-.24Zm-78.66-.72.22-2.25,2.71,1.51Zm52.09-.47c0-.53,0-.92,0-1.46,6.15-4,8.23-10.27,7.21-18.18l.85-1.26a18.41,18.41,0,0,1-8.06,20.9Zm50.48-.31s-2.35-5.29-1.42-6.53a1.21,1.21,0,0,1,.86-.23,9,9,0,0,1,3.06,1.21l0,1.26s-.72-.37-1.45-.66c-1.49-.66-1.49.13-.68,2.33.29.78.57,1.68.57,1.68ZM29,130.89a19.64,19.64,0,0,0-2.66-1l0-1.5,4.19,1.5Zm99.3-1.63-1.6-1.68,2.24-.51ZM31,129.06a2.48,2.48,0,0,1-.47,0,15.51,15.51,0,0,1-4.16-1.16l0-1.66a36.37,36.37,0,0,0,4.47,1.39c1.16.16,1.09-.49,1.1-2.13A14.42,14.42,0,0,0,30.37,119c-.88-1.84-.42-2.34,1-1.51,2.59,1.78,8.1,3.12,8.95,2.08s-.85-6.36-2.83-8.89c-.81-1-.71-1.1-.34-1.5s.66-.44,1.53-.16c2.86.91,7,1.12,8.2.35s-1.9-6.07-4.49-7.79c-1.68-1.2-1.36-1.8,1.36-1.86,4.43,0,7.85-1,7.66-2.23-.32-2.06-3.19-4.89-6.49-6.39-2-.83-1.17-1.15.17-1.63a43.79,43.79,0,0,0,6.51-3.11l1,1.3s-2.12,1.35-4.43,2.65c-.54.3-.51.42.24,1.05,2.46,2.07,4.26,4.37,4.64,5.92s-.38,2.46-2.62,3.31a18.22,18.22,0,0,1-3.11,1c-1.76.39-1.79.45-1,1.8l1.22,2.23c2.62,4.48,1.24,6.1-4.83,6.19-1.49.08-1.78.08-1.69.6.32,2.11,1.26,4.53,1.12,6.32-.28,2.7-3,3.35-7.91,2.13-1.13-.28-1.21-.22-1,.69.88,3.85.08,7.35-2.19,7.51Zm17.39-.3.43-2.61,2.59,1.73Zm96.93-.62-7.15-.47,1.14-1.34,4.32.08.16-3.69,1.4-1.37ZM99,127.86H93.17v-6.23H99Zm-7,0H86.52v-6.23H92Zm-6.56,0H79.62v-6.23h5.82Zm-51.3-.5a37.52,37.52,0,0,0-.33-5.74c0-.19.13-.26.4-.25a10.74,10.74,0,0,1,1.49.29,22.53,22.53,0,0,0,4,.46l-1.24,1.31c-1-.12-1.81-.11-2.86-.24,0,1,0,3.05,0,3.05Zm95.11-1.23-1.64-1.66,2.1-.54ZM49,125.59l.65-2.67L52,125.07Zm-19.25-.07a4.56,4.56,0,0,1-3.28-1.34v-1.36l2.34,1.05a13.59,13.59,0,0,0-1.35-4.35l1.19-1a11,11,0,0,1,1.61,5.25c0,.64.08,1.73-.5,1.76ZM130,122.83l-2-1.16,2.17-.88Zm-80.32-.6,1-2.74,2.09,2.37Zm103.55-.87-5.54-2,1.2-.81,4.38,1.39Zm-54.06-.73H79.35l-.43-9.72,27.84.23-1,1.38H104Zm31.21-.76-2.07-1.46,2.15-1ZM26.32,119v-1.59C33,112.45,40.39,104,41.62,88.8l1.73-1.55c-.89,14.8-7,24.91-17,31.76ZM50.84,119l1-2.47,1.93,2.3Zm-8-.46a38.63,38.63,0,0,0-1.15-6,23.19,23.19,0,0,0,5.59-.44l-.93,1.67s-.86.09-1.62.24c-1.56.31-1.4.12-1,1.48a12.2,12.2,0,0,1,.36,1.54A13.82,13.82,0,0,1,42.83,118.5Zm-5.13-.31c-1.83,0-4.57-1.66-5.8-2.59l.65-.73c.18-.06,2.75,1.31,4.76,1.64a24.82,24.82,0,0,0-2.43-4.35l.94-1.17c.28.06,3.94,5.71,3,6.93A1.89,1.89,0,0,1,37.7,118.2Zm107.88-1.26c-2.41-14.6-8.15-24.62-17.22-33.64l.92-1.21a56.29,56.29,0,0,1,18,33.91Zm-15-.61-2-1.07,2-1.18Zm-104.23,0v-2.14l1.23,1.24a7.59,7.59,0,0,1-1.24.9Zm25.84-.44,1.34-2.46,1.74,2.33Zm-23.94-1.06c-1.78-.25-2.35-3.81-1.76-4.5a23.64,23.64,0,0,0,3.83,2.6A7.69,7.69,0,0,1,28.25,114.78ZM56.83,113,54,112.68l1.51-2.35Zm73.72,0-2.22-1.08,2-1.42Zm-100.05-1a2.84,2.84,0,0,1-1.3-.45c-2-1.12-3.05-2.34-2.94-3.43,0-.31.15-.47.32-.45a.56.56,0,0,1,.34.22,9.65,9.65,0,0,0,4.25,1.84c1.29.25,1.4.36,1,1C31.59,111.49,31.11,111.91,30.5,111.9Zm34.27-1A65.57,65.57,0,0,0,49.34,82.69l1.54-1.1C56,87.52,61.72,94.47,66.36,109.48Zm36.3-.58H98.76c-.33,0,1-5.15,5.5-5.5,2.86-.48,3.18-1,3.23-5.42.06-6.05,1-7.47,6-7.84,3.27-.25,3.7-.91,3.15-5.61-.53-4.48,1.16-6.76,5.33-6.75,3.61-.3,5.1-2,5.09-5.33,0-1.36,0-1.68,0-1.68l2.33-.18a29.69,29.69,0,0,1-.18,3.28c-.71,4.33-2.57,6.07-6.47,6-3,.23-3.49.72-3.38,5.3s.18,4.63-1,5.85A4.73,4.73,0,0,1,115,93.73c-4.93.47-5.32.8-5.31,5.87.46,4.21-.71,6.79-3.38,7-5.31.4-5.25,3.7-5.25,3.7Zm-7.64,0H90.92L119.8,69.38l1.52,1.15Zm-3.5,0c-2.71-9.87-4.85-19.72-13.38-32.63l36.18.24Zm-.93,0H87.71C84.54,93.17,74.51,77,69,71.05l1.07-.57C78.1,80.46,85.39,92.11,89,110.29Zm-7,0H79.93c-.21.1-1.06-5.23.21-7.58,1.14-3.18.58-5-1.9-6.13-4.26-2-5.33-4-4.79-8.86.38-3.42-.66-5.08-3.86-6.18-3.82-1.31-5.5-3.37-5.48-6.75a4.18,4.18,0,0,1,.2-1.11l2.14-1.26s0,.46-.11,1c-.56,3.74.15,4.76,4.56,6.52,4.17,1.67,5.2,3.6,4.49,8.4a7.13,7.13,0,0,0,.74,4.35c1.09,1.95,3.5,1.93,5.23,3.7,1.43,1.52,1.59,3.65.37,7.28-.92,2.77-.9,4.07.26,6.6Zm-23.37,0-2.85-.43,1.67-2.13Zm71.57-.74-2.46-.68,1.85-1.92ZM32.7,109a9.26,9.26,0,0,1-3.81-.94c-3.06-1.53-3.62-2.78-.93-2.1a12.82,12.82,0,0,0,5.78-.22,12.29,12.29,0,0,1,1.62-.35c.46,0,.26.28-.21,1.12C34.19,108.2,33.93,109,32.7,109Zm11-.64a15.23,15.23,0,0,1-5.49-1.16l.56-1a14.6,14.6,0,0,0,4.35.65,15,15,0,0,0-2.87-3.49l.45-1c.11-.13,3.53,2.73,4.21,4.65.31.87,0,1.25-1.21,1.28ZM84,108.14a1.66,1.66,0,1,1,1.66-1.66A1.66,1.66,0,0,1,84,108.14Zm-34.35,0s-2.7-5.36-2.53-5.56c1.68-.74,3.5-1.12,5.35-1.79l-.35,1.56a12.1,12.1,0,0,0-2.67.83c-1,.38,1.08,3.12,1.08,3.12Zm11-.4-2.8-.5,1.87-2.1Zm52.39,0c-.66.05-1.69-1.23-1.68-1.24l3.4-4.7a1.46,1.46,0,0,1-.21,2.85c-.34,0-1-.06-1-.06a2.58,2.58,0,0,1,.72.6c1,1.2.05,2.44-1.25,2.55ZM84,107l.57,0-.26-.51L84,106l-.32.48-.26.51Zm-15.67-.49c-3.94,0-4-4.88-3.24-6.48.55-1.1,1.38-1.71,3.91-2.85,2.19-1,2.43-.92,2.43-.92l.52,1.17s-1.27.56-2.65,1.12c-2.84,1.15-3.53,2-3.22,4.08.44,2.91,2.68,3.36,7,1.41.5-.23,1.14-.45,1.14-.45l.3.59a29.61,29.61,0,0,1-5.38,2.29,5.58,5.58,0,0,1-.84.06Zm61-.53-2.23-.74,1.63-1.6Zm-99.41-.63c-2,0-3.6-.33-3.59-1,0-.33.08-.36,1.85-.61,2.69-.37,7.19-2.67,9.72-4.81a6.31,6.31,0,0,1,1-.77c.2-.06-.1.48-.5,1.63-.63,1.82-1.56,4-2.07,4.33-1.27.83-4.15,1.25-6.39,1.26Zm32.25-.25-1.9-.41,1.23-1.2Zm6.36-1a1.61,1.61,0,0,1-1.32-2.57c1.14-1.57,5.21-2.85,5.21-2.85l1.38,3.72S70.61,104.17,68.51,104.07Zm6.42-.45A82.28,82.28,0,0,0,59.48,76.39l1.37-.86a79.27,79.27,0,0,1,15.6,27.89Zm-48.49-.34c-.21,0-.33-.06-.29-.27.11-.51,7.9-8,12.42-11.84,1.54-1.3,1.89-1.62,2-1.61s.08,0,.12.1a21.66,21.66,0,0,1-1.29,6.71,24.4,24.4,0,0,1-12.2,6.78,4.82,4.82,0,0,1-.8.13Zm42.4-.1a9.29,9.29,0,0,0,2.39-.75c1.55-.6,1.68-1.32,1-2.21a.52.52,0,0,0-.41-.24,5.22,5.22,0,0,0-1.7.52c-1.52.6-2.17.87-2.27,1.41C67.72,102.7,68.16,103.19,68.84,103.17Zm-.08-.42c-.54,0-.52-.34-.58-.57s.35-.48.71-.47a1,1,0,0,0,.64-.28c.2-.28.32-.56.68-.49a1.07,1.07,0,0,0,.73-.08,1,1,0,0,1,.56-.27h.16a.49.49,0,0,1,.34.77.71.71,0,0,1-.59.23c-.2,0-.65,0-.71.29s-.52.37-.83.36a.73.73,0,0,0-.69.26.74.74,0,0,1-.41.24Zm35.65-.1a1.66,1.66,0,1,1,1.66-1.66A1.66,1.66,0,0,1,104.41,102.66Zm24,0-2.52-.34,1.58-2Zm-50.19-1.28a1.66,1.66,0,1,1,1.66-1.66A1.66,1.66,0,0,1,78.22,101.34Zm0-1.2.57,0-.26-.51-.31-.48-.32.48-.26.51Zm49.09-.68-2.73-.17,1.56-2.09Zm-14.4-.4a1.66,1.66,0,1,1,1.66-1.66A1.66,1.66,0,0,1,112.89,99.06ZM44.75,98c-1.14,0-2.46-.1-2.46-.1l.32-1.28c1.39-.13,3.17.25,4.66-.37-.55-.91-3.79-2.18-4.15-2.5a10.71,10.71,0,0,1,.27-1.35s0,0,0,0c.54,0,5.44,2.42,5.62,4.46,0,.74-2.4,1.14-4.3,1.17ZM63.89,96.7c-3.16,0-4.72-4.45-3.5-6.41,1.55-2.13,3.24-3,5.58-4.21l.83,1.28c-3.95,1.69-6.74,4.11-5,6.62,2,2.76,4.92.26,8.11-.91l.56,1C70.33,94,66,96.61,63.89,96.7ZM53.7,96.53a18.79,18.79,0,0,0-4.8-5.67s2.57-1.65,4.11-2.71l.9,1.06-2.21,1.9,2.49,3.47Zm71.93-.3h-2.48L124.22,94Zm-96.17-.41a39.86,39.86,0,0,0,.44-4.67,2.13,2.13,0,0,0-1.46-.72,11.72,11.72,0,0,0-.6,5,2.93,2.93,0,0,0,1.62.37Zm-.87-.48c-.18,0-.35-.27-.38-.7a7.4,7.4,0,0,1,.29-3c.09-.2.22-.29.34-.3s.42.24.44.68a12.38,12.38,0,0,1-.23,2.65c-.09.47-.28.67-.46.65Zm35.48-1.28c-1.63-.12-2.26-1.49-1.66-2.47,1.47-1.89,3-2.23,4.91-3.32l1.93,3.61S65.51,94,64.08,94.07Zm0-.81c1.08.05,1.76-.66,2.67-1.1,1.11-.54,1.47-1.39.72-2.15a.82.82,0,0,0-.67-.23,6.42,6.42,0,0,0-3.54,2C62.85,92.71,63.33,93.23,64.13,93.27Zm59.48-.15-2.43,0,1.31-1.86Zm-59.39-.23a.66.66,0,0,1-.36-.16.54.54,0,0,1,.25-1c.3-.08.8-.08.81-.47s.46-.4.71-.36.7.07.79-.26.21-.34.32-.36.23.06.39.21c.34.34.18.77-.48.84a.82.82,0,0,0-.62.45c0,.28-.18.44-.49.38a1.2,1.2,0,0,0-1,.57.43.43,0,0,1-.29.12Zm13.9-.2A1.66,1.66,0,1,1,79.77,91,1.66,1.66,0,0,1,78.12,92.68ZM78,91.45l.57,0-.26-.51L78,90.42l-.32.48-.26.51Zm35.48-1.83A1.66,1.66,0,1,1,115.19,88,1.67,1.67,0,0,1,113.53,89.63ZM43.92,88.39l0-.17V87.06a36,36,0,0,1,3.86-2c.5-.27.18-.89.15-1.44l.75-.53S49.83,84,50,84.43c.37,1.51-4.2,3.5-6,4Zm109.29-.23-19-13,1.3-1.9,17.64,12Zm-95.56-.33A5.53,5.53,0,0,1,53.95,82c1.41-2.65,3.07-3.46,5.44-4.91l.9,1.11C57.39,79.62,54,82,55.84,85c2,2.78,5.22-.2,8.27-1.59L65,84.53C62.58,85.54,60.19,87.77,57.66,87.82Zm13.45-.95a1.66,1.66,0,1,1,1.66-1.66A1.66,1.66,0,0,1,71.11,86.88Zm51.46-.47a1.66,1.66,0,1,1,1.66-1.66A1.66,1.66,0,0,1,122.57,86.41Zm-51.44-.76.57,0-.26-.51-.32-.48-.31.48-.26.51Zm-12.94-.72a2.06,2.06,0,0,1-1.38-.42c-2-2,2.37-4.59,4.08-5.53l2.39,3.31S60.4,84.86,58.19,84.93Zm0-.71c1.12.06,2.86-1.25,3.47-2,.38-.53.21-1.06-.52-1.75a.31.31,0,0,0-.15,0c-.88,0-3.86,2.08-3.79,2.64.09.78.48,1.1,1,1.13Zm94.9-.1-.53-.36.53-.42Zm-94.91-.3a.62.62,0,0,1-.44-.28.54.54,0,0,1,.41-.86.82.82,0,0,0,.74-.48.86.86,0,0,1,.78-.45.46.46,0,0,0,.62-.32.57.57,0,0,1,.44-.28.63.63,0,0,1,.52.2c.23.24-.18.93-.45.92,0,0-.34-.09-.7.39a.78.78,0,0,1-.76.55c-.3-.1-.47.23-.59.41a.89.89,0,0,1-.57.2Zm93.65-.53-.76-.52,2-1.44v1.16Zm-1.48-1-1-.69,3.78-2.71v1.47Zm-1.94-1.24-1.1-.73,5.78-3.91v1.51ZM146.32,80V78.76L153.08,74v1.27Zm-.76-.9-1.46-1-.37-42.61,9.11-6.27V31.1l-7.65,5.54ZM35.68,78c2-2.34,4.78-2.49,7.17-2.43,6.44-.09,10.44-.44,11.26-8.13-2.62,2-5.4,2.22-8.62,2.13-4.08,0-5.91.27-7.57,1.1-2.66,1.33-4.35,3.71-4,5.39C34.21,76.38,35,77.87,35.68,78Zm110.64-.37V76.11l6.76-4.54v1.5Zm-77.19-.14a1.66,1.66,0,1,1,1.66-1.66A1.66,1.66,0,0,1,69.12,77.45ZM35.4,77.21c-.37,0-.41-.47.34-1.21,1.43-1.4,2.91-2.09,7.61-2,5,.09,6.9-.7,8.18-2.91.37-.64.37-.9-.17-.41s-1.48,1.58-1.91.6c-.84.55-1.57,1.39-2,.33-.24.05-1.67,1.49-2,.22-.68.77-1.27,1-1.59-.08-1,.46-1.49,1.34-2,.13-.78.56-1.38,1.26-1.83.19-.67.2-1.35,1.42-1.73.45a8.61,8.61,0,0,0-3.17,2.87c-.56,1.27-1.08.43-.44-.87,1.64-3.17,4.43-4.33,10.85-4.34,3.9,0,5.51-.39,6.74-1.1a1.74,1.74,0,0,1,.66-.26H53c.75.15-.16,2.33-1.28,3.75C50,74.77,48,75.42,42.6,75.23c-3,0-4.86.39-5.66,1a3.71,3.71,0,0,1-1.54.95Zm77.85,0c-11.94-.37-37.31,0-37.31,0l-1.35-1.65h39.88Zm10.25-.63a1.66,1.66,0,1,1,1.66-1.66A1.66,1.66,0,0,1,123.51,76.54Zm-54.4-.32.57,0-.26-.51-.32-.48-.32.48-.26.51Zm77.21-.91v-1.5l6.76-4.62v1.53Zm-32.69-.72h-5.25V69h5.25Zm-11.76,0H96.23V69h5.64Zm-12.56-.18H83.87V69h5.45Zm-11.8-.11-3.63-.12s-2-2.57-2.86-3.75l2.68-1.38h3.81Zm33.6-.38a1.85,1.85,0,1,0-1.85-1.85A1.85,1.85,0,0,0,111.11,73.93ZM99,73.74a1.85,1.85,0,1,0-1.85-1.85A1.85,1.85,0,0,0,99,73.74Zm-12.34,0a1.85,1.85,0,1,0-1.85-1.85A1.85,1.85,0,0,0,86.71,73.69Zm18.41-.23A1.49,1.49,0,1,1,106.6,72,1.48,1.48,0,0,1,105.12,73.47Zm11-.15a1.43,1.43,0,0,1,1.59-2.38Zm-5,0a1.22,1.22,0,1,1,1.22-1.22A1.22,1.22,0,0,1,111.11,73.3Zm-36.68,0a1.85,1.85,0,1,0-1.85-1.85A1.85,1.85,0,0,0,74.43,73.25Zm18.46,0a1.49,1.49,0,1,1,1.48-1.49A1.48,1.48,0,0,1,92.9,73.24ZM99,73.12a1.22,1.22,0,1,1,1.22-1.22A1.22,1.22,0,0,1,99,73.12Zm47.27,0V71.6l6.76-4.73v1.47Zm-59.61,0a1.22,1.22,0,1,1,1.23-1.22A1.22,1.22,0,0,1,86.71,73.07Zm-6,0a1.49,1.49,0,1,1,1.48-1.49A1.49,1.49,0,0,1,80.68,73Zm-6.25-.4a1.22,1.22,0,1,1,1.22-1.22A1.22,1.22,0,0,1,74.43,72.62ZM127,71.34a10.66,10.66,0,0,1-8.48-4.22c-2.91-3.89-4.85-8.86-5.73-15.38-.44-3.23-1.94-12.92-2.79-15.21l1.17.23c.16-.08,1.67,6.1,2.62,14.25a32.23,32.23,0,0,0,2.74,10.48c2,4.06,5.39,8.37,9.92,8.71,2.64.2,5.12-1.46,5.38-3.79a3.71,3.71,0,0,0-2.11-4.14c-1.39-.57-3.05-.14-3.24,1.75a1.93,1.93,0,0,0,.12.92,1.24,1.24,0,0,1-1.39-.73c-.14,0,0-2.75,2.14-3.29,2.59-.85,5.58,1.72,5.82,4.34a6,6,0,0,1-3.61,5.67,8,8,0,0,1-2.55.43Zm19.31-.85V69l6.76-4.67v1.53Zm-19.45-1c-3.78.11-7.46-4.11-9-6.9a33.22,33.22,0,0,1-3.36-11.85c-.75-7.38-2.17-13.41-2.46-13.69l1,.23c.22-.14,1.64,6.52,2.5,13.93a30.92,30.92,0,0,0,3.86,11.46c1.69,2.93,4,5.12,6.67,5.44,1.69.17,3.43-.32,3.77-2.1a1.74,1.74,0,0,0-1.61-2.17l-.62-.05c-.66-.12.37-1.19,1.05-1.09A3.11,3.11,0,0,1,130.31,68a5.28,5.28,0,0,1-3.44,1.48Zm-8.1-1.3H76.3s0-1,2.61-.85a13.52,13.52,0,0,0,5.19-.65h33.36Zm27.55-.28V66.54l6.76-4.74v1.56Zm-19.74-.6a4.54,4.54,0,0,1-2.27-.56c-5.26-3.05-7.27-10.63-8-15.4-.95-7.06-2-13.62-2.34-13.79l1.15.26a93.78,93.78,0,0,1,2.19,13c.63,5.55,2.53,11.12,6.28,13.46,2.41,1.64,2.88,1.81,4,.85,1-.83,1.94.42,1.13,1.43A3.23,3.23,0,0,1,126.58,67.35Zm19.74-1.91V64.28l6.76-4.72v1.37Zm-30-.18h-.94c-.09.08-3.65-5.84-4.78-15.4-.59-5-2.29-13.62-2.56-13.69l1.23.13c1.26,5.06,2,9.85,2.64,14.17C112.7,55.36,113.32,59.6,116.36,65.26Zm-1.75,0h-1.1a45.71,45.71,0,0,1-4.59-14.73A73.06,73.06,0,0,0,106,35.63l1.18.33c1.49,4.16,2,9.2,2.81,14.41C110.85,56.14,112.24,61.06,114.6,65.26Zm-2,0h-1A47.56,47.56,0,0,1,107,50.43c-1-7.11-2-13.52-3.13-15.19l1.24.08a75.9,75.9,0,0,1,3.09,15.37,44,44,0,0,0,4.39,14.58Zm-1.9,0h-1c-.1.16-3.68-7-4.51-14.84A72.59,72.59,0,0,0,101.71,35h0l1.14,0c1.32,1.53,2.31,8.78,3.4,15.54a50.33,50.33,0,0,0,4.42,14.72Zm-2,0h-.88c-1.93-5-3.19-7.32-4.07-13.49a89.79,89.79,0,0,0-3.85-17.12l1.12,0a67.66,67.66,0,0,1,3.45,15.87,47.59,47.59,0,0,0,4.24,14.68Zm-1.7,0h-1.21a44.93,44.93,0,0,1-4.41-15.21,73.14,73.14,0,0,0-3.3-15.58l1,.06a73.88,73.88,0,0,1,3.82,16.17A52.25,52.25,0,0,0,107,65.26Zm-1.93,0h-1.47a69,69,0,0,1-4.17-14.21s-.35-1.84-.37-2.44c.08-5.12-.8-8.78-2.7-14.29l.87.06a69.6,69.6,0,0,1,3.37,15.3A44.75,44.75,0,0,0,105,65.26Zm-2.27,0h-1.12C100.15,61.5,99,57.58,97.95,54c.14-.79.74-2.69.78-3.56.06,2.94,1.83,10.1,4.06,14.87Zm-1.77,0H99.55c-1.1-3-2.17-5.79-2.93-8.64l.77-1.82A103.7,103.7,0,0,0,101,65.26Zm-2.12,0H97.72l-2.3-6.67.75-1.32C96.85,59.48,97.69,62.21,98.88,65.26Zm-1.85,0h-1.2c-.48-1.4-1.77-5-1.77-5l.8-1.07S96.54,63.86,97,65.26Zm-1.85,0H94.11c-.32-.91-1.34-3.65-1.34-3.65l.73-.79Zm-1.83,0H92.1l-.86-2.33.91-.77S93.1,64.38,93.34,65.26Zm-2,0h-.94L89.88,64l.77-.59Zm-1.69,0H87.83c.53-.31,1.07-.72,1.47-1Zm34.43-1.7c-4.4-2.32-5.61-9.28-6.09-13.1a106.59,106.59,0,0,0-2-12.25l1,.16s.72,3.43,1.22,6.69c.42,2.71.74,5,.85,6,.07.65.18,1.41.24,1.68a18.56,18.56,0,0,0,1.6,5,14.41,14.41,0,0,0,3.5,4.65Zm22.26-.36V61.89l6.76-4.78v1.5Zm0-2.3V59.39l6.76-4.47v1.34Zm0-2.57v-1.4l6.76-4.72v1.45ZM135,56.91h-.6l0-.92h.92Zm11.29-1.21V54.2l6.76-4.47v1.4Zm-10.59-.57H134.3l0-1h1.84Zm.83-1.65h-2.35v-1h2.91Zm9.76-.21V51.7l6.76-4.5v1.58Zm-8.57-1.63h-3.44l0-.86h4.1Zm8.57-.91V49.19l6.76-4.33v1.38Zm-7.13-.78h-4.72l.12-.83H140Zm7.13-1.62V46.84l6.76-4.41v1.42Zm-5.36-.1h-6.21l-1.31-1h9.67A15.54,15.54,0,0,0,141,48.23Zm2-2.09H132.32l-1-.82H143Zm3.33-.34V44.23l6.76-4.43v1.43ZM143,44.43l-12-.06,1-1h11v1Zm3.33-1.19V41.8l6.76-4.6v1.65Zm-3.2-.75H132.89l1.2-1.14h7.07Zm3.2-1.77V39.34l6.76-4.85V36Zm-6.19-.18h-6l-.17-.82h5.23Zm-1.66-1.66h-4.67c-.07-.35-.08-.69-.15-1h4Zm7.85-.73V36.87l6.76-4.73v1.41Zm-9.31-1h-3.47l0-1.1h2.71Zm-1.08-1.76h-2.37l.08-1.07h1.86Zm-.67-1.87h-1.51l.13-.82h1.17Zm-.45-1.92h-.74l.12-.63h.38Zm-15-10.63.35-.45H109.64l-.12.45Zm-13.62,0,.19-.61h-4.77l-.13.61Zm-7.79-.12.15-.58H86.4l.2.58Zm-14.59,0-.25-.7H79.5l.27.7Zm-14.15,0h7.2L76.64,20H69.2Z"/>
  </g>
  <path d="M130.7,184.89s3.73,6.12,8.77,13.32c3.37,4.82,6.06,10,6.31,14.53.29,5.13-2.43,10.28-7.35,10.53s-6.92-4-7.73-7.43c-.81,3.47-2.81,7.68-7.73,7.43s-7.64-5.4-7.35-10.53c.25-4.49,2.94-9.71,6.31-14.53,5-7.2,8.77-13.32,8.77-13.32Z" style="fill: #d40000"/>
  <path d="M47.88,64.56s3.73-6.12,8.77-13.32C60,46.41,62.71,41.19,63,36.7c.29-5.13-2.43-10.28-7.35-10.53s-6.92,4-7.73,7.43c-.81-3.47-2.81-7.68-7.73-7.43s-7.64,5.4-7.35,10.53c.25,4.49,2.94,9.71,6.31,14.53C44.15,58.43,47.88,64.56,47.88,64.56Z" style="fill: #d40000"/>
</svg>
