<svg xmlns="http://www.w3.org/2000/svg" viewBox="0 0 178.58 249.45">
  <title>H13</title>
  <path d="M164.81,193.47S166.59,196,169,199c1.61,2,2.89,4.18,3,6.05a3.88,3.88,0,0,1-3.51,4.39c-2.35.1-3.3-1.65-3.68-3.09-.39,1.45-1.34,3.2-3.68,3.09a3.88,3.88,0,0,1-3.51-4.39c.12-1.87,1.4-4,3-6.05,2.4-3,4.18-5.55,4.18-5.55Z" style="fill: #d40000"/>
  <path d="M13.77,56s1.78-2.55,4.18-5.55c1.61-2,2.89-4.18,3-6.05A3.88,3.88,0,0,0,17.46,40c-2.35-.1-3.3,1.65-3.68,3.09-.39-1.45-1.34-3.2-3.68-3.09a3.88,3.88,0,0,0-3.51,4.39c.12,1.87,1.4,4,3,6.05,2.4,3,4.18,5.55,4.18,5.55Z" style="fill: #d40000"/>
  <path d="M164.16,214.89h-2.66l3.9,9.75,3-4.12,0-5.63h-2.09V212h7.38v2.9h-2.43v21h2.43v2.54h-7.48v-2.62h2.07l0-10.22-6.53,10.3H164v2.54h-8v-2.54h2.1l5.38-8.42-5.27-12.54H156V212h8.19l0,2.91Z" style="fill: #d40000"/>
  <path d="M14.41,34.56h2.66l-3.9-9.75-3,4.12,0,5.63H12.3v2.9H4.92v-2.9H7.35v-21H4.92V11.07h7.48v2.62H10.34l0,10.22,6.53-10.3H14.53V11.07h8v2.54h-2.1L15,22l5.27,12.54h2.34v2.9H14.44l0-2.91Z" style="fill: #d40000"/>
  <path d="M113.75,37.83a229,229,0,0,0-43.17-.93c-3.82-5.32-11.5-16.17-11.5-16.17l69.56-.57Zm18.06-3.7c-1.87,3.79-2.23,7.44-1.87,12.71.28,4-2.23,7.19-4.82,6-2-.93-1.08-4.76,1-3.95.79.31,1.49,0,1.38-1.79-.18-4.47-1.37-9.52-.35-13.81C127.86,29.11,133.55,31,131.82,34.13ZM149.29,40a3.33,3.33,0,0,1-4.21,4.9c-1.17-.55-1-1.75.47-1.11,2.06.89,4.27-2.26,2.48-3.53-.82-.58-1.14-.51-.51.22,1.67,2-2.6,2.82-2.48,1.53a23.29,23.29,0,0,1,.47-2.54c.87-1.37,2.54-.67,3.77.52Zm-6.13,14a3.66,3.66,0,0,1-.31,5.25c-.7.77,5.66,12.71,4.85,12.79-8,.86-16.15.21-24.2,0,0,0,4.29-7.78,6-11.63.69-1.55-.92-3.38-.26-4.53,2.07-2.28.78-4.81,2.08-4.92a26.37,26.37,0,0,0,11.12,0c.33,0,.27,2,.72,3Zm-34.77,83c-4.06-20.83,1.93-42.92,15.65-57.48,1.94,1.88,3.42,5.44,5.36,7.76,5.37,1.62,9.22-.29,13-2.16a21.22,21.22,0,0,0,10.78,3l.12,3.22c-3.71.08-7.63-.26-10.94-2.33l-5.17,2.12L153.31,108l-.22,2.88-19.57-19.9L131,90.86C136.53,105.7,131.68,129.27,108.4,136.94ZM81.1,110.81l-2.83-13.6s15.87-15.85,24.21-24l7,.64C106,79.12,104,84.4,101.68,89.66ZM24.86,92.16c6.64-7.5,14.58-12.27,23.4-17.52,3.52,4,7.8,8.33,10.27,12.25-7.69,4.14-15,7.35-22.56,14.6.41-.47,9.61-3.61,9.58-3.25.33-1.55.13-2.5,1.63-2.91,1.77,2.49,3.48,4.52,6.28,5.63a6.33,6.33,0,0,1,2.73.67c-.78.16-.44,9.73,0,9.84-.86.28-1.72.94-2.91-.37-.55-.37-5.85,5-7.65,6.85-7.08.59-13.36-.12-20.34.07.05-8.52-.43-17.35-.43-25.86Zm45,21.57c.18.36,2,14.47.27,23.32-4.66,14.89-3.47,19-15.53,33.69-.79.78-3.56-1.74-5.64-6.1-6-3.82-13.73,1.11-13.73,1.11s-3-2.46-9.76-3.81l.12-2.65c0-.77,7.61.82,9.25,2.36,0,0,5.68-1.91,5.68-2.26,0-1.49-15.12-15.57-15.12-15.57l.09-3.3c-.1,0,20.73,21.78,21,19.5-5.9-25.59,4.13-38.55,23.38-46.29Zm25,4.5.34,13.53-12.76-.15-.52-13.67Zm58.38,14.63c-.34.48.5,25.22.44,25.22-8.12,8.15-16.06,12.7-24,17.66-3.6-3.6-6.66-6.63-9.31-11l11-6.82c-.42-1.66.67-2.26-6.42-8.74-.12.44-2.45,1.76-2.86-.21,1-4.16-.43-7.7-.61-9.94,1-1.31,3.13.1,3.13.1,1.4,1.47,6.88-5.79,8.45-6.6,6.83.26,20.6-.21,20.22.33Zm-76.75,44c0-.08-7,0-7-.17,1.27-3.14,4.16-9.38,7.06-16.29,2.42-4,19.74-20.77,19.74-20.77.82,4.86,2.06,9.6,3.34,14.33Zm-30.1,23.33c-2.51-1.08-9.57-.52-10.69,0-1.43-1-.54-2.29-.36-3-1.47-1.88-2.28-2.55-.61-5.58.38,0-5.14-12.55-5.29-12.56s5.84,2.8,7.9,4.68l4-5.4,4.68,6.1c0-.55,9-6.57,9.12-6.28.28.29-8.22,9.52-6.53,14.94.41,1.31-.52,2.63-1.16,3.78-.44.79.15,2.32-1.09,3.37Zm4.67,1.12c-.38.44,2.18,11.79-.6,16.37-1.18,1.67-3.3,1.75-4.19.39-.68-1.9,1.35-4.54,1.75-5.83,1.32-3.59-.64-8.33.32-11.73,2.86-7.42,7.92.73,2.72.79Zm-19,5c1.51-.07.46,4.48.21,5.78,0,.26-2.76.91-3.76-.88C26.9,208.57,28.83,205.2,32.05,206.34Zm18,22.92,14.2-17.43c14.36,1.67,28.76,2.73,43.44.46l11.81,16.62Z" style="fill: #e2cf00"/>
  <path d="M23.69,19.12v211.2h131.2V19.12Zm104.71,1.29c.12-.06-14.92,17-16.84,20-.08,0,1.62,5.18,2.51,7.44C118.3,58.56,123.85,63,120.63,70c-.69,1.39-.81,1.86-1.34,1.85-.71,0-.94-.48-.14-1.84,3.45-5.84-3.91-15.93-6.4-22.36a76.61,76.61,0,0,1-2.32-7.33l-.88-.16c.91,3.26,2,6.8,2.58,8.08,2,4.75,4,8,5.95,12.63,1.07,2.93,1.64,6.32,0,9.36-.6,1.11-.78,1.72-1.18,1.78s-.54-.12-.57-.4a3.35,3.35,0,0,1,.62-1.6c2.9-5-2.25-13-4.81-18.79A45.6,45.6,0,0,1,108.46,40v0l-.91-.17c1.15,6.54,4.34,12.89,7.15,19,2.43,4.84,3.34,9.07.1,13.05-.28.28-.89.23-.93-.18a5.25,5.25,0,0,1,.69-1.87c2.86-6-1.57-11-3.65-16.72-2-4.67-3.78-8.62-4.59-13.53l-1-.18c1.49,7.23,4.67,13.73,7.44,20,1.28,2.73,1.74,4,1.82,5.87.12,2.51-1.13,5.69-2.26,6.53-.29.22-.47.26-.74.11s-.29-.33.43-1.71a10,10,0,0,0,.22-8.71c-2.2-4.8-4.06-8.74-5.38-12.27a42.65,42.65,0,0,1-2.54-10l-.87-.16a.42.42,0,0,0,0,.13,55.62,55.62,0,0,0,3.49,12.34c1.41,3.51,3.18,6.88,4.61,10.36a8.87,8.87,0,0,1-3.26,11l-1.64,0c.1,0,3.74-1.42,3.93-6.68.18-5-2.17-8.09-3.87-12.34-2.06-5.09-3.9-9.56-4.35-15l-1-.19a53.29,53.29,0,0,0,3,11.44c1.61,4.57,3.22,6.6,4.72,11.39,1,3.25.88,7.64-1.38,9.65-3.38,3.45-8.09,1-6.91-3,.91-2.78,4.68-2.23,4.66.38a1.47,1.47,0,0,1-2.72.87c-.16-.25-.26-1.33-.33-1.37a3,3,0,0,0-.28,1.05A2.31,2.31,0,0,0,105.3,71c1.89-1,3.12-3.17,3-6.12-.13-3.14-.7-5.18-3.24-10.11-3-5.74-3.95-12-4.58-16.15-.27.12-.6,0-.71,0a48.09,48.09,0,0,0,4.61,16.46C107.17,61,108,64.62,107,67.26c-.14.39-.27.68-.44.71s-.41-.46-.7-1.52a3.43,3.43,0,0,1,.09-1.23c.24-2.42-1.44-7.46-3-9.7-.46-.64-1-.62-.54.52a19.25,19.25,0,0,1,2.72,9.14c0,1-1.17.58-1.2.05a12.21,12.21,0,0,0-1.06-5.13c-1.63-2.82-2.54-2.94-.87.21.37.73,1.43,3.82,1,4.88-.24.22-.53.25-.67,0a12.16,12.16,0,0,0-2.28-4.82c-.61-.7-.71-.38-.39.49.53,1,2.2,4.39,1.43,5.15-.25.21-.1.1-.78-1a12.54,12.54,0,0,0-1.9-2.6c-.61-.6-.75-.2-.13.86,1.25,2.11,2,3.86,1.52,4.3s-.54.23-1.53-1.46c-.44-.76-1.07-1.87-1.29-2.13s-.41-.33-.42-.11a8.3,8.3,0,0,0,2.67,4.79,11.54,11.54,0,0,1,.06,1.81c-2.62-1.36-2.72-2.9-4.45-5.26-.18-.18-.43,0-.36.36a14.17,14.17,0,0,0,1.73,3.27c.51.68.53,1.07.1,1.26-.69.32-1.66-.72-2.69-2.58-.48-.86-1.12-1.36-1.12-.91a10.31,10.31,0,0,0,1.5,3.11c1,1.07.52,1.82-.67.83a5.34,5.34,0,0,1-2-2.42c-.44-1-.81-1.08-.82-.31a6.52,6.52,0,0,0,2.38,3.53c.74.45,1.16.95,1,1.28-.65,1-3.28-1.5-4.18-3.79-.27-.68-.73-1-.84-.72s.33,1.8.88,2.57c.9,1.75,3,3.44,4.3,3.23.24,0,.92,1.39.92,1.39C91.74,75.86,88.6,72,88,70.5c-1.06-2.77-1.6-2.44-.67,0,1.81,4.75,7.42,7.4,10.54,5.11,1.78-1.31.71-4.43-1.11-3.9-.73.27-1.43,1-.15.77a1.27,1.27,0,0,1,.43,2.48c-2.33.7-2.86-3-1-3.88a2.54,2.54,0,0,1,3.71,2.58c-.35,4.09-5.32,5.27-10.23,2-1.38-.93-3.08-4-3.67-5.88-.19-.63-.84-.85-.92-.77s1.36,3.56,1.87,4.42c2.14,4.94,9.87,5.19,9.87,4.93a28.48,28.48,0,0,0,5.72-5.09l6.91.64c-17.81,28.39-19.19,70.35-.93,100.2-.23-.15-3.47-1-4.59-.11a1.92,1.92,0,0,1-2,.21,3.1,3.1,0,0,0-3.22,1c-.84.78-.86,1-1.4.95-1.6-.21-2.67.73-3,3.07-.13.92-.22,1.87-.09,1.73a9.16,9.16,0,0,0,.38-1.37,3.71,3.71,0,0,1,1.15-2.32c.87-.74,1.38-.33,1,.79a4.9,4.9,0,0,0-.16,3.42c.08.15.1-.42.22-.88,1-3.66,1.95-5.51,3.67-5.94.81-.2,1.18-.08.92.4-3,3.27-2.84,6.9-2.61,6.59.65-2.1,1.85-5.23,3.82-6.51a5.53,5.53,0,0,1,5.59-.28c.79.53-.4.69-2.19.71-3,0-5.82,4.09-5.35,7.51.11.63.28,0,.53-1.09,1.11-3.7,3-6.3,7.36-5.52a1.84,1.84,0,0,1,.75.42c.71.5.45.84-1,.65-3.14-.41-5.88,2.56-5.86,6.15,0,1.72.25,1.7.53.42.38-1.81,1.78-7.37,6.86-5.55.92.5,1.42,1.14,1.09,1.23-3-.6-5.68.06-6.74,4a8.25,8.25,0,0,0,.12,4.74c.15.94.46,1.66.57,2.62a53.6,53.6,0,0,1,.57,8.21c-.24.24-.28.19-1.14-.38-1.68-1.12-2.94-.86-4.65-.2-2.19.8-2,.66.3-2a5,5,0,0,0,1.17-1.81,5.24,5.24,0,0,0-1.49,1.24c-1.14,1.44-1.38,1.78-1.6,1.78a19,19,0,0,1,.77-4.74c.38-1.42.37-1.75-.52-2.11-.39-.16-1.14-.47-1.55-.67a4.22,4.22,0,0,0-1.58-.37,5.72,5.72,0,0,0,1.37,1.06c2,1.15,2,1.09,1.46,3a47.94,47.94,0,0,0-1.38,6.4c-.91,5.49,3.19,8.5,8.64,6.59.31-.16.67,2.89.62,3.69,4.54,4.69,9.69,12,13.41,18.07-23.92-.06-47.48.44-69.12.38h0c5.58-6.51,10.49-14,16.11-19.66a91.53,91.53,0,0,0-4-9.9c-2.27-4.74-8-13.46-4.43-20.43.35-.6.67-.89,1.11-.89.61,0,.6.36.23,1.06a15.13,15.13,0,0,0-1,7.12,27.87,27.87,0,0,0,2.17,6c6,11.14,7.84,17.08,7.5,17.08a7.47,7.47,0,0,0,1,.37c-2.07-7-5.44-13-8.1-18.45-2.18-5.09-2.42-7.07-1.28-10.78.44-1.44,1.24-2.35,2-2.35.59,0,.56.12.15.85-2.09,3.79-1.61,7.93,1,12.75,3.78,8,6,13,7.39,18.09,0,0,.69.22.93.28-1.12-5.31-4.25-11.44-7.17-17.71-2.41-4.83-3.11-8.35-2.24-11.13.28-1.2,1.2-3,2.35-3,.45,0,.52.24.1.86-1.79,3.09-2.1,5.94,1.09,12.44,2.94,6,5.89,12.65,6.89,18.48,0,.32,1,.19,1.07.25-1.58-6.89-4.72-14-8.06-20.83-1.88-4.27-2.07-7-.66-9.4.79-1.34,1-1.64,1.58-1.65s.69,0,.3.77c-1.7,3.59-1.43,6.76.85,11.95,3.12,7.12,5.76,13,6.88,19.28.2.06,1.26.47,1.11.16A102.34,102.34,0,0,0,69,193.71a57.37,57.37,0,0,1-2.82-7.62c-.89-3.61,1.12-8.56,3.75-8.81,1-.09.86.4-.23,1.43-1.88,1.77-2.24,4.59-1.61,7.86a41.38,41.38,0,0,0,2.44,8c2.29,5.55,4.79,11.36,5.58,16.49-.15,0,.91.08.73,0a58.77,58.77,0,0,0-3.41-11.52c-1.62-4.17-4-8.84-4.83-14-.65-4.19,1.94-8.14,5.08-8.38,3.78-.28,4.52,3.49,3.62,5.27-1.48,2.65-5.79,1.13-4.51-1.57a1.49,1.49,0,0,1,2.89.56c0,.16-.21.62-.17.65s.41-.26.51-.45c.76-1.38-1.53-3.24-3.13-2.13-5.35,2.93-1.74,11.86.59,17.32a56.56,56.56,0,0,1,4.63,14.38c.2.14,1.08.37,1,.2-.65-2.51-.94-4.63-1.59-6.74-1-3.31-2.82-7-4.3-10.73s-2.69-6.75-2.08-10.56a2.09,2.09,0,0,1,.44-1c.24-.25.44-.22.51.75,0,.13.19.31.22.47a11.86,11.86,0,0,0,.33,4.19,20.39,20.39,0,0,0,2.17,4.47c.5.82,1.79,3.31,1.34,1.58A23.69,23.69,0,0,0,74,189.08a9.69,9.69,0,0,1-1-4.14c.19-.5.63-.53.83-.36s.18.87.23,1.31a13.72,13.72,0,0,0,3.29,6.19c.91,1-2.15-4.37-2.37-5.81-.09-.61-.28-1.1-.08-1.4s.41-.2.68-.13.25.25.52,1.17a9.31,9.31,0,0,0,2.25,3.81c.41.49.69-.12,0-.92a9.18,9.18,0,0,1-1.82-4.24c.59-.84.88-.68,2.11,1.46.81,1.41,1.3,1.78,1.51,1.77.54,0,0-.7-1.49-3.11-.78-1.29-.8-2.09.09-2.08a9.56,9.56,0,0,1,2.42,2.7c.35.68.79,1.2.79.37a10.8,10.8,0,0,0-1.77-2.9c-1.13-1.33-1.46-1.59-1.6-2.18-.07-.28-.21-.77-.3-1.09-.29-1-.14-1.23.45-.72.27.71.48.78,1.21,1.33a12.13,12.13,0,0,1,2,2.49c.21.32.39.72.61,1,.55,1,1.28,1.13.75.08a15.69,15.69,0,0,0-1.08-1.87c-.71-1-.57-1.56.28-1.56.36,0,1.37,1.34,2,2.39.41.68,1.06,1.17,1,.49a8,8,0,0,0-1.27-2.31c-.81-1-.92-1.56-.13-1.56.54,0,1,.52,1.69,1.58s1.06,1.36,1.24,1.24-.94-2.14-1.9-3.22-.24-1.61.8-.7a11.67,11.67,0,0,1,2,2.68c.57,1.26.93.91.57-.08a9.11,9.11,0,0,0-1.8-3.08c-.4-.41-1.22-.73-1.63-1.08-1.14-1-1.86-1.92-1.77-2.08,3.25-.19,5.91,3.32,6.64,5.44.52,1.39,1.11,1.6.55-.37-1.58-4.89-6.52-7.43-9.94-5.24-2.06,1.32-.24,4.77,1.45,3.66.46-.3.48-1.16-.1-.7-1.09.86-2.2-1.26-1-1.89,1.68-.88,3.54.85,2.4,2.94s-5.66.92-4.77-2.55a6.2,6.2,0,0,1,4.9-3.54c3.74-.07,6.33,2.83,7.77,5.69.18.37.52,1.09.79,1.68a7.53,7.53,0,0,0,.44.88c-.42-3.48-3.7-7.77-6.65-8.48-4.89-1.16-6.23,1.78-9.43,4.83,0,0-2.34-.31-2.42-.26a28.94,28.94,0,0,1-4.68.21,106.6,106.6,0,0,0,1.12-99.06c-1-2.11-1.17-1.71.48-1.28s3.25-.24,4.63.08c2.86.59,3.47-1.38,5.67-2.44,2.74-1,2.12-3,2.78-4.84.21-.29.35-.53.24-.49a1.74,1.74,0,0,0-.81,1.09,4.5,4.5,0,0,1-1,2.7c-.47.47-.8.7-.92.5A1.71,1.71,0,0,1,81.69,72c.67-1.27-.22-5.52-.27-2.49a7.55,7.55,0,0,1-3.5,6.17c-1.61.8-2.11.72-.8-.51a8.68,8.68,0,0,0,2.56-5.81c0-1-.35-1.77-.49-.91.06,4.44-4.33,9.38-9,6.92-.23-.17-.43-.49-.36-.67,4.55.77,8.52-1.74,7.93-7.7a19.76,19.76,0,0,0-.64,2.33c-.72,3.65-4.8,5.24-7.66,4.24-.54-.23-1-1-.89-1.1,3.5,1.11,7.34-2.23,7.57-5.85.07-1.18,0-2.19-.55-.06-2.26,8-9.23,4.4-8.38,3.74,5.4.65,7.35-3,7.23-7.26-.08-.39-.27-.52-.44-.88a13.25,13.25,0,0,1-1.1-5.87c.05-.75-.56-5.5.06-5.3,2,.73,3.45,1.6,6.85.05.31,0,.4.15.3.42a10.23,10.23,0,0,1-1.6,2.13A6.25,6.25,0,0,0,77.32,55a12.2,12.2,0,0,0,2-1.43c.37-.33.59-.48.68-.4s-.16,1.23-.85,3.52c-.42,1.39-.16,1.56,1.66,2.5a8.5,8.5,0,0,0,2.46.75,5.81,5.81,0,0,0-.88-.65,13.47,13.47,0,0,0-2-1.08c-.83-.46-.73-.65-.12-2.66,1.19-3.9,1.6-5.33,1.54-8-.15-6.38-6.17-5.75-9.6-4.31l-.14-4.2L59.15,20.77Zm-102.94.24H57.65l13.51,19A25.14,25.14,0,0,1,70,49.88c-1.32-.93-4.21-.42-4.12,3.17.06,2.35,3.64,3.56,5.43,1.79-.09,2.28-1,5.7-2.32,6.7-.9-.83-1.1-2.06-3.14-1.72a2.81,2.81,0,0,0-2,3.8,5.1,5.1,0,0,1,.25,1.47,9.7,9.7,0,0,0,0,1.49,10.39,10.39,0,0,1,.14,1.08c-15,3.47-28.15,12.7-38.85,22.19Zm104.46,0H153V71.8l-.77,0c-.79,0-1.62,0-2.36,0-3.47-2.8-6.47-12.22-6.29-12.37a4.11,4.11,0,0,0,0-6,5.54,5.54,0,0,0-.37-2.68c1.25-2.64,1.47-2.83,1.58-5,0,0,.22,0,1.38,0,5.75,0,6-7.38.27-7.79-.79-.06-1.06.12-1.53-.35s-.91-1.21-1.73-.9a1.57,1.57,0,0,1-.84-.5,2.41,2.41,0,0,0-2.5-1.09,5.16,5.16,0,0,1-1.26-.32,2.16,2.16,0,0,0-2.06-.4,1.22,1.22,0,0,1-.91,0,2.09,2.09,0,0,0-2,.1c-.77.41-.94-.24-.91-.84a2.66,2.66,0,0,0-1.78-3.16c-2.76-.86-4.15.86-4.74,4.27l-.28,1.39h-9.24Zm-.05,10.13a2.91,2.91,0,0,1,.95.22c1.33.54,1.87,2.17.91,4.11a11.87,11.87,0,0,0-.7,1.8c-.13.47-.41,1.49-.63,2.28a21.64,21.64,0,0,0-.5,7.6,5.15,5.15,0,0,1-.3,3.32c-1,1.88-1.68,2.84-3.82,2.87-2.4-.25-3.07-3.93,0-4.16,1.4-.11,1.72-.18,1.38-3.09-.06-.55-.3-2.19-.37-2.8-.83-7.62-.16-11,1.94-11.93a2.39,2.39,0,0,1,1.1-.21Zm5,4.42a1.4,1.4,0,0,1,1,.39c1,.79,1,4.67.28,5-.72-.18-1.17.39-1.58.52s-.38-.24-.3-1.23a8.55,8.55,0,0,0,0-2.18c-.27-1.56-.3-2,.09-2.29a1,1,0,0,1,.57-.22Zm-2.57.27c.18,0,.39.1.67.36.63.59-.12,2.49-1,2.48s-.68-1.47-.24-2.39C132,35.64,132.16,35.49,132.34,35.47Zm5.39,0a1.62,1.62,0,0,1,1.13.75c1,1.89.85,5.43-.36,5.15-.45-.23-.71.13-1,.34-.28,0-.42-.6-.23-1.3a8.2,8.2,0,0,0,.09-3.7c-.16-.51-.31-.86-.22-1A.57.57,0,0,1,137.74,35.51Zm2.78.84a1.59,1.59,0,0,1,.88.23c1.08.71,1.15,4.84.1,5.09-.67-.34-1.13.27-1.43.36H140c-.16-.06,0-.63.13-1.69.32-1.14-.36-3.45-.16-3.69a.82.82,0,0,1,.57-.3Zm-19.78.85h5.12l0,1.08h-3.84v5.78h4.44l0,1.12h-5.81Zm-1.24,0V38h-4.57l.73-.83Zm24,.52a2.62,2.62,0,0,1,.75.21c1,.5.76,1.75.56,2.77-.23.8-.73.86-1.35.93h-.27c-.26,0-.46-.1-.28-.37.3-.48.09-3.17.12-3.39s.22-.17.46-.15Zm-10,.73c.07,0,.1.07.21.25a5.93,5.93,0,0,1-.38,2.85c-.33,1.06.23,1.68,1.71,3.05a5.32,5.32,0,0,1,1.11,1.62c.77,2.1,1.16,1.17.52-.63-.32-.78-.39-1.16.57-.83a1.81,1.81,0,0,0,1.5-.27c1.23-.32,2.29.36,1.22.77a10.25,10.25,0,0,1-2.17.61c-.26,0-.39.06-.39.18,0,.52,2.37.47,4.17-.16,2.22-1,2.35-.85,2.14.76-.45,3.57-3.38,4.4-6.5,4.37-.44,0-.89,0-1.34-.06h0c-4.47-.45-5.29-1.57-5.64-7.05,0-2.65.14-4.25.54-4.86.67-.33,1.31.28,2.27-.33a2,2,0,0,1,.44-.26Zm12.67.23c5.82.34,3.87,6.72.47,6.7a3.65,3.65,0,0,1-2.51-1.19C144.77,42.89,145.12,39.65,146.16,38.69Zm-31.88.15h5.22v1.11h-6.3Zm10.22,1L126,41.27l-1.46,1.46L123,41.27Zm-5,.85v1.24h-6.62l-.34-.76.25-.47Zm16.19.85c.36,0,.59.27.47.84s-.47,1-.88,1c-.89-.11-.76-1-.34-1.43A1.28,1.28,0,0,1,135.69,41.5Zm-44.4.06a10,10,0,0,0-3.53.61,3.13,3.13,0,0,0-2.06,2c-.08.62.76.68,2.22,0,4.44-1.77,7.23-.39,10.81,1a1.18,1.18,0,0,0,1.08,0c.32-.26,0-1.22-.65-1.49-3.42-1.49-5.8-2.16-7.87-2.19Zm52.42.7a.52.52,0,0,1,.43.3c.24.6-.37,1.14-.9,1.16a.51.51,0,0,1-.52-.22C142.37,42.76,143.16,42.19,143.72,42.26Zm-5.55,0a.66.66,0,0,1,.47.18.88.88,0,0,1-.53,1.47c-.79,0-1-.75-.45-1.35A1,1,0,0,1,138.17,42.27Zm3,.06a.68.68,0,0,1,.56.15c.55.56,0,1.6-.89,1.59s-1-.87-.3-1.46A1.14,1.14,0,0,1,141.14,42.34Zm-21.63.21v1l-6,0-.43-1ZM76.24,44c2.59,0,4.7,1.87,4.27,2.54-2.59-1.53-4.93-1.69-7-.57-.85.3-.88,0-.88-.53A5.36,5.36,0,0,1,76.24,44Zm37.45.35h5.81v.83H114Zm-22.32,0A6.82,6.82,0,0,0,87.22,46c-.73.66-.88,1-1.44.71-1.48-.75-1,.56,0,1.79.36.44.62.79.6,1.08-.08,1.07.5,1.07,1,1s.57.18,1.35,1.05a18.82,18.82,0,0,0,1.66,1.65,5.23,5.23,0,0,0,2.51,1.27s-.83-1-1-1.1c-2.52-2-3.75-3.25-1.72-2.59,3.29.8,4.14-.15,6.65-1.27.46-.22.59-.08,1.15.08,2.2.66,2-.74-.26-2-3.48-1.91-6.35-2.34-9.05-.91-.7.37-1.23.61-1.23.61a1.91,1.91,0,0,1,1-1.31c2.6-1.54,5.34-1.41,9.38,1A10.49,10.49,0,0,0,100,48.11a4.65,4.65,0,0,0-1.79-1.63,13.23,13.23,0,0,0-6.86-2.12ZM76.68,45.81a4.78,4.78,0,0,1,2.92,1.05c.41.31.55.6.25.59a8.24,8.24,0,0,0-5.63-.52c-.71.27-1.28.6-1.28.29s.57-.81,1.59-1.1A7.42,7.42,0,0,1,76.68,45.81Zm37.83.4h12.08v1.88c-3.43.14-4,2.26-3.11,4a3,3,0,0,0,3.77,1.27c2.19-.92,2.33-2,3.11-3.72l.35.45a3.91,3.91,0,0,0-.82,2.71c.05,1,.08.69-.25,1.21a4.6,4.6,0,0,0-.66,4.79c.23,1.66-5.71,12.27-7,13.24a6.47,6.47,0,0,1-1.11-.14,5.3,5.3,0,0,1,.46-1.33,11.47,11.47,0,0,0,.09-9.46c-2.09-4.2-7.45-14.78-6.94-14.93Zm-42.74.95c.4-.13.64,2,.21,4.11-.48,2.31-1.29,3.33-2.73,3.41-4,.25-2.31-5.36,0-3.92.83.51.46,2.4-1.75,2.37,2.18,1.72,3.66-.37,3.13-2.72a19,19,0,0,0,.94-3C71.65,47.24,71.71,47.18,71.77,47.16Zm22.47.89c-.5,1.84-1.33,2.52-2.11,2.55a2.15,2.15,0,0,1-2-2.41l.54,0c.26,2.12,2.24,2.21,2.76-.16Zm-5,.41c.42-.09.44,1,.19,1.24C88.55,49.6,88.24,48.53,89.19,48.46Zm5.88,0c.32,0,.62.19.6.39,0,.63-.8.72-1.19.72-.1,0,.05-.88.26-1a.68.68,0,0,1,.32-.1Zm-17.39.4h.56c0,1.56-.9,2.25-1.82,2.32A1.88,1.88,0,0,1,74.32,49h0l.65,0c.79,2.66,2.44,1.8,2.71-.07Zm-4.47.25h.15l.16,0c.31.29.43,1,.17,1a.73.73,0,0,1-.78-.59c0-.35.14-.47.29-.49Zm6,.29c.18,0,.76.36.62.61a2,2,0,0,1-1,.55c-.45-.27-.14-1,.34-1.16Zm63.16,1.35c.46-.16.56,2.45.58,2.93,2.49,2.23.21,6.07-.13,5.79a91.65,91.65,0,0,0,6,13.11l3.91.22c.31.26.51,7.23.2,7.39-11-.88-28.2.13-28.2.13l4.62,6.54c5.69,2.25,13.5-1.59,13.12-1.79,0,0,6.25,3.46,10.59,3l-.14,3.42a20,20,0,0,1-10.53-2.57l-5.28,2,16.19,17.22-.19,2.84C147.83,106,139.18,96.4,139.18,96.4v36.15l13.92,0c.17,9,.72,16.79.61,25.43-6.73,6.67-24.09,17.9-24.09,17.9h0c-3-2.53-5.77-5.84-9.13-11l.07-.69-1-.39s-5.58-7.45-5.29-10.75c1.92-.41,3.67.12,7.09-3.12,1.62.88,2.58.6,4.25.1a1.17,1.17,0,0,0-.6-1,2.17,2.17,0,0,1-3,.38c.24-.1.84-7.5-.33-9.07-.89-2.51,1.44-2,3.05-1.42l-.46-11.75c-5.31,6.14-16.51,10.23-15.72,9.79-5.63-30.12,7.75-50.21,21.75-64.94l-7.34,0s6.33-10.28,6.8-13.13c-.36-.94-1.35-2.9.33-4.28.57-.63.63-3.5.63-3.5,3.86-.13,7.2,1.22,11.65-.36Zm-56,4.49c-.62,0-.54.48-.12.62.72.24,1.56,1.28,1,2.18-.37.62-1.51.62-2.29-.15-1.59-1.54-3.4-1.64-3.75-.31-.1.54.3,1.25.92,1.05a3.16,3.16,0,0,1,2.52.44,2.55,2.55,0,0,0,1.4.49,2.19,2.19,0,0,0,2-1.27c.41-1-.29-2.89-1.34-3l-.31,0ZM72,57.68h0a4.79,4.79,0,0,1-.14,2.78c-.69,2.61-2.36,4.19-4.14,4.24a3.09,3.09,0,0,1-.44,0,2.62,2.62,0,0,1-2.42-1.2c-.42-1-.15-2.69,1.32-2.87,1.73-.2,2.62,2.74-.53,2.22.41,1.18,1.83.85,2.53.55,1.43-.63,2.4-2.05,3.27-4.66.23-.68.4-1.07.51-1.11Zm.55,3.54c.18,0,.16.67,0,1.53a5,5,0,0,1-4.4,4.38,4,4,0,0,1-2.48-.67c-.63-.7-.44-1.17,0-1.14,2.28,1,5.19-.2,6.32-3.13.26-.67.44-1,.55-1Zm6.16.33c-.08,0-.1.43-.45,1.26-.22.51-.53,1.13-.44,1.31a1.79,1.79,0,0,0,1.76.36c.46-.12.91.31,1.8.57a6.23,6.23,0,0,0,4.56-.29,4.33,4.33,0,0,1,3.64-.1l.1,0h0c.15,0-.12-.58-.54-1.43a4.48,4.48,0,0,1-.39-1.2c0-.46-.35-.58-.86-.28S87,63.28,86.2,62.9a2,2,0,0,0-2.13.23c-.39.23-.65.22-1.41,0s-1-.68-1.7-.39c-.86.37-1.89-.9-2.11-1.14-.05-.06-.08-.08-.11-.07Zm-5.26,1.81c.15,0,.12.48,0,1.48a4.68,4.68,0,0,1-4.4,4.56,7.19,7.19,0,0,1-2.28-.4c-1.68-.66-1.82-1.87-.14-1.34A5,5,0,0,0,73,64.41a3.34,3.34,0,0,1,.3-.87c.1-.12.17-.18.22-.18Zm6.77,2.24c-.17,0-.23,0-.21.13,0,.79,1.84,1.33,3.5,1.32A3.73,3.73,0,0,0,86,66.38c.91-.88.15-.89-1.5-.31a6.15,6.15,0,0,1-3.35-.19A8.87,8.87,0,0,0,80.24,65.6ZM64.73,68.71c17.23,28.18,25,67,3.53,108.42l-5.42-.07,1.06-1.84-1.54.25-.44-1.34-1.13.54-1.14-1.45-1.29,3.82s-3.61-.07-4.09,0-8.35,6.65-8.19,6.9,8.43-6,8.71-5.74c0,0,.83-.2.18.59a29.81,29.81,0,0,0-3.17,4.53c-1.36,2.65-4.33,7.92-3.22,9,1.14,3.06-1,3.61-1.27,5.15a2.31,2.31,0,0,1-.46,2.43c-3-.1-7.1-1-10.75.14l-.16,0c-.8,0-1.34-1.42-.9-2.48.21-.5.17-.56-.47-1.24a3.44,3.44,0,0,1-.36-3.91c.5-1,.47-.93-.13-2.68A61.85,61.85,0,0,0,29,178.95l2.64,1s11.9-10.37,20.3-10.77l-3-4.8a14.26,14.26,0,0,0-13.73,1.34c.11-.4-5.32-3.09-9.78-3.39l0-3.24c3.31.38,6.66.45,9.74,2.42,0,0,2.83-1.2,5.66-2.1L24.85,142.79V140s6.77,6.4,13.73,13.62l-.15-35.5L24.71,118s.26-15.25.16-25.83A90.6,90.6,0,0,1,48.51,74.63,68.74,68.74,0,0,1,58.43,87c-.4.43-.16.44.44.69,1.71,2.59,5.7,9.76,5.07,9.93-1.22-.09-6.87.62-8,4.05.14,2.59-.8,5.61,0,8,1.21,3.24-2.44,2.2-2.56,2v12.23c4.75-3.86,9.55-7.66,15.9-9.25,4,20.19-2.12,45.43-20.18,62.45h1c18.35-19.25,23.17-40.46,20-62.76,0,0-.12-.7-.13-.93,0-.55.09-.77.58-1.17s.88-.64.84-1c0-.12-.1-.61-.1-.61l.34-.16A2.48,2.48,0,0,0,73,110.3l-.22.56,1.39-.68.85,1,.81-1.2,1.7.16a30.83,30.83,0,0,1-2-3.1c0-.1.28-.56.31-.65a1.64,1.64,0,0,0-1.16-2c.07,0,.76-2.74-1.18-2.66a18.52,18.52,0,0,1-2.18-.33,1,1,0,0,1,.31-1.05L73,101l.35-1.63,1.8.13L70.77,94l-.51,4.27-5.12-.66c-.82-2.16-6-14.14-15.87-23.08.11-.29,6.8-3.09,6.8-3.09l1.06,3.33L58,73.53l1.51.39.18-1.4L61,72.08l-2.43-1.6Zm35.8,3.41c.15.07.82.71.65.92s-.41.51-.5.51h0a1.64,1.64,0,0,1-.14-1.42ZM64.31,73a1,1,0,1,0,.94,1A.95.95,0,0,0,64.31,73Zm64.35.28c-20.46,20.16-24.49,44.58-20.67,64.19,0,0-1.71,1.09-1.95,1.72a4.07,4.07,0,0,1-.3.91c-.47.31-.84.62-1.15.78a1.36,1.36,0,0,1-.5.11s-.81-.63-1.25-1.06l-.65,1.71-2.14-.46s.82,1,1.18,1.52l1.09,1.55a2.22,2.22,0,0,0,.87,2.38c-.12,2.21,1,2.53,3.41,3a1.49,1.49,0,0,0-.53.94l-1.4-1.13-.51,2.09-1.89-.1,5.49,5.39a41.34,41.34,0,0,1,0-4.52c2.57.14,5.11,1,5.15.82a69.79,69.79,0,0,0,15.62,22.61l-6.07,3-1.72-3.33-.42,1.89-1.51-.27-.25,1.21-1.66.24,1.84,1.77-4.68,1.55a42.81,42.81,0,0,1-4.35-6.33C96,151.75,91.57,121.81,100.62,94.64a97.89,97.89,0,0,1,9.91-21.28l4.71,0-1.62,1.87,2.19-.16.13,1.24,1.66-.54.8,1.87,1.51-4.27Zm-68.29.57a1,1,0,1,0,.94,1A.95.95,0,0,0,60.37,73.85ZM61.12,76l.57,6.4,1.53-1.18,1.41.87L65,80.18l1.2-.64Zm54.14.4a1,1,0,1,0,.94,1A.95.95,0,0,0,115.26,76.37Zm-4.17,1.24a1,1,0,1,0,.94,1A.95.95,0,0,0,111.09,77.61ZM58,77.93a1,1,0,1,0,.94,1A.95.95,0,0,0,58,77.93Zm56.56.37-6.4,6.63,1.74,0,.35,1.51,1.62-.53,1.22,1.22ZM117,81.19a1,1,0,1,0,.94,1A.95.95,0,0,0,117,81.19ZM65.43,82.34a1,1,0,1,0,.94,1A.95.95,0,0,0,65.43,82.34Zm4.15,1a1,1,0,1,0,.94,1A.95.95,0,0,0,69.57,83.38Zm-3.67,1.7,1,7.72L68,91.17l1.48.48.44-1.55,1.78.07Zm-2.7,1.21a1,1,0,1,0,.94,1A.95.95,0,0,0,63.2,86.29Zm46.49.46a1,1,0,1,0,.94,1A.95.95,0,0,0,109.69,86.74Zm-4.43.93a1,1,0,1,0,.94,1A.94.94,0,0,0,105.26,87.67Zm3.7.82-5.54,6.89,1.92-.42.82,1.71,1.19-.78,1.56,1Zm2.87,1.74a1,1,0,1,0,.94,1A.94.94,0,0,0,111.84,90.24ZM70,91.92a1,1,0,1,0,.94,1A.95.95,0,0,0,70,91.92Zm3.75,1.15a1,1,0,1,0,.94,1A.95.95,0,0,0,73.77,93.07Zm-26.8.3-2.58,1.46,1.67.11A3.24,3.24,0,0,1,47,93.37Zm19.87,1.69a1,1,0,1,0,.94,1A.95.95,0,0,0,66.84,95.06Zm39.05,1.64a.84.84,0,1,0,.83.84A.83.83,0,0,0,105.89,96.7ZM139.84,98l1.81,1.94.08,32-1.86,0ZM102,98.12a1,1,0,1,0,.94,1A.95.95,0,0,0,102,98.12Zm-62,.19c-1.52.49-2.39,1.74-3.48,2.85L40.07,100Zm65.65.13-5.12,8.32,2-.76.87,1.34,1.1-.87c.45-.36,1.31,1,1.54,1,0,0,.07,0,.06-.15ZM62.2,98.5h0a23.87,23.87,0,0,1,5.46.51c0,.39.65,1.29.79,2a19,19,0,0,1-3.24-.24c-1.55-.15-1.95.1-1.46.41,2.92.7,4.9.51,7.71,1.05a4.38,4.38,0,0,0,.72,1.84c-.15.06-4.32-.39-6.52-.32-1,0-.39.5,0,.59,2.57.37,4.23.31,6.95.66a2.62,2.62,0,0,0,.72,1.88s-1.37,0-4.2,0c-1.49,0-2.79-.09-3.44-.06-1.09,0-1,.52,0,.59,1.16.13,5.71.16,5.71.16a4,4,0,0,0-.6,2.25s-1.18,0-1.93,0c-3.65.14-4.28.08-4.34.22-.48.44.82.62,2.16.62.58,0,1.43-.13,1.42.19a3.37,3.37,0,0,0,.3,1.52,19.26,19.26,0,0,1-9.09.58c-2.61-.45-3-2.71-3-7.1s1.3-6.29,4.55-7.16a6.6,6.6,0,0,1,1.39-.13Zm7.72.36a1.22,1.22,0,0,1,.84.31c.53.86-.19,1.25-.89,1.28a1.69,1.69,0,0,1-.65-.09c-.6-.26-.77-1.09-.25-1.37a2,2,0,0,1,.95-.13Zm38.43,1.59a1,1,0,1,0,.94,1A.95.95,0,0,0,108.35,100.45Zm34.24.47,3.52,3.75h-.94v2.11l3,0,1.3,1.28h-4.34v2.08l5.15,0v-1.26l2.53,2.74,0,20.26-2.5,0v-.22l-5.17,0v.29H142.5Zm-69.37,1.27a.81.81,0,0,1,.47.11c.95.71.46,1.45-.51,1.53a.83.83,0,0,1-.39-1.56,1.21,1.21,0,0,1,.43-.08Zm3.57.54a1,1,0,1,0,.94,1A.95.95,0,0,0,76.79,102.72Zm-2.7,2.17c1.13,0,1.6,1.64.41,1.69-1-.13-1.59-1.1-.93-1.57A1.37,1.37,0,0,1,74.09,104.89Zm-1.77,2.87h.23a1.36,1.36,0,0,1,.58.22c.81.52.24,1.85-.61,1.85-1.74,0-1.32-2-.21-2.08Zm30.9.1-4.75,8.86,2.17-.37.9,1.2c.4-.29.58-.79,1-1.05l1.71.74ZM99.28,109a1,1,0,1,0,.94,1A.95.95,0,0,0,99.28,109Zm6.14,1.18a1,1,0,1,0,.94,1A.95.95,0,0,0,105.42,110.19Zm-35.53.28c.51,0,.78.19.76.59s-.71.83-1.12.83c-.62,0-.81-1.13-.23-1.31A2.58,2.58,0,0,1,69.89,110.47Zm5.42,1a1,1,0,1,0,.94,1A.95.95,0,0,0,75.3,111.43Zm69.84.08v2.35h5.17v-2.35Zm-69.77,2.12L73.53,121l1.61-1,1.15,1.25,1.12-1.19,1.61.46Zm3.32.53a1,1,0,1,0,.94,1A.95.95,0,0,0,78.69,114.15Zm-6.07.11a1,1,0,1,0,.94,1A.95.95,0,0,0,72.62,114.26Zm72.52.65v2.34h5.17v-2.34Zm-43.65,2.71a1,1,0,1,0,.94,1A.95.95,0,0,0,101.49,117.62Zm43.65.67v2.25h5.17v-2.25Zm-117.48.49v.3h5.27c0-.71,0-.28,0-.28h2.42c0,10.22,0,20.45.06,30.67,0,0-2.34-2.35-3.31-3.33H33l0-1.85-2.77,0-1.52-1.51,4.23,0v-1.89H27.65l0,.81-2.07-1.9-.25-21Zm10.32.06,0,33.52-1.94-2.14V118.88Zm63.68.91-3.06,7.81,1.76-1,1.17,1.3.78-1.22,1.79.62Zm-74,.5v1.87h5.27v-1.87Zm70.79.09a1,1,0,1,0,.94,1A.95.95,0,0,0,98.45,120.35Zm6,.18a1,1,0,1,0,.94,1A.95.95,0,0,0,104.45,120.53Zm-28.17,1a1,1,0,1,0,.94,1A.95.95,0,0,0,76.28,121.52Zm68.86.29v2h5.17v-2ZM27.66,123.46v2.07h5.27v-2.07Zm51.37.16-1.77,1-.92-.91-.95.87-1.61-.8,2.43,7.2Zm66.11,1.7v2h5.17v-2ZM27.65,126.94V129h5.28v-2.09Zm73.76,1a.95.95,0,1,0,.94.95A.94.94,0,0,0,101.41,127.89Zm-22,.35a.95.95,0,1,0,.93.95A.94.94,0,0,0,79.39,128.25Zm-6.37.11a.95.95,0,1,0,.94.95A.94.94,0,0,0,73,128.35Zm72.12.31v2h5.17v-2Zm-43.63,1.15-1,1.22-1.76-.47,3.47,6.84,2-7.48-1.69,1Zm-73.85.49v1.95h5.28v-1.95Zm48.7,1.06a.95.95,0,1,0,.94.95A.94.94,0,0,0,76.35,131.37Zm-.14,2.25-1.06.94-1.6-.79,1.19,7.67,4.19-7.12-1.69.68Zm-48.56.2v1.8h5.28v-1.81Zm77.57.5a.95.95,0,1,0,.94.95A.94.94,0,0,0,105.23,134.32Zm-6.59.38a.95.95,0,1,0,.94.95A.94.94,0,0,0,98.64,134.7Zm-71,2.48v2h5.28v-2Zm74.61.33a.94.94,0,0,0-.94.95,1,1,0,0,0,1,.95.91.91,0,0,0,.9-.95A.94.94,0,0,0,102.26,137.51Zm11.17.14c.59,0,1.19.05,1.7.09,4.07.29,5.48,1.28,6,3.1,2.05,6.79-.48,10.94-6.42,11.27-.33,0-.68,0-1.05,0h0c-1.58,0-3.35-.23-3.91-1.21-.87-1.09,1-.67,2.55-.91s.61-.48-1.43-.6c-2.81-.17-3.92-.24-4.34-.9a5,5,0,0,1-.11-1.68l3.19.15a18.46,18.46,0,0,0,3.12-.1c.39-.1.28-.42.15-.56a23.82,23.82,0,0,0-2.83-.13c-4-.11-4.88-.24-5.17-1.55s.75-1,4.86-.56a5.81,5.81,0,0,0,3.08-.42c.45-.22-1.31-.44-1.88-.35a29.7,29.7,0,0,1-4-.42c-.82-.13-.1-.1.31-.6s.19-.9.61-1.13,1.56-.27,3.42-.28c2.13,0,3.12-.53.2-.65-1.89-.08-2,0-2.15-.6-.43-1.36.48-1.6,2.41-1.91a8.85,8.85,0,0,1,1.62-.09Zm-41.62.61a.95.95,0,1,0,.94.95A.94.94,0,0,0,71.81,138.26Zm36,.55a1,1,0,0,1,.63.25c.65.52.15,1.19-.8,1.19-.75,0-1-.6-.41-1.15A.86.86,0,0,1,107.78,138.81Zm-29.71,1.36a.95.95,0,1,0,.93.95.94.94,0,0,0-.93-.95Zm27.7.63a.86.86,0,0,1,.92.58,1,1,0,0,1-1,1.08.79.79,0,0,1-.63-1.31A1.15,1.15,0,0,1,105.77,140.79Zm-31.05.91a1,1,0,1,0,.94,1A.95.95,0,0,0,74.72,141.7Zm-.2,2.21-1.42,1-1.42-.89.85,7.78,4.6-6.78-1.77.7Zm29.33.34c.41,0,.7.43.84,1a.61.61,0,0,1-.59.84,1.55,1.55,0,0,1-.94-.42c-.51-.52-.33-1,.24-1.31A.85.85,0,0,1,103.84,144.25Zm-3,.68a.95.95,0,1,0,.94.95A.94.94,0,0,0,100.8,144.92Zm3.5,1.92a1.29,1.29,0,0,1,.66.14c.81.33.7,1.24.08,1.34a1.22,1.22,0,0,1-1-.1c-.3-.17-.31-.58-.14-1C104,147,104.13,146.88,104.3,146.85Zm-34.63,1.57a.95.95,0,1,0,.94.95A.94.94,0,0,0,69.66,148.42Zm72.72.61s-1.94.7-3,1.12l.87,1.21Zm-34.88,1.17a2.17,2.17,0,0,1,1,.2c.49.22.55,1.11.14,1.21a1.54,1.54,0,0,1-.46,0,1.91,1.91,0,0,1-1.22-.61c-.24-.3-.14-.52.26-.74A.74.74,0,0,1,107.5,150.19Zm-31.78.5a.95.95,0,1,0,.94.95A.94.94,0,0,0,75.72,150.7ZM72,152.09A.95.95,0,1,0,73,153,.94.94,0,0,0,72,152.09ZM110.68,154a.95.95,0,1,0,.94.95A.94.94,0,0,0,110.68,154Zm-41.3.18-.57,7.44L74.2,156l-1.77-.17-.56-1.6-1.13,1Zm34.6,1.17a.95.95,0,1,0,.94.95A.94.94,0,0,0,104,155.35Zm27.1.08a22.78,22.78,0,0,1,.39,2.46l1.36-1.06A4.13,4.13,0,0,1,131.07,155.43Zm-22.67,1.33a.95.95,0,0,0,0,1.9.95.95,0,0,0,0-1.9Zm3.11,1.33-1.23,1.23-1.43-.59-.51,1.56-1.55.08,5.26,5.8C111.87,163.64,111.58,160.64,111.51,158.09Zm-45.67.42a.95.95,0,1,0,.94.95A.94.94,0,0,0,65.84,158.51Zm87.18.65v69.28l-32.35.19c-3.45-4.43-6.75-9.4-10.23-13.92-4.28-5.48-4.42-6.11-3.27-11.62.64-3.12.92-3.83,2.22-3.6a2.16,2.16,0,0,0,2.42-2c.31-2.31-1.89-3.73-4.1-2.57-1.17.61-1.21.67-.82-1.34.56-2.88,1.68-5.36,2.39-5.28,1.86,4,6.37,1.15,4.87-3,.47-.72-.15-1.64-.38-2.39a12.88,12.88,0,0,1,2.57-1C129,178.15,144.25,168.17,153,159.16Zm-84.77,2.61a1,1,0,0,0-.94.95.94.94,0,1,0,1.87,0A1,1,0,0,0,68.25,161.77Zm46.48.23a.95.95,0,1,0,.94.95A.94.94,0,0,0,114.73,162ZM72,162.17a.95.95,0,1,0,.94.95A.94.94,0,0,0,72,162.17Zm-7.14,1.11-1.4,8.42,6.51-6.21-1.83.08-.33-1.81-1.63.76Zm43.56,2.42a.95.95,0,1,0,.94.95A.94.94,0,0,0,108.37,165.69Zm4,.79a.95.95,0,1,0,.94.95A.94.94,0,0,0,112.42,166.49Zm3.66,1.2L115,169.06l-1.67-.53-.12,1.66-1.52.54,6,4.17Zm-55.44,0a.95.95,0,1,0,.94.95A.94.94,0,0,0,60.64,167.71Zm59.77,2.66a.95.95,0,1,0,.93.95A.94.94,0,0,0,120.41,170.37Zm-53.64.84a.95.95,0,1,0,.94.95A.94.94,0,0,0,66.77,171.21Zm-4.38.59a.95.95,0,1,0,.94.95A.94.94,0,0,0,62.39,171.8Zm50.88,2.91a.95.95,0,1,0,.94.95A.94.94,0,0,0,113.27,174.71Zm5.07.15a.95.95,0,1,0,.94.94A.94.94,0,0,0,118.34,174.86Zm-40.52,2a2.79,2.79,0,0,0,.11,1c-.23-.3-.42-.32-.73-.59ZM56.59,178c.46,0,.7.49.4,1.12-3.74,8.67,3.42,16.83,6.2,24.58H51.66a6.06,6.06,0,0,1,0-1.65c2.49-.18,3-3,1.4-4.55-1.31-1.28-3.47-.77-4.56,1a11.76,11.76,0,0,0-1.13,3l-.41-.69c1-1.28,1.16-2.07,1-2.68-.17-.86.07-1.08.64-1.82a3.65,3.65,0,0,0,.46-3.82c-.16-.31-.49-.75-.43-1-.32,0,2.83-8.91,7.42-13.41a1,1,0,0,1,.53-.19Zm-28.78.23A68.53,68.53,0,0,1,34,191.45c0,.19-.05.36-.28.62a4,4,0,0,0,.18,4.74c.31.37.47.25.46,1.16a3.84,3.84,0,0,0,.12,1.69c.34.67.57.72.08,1.46a12.87,12.87,0,0,0-1.48,3c-.46,1.6-.14,1.9-1.17,1.52a3.54,3.54,0,0,0-4.71,3.68A3.72,3.72,0,0,0,31.7,213c.55-.14.66-.09,1.51.45a6.14,6.14,0,0,0,.93.6c.4.15.72.14.88.42a3,3,0,0,0,2.55,1.39,5.11,5.11,0,0,1,2,.37c.43.22,1.62,0,3.15.27a5.53,5.53,0,0,0,1.55-.17c.94,0,.56.1.73.82,1.17,3.75,4.6,3.3,6.17.48a13.18,13.18,0,0,0,1.21-4.3H61.6L49.21,228.74H25.47V178.28Zm81.25,2.1a5.2,5.2,0,0,1,2.43.66c1.49.86,1.29,1.47-.18.93-2.34-.86-4.71.34-5.87,3.43-.3.79-.5,1.18-.61,1.18s-.14-.5-.05-1.52c.31-2.81,2-4.69,4.29-4.69Zm.8,2.15c1.62,0,3.3,1,3.16,1.93,0,.32-.17-.1-1.79-.37-2.26-.38-3.71.86-5,3.71a9.33,9.33,0,0,1-.66,1.4c-.36-2.19,1.28-6,3.62-6.58A3.35,3.35,0,0,1,109.87,182.48Zm-15.24.86a3.82,3.82,0,0,0-2.23.54c-.37.58.39.47.79.37a5.12,5.12,0,0,1,3.09,0c.41.16.73.21.93.28,1,.38.63-.47-.46-.81a6.87,6.87,0,0,0-2.13-.4Zm16,1.34a3.68,3.68,0,0,1,2.22.93c1.73,1.37.16,4.8-1.92,3.63-1.62-.91-.53-3.08,1.22-1.84.85.61.58-.64-.14-1-1.22-.65-3.43.46-4.46,2.43a18.89,18.89,0,0,0-1.23,4.18c-.22,1-.24,1.36-.38,1.37a.24.24,0,0,1-.12,0,4.53,4.53,0,0,1,0-2.12c.44-2.46,1.92-7.56,4.81-7.54Zm-15.91.17a5.63,5.63,0,0,0-2,.52c-1.25.42-1.86,1-2.55.63-1.27-.74-.84-.27-.67,1.6.07.82.24,1.06.46,1a1.16,1.16,0,0,0,.46-.36c.3-.33.91-1.27,1.58-.9a2.42,2.42,0,0,0,2.3-.08c.38-.31.92-.35,1.66.15.49.33.76.16,1.36-.11,1-.45,1.37.66,1.9,1.08s.72.25.72-.29a8.51,8.51,0,0,1,.22-1.33c.24-1,.39-1.41-.71-.91a3.44,3.44,0,0,1-2.91-.55,3.37,3.37,0,0,0-1.83-.46ZM92,190.28a2.26,2.26,0,0,0-.77,4.43.58.58,0,0,0,.18,0c.43.05.88-.33.48-.5h0c-3.4-1.42-.67-4.55,1.86-1.82,1.32,1.43,2.37,1.34,3.09.3.32-.47-.15-1.3-.57-1s-.79.53-1.36,0A4.53,4.53,0,0,0,92,190.28Zm17.27,5.11c1,0,1.83.65,1.67,2.09a1.26,1.26,0,0,1-2.46.29c-.62-1.59-.73.38-.74,1a18,18,0,0,0-1.23,3.36,1.93,1.93,0,0,1-.28-.69c0-.93,0-2.27,0-2.68a3.33,3.33,0,0,1,3-3.36Zm-24.09.29a9.92,9.92,0,0,0,1.57,1.42c1.6,1.12,2.48,2,2.34,2.22s-.34.09-.86-.09a8.23,8.23,0,0,0-5.93.57c-.68.41-1.11,1-2.06.74-1.34-.44-1.85.37-1.48.82.61.4,2,.87,3.32,1.77a8.21,8.21,0,0,0,7.78.24c1.17-.69,1.57-.21.43.48-4.36,2.38-7.87.36-10.72-1.43a4.63,4.63,0,0,0-1.17-.6,14.4,14.4,0,0,0,1.78,1.77,12.92,12.92,0,0,0,6.13,2.16,6.75,6.75,0,0,0,5.47-2.42c.15-.36.64.29,1.31.16,1-.18.68-.23-.33-1.39s-1.34-1.44-1.28-1.89c.09-.66-.09-1-.74-.95-.31,0-.68-.33-1.16-.77a16.7,16.7,0,0,0-3-2.51,3.1,3.1,0,0,0-1.37-.32Zm-33.74,1.7a2.09,2.09,0,0,1,1.84,3c-.51,1-1.6.42-1.86,1.37-.42,5.53,1.65,10.51-.64,15.44-1.21,1.32-2.22,1.87-3,1.91-2,.1-2.34-3.15-.58-5.55,1.6-3.67,1.16-6.56.8-10.41,0-2.24.76-4.36,2-5.28A2.33,2.33,0,0,1,51.47,197.37ZM102,198.76a2.2,2.2,0,0,1,2.12,2.42l-.45.17c-.8-2.57-2.44-2.25-3.17-.13h-.7a2.31,2.31,0,0,1,2.21-2.47Zm-15.33.62A2.53,2.53,0,0,1,88.78,202l-.55,0c-.68-2.67-3.06-2.22-3.3.13-.22,0-.44,0-.66-.05.26-2,1.35-2.84,2.39-2.77Zm12.69.13c.23,0,.27.34,0,.84-.14.3-.25.45-.36.46a.82.82,0,0,1-.41-.17c-.4-.27-.33-.43.13-.82A1,1,0,0,1,99.37,199.51ZM40,200.15a16.69,16.69,0,0,1,4.77.48c1.66.76,1.77,1.3,2.28,2.78.69,2,1.09,5.47.3,7.46-.7,1.69-.63,1.51-1.29,1.43a1.43,1.43,0,0,0-1.57.39c-.09.18-.32.5-.42.49-.58-.81-.11-2.67.33-3.36s.71-.83.43-1.16a1.65,1.65,0,0,1-.21-1.17c.28-.56-.44-.66-1.09-1-1.05-.56-1.56-1.58-2.35-3.45-.27-.65-.84-.45-.56.25s.32,1.48.49,2.07,0,.91-.71.73c-1-.27-.89,0-1.27.12-.83.47-1.39-.19-.89-.56a6.38,6.38,0,0,1,1.59-.53c.58-.16.45-.73-.14-.72a17.54,17.54,0,0,0-3.09.75c-2.88.88-3,1.35-2.71-.31a5.05,5.05,0,0,1,3.5-4.4A11.42,11.42,0,0,1,40,200.15Zm49.28,0a2.09,2.09,0,0,1,.46.34c.46.4.44.65,0,.94a.5.5,0,0,1-.23.08c-.47,0-.49-1-.41-1.22s.11-.18.22-.14Zm15.73,0s.66.34.28.73a.39.39,0,0,1-.25.11c-.15,0-.07-.36-.09-.42a3.6,3.6,0,0,1,.06-.41Zm-21.28,0c.28,0,.35.19.17.72s-.33.93-.59.92a1.43,1.43,0,0,1-.83-.48c-.32-.34-.2-.52.54-.9a2,2,0,0,1,.7-.26Zm13.64,1.92a2.48,2.48,0,0,1,1.2.49,6.81,6.81,0,0,0,4.62.59c1.29-.24,1.7-.46,1.88-.3.45,1-2.69,1.48-3.87,1.48s-4-1.15-4-2.11A.17.17,0,0,1,97.41,202.13Zm.58,2.19a6.51,6.51,0,0,1,2.14.57,7.27,7.27,0,0,0,4.09-.26c1.16-.46,1.43-.33.92.46a4.24,4.24,0,0,1-3.2,1.05,5.86,5.86,0,0,1-3.21-.87C98,204.68,97.76,204.37,98,204.31Zm-19.33.14c-.45-.07-.44.6.12,1.08a13.21,13.21,0,0,0,8.33,3,8.19,8.19,0,0,0,5.08-1.57c1.21-1,.24-2.06-1.37-1.08-3.47,2.12-8.59.44-11.93-1.32a.72.72,0,0,0-.22-.08Zm-26.88.08,6.44,0,0,7.82H52.4v-.91h4.23v-5.74H51.91Zm7.57.12H63.6l.34.9H59.35Zm-28.69,1.64c1.33-.07,2.55.58,2.23,1.75-.57,1.24-.17,2.79-.34,3.93a2.76,2.76,0,0,1-1.76.52,3.3,3.3,0,0,1-3-3.55A2.81,2.81,0,0,1,30.67,206.29Zm28.69.15h4.94l.34.82H59.35Zm-19.51.32a1.3,1.3,0,0,1,.43.13c.5.2.13,1.48-.71,1.49h0c-.85,0-.84-1.07-.29-1.46a1.36,1.36,0,0,1,.57-.16Zm-3.34.08h.18a1.5,1.5,0,0,1,.5.16.78.78,0,0,1-.62,1.36c-.82,0-.9-1.43-.06-1.51Zm17.71.27,1.46,1.46L54.21,210l-1.46-1.46Zm-20,.06c.64,0,1.19.87.13,1.43-.75,0-1.21-.62-.74-1.17A.74.74,0,0,1,34.19,207.18Zm8.14.4a.93.93,0,0,1,.85.62,1,1,0,0,1-.89,1.27c-.79-.09-.86-1.31-.53-1.67A.78.78,0,0,1,42.33,207.57Zm17,.53h5.59l.15.49-.2.32H59.35Zm-21.76.57c.21,0,.07.43,0,1.67a13.83,13.83,0,0,0,.08,3.57c.1.5.14.84-.22.87a1.46,1.46,0,0,1-.32,0,1.52,1.52,0,0,1-.3,0c-1.46-.25-1.55-4.33-1-5.66.14-.2.69-.15.89-.22a3.74,3.74,0,0,1,.84-.23Zm3.07.09a3,3,0,0,1-.11,1.68,6.19,6.19,0,0,0,0,3.63c.3,1.16.31,1.39-.33,1.45l-.18,0a1.16,1.16,0,0,1-.49-.13c-1.06-.48-1.58-2.83-1.22-5.32.06-.41.1-.83.24-.93a6.27,6.27,0,0,0,2.12-.4Zm-5.7.35a8.86,8.86,0,0,0-.25,3.39A.8.8,0,0,1,34,213c-.45,0-.9-.51-1-1.24a5.69,5.69,0,0,1,.16-2.34C33.36,209.11,34.58,209.13,35,209.12Zm24.38.72h5l-.61.93H59.35Zm-16,.36a9.26,9.26,0,0,1-.2,1.73,3.31,3.31,0,0,0,0,1.64c.41,1.49.69,1.82-.45,2a1.05,1.05,0,0,1-.28,0,.78.78,0,0,1-.24-.07c-1.08-.52-1.67-3.44-.65-5.22.22,0,1.8,0,1.81-.06Zm16,1.58h3.48l-.51.68h-3Zm-13.61,1.12a.47.47,0,0,1,.49.35,5.21,5.21,0,0,1-.63,2.19l-.27,0h0c-1.25.06-.78-1.94-.35-2.32a1.16,1.16,0,0,1,.76-.27Z" style="fill: #131f67"/>
  <path d="M140.6,67.1l6.56,5.05c-7.56.17-15.32,0-22.88-.14l7.55-5.45c1.06,1.85,3.91,5.53,4.65,5.32C137,72,139.57,68.71,140.6,67.1ZM85.15,68.95c.17.11.29.36.41,1.17,1.89,8.92,11.16,8.29,11.1,8,.07.35-11.53,11-18.35,19.3-2.06-6.37-8.31-20.91-8-20.86,0,0,1.81,0,6.49.1,4.27-2,7.23-3.85,7.09-6.61,0-1,.25-1.37.57-1.29a7.07,7.07,0,0,1,.72.15ZM64,97.59c-6,.1-7.17,3.08-7.86,3.44-4,.66-6.41-2-8.15-4.75-2.22-1.35-1.94-.1-2.4,2l-5.52,1.64V98.14a28.23,28.23,0,0,0,4.24-3.32l1.68.1,1-1.3c3.84-2.1,7.6-4.61,11.64-6.24,0,0,4.85,6.35,5.4,10.2ZM139.19,97l.06,35.28c-2.5.18-7.09.16-7.09.16-1.92,3.44-4.54,5.05-7.24,7.05a118.56,118.56,0,0,1-.44-12.85c7.15-8.85,11.12-19.74,6.71-36l2.65.3ZM99.68,95a123.58,123.58,0,0,0-4.27,22.53l-13.61.2-.27-4.73ZM53.32,111.11l.25,13.2c-9.93,12-10.52,22.53-6.84,35.8-3.28-.77-5-3.36-8.1-6.93V118.75c2.17-.33,7.56-.65,7.56-.65.16-1.61,4.72-5.47,7.13-7Zm42.07,20.81.61,5.82L78.31,154.86c1.46-7.42,3.23-15,3.74-22.95Zm29.35,18.18c1.26-.84,5.92,4.06,6.68,7.36-1.17,1.6-11.41,6.69-11.41,6.69s-6-7.79-5.74-11c2.66-.72,5-.92,7-3.12,1.15-.1,1.56,1.21,3.49.11Zm8.08,6.59c-1.42-.23-.51-2.18-.29-3.61l7.53-2.26c-2.59,2.24-4.42,4.14-7.23,5.87ZM108.31,173.9c-1.55,0-3.16-.6-4.35-.11a4.28,4.28,0,0,1-2.31.26c-2.25-.71-3,1.81-4.47,1.82-1.86,0-2.89,1.31-2.9,3.95,0,1.14-.1,1.27-.31,1.38a1,1,0,0,1-1.39-.76c-1.33-4.86-4.69-9.22-10-8.87,4.22-4.36,17.06-17.77,17.06-17.77a130.55,130.55,0,0,0,8.68,20.11Zm-54.62,4.18L46,183.78l-4.63-5.71-4,5.44c-2.35-1.71-7.7-5.52-7.7-5.52s16-.24,24.07.1Z" style="fill: #d40000"/>
  <path d="M129.12,20.26,58,20.6,71.57,39.51c11.6-2.72,25.23-1.93,40.11,1.15,0,0,11.77-13.49,17.44-20.41Zm-1.37.21L122.31,27c-1.82-1.53-3.71-.8-3.94,1.59-4-2.46-5,3.39-1.27,3.64a4,4,0,0,1-2.12.81h0a3.36,3.36,0,0,1-2.68-1.42c-2.78,1.49-4.76-1.09-4.43-1.34,3.94,2.59,5.22-3.45,1.34-3.22,1.71-3.58-4.39-5.11-3.7-.54-3.76-1.33-4.38,3.9-.57,3.82-1.23,2.16-4.43,1.57-5.78.21-1.59,2-5.49.09-5.88-1.59,4.38,2.27,4.82-4.67.58-3.2,1.25-4.42-5.48-3.79-3.62,0-4.2-1.4-3.63,5,.5,3.67.25.33-3.26,4-5.81.55-.35.61-4.33,2.6-6.51-.53,4.73,1.62,3.83-4.83.45-3.55.91-4.27-5.2-3.58-3.64.06-4.73-1.21-2.64,6.1.69,3.4-.54,2.94-4.52,1.72-4.48,1.27,0,0-2.11,2.32-4.48.62,3.7-.32,2.44-5.37-1.05-3.93a2.32,2.32,0,0,0-3.27-2.27l-3-4.23ZM92.2,25.94c1.44.22,1.25,1.58.28,2.33-.3.15-.18.32-.1.58,2.63,7.51,12.43,6.07,13.49.88a1.43,1.43,0,0,0,.08-.58c-.11-.5-.4-.92-.29-1.31a1.27,1.27,0,0,1,2.51.18c0,.6-.6.78-.91,1.33a1.26,1.26,0,0,0-.09,1.15c2.66,5.64,7.21,4.46,9.47,3.19,0,0-2,2.71-4.62,2.68-1.78,0-3.79-1.33-5.54-5.68-.09,0-7.82,11.89-14.5-.46-1.09,2.77-7.39,10-14.67.72-2.59,6.21-8.55,4.11-9.11,1.94.13.47,5.68,1.8,8.09-2.31a1.82,1.82,0,0,0,0-2.19,1.19,1.19,0,1,1,1.67-.18c-1.21.91,1.27,3.75,3.3,4.78,2.79,1.4,6.69.78,8.56-1.23a6.5,6.5,0,0,0,1.77-2.83.76.76,0,0,0-.18-.79c-.81-1-.28-2.35.82-2.19Zm-27,2.7c.26,0,.82.38.43.86l-.55-.78C65.09,28.65,65.14,28.62,65.23,28.63Zm54,1.77a.45.45,0,0,1,.19,0l-.61.75c-.21-.15,0-.79.42-.79Zm10.62.28a2.76,2.76,0,0,0-2.06.9C126.18,33.3,126,37,127,45.25c.34,2.93.16,3.51-1.24,3.35-2.94,0-2.82,4.62.38,4.62,3.54-.34,4.48-4.84,4.09-6.5a22,22,0,0,1,.35-7.6,23.63,23.63,0,0,1,1.32-4.08c.93-1.88.69-3.27-.69-4A2.86,2.86,0,0,0,129.83,30.68Zm-.27.5c1.88-.1,3.07,1.37,2.11,2.89-.58.92-1.08,1-2.21.56-1.55-1-1.16.45.23,1.49.9.64,1,.64.48,2.65a23.34,23.34,0,0,0-.63,8.07c.33,2.42-.46,5.64-3.51,5.83a1.7,1.7,0,1,1,.48-3.23c.79.31,1.33-.42,1.22-2.24a24.18,24.18,0,0,0-.27-2.43c-1.14-8-.72-13.29,1.69-13.56l.39,0Zm17.21,7.44a3.94,3.94,0,0,0-1.45.33,18.69,18.69,0,0,1-1.52,5.4,3.72,3.72,0,0,0,5.91-.84A3.35,3.35,0,0,0,148.25,39h0a3.19,3.19,0,0,0-1.48-.34Zm-.18.22c4-.21,4.7,7.29-1.34,6-1.13-.24-1-1.45.1-1.06C147.9,45,150,41.33,147.92,40c-1-.59-1.51-.25-.47.56.43.5.32.7.06,1.2-.53,1-2.47.84-2.34.11C145.62,39.52,145.91,38.85,146.59,38.84Zm-4.35,11.43c-3.55,1.76-7.56,1-10.54.08-1-.3-1.39.86-1.36,2.33.09.84.09,1.2-.55,1.76-1.52,1.33-.57,4.07-.34,4.14.09,2.4-7.51,14.44-7.52,14.22l1.51-.56,6.5,0c-17.09,16.7-24.23,35.75-22.73,57.26a34.39,34.39,0,0,0,1.17,7.9c6-2.71,11-4.68,15.77-9.9l.32,11.21a2.39,2.39,0,0,0-2.85-.34c-.55.36-.6.75-.1,2.11.73,2,.91,6.21.36,7.65a6.23,6.23,0,0,0-.16,1.05c-.06.59.06.63.12.62-.14,0-.73-.09-.8,0a10.91,10.91,0,0,1-7,3.09l-.07,1.34c2,5.13,3.7,7.14,5.52,10a2.06,2.06,0,0,0,.84.11l-.42.45c2.55,4.09,6.17,7.82,9.5,11.36,0,0,0,0,0,0h0c.66-.16,15.72-8.67,24.3-18l0-3.48.32-.42-.15-5.38-.22-.29-.07-2.2.34-.58v-6l-.46-.08-.08-7.38-14.09,0,0-35.25s8.27,9.22,14.23,14.66l0-4.12L137.86,91a12.18,12.18,0,0,0,4.62-1.61,17.35,17.35,0,0,0,11,2.25l0-4.2a15.49,15.49,0,0,1-11.1-2.85c-3.25,2.23-7.17,3.59-13,1.82a42.68,42.68,0,0,0-3.86-5.79h27.87V71.79c-1.24,0-4.33,0-4.33,0-1.57-3.12-4.65-7-5.94-12.37,1.76-2.14,1.62-3.86-.09-6,0-1,.3-2-.77-3.13Zm-10.23,1a15.86,15.86,0,0,1,2.57.44,17.21,17.21,0,0,0,5.52-.12c2.29-.42,2.61-.26,2.61.69,0,1.1-1.29,1.72-4.26,1.81-2.12.07-7.41.09-7.74-1.66C130.63,51.54,131,51.22,132,51.26Zm10.2,3.18a2.41,2.41,0,0,1,1.5,1.06c.57.87,0,2.66-.74,2.66-1.15-.19-1.82-2.83-1.13-3.58A.43.43,0,0,1,142.22,54.44Zm-11.27,0c.67.07,1.13,1,.77,2.06s-1,1.73-1.51,1.73c-1.58-.18-.67-3,0-3.53a1,1,0,0,1,.73-.25Zm2.9.32c.69.1,1.09.94.81,2.05s-.75,1.91-1.26,1.94c-1.38-.2-1-3.36-.32-3.83A1.25,1.25,0,0,1,133.84,54.78Zm5.63.12A1.49,1.49,0,0,1,140.92,56c.51,1.31-.42,2.72-1.27,2.73-1.27-.11-1.54-3-1-3.59a1,1,0,0,1,.59-.26h.27Zm-3,.11c.8,0,1.58,1.26,1.35,2.35S137.11,59,136.54,59s-1.31-.71-1.31-2c0-.58.39-1.87.88-1.93a.75.75,0,0,1,.34-.09Zm-6.4,4.47,1.87.08c-2,4.53-2.79,5.36-6.34,9.21C127,65.8,128.78,62.77,130.06,59.48Zm3,.21,1.37.05a26.62,26.62,0,0,0,1.61,3.94c.43.63.77.55,1.07,0a17.15,17.15,0,0,0,1.31-3.81L140,60c.29,2.2-3.2,7.37-3.76,7.43h0a17.84,17.84,0,0,1-3.14-7.75Zm9.53.1c1,3.17,2.69,6.34,4,9.51-1.45-1.17-5.4-6.3-5.85-9.39Zm-10.32,1.39c.54,1.47,2,5.69,3.95,7.53a17.57,17.57,0,0,0,4.19-6.28,54.5,54.5,0,0,0,5.81,8.2c.37.51-2.74-1.45-5.82-4.49-.87,2.22-3.19,5.25-4,5.33-.92-.3-3.31-3.76-4.44-5.65-2.4,1.94-4.76,4.1-7.32,5.27A57.57,57.57,0,0,0,132.32,61.18Zm-.51,6.22,3.17,4.4-10.06.15A27.51,27.51,0,0,0,131.81,67.39Zm9.06.37a16.61,16.61,0,0,0,5.64,4h-8.45ZM84.14,68.89a4.12,4.12,0,0,0-.63,1.77c-.3,1.81-.68,2.44-2.37,3.24a14.09,14.09,0,0,0-2,1.28c-1.56,1.26-2.08,1.55-3.34,1.25a5.85,5.85,0,0,0-2.3-.14A4.44,4.44,0,0,1,71,76.17c-.83-.22-1.86-.43-1.86-.43C86.49,111.06,85.92,143.8,68.8,177c0,0,5.07-.06,5.29-.19a4.9,4.9,0,0,1,1.37.13c1.38.25,1.08.08,4.33-3.23,4-4.1,10.46-.83,12.4,6.05a3.09,3.09,0,0,0,.34.83,1.81,1.81,0,0,0,.18.22,4.07,4.07,0,0,0-.13-.49c-1.24-5.11-4.65-9.36-9.77-8.85l16.86-17.09a99.6,99.6,0,0,0,8.42,19.39l-1.83-.37a5.8,5.8,0,0,0-3,.51,3,3,0,0,1-1.9-.25c-1.16-.22-1.95.43-3.4,1.73-.39.35-.53.26-1,.26-1.82,0-3,1.58-2.77,4l.09,1.09.23-1.22c.43-2.31.74-3.3,3-3.4.55,0,.75-.4,1.61-1.15,1.21-1.05,2.06-1.14,2.92-.73s1,.17,1.78-.23a5.29,5.29,0,0,1,3.56,0c1.73.5,1.52.33,1.52.33-10-18.08-13.54-35.42-13.32-50.82A99.52,99.52,0,0,1,110,73.17s-1.14.12-2.15.27a2,2,0,0,1-1.35-.17,2.46,2.46,0,0,0-1.23-.1,9.23,9.23,0,0,1-1.73-.08c-1.23-.18-1.31,0-2.66,1.31-3.81,3.75-3.56,3.61-6.32,3.52-4.14-.14-7.45-2.91-8.83-7.4-.17-.57-.4-1.37-.43-1.37l.27,1.19c1.21,6,6.29,8.23,10.53,8.14L78.23,96.68c.09,0-4.15-13.84-7.84-20a7.11,7.11,0,0,0,3.18.22,10.9,10.9,0,0,1,3.07.12c.91,0,1.46-.25,2.58-1.19A6,6,0,0,1,81,74.59c2.18-.93,3-1.9,3.06-4.32a8.88,8.88,0,0,0,0-1.38Zm18.55,4.57,1.37.23-25.17,25-.27-1.1Zm2.46.42,1.44.11-1.65,2,1.88,1.95-.87,1.4-2.12-2-4.06,3.94,3.29,3.51-2.81,2.93-1.06-.93L100.79,85l-2.35-2.43-4.25,4.24,3.32,3.67L94.87,93l-1-.94,1.23-1.33L92.7,88.2,89.12,92l3.26,3.64-2.9,2.86-.89-.9,1.33-1.51L87.5,93.51l-3.91,4.07,3.22,3.54-2.53,2.5-1-.94,1.23-1.46-2.24-2.39-2.77,2.63-.37-1.67Zm2.7.27,1.09,0-1.47,2.59-1-.87Zm-59.26.32C36.65,80,24.16,92.16,24.29,92.13l-.1,26.21,14.14,0,.06,34.73L24.27,139l.09,4.06c3.2,3.09,16.08,16.26,16.08,16.26A15.82,15.82,0,0,0,35,161.14a15.83,15.83,0,0,0-10.1-2.24v3.85a12.41,12.41,0,0,1,8.84,3.18l2.64.09c4.87-3.76,8.32-2,12-1.27L51,168.62H24.9v9h4l2.59,1.94-3-1.29a3.85,3.85,0,0,0,.65,1.45A61.42,61.42,0,0,1,34,189.77c.6,1.75.59,1.67.09,2.7a3.7,3.7,0,0,0,.37,4.07c.64.68.62.82.41,1.32a1.78,1.78,0,0,0,1.21,2.6c4.39-1.72,10.29.05,10.19.11h0a4.44,4.44,0,0,0,.86-.54,2.11,2.11,0,0,0,.44-2.31c-.13-.38-.11-.44.36-1.06,1.34-1.77,1.51-2.65.82-4.24-.31-.72-.31-.72,0-1.68a37.63,37.63,0,0,1,6.4-12,3.43,3.43,0,0,0,.58-1,3.09,3.09,0,0,0-1,.21c-2.74,1.38-5.64,4.06-8.34,5.82,4.26-3.5,8.8-6.73,8.8-6.73h-5.8c1.12-1.68,26.73-23.65,20.13-62.74-7.94,2-11.63,5.32-15.86,9.16,0-3.16-.11-11.65-.13-11.65s3.67,1.43,2.78-1.7a16.78,16.78,0,0,1,.14-8.52c0-.1-.4-.27-.36-.36s.6-.11.6-.11c2-3.19,5-3.08,7.62-3.17-1.22-4.25-3.53-7.73-5.24-10.51l-.78-.1.45-.42A20.24,20.24,0,0,0,57.49,85l0-.41s-1.63-2.31-2.51-3.39c-.06-.07-.2.1-.26,0-.49-.59-1.07-1.26-1.56-1.85,0,0,.08-.21,0-.26-.93-1-2.76-3.11-2.76-3.11l-.36.09Zm-.23.57,1.35,1.39A86.69,86.69,0,0,0,25.29,94.33l0-2.33A89.7,89.7,0,0,1,48.36,75Zm1,2.74c.11,0,.07.19.41.19s.24-.35.6-.08,0,.17.09.59.41.12.26.54-.18,0-.54.27,0,.42-.44.41-.06-.16-.42-.43-.4.14-.53-.29.13-.11.28-.53-.25-.34.11-.59a.44.44,0,0,1,.18-.09Zm54.39.65,1.05,1-1.6,1.7,1.08,1.48L103.65,84l-2.78-2.58ZM52.52,79.59l1.67,2.06c-11.6,5.25-20,11.77-28.9,21.07v-2.53A85.34,85.34,0,0,1,52.52,79.59Zm-6.63.12c.11,0,.07.19.41.19s.24-.35.6-.08,0,.17.09.59.4.12.26.54-.17,0-.54.27,0,.42-.44.41-.07-.16-.42-.43-.4.14-.53-.29.13-.11.28-.53-.26-.34.11-.59A.44.44,0,0,1,45.89,79.71Zm77.95.51c16.7,18.18,9.37,47.88-15.14,56.34l-.4-1.88c24.64-9,29.09-35.31,14.55-53.34Zm-81.2,1.42c.11,0,.07.19.41.19s.24-.35.6-.08,0,.17.08.59.41.12.26.54-.18,0-.54.27,0,.42-.44.41-.06-.16-.42-.43-.4.14-.53-.29.13-.11.28-.53-.25-.34.11-.59a.44.44,0,0,1,.18-.09Zm11.51,1.06A1.14,1.14,0,1,1,53,83.84,1.13,1.13,0,0,1,54.15,82.71Zm-14.62.94c.11,0,.07.19.41.19s.24-.35.6-.08,0,.17.08.59.41.12.26.54-.17,0-.54.27,0,.42-.44.41-.06-.16-.42-.43-.4.14-.53-.29.14-.11.28-.53-.26-.34.11-.59A.45.45,0,0,1,39.52,83.65ZM98.25,84l1.05,1-1.52,1.68,2.5,2.41,2-1.92s-.76,1.91-.87,2.23c-.16.47-.83.85-5,5.07-5,5.08-10.19,9.84-15.22,15.39l-.22-1.54,1.75-1.95-2.77-3-.14-.71,2.38-2.52,1.07,1.08-1.32,1.5,2.23,2.38,4.14-4-3.41-3.75,2.57-2.48,1,1.06-1.31,1.54,2.29,2.44,4.22-4.25-3.19-3.57,2.13-2.39,1,1.08L92.51,92l2.31,2.41,4.05-4-3.34-3.74Zm-47.42.41a1.15,1.15,0,1,1-1.14,1.15A1.14,1.14,0,0,1,50.83,84.41Zm6.16.74,1,1.72a99.71,99.71,0,0,0-32.71,24.65v-3C35.26,98.06,46,89.79,57,85.15Zm85.5.19c4,2.53,7,3.27,10.21,2.85l.06,2.74a14.42,14.42,0,0,1-10.28-2.53c-3.8,2.24-6.85,2.5-11.2,1.82l-1.3-2.6c4.24.76,8.7.69,12.52-2.29Zm-23,.26s.38.46.59.42a4.23,4.23,0,0,1,4.38,1.4c1.2,1.88-.14,4.83-.57,4.81l1,2.54a3.75,3.75,0,0,1,3.52,3.13,4.39,4.39,0,0,1-2.22,4.17l-.07,2.75a4,4,0,0,1,2.31,3.26,4.49,4.49,0,0,1-2.52,3.54l-1,.49-.92,2.25a6,6,0,0,1,1,3.85c-.63,2.93-4.39,2.73-5,2.44l-1.74,2.22a3.6,3.6,0,0,1-2.56,4.75,13.92,13.92,0,0,1-3.28-.44l-2.24,1.17c0,1.24-1.3,2-2.53,2.8l-.06-1.64c1.72-.89,1.28-2.29,1.71-2.27a29.37,29.37,0,0,0,3.83-1.77,2.42,2.42,0,0,0,2.93.24,2.9,2.9,0,0,0,.8-3l2.95-3.49c1.42.62,2.81.58,3.51-.39s.48-2.44-.81-3.95l1.61-4.18c.18.25,2.87-.55,2.91-2.17s-2.22-2.83-2.22-3l.11-4.61c.1.22,2.31-.69,2-2.9-.28-2-3-1.79-3.06-2l-1.48-4.41c.1.13,2-1.76.84-3.56-1-1.5-3.81-.53-3.79-.43l-.79-1.12Zm-83,.33c.11,0,.07.19.41.19s.24-.35.6-.08,0,.17.08.6.41.12.26.54-.17,0-.54.27,0,.42-.44.41-.06-.16-.42-.43-.4.14-.53-.29.14-.11.28-.53-.26-.34.11-.59a.44.44,0,0,1,.18-.09Zm10.87.52a1.14,1.14,0,1,1-1.12,1.14A1.13,1.13,0,0,1,47.38,86.45ZM58.61,87.6a54.41,54.41,0,0,1,5.21,9.8c-6,0-7.62,3.36-7.66,3.38-1.44-.55-1.74-.62-2.85,0a13,13,0,0,1-6.35-7A120.1,120.1,0,0,1,58.61,87.6Zm-25.2.73c.11,0,.07.19.41.19s.24-.35.6-.08,0,.17.09.59.4.12.26.54-.17,0-.54.27,0,.42-.44.41-.07-.16-.42-.43-.4.14-.53-.29.14-.11.28-.53-.26-.34.11-.59a.44.44,0,0,1,.18-.09Zm84.28,0c3.75,2.31,13.41,27.4-10.31,37.74l0-1.43c21.36-10.5,12.63-32.24,9.58-34.77ZM44,88.61a1.14,1.14,0,1,1-1.12,1.14A1.13,1.13,0,0,1,44,88.61Zm-3.09,2.17a1.14,1.14,0,1,1-1.12,1.14A1.13,1.13,0,0,1,40.92,90.78Zm-10.31.08c.11,0,.07.19.41.19s.24-.35.6-.08,0,.17.09.59.4.12.26.54-.17,0-.54.27,0,.42-.44.41-.07-.16-.42-.43-.4.14-.53-.29.14-.11.28-.53-.26-.34.11-.59a.44.44,0,0,1,.18-.09Zm101,.36,2,.09a72.2,72.2,0,0,0,5.48,6v34.79l-7.32,0c-1.73,4-6.47,6.93-6.74,7h0l-.38-12c10.62-12.6,10-24.78,6.94-35.83Zm5.37,0,16,16.78-.07,2.17c-6-6.24-12.19-12.42-18.31-18.82ZM37.72,92.94a1.13,1.13,0,1,1-1.12,1.13A1.13,1.13,0,0,1,37.72,92.94Zm78.48.22,2.88,2.22-.85,4-2.93-2.44Zm-88.3,0c.11,0,.07.19.41.19s.24-.35.6-.08,0,.17.08.6.41.12.26.54-.18,0-.54.27,0,.42-.44.41-.06-.16-.42-.43-.4.14-.53-.29.13-.11.28-.53-.25-.34.11-.59a.45.45,0,0,1,.18-.09Zm18.9.35a5,5,0,0,0-1,1.38l-1.2-.07Zm-2.23,1.34,1.23.07L45.41,98a47.86,47.86,0,0,0-5.31,1.47v-1.1c1.53-1.36,4.49-3.55,4.49-3.55Zm-10.1.6a1.14,1.14,0,1,1-1.12,1.14A1.13,1.13,0,0,1,34.48,95.47Zm-9.17.18s.07.19.41.19.24-.35.6-.08,0,.17.08.59.41.12.26.54-.18,0-.54.27,0,.42-.44.41a.4.4,0,0,1-.42-.43Zm74.07.05a129.16,129.16,0,0,0-4.16,21.73H82l-.3-4.26Zm14.39.14c3.19,7.87,2.25,15.51-5.82,21.86l.09-1.59c5.7-5,8-11.32,5-18.7Zm-66.61.09a21,21,0,0,0,5.55,5.76l-.4,1.05-2.11.14A12.37,12.37,0,0,1,47.16,95.93Zm-1,.55c.22.7,1.9,5.45,3.2,6.66-3,.87-5.19,2.74-5,3.36.49.88,1.84,2,4.11,2.75a16.87,16.87,0,0,0-2.94,6.62c-1.08-1.77.54-6.35.61-6.17.13-.32-9.27-2.33.39-7C46.37,101.27,45.46,98.31,46.16,96.48ZM31.8,98a1.13,1.13,0,0,1,1.12,1.14c-.12.78-.61,1.1-1.1,1.09a1.15,1.15,0,0,1-1.14-1.09A1.13,1.13,0,0,1,31.8,98Zm8.26.4v1.09l-3.18,1.42Zm4.95.11.15,1.85c-8.83,2-16.93,9.49-18,10.68,4.6-6.42,10.19-10.62,17.83-12.53Zm-15.92,2.12A1.14,1.14,0,1,1,28,101.8,1.13,1.13,0,0,1,29.08,100.66Zm89.38.36,2.1,3.22-2.45,3.33-1.85-2.82Zm-63.74.25a1.23,1.23,0,0,1,1.1.87,25.26,25.26,0,0,0,0,8.95c0,.39-.53.57-1,.57a.9.9,0,0,1-.64-.21c-1.7-.7-1.82-9.09-.28-9.94A1.31,1.31,0,0,1,54.73,101.27Zm-9.36.1.14.91L42.69,104c-9.07,4-13,8-17.41,12.4v-2.38c7-7.79,14-11.29,20.08-12.7Zm-18.89,1.94a1.14,1.14,0,1,1-1.12,1.14A1.13,1.13,0,0,1,26.48,103.31Zm25.71.34-.06,1a13.31,13.31,0,0,0-3.35,1.14,2.36,2.36,0,0,0-.88.71,5.18,5.18,0,0,0,1.77,1.1,13.79,13.79,0,0,0,2.54.39l.09.89a14.2,14.2,0,0,1-5.19-1c-2.25-1.21-1.55-2.15-.08-2.86a11.72,11.72,0,0,1,5.17-1.32ZM80.33,105l.05,0,1.23,1.4-.85.79c-.06-.5-.65-2.34-.43-2.24Zm-28.17.47,0,1.49a8.67,8.67,0,0,1-2.85-.48,5.86,5.86,0,0,1,2.83-1Zm-10.91.16a6.1,6.1,0,0,0-.07,2.12,38.18,38.18,0,0,0-13,10.12l-2.68,0c5-6,10.43-10,15.78-12.23Zm.35,2.81a1.87,1.87,0,0,0,.87.1l1.36,1.07c-.25-.24-9.12,5-11.7,8.26H29.42c4.08-5.25,8.21-7.16,12.18-9.42Zm76.19.85.27,4-3.4,1.74-.3-3.61Zm-68.21.3h3l.33,1.3a19,19,0,0,0-6.39,5.48c-.12-1.72,1.39-5,3.11-6.79Zm-4.8.59c.05,0,.06,0,0,.07l-.4,2.18a44.51,44.51,0,0,0-8.82,5.45H33.53c1.74-2.79,10.5-7.71,11.25-7.69Zm8.49,1.35v12.81c-12.44,13.51-9.06,28.3-6.88,35.48-2.28-.25-5.07-4.44-7.6-6.83l0-34.17,7.58-.16c1-2.4,3.28-4.78,6.93-7.12Zm-9.1,2c.05,0,.08,0,.09,0l0,1.33-3.95,3-3.1.06c-.25-.65,6.16-4.21,7-4.37Zm25,1.7.26,1.63c-23.66,8.08-29.12,35.23-13.76,52.22l-1.4,1.7C36.72,151,45.74,122.14,69.2,115.22Zm-24.83.49.39,2.17c-.82,0-2.84,0-2.84,0a8.68,8.68,0,0,1,2.46-2.13Zm69.14.91-1.45,3.5-3.75.34,1.27-3.5Zm-26.62,1.86h4l0,3.85h-4Zm-17,.86.13,1.49a2.86,2.86,0,0,0-.85,2.53l-3.64,1.8a3.57,3.57,0,0,0-1.68-1.25A2.39,2.39,0,0,0,61,126a8.13,8.13,0,0,0,.55,1.89l-3.09,3.24c-1.28-.45-2.17-.52-2.75-.19a2.56,2.56,0,0,0-1.16,2.72,3.7,3.7,0,0,0,1.12,1.61l-1.72,4.41a3.13,3.13,0,0,0-1.92.54,2.4,2.4,0,0,0-.57,3.29,2.48,2.48,0,0,0,1.7,1.11L53,149.22s-1.76.84-1.93,1.87c-.42,2.55,1.2,3,3.13,2.93l1.44,4.15c-2.29,1.41-1.56,3.66-.4,4.41a3.56,3.56,0,0,0,2.94.06s.79.79,1.38,1.43l-.57.8-1-1c-4.63,1.22-6.13-3.62-4-6.38l-.62-2c-4.12-.81-5.26-5.08-1.48-7.37l0-2.23a8.9,8.9,0,0,1-1.92-1.85,3.52,3.52,0,0,1,1-5,3.58,3.58,0,0,1,2.16-.71l1.07-2.53A3,3,0,0,1,53,133.71a4,4,0,0,1,1.9-4,5.13,5.13,0,0,1,3.68-.1l1.52-1.54a5.27,5.27,0,0,1-.29-2.91,3.77,3.77,0,0,1,4.12-2.55,4.07,4.07,0,0,1,2.21,1l1.68-.65s0-2.16.82-2.82a11.22,11.22,0,0,1,1.22-.9Zm12.53,4h3.73V127H82.4Zm9.24,0h3.31V127H91.63Zm-21.39,2,0,1.79c-6.47,2.36-11.45,7.3-13.13,15.86a22.74,22.74,0,0,0,4.32,18l-.87,1.52c-4.4-6.17-6.17-13-5-20,1.57-9.16,7.68-14.21,14.61-17.18Zm16.84,2.49h3.86v3.74H87.08Zm-17.14,2.49L68,134l-3.9.07,1.59-3.75Zm12.34,2h13l.51,4.57L78.62,154.34a106,106,0,0,0,3.66-22Zm51,.47H136a4.83,4.83,0,0,1-2.58,1.92S133.33,133.24,133.29,132.76Zm4.19,0h2.75c-1.9,1.79-3.79,3.6-6.56,4.58l-.09-1.59A21.24,21.24,0,0,0,137.47,132.76Zm4,0h2.89a41.26,41.26,0,0,1-10.23,8l-1.05-.49.42-1.82a27.62,27.62,0,0,0,8-5.66Zm4.13,0h2.82c-3.56,3.91-7.39,7.42-12.25,9.44l-1.42-.9a39.52,39.52,0,0,0,10.86-8.54Zm4.13,0,2.58,0,.06.69a70.85,70.85,0,0,1-16.32,12.18,8.27,8.27,0,0,0,1.1-2.89c3.84-2.36,7.78-4.57,12.58-10Zm-79.69.36-.25,2c-5,3.7-8.21,11-4.53,17.94l-.66,1.54C60.05,146,62.77,138.5,70.07,133.12Zm62.47.83c.59,1,.65,5-.61,6.67a16.1,16.1,0,0,1,4.25,2.82c-.84,3-4.4,4.79-4.56,4.81.06-.15,1.05,6.27,0,7a36.44,36.44,0,0,0-2.92-7.49c.9-.47,4.15-2.34,4.15-3.21-.46-1.57-3.89-3-3.89-3A39.73,39.73,0,0,0,132.53,134ZM153,134v2.91A65.64,65.64,0,0,1,132.61,150l-.22-1.41C137.65,145.58,143.92,142.71,153,134Zm-89.45,1.34-.07,4.09-3.22,1.77L60,137.29Zm67.54,0a22.15,22.15,0,0,1-2.86,5.84l-2.46-.27-.25-1.05a38.74,38.74,0,0,0,5.57-4.51ZM153,138.38v1.77A95.4,95.4,0,0,1,121.45,166l-.78-1.32c11.92-6.11,20.17-12.22,32.38-26.28Zm-30.15.21c2.55-.09,3.73,8.19,1.38,10.71a1.64,1.64,0,0,1-1,.51c-.66,0-1.11-.57-1-1.36a16.81,16.81,0,0,0-.06-7.3c-.43-1.48-.53-2-.18-2.25a1.55,1.55,0,0,1,.83-.31Zm27,2.06h0a22.06,22.06,0,0,1-4.53,5.2c-3.64,3.62-12.34,6.73-12.34,6.73h0l-.16-1.89c.85,0,10-3.85,17-10Zm-53.48,0,.41,2.09-1.55,1.58,2.37,2.4.42,1.6-2.33,2.22-1-1,1.37-1.6-2.2-2.19-4,3.73,3.29,3.67-2.72,2.67-.94-.93,1.3-1.36L88.55,151l-4.09,4,3.36,3.6-2.7,2.7-1-1,1.36-1.66-2.33-2.28-4,4,3.3,3.51-2.87,3-1-1.1,1.63-1.66-2.32-2.46-2.23,2.18,1.12-3.24ZM25.61,141l17.73,18.26-2.29-.09-15.5-15.84Zm100.68.74c1.11.1,5.44,1.63,5.77,2.8-.64.9-4.18,3-6.2,2.9l.1-1.13a9.91,9.91,0,0,0,3.64-1.93c.2-.17-3.22-1.74-3.57-1.38V141.8s.1-.07.26-.05Zm-66.18,1.14,1.64,3.55-2.4,2.79-1.93-3.28Zm66,1a3.85,3.85,0,0,1,2,.63,3.73,3.73,0,0,1-2,.8ZM97,144l.27,1.19-.72-.77Zm54.37.79a1,1,0,1,1-1,1A1,1,0,0,1,151.36,144.76Zm1.76,2,.09,2.65A100.45,100.45,0,0,1,125,170.65l-1.12-1.31C133.9,164.49,143.67,157.22,153.11,146.73Zm-59.34.44.87.93-1.19,1.29,2.25,2.44,2.56-2.35.43,1.61-25.3,25.48-2.12.06c.29-.59,1.09-1.33,1.44-1.88l-1.3-1.64.72-1.32,2,1.7,3.8-3.81-3.17-3.61,3-3.07,1,1.15-1.59,1.68,2.47,2.34L84,163.9l-3.54-3.65,2.6-2.52,1,1-1.36,1.52L85,162.67l4-4.18-3.2-3.61,2.47-2.49,1.1,1.13-1.19,1.26,2.29,2.43,4.12-4.12-3.34-3.68Zm54.88.21a1,1,0,1,1-1,1A1,1,0,0,1,148.65,147.39Zm-20.59.68a48.89,48.89,0,0,1,2.59,5.92s-2.83-2.66-5.36-5l.3-.61Zm14.1,1.09L140.25,151l-.52-.54Zm-17.15.33c.24,0,.5.4.5.4a1.83,1.83,0,0,0-.92,0s.19-.38.42-.39Zm-2.56.51a5.37,5.37,0,0,0,1.39.13.76.76,0,0,1-.54.28h-.1a1.27,1.27,0,0,1-.75-.41Zm2.64.05c0-.06,5.15,3.15,6.13,7.52A115.34,115.34,0,0,1,120.09,164a48.69,48.69,0,0,1-5.46-9.82,5.5,5.5,0,0,1,0-1c4.05-.36,5.45-2,6.89-3.1C122.6,150.66,123.07,151.34,125.09,150.06Zm20.93,0a1,1,0,1,1-1,1A1,1,0,0,1,146,150.08Zm-86,.57,3.13,2.85-1.07,3.3L59,154.62Zm79.91.22a53,53,0,0,1-7.13,5.61l-.54-.33.63-2.71ZM99,152.08l.37,1.53L76.3,176.78c-.75-.08-1.68,0-1.58-.73Zm52.78.24c.45,0,.06.16.42.43s.4-.14.53.29-.14.11-.28.53.26.34-.11.59-.15-.09-.59-.1-.24.35-.6.08,0-.17-.08-.59-.41-.12-.26-.54.18,0,.54-.27S151.32,152.31,151.76,152.32Zm-8.68.32a1,1,0,1,1-1,1A1,1,0,0,1,143.08,152.64Zm6.23,2.36c.45,0,.06.16.42.43s.4-.14.53.29-.13.11-.28.53.25.34-.11.59-.15-.09-.59-.1-.24.35-.6.08,0-.17-.09-.59-.4-.12-.26-.54.17,0,.54-.27S148.86,155,149.31,155Zm-9.3,0a1,1,0,1,1-1,1A1,1,0,0,1,140,155Zm13.27,0-.11,3.07a108.47,108.47,0,0,1-23.58,17.32l-1.81-1.69A95.9,95.9,0,0,0,153.28,155Zm-22.08.66c.5.8.52,1.09,1.39,1.23l-1,.76Zm6.09,1.48a1,1,0,1,1-1,1A1,1,0,0,1,137.3,157.17Zm9.32.15c.45,0,.06.16.42.43s.4-.14.53.29-.13.11-.28.53.25.34-.11.59-.15-.09-.59-.1-.24.35-.6.08,0-.17-.09-.59-.41-.12-.26-.54.18,0,.54-.27S146.17,157.31,146.62,157.32Zm-12.47,2.19a1,1,0,1,1-1,1A1,1,0,0,1,134.14,159.5Zm-107.48,0A15.55,15.55,0,0,1,35,162.3a14.54,14.54,0,0,1,11.78-1.64l1.56,3.39c-6-2.83-11.66-.13-13.2,1.37-2.1-1.9-6.52-3.79-9.37-3.59l-.08-2.28c.31,0,.62,0,.92,0Zm117.23,0c.45,0,.07.16.42.43s.4-.14.53.29-.13.11-.28.53.26.34-.11.59-.15-.09-.59-.1-.24.35-.6.08,0-.17-.09-.6-.4-.12-.26-.54.17,0,.54-.27S143.44,159.54,143.88,159.55Zm-13,2.1a1,1,0,1,1-1,1A1,1,0,0,1,130.93,161.65Zm9.95.32c.45,0,.07.16.42.43s.4-.14.53.29-.13.11-.28.53.26.34-.11.59-.15-.09-.59-.1-.24.35-.6.08,0-.17-.09-.6-.4-.12-.26-.54.17,0,.54-.27S140.43,162,140.87,162Zm-13.43,1.77a1,1,0,1,1-1,1A1,1,0,0,1,127.44,163.74Zm10.39.41c.45,0,.06.16.42.43s.4-.14.53.29-.13.11-.28.53.25.34-.11.59-.15-.09-.59-.1-.24.35-.6.08,0-.17-.08-.6-.41-.12-.26-.54.18,0,.54-.27S137.39,164.14,137.84,164.15Zm-13.67,1.37a1,1,0,1,1-1,1A1,1,0,0,1,124.17,165.52Zm10.5.76c.45,0,.06.16.42.43s.4-.14.53.29-.14.11-.28.53.26.34-.11.59-.15-.09-.59-.1-.24.35-.6.08,0-.17-.08-.59-.41-.12-.26-.54.18,0,.54-.27S134.22,166.26,134.67,166.27Zm-60.45.86,2.5,2.63-2.48,2.59-1.09-1.1,1.5-1.77-1-1Zm57.12,1.16c.45,0,.07.16.42.43s.4-.14.53.29-.13.11-.28.53.26.34-.11.59-.15-.09-.59-.1-.24.35-.6.08,0-.17-.09-.59-.4-.12-.26-.54.17,0,.54-.27S130.9,168.29,131.34,168.3Zm-3.29,1.84c.45,0,.06.16.42.43s.4-.14.53.29-.14.11-.28.53.26.34-.11.59-.15-.09-.59-.1-.24.35-.6.08,0-.17-.08-.6-.41-.12-.26-.54.18,0,.54-.27S127.61,170.13,128.06,170.14Zm-57.18,4,.82.92-1.07,1.12-.82.13Zm-28.82,4.06,11,.16-6.89,5Zm-1.42.09-3.41,5-7-4.86Zm.8.63A71.67,71.67,0,0,1,46,184.79c2.29-1.72,3.9-3.56,6.87-5.17,0-.07-5.83,6.36-7.21,9.83.12-.16-2.2-5.82-4.17-7.63a15.4,15.4,0,0,0-3.83,7.08l-6.09-8.67,5.94,4.12A30.35,30.35,0,0,1,41.43,178.87Zm-10.73,2.2c2.6,2.54,4.9,6.44,7,10.1l-2.77.18A104.64,104.64,0,0,0,30.71,181.07Zm21.36,1a57.64,57.64,0,0,0-4.27,9.3l-2.14-.2c.06,0,3.41-7.19,6.41-9.1Zm-10.66,1.14c1.82,1.5,3.36,5.56,3.62,7.8H43.61a10.87,10.87,0,0,0-2.25-4.79,21.66,21.66,0,0,0-1.87,4.66l-1.13,0c-.43-.26,1.33-6.87,3-7.67Zm0,8.53a1.41,1.41,0,0,1,.35,0c1.13.8,1.1,3.59-.6,3.65-1.42-.25-1.4-3.57.25-3.67Zm-3.37.4a1.23,1.23,0,0,1,1.26,1c.41,1.36-.23,2.7-1.16,2.75a1.15,1.15,0,0,1-.54-.12c-.71-.33-1.05-2.54-.35-3.25A1.22,1.22,0,0,1,38,192.14Zm6.5,0c.7,0,1.36.7,1.05,1.9-.2.8-.67,1.67-1.48,1.72-1,0-1.27-2.34-.26-3.3A1.09,1.09,0,0,1,44.55,192.17Zm2.94.75c.79-.09,1.32,1,.74,2.16-.41.83-.83,1.37-1.28,1.38a1.07,1.07,0,0,1-.89-.95,3.77,3.77,0,0,1,.85-2.33,1.15,1.15,0,0,1,.58-.26ZM35,193c.69,0,1.26.77,1.25,1.95,0,.82-.3,1.32-.79,1.31a1.26,1.26,0,0,1-.63-.17c-.85-.61-.93-2.72-.13-3A.93.93,0,0,1,35,193Zm5.72,3.57c.39,0,.78,0,1.17,0,2.58.08,5,.64,5.2,1.64.28,1.17-.44,1.82-2.83,1.24-3.85-.84-6.23.06-8.17.35-.88,0-1-.38-1-1,.07-1.21,1.63-1.65,2.34-1.82a16.49,16.49,0,0,1,3.26-.37Zm10.54.71A2.76,2.76,0,0,0,49,198.78a9.44,9.44,0,0,0-1,6.41c.51,2.92.13,6.55-.86,8.26-1.77,3.06-1.74,5.07.09,5.7,4,1.3,4.81-5.53,4.78-7.17,0-2-.4-7-.54-7.78-.19-1,0-2.46.38-2.61a2.2,2.2,0,0,0,.79-3.91,2.25,2.25,0,0,0-1.43-.37Zm.17.39A1.82,1.82,0,0,1,53,198.84c.44,1.3-.35,2.42-2.3,2.1,0,0-.14.41.37,4.74.7,6,.43,10.22-.66,11.69a3,3,0,0,1-2.11,1.45,1.81,1.81,0,0,1-1.08-3.41,1.89,1.89,0,0,1,1.91.14c.76.45.66-.06-.13-.64s-1.32-.64-.82-2.23a19.4,19.4,0,0,0,.45-6.52c-.69-5-.11-7.47,2-8.34A1.8,1.8,0,0,1,51.41,197.7Zm-20.58,8.21a3.3,3.3,0,0,0-3.23,3.72,3.4,3.4,0,0,0,3.29,3,3.93,3.93,0,0,0,1.91-.55,52.86,52.86,0,0,1,.26-5.49,4.29,4.29,0,0,0-2.23-.69Zm0,.57a2.92,2.92,0,0,1,.6.06,3.42,3.42,0,0,1,1.1.52l-.11.87a4.44,4.44,0,0,0-1.15-.2c-3.23-.09-2.26,3.94-.3,3.47.43-.11.49-.3,0-.44-1.53-.7-1-1.67-.43-2.07s1.67.17,1.85.56l-.11,2.53A2.91,2.91,0,0,1,28,209.09a2.74,2.74,0,0,1,2.82-2.62Zm35,2.73L49.3,229.67l71.09-.46L106.58,210.5c-14.68,3-27.45,1.06-40.72-1.29Zm-.35,4c2.78,0,5.47,2.91,6.13,5.64,5.06-7.4,11.13-5.86,14.51.64-.4-.41,6.67-11.66,14.69-.12,3.4-9.28,9.59-3,9.16-2.63-2.84-1.61-8-1-8.51,3.94-.07.61.39.65.66,1.14,1.34,2.45-3,2.47-2,.23.23-.51.61-.85.52-1.24a4.77,4.77,0,0,0-.84-1.35c-3.56-4.7-10.77-4.54-12.94.3-.44.9-.35,1.1.18,1.87a1.12,1.12,0,1,1-1.68-.07c1.23-1.57-2.14-5.11-5.51-5.67-4.31-.71-8.41,2.36-7.84,5.12,0,.16.11.31.15.47.46,2.31-3.15,1.2-1.85-.27.49-.53.75-.69.69-1.28-1-4.89-6.91-5.4-9.7-3.89,1.24-2,2.72-2.85,4.18-2.85ZM63,217a2.63,2.63,0,0,1,2.37,1.37c3.19-1.81,4.17-.05,5,1.09-4.06-2.79-6,2.94-1.56,3.27-1.75,3.6,4.5,5.23,4.13.55,4.13.95,3.18-4.94.15-3.73,2-3,5.2-1,5.85-.4,1.66-1.26,4.8-1.3,5.68.71-4.59-.94-4.09,5.19,0,3.78-2.17,4.71,5.06,4.08,3.3.22,4.11.16,3.2-5-.41-4.11,3.21-3.07,5.62-.21,6.12-.15,1.9-2.13,5.24-1,5.7.29-3.28-1.31-4.35,4.27-.22,3.93-1.06,3.59,4.88,4,3.57-.05,3.27.75,3.45-4.56-.22-3.74-.23-1.46,2.66-2.85,4.43-1.44,1.3-.72,2.73-1.85,4.42-.18-2.58.42-3,4.84,1.16,3.89-.2,2.71,1.34,2.86,3.24,2.17l3,4.18-67.63.09,4.73-6c1.31,1.2,4.23.77,3.82-1.86,3.63,1.91,4.4-3.34,1.32-3.12.19-.52,1.07-.84,2-.8Zm-3.69,1.54c.22.58.23,1.11-.93,1.19Zm53.59,1.94.64,1C112.89,221.38,112.78,221.11,112.89,220.45Z"/>
  <path d="M130.7,184.89s3.73,6.12,8.77,13.32c3.37,4.82,6.06,10,6.31,14.53.29,5.13-2.43,10.28-7.35,10.53s-6.92-4-7.73-7.43c-.81,3.47-2.81,7.68-7.73,7.43s-7.64-5.4-7.35-10.53c.25-4.49,2.94-9.71,6.31-14.53,5-7.2,8.77-13.32,8.77-13.32Z" style="fill: #d40000"/>
  <path d="M47.88,64.56s3.73-6.12,8.77-13.33C60,46.41,62.71,41.19,63,36.7c.29-5.13-2.43-10.28-7.35-10.53s-6.92,4-7.73,7.43c-.81-3.47-2.81-7.68-7.73-7.43s-7.64,5.4-7.35,10.53c.25,4.49,2.94,9.71,6.31,14.53C44.15,58.43,47.88,64.56,47.88,64.56Z" style="fill: #d40000"/>
</svg>
