<svg xmlns="http://www.w3.org/2000/svg" viewBox="0 0 178.58 249.45">
  <title>H2</title>
  <path d="M164.81,193.47S166.59,196,169,199c1.61,2,2.89,4.18,3,6.05a3.88,3.88,0,0,1-3.51,4.39c-2.35.1-3.3-1.65-3.68-3.09-.39,1.45-1.34,3.2-3.68,3.09a3.88,3.88,0,0,1-3.51-4.39c.12-1.87,1.4-4,3-6.05C163,196,164.81,193.47,164.81,193.47Z" style="fill: #d40000"/>
  <path d="M13.77,56s1.78-2.55,4.18-5.55c1.61-2,2.89-4.18,3-6.05A3.88,3.88,0,0,0,17.46,40c-2.35-.1-3.3,1.65-3.68,3.09-.39-1.45-1.34-3.2-3.68-3.09a3.88,3.88,0,0,0-3.51,4.39c.12,1.87,1.4,4,3,6.05C12,53.43,13.77,56,13.77,56Z" style="fill: #d40000"/>
  <path d="M89.29,184.89S93,191,98.06,198.22c3.37,4.82,6.06,10,6.31,14.53.29,5.13-2.43,10.28-7.35,10.53s-6.92-4-7.73-7.43c-.81,3.47-2.81,7.68-7.73,7.43s-7.64-5.4-7.35-10.53c.25-4.49,2.94-9.71,6.31-14.53C85.56,191,89.29,184.89,89.29,184.89Z" style="fill: #d40000"/>
  <path d="M89.29,64.56S93,58.43,98.06,51.23c3.37-4.82,6.06-10,6.31-14.53.29-5.13-2.43-10.28-7.35-10.53s-6.92,4-7.73,7.43c-.81-3.47-2.81-7.68-7.73-7.43s-7.64,5.4-7.35,10.53c.25,4.49,2.94,9.71,6.31,14.53C85.56,58.43,89.29,64.56,89.29,64.56Z" style="fill: #d40000"/>
  <path d="M172.32,212l-.13,1.63c-.41,5-1.49,6.73-7.62,12-3,2.55-4,3.8-4.09,5.26-.39,3.44,2.65,4.51,4.63,4.53,2.57,0,5.47-1.54,4.09-5.17l2.88-.86c.58,3.39,0,6.56-2.71,8-3.6,1.84-8.22,1.12-10.55-1.78a6.91,6.91,0,0,1-1.08-6.74c2.46-5.38,10.78-7.74,11.47-14H160v3.46H157.3V212l15,.06Z" style="fill: #d40000"/>
  <path d="M6.26,37.41l.13-1.63c.41-5,1.49-6.73,7.62-12,3-2.55,4-3.8,4.09-5.26.39-3.44-2.65-4.51-4.63-4.53C10.9,14,8,15.56,9.38,19.19l-2.88.86c-.58-3.39,0-6.56,2.71-8,3.6-1.84,8.22-1.12,10.55,1.78a6.91,6.91,0,0,1,1.08,6.74c-2.46,5.38-10.78,7.74-11.47,14h9.2V31.09h2.71v6.38l-15-.06Z" style="fill: #d40000"/>
</svg>
