<svg xmlns="http://www.w3.org/2000/svg" viewBox="0 0 178.58 249.45">
  <title>H3</title>
  <path d="M13.77,56S12,53.43,9.59,50.43c-1.61-2-2.89-4.18-3-6.05A3.88,3.88,0,0,1,10.09,40c2.35-.1,3.3,1.65,3.68,3.09.39-1.45,1.34-3.2,3.68-3.09A3.88,3.88,0,0,1,21,44.37c-.12,1.87-1.4,4-3,6.05C15.55,53.43,13.77,56,13.77,56Z" style="fill: #d40000"/>
  <path d="M164.81,193.47S163,196,160.63,199c-1.61,2-2.89,4.18-3,6.05a3.88,3.88,0,0,0,3.51,4.39c2.35.1,3.3-1.65,3.68-3.09.39,1.45,1.34,3.2,3.68,3.09a3.88,3.88,0,0,0,3.51-4.39c-.12-1.87-1.4-4-3-6.05C166.59,196,164.81,193.47,164.81,193.47Z" style="fill: #d40000"/>
  <path d="M89.29,64.56s-3.73-6.12-8.77-13.33c-3.37-4.82-6.06-10-6.31-14.53-.29-5.13,2.43-10.28,7.35-10.53s6.92,4,7.73,7.43c.81-3.47,2.81-7.68,7.73-7.43s7.64,5.4,7.35,10.53c-.25,4.49-2.94,9.71-6.31,14.53C93,58.43,89.29,64.56,89.29,64.56Z" style="fill: #d40000"/>
  <path d="M89.29,143.92s-3.73-6.12-8.77-13.33c-3.37-4.82-6.06-10-6.31-14.53-.29-5.13,2.43-10.28,7.35-10.53s6.92,4,7.73,7.43c.81-3.47,2.81-7.68,7.73-7.43s7.64,5.4,7.35,10.53c-.25,4.49-2.94,9.71-6.31,14.53C93,137.8,89.29,143.92,89.29,143.92Z" style="fill: #d40000"/>
  <path d="M89.29,184.89s-3.73,6.12-8.77,13.33c-3.37,4.82-6.06,10-6.31,14.53-.29,5.13,2.43,10.28,7.35,10.53s6.92-4,7.73-7.43c.81,3.47,2.81,7.68,7.73,7.43s7.64-5.4,7.35-10.53c-.25-4.49-2.94-9.71-6.31-14.53C93,191,89.29,184.89,89.29,184.89Z" style="fill: #d40000"/>
  <path d="M5.2,31.68l2-1.49C9,33.06,11,35,14,34.63c4.53-.31,6.4-5.06,5.46-8.63a5.24,5.24,0,0,0-7.65-3.06,7.46,7.46,0,0,1-1.52.74c-.31,0-1-1.41-.92-1.84a93.35,93.35,0,0,1,6.86-8H8.63v3.43H5.72V11.07H20.55v2.09a50.49,50.49,0,0,0-5.29,6.38A7.2,7.2,0,0,1,22,24.95a14.34,14.34,0,0,1-.41,7.29,9.15,9.15,0,0,1-7.44,5.21c-5,.34-7.66-3.17-9-5.76Z" style="fill: #d40000"/>
  <path d="M173.38,217.77l-2,1.49c-1.76-2.87-3.74-4.76-6.75-4.44-4.53.31-6.4,5.06-5.46,8.63a5.24,5.24,0,0,0,7.65,3.06,7.47,7.47,0,0,1,1.52-.74c.31,0,1,1.41.92,1.84a93.36,93.36,0,0,1-6.86,8h7.59v-3.43h2.91v6.15H158v-2.09a50.5,50.5,0,0,0,5.29-6.38,7.2,7.2,0,0,1-6.78-5.41,14.34,14.34,0,0,1,.41-7.29,9.15,9.15,0,0,1,7.44-5.21c5-.34,7.66,3.17,9,5.76Z" style="fill: #d40000"/>
</svg>
