<svg xmlns="http://www.w3.org/2000/svg" viewBox="0 0 178.58 249.45">
  <title>H4</title>
  <path d="M164.81,193.47S166.59,196,169,199c1.61,2,2.89,4.18,3,6.05a3.88,3.88,0,0,1-3.51,4.39c-2.35.1-3.3-1.65-3.68-3.09-.39,1.45-1.34,3.2-3.68,3.09a3.88,3.88,0,0,1-3.51-4.39c.12-1.87,1.4-4,3-6.05C163,196,164.81,193.47,164.81,193.47Z" style="fill: #d40000"/>
  <path d="M13.77,56s1.78-2.55,4.18-5.55c1.61-2,2.89-4.18,3-6.05A3.88,3.88,0,0,0,17.46,40c-2.35-.1-3.3,1.65-3.68,3.09-.39-1.45-1.34-3.2-3.68-3.09a3.88,3.88,0,0,0-3.51,4.39c.12,1.87,1.4,4,3,6.05C12,53.43,13.77,56,13.77,56Z" style="fill: #d40000"/>
  <path d="M130.7,184.89s3.73,6.12,8.77,13.33c3.37,4.82,6.06,10,6.31,14.53.29,5.13-2.43,10.28-7.35,10.53s-6.92-4-7.73-7.43c-.81,3.47-2.81,7.68-7.73,7.43s-7.64-5.4-7.35-10.53c.25-4.49,2.94-9.71,6.31-14.53C127,191,130.7,184.9,130.7,184.89Z" style="fill: #d40000"/>
  <path d="M47.88,184.89s3.73,6.12,8.77,13.33c3.37,4.82,6.06,10,6.31,14.53.29,5.13-2.43,10.28-7.35,10.53s-6.92-4-7.73-7.43c-.81,3.47-2.81,7.68-7.73,7.43s-7.64-5.4-7.35-10.53c.25-4.49,2.94-9.71,6.31-14.53C44.15,191,47.88,184.9,47.88,184.89Z" style="fill: #d40000"/>
  <path d="M47.88,64.56s3.73-6.12,8.77-13.33C60,46.41,62.71,41.19,63,36.7c.29-5.13-2.43-10.28-7.35-10.53s-6.92,4-7.73,7.43c-.81-3.47-2.81-7.68-7.73-7.43s-7.64,5.4-7.35,10.53c.25,4.49,2.94,9.71,6.31,14.53C44.15,58.43,47.88,64.55,47.88,64.56Z" style="fill: #d40000"/>
  <path d="M130.7,64.56s3.73-6.12,8.77-13.33c3.37-4.82,6.06-10,6.31-14.53.29-5.13-2.43-10.28-7.35-10.53s-6.92,4-7.73,7.43c-.81-3.47-2.81-7.68-7.73-7.43s-7.64,5.4-7.35,10.53c.25,4.49,2.94,9.71,6.31,14.53C127,58.43,130.7,64.55,130.7,64.56Z" style="fill: #d40000"/>
  <path d="M164.62,212v2.33h-2.1v3.85H173v2.71l-11.39,17.5H159.8v-17.5h-3.22v-2.71h3.22l.06-3.85h-1.76V212h6.53Zm-2.1,20,7.23-11.1h-7.23Z" style="fill: #d40000"/>
  <path d="M14,37.47V35.14h2.1V31.29H5.54V28.57l11.39-17.5h1.86v17.5H22v2.71H18.79l-.06,3.85h1.76v2.33H14Zm2.1-20L8.83,28.58h7.23Z" style="fill: #d40000"/>
</svg>
