<svg xmlns="http://www.w3.org/2000/svg" viewBox="0 0 178.58 249.45">
  <title>H7</title>
  <path d="M13.77,56S12,53.43,9.59,50.43c-1.61-2-2.89-4.18-3-6.05A3.88,3.88,0,0,1,10.09,40c2.35-.1,3.3,1.65,3.68,3.09.39-1.45,1.34-3.2,3.68-3.09A3.88,3.88,0,0,1,21,44.37c-.12,1.87-1.4,4-3,6.05C15.55,53.43,13.77,56,13.77,56Z" style="fill: #d40000"/>
  <path d="M164.81,193.47S163,196,160.63,199c-1.61,2-2.89,4.18-3,6.05a3.88,3.88,0,0,0,3.51,4.39c2.35.1,3.3-1.65,3.68-3.09.39,1.45,1.34,3.2,3.68,3.09a3.88,3.88,0,0,0,3.51-4.39c-.12-1.87-1.4-4-3-6.05C166.59,196,164.81,193.47,164.81,193.47Z" style="fill: #d40000"/>
  <path d="M89.29,104.24s-3.73-6.12-8.77-13.33c-3.37-4.82-6.06-10-6.31-14.53-.29-5.13,2.43-10.28,7.35-10.53s6.92,4,7.73,7.43c.81-3.47,2.81-7.68,7.73-7.43s7.64,5.4,7.35,10.53c-.25,4.49-2.94,9.71-6.31,14.53C93,98.12,89.29,104.24,89.29,104.24Z" style="fill: #d40000"/>
  <path d="M47.88,64.56s-3.73-6.12-8.77-13.33c-3.37-4.82-6.06-10-6.31-14.53-.29-5.13,2.43-10.28,7.35-10.53s6.92,4,7.73,7.43c.81-3.47,2.81-7.68,7.73-7.43S63.25,31.57,63,36.7c-.25,4.49-2.94,9.71-6.31,14.53C51.61,58.43,47.88,64.56,47.88,64.56Z" style="fill: #d40000"/>
  <path d="M130.7,143.92s-3.73-6.12-8.77-13.33c-3.37-4.82-6.06-10-6.31-14.53-.29-5.13,2.43-10.28,7.35-10.53s6.92,4,7.73,7.43c.81-3.47,2.81-7.68,7.73-7.43s7.64,5.4,7.35,10.53c-.25,4.49-2.94,9.71-6.31,14.53C134.44,137.8,130.7,143.92,130.7,143.92Z" style="fill: #d40000"/>
  <path d="M130.7,64.56s-3.73-6.12-8.77-13.33c-3.37-4.82-6.06-10-6.31-14.53-.29-5.13,2.43-10.28,7.35-10.53s6.92,4,7.73,7.43c.81-3.47,2.81-7.68,7.73-7.43s7.64,5.4,7.35,10.53c-.25,4.49-2.94,9.71-6.31,14.53C134.44,58.43,130.7,64.56,130.7,64.56Z" style="fill: #d40000"/>
  <path d="M47.88,143.92s-3.73-6.12-8.77-13.32c-3.37-4.82-6.06-10-6.31-14.53-.29-5.13,2.43-10.28,7.35-10.53s6.92,4,7.73,7.43c.81-3.47,2.81-7.68,7.73-7.43s7.64,5.4,7.35,10.53c-.25,4.49-2.94,9.71-6.31,14.53C51.61,137.8,47.88,143.92,47.88,143.92Z" style="fill: #d40000"/>
  <path d="M130.7,184.89S127,191,121.94,198.22c-3.37,4.82-6.06,10-6.31,14.53-.29,5.13,2.43,10.28,7.35,10.53s6.92-4,7.73-7.43c.81,3.47,2.81,7.68,7.73,7.43s7.64-5.4,7.35-10.53c-.25-4.49-2.94-9.71-6.31-14.53C134.44,191,130.7,184.89,130.7,184.89Z" style="fill: #d40000"/>
  <path d="M47.88,184.89s-3.73,6.12-8.77,13.33c-3.37,4.82-6.06,10-6.31,14.53-.29,5.13,2.43,10.28,7.35,10.53s6.92-4,7.73-7.43c.81,3.47,2.81,7.68,7.73,7.43s7.64-5.4,7.35-10.53c-.25-4.49-2.94-9.71-6.31-14.53C51.61,191,47.88,184.89,47.88,184.89Z" style="fill: #d40000"/>
  <path d="M9.71,37.47c1.74-9.18,3.58-16.07,8.44-23.55H8.29v3.22H5.67V11.07H20.1l1.78,2.85c-5.15,5.63-9.87,23.81-9,23.55Z" style="fill: #d40000"/>
  <path d="M168.87,212c-1.74,9.18-3.58,16.07-8.44,23.55h9.86v-3.22h2.62v6.07H158.48l-1.78-2.85c5.15-5.63,9.87-23.81,9-23.55Z" style="fill: #d40000"/>
</svg>
