<svg xmlns="http://www.w3.org/2000/svg" viewBox="0 0 178.58 249.45">
  <title>H8</title>
  <path d="M164.81,193.47S166.59,196,169,199c1.61,2,2.89,4.18,3,6.05a3.88,3.88,0,0,1-3.51,4.39c-2.35.1-3.3-1.65-3.68-3.09-.39,1.45-1.34,3.2-3.68,3.09a3.88,3.88,0,0,1-3.51-4.39c.12-1.87,1.4-4,3-6.05C163,196,164.81,193.47,164.81,193.47Z" style="fill: #d40000"/>
  <path d="M13.77,56s1.78-2.55,4.18-5.55c1.61-2,2.89-4.18,3-6.05A3.88,3.88,0,0,0,17.46,40c-2.35-.1-3.3,1.65-3.68,3.09-.39-1.45-1.34-3.2-3.68-3.09a3.88,3.88,0,0,0-3.51,4.39c.12,1.87,1.4,4,3,6.05C12,53.43,13.77,56,13.77,56Z" style="fill: #d40000"/>
  <path d="M89.29,145.21s3.73,6.12,8.77,13.32c3.37,4.82,6.06,10,6.31,14.53.29,5.13-2.43,10.28-7.35,10.53s-6.92-4-7.73-7.43c-.81,3.47-2.81,7.68-7.73,7.43s-7.64-5.4-7.35-10.53c.25-4.49,2.94-9.71,6.31-14.53C85.56,151.33,89.29,145.21,89.29,145.21Z" style="fill: #d40000"/>
  <path d="M130.7,184.89s3.73,6.12,8.77,13.33c3.37,4.82,6.06,10,6.31,14.53.29,5.13-2.43,10.28-7.35,10.53s-6.92-4-7.73-7.43c-.81,3.47-2.81,7.68-7.73,7.43s-7.64-5.4-7.35-10.53c.25-4.49,2.94-9.71,6.31-14.53C127,191,130.7,184.89,130.7,184.89Z" style="fill: #d40000"/>
  <path d="M47.88,105.52s3.73,6.12,8.77,13.33c3.37,4.82,6.06,10,6.31,14.53.29,5.13-2.43,10.28-7.35,10.53s-6.92-4-7.73-7.43c-.81,3.47-2.81,7.68-7.73,7.43s-7.64-5.4-7.35-10.53c.25-4.49,2.94-9.71,6.31-14.53C44.15,111.65,47.88,105.52,47.88,105.52Z" style="fill: #d40000"/>
  <path d="M47.88,184.89s3.73,6.12,8.77,13.33c3.37,4.82,6.06,10,6.31,14.53.29,5.13-2.43,10.28-7.35,10.53s-6.92-4-7.73-7.43c-.81,3.47-2.81,7.68-7.73,7.43s-7.64-5.4-7.35-10.53c.25-4.49,2.94-9.71,6.31-14.53C44.15,191,47.88,184.89,47.88,184.89Z" style="fill: #d40000"/>
  <path d="M130.7,105.52s3.73,6.12,8.77,13.32c3.37,4.82,6.06,10,6.31,14.53.29,5.13-2.43,10.28-7.35,10.53s-6.92-4-7.73-7.43c-.81,3.47-2.81,7.68-7.73,7.43s-7.64-5.4-7.35-10.53c.25-4.49,2.94-9.71,6.31-14.53C127,111.65,130.7,105.52,130.7,105.52Z" style="fill: #d40000"/>
  <path d="M89.29,104.24S93,98.12,98.06,90.92c3.37-4.82,6.06-10,6.31-14.53.29-5.13-2.43-10.28-7.35-10.53s-6.92,4-7.73,7.43c-.81-3.47-2.81-7.68-7.73-7.43s-7.64,5.4-7.35,10.53c.25,4.49,2.94,9.71,6.31,14.53,5,7.2,8.77,13.32,8.77,13.32Z" style="fill: #d40000"/>
  <path d="M47.88,64.56s3.73-6.12,8.77-13.33C60,46.41,62.71,41.19,63,36.7c.29-5.13-2.43-10.28-7.35-10.53s-6.92,4-7.73,7.43c-.81-3.47-2.81-7.68-7.73-7.43s-7.64,5.4-7.35,10.53c.25,4.49,2.94,9.71,6.31,14.53C44.15,58.43,47.88,64.56,47.88,64.56Z" style="fill: #d40000"/>
  <path d="M130.7,64.56s3.73-6.12,8.77-13.33c3.37-4.82,6.06-10,6.31-14.53.29-5.13-2.43-10.28-7.35-10.53s-6.92,4-7.73,7.43c-.81-3.47-2.81-7.68-7.73-7.43s-7.64,5.4-7.35,10.53c.25,4.49,2.94,9.71,6.31,14.53C127,58.43,130.7,64.56,130.7,64.56Z" style="fill: #d40000"/>
  <path d="M173.39,219.71c-.13,3.54-1.41,4.87-3.93,6.73a6.11,6.11,0,0,1,2.69,5.41c-.41,4.41-3.82,6.62-7.54,6.52s-6.92-3-7.17-6.25a5.45,5.45,0,0,1,2.59-5.6c-2.35-2-3.84-3.28-3.79-6.77a8.21,8.21,0,0,1,8.2-7.77c5.18-.13,9.08,4.19,9,7.73Zm-14.45,0c-.22,3.21,2.62,5.37,5.82,5.4a5.9,5.9,0,0,0,5.91-5.51c0-3.09-3.63-4.77-6-4.78-2.85,0-5.56,2.12-5.75,4.89Zm1,11.48a4.71,4.71,0,0,0,5,4.56c2.29-.07,4.7-1.81,4.71-4.07,0-2.83-2.75-4.24-5.1-4.29-2.13,0-4.56,1.77-4.61,3.81Z" style="fill: #d40000"/>
  <path d="M22.35,29.74c-.13-3.54-1.41-4.87-3.93-6.73a6.11,6.11,0,0,0,2.69-5.41c-.41-4.41-3.82-6.62-7.54-6.52s-6.92,3-7.17,6.25A5.45,5.45,0,0,0,9,22.92c-2.35,2-3.84,3.28-3.79,6.77a8.21,8.21,0,0,0,8.2,7.77c5.18.13,9.08-4.19,9-7.73Zm-14.45,0c-.22-3.21,2.62-5.37,5.82-5.4a5.9,5.9,0,0,1,5.91,5.51c0,3.09-3.63,4.77-6,4.78C10.81,34.65,8.09,32.51,7.9,29.75Zm1-11.48a4.71,4.71,0,0,1,5-4.56c2.29.07,4.7,1.81,4.71,4.07,0,2.83-2.75,4.24-5.1,4.29-2.13,0-4.56-1.77-4.61-3.81Z" style="fill: #d40000"/>
</svg>
