<svg xmlns="http://www.w3.org/2000/svg" viewBox="0 0 178.58 249.45">
  <title>H9</title>
  <path d="M47.88,117.47s-3.73-6.12-8.77-13.33c-3.37-4.82-6.06-10-6.31-14.53-.29-5.13,2.43-10.28,7.35-10.53s6.92,4,7.73,7.43c.81-3.47,2.81-7.68,7.73-7.43s7.64,5.4,7.35,10.53c-.25,4.49-2.94,9.71-6.31,14.53C51.61,111.34,47.88,117.47,47.88,117.47Z" style="fill: #d40000"/>
  <path d="M13.77,56S12,53.43,9.59,50.43c-1.61-2-2.89-4.18-3-6.05A3.88,3.88,0,0,1,10.09,40c2.35-.1,3.3,1.65,3.68,3.09.39-1.45,1.34-3.2,3.68-3.09A3.88,3.88,0,0,1,21,44.37c-.12,1.87-1.4,4-3,6.05C15.55,53.43,13.78,56,13.77,56Z" style="fill: #d40000"/>
  <path d="M164.81,193.47S163,196,160.63,199c-1.61,2-2.89,4.18-3,6.05a3.88,3.88,0,0,0,3.51,4.39c2.35.1,3.3-1.65,3.68-3.09.39,1.45,1.34,3.2,3.68,3.09a3.88,3.88,0,0,0,3.51-4.39c-.12-1.87-1.4-4-3-6.05C166.59,196,164.81,193.47,164.81,193.47Z" style="fill: #d40000"/>
  <path d="M47.88,64.56s-3.73-6.12-8.77-13.33c-3.37-4.82-6.06-10-6.31-14.53-.29-5.13,2.43-10.28,7.35-10.53s6.92,4,7.73,7.43c.81-3.47,2.81-7.68,7.73-7.43S63.25,31.57,63,36.7c-.25,4.49-2.94,9.71-6.31,14.53C51.61,58.43,47.88,64.56,47.88,64.56Z" style="fill: #d40000"/>
  <path d="M130.7,117.47s-3.73-6.12-8.77-13.33c-3.37-4.82-6.06-10-6.31-14.53-.29-5.13,2.43-10.28,7.35-10.53s6.92,4,7.73,7.43c.81-3.47,2.81-7.68,7.73-7.43s7.64,5.4,7.35,10.53c-.25,4.49-2.94,9.71-6.31,14.53C134.44,111.34,130.7,117.47,130.7,117.47Z" style="fill: #d40000"/>
  <path d="M130.7,64.56s-3.73-6.12-8.77-13.33c-3.37-4.82-6.06-10-6.31-14.53-.29-5.13,2.43-10.28,7.35-10.53s6.92,4,7.73,7.43c.81-3.47,2.81-7.68,7.73-7.43s7.64,5.4,7.35,10.53c-.25,4.49-2.94,9.71-6.31,14.53C134.44,58.43,130.7,64.56,130.7,64.56Z" style="fill: #d40000"/>
  <path d="M89.29,143.92s-3.73-6.12-8.77-13.33c-3.37-4.82-6.06-10-6.31-14.53-.29-5.13,2.43-10.28,7.35-10.53s6.92,4,7.73,7.43c.81-3.47,2.81-7.68,7.73-7.43s7.64,5.4,7.35,10.53c-.25,4.49-2.94,9.71-6.31,14.53C93,137.8,89.29,143.92,89.29,143.92Z" style="fill: #d40000"/>
  <path d="M130.7,132s-3.73,6.12-8.77,13.33c-3.37,4.82-6.06,10-6.31,14.53-.29,5.13,2.43,10.28,7.35,10.53s6.92-4,7.73-7.43c.81,3.47,2.81,7.68,7.73,7.43s7.64-5.4,7.35-10.53c-.25-4.49-2.94-9.71-6.31-14.53C134.44,138.1,130.7,132,130.7,132Z" style="fill: #d40000"/>
  <path d="M47.88,132s-3.73,6.12-8.77,13.33c-3.37,4.82-6.06,10-6.31,14.53-.29,5.13,2.43,10.28,7.35,10.53s6.92-4,7.73-7.43c.81,3.47,2.81,7.68,7.73,7.43S63.25,165,63,159.84c-.25-4.49-2.94-9.71-6.31-14.53C51.61,138.1,47.88,132,47.88,132Z" style="fill: #d40000"/>
  <path d="M130.7,184.89S127,191,121.94,198.22c-3.37,4.82-6.06,10-6.31,14.53-.29,5.13,2.43,10.28,7.35,10.53s6.92-4,7.73-7.43c.81,3.47,2.81,7.68,7.73,7.43s7.64-5.4,7.35-10.53c-.25-4.49-2.94-9.71-6.31-14.53C134.44,191,130.7,184.89,130.7,184.89Z" style="fill: #d40000"/>
  <path d="M47.88,184.89s-3.73,6.12-8.77,13.33c-3.37,4.82-6.06,10-6.31,14.53-.29,5.13,2.43,10.28,7.35,10.53s6.92-4,7.73-7.43c.81,3.47,2.81,7.68,7.73,7.43s7.64-5.4,7.35-10.53c-.25-4.49-2.94-9.71-6.31-14.53C51.61,191,47.88,184.89,47.88,184.89Z" style="fill: #d40000"/>
  <path d="M6.4,32.38l2.42-.77a4.28,4.28,0,0,0,4.7,3c3.5-.28,4.66-4.19,4.92-7.64a6.94,6.94,0,0,1-5.15,2.1c-5.57-.3-7-4.76-7.05-9.43-.15-3.94,1.48-6.79,4.27-8.1a9.56,9.56,0,0,1,6.35.12c3.41,1.8,4.68,4.91,4.45,12.35,0,6.11-1.3,13.23-7.85,13.39a6.35,6.35,0,0,1-7.05-5Zm9.49-6.7a5.72,5.72,0,0,0,2.29-2.41,4.53,4.53,0,0,0,.44-3c-.31-4.43-2.63-6.95-6-6.45-1.88.28-2.91,1.33-3.5,3.29C8,20.75,9.4,25,12,26a5,5,0,0,0,3.89-.27Z" style="fill: #d40000"/>
  <path d="M172.18,217.07l-2.42.77a4.28,4.28,0,0,0-4.7-3c-3.5.28-4.66,4.19-4.92,7.64a6.94,6.94,0,0,1,5.15-2.1c5.57.3,7,4.76,7.05,9.43.15,3.94-1.48,6.79-4.27,8.1a9.56,9.56,0,0,1-6.35-.12c-3.41-1.8-4.68-4.91-4.45-12.35,0-6.11,1.3-13.23,7.85-13.39a6.35,6.35,0,0,1,7.05,5Zm-9.49,6.7a5.72,5.72,0,0,0-2.29,2.41,4.53,4.53,0,0,0-.44,3c.31,4.43,2.63,6.95,6,6.45,1.88-.28,2.91-1.33,3.5-3.29,1.09-3.62-.29-7.85-2.88-8.82a5,5,0,0,0-3.89.27Z" style="fill: #d40000"/>
</svg>
