<svg xmlns="http://www.w3.org/2000/svg" viewBox="0 0 178.58 249.45">
  <title>S1</title>
  <path d="M13.77,40c-3.45,4.39-7.14,6.91-7.2,10.33a3.32,3.32,0,0,0,2.76,3.35,2.86,2.86,0,0,0,3.28-2.75c0-.4.47-.39.47.16A10.45,10.45,0,0,1,11.52,56H16a10.45,10.45,0,0,1-1.57-4.91c0-.55.47-.56.47-.16a2.86,2.86,0,0,0,3.28,2.75A3.32,3.32,0,0,0,21,50.31C20.91,46.89,17.22,44.36,13.77,40Z"/>
  <path d="M164.81,209.47c-3.45-4.39-7.14-6.91-7.2-10.33a3.32,3.32,0,0,1,2.76-3.35,2.86,2.86,0,0,1,3.28,2.75c0,.4.47.39.47-.16a10.45,10.45,0,0,0-1.57-4.91h4.52a10.45,10.45,0,0,0-1.57,4.91c0,.55.47.56.47.16a2.86,2.86,0,0,1,3.28-2.75,3.32,3.32,0,0,1,2.76,3.35c-.06,3.42-3.75,5.95-7.2,10.33Z"/>
  <path d="M89.29,105.52C81.91,116.05,74,122.11,73.88,130.32c0,2.66,1.39,7.18,5.9,8,2.92.56,6.94-1.81,7-6.61,0-1,1-.93,1,.38a27.26,27.26,0,0,1-3.35,11.79h9.67a27.26,27.26,0,0,1-3.35-11.79c0-1.31,1-1.34,1-.38.08,4.8,4.11,7.17,7,6.61,4.5-.87,5.94-5.38,5.9-8C104.57,122.11,96.67,116.05,89.29,105.52Z"/>
  <path d="M5.7,37.47V35.21H7.85l4.59-24.14h2.61l5.05,24.14h1.74v2.26H15.92V35.21h1.6l-.64-3.7h-6l-.46,3.7H12v2.26Zm10.67-8.59L13.77,16,11.34,28.88Z"/>
  <path d="M156.73,212v2.26h2.15l4.59,24.14h2.61l5.05-24.14h1.74V212H167v2.26h1.6l-.64,3.7h-6l-.46-3.7h1.6V212Zm10.67,8.59-2.6,12.92-2.43-12.92Z"/>
</svg>
