<svg xmlns="http://www.w3.org/2000/svg" viewBox="0 0 178.58 249.45">
  <title>S10</title>
  <g>
    <path d="M130.7,223.29c7.38-10.53,15.28-16.58,15.41-24.79,0-2.66-1.39-7.18-5.9-8-2.92-.56-6.94,1.81-7,6.61,0,1-1,.93-1-.38a27.26,27.26,0,0,1,3.35-11.79h-9.67a27.26,27.26,0,0,1,3.35,11.79c0,1.31-1,1.34-1,.38-.08-4.8-4.11-7.17-7-6.61-4.5.87-5.94,5.38-5.9,8C115.43,206.71,123.32,212.77,130.7,223.29Z"/>
    <path d="M164.81,209.47c3.45-4.39,7.14-6.91,7.2-10.33a3.32,3.32,0,0,0-2.76-3.35,2.86,2.86,0,0,0-3.28,2.75c0,.4-.47.39-.47-.16a10.45,10.45,0,0,1,1.57-4.91h-4.52a10.45,10.45,0,0,1,1.57,4.91c0,.55-.47.56-.47.16a2.86,2.86,0,0,0-3.28-2.75,3.32,3.32,0,0,0-2.76,3.35c.06,3.42,3.75,5.95,7.2,10.33Z"/>
    <path d="M130.7,79.07c7.38,10.53,15.28,16.58,15.41,24.79,0,2.66-1.39,7.18-5.9,8-2.92.56-6.94-1.81-7-6.61,0-1-1-.93-1,.38a27.26,27.26,0,0,0,3.35,11.79h-9.67a27.26,27.26,0,0,0,3.35-11.79c0-1.31-1-1.34-1-.38-.08,4.8-4.11,7.17-7,6.61-4.5-.87-5.94-5.38-5.9-8C115.43,95.65,123.32,89.59,130.7,79.07Z"/>
    <path d="M13.77,40c3.45,4.39,7.14,6.91,7.2,10.33a3.32,3.32,0,0,1-2.76,3.35,2.86,2.86,0,0,1-3.28-2.75c0-.4-.47-.39-.47.16A10.45,10.45,0,0,0,16,56H11.51a10.45,10.45,0,0,0,1.57-4.91c0-.55-.47-.56-.47-.16a2.86,2.86,0,0,1-3.28,2.75,3.32,3.32,0,0,1-2.76-3.35c.06-3.42,3.75-5.95,7.2-10.33Z"/>
    <path d="M47.88,223.29c7.38-10.53,15.28-16.58,15.41-24.79,0-2.66-1.39-7.18-5.9-8-2.92-.56-6.94,1.81-7,6.61,0,1-1,.93-1-.38a27.26,27.26,0,0,1,3.35-11.79H43a27.26,27.26,0,0,1,3.35,11.79c0,1.31-1,1.34-1,.38-.08-4.8-4.11-7.17-7-6.61-4.5.87-5.94,5.38-5.9,8C32.6,206.71,40.5,212.77,47.88,223.29Z"/>
    <path d="M130.7,170.38c7.38-10.53,15.28-16.58,15.41-24.79,0-2.66-1.39-7.18-5.9-8-2.92-.56-6.94,1.81-7,6.61,0,1-1,.93-1-.38A27.26,27.26,0,0,1,135.54,132h-9.67a27.26,27.26,0,0,1,3.35,11.79c0,1.31-1,1.34-1,.38-.08-4.8-4.11-7.17-7-6.61-4.5.87-5.94,5.38-5.9,8C115.43,153.8,123.32,159.85,130.7,170.38Z"/>
    <path d="M89.29,189.18c7.38-10.53,15.28-16.58,15.41-24.79,0-2.66-1.39-7.18-5.9-8-2.92-.56-6.94,1.81-7,6.61,0,1-1,.93-1-.38a27.26,27.26,0,0,1,3.35-11.79H84.46a27.26,27.26,0,0,1,3.35,11.79c0,1.31-1,1.34-1,.38-.08-4.8-4.11-7.17-7-6.61-4.5.87-5.94,5.38-5.9,8C74,172.6,81.91,178.65,89.29,189.18Z"/>
    <path d="M47.88,170.38c7.38-10.53,15.28-16.58,15.41-24.79,0-2.66-1.39-7.18-5.9-8-2.92-.56-6.94,1.81-7,6.61,0,1-1,.93-1-.38A27.26,27.26,0,0,1,52.71,132H43a27.26,27.26,0,0,1,3.35,11.79c0,1.31-1,1.34-1,.38-.08-4.8-4.11-7.17-7-6.61-4.5.87-5.94,5.38-5.9,8C32.6,153.8,40.5,159.85,47.88,170.38Z"/>
    <path d="M130.7,26.16C138.09,36.68,146,42.74,146.11,51c0,2.66-1.39,7.18-5.9,8-2.92.56-6.94-1.81-7-6.61,0-1-1-.93-1,.38a27.26,27.26,0,0,0,3.35,11.79h-9.67a27.26,27.26,0,0,0,3.35-11.79c0-1.31-1-1.34-1-.38-.08,4.8-4.11,7.17-7,6.61-4.5-.87-5.94-5.38-5.9-8,.13-8.21,8-14.27,15.41-24.79Z"/>
    <path d="M47.88,26.16C55.26,36.68,63.16,42.74,63.29,51c0,2.66-1.39,7.18-5.9,8-2.92.56-6.94-1.81-7-6.61,0-1-1-.93-1,.38a27.26,27.26,0,0,0,3.35,11.79H43A27.26,27.26,0,0,0,46.4,52.76c0-1.31-1-1.34-1-.38-.08,4.8-4.11,7.17-7,6.61-4.5-.87-5.94-5.38-5.9-8,.13-8.21,8-14.27,15.41-24.79Z"/>
    <path d="M89.29,60.27c7.38,10.53,15.28,16.58,15.41,24.79,0,2.66-1.39,7.18-5.9,8-2.92.56-6.94-1.81-7-6.61,0-1-1-.93-1,.38a27.26,27.26,0,0,0,3.35,11.79H84.46a27.26,27.26,0,0,0,3.35-11.79c0-1.31-1-1.34-1-.38-.08,4.8-4.11,7.17-7,6.61-4.5-.87-5.94-5.38-5.9-8C74,76.85,81.91,70.79,89.29,60.27Z"/>
    <path d="M47.88,79.07c7.38,10.53,15.28,16.58,15.41,24.79,0,2.66-1.39,7.18-5.9,8-2.92.56-6.94-1.81-7-6.61,0-1-1-.93-1,.38a27.26,27.26,0,0,0,3.35,11.79H43a27.26,27.26,0,0,0,3.35-11.79c0-1.31-1-1.34-1-.38-.08,4.8-4.11,7.17-7,6.61-4.5-.87-5.94-5.38-5.9-8C32.6,95.65,40.5,89.59,47.88,79.07Z"/>
    <path d="M172.83,212v26.4h-2.56V212Z"/>
    <path d="M162.68,238.38c2.46,0,4.44-2.25,4.44-5V217c0-2.79-2-5-4.44-5h-1.44a4.76,4.76,0,0,0-4.45,5v16.31c0,2.79,2,5,4.45,5Zm-.74-2.5a2.56,2.56,0,0,1-2.62-2.51V216.84a2.63,2.63,0,0,1,5.25,0v16.53A2.56,2.56,0,0,1,161.94,235.88Z"/>
    <g>
      <path d="M5.76,37.47V11.07H8.32v26.4Z"/>
      <path d="M15.9,11.07c-2.46,0-4.44,2.25-4.44,5V32.43c0,2.79,2,5,4.44,5h1.44a4.76,4.76,0,0,0,4.45-5V16.11c0-2.79-2-5-4.45-5Zm.74,2.5a2.56,2.56,0,0,1,2.62,2.51V32.6a2.63,2.63,0,0,1-5.25,0V16.08A2.56,2.56,0,0,1,16.65,13.57Z"/>
    </g>
  </g>
</svg>
