<svg xmlns="http://www.w3.org/2000/svg" viewBox="0 0 178.58 249.45">
  <title>S11</title>
  <path d="M164.81,209.47c3.45-4.39,7.14-6.91,7.2-10.33a3.32,3.32,0,0,0-2.76-3.35,2.86,2.86,0,0,0-3.28,2.75c0,.4-.47.39-.47-.16a10.45,10.45,0,0,1,1.57-4.91h-4.52a10.45,10.45,0,0,1,1.57,4.91c0,.55-.47.56-.47.16a2.86,2.86,0,0,0-3.28-2.75,3.32,3.32,0,0,0-2.76,3.35c.06,3.42,3.75,5.95,7.2,10.33Z"/>
  <path d="M13.77,40c3.45,4.39,7.14,6.91,7.2,10.33a3.32,3.32,0,0,1-2.76,3.35,2.86,2.86,0,0,1-3.28-2.75c0-.4-.47-.39-.47.16A10.45,10.45,0,0,0,16,56H11.51a10.45,10.45,0,0,0,1.57-4.91c0-.55-.47-.56-.47-.16a2.86,2.86,0,0,1-3.28,2.75,3.32,3.32,0,0,1-2.76-3.35c.06-3.42,3.75-5.95,7.2-10.33Z"/>
  <path d="M164.9,238.38v-2.76h-2.68s-.07-2.66-.09-8.31c0-5.49-.13-8.21.22-9.77.94-3.6,6.16-3.62,7.2-1a10.48,10.48,0,0,1,.47,4.19h2.89s0-.76,0-1.7c0-4-1.36-6-4.5-6.75s-7,.46-8.34,3.21c-.8,1.57-.71,1.68-.73,11.18,0,6.34-.11,9-.11,9h-2.47v2.76h8.17Z"/>
  <path d="M13.69,11.07v2.76h2.68s.07,2.66.09,8.31c0,5.49.13,8.21-.22,9.77-.94,3.6-6.16,3.62-7.2,1a10.48,10.48,0,0,1-.47-4.19H5.69s0,.76,0,1.7c0,4,1.36,6,4.5,6.75s7-.46,8.34-3.21c.8-1.57.71-1.68.73-11.18,0-6.34.11-9,.11-9h2.47V11.07H13.69Z"/>
  <g>
    <path d="M154.89,230.32V19.12H23.69v211.2Zm-41.68-1.16-59.43-.22L63,214.88c12,3.8,31.5,1.33,41.55-.58,2.64,4.4,6.47,9.93,8.67,14.87Zm40-.54H115l-9-16.25c-.32-.45,0-1.39.18-1.91a41.4,41.4,0,0,1,4.32-8.6c2.12-3.5,2.88-6.71,2.13-8.87a2.17,2.17,0,0,1-.17-1,5.06,5.06,0,0,1,2.26-3.17c.84-.13,2.58-.24,3.59-1.24a5.28,5.28,0,0,0,1.46-4.38,11,11,0,0,0-.16-1.33c11.4-4.73,19.57-10.26,19.29-10.47.11,0,10.08,4.6,14.21,5.72Zm-101.51,0H25.47V154l9.89,6.5c-.82.57-1.33.91-2.2,1.5-.15,0-.45.05-.64.09-1.75.39-3,1.69-2.36,3,.41.92-.15.86-.66,1.61a2.08,2.08,0,0,0-.09,2.3c.18.35.08.49-.22,1.14a2.29,2.29,0,0,0,.81,3.21c.11.16-.11.41-.16.64a2.2,2.2,0,0,0,1.41,2.82c.6.15.8.26.59.79-.38.95.12,1.3.9,1.61l.5.22-.1.62-1.08.49c-3.32,1.49-4.11,5.92-1.82,9.93.9,1.49,1.79,2.84,2.8,4.26l-4.4,6.11a49.09,49.09,0,0,1,4.15,5.62c-.26,1-3.32,4.09-3.72,7.09-.62,4.72,3,7.74,6.37,7.38,2.36-.25,5.26-1.75,5-6.12a10.18,10.18,0,0,0-1.56-4.45c-.67-1.27-1.55-2.61-2.38-3.9l4.43-6-4.47-5.65c.78-1.36,1.77-2.8,2.45-4.25,1.65-3.25,2.24-6.82-1.15-9.33-.59-.36-1.3-.92-1.3-.92l.07-.59a2.67,2.67,0,0,1,.34-.12c6.07-.43,10.41-5.76,11.84-10.5l16.49,10.49c-.6.31-.56,1.67-.47,2.54a3.08,3.08,0,0,1-.74,2.5,1.77,1.77,0,0,0-.22,1.49c.24.73.27.5-.2,1-.18.22-.4.33-.44.57s0,.89,0,1.94c0,2.11,0,1.94-1.17,2.87-1.48,1.15-2,1.69-2.26,2.22-.34.75,0,1.31.83,2.8,1,1.8,2.34,3.65,2.91,5.42a3.71,3.71,0,0,1,0,3.35c-.64,1.14-.82,1.83-.8,4.14,0,2.14.18,1.94-.37,2.66-4.09,5.39-10.58,15.55-10.58,15.55ZM31,219c-3.44-4.76.1-9.16,2.36-12.48-1.38-2.07-2.52-3.55-3.92-5.66,1.08-2.37,2.91-4.24,4-6.1-5.39-7.25-5.59-13.81,1.66-14.2a5.18,5.18,0,0,1,4.67,5.66c-.2,3.34-2,5.78-3.84,8.49,1.58,2.71,3.15,3.7,4.27,5.84l-4,5.88c1.09,2.74,3.41,4.72,3.68,8.31C40.27,219.77,35.41,222.23,31,219Zm54.51-3.64h0c-.9,0-1.81,0-2.73-.06-.29-2.47,8-17,6.28-17.88-6.53-1.56-4.3-9.28.66-9,.74,0,.82-.06,1.29-1.7.9-2.39,1.48-4.22,2.45-6.45,0-.57,3.24-.42,6-.4,1.17-.9,6.16-3.32,8.9,2.89l.1-5.31s-37.39.59-44-.24c-.14,1.66-3.7-1.29-3.7-1.29l18.25-28.61-.85-.83c-2.63,3.18-18.52,28.71-18.52,28.71l-34.36-22.1c.28-3.29,0-10.65,0-10.65,9.43-5,6.55-7.53.06-1.49l-.11-4.31c2.35-1.25,4.64-5.5.17-2.53l-.11-2.45c2.33-3.29,6.88-.88,5.72,2.53,3.14-.41,3.63,2.77,3.47,4.29,4.13.9,2.7,5.26,2.7,5.26,2.39,2,2.81,4.07.87,6.27,2,1.21,2.51,2,4.65,2.87-1.65-14.6-9.56-22.19-17.88-28.95.22,0,.24-4.7.77-3.84C37.34,128.91,45,139,46.3,155.4c.1-.26,5.64,4.27,6.55,4,1.92-26.51-19.26-43.93-28.06-47.37a30.44,30.44,0,0,1,0-3.71c13.35,5.8,28.19,22.83,31,43.09l7.88-12.15,2.95,1.26-12.73,20,8.61,5.38,14-22.14s.37-1.85-.64-1.82C56.26,139.87,27,116.31,36.8,78c.85.34,2.2,1,2.27,1-1.54,3.3-5.83,24.71,7.08,42,5.91,7.92,15.08,16.36,29.8,18.85-1.22-2.5-.68-8.17-.68-8.17l-3.43-.69a10.34,10.34,0,0,1,2.58,3.55c.64,2.06-.3,3.28-2.59,2.05-.91-.51-1.14-.49-2,.17-1.84,1.36-3.94,0-3.46-2.31.07-.34,0-.55-.89-.62A8.06,8.06,0,0,1,60.19,131c-.63-.81-.78-.69-1.34-.2-1.38,1.2-3.67-.46-3.27-2.31.23-1.06.11-1.31-.39-1.52-2.7-1.13-3.37-1.85-4.21-4.21-.31-.86-.56-1.15-.72-1.1s-.56.18-.95.33c-2,.76-3.2-1.67-1.77-3.58.29-.39.07-.76-.45-1a6.81,6.81,0,0,1-3-5.38c-.08-.87-.17-.87-1-.83-2.23.09-3.3-2.91-1.48-4,.63-.39.51-.88,0-1.46a5.37,5.37,0,0,1-1.49-4.41c.15-2.34,0-2.29-.74-2.57-2.17-.82-1.77-4.28.36-4.27-1.53-3.56.49-7.9.42-8-4.09-2.29-.4-4.73.79-4.3,0,0,.61-1.6-.08-2.42,3.59-4.73,8.29-5.52,13.49-7.87l.16,16.66c-2.16-1.74-4.31-3.36-6.45-5,0,0-.54.16,0,.62,1,.88,3.35,2.42,4,3a89.35,89.35,0,0,1,7.7,7.35c.42.8,1.06.34,1,.29a37.18,37.18,0,0,0-1.93-3.5c-1.78-2.45-3.5-5.18-3.32-7.87a10.28,10.28,0,0,1,.94-3.82c.25-1,1.9.18,1.49,1-.74,2.39-1.35,4.35,1.29,8.19a54.19,54.19,0,0,1,2.95,5.27l1.06-.26,0-21.73c.89,0,3.15-.62,2.69-.64-7.05,1.4-9.21-8.65-2.4-9,1.19-.12,2.4-2.43,2.77-3.47-.64-4.84.57-7.12,3.07-11.54,1.4-2.79,4.16-6.19,3.31-9.26a95.68,95.68,0,0,1,23-2.8,100.76,100.76,0,0,1-4.94,12.43c-1.57,3.08-2.37,5.19-1.93,5.82,6.66-.33,5.38,9.4-1,9.06,0,0-1.6,5.61-3.39,8.14-1.69.94-5.1-.34-7,.92-4.5,1.38-7.45-3.93-7.45-3.93L68.7,73c1.06.24,43.12.66,45.78-.55a19.13,19.13,0,0,1,3.25,2s-15.35,24.53-17.59,28c-.18.29.4.9.4.91.08.8,18.22-28.35,18.22-28.35,10.24,6.54,23.11,14.81,34.52,22.08l0,10.92c-8.29,5.2-7.53,7.33.13,1.66.11-.09.16,4.1.16,4.1-5.85,5.21-1,3.58.17,1.77,0,1.3.27,3.06-.56,3.84-2.55,2.35-5.57.19-5.72-3.28-3.33-.65-2.92-3.57-3.78-4.74-3.4-1.91-1.61-4.81-2.45-5.8-3.58-2.25-1.08-5.86-.33-5.78-.45-.3-4.9-3.27-5.28-3.16.39,15.58,16,28.15,18.07,29.67l-.37,3.36s-21.51-13.71-21.32-35.71l-6.86-4.06c.61,22.57,10.87,37.88,28.16,47.57l.23,4.18c-14.52-6.73-28-20.36-31.12-42.7l-8,12.43L111.61,110l12.91-20.64-8.06-5.28c-6.25,8.2-11.46,18.26-14.64,23,.08.44.26,1.06.26,1.06,30.73,5.05,48,33.75,39.79,63.74l-2.14-.94c6.41-22.21-4-54.18-37.46-60.71.07,2.36.48,8.17.48,8.17s4.39,1.32,3.74.79c-1.08-.92-3.49-4.87-2.47-6.27a5.27,5.27,0,0,1,3.31,1.29c.51.37.52.29,1.09-.31,1.58-1.68,3.88-.72,3.9,1.59,0,1,0,1.18,1.43,1.19,2.11,0,3.05.37,4.31,2.06.9,1.19.81,1.2,1.87.84a2.16,2.16,0,0,1,3,2.71c-.31.78,0,1,.94,1.18,1.79.29,3.81,2.53,4.18,4.36.08.37.26.47,1.32.43,2.07-.07,3.21,1.18,2.4,2.93-.44.95-.57,1.33.26,2a5.94,5.94,0,0,1,2,2.28,9.14,9.14,0,0,1,.65,2.85c.09.56.27.65,1,.75,2.14.28,3,2.46,1.41,3.87-.48.43-.48.42.25,1.36,1.4,1.8,1.92,4.16,1.31,5.73a.77.77,0,0,0,.49,1.07c1.95.48,2,2.64.12,3.85-.54.35-.57.58-.16,1.29.72,1.24.68,4.49,0,6.05-.45,1-.44,1,.25,1.47a2.26,2.26,0,0,1-.69,4c-.85.21-.91.32-.68,1.35.41,1.83.48,2.31-.61,3-3,1.93-10.64,5.63-10.64,5.63l-2.53,1.2s-.25-16-.09-17.85c-3.6-2.95-5.62-8.88-8.62-5.17l-.09,21.94c-.18.5-.3.55-.88.62s-1.69.23-2.1.35c-.57.92,1,.39,1.76.21,4-1.2,7,5,3.92,8.15a9.56,9.56,0,0,1-3.77,1.49c-1.37,1.11-2.72,3.16-2.22,4.69.71,2.05,0,5.2-2.08,8.65a31.55,31.55,0,0,0-5,10.73c-7.09.85-13.25,2.5-19.58,2.6ZM82,214.86A136,136,0,0,1,67.41,214c-4.27-.68-4.05-.56-4-3.65,0-2.2,0-2.15.58-3.2,1-1.94.86-3.85-.78-6.54a31.21,31.21,0,0,1-2.77-4.89c0-.57.1-1.27,1.48-2.24,1.64-1.14,1.95-1.94,1.92-3.09,0-.94.16-1.24.72-1.24,1.14-2.51,3.1-2.23,4.64-1.56.68.19.93.75,1.14.73.41-.07,1.07-1.19,1.16-1.55,0-.14-.14.12-.58.14-.5-.16-2.37-2-5.44-.84-.87-.39-1-1.06-.5-1.56a2.47,2.47,0,0,0,.48-2.2c-.26-1.51-.07-2.11.71-2.63,7.68-3.37,17.69.16,22.55,5.83a10.73,10.73,0,0,1,1.5,2.24,9.76,9.76,0,0,0-3,.55c-3.71,1.67-3.74,8.59,1.3,9.31,2.05.07-4.24,9.73-6.47,17.27Zm-12.54-2.41h0a18.07,18.07,0,0,0,7.74-2.28,8.13,8.13,0,0,0,2.84-3.05l-2.44,1.29c-3,1.49-8,3-10,1.84-1.7-1-2.36-.68-1.37.68a4,4,0,0,0,3.27,1.52Zm1.28-3.36a4.14,4.14,0,0,0,.82-.09c1.74-.39,3.66-1.82,5.25-3.08a12.41,12.41,0,0,0,2.06-2.17c.39-.73-.47-1.53-1.65-.89a1.55,1.55,0,0,1-1.41.2,14,14,0,0,0-5.94-.94c-.25-.06-.23-.12-.14-.35a8.55,8.55,0,0,1,2.35-2.16c.64-.47,1.49-1.17,1.49-1.17a3.36,3.36,0,0,0-1.84.43,13.83,13.83,0,0,0-3.8,3.75,1.47,1.47,0,0,0-.25.37c-.09.31.47.18.77.26.13,0,.1.36.14.51a5.86,5.86,0,0,1-.14,1.6c-.06.45-.54.81-.86,1.14-1.4,1.45-1.29,2.11.59,1a2,2,0,0,1,.88-.33c2.78-.09,4.39,0,6.71-1.93,1-.83,1.65-.91.73,0-1.4,1.13-3.15,2.74-5.09,3.16-1.17.29-2.28-.6-2.8-.37,0,.64,1,1.1,2.13,1.09Zm.66-4a.5.5,0,0,1-.26,0,2.8,2.8,0,0,1-.6-1.66c0-.42.77-.25.87,0l.4,1.2c.13.3-.13.51-.4.54Zm1.47-.26a1.26,1.26,0,0,1-.32,0,4.55,4.55,0,0,1-.61-1.66c.12-.43,2.86.15,3.2.63a3.73,3.73,0,0,1-2.27,1Zm-5.12-7.79a1,1,0,0,0,.72-.34,2.59,2.59,0,0,0-.65-4.09c-.72-.34-1.82-.09-3.43.4a7.64,7.64,0,0,1-1.47.34.87.87,0,0,0-.53,1.41c.51.51,1.72.44,3-.56a2.68,2.68,0,0,1,1.66-.75c1.3,0,1.93,1.35.6,2.75-.44.47-.28.8.06.83Zm8.88-4.53c1.93.29,2.91-2.92,1-4.49-1.53-1.23-4.45-.59-6.41.71-1.75,1.15-2.48,1.49-3.88,1.25-1.72-.3-1.66.38-.91,1.23s2.93.66,4.68-.49c3.87-2.56,5.27-3,6.4-1.6,1,1.2.23,2.73-.83,2.65-.66,0-1.07-.45-1.72-.67C75.43,192.16,75.87,192.41,76.67,192.52Zm13.85-5.9a21,21,0,0,0-6.64-6l0-.47,9.09,0a62.5,62.5,0,0,0-2.42,6.46Zm30.77-6.44c.19-3.72-.48-5.91-2.67-8.51-2.33-2.77-2.15-7.08-.66-9.74.66-1.18,2,.27,1.37,1-.9,1.13-1,3.89-.53,5.62,1,2.85,3.13,4.25,4,7.27a18,18,0,0,1,.2,3.6Zm-2.84-.31c-.16,0-.41-.14-.79-.46-1.29-1.11-1.07-4.28.4-6.32.45-.62.82-.44,1.26.13.58.57.38.63-.11,1.64a6.85,6.85,0,0,0-.57,3.61C118.7,179.4,118.67,179.84,118.43,179.88Zm-83.35-1.09c-1.13,0-2.55-.22-2.68-.63s.15-.9.78-1.16c1.66-.7,3.85.28,3.3,1.47C36.35,178.68,35.77,178.78,35.09,178.79Zm2.9-.27a1.33,1.33,0,0,1-.75-.17c-.54-.28.26-2.19-2.45-2.15-.65-.09-1.12.05-1-.24s1.3-1.1,2.56-1.29c3.77-.56,3.61-.37,3.44-3a9.5,9.5,0,0,1,.24-3.37c.41-1.82.57-3.58.3-3a14.54,14.54,0,0,0-1.3,4.61c0,2.05-.73,2.46-1,1-.13-1,.32-1.54-.35-2.54-.38-.56-.55-.55-.3-1.43a1.29,1.29,0,0,0-.2-1.39c-.27-.39-.55-.49-.32-1a1.7,1.7,0,0,0-1.41-2.41c-.52,0-.67-.27-.51-.47a2.32,2.32,0,0,1,1.29-.61l12,7.63c-2.48,5.71-5.29,8.33-9.27,9.7a2.78,2.78,0,0,1-.88.22ZM31.6,176a1,1,0,0,1-.85-.52c-.74-.94-.09-2.12,1.71-3.13,1.55-.88,2-1,2.33.4a1.85,1.85,0,0,0,.42.68c.36.33.28.6-.18.84a13.27,13.27,0,0,0-1.47.76,4.8,4.8,0,0,1-2,1Zm5.1-2.73a2.07,2.07,0,0,1-1.06-.28.86.86,0,0,1,0-1.4c1-.39,2.48.13,2.35,1-.06.45-.67.68-1.3.67Zm-6.16-1a.9.9,0,0,1-.81-.48c-.48-.74-.07-1.48,1.23-2.26.23-.14.48-.27.77-.41,1.25-.61,2.85-.87,2.74-.52a4.75,4.75,0,0,0,.56,1.94,11.69,11.69,0,0,0-3.18,1.2,2.84,2.84,0,0,1-1.31.52Zm90.78-1a1,1,0,0,1-.9-1.25,7.39,7.39,0,0,0,.6-5.25c-.35-1.84-.75-2.77-2.65-5.49-1.44-2.07-1.91-2.88-1.56-3.53.25-.35.8-.68,1.14-.34.71.92,1.13,2,1.82,3.06,2.65,3.88,2.84,4.86,3.18,7.93.16,1.4-.65,4.38-1.34,4.82a.78.78,0,0,1-.28.06Zm-62.18-.28a5.75,5.75,0,0,0,1.57-2.61C60,167.81,58.1,171.22,59.14,171.07Zm-22.83-1c-1.06,0-1.44-1-1-1.48a1.15,1.15,0,0,1,1.94.83c0,.43-.2.65-1,.64Zm-5.89-1.35c-.61.06-.69-.63-.37-1.5s.89-.95,2.35-1.4c1.75-.54,2-.46,2.29,1.14.1.62.05.48-1.56.9A16.43,16.43,0,0,1,30.42,168.77ZM133.61,168l-.43-3.23-.7,2.42ZM36.1,167c-.86,0-1.32-.77-.88-1.23a1.18,1.18,0,0,1,1.16-.11c.68.5.56,1.35-.28,1.34Zm26.26-1.69-1.68-1,13.61-21.42,1.64,0,.16.34Zm-30.88-.21c-1,0-1.09-.93.12-1.8a3,3,0,0,1,1.49-.42c.6,0,1,.13,1.06.55.26,1,.41,1.28-.52,1.22A13.44,13.44,0,0,0,31.48,165.07Zm4.16-.94c-.69,0-1.14-.76-.67-1.12s1.29-.17,1.29.51C36.26,164,36.14,164.13,35.64,164.13Zm97.93-1.52,3.7-3.27c-1.36-1.6-2.5-3.2-3.67-4.88ZM58.7,162.4c-1.61.06-2.13-.71-1.37-1.23a4,4,0,0,1,3.1-.5c1.55.29.32,1.53-1.39,1.7l-.34,0Zm1.71-2.33a4.44,4.44,0,0,1-1.42-.29c-1.05-.35-2.36-1.45-2.3-2.06.1-1,2-.48,3.46.94.94.88,1,1.4.26,1.42Zm1.42,0c-.91-.09-1.82-3.16-1.11-4.1s1.91,1.07,1.69,2.63c-.09.62-.24,1.44-.49,1.47h-.09Zm59.51-.67c-.51-.12-1.17-.83-1-1.37.1-.22.32-.15.55-.1a1.25,1.25,0,0,1,.67,1.25C121.49,159.3,121.43,159.38,121.34,159.38Zm-69.06-.53L49.6,157l2.68-.1Zm11.52-1.59h0a.37.37,0,1,1,.37-.37.37.37,0,0,1-.37.37Zm-.43-2.07c-2.05,0-2.49-.67-1-1.48a4.94,4.94,0,0,1,3-.12C66.68,154,65.15,155.2,63.37,155.19Zm-16.61-1.38L46.62,152l5.15-.45.26,1.93Zm19.58-.92c-.94-.06-1.75-2.61-1.13-3.88.34-.69.76-.54,1.38.6s.63,3-.06,3.26a.53.53,0,0,1-.19,0Zm-1.75,0a3.67,3.67,0,0,1-1.67-.52c-1.4-.72-2.2-1.93-1.48-2.31s1.82.06,2.65.93C65.17,152.13,65.26,152.85,64.58,152.89Zm68.8-.72,2.25-4.52-4.08-3.55ZM68.26,150.3h0a.37.37,0,1,1,.37-.37.37.37,0,0,1-.37.37Zm-22.14-1.62-.36-1.79,4.95-1.22.48,1.95Zm-10.54-.25c1.89-1.26.07-2-1.28-1A2.11,2.11,0,0,0,35.59,148.44Zm32.14-.1a2.41,2.41,0,0,1-1.5-.44c-.45-.4-.35-.57.71-1,1.9-.77,4.24-.3,2.88.85A3.35,3.35,0,0,1,67.73,148.34Zm1.39-2.43c-1.35,0-4-1.89-3.44-2.78.31-.48,2.08-.07,2.79.6.93.88,1.42,2.07.9,2.16l-.25,0Zm1.71-.09c-.7.13-1.81-3.11-1-3.94.32-.31.4-.29.93.17a2.9,2.9,0,0,1,.24,3.61A.32.32,0,0,1,70.83,145.83Zm-40.87-1c6.57-2.52,4.89-4.91-.67-.69A2,2,0,0,0,30,144.81Zm14.9-.91-.65-1.81,5-2,.73,2Zm85.24-3.43,1.69-4.43a12.84,12.84,0,0,1-5.16-1.64Zm-86.9-1.3-1.06-1.78,4.69-2.53.94,1.88Zm108.89-3.46-1.92-1.35,2.82-3.49.26.49,0,2.9Zm-111.45-1.1L39.51,133,44,129.85l1.11,1.78Zm106.61-2.1-2.07-1.59,3.28-3.94,2,1.51Zm-22.81-1,.1-4.74-4.88-.19Zm-61.09-.46a47.05,47.05,0,0,0,4.71-1.67l-5.55-3.18Zm-25.74-.68-1.29-1.6,4.17-3.49L41.82,127ZM143,129l-1.93-1.79,3.4-3.67,1.79,1.68Zm-109-2.6-1.5-1.52,3.8-3.94,1.5,1.52Zm104.59-1.93-1.5-1.74,3.89-3.08,1.44,1.75ZM116.22,124l-1.09-4.64c.08.34-4.84,1.39-5.48,1Zm-57.28-.39-4.64-4.89-.52,4.71Zm-28.72-.77-1.68-1.31,3.12-4.43,1.9,1.49Zm105.06-3-1.38-2,4.08-2.42,1.16,1.76Zm-109.46-.47-.26-.26v-3.16l1.29-1.9,1.77,1Zm26.27-3.55L48,108.47,46.83,114A12,12,0,0,1,52.1,115.92Zm79.94-1-1-2.15,4.31-2,1,2.14Zm-2.33-5.13-.79-2.15,4.58-1.52.73,2.08Zm14.77-1.37c.78,0,2.83-.76,5.69-2.53l-1.43-1C144.57,107.09,143.48,108.41,144.48,108.43Zm-36.29-.06c-.28,0-.6-.36-.87-1.21-.39-1.29-.18-2.89.69-2.87.59.07.81,1.58.81,2C108.85,107.61,108.56,108.33,108.2,108.37Zm-4.07-.77-1.77-.19v-.5l14.09-22.29,1.71,1.08Zm7.59-.52a3.32,3.32,0,0,1-2.11-1.16,3.76,3.76,0,0,1-1-1.78c0-.22.39-.14.76-.09a4.22,4.22,0,0,1,2.75,1.57C112.65,106.6,112.35,107.09,111.71,107.08Zm-64.77-.79-1.88-9.13c-.58,2.29-1.81,3.6-2.72,5.4A12.78,12.78,0,0,1,46.94,106.29Zm80.95-1.85-.44-2.36,4.75-1.09.49,2.29Zm-17.9-.83c-1.74-.19-2-.58-.81-1.36.71-.47,2.77-.61,2.94,0s-1.19,1.36-2.12,1.39Zm33-.59a2.63,2.63,0,0,0,1.68-.79l-1.47-.86C141.57,102.51,142.06,103.08,142.95,103Zm-30.26-1.59c-.53,0-.85-1-1-1.82a5.94,5.94,0,0,1,.08-2c.14-.64.79-.61,1.1-.1C113.76,99,113.73,101.45,112.69,101.44Zm-2.49-1.14a.37.37,0,0,1,.73,0,.37.37,0,0,1-.73,0Zm6.4-.23a2.47,2.47,0,0,1-.92-.19c-1.23-.46-2.86-2.34-2.17-2.6,1-.38,3.24.73,3.66,1.86C117.37,99.7,117.14,100,116.6,100.07Zm10.15-1.51-.11-2.33,5-.2.15,2.32Zm-12.23-2a3.33,3.33,0,0,1-1.38-.22c-.71-.31-.19-.86,1-1.29a3.2,3.2,0,0,1,2.37,0C117.49,95.79,116,96.55,114.53,96.59Zm38.64-.27c-3.42-2.07-10.51-6.68-10.51-6.68a2.78,2.78,0,0,0,1-.58,3.31,3.31,0,0,1,.77-.5,5.52,5.52,0,0,1,1-.24c2.2-.48,3.28-1.72,2.59-3.27-.27-.61-.34-.51.13-1,1.31-1.25,1.15-1.62.69-3.22,0-.23,1.56-2.15.18-3.59-.77-.67-.8-.25-.53-1.77.1-.91-.15-1.66-1.48-1.92-.74-.34-.73-.22-.47-.85a1.58,1.58,0,0,0,0-.84c-.21-.54-.47-.71-1.06-1l-.07-.56.22-.12c4.26-2.28,5.51-6.18,1.4-11.89-.49-.68-1.73-2.61-1.73-2.61,1.41-2.09,2.76-3.81,4.2-5.67l-4.19-5.84a24.45,24.45,0,0,0,3.24-5.34c1.22-3.29.5-7.67-3.71-9a5.49,5.49,0,0,0-5.69,1.63,7.28,7.28,0,0,0-.77,7.13,28.4,28.4,0,0,0,3.64,5.81L137.6,50s3.09,4.43,4.32,6c-8,9.74-2.2,12.81-.46,13.85l.24.15.16.79-.21,0c-7.39.91-9.94,5-12.15,10.21-4.5-2.89-16.23-10.33-16.23-10.33a9.4,9.4,0,0,0,.34-2.23c-.21-1.36-.11-2,.44-2.5a1.47,1.47,0,0,0,.41-1.5c-.14-.92-.36-.76.05-1.22s.68-.84.58-2.22a4.39,4.39,0,0,1,.05-1.93c.28-.63,1.05-1,2.06-1.74,1.77-1.38,1.53-1.81-.91-6.83-2.08-4.28-2.32-5.26-1.52-6.78a7,7,0,0,0,.83-4.07c0-.47-.06-1-.06-1.22,0-.59,0-.52.34-.89a12.48,12.48,0,0,0,1-1.27c2.9-4.34,10.54-15.49,10.54-15.49h25.75ZM44.89,95.47c0-4,.08-9.09,1.45-12.87l-1.55-.7c.5,3.88-.12,7.07-3.7,8.75A12.52,12.52,0,0,1,44.89,95.47Zm72.22-1.17c-.3,0-.66-.52-1.08-1.6a2.51,2.51,0,0,1,.17-2.13c.76-.83,1.82,1.12,1.48,2.66C117.54,93.93,117.34,94.28,117.11,94.3Zm-2.24-.55h0a.37.37,0,1,1,.37-.37.37.37,0,0,1-.37.37ZM121,93a3.91,3.91,0,0,1-2.14-1c-.79-.69-1.49-1.64-1.3-1.73,1.21-.53,4.3,1.09,3.89,2.36C121.32,92.87,121.16,93,121,93Zm5.4-.17,0-1.94,3,1.9ZM58.2,91.88c-.48,0-1.23-.67-1.11-1.11s.46-.43.8.07.58,1,.32,1Zm60.48-2.4c-.72,0-1.35-.14-1.42-.52s.55-.82,1.23-1c1.7-.52,3-.18,2.5.65C120.7,89.13,119.61,89.46,118.68,89.48ZM60.4,89.06c-.68,0-1.26-1.35-.82-1.78.72-1.28.81-5.38-.46-7.05-2-2.16-3.78-5-3.57-8.73l1.89-.84c-.1,3.08,0,5.09,2.44,7.75,2.88,3.12,2.2,8.52,1.21,10.1C60.86,88.9,60.63,89.06,60.4,89.06Zm79.28-1.27-9.08-6.15a1,1,0,0,1,0-.34,12.5,12.5,0,0,1,10.64-9.59c.65-.08.31.32.7,1.1a2.09,2.09,0,0,0,2,1.15c2.3,0,.33,1.31-2.48,1.68a5.21,5.21,0,0,0-2.64.83c-.13-.06.49,3.87-.14,5.25-.32,1.24,0,1.84.33,1.08a13.41,13.41,0,0,0,.69-3c.14-1.09.37-1.24.63-.71a1.86,1.86,0,0,1-.07,1.27c-.21,1,1.09,1.8.83,2.75a1.66,1.66,0,0,0,.45,1.94,2.14,2.14,0,0,1,.18,1.23,2,2,0,0,0,1.36,2c.39.2.24.35-.13.61C142,89.5,140.65,88.34,139.68,87.79Zm5.48-.21a2.59,2.59,0,0,1-.65-.07c-.45-.27-.82-1.84-.31-1.9a8.32,8.32,0,0,0,1.22-.22c1.53-.45,2.25-.39,2.22.49s-1.29,1.69-2.48,1.71Zm-2-.16c-.6,0-1.09-.71-.71-1.08a.68.68,0,0,1,1.14.45C143.56,87.09,143.42,87.42,143.13,87.42ZM142.72,85a1.23,1.23,0,0,1-.57-.12c-.56-.26-.88-1.22-.53-1.57a1.31,1.31,0,0,1,1.46.18C143.83,84.1,143.47,85,142.72,85Zm1.9-.14c-.35,0-.6-.12-.66-.36s0-.4-.05-.69c-.15-.46-.44-.81-.18-1,1.17.07,3.61-1.4,4.31-1.33s.65.62.14,1.49a5,5,0,0,1-3.56,1.88ZM143.91,82c-.26,0-.3-.12-.19-.5a2.47,2.47,0,0,0-.17-1.3c-.19-.44-.54-.69-.36-.87a21.89,21.89,0,0,0,2.15-.6c1.09-.6,4.16-2.42,3.39.48-.25,1-1.38,1.64-3.35,2.33A8.2,8.2,0,0,1,143.91,82Zm-1.61,0a1.24,1.24,0,0,1-1.26-.78c-.71-1.41,1.33-1.61,2-.44C143.41,81.45,142.91,81.93,142.3,82Zm-.39-3.29c-1.06,0-1.89-1.32-1.12-1.81a2.56,2.56,0,0,1,1.93-.12C143.71,77.18,143.26,78.69,141.91,78.68Zm-101.6,0a78.09,78.09,0,0,0-14.84-5.49V20.86H61.86l10,17.33a2.52,2.52,0,0,1,.43,2.15A33.57,33.57,0,0,1,70,45.45c-2.41,4.4-5.83,9.24-4,13.47.21.48-1.91,3.11-1.91,3.11-3.39-.17-6.3,2.06-4.94,6.84C52.35,71.65,46.65,74,40.31,78.66Zm103.48-.26c-.09,0,.19-1.14-.39-1.84-.36-.55-.3-.53.92-1a6.81,6.81,0,0,0,1.18-.85c1.76-1.56,3.49.48,1.8,2.12a6.32,6.32,0,0,1-3.48,1.58h0ZM60.33,77.32c-.59-.1-1.35-.89-1.11-1.31a6.24,6.24,0,0,0,.94-3.57c.08-1.6-.19-1.84.42-1.56.4.19,1.15.51,1.31.91C62.28,72.73,61.3,77.49,60.33,77.32Zm84-4a2.13,2.13,0,0,1-1.72-.7c-.32-.41-.35-.76,0-.93.76-.4,3.27-.19,3.4.32.2.79-.69,1.29-1.64,1.3Zm-38.1-1a25.94,25.94,0,0,1-9.43-1.87,20.58,20.58,0,0,1-8.45-7.29s.5,0,.82,0c4.69-.77,6.35-6.61,2.39-9.36A4,4,0,0,0,89.36,53c-1,.09,4.46-10.37,6.64-16.88,6.73.27,11.82-.76,18.41,1.5.71,1.17.54,3.76,0,5.09s-1.1,2.15-.79,3.55c.52,2.43,2.75,5.6,3.49,7.61.65,1.53.61,2.11-.53,3a8.85,8.85,0,0,0-2,1.77c-.34.49-.2.6-.2,1.7,0,1.33,0,2.14-1.15,2.33-1.85,1.22-3.28,1.35-5.2,0-.37-.1-.33.28-.49.78a5.1,5.1,0,0,0-.21.87c0,.23.51.16,1,.09a4.66,4.66,0,0,0,5-.08c.75.28.5.65.06,1.49a2.61,2.61,0,0,0-.51,2.3c.2,2-.07,2.37-1,3-1.15.8-3.23,1.18-5.61,1.17Zm-11.1-1.73H85.32A30.83,30.83,0,0,0,88,64.2,20.92,20.92,0,0,0,95.16,70.56Zm8.28-7A10.56,10.56,0,0,0,108,61.87a5.12,5.12,0,0,1,3.67-.93c.77.14.87,0,1-.22.46-1.13-1.23-2.33-2.94-1.54-.5.21-4.3,2.17-4.51,2.34a7.69,7.69,0,0,1-2.22.64A1.84,1.84,0,0,1,101.09,60,1.35,1.35,0,0,1,103,58.91c.68.35.61.87.91,1.49a1.69,1.69,0,0,0-1.46-2.52,2.47,2.47,0,0,0-2,3.66,3.12,3.12,0,0,0,3,2Zm7.75-5.26a2.35,2.35,0,0,0,.45,0,28,28,0,0,1,3.38-.83c1.1-.24,1-1.12.33-1.57-.53-.35-1.2-.14-3.12,1.08a1.63,1.63,0,0,1-2-2.58c1-.81.3-1-.35-.53-1.57,1.17-.83,4.45,1.32,4.47Zm-1.54-8.9c.12-.2.05-.53.11-.79s.21-.47.18-.61-.43-.25-.49-.36a5.46,5.46,0,0,1,.05-2.49c.07-.41.68-.53.92-.78.8-.81.6-1.06-.25-.74-.6.22-.34.63-1.82.35a6.91,6.91,0,0,0-4.92,1c-1.67.92-2.27,1.43-2.34,1.32s0-.28,1.17-1.26c3-2.47,5.19-3,6.87-2.12.5.34.9.48.52-.25a2.75,2.75,0,0,0-.74-.52c-1.72-.77-3.87-.12-6.61,2-.6.47-1.13,1-1.83,1.58-2.27,1.9-1.67,2.76.89,1.84.81-.29,1,0,2.13.45a8.12,8.12,0,0,0,3.64.65c1.47,0,1.69-.11,1.69.14s-1.05,1.3-2.1,1.91a2.73,2.73,0,0,0-1.13,1.09A7.15,7.15,0,0,0,109.64,49.39Zm-3.35-1.54a7.66,7.66,0,0,1-3.23-.72c-.27-.28.12-.45,1.18-1a8.68,8.68,0,0,1,1.23-.52C105.57,45.49,106.57,47.74,106.3,47.85Zm.94-.24c-.14,0-.26-.13-.32-.25a6.46,6.46,0,0,1-.53-1.54c0-.15-.13-.37.11-.37s.5,0,.61.13a4.31,4.31,0,0,1,.42,1.9C107.47,47.64,107.33,47.61,107.23,47.62ZM98.1,43.48s1.73-1,2.47-1.37c3.78-1.81,7.9-2.61,10.69-1.56,1.1.41,1.3.27.9-.48a2.75,2.75,0,0,0-1.66-1.36c-2.66-.73-6.95.33-10.25,2.49A7.53,7.53,0,0,0,98.1,43.48ZM73.31,36.66S65.12,21.32,64.4,20.6l60.75.26L114.91,35.29C114.82,34.48,90.22,31.11,73.31,36.66Z" style="fill: #131f67"/>
    <path d="M124.76,20.86,115,35.3c-14.51-2.75-27.56-1.3-41.86,1.25l-9.52-16ZM47.83,74.67l.06,8.57-3-1.11c1,4-1.59,8.15-4,8.32,7.64,5.75,1.29,11.89,1.43,12,8.36,4.3,4.16,10.9,4.74,11.49,10.18,2.63,6.21,10.69,7,9.86C60,122,63.26,127,63.36,131c5.13-2.9,13.06,1.21,10.57,5.82,0,0-2.72-1.29-3.2-1-4.19,3-3.86-1.32-4.73-2.27-3.12.45-5-1.93-5.75-3.09-4.61,0-4.42,1.1-4.46-3.36-3.47-.88-3.33-2.75-5.34-5.31-4.38,0-3.64-1.47-2.65-3.88-3.15-2.5-3.41-4.46-3.93-6.74-3.44-1.24-4.06-1.75-1.81-4.64-3-4.54-1.58-7.17-2-7.41-3.79-2.72-1.89-3.71-.24-4.75-.57-3.62-1-4.15.3-7.83-4.35-3.08.69-4.47.95-4.4V79.08ZM153.23,97l.09,10.62-36.9-23.77,4.66-7.29Zm-49-15.63c-10.25,19-8.71,17-5.59,38.05l-25-.54c-2.81-6.37-4.51-11.78-11.71-22.32,7.81-2,6.74-2.78,7.34-15.12ZM82.83,86.18a2.19,2.19,0,0,1,.35,1.12c-.09.3-.33.29-.62.13-1.06-.51-2.12-1-2.91,0a1.39,1.39,0,0,0,0,1.65c.6,1.22,2.48.34,3.12.29s.82.48.33,1.18a1.8,1.8,0,0,0-.52,1c-.33,2.78,4.43,1.79,2.78-.91-.75-1-.31-1.6.79-1A1.81,1.81,0,0,0,89,88.32a1.68,1.68,0,0,0-2.61-1.12c-.27.15-.48.32-.67.41-.55.24-.94,0-.76-.57.49-.77,1.06-1.87.58-2.59a1.63,1.63,0,1,0-2.74,1.74ZM25.16,142l37,23.88a51.05,51.05,0,0,0-4.92,7.71L25.12,153ZM83,150l-3.79-19.28L105,130.4c1.42,6.47,10.28,21.13,10.26,20.87l-6.88,16.86-34.25,0Zm9.69,7.18c-.65.6-.61,1.51.11,2.53s.39,1.71-.73,1a2.9,2.9,0,0,0-2.27-.29,1.52,1.52,0,0,0-1.07,1.81c.15,1,1.29,1.31,2.51.86.35-.07.57-.36.87-.5.66-.29.92.5.32,1.52a1.58,1.58,0,0,0,1.25,2.45,1.55,1.55,0,0,0,1.56-2.18c-.77-1.17-.21-2,.89-1.2,1.58,1.12,3.65-.3,2.79-2-.42-.81-1.77-1-3-.51-1,.43-1.32-.06-.7-1.1,1.27-2.14-.81-4-2.53-2.45Zm37.45,18.93.27-10.27c3.86,2.35,3.29,2.38,3.43,2.35a7.37,7.37,0,0,1,3.47-8.78c-5.9-5.52-2.71-9.4-1.74-12a8.53,8.53,0,0,1-3.75-11.51c-7.44,0-7.28-6.52-7.5-9.22-9.19.58-8-6.75-9.17-7.38-4.46,2-9.66,1.31-11-4.66-.89-3.39,2.38-.12,3.81-.27,5.08-3.15,4.1,1.66,4.39,2.33,4.21-.4,4.77,1.6,6.62,3,4.55-.87,4.17.62,3.9,3.37,3.57.72,4.34,2.94,5.76,5.11,4.92-.16,2.92,3.31,2.9,4,.6.53,3.42,3.31,3.56,6.48,5.05,1.42,1.88,4,1.7,4.84,1.91,2.37,2.41,4.13,1.77,7.12,4.49,2.09.74,4,.42,5.23,1.46,3.9.4,5.06-.18,7.17,2.89,3.37,1.16,3.19-1,5.23-.27.37.47,2.06.43,3.06Zm-25.93,38.08,8.09,14.44H54.48s6.29-8.69,8.73-13.06C77.62,217.88,91.11,216.8,104.18,214.23Z" style="fill: #d40000"/>
    <path d="M144.52,30.24c8,3,2.85,10.82.52,13.87,1.64,2.53,2.4,3.42,4.08,5.94-1.48,2.23-3.22,3.93-4.33,5.87,4.45,5,7.38,12.49-1.2,14.26-9.62-2.4-3.94-10.86-1.32-14.13-.92-1.86-2.53-3.63-4.12-6a54.72,54.72,0,0,0,4.34-5.65c-3.77-4.56-6.36-10.48-1.6-13.63a5,5,0,0,1,3.63-.55ZM101.8,106.78c.14.23,19.11-30.38,19.11-30.38L118.75,75,100.6,103.31c-.27-.21-.54-.45-.49-.8,0,0,15-24.28,17.44-28.16A36.49,36.49,0,0,0,113.72,72c-5.56,2.73-28.75.37-44.15,1.31-.06,0,.24-5.39.24-5.39,5.15,6.89,7.62,2.62,14,2.87,1.68-.51,3.61-6.63,4-8.17,3.06.35,6-2.84,5.32-5.82-1-3.31-2.72-3.06-4.59-3.11C88.74,50,95.37,40.1,95.4,35.23c-7,.55-14.6.68-21.84,2.85A68.92,68.92,0,0,1,67.42,51a10.47,10.47,0,0,0-1.21,6.77c.29,2-.59,2.55-1.38,4-.48.89-2.25.85-2.47.92-4.6,1.33-3,7.26-1,8.31,2.44,1.32,5.9-.72,7.22,1.95,1.4,2.82.95,8.66.95,8.66l34.74-.17S94.45,100,94.7,100.16C97.38,101.62,101.77,106.73,101.8,106.78ZM125,89.86c-.16,1.88-.46,32.43,28.5,47.62l-.15,4c-.18.21-26.35-11.77-30.84-42.89l-8.08,12.61-3-1.16c4.39-6.57,13.12-22.53,13.54-20.19Zm17.59,11c-1.19,3.53.76,1.66,2.55,1.8,1.22.66,2.42,1.52,3.55,2.26-8.46,4.47-3.42,4.25,1.51,1.12,1.28.69,2.9,2.2,3,2.08-9.55,6.12-6,6.25.14,1.81-.21,4.16-.06,2.6-.14,4-5.21,5.56-.36,2.54,0,2.47,1.28,5.55-4.85,4.39-5.42.19-1.08-.8-3.2-1.79-3.83-5.23-2.95-1.87-2.64-3.42-2.5-5.66-1.15-1.13-4.13-3.53-.66-5.74Zm11,25.33-.2,3.07c-.4,1.25-22.74-14.63-21.13-35-.26.14,2.47,1.43,3.26,2.13C135.54,111.37,151.53,124.58,153.61,126.2ZM25.49,109c14.91,6.81,29.06,23.12,29.8,44.35l8.42-14.05,3,1.26c-.28-.23-6.66,11.57-13.23,19.73C51.62,133.47,41.09,121,25.13,112Zm78.06,9.79c14.44,1.79,35.13,22,28.88,48.55-7.84-4.23-12.11-10.82-15.8-14.47-2.31-2.69-10.79-16.57-11.21-22.1-10.5-3-30.78.36-30.78.36-17-3.79-34.87-22.12-28.43-48.17a76.2,76.2,0,0,1,8.32,6.42c11.5,11.08,15.15,20.19,19.23,30.23,14.73,1.33,28.53-1.3,29.8-.83Zm-78.2,22.13a33,33,0,0,1-.14-4.06c3.84-4.17,4.24-4.24-.57-2.9.6-4,3.56-4.65,5.32-3.29.65.5.65,3.25.65,3.25,2.92.73,3.92,1.6,3.51,4.73,3.36.4,3.23,2,3,5.44,3.06,1.72,2.3,4.45.49,5.61l-1.51-1c.49-.43.25-3.15-2.43-1.13,0,0-2.15-1.78-3.18-2.46,7.76-5,3.06-3.88-1.72-.61-.9-.61-2.12-1.61-2.76-2C32.25,137.89,34.32,134.12,25.35,140.89ZM25,124l.26-3.59c15.32,9.34,19.47,21.67,20.61,34.79,0,0-2.06-1.51-3-2.14C41.48,136.11,25.92,124.68,25,124Zm83.95,44.43-36.75-.23,9.75-18.58-5.14-6.06S64,163.36,57.6,173.75l2.22,1.32,18.32-28.7.73.8L60.8,175.85c1.08.71,3.13,1.84,3.13,1.84s31.29-.5,44.9-.45a34.08,34.08,0,0,0-.54,5.19c-2-2.87-4.16-5.43-8.83-2.61,0,0-5.53-.19-5.73.08a75.53,75.53,0,0,0-3.27,8.4c-4-.11-5.2,2.7-5.38,4.34-.44,3.87,4.09,5,4.43,4.45-1,5.79-8,17.76-6.74,18.18,1.59,1,17.3-2,21.88-2.6.42.16,2.66-7.11,5-10.22,2.56-3.38,3.48-7,2.17-10.43,1.36-3.76,4-3.38,6-4.44,2.37-2.56,1.71-6.47-.54-8-1.57-1.05-4-1-6.44,1Zm-73,26.28,4.3,5.76L36,206.49c1.64,2.6,4.36,6.58,3.87,9.73-1.06,6.25-9.52,5.34-10.26-.65-.4-2.78,1.63-6.18,3.69-9.08-1.36-2.47-1.95-2.88-3.93-5.71,1.18-2.07,4-6.12,4-6.12-1.79-3-4.27-6.29-4.09-9.34.19-2.62,3-5.27,5.72-4.71C43.37,182.35,38.74,191.2,35.9,194.68Z" style="fill: #e2cf00"/>
    <path d="M125.86,20.22,63,20.33,73,37.18c-.24-.45,24-6,41.94-1.24ZM65.23,21h4L75,33.3a64.1,64.1,0,0,1,9.18-1.86l-2-10.4h3L86.87,31a128.13,128.13,0,0,1,13.47-.34l2-9.6h3.16l-2,9.54c3.48.47,6.94.91,10.47,1.49l5.93-11h4.46L115,34.87c-13.88-2.78-26.69-2.12-41.07,1.19L65.23,21Zm6.35,0h8.63l1.59,8.58-5.66,1Zm15.85,0h13L99,28.61l-10.52.15Zm20.08,0H117.7l-4.59,8.91-7.55-1Zm36.07,9c-3-.09-5,2-5.41,5.06s2.14,6.38,4.21,9.36c-1.45,1.88-2.93,3.79-4.41,5.67l4.2,5.91c-2.87,4-4.75,7.17-4,10.17.9,2.65,4.53,4.67,6.71,4,3-1,5-3.6,4.39-6.69-.62-2.82-2.27-4.74-4.29-7.53a51,51,0,0,1,4.28-5.73l-4.12-5.95c1.14-2.24,3.12-3.94,3.62-6.71.78-3.65-1.14-7.2-5.21-7.52Zm-.28.2a5.56,5.56,0,0,1,5.51,5.91c-.15,3.26-2.09,5.46-3.92,8.12L149,50.16l-4.32,5.75s3.15,3.84,4.11,6.61a5.87,5.87,0,0,1-.88,5.21,4.91,4.91,0,0,1-3.94,2.1,5.19,5.19,0,0,1-3.84-1.68c-2.57-2.68-2.35-5,1-9.92.73-1.09,1.45-2.29,1.45-2.29l-4.22-5.81c1.38-2,3-3.68,4.4-5.73-1.9-2.44-3.86-4.91-4.26-8.09C138.13,33.38,140,30.27,143.3,30.19Zm.37,1.9a3,3,0,0,0-2,.68c-2.87,2.5-.74,5.93,1.12,8.26a11.59,11.59,0,0,0,1.11,1.29,14.16,14.16,0,0,0,1.45-2.12c2.15-3.57,2.21-6.2-.33-7.77a3.16,3.16,0,0,0-1.3-.33Zm.16.59c1.89.11,3.22,2.42,2.25,4.85a15,15,0,0,1-2.34,3.87,14.81,14.81,0,0,1-2.58-3.81c-.83-2.14-.3-3.82,1.3-4.61a2.73,2.73,0,0,1,1.37-.3Zm-48.2,2.09a77.11,77.11,0,0,0-23.16,3.36C73.61,40,70.56,44.61,69,48c-2.28,4-2.93,5.58-3.16,7.48a8.91,8.91,0,0,0,.36,3.6A9.43,9.43,0,0,1,64,62.35a4.19,4.19,0,0,0-4.83,3.71,5,5,0,0,0,6.5,5.58l0,21.93-2.54-.1L60.4,94.85C55.92,91,53,87.14,48.18,84.2l.08-.19,3.58,2.45V72.09a66.44,66.44,0,0,0-11.75,7.15l.75.65,0,2.05c-3.51-.28-3.84,4.17-1,4.7a4,4,0,0,1-.34.92A6.65,6.65,0,0,0,39.15,93c.39,1.15.38,1.43-.09,1.43-2.13,0-1.93,3.75.24,4.58.75.28.69,0,.54,2.38a5.64,5.64,0,0,0,1.62,4.49c.49.58.45.86-.18,1.25-1.82,1.11-.5,4.3,1.73,4.21.87,0,.87,0,.95.83a6.94,6.94,0,0,0,3.16,5.38c.52.28.6.51.3.91-1.43,1.91-.09,4.51,1.92,3.75l.92-.33c.16,0,.29.17.6,1,.84,2.35,1.58,3.09,4.26,4.21.53.22.56.38.32,1.45-.41,1.85,2.15,3.58,3.53,2.38.56-.49.58-.48,1.22.33a8.37,8.37,0,0,0,5.15,2.65c.87.08,1,.15.93.48a2.23,2.23,0,0,0,3.57,2.38c.88-.66,1.11-.68,2-.17,1.91,1.07,2.75,1.11,2.95.14a6.65,6.65,0,0,0-.31-2.35,5.9,5.9,0,0,0-2.38-3.31s2.19.6,2.74.71c-.05.06.16,7.57,1.59,11.82l-14,22.18-8-5.26,12.81-20.2-3.73-1.51s-5,8.24-7.59,12.29C54.23,131,38.66,113.43,24.55,108.2c0,0,0,2.89-.11,4.29,14.88,6.53,29,24.78,28.15,46.68l-6-3.81c-1.74-17.56-9.41-27.84-22.2-36.54v5.38c8.81,6.5,16.13,15,18.07,28.56,0,0-3-1.88-4.32-2.77a5.16,5.16,0,0,0,.57-.38c1.6-1.33,1.12-4-1-5.58-.34-.25-.35-.25,0-1.11a3.23,3.23,0,0,0-2-4.18c-1-.25-.95-.23-1-1.32,0-2.12-.89-3.09-3.16-3.6-.31-.07-.32-.1-.32-1a3,3,0,0,0-4.2-2.93,26.49,26.49,0,0,0-2.55,1.92v3.76s.87-.71,1.51-1.3c1.11-1,1.46-1.16,1.45-.53,0,.46-.51,1.05-1.57,1.84a15,15,0,0,0-1.39,1.28v4.38a3.37,3.37,0,0,1,.46,1.72,10.92,10.92,0,0,1-.16,1.28h-.53v5.08l.64.5,0,3.36,35,22.56,18.22-28.88.46.53L60.34,176l5.1,3.2a16.85,16.85,0,0,1,4.06-1.54c2.06-.41,18.87.31,38.62.05,0,1.43,0,2.27,0,3.9a1.15,1.15,0,0,1-.44-.44c-1.59-3.36-5.6-3.4-8-1.93-.54.29-.63.3-3.17.28H93.44c-1.33,3.48-2.27,6.4-3.14,8.66-6.76-.56-7.16,8.61-1.6,9.22,1,0,.3,2.56-1.73,6.7a67.77,67.77,0,0,0-3.49,7.81,17.92,17.92,0,0,0-1.14,4c6.52.1,16.19-1.41,22.95-2.78A28.78,28.78,0,0,1,110.16,202c2.11-3.44,2.88-6.43,2.17-8.49s1.14-4.79,3.13-5a4.14,4.14,0,0,0,4-4.37c.07-3.9-2.63-6.3-6.3-5a.8.8,0,0,1-.62-.19l.21-22.35A15,15,0,0,0,118,155a56.22,56.22,0,0,0,8.49,8.18c.07,5-.13,10,.09,14.94a59.63,59.63,0,0,0,10.86-5.89c1.09-.72,1.19-1.13.79-3-.23-1-.17-1.14.68-1.35,1.75-.43,2.3-3.21.82-4.15-.69-.44-.7-.46-.25-1.47a8.12,8.12,0,0,0-.05-5.77c-.41-.71-.38-.94.16-1.29,1.87-1.21,1.74-3.8-.21-4.28-.5-.12-.63-.34-.46-.76.61-1.57.05-4-1.34-5.76-.73-.94-.72-.93-.24-1.36a2.43,2.43,0,0,0-1.42-4.22c-.73-.1-.74-.1-.82-.66a8.54,8.54,0,0,0-.71-2.81,6.08,6.08,0,0,0-2-2.38c-.83-.64-.83-.65-.39-1.6.82-1.75-.48-3.48-2.55-3.41-1.05,0-1.05,0-1.13-.33a6.3,6.3,0,0,0-4.34-4.26c-.92-.15-1.06-.37-.75-1.15a1.87,1.87,0,0,0-1.09-2.7,2,2,0,0,0-2-.13c-1.05.36-1.06.36-2-.84a4.3,4.3,0,0,0-4.2-2.12c-1.39,0-1.44,0-1.45-1a2.28,2.28,0,0,0-4.05-1.59c-.57.61-.57.6-1.08.23-2.22-1.62-4.19-2-4-.52a9.61,9.61,0,0,0,3,5.72l-3.22-.84c-.14-3.75-.28-8.28-1.06-11.4l14.36-22.8,7.74,5.12-13,21.09,3.65,1.41c2.79-4.38,4.84-7.9,7.44-11.94,2.59,18.92,15.83,35.52,31.86,42.51l-.05-5a52,52,0,0,1-28.51-47.15,18.84,18.84,0,0,1,3.22,1.93c1,.63,2.88,1.89,3.12,2-.78,23.12,22.23,36.79,22.27,36.15,0,0,.15-3,.21-4.37-9.8-6.55-17.51-18.46-18.29-29.06,0-.09,4.6,2.87,4.6,2.87a3.29,3.29,0,0,0,0,5.84c.62.28.66.41.35,1.24-.63,1.71.53,4.28,2.12,4.71.7.19.82.37.85,1.35a3.32,3.32,0,0,0,2.85,3.35c.49.11.5.11.53.73.15,3.47,3.56,4.88,6.11,2.54a4.2,4.2,0,0,0,.58-.76l0-3.76c-.87.48-2.2,2.11-2.74,2s-.31-.47,1-1.63c.88-.75,1.73-1.55,1.73-1.55l-.06-5c-1.45.94-2.91,2-4.27,3-1.17.82-1.78,1.08-1.92.85s.1-.61.77-1c1.79-1.19,3.88-2.59,5.38-3.76v-3.41l-.29-.42-.08-3,.27-.07V97.33L118.44,74.66l-17.93,28.45-.3-.3,18-28.28A54.13,54.13,0,0,0,113,71.32a10.09,10.09,0,0,1-3.8,1.47c-2.19.48-39,0-39,0L70,68.19c1.3,4.47,5.49,5.39,8.79,3.39H84.2s3.2-5.74,3.67-8.74c2.27.31,5.3-1.9,5.46-4.14.37-3.19-1.74-5.52-4.49-5.06,1.37-5.61,4.69-11.16,6.37-16.06.85-2.32.56-2.73.42-2.79Zm-1.36,1.37c.47,0,.9.07.9.27-3.14,9.5-5.27,11.49-6.32,15.3-.18.65-.32,1.59-.34,1.67-.78.22-1.44,1.15-2,1.32-.84.06.61-4.44,3.13-9.5a89,89,0,0,0,3.49-8.74,1.74,1.74,0,0,1,1.12-.33Zm-3.14.12a4.55,4.55,0,0,1,1.17.07c.48-.1-.69,3.09-2.41,6.91-1.38,3.06-3.26,6.5-4,9.92-.61,2.79-.42,3.94-.08,5.11,1.29,3.41,5.79,2.57,5.78-.57-.1-2-2.46-3.13-3.32-1.13-.14.92.31.38.69-.06.81-1,2.21.11,2,1.51a2.17,2.17,0,0,1-3.84,1c-1.27-1.6-1-3.25.84-4.49a3,3,0,0,1,4.55.84c2,3.22-1.26,6.83-3.5,6.9a4.17,4.17,0,0,1-4.29-2.4c-.47-.79-.47-.83-.37-1.57a7,7,0,0,0-.3-4c-.52-1.22-.45-1.63.84-4.34s2.85-6,4-9.11a32.55,32.55,0,0,0,1.31-4c.1-.38.48-.53.91-.58Zm-2.41.13a1.5,1.5,0,0,1,.33,0,1.52,1.52,0,0,1,.45.14c.22,1.08-1.5,5.12-3.4,9.36-1,2.31-2.24,4.61-3,6.68-.55-.08-1.62-.61-1.69-1.1a17.19,17.19,0,0,1,2-4.28,86.27,86.27,0,0,0,4.43-10.51,2.83,2.83,0,0,1,1-.3Zm-2.7.35a1.12,1.12,0,0,1,.71.17c.28.34-1.21,4.35-2.67,7.43-1.28,2.59-2.19,4.66-3.3,7.05-.3.47-.32.51-.62.57a9.73,9.73,0,0,0-1.67.55c-.58,0-.13-1,1.25-3.68a77.34,77.34,0,0,0,4.85-11c.17-.53.33-.79.55-.9a2.17,2.17,0,0,1,.89-.15Zm-2.44.3a.34.34,0,0,1,.3.31C82.62,42.83,79.41,47,77,53.6c-1.39,2.81.18,5.58,3.06,5.6,2.28,0,3.3-3.55,1.31-4.59s-3.41,1.66-1.67,2.6c.42.23.53,0,.19-.39-.77-.93-.08-2.17,1-1.68,1.67.77.81,3.6-1.14,3.44-3-.25-3.4-4.61-.33-5.71,4.21-1.52,6.42,5.24,2.46,7.52a4.09,4.09,0,0,1-2.12.53c-1.87,0-3.91-1.6-4.23-2.84-.18-.84.09-1.83-.21-2.64-.25-.65-.49-1-.31-1.6,1.54-4.94,5.18-10.22,7-16.07.21-.41.4-.46.86-.59A2.06,2.06,0,0,1,83.57,37ZM81,37.55c.12,0,.21,0,.23.05-.68,3.76-5.86,12.33-6.87,16.08-.4,0-1.43-.59-1.46-1a21.78,21.78,0,0,1,1.72-4.43c3.2-6.44,4-8.18,4.55-9.89a.87.87,0,0,1,.46-.59A5.42,5.42,0,0,1,81,37.55Zm-3.1.54c.26,0,.45,0,.48.25-.41,2.39-2,3.94-6.07,13.9-.19.33-.36.49-.54.52-.5.08-.94.32-1.43.36-.22,0-.3-.07-.24-.36a24.83,24.83,0,0,1,1.63-3.47c2.7-5.28,4.11-8.41,4.56-10,.11-.38.17-.67.35-.77a3.94,3.94,0,0,1,1.25-.41Zm-3,.71c.29,0,.52,0,.57.16.26.68-1.71,4.94-5.23,11.61-.92,1.78-2.09,3.85-2,6a2.66,2.66,0,0,0,3.51,2.34,1.9,1.9,0,0,0,.85-3,1.7,1.7,0,0,0-1.18-.54c-.58,0-1.25.55-.12.62a1.17,1.17,0,0,1,.59,2.18c-1.45,1-3.11-.17-3-2.06.24-3.79,5.8-3.22,5.94.68a3.9,3.9,0,0,1-3.93,4.06A4.48,4.48,0,0,1,67.6,59.5c-2.36-2.26-1.73-5.73,2.25-12.46a45.2,45.2,0,0,0,3.27-6.94,1.45,1.45,0,0,1,.71-1,2.66,2.66,0,0,1,1-.32Zm68.88,6.48-3.31,4.31L143.64,54l3.27-4.25Zm.16,2,1.65,2.38L143.59,52l-1.68-2.25Zm-.14,1.43-.59.92.59.91.59-.91Zm.06,8.76a18.24,18.24,0,0,0-2.92,4.46c-3.16,7.55,9,8.16,5.73-.46a11.44,11.44,0,0,0-2.81-4Zm0,.74c1.55,1.8,2.64,3.29,2.75,5.66a2.88,2.88,0,1,1-5.68,0c.34-2.28,1.55-3.73,2.93-5.63ZM75,59.1a.93.93,0,0,1,.82.81,15.71,15.71,0,0,1-.92,2.62,6.39,6.39,0,0,1-1.75.5c-.39-.09.23-2.08.34-2.33a6.19,6.19,0,0,1,1.39-1.56A.22.22,0,0,1,75,59.1Zm-8.52.48a5.83,5.83,0,0,1,1.18,1c.21.29-.19,1-.47,1.46-.44.65-.65.89-.9.92a2.61,2.61,0,0,1-1.22-.61c-.13-.26,0-.53.46-1.33S66.4,59.51,66.5,59.59ZM83.78,60C84.2,60,85,61.13,85,61.86c0,1.53-1.71,6.17-2.92,7.95-.42.62-.47.72-1.38.75-1.45,0-.81-.52-.24-1.25,1.3-1.65,2.65-6,2.93-8.29a7.83,7.83,0,0,1,.14-.84C83.61,60.06,83.68,60,83.78,60Zm-7.45.33c0-.06,1.28.75,1.64.91,0,.23-.4,1.84-.87,1.9h0a5.76,5.76,0,0,1-1.33-.42c-.22-.09-.23-.1-.13-.38s.46-1.6.74-2Zm6.37.25c.27.05.15.55-.12,1.73-1.55,4.26-2.2,8.92-7,9.35-3.86,0-6.11-4.25-3.09-7.27,2.77-2.77,7.4.77,5.09,3.89-1.29,1.74-4.46.34-3.67-1.52a1.15,1.15,0,0,1,2.18.67c0,.53.39.17.44-.4A1.56,1.56,0,0,0,75,65.53c-2.24,0-2.58,3-.42,4,1.93,1,4-.27,4.43-2.73a8.27,8.27,0,0,1,.61-1.41,14,14,0,0,0,1.3-3.88,3.91,3.91,0,0,1,1-.7,2.81,2.81,0,0,1,.62-.25h.14Zm-14.27.54.19,0a11.25,11.25,0,0,1,1.19.31c.17,0,.37.14.29.36-.58,1.34-1.24,2.93-2.52,3.79-.12-.66-.77-1.78-.71-2,.3-.69.74-1,1.34-2.18C68.31,61.2,68.3,61.13,68.44,61.13Zm4.15.15c.26.07-.09,1.08-.11,1.15-1.45,4.45-5.16,8.86-8.29,9A4.69,4.69,0,0,1,59.69,68c-1.37-4.6,4.76-7.42,6.9-3.25C67.78,67.11,65.31,70,63,68.85c-1.85-.91-1.73-3.73.16-3.72,1,0,1.65.87,1.09,1.61-.29.29-.65.06-.8.55-.06.2.23.37.93.23,1.16-.24,1-2.57-.3-3-2-.69-3.73,1.42-2.77,3.51,1.15,2.51,4.26,2.52,5.69-.11a12.75,12.75,0,0,1,.71-1.17c2.12-2.87,2.29-3.3,2.92-4.9a.34.34,0,0,1,.37-.26A4.49,4.49,0,0,0,72.59,61.28Zm6.08.23.12,0a5.72,5.72,0,0,0,1.19.05c.9.11-.79,3.45-1,4-.37-.06-.91-1.49-1.15-2l.72-1.87c.05-.15.07-.21.16-.21Zm7.06.73a10.74,10.74,0,0,0,1.56.67c.2.07,0,.3,0,.66a19.4,19.4,0,0,1-3,6.88c-.29.21-2.13.28-1.72-.3a31.86,31.86,0,0,0,3.07-7.91Zm28.69,10.15,2.91,1.81L99.57,102.32l-2.94-2.13ZM70,73.43l39,.09L108,75.19,70,75.1ZM47.61,75l0,7.88a67.29,67.29,0,0,0-6.37-3.81Zm71.34.19,1.78,1.14-18.89,30-1-2.49Zm-42.57.62h3.12v2.79H76.38Zm6.83,0h3.27v2.79H83.21Zm6.83,0h3.4v2.79H90Zm6.8,0H100V78.7H96.84Zm-26.76,0h2.77v2.79H70.08Zm33.33.07h3.16v1.54l-.86,1.25h-2.3Zm17.79.69L153,97l0,3.07L120.17,78.5Zm-46.64,0a.56.56,0,0,1,.56.56h0a.56.56,0,0,1-.56.56h0a.56.56,0,0,1,0-1.12Zm6.8,0a.56.56,0,0,1,.56.56h0a.56.56,0,0,1-.56.56h0a.56.56,0,0,1,0-1.12Zm6.8,0a.56.56,0,0,1,.56.56h0a.56.56,0,0,1-.56.56h0a.56.56,0,0,1,0-1.12Zm6.8,0a.56.56,0,0,1,.56.56h0a.56.56,0,0,1-.56.56h0a.56.56,0,0,1,0-1.12Zm6.8,0a.56.56,0,0,1,.56.56h0a.56.56,0,0,1-.56.56h0a.56.56,0,0,1,0-1.12Zm3.47,2.73L104.31,81l-34.2-.12V79.47Zm-63.65.78A29.81,29.81,0,0,1,44.45,82a7.16,7.16,0,0,1,.4,2.52c-2-.06-3.62-2.82-3.25-4.24Zm61.79,1.49-11.3,18.65c-1.91-2.15-4.07-7-11.58-4.69a8.89,8.89,0,0,0-10.45-1l0-13Zm14.38.28L153,105l.07,2.22L116.74,83.76Zm-72.65.36.87.53a44.84,44.84,0,0,0-1.26,12,6.11,6.11,0,0,0-3.45-4.26C45,89,45.68,86.06,45.12,82.36Zm-4.56.33a1.55,1.55,0,0,1,1.07,2.43,1.57,1.57,0,0,1-1.45.72,1.49,1.49,0,0,1-1-2.58A1.78,1.78,0,0,1,40.56,82.68Zm5.73.7a9.25,9.25,0,0,1,2,1.44,43.74,43.74,0,0,0-.27,15,36.94,36.94,0,0,0,26.67,28.74,12.42,12.42,0,0,1,.12,2.48C54,126.14,41.26,104.08,46.29,83.39Zm-2.36,2c.46,0,.76.12.76.44,0,1.66-3.06,4.38-4.9,4.37-1.21,0,.67-3.34,2.39-4.25A4.43,4.43,0,0,1,43.94,85.37Zm6,.49.82.61a1.61,1.61,0,1,0,2.18,1.63l.82.61a2.54,2.54,0,1,1-3.82-2.85Zm1.4,1.21a1,1,0,0,1,.9.9.9.9,0,1,1-.9-.9Zm3.18,2.57,1.56,1.47c-1.19,7.55,3,22,16.88,27.9l.39,2C60.87,116.81,52.51,103,54.52,89.64Zm69.77.59.53.16c.05,19.27,9.69,37.5,28.44,47.51l0,3c-17.15-8.64-27.85-24.82-30.49-43.24L114.4,110.8l-2.25-.85Zm-84.16.59a4.43,4.43,0,0,1,2,1C43.83,93.13,44.94,96,43.72,96c-1.91,0-4.56-3.19-4.11-4.94C39.67,90.88,39.85,90.79,40.13,90.82Zm10.74.31a2.53,2.53,0,1,1-2.54,2.53A2.53,2.53,0,0,1,50.87,91.12Zm5.71.43,1.77,1.76c-.65,8.56,5.89,19.26,13.52,22.44l.78,2.43C63,113.63,55.65,104,56.58,91.56ZM50.87,92a1.61,1.61,0,1,0,1.61,1.61A1.61,1.61,0,0,0,50.87,92Zm0,.71a.9.9,0,1,1-.9.9A.9.9,0,0,1,50.87,92.75ZM39.74,94.9a1.68,1.68,0,0,1,1.45,2.45,1.6,1.6,0,0,1-1.47.91,1.67,1.67,0,0,1-.77-3.12A1.6,1.6,0,0,1,39.74,94.9Zm93.07.07,2.51,1.63c1.08,9.87,6.15,20.62,17.92,29.43,0,0,0,.95-.08,2.66C142.79,122.6,133.5,109.63,132.81,95Zm-73.14.18a1.24,1.24,0,0,1,.55.42c.48.55.51.93.07.93-.77,0-1.43-.74-1-1.19A.4.4,0,0,1,59.67,95.15ZM43.72,97A1,1,0,0,1,44,97c.46.07.56.56.33,1.54-.43,1.83-2.34,3.85-3.33,3.93a.5.5,0,0,1-.56-.44c-.39-1.57,1.36-4.49,3-5l.32-.07Zm7.82.07A2.53,2.53,0,1,1,49,99.57,2.53,2.53,0,0,1,51.54,97Zm9.6.09c.32,0,.58.35,1.08,1.08.32.47.5.85.45,1a5.49,5.49,0,0,1-1.95.84c-1.68-.41-1.87-2.08-.31-2.72a1.49,1.49,0,0,1,.73-.17ZM45,97.73a44.07,44.07,0,0,0,1.72,8.11,7.72,7.72,0,0,0-4-3.35A5.86,5.86,0,0,0,45,97.73Zm6.58.23a1.61,1.61,0,1,0,1.61,1.61A1.61,1.61,0,0,0,51.54,98Zm0,.71a.9.9,0,1,1-.9.9A.9.9,0,0,1,51.54,98.67Zm14.57.11c1.72,0,3.71,1.28,4.05,2.89.38,1.77.09,8.3.09,8.3L68,105.88s0-1.14-.05-1.77c-.09-2.65-.66-3.53-2.21-3.27-.11,0-.67.18-.67.18l-1-1.66s1.07-.47,1.35-.52a3.22,3.22,0,0,1,.71-.06ZM75,99c1.67.08,3.27,1.37,4.08,3.57.36,1.26-.16,16-.16,16H73.54s-.18-.77-.4-1.41c-.37-1.11-1.64-4.29-1.78-4.49-.66-.87-.69-10.42,0-11.5A4.23,4.23,0,0,1,75,99Zm-11.82,1c.42.05.73.49,1.35,1.55.47.8-.94,2-2.18,2.08a1.71,1.71,0,0,1-.37,0c-1.91-.37-1.78-2.39.22-3.33A1.94,1.94,0,0,1,63.17,100Zm78,.24a.12.12,0,0,1,.08,0l1.15.73c-.4.66-1.3,1.54.15,2.37a2.72,2.72,0,0,0,2.54-.62l1.21.83a10.25,10.25,0,0,1-4.05,1.39,1.8,1.8,0,0,1-1-.27c-3.18-2.17-.64-4.32-.07-4.43Zm-57.69.33a4.2,4.2,0,0,1,4.21,3.53c.45,2,0,14.41,0,14.41H79.59s0-14.6.36-15.44a5.48,5.48,0,0,1,2.18-2.18,3.92,3.92,0,0,1,1.34-.33Zm-8.29.71a2.13,2.13,0,0,0-2.35,2.53,2.47,2.47,0,0,0,1.25,1.48c.54.14.6.47.3,1.54a10,10,0,0,0,.5,6.58c.08.28.41.92.54.91-.23-2.69-.32-4.93.95-7.11,1.64-2.83,1.21-5.26-.54-5.8a2.84,2.84,0,0,0-.64-.12Zm68.07.2,1.13.75a4.05,4.05,0,0,1-1.53.66.57.57,0,0,1-.5-.35C142.27,102,143.25,101.51,143.25,101.51Zm-59.36,1.13a2.27,2.27,0,0,0-2.39,2.44,1.58,1.58,0,0,0,.93,1.64c.51,0,1.08.27,1,.52-.31,1.93-2,5.57.13,8.51.11,0,0-.65,0-1.82,0-1.89.17-2.46,1.38-5,1.55-3.23,1.34-5.44-.58-6.16A2.23,2.23,0,0,0,83.89,102.64Zm-30.58.07a2.53,2.53,0,1,1-2.54,2.53A2.53,2.53,0,0,1,53.31,102.71Zm-11.79.41c3.15.19,6.63,3.83,3.6,3.77-2.21,0-5.09-2.59-4.07-3.59a.7.7,0,0,1,.47-.18Zm23.44.11h.17c.35.05.65.42,1.26,1.33s.66,1.15-.07,1.77A3.91,3.91,0,0,1,64,107.42a1.49,1.49,0,0,1-1.39-.76c-.68-1.12,0-2.49,1.68-3.22a2.21,2.21,0,0,1,.63-.21Zm-11.65.4a1.61,1.61,0,1,0,1.61,1.61A1.61,1.61,0,0,0,53.31,103.63Zm93.78.38,1,.74s-1.43.81-2.82,1.45-1.51.83-1.42,1.59c.19,1.47.9,1.42,4.14-.32,1.32-.71,2.28-1.33,2.28-1.33l.72.59c-1.07.7-1.71,1.09-2.88,1.89-1.69.88-2.79,2.07-4.41,1.89-1.42-.16-2.25-2-1.91-3.2C142.57,105.43,145.14,104.8,147.09,104Zm-93.78.33a.9.9,0,1,1-.9.9A.9.9,0,0,1,53.31,104.34Zm39.35.52a4.34,4.34,0,0,1,4,3.48c.31,1.91.13,10.19.13,10.19l-8.42,0s-.13-10.37.46-11.35a4.1,4.1,0,0,1,3.4-2.33h.39Zm56.17.46.94.58a24.18,24.18,0,0,1-4.86,2.39c-.68.12-.4-.57-.08-.75,1.34-.68,2.6-1.42,4-2.22Zm-81.62,1.39c.42.06.78.57,1.32,1.7s-.77,2.31-1.89,2.36a1.24,1.24,0,0,1-.6-.12c-1.34-.64-1.19-2.49.28-3.59A1.27,1.27,0,0,1,67.22,106.71Zm25.27.26a2.06,2.06,0,0,0-.59,3.89c.85.49.86.49.55,1.81-.39,1.64-.45,3.59-.18,3.63A21.78,21.78,0,0,1,94,112.58c1.59-2.65,1.39-4.43-.3-5.32a2.36,2.36,0,0,0-.89-.28,1.89,1.89,0,0,0-.36,0Zm59,.15,1.15.77-2.51,1.67c-3,2-3.39,2.45-3.08,3.34s1.44.76,3.18-.58c2.59-2,2.85-2.12,2.85-2.12v1.18c-2,1.39-4.37,3.84-6.29,3.79a2.42,2.42,0,0,1-1.89-2.85c.28-1,.37-1.16,4.22-3.72A19.88,19.88,0,0,1,151.52,107.12Zm-108.88.11a2,2,0,0,1,.52.13,1.61,1.61,0,0,1,.86,2.23c-.65,1-2.48.84-2.79-.12-.41-1.25.27-2.36,1.42-2.25Zm3.86.4c.47,0,.77.75.89,2.22s-1.83,6.55-2.76,3.46c-.55-1.87.63-5,1.35-5.38a.86.86,0,0,1,.52-.29Zm9.28.38a2.53,2.53,0,1,1-2.54,2.53A2.53,2.53,0,0,1,55.77,108Zm0,.92a1.61,1.61,0,1,0,1.61,1.61A1.61,1.61,0,0,0,55.77,108.93Zm-7.71.14a30.14,30.14,0,0,0,3.56,6.42,8.67,8.67,0,0,0-4.4-1.62A13.55,13.55,0,0,0,48.06,109.07Zm-22.46.36c13.91,5.38,29.75,25.22,29.55,44.23,3.57-5.46,5.58-9.1,8.64-14l2.44,1.16c-4,6-7.83,12.33-11.85,18.18-.46.66-.83,1-.85-.48,0-6.54-2-33.45-28-46.54Zm30.18.2a.9.9,0,1,1-.9.9A.9.9,0,0,1,55.77,109.63Zm13.16.61h.15c.32.06.63.48,1,1.34.6,1.28.41,1.87-.58,1.86a1.69,1.69,0,0,1-1.07-2.93,1,1,0,0,1,.48-.27Zm84.17,2v1.23s-2.66,2.33-2.78,3.2c-.28,2,1.76.82,2.88-.08l-.18,2.12a3.28,3.28,0,0,1-2.2.87c-1.69.07-3.59-2.18-1.88-4a35.6,35.6,0,0,1,4.16-3.33Zm-93.72.57a2.53,2.53,0,1,1-2.54,2.53A2.53,2.53,0,0,1,59.39,112.84Zm45.42.64a4.92,4.92,0,0,1,3.32,2.78c.38.94.54,2.68-.41,2.82-1.25,0-4.15-4.5-3.41-5.42a.59.59,0,0,1,.51-.18Zm5.4.08a1.86,1.86,0,0,1,1.08.19,1.68,1.68,0,0,1-1.15,3,1.66,1.66,0,0,1-.93-2.86A1.76,1.76,0,0,1,110.21,113.57Zm-50.82.19A1.61,1.61,0,1,0,61,115.37,1.61,1.61,0,0,0,59.39,113.76Zm11.23.19a.35.35,0,0,1,0,.7c-.41,0-.59-.24-.49-.5s.22-.2.44-.2Zm-11.23.52a.9.9,0,1,1-.91.9A.9.9,0,0,1,59.39,114.47Zm-11.63.18A4.77,4.77,0,0,1,51.12,116c1.08,1.06.15,1.7-1.23,1.68a4.93,4.93,0,0,1-3-1c-1-.85-1.17-1.51-.37-1.76A4.29,4.29,0,0,1,47.76,114.65Zm16,2.14a2.53,2.53,0,1,1-2.54,2.53A2.53,2.53,0,0,1,63.73,116.78Zm50.37.34c.58,0,1.1.11,1.28.4.34.72-2,2.52-4.18,2.54-.64-.06-1.71.06-2-.54-.28-.76,1.27-2.07,3.25-2.32.4,0,1-.09,1.61-.07Zm-61.63.49c.25,0,.46.31.82,1,1,2,.24,5.64-.77,5.63-.21,0-.43-.16-.65-.52-.94-1.57-.9-4.8.08-5.81C52.15,117.73,52.32,117.61,52.46,117.61Zm11.26.1a1.61,1.61,0,1,0,1.61,1.61A1.61,1.61,0,0,0,63.73,117.71Zm52.77.24c.89-.1,2.45,2.48,2.44,4.62,0,1.21-.29,1.92-.74,1.94a.76.76,0,0,1-.5-.21,5.88,5.88,0,0,1-1.68-5.81C116.12,118.13,116.29,118,116.49,117.94Zm-67.76.44a1.45,1.45,0,0,1,1.44.79,1.51,1.51,0,0,1-1.29,2.25,1.55,1.55,0,0,1-.75-.18,1.47,1.47,0,0,1-.37-2.36A1.69,1.69,0,0,1,48.73,118.38Zm15,0a.9.9,0,1,1-.9.9A.9.9,0,0,1,63.73,118.41Zm39.59.45c0-.12,8.77,2.61,12.62,5.47a39.7,39.7,0,0,1,12.77,14.35,41.6,41.6,0,0,1,4,11.2,47.51,47.51,0,0,1-.33,17l-1.93-1.54c3.35-19.07-6.23-38.32-26.87-44.08ZM54.41,119a27.16,27.16,0,0,0,4.22,4.4,13.11,13.11,0,0,0-4.5-.12A13.91,13.91,0,0,0,54.41,119Zm60.62.48a5.78,5.78,0,0,0,1.14,4.27,48.23,48.23,0,0,0-5.91-3.22A6,6,0,0,0,115,119.52Zm5.95.13a1.62,1.62,0,0,1,1.58,2.38,1.77,1.77,0,0,1-2.35.63,1.51,1.51,0,0,1-.07-2.73,1.65,1.65,0,0,1,.83-.27Zm-52.17.44a2.53,2.53,0,1,1-2.54,2.53A2.53,2.53,0,0,1,68.81,120.09Zm0,.92a1.61,1.61,0,1,0,1.61,1.61A1.61,1.61,0,0,0,68.81,121Zm-43.17.12c12.07,8.13,18.76,19.16,20.06,33.61L43.22,153c-1.16-11.43-7.73-21.85-17.63-29.08Zm56.73,0h13.4v2.92l4.1-2,0,6.33-4.06-2.27v2.53H82.37v-2.88l-4,2.06v-6.36l4,2.42Zm-13.56.55a.9.9,0,1,1-.9.9A.9.9,0,0,1,68.81,121.71Zm5,.71.15.91a1.61,1.61,0,0,0,.42,3.16h.11l.16.91a1.94,1.94,0,0,1-.27,0,2.52,2.52,0,0,1-.57-5Zm30.83.25a2.53,2.53,0,0,1,.13,5h-.05l-.16-.92h.08a1.61,1.61,0,1,0-.61-3.1l-.16-.92a2.52,2.52,0,0,1,.76-.12Zm17.9,1c1.9.06,3.77.86,2.82,1.73a5.28,5.28,0,0,1-3.25.94,4.88,4.88,0,0,1-2-.37c-1.31-.62-1.28-1,.12-1.84A4.61,4.61,0,0,1,122.5,123.72Zm-66.21.1a7.68,7.68,0,0,1,2.81.68c1.28.57-.48,2.07-2.42,2.06-3.13,0-4.43-1.81-1.86-2.57A4.66,4.66,0,0,1,56.29,123.81ZM74,124l.29,1.75A.9.9,0,0,1,74,124Zm30.56.27a.9.9,0,1,1,0,1.8l-.2,0-.28-1.64a.89.89,0,0,1,.48-.14Zm5.4.5a2.53,2.53,0,1,1-2.54,2.53A2.53,2.53,0,0,1,110,124.8Zm16.25.67c.5,0,1,.8,1.45,2.27.5,1.75-.46,4.67-1.53,4.66-1.41,0-1.79-4.35-.57-6.43C125.8,125.62,126,125.46,126.25,125.47Zm-65.74.09c.92,0,2.17,2.54,2.15,5,0,1-.07,1.39-.29,1.41a1,1,0,0,1-.58-.14c-1.53-.75-2.65-4.26-1.85-5.82C60.1,125.7,60.29,125.56,60.51,125.56Zm49.49.16a1.61,1.61,0,1,0,1.61,1.61A1.61,1.61,0,0,0,110,125.72Zm0,.71a.9.9,0,1,1-.9.9A.9.9,0,0,1,110,126.43Zm-47.2.31a25.89,25.89,0,0,0,4.84,2.69,12,12,0,0,0-4,1.43C63.38,129.44,63.15,128,62.8,126.74Zm57.24.17a9.33,9.33,0,0,0,4.16.07,10.71,10.71,0,0,0,.11,4.29A33.21,33.21,0,0,0,120,126.91Zm-62.46.27A1.59,1.59,0,0,1,59,129.44a1.53,1.53,0,0,1-1.4,1,1.56,1.56,0,0,1-1.66-1.59,2.19,2.19,0,0,1,.86-1.44A1.71,1.71,0,0,1,57.57,127.17Zm57.25,1a2.53,2.53,0,0,1,.13,5.05h-.13a2.53,2.53,0,1,1,0-5.05Zm15.42.33a1.51,1.51,0,0,1,.72.21,1.69,1.69,0,0,1-.1,2.89,1.48,1.48,0,0,1-.8.19c-1.39,0-2.4-1.95-1.09-2.93A2,2,0,0,1,130.24,128.47Zm-15.42.59a1.61,1.61,0,1,0,1.61,1.61A1.61,1.61,0,0,0,114.82,129.06Zm-9.68,0c12.25,4.16,20.73,16.78,19.21,31.27l-1.72-1.48c1.48-20.18-16.27-27.84-16.75-27.51Zm9.68.67a.9.9,0,1,1-.9.9A.9.9,0,0,1,114.82,129.76Zm-47,.45c.9,0,1.6.27,1.6.69,0,1.12-2.43,2.12-4.28,2.15a2.55,2.55,0,0,1-1.73-.46c-.45-.41.23-1.2,1.6-1.86a6.32,6.32,0,0,1,2.81-.52Zm-39.56.07a2.57,2.57,0,0,1,.48.05,2.22,2.22,0,0,1,1.59,1.61c.55,2.32-1.7,3.53-3.45,5.08l-1.45,1.29v-1.49c1-1.07,2.34-1.9,3-3.22.53-1.1-.82-1.68-2-.82l-1,.75V131.7A4.5,4.5,0,0,1,28.23,130.28Zm42.45.81c1.28,0,3.58,3,3.42,5-.32,1.4-2.66-.75-3-1.06-.8-.85-1.41-3.3-.94-3.77A.64.64,0,0,1,70.68,131.1Zm10.86.13h8.29a74.35,74.35,0,0,1,0,9.86,4.12,4.12,0,0,1-4.08,3.51A4.22,4.22,0,0,1,82,142.45a8.66,8.66,0,0,1-.46-3.34Zm9.08,0h8.23l-.14,14.1a3.61,3.61,0,0,1-.48,2.41,4.12,4.12,0,0,1-3.09,1.66,4.73,4.73,0,0,1-4.57-3.72c-.2-1,.06-14.46.06-14.46Zm14.24,0,2.93,7.23a7.06,7.06,0,0,1,.09,1.2c-.19,2.32-.07,4.9-.15,7a4.54,4.54,0,0,1-4.35,4,3.63,3.63,0,0,1-4-3.86c-.15-4.74.11-15.56.11-15.56Zm14.32.82a2.53,2.53,0,0,1,.13,5.05h-.13a2.53,2.53,0,1,1,0-5.05Zm-12.81.27c.75-.1,16.6,7.09,15.67,26l-1.66-1.93c-.32-16.94-13.74-22.16-13.61-22.21Zm22.84.16a5.32,5.32,0,0,1,3.62,1.65c.82.75.53,1.15-1,1.32a5.42,5.42,0,0,1-.61,0c-3.06,0-6.29-2.41-3.48-2.88a7.44,7.44,0,0,1,1.44-.12Zm-10,.49a1.61,1.61,0,1,0,1.61,1.61A1.61,1.61,0,0,0,119.19,133Zm-33.31,0c-.06,0-.1.28-.05.8a8.57,8.57,0,0,1-1.17,3c-2.16,3-1.6,5.77.79,5.8,2.17,0,3-3.19.64-3.87-.67-.36-.61-.54-.17-2.14a7.13,7.13,0,0,0,.21-2.92c-.09-.48-.18-.72-.25-.7Zm-17.27.15a1.2,1.2,0,0,1,.76.18c1.54,1.07.41,3.15-1,3.22a1.67,1.67,0,0,1-1-2.9A2.09,2.09,0,0,1,68.61,133.13Zm50.58.54a.9.9,0,1,1-.91.9A.9.9,0,0,1,119.19,133.67ZM94.82,134c-.1,0,0,.59.08,1.66a8.34,8.34,0,0,1-1.44,5.1c-1.32,2.18-3.14,5.74,1,6.38l.18,0c1.79.06,3-3.24.68-4-.52-.33-.61-.77-.28-1.39a9.52,9.52,0,0,0,.8-3.63,13.75,13.75,0,0,0-.64-3.26A2.87,2.87,0,0,0,94.82,134Zm-63.44.62c2.31-.2,3.62,2.94,1.29,4.63a62.06,62.06,0,0,1-5.43,3.4l-.72-.45s.37-.33,3-2.28c2.16-1.57,2.47-2,2-2.88-.36-.71-1.15-.62-2.25.22-1.52,1.16-3.94,3.13-3.94,3.13V139c1.57-1.26,3.43-3.3,4.93-4.12A2.94,2.94,0,0,1,31.38,134.58Zm95.51.14c1.43,1.34,3,1.28,4.54,1.48L130,140.1a31,31,0,0,0-3.07-5.37Zm-24.21.5c-.11,0,0,.51.3,1.24.52,2.18.26,3.77-1,6.3-1.13,2.13-2.22,5.4,1.36,6a1.65,1.65,0,0,0,.34,0c1.66-.08,2.61-2.76.9-4-.71-.53-.73-.63-.35-2.42a9.55,9.55,0,0,0-1-6.4c-.29-.49-.45-.7-.52-.71Zm5.35.1a1.13,1.13,0,0,1,.56.08c.61.25.33,1-.38,1a.58.58,0,0,1-.56-.83.45.45,0,0,1,.38-.25Zm25.46.39c1.16-.17,1.27,3-.08,5.14-.65,1-1.19,1.54-1.59,1.55s-.71-.66-.7-2a5.73,5.73,0,0,1,1.81-4.44A1.18,1.18,0,0,1,133.5,135.71Zm-24.14.94a1.56,1.56,0,0,1,.22,3.08.84.84,0,0,1-.74-.38c-.7-1-.83-1.85-.34-2.33a1.23,1.23,0,0,1,.87-.37Zm13.53.12a2.53,2.53,0,1,1-2.54,2.53A2.53,2.53,0,0,1,122.89,136.77Zm0,.92a1.61,1.61,0,1,0,1.61,1.61A1.61,1.61,0,0,0,122.89,137.69Zm-92.36.08c.29,0,.43.13.23.44a51.78,51.78,0,0,1-4.66,3.53,3.56,3.56,0,0,1-.47-.35c1.76-1.34,2.48-2.05,4.25-3.36a1.48,1.48,0,0,1,.64-.26Zm92.36.63a.9.9,0,1,1-.9.9A.9.9,0,0,1,122.89,138.4Zm-88.05.65c2,0,2.86,2.4,1.51,4.11-1.29,1.28-2.66,1.69-4.35,2.57l-1.18-.8s.72-.33,1.57-.78c2.3-1.22,3-2.12,2.17-2.93a1,1,0,0,0-1.22-.18,34.81,34.81,0,0,0-4.57,2.56l-.88-.6s3.52-2.48,5.43-3.54a3.34,3.34,0,0,1,1.54-.41Zm77.19.23a1.76,1.76,0,0,1,1.09,3.06c-.7.68-1.19,1-1.6,1.08s-.91-.48-1.42-1.59-.12-1.73,1.43-2.4A1.52,1.52,0,0,1,112,139.29Zm23.72.21c.89,0,1.92.59,1.92,1.31a1.83,1.83,0,0,1-1.43,1.73l-.29,0a1.61,1.61,0,0,1-1-2.85A1.4,1.4,0,0,1,135.75,139.5Zm-27.41.29,2.15,3.92c0,1.11-.16,2-.07,3.06a2.37,2.37,0,0,0,3.3,2.26l.92,1.49a5.38,5.38,0,0,1-1.94.42,4.2,4.2,0,0,1-4.4-4.19,58.74,58.74,0,0,1,0-7Zm-74.56,2.13a.15.15,0,0,1,.12.09c.11.06,0,.56-.7,1a29.13,29.13,0,0,1-3,1.64l-.64-.43,2-1.16A8.51,8.51,0,0,1,33.78,141.92Zm91.65.14a2.53,2.53,0,1,1-2.54,2.53A2.53,2.53,0,0,1,125.42,142.06Zm-100.11.31,36.62,23.52-1.23,1.84L25.31,144.53Zm89.22.21h.27c1.51.15,2.17,2.4.43,3.56a3.26,3.26,0,0,1-1.56.69c-.45,0-.78-.27-1.18-.86-1.09-1.63-1-2,1.14-3.12a2.15,2.15,0,0,1,.89-.28Zm18.82.18c3,.18,6.36,4,3.53,4-2.36,0-6-3.38-4.25-3.87A2.91,2.91,0,0,1,133.35,142.76Zm-7.93.22a1.61,1.61,0,1,0,1.61,1.61A1.61,1.61,0,0,0,125.42,143Zm0,.71a.9.9,0,1,1-.9.9A.9.9,0,0,1,125.42,143.69Zm-48.88.39,1,2L59.51,174.8l-1.67-1.05Zm55.2.33a10.89,10.89,0,0,0,3.71,3.21c-.94,1.39-2,2.78-2.06,4.17A28.05,28.05,0,0,0,131.75,144.42Zm-95.15.26a2.18,2.18,0,0,1,2.14,1.9c.3,1.33-.12,2-1.11,3l-1.36-.87s.29-.45.44-.71c.77-1.32-.54-2.1-2.36-1.4a3.78,3.78,0,0,0-.61.31l-1.12-.76s.81-.44,1.69-.87a4.92,4.92,0,0,1,2.28-.58Zm79.87,1.78a1.5,1.5,0,0,1,1.54,1c.56,1.09-1,2.47-2.22,2.48a1.22,1.22,0,0,1-.91-.35c-1.24-1.25-1.24-2.08,0-2.64a4.69,4.69,0,0,1,1.56-.46Zm21.58.7c.51.07.57.62.3,1.86-.39,1.84-2.42,3.92-3.69,3.94a.94.94,0,0,1-.37-.06c-1.19-.46,1.39-5.18,3.1-5.66a1.71,1.71,0,0,1,.66-.08Zm-102.72,0a.89.89,0,0,1,.63.13c.3.37-.6.86-.6.86l-.74-.5a1.14,1.14,0,0,1,.71-.49Zm43.61.5,2.59,2L63.85,177.46l-2.7-1.6Zm48.11.12a2.53,2.53,0,1,1-2.54,2.53A2.53,2.53,0,0,1,127.06,147.8Zm0,.92a1.61,1.61,0,1,0,1.61,1.61A1.61,1.61,0,0,0,127.06,148.72Zm0,.71a.9.9,0,1,1-.9.9A.9.9,0,0,1,127.06,149.42Zm-41.18.21c2.6,3.55,5.51,6.61,11.86,4.54,3.31,2.55,6.82,2.95,10.55.78l0,12.92-33.86.06Zm-60.5.4,33,21.27-1.32,2L25.36,152.86Zm92.68,0a1.3,1.3,0,0,1,1.29,1.85c-.28.73-.74,1.1-1.25,1.1a1.75,1.75,0,0,1-1.24-.69c-1.09-1.23-1.08-1.58.07-2a2.74,2.74,0,0,1,1.14-.22ZM139,151.39a1.54,1.54,0,0,1,1.48,1.35,1.74,1.74,0,0,1-1.21,1.73,1.57,1.57,0,0,1-1-3,1.76,1.76,0,0,1,.77-.13Zm-11.22,2.08A2.53,2.53,0,1,1,125.2,156,2.53,2.53,0,0,1,127.74,153.47Zm7.31.34a4.4,4.4,0,0,1,2.7,1.28c1.85,2,2,3.63.83,3.7a3.36,3.36,0,0,1-1.89-.73c-1.27-.85-2.7-3.48-2.2-4.06A.72.72,0,0,1,135,153.8Zm-16.21,0a.94.94,0,0,1,.68.23c.45.45.21,1.3-.34,1.3-.2,0-1.16-1.39-1.16-1.39a2.81,2.81,0,0,1,.83-.14Zm8.9.55a1.61,1.61,0,1,0,1.61,1.61A1.61,1.61,0,0,0,127.74,154.39Zm6,.3a6.88,6.88,0,0,0,3.31,4.61,15.3,15.3,0,0,0-3.37,3,66.75,66.75,0,0,0,.07-7.6Zm-6,.41a.9.9,0,1,1-.9.9A.9.9,0,0,1,127.74,155.09Zm-.16,4.35a2.52,2.52,0,0,1,1.29,4.69l-.77-.65A1.61,1.61,0,1,0,126,161.7l-.77-.66a2.53,2.53,0,0,1,2.36-1.6Zm11.38.1c.32,0,.4.38.32,1.06-.18,1.64-1.32,2.84-3.3,3.47a5.39,5.39,0,0,1-1.42.27c-.74,0-.82-.56-.23-1.58a7.21,7.21,0,0,1,3.77-3,1.79,1.79,0,0,1,.85-.21Zm-11.38,1.53a.9.9,0,1,1-.25,1.76l-.56-.48a.88.88,0,0,1-.09-.38.9.9,0,0,1,.9-.9Zm10.69,3a1.55,1.55,0,0,1,1.25,2.54,1.65,1.65,0,0,1-2.54,0,1.62,1.62,0,0,1,.44-2.32A1.55,1.55,0,0,1,138.26,164Zm-3.94,1.12c.78.05,2,1.3,2.76,3,.52,1.08.65,1.58.3,1.6a3.72,3.72,0,0,1-1.43-.6c-1.75-1-2.85-3-2.1-3.79A.58.58,0,0,1,134.32,165.15Zm-1.14.12a10.26,10.26,0,0,0,.34,2.66l-.9-.77A9.82,9.82,0,0,0,133.18,165.27Zm-2.45,1.19a63.82,63.82,0,0,0,7,4.72s-4.49,3-7,4.54Zm-70.5,2.22.28.16-1.35,2.09-.27-.19Zm13.4.14,34.53,0v1.75H72.56Zm-1.49,2.52H75v2.93H71.64V172.2Zm6.4.06h3.24v2.93H78.54Zm6.78,0h3.28v2.93H85.32Zm6.81,0h3.25v2.93H92.13Zm7,0h3.16v2.93H99.13Zm6.52,0h2.6v2.93h-2.6Zm-28.82.85a.56.56,0,0,1,.56.56h0a.56.56,0,1,1-.56-.56Zm6.8,0a.56.56,0,0,1,.56.56h0a.56.56,0,1,1-.56-.56Zm6.8,0a.56.56,0,0,1,.56.56h0a.56.56,0,1,1-.56-.56Zm6.8,0a.56.56,0,0,1,.56.56h0a.56.56,0,1,1-.56-.56Zm6.8,0a.56.56,0,0,1,.56.56h0a.56.56,0,1,1-.56-.56ZM69.7,175s25,.24,38.55.22v1.64c-16.62-.06-39.52,0-39.52,0Zm33.44,3.82a4.34,4.34,0,0,1,3.71,2.14c1.14,2,.94,5.17-2.87,5.87-2.24.23-4.53-1.53-3.34-4.36,1.33-2.1,4.91-.93,3.86,1.78-.79,1-2.45.13-1.91-1,.27-.57,0-.92-.4-.52-1.3,1.27.84,3.44,2.29,2.35,2.36-1.77-.55-5.67-3.3-4-.84.51-2.35,3.37-2.92,5.45a4.76,4.76,0,0,1-1,2.29,3.38,3.38,0,0,1-1.54,1c-.28,0-.38-.21-.15-.81,1.07-4.32,3.46-8.85,5.34-9.68A5.33,5.33,0,0,1,103.14,178.84Zm11.68.26c2.43,0,4.36,1.65,4.42,4.78-.08,4.53-5.49,5.78-7.13,1.65-.74-1.87,1.27-4.67,3-4.2s2.49,3.2,1,3.87a1.19,1.19,0,0,1-1.72-1.3c.07-.35.05-.4-.15-.36-.9.17-.43,2,.64,2.42,2,.85,3.53-1.85,2.18-3.86-1.63-2.41-4.18-1.95-5.65,1a9.21,9.21,0,0,1-1.06,1.61,14.15,14.15,0,0,0-2,2.79,11.81,11.81,0,0,1-.89,1.47,5.57,5.57,0,0,0-1.36.08,4.75,4.75,0,0,1,.25-1.29c1.26-3.76,4.21-7.48,6.65-8.4a5.88,5.88,0,0,1,1.74-.3Zm-21.2,1.05,2.12.09a49.43,49.43,0,0,0-3.26,8.23,11,11,0,0,1-1.61-.72A56.45,56.45,0,0,1,93.62,180.15Zm3.71,0a3.17,3.17,0,0,1,1.44.16,29.85,29.85,0,0,0-3.85,8.31c-.35,1.13-.52,1.69-.76,1.7a4.39,4.39,0,0,0-1.09-1.48,35,35,0,0,1,3.35-8.59,8.56,8.56,0,0,1,.91-.1Zm-62.92.24a5.12,5.12,0,0,0-5.08,5.3c0,2.16,1,4.78,3.11,7.65a8.8,8.8,0,0,1,.85,1.39s-2.92,4.15-4,6l4,5.72c-3.18,4.76-3.82,5.82-3.91,8.74a5.47,5.47,0,0,0,5.52,5.39c3.61.12,5.41-3.27,5.33-5.64-.56-3.51-1.35-4.19-3.92-8.5l4.15-6.07L36,194.68s.69-.8,1.09-1.38c2-2.85,3-5.52,2.83-7.7a5.47,5.47,0,0,0-4.11-5A6.49,6.49,0,0,0,34.41,180.41Zm.22.33a5.26,5.26,0,0,1,5,4.86c.2,2.7-1.55,5.32-2.9,7.37-.57.86-1.07,1.68-1.07,1.68l4.39,5.75c-1.34,2.12-3,4.19-4.27,6l1.26,2c2.41,3.79,3.08,5.74,2.71,7.84-.78,2.9-2.74,4.2-4.93,4.06-3.63-.28-5.55-3-5.07-6.42.49-3.29,3.47-6.36,3.95-7.42a67.05,67.05,0,0,0-4.13-5.61c1.15-2.07,4.1-6.1,4.1-6.1a5.75,5.75,0,0,0-.36-.6c-3.09-4.36-3.94-6.42-3.73-9a4.84,4.84,0,0,1,3.84-4.28,5.59,5.59,0,0,1,1.18-.09Zm-.21,1.92a3.21,3.21,0,0,0-3.17,3c-.32,2.2,1.67,5.13,3.3,7.28,0,0,4.18-4.56,3.22-7.95A3.42,3.42,0,0,0,34.42,182.66Zm.2.69c1.83,0,3.62,2.26,2.17,5.19a40.57,40.57,0,0,1-2.23,3.55s-1.2-1.73-2-3.27-1.25-5.43,2.11-5.47Zm65.1,1.37s0,0,0,0a7,7,0,0,0,1.13,1.94c.11.38-.22.75-.37,1.09a1.74,1.74,0,0,1-1.44,1.13c-.38,0-.67-.25-.67-.78a10.35,10.35,0,0,1,.93-2.74,4.39,4.39,0,0,1,.39-.65Zm11.31.47c.19,0,.34.32.64.93.4.8.41.77-.72,2.17-.61.75-.88,1.16-1.16,1.19a3.15,3.15,0,0,1-1.36-.43c-.07-.54.61-1.68,1.73-3,.46-.56.68-.83.87-.82Zm-5.13,2a8.21,8.21,0,0,1-.54,2.22,21.44,21.44,0,0,1-1.84,2c-.19.14-.46-.46-.61-.83a3.93,3.93,0,0,1,1-2.62A19.38,19.38,0,0,0,105.89,187.13Zm-4.35.06c.26.09,1,.37,1.44.5.3.08-.1.73-.28,1.09s-.42.75-.61.82-.49-.09-.66-.15-.6-.38-.56-.7a2.85,2.85,0,0,1,.68-1.55Zm11.24.54a.9.9,0,0,1,.94.81,10.32,10.32,0,0,1-1.88,2.56c-.51-.58-1-1.08-1-1.44,0-.52.65-1.17,1.12-1.63A1.07,1.07,0,0,1,112.77,187.73Zm-23,.74c2.26,0,4.36,1.86,4.15,3.58a6.74,6.74,0,0,0,.19,4.09,3,3,0,0,1,.37,1.3c0,1.4-1.18,3.56-3.76,8.91a50.32,50.32,0,0,0-2.61,7.34c-.2.61-.1.79-.33.87a2.88,2.88,0,0,1-1.86,0c-.35-.24,1.3-4.48,4.15-10.36,3.55-7.34,3.74-12.48.54-13.74-2.52-1-5.06,1.78-3.5,3.79a1.81,1.81,0,0,0,2.92,0c.3-.55-.12-1.18-.66-.41-.79,1.12-2.36-.17-2-1.5a2.37,2.37,0,0,1,2.33-1.48c3.49.69,2.83,5.6-.79,5.87-5.58-.48-4.55-8.18.83-8.32Zm9.26,1a4.53,4.53,0,0,1,3.06,1.31,5.21,5.21,0,0,1,1.3,3,8.81,8.81,0,0,1,0,2.33c-.32,2.45-2.11,6-3.69,9.05-1.21,2.51-2.17,5.83-3.27,8.5-.31.23-2,.44-1.94.08a50.13,50.13,0,0,1,4.14-10.42c.91-1.81,1.75-3.54,1.86-3.84l.67-1.79c1.64-3.51-.12-6.27-2.3-6.46-3.39-.28-3.71,4.45-1.32,4.91a1.51,1.51,0,0,0,1.9-1.38c.06-.54-.6-1.17-.59-.39,0,1.41-1.94,1.35-2.19.15-.47-2.33,2.19-3.48,3.77-1.64a2.76,2.76,0,0,1,.53,2.39,3.11,3.11,0,0,1-5,2,4.29,4.29,0,0,1,2-7.71,3.85,3.85,0,0,1,1.07-.12Zm8.78.34a4.86,4.86,0,0,1,4.39,4c.49,2.35,0,4.5-2.31,8.13a45.32,45.32,0,0,0-4.37,8.85,4.92,4.92,0,0,1-.57,1.2,2,2,0,0,1-1.21.41.8.8,0,0,1-.67-.2c-.07-.65,1.69-4.81,2.78-6.74.33-.59.66-1.36,1-2a37.15,37.15,0,0,0,3.47-8.15c.68-2.78-2.5-4.88-4.16-2.86-1,1.22,0,3.42,1.55,2.81.53-.21.31-.45-.41-.51-1.19-.1-1.28-1.93,0-2.33a1.94,1.94,0,0,1,2.43,2,2.75,2.75,0,0,1-4.55,2.09,3.79,3.79,0,0,1,.62-6.22,4,4,0,0,1,2-.43Zm-15.65,5.68s-.12,1-.21,1.57c-.28,1.83-1,3.81-2.69,7.24a75.06,75.06,0,0,0-3.65,8.66c-.23.7-.33,1.41-.71,1.67a2.43,2.43,0,0,1-1.71.14c-.5-.42.75-3.52,3-8.2a48.34,48.34,0,0,0,3.11-7.2,11.06,11.06,0,0,1,.47-1.86A6.05,6.05,0,0,0,92.12,195.48Zm-57.32.84-3.28,4.22L34.71,205l3.46-4.38C37.17,199.14,34.8,196.32,34.8,196.32Zm69.67.49c.22,0,.52.25,1,.69s.22,1.17-1.55,4.77a78,78,0,0,0-4.15,9.23c-.19.62-.35,1.38-.76,1.62a2.18,2.18,0,0,1-1.56.27c-.18-.06.75-3,2.07-6.09s3.34-6.82,4.41-9.95c.17-.38.31-.57.54-.55Zm4,.76c.61,0,.35.55-.72,2.7a77.29,77.29,0,0,0-5.08,11.12,3.25,3.25,0,0,1-.64,1.24c-.16.09-1.43.46-1.85.08a51.39,51.39,0,0,1,2.85-7c1-2.07,2-4.36,3-6.5.56-1.32.58-1.32,1.53-1.51a5.42,5.42,0,0,1,.91-.15ZM95.72,198a2,2,0,0,1,.68.26c.85.45.6,1.18-1.41,5.16a61.74,61.74,0,0,0-4,9.9,1.36,1.36,0,0,1-.58,1,3.34,3.34,0,0,1-1.57.16c-.53,0,.69-3.88,2.22-7.17,1.16-2.52,2.75-5.75,3.93-8.75.24-.4.42-.56.72-.53Zm4,.35c.59.08,0,1.17-1.64,4.53-1.36,2.74-1.75,3.51-2.46,5.18-.52,1.22-1.28,3.32-2,5.27-.06.16-.11.51-.27.59a2.21,2.21,0,0,1-1.69.08c-.28-.37,1.56-5.57,4.41-11.44.61-1.25,1-2.38,1.63-3.66a5.79,5.79,0,0,1,2-.56Zm-64.84.33,1.54,1.8-1.74,2-1.43-1.85Zm-.09,1-.59.91.59.92.59-.92Zm-.11,8.37c-2.41,2.76-3.94,5.85-3,8a3.71,3.71,0,0,0,3.29,2.23,3.57,3.57,0,0,0,3.13-2.45C38.79,213.23,36,209.18,34.69,208.1Zm0,.9s.89,1.11,1.43,1.94c2.17,3.39,1.61,6-1.06,6.51a3.44,3.44,0,0,1-.51,0c-2.43-.05-3.34-2.93-1.46-6.2A20.56,20.56,0,0,1,34.73,209Zm70.16,4.55c-15.39,3.18-28.33,4-41.94,1l-9.72,14.69,60.4.07c-2.28-4.27-8.75-15.78-8.75-15.78Zm-.56,1.14,7.3,13.77h-2.78l-5.46-11.2L94,219.14l1.61,9.3-2.66,0-1.35-8.94-13.84.35-1.79,8.63-2.55,0,1.83-8.77-11-1.47-5.36,10.27H55.22l8.15-12.68a96.81,96.81,0,0,0,41-1.09Zm-2.62,4.93a3.73,3.73,0,0,1,.57,0c1.49,2.6,3,6.36,4.1,8.84H98.27l-1.95-7.56a20.06,20.06,0,0,1,5.4-1.28Zm-36.36,1,7.19,1-1.42,6.84H61.6Zm24.43,1,.94,6.76H78.36L79.42,222Z"/>
  </g>
  <path d="M130.7,223.29c7.38-10.53,15.28-16.58,15.41-24.79,0-2.66-1.39-7.18-5.9-8-2.92-.56-6.94,1.81-7,6.61,0,1-1,.93-1-.38a27.27,27.27,0,0,1,3.35-11.79h-9.67a27.26,27.26,0,0,1,3.35,11.79c0,1.31-1,1.34-1,.38-.08-4.8-4.11-7.17-7-6.61-4.5.87-5.94,5.38-5.9,8C115.43,206.71,123.32,212.77,130.7,223.29Z"/>
  <path d="M47.88,26.16C55.26,36.68,63.16,42.74,63.29,51c0,2.66-1.39,7.18-5.9,8-2.92.56-6.94-1.81-7-6.61,0-1-1-.93-1,.38a27.27,27.27,0,0,0,3.35,11.79H43A27.26,27.26,0,0,0,46.4,52.76c0-1.31-1-1.34-1-.38-.08,4.8-4.11,7.17-7,6.61-4.5-.87-5.94-5.38-5.9-8C32.6,42.74,40.5,36.68,47.88,26.16Z"/>
</svg>
