<svg xmlns="http://www.w3.org/2000/svg" viewBox="0 0 178.58 249.45">
  <title>S12</title>
  <path d="M164.81,209.47c3.45-4.39,7.14-6.91,7.2-10.33a3.32,3.32,0,0,0-2.76-3.35,2.86,2.86,0,0,0-3.28,2.75c0,.4-.47.39-.47-.16a10.45,10.45,0,0,1,1.57-4.91h-4.52a10.45,10.45,0,0,1,1.57,4.91c0,.55-.47.56-.47.16a2.86,2.86,0,0,0-3.28-2.75,3.32,3.32,0,0,0-2.76,3.35C157.67,202.56,161.36,205.08,164.81,209.47Z"/>
  <path d="M13.77,40c3.45,4.39,7.14,6.91,7.2,10.33a3.32,3.32,0,0,1-2.76,3.35,2.86,2.86,0,0,1-3.28-2.75c0-.4-.47-.39-.47.16A10.45,10.45,0,0,0,16,56H11.51a10.45,10.45,0,0,0,1.57-4.91c0-.55-.47-.56-.47-.16a2.86,2.86,0,0,1-3.28,2.75,3.32,3.32,0,0,1-2.76-3.35c.06-3.42,3.75-5.95,7.2-10.33Z"/>
  <path d="M170.62,220.71h2.21v3h-2.21s0,1.62-.08,4.48c-.14,6.09-.29,7-2.05,8.72-3.48,3.31-9.32.61-9.25-4.37.1-7,0-13.74.23-14.69.37-1.67.4-1.77.25-2.07-.31-.61-2.94-.88-2.94-.71v-3a5.45,5.45,0,0,1,4.46,1.18,6.62,6.62,0,0,1,6.5-.8c1.85.87,3.25,3.12,2.88,8.22h0Zm-7.46-5.25c1.09,1.58,2.93,3.74,4.66,4.5.11-1.82,0-3.34-.69-4.16a2.54,2.54,0,0,0-4-.34Zm-.91,17.38c.81,2.3,2.9,3.08,4.42,1.64,1-.89,1.1-1.84,1.13-7,0-3.16,0-4.48,0-4.48-3-1-5.74-4.42-5.71-4.37l-.07,9.54a26.74,26.74,0,0,0,.23,4.63h0Z"/>
  <path d="M8,28.73H5.75v-3H8s0-1.62.08-4.48c.14-6.09.29-7,2.05-8.72,3.48-3.31,9.32-.61,9.25,4.37-.1,7,0,13.74-.23,14.69-.37,1.67-.4,1.77-.25,2.07.31.61,2.94.88,2.94.71v3a5.45,5.45,0,0,1-4.46-1.18,6.62,6.62,0,0,1-6.5.8C9,36.08,7.58,33.83,8,28.73H8ZM15.42,34c-1.09-1.58-2.93-3.74-4.66-4.5-.11,1.82,0,3.34.69,4.16A2.54,2.54,0,0,0,15.42,34Zm.91-17.38c-.81-2.3-2.9-3.08-4.42-1.64-1,.89-1.1,1.84-1.13,7,0,3.16,0,4.48,0,4.48,3,1,5.74,4.42,5.71,4.37l.07-9.54a26.74,26.74,0,0,0-.23-4.63h0Z"/>
  <path d="M96.92,20.51,78.14,54.78a92.89,92.89,0,0,0-9.78-3.15c5.09-13.28,0-30.81,0-30.81S96.93,20.54,96.92,20.51ZM148.38,79c1.07,14.55-.62,26.9-1.29,40.26,0,.19,6.1,4,6.1,4l-14.44,8.15c-1.44-.75-2.26-.62-2.6.77,1.46,5,1.74,9.76-1.59,13.86-2.5,3-8.21,1.46-9.87,1.47-1.29,0-4.37,10.24.83,13.26,1.1.64,1.62-6,2.38-8.75,3.35,2,9.53,3.61,10.36,7.06.42,1.91-5.65,5.59-4.46,7.75,1.74,3.14,6.23,7.84,8.15,6.55,1.82-1.64,6.15-5,6.12-7.3-1.35-4.12-4.79-4.41-6.6-8.3a52.77,52.77,0,0,0-3.78-4.38c1.25-1.91-.77-5.25-.87-4.74l15.75,6.87s-3.61-27.21.2-31.24c.4-.43-3.37,1.07-3.44.83-1.15-1.45-13.87-9.56-17.51-12.47-6.47,9-8.83,13-17.16,21-1.83,1.51-5.91,4.28-8.24,7.6a11.72,11.72,0,0,0-2.31,8c.44,3,.7,5.08,2.56,7.49,4.3,5.56,11.13,10.86,11,11l-2.34,1.9s-8.43-7-12-12.12a16.5,16.5,0,0,1-2.43-8.22,55.72,55.72,0,0,1-6,0c-.14,0-20.73-18.75-20.73-18.75l38.89-.15c7.26-6.86,11.15-12.69,18.06-22.54.41.18,12.6,9.83,12.09,8.75,0,0-2.92-26.43-1.62-36.1.89-8.21,2.11-17,2.66-24.61-1.73.38-4.28.87-4.76-1.77-.42-3.61,4.21-2.77,4.32-2.46,0,0-2.59-5.56-2.59-5.56s4-6.94,3.9-6.64,3.65,6.16,3.65,6.16-2.76,5-3.18,6c-.28.69,4.23-1.83,4.4,1.83s-4.71,2.87-4.45,2.39c.6,8.05,2,16.37,2.81,23.16ZM88,60.92c-.11.08,10.66,4.33,20.55,3.93,3.49,1.36,9.17,2.78,13,.25a139.55,139.55,0,0,1,11.69,9.23c-1,0-5.56,25.94-7.54,34.11,1.15,10.94-9.38,10.94-10.3,2.17C104,98.87,90.13,86.73,75.82,74.78,78.1,70,86.32,66.44,88,60.92ZM63.2,138.34c12.93,13.2,40,36.8,40,36.8L90.52,187.53c-6.65-2-13.48-3.64-21.21-3.72,0,0-8.47-3.84-13,0l-11.69-9.28s4.85-25.55,7.7-34.46c-.06-3.53,1.27-7.83,4.76-8.47,3-.55,5.26,3.68,6.08,6.74ZM37.06,168.93c-1.35,8.3-1.63,14.35-2.56,24,5.83-1.71,5.75,6.16,0,4.09l2.66,5.86-3.93,6.6-3.61-6.27,3.11-5.56c-6.75.07-5-6.59.66-4.87-1-9.28-3.36-18.66-3.25-27.83-2-14.72,2.46-35.19,1.72-35.68L25.58,125l1.08-32,10,4.37,3-2c-1-1.88-2.16-3.69-2.57-5.74,0,0-6.85-5.64-5.9-7.4-.44-.26,4.88-7.31,6.44-7.13,3,.34,6.42,4.19,7.42,6.93.84,2.76-6.15,5.46-5.27,7.48,1.06,2.41,3.72,3.57,6.08,4.28a10.32,10.32,0,0,1,4.89,3.56s1.27-10.23,2.48-9.41c4.9,3.29,1.55,13.73.64,13.44a40.11,40.11,0,0,0-4.67-.73c-8.91-.93-8.3,10-6.58,15.34.62,2.08-2,1.41-3.15,1.73-4.33,1.28-11,5.75-11,5.75A156.58,156.58,0,0,1,47,135.86,85.7,85.7,0,0,1,58.18,121c4.42-4.42,5.13-5.92,12.53-11.6.14-.11,5.6-6.64,3-14.27-2.22-6.53-12.91-13.59-12.83-14.07l2.1-2C62.89,79,78.1,88.54,77.75,98.83c0,.39,6.91.52,6.91.52l20,18.6-17,.07L79,110.9l-5.45-.28c-.36-.31-.55,1.44-5.35,5-9.17,6.85-20.53,24.43-20.53,24.43l-12-8.46c.6,12.7,2.65,26.36,1.4,37.31Zm43.73,60s12.48-23.47,19.33-34.53l9.7,2.78c-4.06,10.8-.17,31.37.85,31.89Z" style="fill: #e2cf00"/>
  <path d="M154.89,230.32V19.12H23.69v211.2ZM110.7,229.1c-14.89-.61-29.8-.47-44.7-.47-.09-1.2,1.74-4.21,3.2-4.27l.69-1.24c-2.74.94-4,2.74-4.83,5.51H64s.2-.47.57-1.62c1.14-2.78,3.42-5.35,6.09-5.28l.54-1c-3.71.11-6.57,3.6-7.42,6.22a9.47,9.47,0,0,0-.46,1.64H62.08s.28-1.13.45-1.68c1.82-5.82,6.7-7.52,9.36-7.4l.41-.74c-5.47-.27-9.81,4.46-10.43,8.52-.12.46-.41,1.3-.41,1.3H60.34s.29-1.22.37-1.65c1.46-6.26,7.93-9.89,12.17-9.19.18-.3.38-.68.52-1-8.51.32-11.15,4.72-13.09,8.61-2.31-3.5-4.33-7.26-9.87-9.38v-1.34a4.35,4.35,0,0,1,1.09,0c6.76,1.09,9-5.24,6.12-14.69-.79-2.59-.43-2.19,1.25-3.81a4.52,4.52,0,0,0,1-2.27,5.6,5.6,0,0,1-1.12,1.29c-.31.25-.93.5-1.4.82-1.25.73-1.24,1.22-.79,2.94a58.89,58.89,0,0,1,1.24,6.27,7.11,7.11,0,0,0-2.58-1.32,7.8,7.8,0,0,0,1,.94,6.22,6.22,0,0,1,1.66,1.83l-.88-.27a7.35,7.35,0,0,0-6.59.7c-.26-6.24.6-15.7,5.81-22.46,4-4.5,11.66-1.1,14.5.33,1.15.57,9.65,5.75,12.2,14.9l.42-.8c-1-2.3-2.17-5.48-2.17-5.48.06.32-.37-2.5-1.28-7.31a6,6,0,0,1,1.54.27c1.14,4.25,1.44,7.62,2.36,11.73l.51-.87c0-.14-1.24-7.67-2.07-10.65.48,0,1.37.25,1.37.25.68,3.15,1.21,5.33,1.85,8.43l.54-1a54.6,54.6,0,0,1-1.53-7.21,5,5,0,0,1,1.77.47s.8,4.15,1,4.61l.48-.82a16.27,16.27,0,0,1-.68-3.51,17.87,17.87,0,0,1,2.27.62c.22-.38.73-1.17.73-1.17h0s-14.79-4.67-19.51-3.33c0-.13-9-4-14.08-.71,0,0-8.78-6.52-12.21-9.13a8,8,0,0,0-2.45-2.65c-3.14-2-4.93-4.56-4.76-3.47-.17,1.65-1.62,14.9-1.9,17.27-1,8-1,7.89.17,7.53,5.24-1.29,4.37,5.75-.5,4.47l2.47,5.44s-2.74,4.9-4.06,6.72l-3.55-6.44,2.91-5.68c-5.66.43-5.11-6.7.43-4.32,0,0,0-2.12,0-2-.05.61,0,1.12-.24,1.24-5.4-1.92-6.76,5.71-.84,5.54-1,1.66-1.84,3.29-2.83,5.12l4.18,7.64L38,202.9,35.61,198a4,4,0,0,0,1.54,0c3.5-.72,2.75-6.36-1.25-5.59a5.8,5.8,0,0,0-1.14.43l2.58-23.06s.26-.21,1.29.54c1.2.86,3.71,2.74,3.87,2.94a93.76,93.76,0,0,0,7,40c.27.75.11,15.37.11,15.37H25.53v-68c1.25.79,2.73,1.83,4,2.73A1.11,1.11,0,0,1,30,164.6c.42-.9.17-1.29.17-1.29L24.9,159.1l.21-66.86c9.37,4.17,8.65,5,16.19,7.19,0,0-1.67-3.75-1.19-4.43-1.12-1.08-3-3.35-3.11-5.57a7,7,0,0,1-2-2.24L31.8,88.34,32.51,85c-3.36-2.36-.12-5.52.5-5.23a36.59,36.59,0,0,1-1.82-4.63A33,33,0,0,1,35.12,77c1.93-3.8,5.18-.61,5.21,0l3.61-1.61-1.28,4.11c2.32,1.42,3.89,3.56.14,5.86l.87,3.21-3.09-1.22s-.58.93-1,1.6c1.16,5,8.76,4.09,11.2,8.62A67.53,67.53,0,0,1,52,89.84c.24-5.41,4,.06,4,5.79,0,1.29-1.62,5.64-2.17,5.86s-6-2.55-9.64.06c-1.66,1.73-4.52,6.59-1.77,14.2.91,1.76-1.73,2-2.59,1.39,0,0-7.93,4.15-11.51,6.16,6,3.3,18.49,12.1,18.48,12.51,1.67-2.65,3.57-4.87,6.25-8.62,4.35-5.13,7.75-10,13.26-14.1,7.76-5.66,9.58-11.36,7.42-18-1.64-5.12-7.18-8.52-12.9-13.92,9.85-9,16.62-16.38,21.36-24.55-4-2.11-13.66-5.16-13.66-5.16,3.59-11.94,2-21.43-.41-31,0,0,28,0,42.58.42a4.39,4.39,0,0,1,1.72.06c.06,1.06-2.62,4-3.42,3.58-.4.4-1.25.6-1.1,1.09,2,.24,5.05-3.23,5.17-4.67h1.2c.25.21-2.17,5.87-7,6.32.05-.2-.65.44-.12.72,5.65-.67,8.28-6.95,8.11-7h.87a11.52,11.52,0,0,1-9.81,8.39s-.94.33-.69.87c6.4-1.11,9.58-3.89,11.12-9.26h1.15C117,26.4,111.45,31.18,105.12,31c-.2.13-.44.27-.34.89,7-.79,10.53-3.14,13.41-9.18,2.58,6.71,9.75,9.9,9.84,9.92s.17,1.88-.23,1.8c-6.12-2.22-8.45,3.1-8.2,6.2a26.17,26.17,0,0,0,.62,5.15,22.48,22.48,0,0,1,.85,4.66c0,1-.34,1.14-1,1.46-1.31.6-2.13,2.75-1.84,3,.67-1.57,2.45-1.84,3.28-2.89.66-.87.37-2.25-.8-7.05-.71-2.92.13-1.58,1.79-.66l1.11.63c-.74-.77-1.53-1.49-2.29-2.24s-.3-1,.67-.64a5.8,5.8,0,0,0,5.13-.47c.4-.29.55-.26.65,0,.45,7.45-.33,12-2.79,17.64-1.59,3.81-4,6.66-7.13,6.86s-7.77-.86-11.94-3.69C101,59.1,96.22,54,95.72,47.84c0-.07-.38.53-.54.85-.22.74.59,3,1.87,5.52.24,1.93.9,5.32,1.42,7.61A1.61,1.61,0,0,1,97,61.61c-.9-3.79-1.53-6.74-2.3-11.82,0-.49-.65.73-.65,1.06.11.76,2.22,10.69,2.18,10.47,0,.34-2-.11-1.73-.42,0,0-1.51-8.33-1.62-8.08l-.51.71s1.44,6.09,1.26,7.26c-.12.18-1.24-.18-1.6-.38-.45-.6-.73-2.77-.92-4.25-.51-.39-.62.74-.58,1,.37.59.76,2.79.47,2.9a4.15,4.15,0,0,1-1.76-.64c-.29-.26-1.41,1.29-1.13,1.56a61.65,61.65,0,0,0,19.44,3.77,9.45,9.45,0,0,1,3.92.92c5.22,1.89,9.53,0,10.16-.59,6.37,4.43,13.48,10.63,19.14,14.58a2.9,2.9,0,0,0,1,.28c.9-6.88,1.53-14.84,2.29-21.19.31-2.51.34-2.9.22-3-1.85,1-4.25.38-4.72-1.2-.69-2.35,1.57-4,3.79-2.83.82.43.94.34.57-.46-.65-1.45-2.52-5.26-2.52-5.26s2.48-5.28,3.76-6.68c1.25,2,2.89,4.17,3.58,6.37-1,1.92-2.83,4.4-3.42,6.29,2.21-1,4.71-.7,4.65,2.22-.09,2.11-1.92,2.56-4.59,1.58,2.75,18.15,3.54,28.91,2.87,29a56.24,56.24,0,0,1,5.1,4.1l-.2,139.62H111.84c-4.25-11.4-3.08-25.11-.54-32.25a41.61,41.61,0,0,1-14.21-4.85c8.69-12.76,22.33-26.56,37.11-35.39.84-.38,3.59,1.34,3.91,3,.07.39-.14,1.17-.59,1.16-1.09-.35-2.14-.84-3.2-1.27,0,0,1.48,3.71.76,4.27a6.34,6.34,0,0,0-1.14.87,3,3,0,0,0,.15,4.13,4.54,4.54,0,0,0,1.24.92s-1,2.9-1.56,4.26l4.1-1.36c1.89,2.8,4.45,2.75,5.83,0,0,0,.89.33,2.55,1.07,1.44.64,2.32,1,2.32,1-.54-1.61-1.24-3.12-1.86-5,2.82-1.8,2.18-4.85-.2-5.75l1.25-4.11s-2.67,1-4.12,1.38a7.67,7.67,0,0,1-1.65-2.49,10.54,10.54,0,0,0-3-4.45,20.7,20.7,0,0,1,4-2.35l-6-2.43c.37,1.27,1.17,2.22,1.25,3.82a2.52,2.52,0,0,0,1,2.34c1.63,1.43,1.81,3.12,2.36,4.24a4.18,4.18,0,0,1,1.58,1.89c.4.83,3-1.11,3.37-.75s-.83,3.14-.69,3.4c1.05.09,4,2.4.49,5l1.12,4.18s-2.68-1.17-4-1.83c-.89,4.17-5,2.17-5.61.37,0,0-3.22,1.06-3,.2s.61-2.7.61-2.7c-2.9-2.57-2.3-3.83.06-5.52a15.68,15.68,0,0,0-.54-3.48,26.34,26.34,0,0,0,2.72,1c.43-.43.92-1.22.84-1.62-.73-3.25-4.73-4.15-10.65-7.47-.2,2.1-1.65,5-1.81,7.48-.1,1.84-.17,1.87-1.46,1.28-3.39-2.46-2.36-9.21-1.12-12,.73-1.57.85-1.53,2.28-1.07a14.41,14.41,0,0,0,7.38-.27c2.65-1.09,3.91-7,3.93-8.82a12.31,12.31,0,0,0-1-5.52c-.37-1.35.31-2.39,1.53-2,.27.08.92.33.92.33l11.45-5.93-.3-.49-11.07,5.82c-1.83-.71-1.58-.86-2.77.38a1.9,1.9,0,0,1-2,.66c-5.79-.56-8.35.29-9.35,2.72-.15.36-.09.35-.68.65a2.37,2.37,0,0,0-1.67,2.17c0,.63-.31.72-.79,1.17a2.27,2.27,0,0,0-.52,2.93c.27.5.47.66.36,1.18a3.17,3.17,0,0,0,1,2.74c1,1.11,1,.92-.86,2.61-3.56,3.39-6.71,6-10.17,9.06-2.37,2.1-2.12,2-3,1a14.28,14.28,0,0,1-3.2-13.91c.07-.23.1-.2-.08,0-1,1.09-1,6.58-.17,9,1,3,2,4.55,5.28,7.48,2.07,1.87,7.69,7.27,7.69,7.27-8.19,7.11-17,15.95-21.94,24.08,2.54,2.73,14.3,5.24,14.3,5.24-1.46,3-4.36,16.71.6,31.87Zm-50.77-.47-1.06,0c-.5-3.8-3.9-8.32-7.44-9.72a3.17,3.17,0,0,1-1-.68v-.78a2.46,2.46,0,0,1,1-.1,17.91,17.91,0,0,1,8.38,9.27A10.31,10.31,0,0,1,59.93,228.62Zm-2,0H56.82c-.61-3.6-3.24-6.1-6.35-8.24v-.72a4.91,4.91,0,0,1,.48-.18C53.64,220.59,57.72,224.69,57.95,228.62Zm-1.95,0H54.63a8.36,8.36,0,0,0-4.17-5.81v-1.56c3.19,2.2,5.06,4.37,5.53,7.36Zm-2,0H52.87a7,7,0,0,0-2.4-3.65V223.5A8.2,8.2,0,0,1,54,228.62Zm-3.51,0v-2.71a4.26,4.26,0,0,1,1.66,2.66Zm22.05-14.21c2.25-1,2.81-1.7,2.49-1.95s-1.68.45-2.41.54c-3.92,1-6.61,1.21-9.16.09a9.58,9.58,0,0,0-1.54-.53,2.18,2.18,0,0,0,.88,1.5C65.8,216.16,69.47,215.74,72.51,214.42Zm-19.36-.84h-.53a3.13,3.13,0,0,1-2.14-.93l0-1.6c1.82,1.61,3.8,1.56,5.89,1.23a4.73,4.73,0,0,1-3.24,1.31Zm15.67-1c3.7-.29,5-2.16,7.38-4.1,1-.75.76-1.33-.44-1.13a6.66,6.66,0,0,1-4.09-.51c-2.2-.75-3.78-1.06-5-.6-1,.37-1.53.5-1.61.32s.73-1.1,2.79-2.76a6.09,6.09,0,0,0,1-1,5.34,5.34,0,0,0-1.74.87A10.2,10.2,0,0,0,64.65,206c-.13.28-.14,1.28-.39,1.28-.83,0-.4,1,.35,1.48.5.35.39.73-.26,1.41-1,1.06-.67,1.54.43.88.19-.1.29.22,1,.62A5.46,5.46,0,0,0,68.82,212.61Zm-.39-.65a3.41,3.41,0,0,1-2.28-.75,1.15,1.15,0,0,1-.42-.7,6.09,6.09,0,0,1,1.86-.25,14.2,14.2,0,0,0,5-.81,15.62,15.62,0,0,1,2-.57,12.63,12.63,0,0,1-1,.93A9.05,9.05,0,0,1,68.43,212Zm-13.85-.09h0a5.55,5.55,0,0,1-4-1.61V210a4.71,4.71,0,0,1,1.43.24,7.84,7.84,0,0,0,4.28.05c1.26-.35,1.47-.47,1.3.21-.21.83-1.54,1.39-3,1.42Zm15.39-3-.73,0c-.45-2.19-2.12-1.47-2.28-.13h-.61c.26-1.78,2.68-3.28,3.63.16Zm-14.59,0c-.3-1.7-1.88-2.26-2.57-.13h-.55c.42-3.55,4.17-1.82,3.57.13Zm15.18,0a7.65,7.65,0,0,0-.72-1.6,6.32,6.32,0,0,1,2.22.84A2.71,2.71,0,0,1,70.57,208.79Zm-14-.07A4.53,4.53,0,0,0,56,207l1,.17c.38.07.83.29.75.58C57.59,208.37,57.21,208.54,56.58,208.72Zm-5-.11a8.07,8.07,0,0,1-1.14-.3s0-.47,0-.69a5.63,5.63,0,0,1,1.76-.66,6.06,6.06,0,0,0-.6,1.65Zm14.19,0a1.09,1.09,0,0,0-.34-.07.34.34,0,0,1-.34-.22.77.77,0,0,1,.18-.78,3.61,3.61,0,0,1,1-.43A3.4,3.4,0,0,0,65.81,208.6Zm-1.46-9.31a4.54,4.54,0,0,0,1.3-.27c1.54-.88,1.17-4-.51-4.42a3.08,3.08,0,0,0-2.42.28,3.81,3.81,0,0,1-1.88.46c-.56-.23-.73.26-.85.82-.27,1.24,1.77,1.27,3.39,0,2-1.62,3.61.78,1.68,2.57a4.86,4.86,0,0,1-.7.57Zm16.11-6.64-1.72-2-1.08-4.73a3,3,0,0,1,1.45.25A58.45,58.45,0,0,1,80.46,192.65Zm-23.37-1.19.06,0c.07,0,.39-.71.83-.76.26,0,.64.15.92.14a6.05,6.05,0,0,0,1.64-.35.72.72,0,0,1,.66,0,4,4,0,0,0,2.69-.05c.59-.25,1.25.28,1.73.53.21.11.42.38.46.34a14.4,14.4,0,0,0,.49-1.94c0-.18.13-.49,0-.52s-.4.24-.78.43c-.78.4-1.65-.16-3.18-.54-1.89-.46-2.62-.33-3.74.24-.89.45-1.43,1.09-2,.93-.15,0-.53-.24-.59-.19s.18.66.43,1.22c.18.4.24.56.36.55Zm20.38-2.14h0a18.05,18.05,0,0,0-2.58-2.22l0-1.52a8.24,8.24,0,0,1,1.91.17c.2.59,1.06,3.55.62,3.57Zm-13.65-1.52a2.42,2.42,0,0,0-.5-.24c-.62-.23-1.2-.43-1.84-.65l.83-.26c.49-.17,1.27-.35,1.39-.79,0-.09-.12-.1-.25,0a10.35,10.35,0,0,1-4.13.39c-1.31-.44-1.39-.14-.13.52a8.67,8.67,0,0,0,.94.24s-.74.25-.94.36a3.74,3.74,0,0,0-.58.33c-.78.5-.24.71.75.23a4.74,4.74,0,0,1,3.57,0,2.27,2.27,0,0,0,.78.22c.09,0,.25-.2.1-.31Zm10.4-1.2-1.55-1.21,1.58.15Zm35-30.42a.57.57,0,1,0-.57-.57A.57.57,0,0,0,109.23,156.18Zm-2.06-.57,7.09-3.37-1.87-.63,0-1.94-1.73.55-.73-1.81Zm-.31-1.59a.57.57,0,1,0-.57-.57A.57.57,0,0,0,106.86,154Zm9-3.45a.57.57,0,1,0-.57-.56A.56.56,0,0,0,115.84,150.57Zm-2.18-1.06,8-3.66-2.36-.72.62-2.43-1.92.81-1.07-1.63Zm-.24-1.74a.57.57,0,1,0-.56-.57A.57.57,0,0,0,113.43,147.77Zm15.79-.36c-3,0-6.35-1.14-7.5-3.7-.3-1.28,1-2,3.64-1.31,4.44,1.22,5.27,1.36,4.53.6a2,2,0,0,0-1-.57,23.25,23.25,0,0,0-5.79-1.14c-1.19.16-2-.4-1.72-1.39s1.89-1.6,4.22-1.27a32.49,32.49,0,0,1,4.55.86c1,.31,1.07.29.58-.44-.25-.38-.28-.68-.66-.75a32,32,0,0,1-4.76-.35c-2.63-.24-3-1-1.11-2.12.91-.54,3.65-.39,5.21.17,1.11.4,3.66,1,2.68.2-.24-.19-.16-.64-.57-.79-1.35-.19-5.16-.45-5.75-1-.38-.35.48-1.23,2.26-1.69,2.68-.51,6.68-.3,7.74.43,2,4,.9,10.53-2.16,13.08a7.52,7.52,0,0,1-4.44,1.19Zm-17.55-2.08a.57.57,0,1,0-.57-.57A.56.56,0,0,0,111.67,145.33Zm-2.36-.61,8.22-4.1-2.08-.62.49-2.4-1.93.8-1.17-1.61Zm-.06-2a.57.57,0,1,0-.57-.57A.57.57,0,0,0,109.25,142.71Zm-4.78-4.83c3.64-3.55,7.75-6.37,11.5-9.82l-.81,0-2,1.85-57.57.18,1.34-2-.57-.24a20.2,20.2,0,0,0-1.61,2.67c12.65,0,22.41,0,36.29-.1,2.53,2.51,5.2,4.86,7.84,7.24ZM122,135.6a.57.57,0,1,0-.56-.57A.57.57,0,0,0,122,135.6Zm-75.16-.43a139.34,139.34,0,0,0-17.46-11.92c3.1-1.73,6.76-3.68,9.85-5.25,1.18-.45,1.69.14,2.53,0a1.6,1.6,0,0,0,1.13-.74c.59-.78.43-.75,3.57-.61s4.48.07,5.16-.27,1.78-1.48,1.78-2a1.39,1.39,0,0,1,1-1.24,1.89,1.89,0,0,0,1.6-1.73,3.07,3.07,0,0,1,1-1.4,2.11,2.11,0,0,0,.55-2.48c-.12-.38-.58-.35-.21-1.42,1-2.78-2.3-4.28-2.36-4.26L69.51,89.42c1.64,1,3.29,3.84,3.84,5.65A13.88,13.88,0,0,1,69,110.29c-1.34,1.14-3.13,2.5-3.63,2.84C58.09,119.33,51.78,128.11,46.81,135.17Zm73.06-.48,8-3.8-2.59-.44.49-2.24-1.87.71-1-1.89Zm-.49-1.78a.57.57,0,1,0,0-1.13.57.57,0,0,0,0,1.13Zm-72.71-.33s2.54-6.26,3.08-8.39c-2.15,1.11-8.45,4.32-8.45,4.32L44,129l-.3,2.45,2.07-1.05ZM137.53,130a.57.57,0,1,0-.57-.57A.57.57,0,0,0,137.53,130Zm-2.46-.52s6-2.81,8.68-4l-2.52-.53.44-2.45-2.27.89-.92-2.42Zm-.32-1.85a.57.57,0,1,0-.57-.57A.57.57,0,0,0,134.75,127.66Zm-84.6-.41a.57.57,0,1,0-.56-.56A.56.56,0,0,0,50.15,127.25Zm-9.77-.51,2.85-7.92-7.7,3.88,2.09.57v2l1.72-.5Zm90.95-1.9a.57.57,0,1,0-.57-.57A.57.57,0,0,0,131.32,124.84Zm-84.17-.14a.57.57,0,1,0-.57-.57A.57.57,0,0,0,47.15,124.69Zm81.81-.58,8.15-4-2.53-.59.28-2.55-2.06,1.17-1.12-2.33Zm-.51-1.68a.54.54,0,0,0,.53-.57.56.56,0,1,0-1.13,0A.59.59,0,0,0,128.45,122.43Zm-84.8-.5a.57.57,0,1,0-.57-.57A.57.57,0,0,0,43.65,121.93Zm12-.47,3-7.82-8.11,3.72,2.57.6,0,2,1.81-.68Zm7.66-.53a24.76,24.76,0,0,1,2.07-2.21l23.95-.22c-2.58-.12-6.92-4.72-10.06-7.52l-5.94.24c-3.29,3.24-8.24,5.7-10.44,9.7C63,121.12,63.31,120.94,63.31,120.92Zm-22.62-1.53a.57.57,0,1,0,0-1.13.57.57,0,0,0,0,1.13Zm18.49-2.73a.57.57,0,0,0,0-1.13.57.57,0,1,0,0,1.13Zm-9.75-.78c-.71,0-1.55,0-2.41,0-1.72,0-3.37-.05-3.8-.38-2.65-2.24-1.4-12.7,1.95-14,3.67-.83,6.21-1,9.39,1.12.9.44,2.57,1.78,2.22,2.88-.48,1.35-1.67,1.25-5.43.08-1.37-.43-2.13-.34-2.48-.07s.1.53.8.53a16.42,16.42,0,0,1,2.51.61,10,10,0,0,0,2.77.63c1.56.09,2,.15,2,1.11,0,1.78-2.47,2-7,1a12,12,0,0,0-1.77-.26c-.18-.07.35.59.44,1,.16.14.46.21,1.23.23,2.93.29,5.36.49,5.41.87.26,1.89-3.53,2.4-7.45.89-1-.39-1-.23-1,.07,0,.54,1.7,1.49,4.19,1.47s2.08,1.21.09,2.13a4.38,4.38,0,0,1-1.63.19Zm7-2.06a.57.57,0,1,0-.57-.57A.57.57,0,0,0,56.38,113.82Zm9.24-1.8,3.29-8.22L60.59,108l2.74.52-.24,1.73,2-.38Zm3.73-5.42a.57.57,0,1,0-.56-.57A.57.57,0,0,0,69.34,106.61Zm-7.59-.34,2.8-7.16-7.1,3.18,2.1.57-.3,2.17,1.8-.76Zm5-2a.57.57,0,1,0-.56-.57A.57.57,0,0,0,66.71,104.25Zm-1.82-2.73a.57.57,0,1,0-.56-.56A.57.57,0,0,0,64.89,101.52Zm3.57-1.68,2.4-6.78L64.18,96.3l1.95.64s-.11,1.52.08,1.45,1.37-.4,1.37-.4ZM62.52,99a.57.57,0,1,0-.57-.56A.56.56,0,0,0,62.52,99ZM36.26,97h0s-7.61-3.85-10.73-5.31V20.88H67.3C72,35,68.63,47.26,67.38,52.4c2.2.18,13.56,3.87,13.9,5.13-4.5,7.16-10.6,13.66-17.08,19.61a113.27,113.27,0,0,1-18.11,14c-2.23,1.35-2.91,1.54-3.78.75-1.43-1.3-2.32-2.43-1.85-3.34A3.29,3.29,0,0,1,40.9,88l3.43,1.31-1.11-3.9c3.09-1.26,3-4.61.05-6.38l2.05-4.73-4.77,2.1a3.16,3.16,0,0,0-5.7,0l-4.31-2.1L32,79.59c-1.41,1.35-2.24,3.51,0,5.49l-1,4.14L34.88,88c1,1.33,1.54,1.24,1.76,1.61a6.27,6.27,0,0,0,.73,2.72,19,19,0,0,0,1.72,2.48c.3.51.06.56-1.49,1.4-.73.4-1.33.8-1.33.8Zm35.1-1.19a.57.57,0,1,0-.57-.57A.57.57,0,0,0,71.36,95.77Zm-2.55-2.62a.57.57,0,1,0-.57-.56A.57.57,0,0,0,68.81,93.15Zm84.32-5.48-4.5-3c-.09-.38.68-.12.26-4.78-.37-4.2-1.65-11.49-3-23.31,5.35,2.26,6.38-7.26.12-5.22-.28-.06,3.28-5.54,3.28-5.54s-2.85-5.19-4.22-7.39L140.77,46l2.82,5.3c-4.41-2.25-6.7,4.46-2.07,5.33a5,5,0,0,0,2.36-.41l-2.44,23c-2-1.34-5.55-4-5.55-4-.82-12.65-.22-23.19-7.28-41.59l-.07-12.74h24.59Zm-4.91-2.8-.1-.08C148.16,84.85,148.19,84.87,148.23,84.86ZM104.92,63a1.25,1.25,0,0,1-.84-.23c-.21-.2-.36-.71-.08-.84s1.1.68,1.26,1A1.67,1.67,0,0,1,104.92,63Zm-2.15-.24a1.62,1.62,0,0,1-1.18-.34c.11-.83-.4-2.33-.31-2.68.26-.13,1.59,1.3,1.92,1.64a6.21,6.21,0,0,1,0,1.35,2.6,2.6,0,0,1-.39,0Zm12.38,0a2,2,0,0,0,.68-.21,6.14,6.14,0,0,1,2.91-.71c.93,0,2.54.49,2.38.37-.43-.76-1.54-.36-1.56-.86.28-.49,1-.44,1.38-.92.08-.12-.11-.23-.63-.18a7.83,7.83,0,0,1-5.53.08c-.4-.08-.14.3,0,.4a2.34,2.34,0,0,0,1,.41c1.65.29.92.46-.18,1-.61.22-.87.69-.44.66Zm-14.79-.4A1.92,1.92,0,0,1,99.2,62c-.28-1.84-1.09-4.79-1-5.78a15.65,15.65,0,0,1,1.9,2.18,14.54,14.54,0,0,1,.64,3.95A2.61,2.61,0,0,1,100.37,62.36Zm12.69-3.41c.71-.26,1.74,0,3.1.39a5.2,5.2,0,0,0,3.51-.25c.78-.44.5-1,1.72-.46s1.09.17.65-1c-.09-.26.07-1.44-.18-1.71a6.37,6.37,0,0,1-2.19,1.38c-.69.3-.54.56-1.56.71s-2.1-.87-3.28-.58-1.23,0-2.47-1c-.07.37-.36,2.39-.83,2.87a2.8,2.8,0,0,0,1.52-.28Zm1.22-4.89c1,0,1.61-.65,3-.53a1,1,0,0,0,1-1.57c-.32-.49-.75-.58-2.21.09-.6.28-1.44.89-1.93.84-1.43-.14-1.78-1.53-.59-2.7.58-.34.58-.71.41-.72a2.11,2.11,0,0,0-1.64,1.2C111.66,52.46,112.73,54.09,114.28,54.06Zm-4.68-8.3a8.24,8.24,0,0,0,4-2.86c.62-1,1.22-2.1.78-2.65s-.85-.89-.9-1.13.25-.43.53-.73c1.19-1.33.91-1.41-.76-.54-1.82-2.48-5.45-1.68-7.61-.12-3.4,2.23-5.27,4.35-2.59,3.46,1.23-.41,1.69-.34,3.18.34,2.23,1,3.95,1.31,5.8.66,2.34-.82.55,1.12-2.09,2.8C109.34,45.35,109.27,45.77,109.6,45.76Zm14.7-3.82c-.79.06-1.62-.54-2.05-2H123c.56,1.89,1.91,1.88,2.5,0l.65,0a2.36,2.36,0,0,1-1.88,1.94Zm-13.92-.14a2,2,0,0,1-2-2l.59,0c.36,1.14,1.61,2.15,2.5.27l.41.08c-.27,1.12-.85,1.59-1.45,1.65Zm1.88-.26c-.37,0-.46-.42,0-1.09.29-.48.64-.43,1-.07s.3.37,0,.68a1.52,1.52,0,0,1-.9.48Zm-4.32,0a3.63,3.63,0,0,1-.8-.24c-.89-.3-1.09-.55-.73-.92a1.26,1.26,0,0,1,1.35-.26c0,.45.46.8.47,1.25C108.23,41.47,108.09,41.52,107.93,41.53Zm14,0c-.62,0-1.45-.34-1.39-.7s.68-.65,1.18-.69c.34,0,.32.09.41.33s.18.49.24.7c.14.41-.13.34-.44.35Zm4.23-.14s.35-1,.5-1.38c1.29.07,1.17.64.56,1.05A2.22,2.22,0,0,1,126.12,41.38Zm-20.8-2.25c-.07,0-.12,0-.13,0,1.48-2,5.48-3.39,7.79-1.1a2,2,0,0,1-1.54.34,9,9,0,0,0-5,.38A10.14,10.14,0,0,1,105.32,39.12Zm21.8-.2a5.26,5.26,0,0,1-.93-.34,9.72,9.72,0,0,0-4.53,0c-.71.16-1,.38-1.2.27s0-.9,1-1.36a6.53,6.53,0,0,1,4.92,0c1.32.67,1.47,1.39.71,1.38Zm.35-1.48a5.69,5.69,0,0,0-3.92-.91c-2.24.08-2.64.36-.75-.64s4.44-.76,5,.25C128.05,36.71,127.86,37.4,127.47,37.45ZM116.6,36.1h0c-.18-1.21-2.21-2.32-3.19-2.58-2.07-.92-5.36,0-7.84,1.06-1.81.78-2.46,2-.31,1.29,3.47-1.08,7.82-1.16,10-.32a7.07,7.07,0,0,0,1.32.56ZM128,31.56c-4.34-1-9.58-7.68-9.56-10.61h1.4a14.19,14.19,0,0,0,8.21,9.51c.25.91-.06,1.12-.05,1.1Zm.07-1.89A13.67,13.67,0,0,1,120.32,21h1.51a11.64,11.64,0,0,0,6.26,7.2,3.45,3.45,0,0,1,0,1.52Zm0-2.29c-2.64-.78-5-4.26-5.63-6.44h1.32a7.89,7.89,0,0,0,4.36,4.88,4,4,0,0,1,0,1.55Zm0-2.37h0A5.85,5.85,0,0,1,124.49,21h1.21a6.89,6.89,0,0,0,2.42,2.91c0,.23,0,1.16,0,1.16ZM128,23h0c-.13.08-2-1.59-1.67-2.05H128c0,.52,0,2.06,0,2.05Z" style="fill: #131f67"/>
  <path d="M80.76,228.63c3.14-6.1,19.27-33.57,19.44-34.53l-4.13-1.83L76,228.49S80.17,228.63,80.76,228.63Zm-47.45-23,1.75-2.49-1.42-2.84L31.92,203Zm73.79-27.51s5.78-5.76,8-8.44c-4.86-4.86-14.15-11-14.22-20.34l-6.4,0L73.79,130.75s-18.77-.14-19.12-.06-7,9.65-7,9.65l-11.89-8.69s.57,9.36,1,15.09c.15,3.83.27,6.19-2.52,7.89,3.84,1.84,3.6,5.21.77,7.69,1.47.57,2.85,4.35,2.47,6.12,0,0,1.23,1,2,1.5,1.79-1.64,4.62-4.06,5.18-6.62.53-2.81-2.32-4.73-4-2.68-.46.58-.88.42-.88-.34,0-1.53,1.92-2.39,3.55-1.6a2.12,2.12,0,0,0,.75.28c-3.09-7.26-4.22-10.05-2.51-14.48.74-2.75.39-4.38-.93-4.38-.75,0-.72-.72,0-1,1.61-.56,2.6.62,2.66,3.16,0,1.54.06,1.58.85,1.2,2.74-1.29,5.73,1,4.43,3.44-.27.51-.59.35-.76-.38a2.14,2.14,0,0,0-2.31-2c-3,0-4.2,4.2-2.49,8.43.34.85.52.8,1-.27.71-1.68,1.89-2.18,2.87-1.2.33.33.49.86.26.89l-.72,0c-1.73.06-2.32,1.73-1.51,4.26a23,23,0,0,1,1,3.82,7.33,7.33,0,0,1-.82,5.07,24.24,24.24,0,0,1-4.81,5c1.22,1,2.31,1.82,3.69,2.85,0,0,8.83-24.26,8.2-33.71,1.12-12.45,10.26-9,10.93-.38Zm-.53-3.76c-2.5-.73-4.19-4.7-5.21-12.11-.38-2.75-2-6.59-3.26-7.5-3.06-2.29-7.84-.53-7.85,2.9,0,4.26,6,4.9,6.06.64,0-1,.54-1.06,1-.1a3.17,3.17,0,0,1-.81,3.24c-.55.51-.5.61.54,1.19,3.64,2,5.18,5,3.24,6.28-.85.56-2-.15-1.48-.9.83-1.17.84-1.36.15-2.33-2.05-2.27-4.6-2.28-7-3.37a4.86,4.86,0,0,1-2.8-6.16l.45-1.27c.09-.27-.06-.27-1.83,0-2.83.38-6-.63-7.52-2.42a8.78,8.78,0,0,1-1.52-4.92,12,12,0,0,0-.24-1.74c-.13-.61-.3-1.64-.38-2.29-.74-6.16-5.86-9.32-8.08-5-1.39,2.74,1.83,5.47,3.47,2.95.58-.89,1.17-.48.84.58-.64,2-3.2,2.4-4.94.67a4.9,4.9,0,0,1-.93-4.39c.24-.7.21-.75-.31-.57a4.47,4.47,0,0,1-3.91-.76c-1.71-1.83-1.37-4,.74-4.74a1.79,1.79,0,0,1,2.39,1.13c.16.8-.39,1-.82.34-.8-1.29-2.53-.25-2.12,1.27.46,1.73,1.94,2.1,4.67,1.16,4.33-1.49,5.73-1.37,7.8.7,1.48,1.47,2,2.75,2.44,5.56.44,3.1.48,3.18,1.25,2.53,3.67-3.12,8.51,1.6,5.4,4.7-1,1-1.67.12-.8-1,1.26-1.57-.38-3.76-2.44-3.25-3.75.93-3,6.43,1.07,7.71,1.24.39,4.64.23,7.25-.35,7.3-1.61,10.53,1.52,12,11.64a36.32,36.32,0,0,0,1.07,4.6c.82,3,3.62,4.66,5.15,3,1.22-1.31.58-3.07-1.12-3.08s-1.17-1.16.59-1.32c3.06-.27,3.59,4.82.66,6.28a4.32,4.32,0,0,1-2.94.43Zm40.86-1.71-1-3.68-3.78-1.07,1.2,3.45Zm-9.74-1.13,1-3.28-2.81,1-1,3.14Zm-31.06-5.37a1.09,1.09,0,1,1,1.09-1.09A1.09,1.09,0,0,1,106.62,166.15Zm36.1-1.91,3.28-1.09.57-2.6-3,.68Zm-6.85-1.18,2.36.72-.56-2.69-2.58-1.05Zm-105.56.51,1.56-1.22c-4.56-4,.36-7.8.51-7.54-3.3-2.19-2.71-5.63-2.28-8.79.78-5.63,1.08-11,1.94-16.73a45.2,45.2,0,0,0-6.61-3.81s0,33.86,0,33.86Zm56.28-5.1a1.09,1.09,0,1,1,1.09-1.09A1.09,1.09,0,0,1,86.59,158.48Zm66.68-2.78-.14-31.61-6.53,11.7,4.49,5.19-3.88,4.15A113.3,113.3,0,0,1,153.26,155.69Zm-63.59-4.82a1.09,1.09,0,1,1,1.09-1.09A1.09,1.09,0,0,1,89.67,150.88Zm-14.83-3.23a1.09,1.09,0,1,1,1.09-1.09A1.09,1.09,0,0,1,74.85,147.64ZM32.38,112.43l-4.8-4.93,3.8-4.67-6-10,.1,31Zm120.95,10.38-.23-34L148,85.07l-1.3,1.23C150,89.84,148,92.48,145.5,94c4.4,1,3.07,6.88,2.8,9.59.11,5-1.73,10.77-1.17,15.61Zm-29.54-4.73,7.35-10.26s8.08,6.13,12.15,8.9c-.44-4.43-.83-10.08-1.37-14.84-1.32-7,2.12-7.07,2.15-7.74-5.47-4.16-.88-8-.06-7.85-2.91-1.59-2.67-6.41-2.67-6.41L140,79.1c-2.09,1.41-4.34,3.61-5.07,5.88-.93,3.17,1.82,5.81,3.55,3.4.85-1.18,1.53-.39.83,1a2.68,2.68,0,0,1-3.4,1.28c-.64-.34-.5.55.49,3a28.5,28.5,0,0,1,1.07,3.61,10.78,10.78,0,0,1-.51,6.16c-1.13,3.17-.73,5.16,1.08,5.34,1,.09,1.07.4.28.84-1.76,1-3.47-.42-3.4-2.83,0-1.3,0-1.33-.66-1-3.47,1.4-6.22-2.22-3.79-5,.74-.85,1.21-.31.72.83-.75,1.76,0,3,1.73,3,2.56,0,4-3.53,3-7.43-.32-1.22-.36-1.23-1.21-.42s-1.32,1-1.9.78c-1.21-.36-1.53-1.66-.37-1.5,2,.28,2.52-1.82,1.39-5.55-1.65-5.68.29-8.84,5-12.27a29.79,29.79,0,0,0-5.07-3.77l-8.07,32.67a26.16,26.16,0,0,0,.33,2.73c0,8.77-8.16,9.61-10.72,1.65a19.12,19.12,0,0,0-1.54-2.72L71.21,71s-7.94,7.68-7.83,7.89c6,6.09,14.17,10.39,14.47,20.05,1.44,0,6.28,0,6.28,0l20.67,19c6.49,0,12.24.42,19,.22Zm-11.58-.71c-1.14,0-2.28-.56-2.28-1.5s.55-1,1-.34c.63.93,1.37,1,2.12.21,2.08-2.19-1.15-4.18-4.86-3-2.27.72-3.37.91-4.2.75-3.5-.7-5.19-3.07-5.49-7.68-.15-2.34-.15-2.34-1.16-1.41a3.86,3.86,0,0,1-6.58-2.33,3.12,3.12,0,0,1,2.76-3.23c.57,0,.48.6-.14.89a2.34,2.34,0,0,0-.1,4c1.92,1.22,4.44-.68,4.41-3.31q-.06-4.75-7.06-4.36l-3.81.18c-2.23.1-4.62.52-6.89-1.2-2.38-1.89-4-5.66-4.63-11.1-1.06-6.69-1.88-8.49-4.13-8.65a2.36,2.36,0,0,0-2.46,2.36,1.74,1.74,0,0,0,2.16,1.44c1.13-.37,1.35.85.24,1.31-1.54.64-3.41-.6-3.83-2.53-.24-1.13,1-3.29,2.36-3.83,3.47-1.41,5.94,1.47,6.76,7.9a38.78,38.78,0,0,0,1.69,7.46c1.69,4.64,4.46,6.56,7.47,5.17C89,93,88.3,87.86,84.68,87.9c-2-.16-2.4,1.31-2.45,2.87,0,1.16-1.35.07-1.47-.72a3.58,3.58,0,0,1,1.52-2.72c1.23-.83.79-.77-.47-1.11-3.39-.63-5.9-5.12-3.88-6.64,1.05-.64,2.17.3,1.44,1.23-1.16,1.48.8,3.81,4.38,4.6,4.68,1,6.54,4.52,4.86,8.1-.56,1.19-.61,1.16,1.68,1,5-.28,6.81.41,8.49,3.33.51.88.73,2.06.84,4.4.19,4.19.57,6.78,1.1,7.51,2.61,3.61,8,2.53,7.36-1.47a2.25,2.25,0,0,0-4-1.24c-1.12,1.15-1.64.08-.55-1.13,2.62-2.91,7.19.49,5.83,4.34-.31.88-.35.85,1.33.9,3.74.11,5.52,3.32,3.11,5.6a2.43,2.43,0,0,1-1.61.61Zm-9-13.77a1.09,1.09,0,1,1,1.09-1.09A1.09,1.09,0,0,1,103.17,103.6Zm-15-3.86a1.09,1.09,0,1,1,1.09-1.09A1.09,1.09,0,0,1,88.12,99.74Zm3.23-7.1a1.09,1.09,0,1,1,1.09-1.09A1.09,1.09,0,0,1,91.35,92.64ZM43.53,88.41l-.69-3.22-2.49-.66.39,2.76ZM34.81,87.3l.05-1.91-2.22-.26-.78,3.29ZM72,84.41a1.09,1.09,0,1,1,1.09-1.09A1.09,1.09,0,0,1,72,84.41ZM40.19,80l2.61-.72,1.25-3.63-3.34,1.21Zm-5.1-.33L34.77,77l-3.21-1.45,1.09,3.83ZM82.43,56.75l19.94-36.11-5.45.08-18.82,34ZM145.13,48l1.76-2.37-1.67-2.76-1.92,2.77Z" style="fill: #d40000"/>
  <path d="M67.69,20c2.16,8.55,4.45,17.24.35,31.82C72.36,52.73,82,56.59,82,56.59s0,.22-.36.72c-1.78,2.54-6.27,9.44-10.48,13.43-.51.37-7.85,7.5-7.92,7.73a1.68,1.68,0,0,1-.5.8c-.68.45-2.48,2.15-2.48,2.15l9.2,7.79.52.29c1.28.72,3.6,4.73,4.17,7.41,1.31,6.17-1.11,11-7.94,16.06-6.67,4.57-19.32,22.33-19.36,22.73C40,130,34.67,127.11,28.67,123.4c3.62-2.08,6.58-3.48,9.12-4.85,1.65-.94,1.87-1.14,3.26-.74,1.58,0,2.11-.62,1.71-2-2.38-3.77-1.36-12.56,1.86-14.26a9.21,9.21,0,0,1,7.77-.24c1.74.56,1.71.56,2.49-1a11.17,11.17,0,0,0,.24-10.17c-1.29-2.8-3.21-4.07-3.44-.3-.14,2.21-1.11,4.8-1.08,7.18a11.35,11.35,0,0,0-6.46-4c-2.15-.34-4.44-3-4.37-4.14.59-.6.77-1.36.87-1.31,1,.34,3.32,1.31,3.32,1.31l-1-3.42a2.87,2.87,0,0,1,.62-.39c2.14-1.09,2-4-.24-5.22-.46-.24-.49-.35-.29-1,.28-1.4.89-2.35,1.22-3.74a13.55,13.55,0,0,0-2.86,1.17l-1,.47-.6-.65a2.7,2.7,0,0,0-4.31,0l-.64.66-1.78-.9c-1.67-.85-2.12-1-2.12-1s1,3.75,1.14,4.18a1,1,0,0,0,.44.52c.24.09.2.14-.43.65-1.61,1.28-1.77,3-.4,4.38a5.31,5.31,0,0,1,.59.62l-.83,3.48L35,87.52a3.82,3.82,0,0,0,2,1.93c.06,1.57.26,3.18,2.95,5.64-.91.83.17,2.83,1.06,4-1.51-.51-5.3-2.11-5.3-2.11l-.57,0-1.81-.87L33,95.84s-5.69-2.69-8.3-3.95c0,.14,0,3,0,33.95,0,18.48,0,33.67,0,33.77a41.56,41.56,0,0,0,4.27,3.17c1.22.82,1.14.81.88,1.75s-.28,2.56.1,5.34c.28,2.05,1.32,9.27,2,15.09.5,4.09.62,5,.75,5.65a9.56,9.56,0,0,1,0,2.4c-5.71-2.48-6.16,5.74-.44,4.63-1.1,2.21-2,3.24-3,5.61,1.19,2.58,3.84,6.93,3.84,6.93l4.19-7.3L35,197.82c2.83.51,4.34-1.55,3.81-3.41A2.44,2.44,0,0,0,35.3,193c-1.07.42-1.07.53-.12-7.48.28-2.37,1.52-13.44,1.69-15.09.11-1.11.19-1.41.64-1.17a10.3,10.3,0,0,1,1.57,1l.35-.34c-.54-.44-1.2-1-1.86-1.6.15-2.93.09-4.63-2.35-6.06,4.42-2.77,1.84-7-.76-7.66,1.55-.4,3.07-2.39,2.7-6.35L35.92,132l12,8.91,7-10.08,18.52,0,20.89,18.88s4.58.06,6.46.11c-.21.1.4,5.84,3.42,9.58,3.29,3.91,10.76,10.37,10.76,10.37l-7.85,8L63,137.94s-.21-1.13-.33-1.61c-1.47-6.28-8.61-6.66-10.12-.26a17.18,17.18,0,0,0-.43,3.72c-2.23,9.62-5.06,20.35-7.22,28.62-.43,1.56-.74,3.16-1.19,4.72l-3.43-2.49-.37.39c1.3,1,3.53,2.62,3.53,2.62l0,.68c7.16,5.14,8.64,6.5,12.87,9.87,3.29-2.9,8-1.73,10.93-.7.76.3,2.62.79,2.62.79a62.33,62.33,0,0,1,19.86,3.4L66.26,229.54h9.06l.32-.36h4.71l0,.35h30.88c-3.67-11.15-4-22.14-.82-32.7A44.23,44.23,0,0,1,96.34,192c.81-2.08,13.16-17.3,21.55-24.17-2.38-2.37-5-4.73-7.77-7.34-4.17-4-5.64-6.69-5.92-11.84.19-6.05,3.59-9.61,8.27-12.94,4-2.65,10.37-10.06,16-17.79.87-1.19,3.43-4.9,3.43-4.9a126,126,0,0,0,17.92,12.32s-9.23,4.92-11.17,5.93c-1.49-1-3.51-.14-2.54,2a14.44,14.44,0,0,1-1.73,13.19c-.89,1.33-5.67,1.88-8.74,1.09-1.74-1-2.09.27-3.18,4.4s.66,9.31,3.14,9.32c.58,0,.91-.21.79-1.67a4.41,4.41,0,0,1,.46-2.37A16.91,16.91,0,0,0,128,152.3a13.5,13.5,0,0,0,6.52,3.67c2.73.32,4.12,3.73,4,3.74a5.67,5.67,0,0,1-.77,1.28,19.22,19.22,0,0,0-3-1.3s.26,1.37.35,1.74c.51,1.9.48,2.19-.25,2.59-1.82,1-2,2.73-.59,4.32a3,3,0,0,0,1.14.87l-.9,3.58s.82-.18,1.48-.38c1.9-.58,1.76-.6,2.57.33,1.76,2,4.33,1.55,4.85-.69,0-.26.17-.66.17-.66l4.05,2a42.85,42.85,0,0,0-1.17-4.18c3.55-2.76.55-5.2-.42-5.46,0,0,.83-2.64,1.11-3.74l-4,1.15a3.92,3.92,0,0,0-1.58-1.88c-.22-2.25-2-4.07-3.15-5.16a4.36,4.36,0,0,1-.07-1.35c.26-1.31-1.07-3.39-1.3-3.51,5.49,2.25,11.21,4.95,16.73,7.6l-.34-68s-1.29-1.15-3.84-3c-1.23-.88-1.22-.88-1-1.9.34-1.34.25-2.35-.88-11.15-.6-4.65-1.26-9.48-1.85-13.8a25,25,0,0,1-.27-2.59c1.22.57,3,.62,3.91-.41a2.79,2.79,0,0,0-2-4.65,3.86,3.86,0,0,0-2,.52l3.5-6.16-4-6.8-4,7.27L144,51.92c-2-1.12-4.17-1-4.63,1.77-.15,2.67,2.86,3.42,4.84,2.27l-2.47,23.89-1.33-1-.43.24,1.16,1c-.25,3.8,1,5.14,2.35,6.06-4.52,2.58-2.56,6.65.45,7.9,0,0-2,1.14-2.35,2.34s-.21,2.77.17,5.79c.28,4.65,1.28,14.25,1.28,14.25-3.95-3-8-6.17-11.82-9.19l-7.64,10.64-18.42-.13s-14-12.73-21-19.22L78,98.49c-.68-9.77-7.45-13-14.17-19.81L71,71.45l43.83,39.22s.21.57.29.92c1,4.15,3.76,5.89,6.26,5.6s4.86-2.89,4.74-7.29a14.52,14.52,0,0,0-.26-1.88l8-33.41s3.2,2.45,4.93,3.63l.38-.22-4.69-3.53-.35.15-1.33-1-.1-.71c-4.1-2.79-11.05-8-11.05-8-3.28,2.44-6.73,1.63-10.19.71a16.88,16.88,0,0,0-3.85-.83A58.33,58.33,0,0,1,88.5,61l23-40.85Zm29,.8L78.2,54.26c-.5-.27-2.3-.57-2.46-.92a3.87,3.87,0,0,1,.11-1,5,5,0,0,0-.81-3.2c-1.06-1.47.09-.8,1.14-.79,2.38.61,5.42-2.64,4.27-6-.27-.74-.21-.8,1.07-1.19a4.64,4.64,0,0,0,2.77-6.72c-.73-1.43-.75-1.36.53-1.47,3.55-.3,5.61-3.45,4.12-6.67-.23-.5-.08-.64.69-.78,2.42-.45,3.51-2.47,3.81-4.7ZM83,20.85c-2,1.77-1.19,4.21,1.11,4.75-2.23,1.28-2.23,4.69.44,5.1,2.35.36,3.56-1.88,2.52-4.12l1-.27a4.49,4.49,0,0,1,.55.87c.89,2.59-1,5.16-4.13,5.15-2,0-2.35.55-1.28,1.75A3.92,3.92,0,0,1,82,40.43a2.16,2.16,0,0,1-1.84.18l-.06-1.42s.47,0,.84-.1c2.78-.45,2.26-4.88-.56-4.84a2.69,2.69,0,0,0-2.67,2.9c0,.48,0,1.18,0,1.18-1.43-2.45-3.88-2.62-4.92-.63-1.23,2.34,1,3.81,3.24,3.57,0,0-.47.31-.77.46A2.49,2.49,0,1,0,78.59,43a7.9,7.9,0,0,0-.31-.74L79.35,42a1.82,1.82,0,0,1,.35.36c1.84,2.89-1.12,6.07-4.85,5.35-1.37-.43-1.32.52-.55,1.37.82,1.23,1.44,2.63.83,4h0L69,51.39c2.56-8.71,2.91-18.82-.17-30.53Zm18.87,0L82.16,56.09c-.71-.44-3.36-1.61-3.36-1.61L97.35,20.89Zm-10.65,0h1.65c-.27,4-3.75,4.11-3.87,4.32h0a2.72,2.72,0,0,0-.28-1.62c1.84-.11,2.33-1.52,2.5-2.71ZM87,23.5a1.28,1.28,0,1,1-1.28,1.28A1.27,1.27,0,0,1,87,23.5Zm-8.7,15.56a1.23,1.23,0,1,1-1.23,1.23A1.23,1.23,0,0,1,78.33,39.06Zm66.75.48,3.59,6.15-4,6.12-3.23-5.71Zm0,2.66L143,45.8l2,3,2.24-3.09Zm.06,1.12,1.44,2.26-1.45,2.11-1.46-2Zm-3.23,8.18a2.26,2.26,0,1,1-2.26,2.26,2.26,2.26,0,0,1,2.26-2.26Zm5.66.12a2.26,2.26,0,1,1-2.26,2.26,2.26,2.26,0,0,1,2.26-2.26Zm-2.8,2.89a10.41,10.41,0,0,1,.3,1.05c1.24,7.5,2,15.74,3.09,23.17.24,2.78,1,6.4-2.55,7.11a3.31,3.31,0,0,1-.54.06,3.37,3.37,0,0,1-3.2-2.8,7.47,7.47,0,0,1,0-2.51c1.14-8.76,1.66-16.91,2.69-25,0-.16.21-1.07.21-1.07ZM88.32,61.27a62.09,62.09,0,0,0,18.55,3.81,9.71,9.71,0,0,1,3.23.39c4.22,1.39,7.95,2,11.39-.06l1.4,1a79.07,79.07,0,0,1-12.34,1,65.81,65.81,0,0,1-23.4-4.05,11.29,11.29,0,0,1,1.17-2.08ZM86.73,64c9.51,3.13,19.76,5.46,36.79,2.94.62.52,1,.83,1.38,1.11l-1.25.95-1.64-.1,1,1.32-.1,1.64,1.32-1,1.65.09-1-1.31.08-1.56c.83.63,1.51,1.08,4.2,3.24a74.73,74.73,0,0,1-18,2.16c-9.32,0-19-1.44-27.06-4.66l.66-1.19,1.1-1.86h0c.07.35.14.71.21,1.06l-.79,1.44L87,68l1.49.76q-.2-.8-.39-1.6l.74-1.47L87.23,66l-1.14-.62Zm58.36.4c-.17,0-.14.8.07,2.4.15,1.09.34,2.75.44,3.7.54,3.9.66,6.67,1,10.22.17,1.75-.53,3-1.85,3.39-.71.19-.75.51-.09.73a1.41,1.41,0,0,0,.49.06,2.41,2.41,0,0,0,1.94-1.2c.64-1.35.47-4.09-.74-12.3-.1-.68-.24-1.83-.31-2.54a18.28,18.28,0,0,0-.71-4.24c-.1-.15-.18-.23-.23-.22ZM90.17,66.66q.2.8.41,1.59l-.71,1.49,1.61-.43L93,70q-.25-.79-.48-1.58l.66-1.51-1.56.46-1.47-.7Zm4.44,1.17q.25.78.51,1.56l-.62,1.53,1.58-.53,1.57.57q-.3-.77-.58-1.54l.56-1.54-1.52.56Zm25.73.67-1.32,1-1.63-.13,1,1.34-.14,1.64,1.35-1,1.65.11-1-1.33q.06-.82.11-1.64Zm-18.22.07-1.48.65-1.54-.51q.29.76.6,1.53l-.52,1.56,1.55-.63,1.6.47q-.35-.75-.68-1.5l.46-1.58Zm13.63.3-1.34.92-1.61-.2.89,1.38q-.1.82-.21,1.63l1.39-.91,1.65.17-.94-1.35Q115.68,69.7,115.76,68.88Zm-9.11.1-1.43.76-1.57-.4q.34.74.71,1.48l-.41,1.59,1.5-.73,1.63.36q-.4-.72-.78-1.45Q106.47,69.78,106.65,69Zm4.54.08-1.38.85-1.59-.29q.4.72.81,1.43-.15.81-.3,1.62l1.44-.83,1.65.25-.87-1.4q.12-.81.24-1.63Zm-27,.49c14.72,5.47,28.22,5.35,41.28,3.33l-6.4,27.1Zm-1.89,1.08c.39,0,1,1.09.88,2.38-.1,1.61-.5,2.33-1.81,2.14a1,1,0,0,1-.14-1.7c.51-.37.65-.68.73-1.67S82.08,70.61,82.32,70.64Zm-2.21.75a1,1,0,0,1,.74.14c.42.51-.18,1.57-.89,1.57-.89,0-1.45-1-.79-1.43A2.15,2.15,0,0,1,80.11,71.38Zm3.81.36a.71.71,0,0,1,.33.24c1.6,1.75,1.39,5.46-.08,5.4s-1.67-1.5-.8-2.12A2.53,2.53,0,0,0,83.91,73c0-.48-.14-1.07-.14-1.14S83.83,71.73,83.91,71.75Zm45.84.35a1,1,0,0,1,.53.35,2.72,2.72,0,0,0,.7.31.86.86,0,0,1-.19,1.7c-.69,0-1.51-1.24-1.33-2,0-.29.15-.41.29-.4Zm-.92.53c.19,0,.34.19.42.63a1.53,1.53,0,0,0,1.17,1.37c1.13.36.76,2.19-.44,2.19-1,0-2.05-2.76-1.51-3.81C128.6,72.78,128.73,72.66,128.84,72.63Zm-43,.53c.15,0,.4.26.65.82.82,1.81,2,7.19-1.29,7.82a1.41,1.41,0,0,1-1.49-1.36c-.06-.66.68-1.31,1.61-1.49a11.26,11.26,0,0,0,.43-4.89c-.13-.58-.07-.88.08-.9Zm7.56,1.07,24.63,21.46,4.73-20.2C111.15,76.46,105.86,76.67,93.43,74.23Zm34.58.3c.15,0,.19.68.31,1.18.54,1.94,1.16,3,1.83,3.11,1.68.28,1.57,2.35.23,2.4h0a1.66,1.66,0,0,1-.28,0c-2.19-.35-2.83-4.08-2.53-5.67C127.79,74.81,127.92,74.54,128,74.53Zm-90.32.76a2.48,2.48,0,0,1,2.2,3.64c-.65,1.2-1.42,1-2.09-.7-.12-.21,0,.21-.23.73s-.53.87-.8.9-.65-.3-1.09-.75c-1-1-.57-2.66.8-3.46A2.45,2.45,0,0,1,37.69,75.29Zm58.09.24A92.72,92.72,0,0,0,122.1,76l-4.42,18.7Zm-64.08.21,3,1.28.24,2.26-2.08-.17Zm56.64,0c.08,0,.24.14.52.44,1.4,1.87,1.61,4.86.31,5.19s-1.41-.87-1.06-1.61A4,4,0,0,0,88.44,77C88.27,76.21,88.19,75.79,88.33,75.78Zm-44.7.09-1,3.2-2.3.66.64-2.6ZM90.46,77.7c.74-.08,2.27,3.71,1.87,4.89-.25.75-.81,1.3-1.31,1.16-1.45-.41-1.48-1.46-.71-2s.72-1.71.25-3.08a4,4,0,0,1-.25-.86.22.22,0,0,1,.14-.07Zm29.09.54a77.91,77.91,0,0,1-18,.12l15.21,13.49Zm7.52.14c.15-.05.35.2.58.93a7.38,7.38,0,0,0,1.53,2.24c.37.47-.32,1-.73,1a1.4,1.4,0,0,1-1.26-1.06c-.5-1.4-.45-3-.12-3.14Zm-63.79.85c6.91,6,15.73,12.18,14,22.31-.66,4.6-2.19,7.91-6.55,11.46a47.82,47.82,0,0,0-4.84,3.78C52.34,131.29,47.5,139.89,47.5,139.89A191,191,0,0,0,25.85,125.1a9.4,9.4,0,0,1,2.59-1.4A124.29,124.29,0,0,1,47.09,136.2c4.43-6.54,12.95-18.43,20.52-23.92,4.78-3.42,7.18-7.64,7.17-12.58,0-5.1-1.81-8.42-6.82-12.6C64.72,84.41,61.19,81,61.19,81Zm54.25.11a17.43,17.43,0,0,1-2.1,1.84c-.41.3-1,.73-1.23,1a1.13,1.13,0,0,1-.8.38,4.79,4.79,0,0,1-1.4-.45c-.64-.26-2.44-.86-3.46-1.26-1.59-.61-3.25-1.43-3.25-1.43l3.6.2s1.22.41,2,.71c2.64,1.09,2.49,1.08,3.8.08.47-.36,1.06-.93,1.06-.93Zm1.11.12-.4,2.1a11.73,11.73,0,0,1-1,.83l-1.94,1.49c-.56.43-.86.75-1.5.76s-1.75-.52-4.48-1.63l-3.23-1.29-2.46-2.18a47.47,47.47,0,0,1,4.54,1.65c.25.13.81.37,1.24.53l2.36.93c1.87.75,1.89.76,2.52.23.27-.23.93-.75,1.46-1.15l1.74-1.32c.5-.38,1.12-.95,1.12-.95Zm-4,.09s-.88.92-1.48.87a8.88,8.88,0,0,1-2.56-.84Zm-76.76.07,2.47,2.72-2.85,2.49-2.25-2.48Zm4.47.21a2.64,2.64,0,0,1,2.47,2.56,2.24,2.24,0,0,1-2.13,2.43,2.89,2.89,0,0,1-2-.74c-.7-.7-.66-1,.51-1.39.57-.21,1-.38,1-.38s-.53-.21-.92-.32c-1.12-.38-1.06-1,0-1.8a1.83,1.83,0,0,1,1.17-.36Zm-8.55.07a1.84,1.84,0,0,1,1.6.72A.84.84,0,0,1,35,81.74a9.37,9.37,0,0,1-1.34.54s1.3.25,1.67.87c.79,1.33-.66,1.63-1.67,1.66a2.46,2.46,0,0,1-1-4.68A2.52,2.52,0,0,1,33.84,79.89Zm59.1.32c.24.07.65.69,1.16,1.77,1,2.63.7,5.55-1.12,6.06a2.05,2.05,0,0,1-.71.08,1.28,1.28,0,0,1,0-2.54c1-.24,1-1.79.71-4-.06-.51-.2-1.13-.17-1.22s.1-.14.18-.11Zm33.49.48h.07a.55.55,0,0,1,.24.39A5.1,5.1,0,0,0,128,83.26c.56.45.69,1.06.31,1.44a.74.74,0,0,1-.5.22c-1.07,0-1.54-3.49-1.54-3.85s.06-.36.13-.39Zm-88.71.7a.81.81,0,1,0,.81.81A.81.81,0,0,0,37.72,81.39ZM95.17,82c.25-.05.84.5,1.21,1.25,1,2.06,1.11,3.72.17,4.46a1.51,1.51,0,0,1-.67.23c-.84,0-1.16-1-.71-1.63,1-1.49.1-2.86-.12-4C95,82.15,95.09,82.07,95.17,82Zm30.62.37c.17-.05.44.37.71,1.3.45,1.6.9,2.18,1.67,2.18a1.16,1.16,0,0,1,.69,2.18c-2,.8-2.94-2.31-3.19-4.1C125.54,83,125.62,82.47,125.79,82.42Zm-7.73.16-.32,1.7a20.86,20.86,0,0,1-2.21,1.86c-.53.38-.77.57-1.13.57a29.38,29.38,0,0,1-4.48-1.63L107.53,83s2.1.78,3.57,1.4c3.3,1.39,2.82,1.44,5.43-.55C117.27,83.23,118.05,82.58,118.05,82.58ZM97.62,84.24h.05a2.12,2.12,0,0,1,.68.64,4.45,4.45,0,0,1,1.06,3.27c-.08,1.27-.93,1.78-1.57,1.72s-1.09-.67-.36-1.66c.54-.68.53-2.1.12-3.76,0-.13,0-.2,0-.21Zm-61.18.21c.34,0,.6.45.85,1.21s.33,1,.33,1,.21-.93.27-1.13c.43-1.3,1.84-1.31,2.43.14a2.7,2.7,0,0,1-2.47,3.36,2.59,2.59,0,0,1-2.65-2.45,2.32,2.32,0,0,1,.86-2.07.66.66,0,0,1,.38-.09Zm4.21.47,2,.51.64,2.82-2.21-1Zm84.68.08s.08.06.12.18A6.58,6.58,0,0,0,127,88.08c.94.59.68,1.27-.25,1.35-1.19-.14-1.65-2.63-1.62-3.39,0-.59.14-1,.25-1Zm22.68.27,4.72,3.54.32,33.64-5.76-3.35c.3-4.28.69-9.91,1.28-15.61.49-4.45.7-6.5-.09-7.74A9.59,9.59,0,0,0,146,93.88c3-1.23,4.2-4.85.8-7.56A14.43,14.43,0,0,0,148,85.28Zm-30.5,0-.32,1.85s-1.53,1.35-2.17,1.35a11,11,0,0,1-2-.73l-1.62-1.44s1.49.65,2,.83c1.26.45,1.23.45,2.24-.38S117.51,85.32,117.51,85.32Zm-84.84.1,1.87.13.07,1.63-2.56.9Zm67,.75c.08,0,.21.1.39.35,1.32,2,2.06,6.89-.65,7.47-1.72,0-2.39-2.13-.29-2.87,1.26-.44.72-3,.49-4.5,0-.28,0-.44.06-.46Zm45.12.46a3.24,3.24,0,0,1,3.4,3.27A3.07,3.07,0,0,1,145,93.18c-2,0-3.51-1.3-3.43-3.14A3.29,3.29,0,0,1,144.83,86.63Zm-20.26.54s.09.09.13.23c.47,1.36.93,2.11,1.44,2.11a1.34,1.34,0,0,1,.73.43.85.85,0,0,1-.68,1.39c-1.39.07-1.8-2-1.81-2.86S124.45,87.13,124.56,87.17Zm21,.34c-.33,0-.42.18,0,.58a2.07,2.07,0,0,1-.92,3.6c-.83.18-.51.67.45.67a2.46,2.46,0,0,0,1.27-4.49,1.84,1.84,0,0,0-.79-.37Zm-44,.17c.12,0,.37.17.8.56,1.22,1.3,1.76,3.86.73,4.62a1.53,1.53,0,0,1-.81.33c-.74,0-1.16-.72-.51-1.59a2.39,2.39,0,0,0,.13-2c-.35-1.28-.54-1.91-.34-1.95Zm-48.61.46c.92,0,2.46,2.93,2.62,5.28.31,2.12-.34,6.68-2,7.47-.81.37-1.63-.53-1.87-1.12a14.57,14.57,0,0,1-.18-5.47c.35-2.3.9-4.41,1.13-6A.42.42,0,0,1,52.94,88.13Zm63.9.25-.35,2.4-1.85-1.57C115.83,89.73,116.84,88.39,116.84,88.39Zm-77.29,1a6.44,6.44,0,0,0,4.6,4c4,.92,7.78,5,6.72,6.65a3.58,3.58,0,0,1-1.43.16c-1,0-1.29-.26-1.87-1.35a7.29,7.29,0,0,0-4.76-3.41c-3-.9-5.5-2.62-5.38-5.79A7.41,7.41,0,0,0,39.55,89.36Zm84.41.32c.15,0,.38.49.72,1.36.47,1.15.86,1.56,1.72,1.86,1.6.56,1.46,2.39-.18,2.39-1.26,0-2.44-2.06-2.46-4.31,0-.91.05-1.33.2-1.31ZM104,89.85c.23,0,.7.68,1.22,1.71s.35,3.83-1,3.83a1.2,1.2,0,0,1-.29,0c-.71-.18-1-1.11-.13-2,.27-.35.53-.89.19-2.32-.2-.86-.16-1.22,0-1.2Zm2.13,1.74c.12,0,.34.22.64.67a7.08,7.08,0,0,1,.34,6,1.64,1.64,0,0,1-1.6,1.19A1.45,1.45,0,0,1,104.22,98c.07-.95,1.36-1.15,1.63-1.38.65-.57.57-2.21.29-4.12-.11-.57-.09-.85,0-.87Zm17.2,1.26c.17,0,.42.32.67,1.13a2.05,2.05,0,0,0,.51.87c.95.65,1.12,1.16.57,1.71-1.2,1-1.86-1.29-1.94-2.35-.07-.84,0-1.3.19-1.35Zm-97.84.29c1.8,3.63,3.67,7.33,5.76,9.65.08.16-4.55,4.69-4.55,4.69,1.7,1.57,2.69,2.52,5.06,4.7-2.31,3.33-4.13,7.69-6.13,11.33Zm1.19.14a38.28,38.28,0,0,1,5.53,2.62c.69,1.73,1.39,3.57,2.17,5.15,1.78,3.61,1.76,3.26.3,4.32-2.13,1.56-2.76,1.92-2.21,2.7.39.55,2.9,3.54,3,3.63s.13.58-.3,1.29a40.13,40.13,0,0,0-3.39,8.06l-5.26,2.64a45.72,45.72,0,0,1,5.52-10.2c.51-.66.86-1.17.86-1.17l-5-4.82,4.36-4.64a28.46,28.46,0,0,1-5.61-9.58Zm81.45.44c.11,0,.3.09.53.35,1.36,1.73,1.29,4.84.24,5.13-1.46.4-1.1-1-.86-1.61.34-.38.35-2.14,0-3.33-.09-.33,0-.5.06-.53Zm37,1a3.29,3.29,0,0,1,3.2,2.77c.12.75-1,13-1,13l-.83,8.2-.69-.49s.41-5.24.55-6.77c.24-2.83.36-5.39.61-8.27.5-5.73.41-6.58-.71-7.46-.86-.65-1.45-.35-.69.47a2.31,2.31,0,0,1,.65,1.59,24.16,24.16,0,0,1-.06,4.35c-.86,15.14-1,15.65-1.05,15.66l-1.72-1.12c.1-.23-1.58-15.26-1.41-19a2.82,2.82,0,0,1,3.15-2.94Zm-22.41.32c.15,0,.34.42.47,1.22s.35,1,.92,1.16c1.3.39,1.39,2,.1,2s-1.71-2-1.76-3.17C122.51,95.45,122.63,95.05,122.78,95.06ZM41,95.49a8.82,8.82,0,0,1,2,.68l1.52.52c1.37.46,3.34,3,2.72,3.5a4,4,0,0,1-1.71.42c-.5,0-.38-.15-.75-.53a2.89,2.89,0,0,0-1.58-1c-1.63-.51-3.43-2.8-2.74-3.49A.78.78,0,0,1,41,95.49Zm69.27.1c.06,0,.17.09.35.26,1.14,1,1.75,4.4.72,5-1.77,1.14-1.67-.58-1.12-1.52.64-1.1.11-1.93,0-3.22,0-.37-.07-.56,0-.55ZM122.1,97c.4.47.6,2,.93,2.62s.48,1.23.9,1.2c2.4-.2,2.3,2.1.92,2.54a1.67,1.67,0,0,1-.52.08c-2.46,0-3.31-6.11-2.23-6.44Zm-86.7.41,5.69,2.62-2.15,4A30.46,30.46,0,0,1,35.4,97.44Zm76.71.12c.12-.08.41.22.89.94,1.64,2.63,1.22,7.07-.67,7.07a1.22,1.22,0,0,1-.56-2.32c.74-.5.9-2.11.45-4.34C112,98.11,112,97.65,112.11,97.57Zm-34,1.66,5.93,0,20.22,18.54h-2.5l-18.8-17L78,100.75Zm36.09.15h.08a2.85,2.85,0,0,1,.9.8c1.61,1.73,1.59,4.49.25,4.54-1.16,0-1.53-.84-.85-1.52a2.75,2.75,0,0,0-.08-2.55c-.34-.76-.45-1.22-.29-1.27ZM42.81,100c.8-.06,1.34.7.74,1.58-2.64,3.84-3,10.13-1.43,13.65.43,1,.1,2-.75,2.11a1.33,1.33,0,0,1-.39,0c-1-.25-1.48-1.21-2.18-4.78-.82-4.16,1-10.92,3.17-12.19a1.56,1.56,0,0,1,.85-.35Zm77,2.48c3.38-.07,5.15,3.17,5.67,6.11.66,3.9-1.06,8.15-4.72,8.11-6-.07-7.56-12.43-1.65-14.16A5.62,5.62,0,0,1,119.78,102.47Zm-42,.47h4.68l16.26,14.9-2.3-.07L82.17,104.69l-4.85-.11Zm42.58,1.26a2.39,2.39,0,0,0-.41,0c-2.93.32-3.3,4.24-3,6.21.35,2.38,1.66,4.54,3.75,4.66,3.12.18,3.65-3.89,3.37-5.8C123.7,107,122.33,104.32,120.33,104.2Zm-43.17,1.08,4.86.14,13.51,12.4-2.88,0L80.62,107l-4.1-.21Zm42.51,0c.75-.05,1.5.89,1.37,2.1,0,.77-.21,1.63-.76,1.79s-.83-.57-1.08-.94a2.32,2.32,0,0,1-.26-2.55A1,1,0,0,1,119.66,105.28Zm-81.29.43a15.09,15.09,0,0,0-.38,5.52L35.17,108Zm92.91,2.45a132.53,132.53,0,0,0,21.54,15l-2.75,1.54a125.22,125.22,0,0,1-18.27-12.67,136,136,0,0,1-12.26,16.12c-5.32,6.58-10.81,8.75-13.09,12.08a14.48,14.48,0,0,0-.74,15.6c2.71,4.71,8,7.94,11.5,11.84l-2,1.75c-4.88-5.16-11.27-9.34-12.79-14.48a17,17,0,0,1,5.64-20c9.64-6.24,14.73-15.27,20.8-23.32C129.45,111,131.28,108.16,131.28,108.16Zm-9.22.36a.92.92,0,1,1-.92.92A.92.92,0,0,1,122.06,108.53ZM75.45,109l5,.15,9.44,8.74H87.64l-8.14-7.39-5-.08Zm43.32.13a.92.92,0,1,1-.92.92A.92.92,0,0,1,118.77,109.09Zm1.68,1a1,1,0,0,1,.64.25,3.68,3.68,0,0,1,.78,2.64c-.07.62-.38,1.1-1.05,1.12-.84,0-1.46-1.11-1.23-2.5C119.7,110.91,119.92,110.12,120.45,110.09Zm-46.75,1.2s3.39,0,5.69.11l7.92,7.08c9.1.11,21.48-.11,35.72.05l-1.58,2.23-58.55.17a34.52,34.52,0,0,1,5.42-5.15A34,34,0,0,0,73.71,111.29Zm-35.52,1.24A16.78,16.78,0,0,0,39.48,117l-4.81,2.51A25.09,25.09,0,0,1,38.19,112.53Zm114.21,11.86a40.7,40.7,0,0,1-6.85,11.53,30.57,30.57,0,0,1,5.22,4.89,37.88,37.88,0,0,1-4.4,4.46,29.12,29.12,0,0,1,6.07,10.06l-6.52-3.24s-1.79-3.77-2.61-5.18c-.56-1-1.7-1.93-.53-2.58,2-1.33,3.07-2.09,3.06-2.92,0-.67-.84-1.35-2-2.67-1.61-1.89-1.59-1.46-.13-4.34a32.61,32.61,0,0,0,2.07-6.61Zm.67.11.1,30.15a61.59,61.59,0,0,0-5.54-9.33l4.24-4.46a45.35,45.35,0,0,0-5.11-5c2.73-3,4.52-7.3,6.31-11.32ZM25.66,125.8l6.11,3.8c-.65,5.47-1.06,11-1.8,16.42-.45,5.17-1.44,6.66,2,8.85-3.81,1.81-2.69,5.86-.34,7.49l-1.21.67a36.2,36.2,0,0,1-4.85-3.77Zm89.77,2.57s-3.65,3.25-4.95,4.16a29.49,29.49,0,0,0-6.21,5.27h0l-5.35-.16S93.66,133,91,130.49H73.1c-9.85,0-17.94,0-18-.08a11.09,11.09,0,0,1,1.27-2Zm27.76.82a46.08,46.08,0,0,1-2.72,6.38,21.62,21.62,0,0,0-1.38-4.2Zm-110.88.65.4.3s-.12,2.29-.27,3.69c-.36,3.16-.56,5.92-.86,9.08-.68,7-.52,9.24.75,9.89,1,.5,1.4.21.68-.48-1.38-1.07-1.34-1.51.14-18.8.15-1.79.21-3.05.21-3.05l1.87,1.17s.14,1.48.32,3.72c.42,4.21.67,8.71.95,12.75.3,4.31-.5,5.82-3.17,5.92a4.43,4.43,0,0,1-1.3-.13c-1.6-.45-2.18-2.06-1.87-5,.42-4,.91-8.43,1.31-12.09.46-4.23.84-6.92.84-6.92Zm58.42.86,8.12,7.38,5.15.19L103,140l-5.19,0-9.91-9.33Zm-16.28.08,1.89,0,18.48,16.87h5.75v1.45l-6-.21Zm4.58,0h2.79L96.29,144l4.94.14-.3,1.6-5.66-.12c-5.16-4.7-10.71-9.09-16.24-14.81Zm3.84,0H85c4.08,3.68,8.13,7.73,11.86,10.88l5.16.2-.6,1.6-5-.11Zm54.38.28a2,2,0,0,1,1.65,1.26,11,11,0,0,1,.94,6.57c-.56,3.18-1.55,8.64-4.38,9.18-1,.19-.68-1.73-.29-2.24a14.53,14.53,0,0,0,1.51-12.34C136.07,131.91,136.55,131.14,137.25,131.12Zm-79.43.82c5.28.26,7.11,11.43,1.59,14.3a5.63,5.63,0,0,1-2,.31c-4.2-.15-5.4-6.16-4.69-9.46.61-2.86,1.74-4.28,3.34-4.87a4.39,4.39,0,0,1,1.75-.29Zm-.36,1.73a3.31,3.31,0,0,0-.52,0c-2.11.21-3.09,2.71-2.89,5.72.18,2.83,1.33,5.5,3.67,5.49,3.06-.12,3.31-4.28,3.22-5.86-.21-2.13-1-5.21-3.48-5.36ZM57.38,135c1-.05,1.49,1.53.67,2.94-.23.42-.46.54-.66.51s-.63-.56-.82-.92C56.05,136.47,55.77,135.08,57.38,135Zm1.92,3.08a.92.92,0,1,1-.92.92A.92.92,0,0,1,59.29,138.07Zm81.3.44,2.08,2.65-2.9,1.94A25.36,25.36,0,0,0,140.59,138.5Zm-84.54.19a.92.92,0,1,1-.92.92A.92.92,0,0,1,56.06,138.69Zm1.81,1.19A2.42,2.42,0,0,1,59.2,142c.06.77-.61,1.57-1.27,1.41-1.2-.29-1.12-2.65-.55-3.38a.47.47,0,0,1,.49-.15ZM66,143.34a1.15,1.15,0,0,1,1,.63,1.35,1.35,0,0,1-.72,1.94c-1,.46-1.34,2.51-.72,4.51,0,.29.42,1,.2,1.14h0a.19.19,0,0,1-.14,0c-.72-.28-1.64-2.6-1.74-4.43,0-1.32.2-3,1.34-3.6a1.59,1.59,0,0,1,.8-.19Zm-3.07.83a.75.75,0,0,1,.74.57,2.89,2.89,0,0,1-.47,1.33,4.57,4.57,0,0,0,.22,2.79c.17.44.32.82.2.83a2.65,2.65,0,0,1-.67-.55c-1.33-1.29-1.9-3.62-1.1-4.48a1.43,1.43,0,0,1,1.08-.48Zm76.1.58a23.22,23.22,0,0,1,3.52,5.85l-5.31-2.7A13.1,13.1,0,0,0,139.06,144.75Zm-85.43.91a2,2,0,0,1,1.26.57c1.24,1.17,2,5,1.07,5.38a11.25,11.25,0,0,1-.41-1.5c-.3-1.35-1.22-2.34-2.05-2.22-.56.07-1.33-.1-1.41-.77a1.1,1.1,0,0,1,.74-1.34A1.81,1.81,0,0,1,53.62,145.66ZM67,147.58a1.67,1.67,0,0,1,.75.22.86.86,0,0,1,.2,1.46,3,3,0,0,0-.38,2.74c.16.76.35,1.39.35,1.39-.46-.17-1.36-1.85-1.42-2-.18-.5-.91-3.82.5-3.82Zm58.66.05c1.83.07,2.47,5.76.65,9.59a2.82,2.82,0,0,0-.33,1.74c.08.89-.06,1.41-.4,1.42-1.94-.66-2.61-4.37-2.68-5.67-.09-2.27,1-6,1.91-6.74a1.31,1.31,0,0,1,.85-.33Zm7.78.06c.25,0,.42.07.74.35a3.45,3.45,0,0,0,1.48.87c1.88.29,2.9,3.62,1.87,3.81h0a.57.57,0,0,1-.23,0,11.31,11.31,0,0,1-5.65-3c-.88-.94-.84-1.7.54-1.79.67-.1,1-.2,1.26-.21Zm-4.66.44a6.57,6.57,0,0,1,.83,0,3,3,0,0,1,.75.88,9.9,9.9,0,0,0,6.13,4.26c2.17.56,4.11,3.24,4.52,4.49.11.33.11.58-.18.66a6,6,0,0,1-1.34.29c-.51,0-.71-.24-1-.86a5.22,5.22,0,0,0-2-2c-1.82-.9-3.74-1.6-5.54-2.5-2.34-1.18-4.43-4.77-3-5.15A4.38,4.38,0,0,1,128.74,148.14Zm-69.41.57L91.84,178a76.38,76.38,0,0,0-39.24-2.36S59.18,148.72,59.32,148.71Zm12.94.44a1,1,0,0,1,.48.1c1.31.57,1.15,2-.46,2.84-1.21.66-.35,4.61-.6,4.63h0a1.53,1.53,0,0,1-.57-.47c-1.58-1.88-1.26-6.27.5-6.93a2.39,2.39,0,0,1,.65-.18Zm-3.09.13a1.06,1.06,0,0,1,.65,1.86c-.72.52-.52,1.82,0,3.17.26.65.26,1,.1,1h0c-.27,0-.9-.7-1.45-1.79-.71-1.41-.78-3.19-.15-3.82a1.21,1.21,0,0,1,.83-.39ZM54,149.75a1.59,1.59,0,0,1,1.2.75,5.39,5.39,0,0,1,.57,2.48c.06,1.06,0,1.59-.2,1.58s-.36-.45-.57-1.33c-.27-1.11-.46-1.39-1.1-1.67-1-.44-1-1.43,0-1.79l.15,0Zm6.77,2.31c-2.24,6.91-5.51,21.25-5.52,21.3.36-.29,15.85-2.5,30.39,1-8.11-6.7-15.43-13.89-24.87-22.27Zm-7.25.17c.83-.07,1.53,1.47,1.53,3.7,0,.66-.08,1-.21,1s-.39-.43-.67-1.28c-.4-1.2-.45-1.29-.91-1.53-.77-.4-.89-1-.33-1.56a1,1,0,0,1,.59-.31Zm7.47.93L83,173a97,97,0,0,0-27-.53Zm12.55.16c.92-.07,1.49.95.69,1.84-.43.48-.43.48-.44,1.93,0,1,0,1.41-.19,1.44s-.24-.11-.45-.34c-1.29-1.38-1.45-3.92-.29-4.63a1.5,1.5,0,0,1,.68-.23Zm-21.89.38a2.78,2.78,0,0,1,.68.13c.93.25,2.21,3.41,2,5-.09.76-.19,1.13-.33,1.13s-.31-.39-.55-1.16c-.64-2.1-1.2-2.89-2-2.89a1.07,1.07,0,0,1-.38-2.1,1.77,1.77,0,0,1,.58-.12Zm27.23,1.12a1.54,1.54,0,0,1,1,.28c1.07.72.48,2.15-.92,2.22-.88,0-1.25,2.91-.75,4.72.08.28.06.46-.08.48h0a1,1,0,0,1-.64-.41c-.76-.83-1-1.65-.9-3.68.15-1.44.08-2.52,1.26-3.33a2,2,0,0,1,1.06-.29Zm-3.37.36c2.06.68.45,1.9.41,2.22a8.12,8.12,0,0,0,.44,3.34c0,.27,0,.36-.12.36s-.49-.26-.61-.39c-1.76-1.76-1.84-5.53-.12-5.53Zm-41.78.08a3.22,3.22,0,0,1,3.14,3.37,3.34,3.34,0,0,1-3.46,3.24,3.14,3.14,0,0,1-3.27-3.27,3.42,3.42,0,0,1,2-3.12,4.91,4.91,0,0,1,1.58-.22Zm-.43.76c-1.9.07-2.93,3.05-1,4.39a2.2,2.2,0,0,0,1,.47c.37,0,.34-.36-.33-.94a1.68,1.68,0,0,1,.93-3c.72,0,.89-.49.27-.74A2.08,2.08,0,0,0,33.3,156Zm28.55.08L58.3,170a111.29,111.29,0,0,1,19,.15Zm-10,1.22c.68,0,1.28,1,1.51,2.64,0,.25.45,2.24.16,2.26s-.48-.44-.66-1.16a2.65,2.65,0,0,0-1.2-1.92c-.74-.38-1-1.1-.51-1.53A1,1,0,0,1,51.87,157.31Zm10.49.44c.18,0,.41.13.76.43s1,1,1,1c-.61-.1-1.15-.41-1.67-.16a2.89,2.89,0,0,0-1.09,1,12.62,12.62,0,0,1,.5-1.72c.15-.35.28-.53.46-.55Zm17.46,1c.82.05,1.33,1.3.45,2.25-.31.33-.31.36-.24,1.84.05,1,.06,1.43-.1,1.44s-.24-.13-.47-.36c-1-1-1.36-3.93-.52-4.76a1.15,1.15,0,0,1,.88-.4Zm60.79.52.35,0a2.16,2.16,0,0,1,2.07,2.29,2.25,2.25,0,0,1-.74,1.68c-.31.22-.56.13-.83-.32s-.68-1.42-.68-1.42a8.26,8.26,0,0,1-.16,1.53.79.79,0,0,1-.7.67,1.12,1.12,0,0,1-.69-.25,2.37,2.37,0,0,1-.65-3.05,2.14,2.14,0,0,1,2-1.14Zm-89.43.33c.76-.07,1.87,1.85,1.87,3.68,0,.64-.15,1.07-.31,1.11s-.19-.1-.26-.4c-.34-1.55-.84-2.67-1.25-2.84a.81.81,0,0,1-.51-1.15A.58.58,0,0,1,51.18,159.64Zm12,.06h.33a5.28,5.28,0,0,1,1.83.66l2.25,1.92a33.57,33.57,0,0,1-3.66-1.22,1.25,1.25,0,0,0-1.46.38c-.57.52-1,.91-1.66,1.48l.34-1.53c.67-1.15,1.3-1.64,2-1.68Zm72.16.6,2.11.82.52,2.39-1.89-.64Zm-49.94.05h0a1.54,1.54,0,0,1,1,.53c.75.84.52,1.68-.6,2.17s-1.3,1.55-.86,4.2c.15.92.14,1.38,0,1.37s-.38-.29-.73-.87c-1.26-2.09-1.19-6.05.12-7.06a1.57,1.57,0,0,1,1.09-.34Zm61.09.29-.61,2.23L143,164l.82-2.7Zm-96.9.07c1.27.12,2.57,2.27,2.69,4.83,0,.94,0,1.41-.09,1.42s-.32-.45-.64-1.36c-.72-2-1.34-2.86-2.08-2.86a1,1,0,0,1-.69-1.8,1.23,1.23,0,0,1,.56-.22h.25Zm32.55,0c.79.11,1.16,1,.46,1.81s-.57,1.83.29,4c.13.31.09.47,0,.49h-.06a2.19,2.19,0,0,1-1-.88c-1.42-1.89-1.67-4.72-.46-5.27a1.69,1.69,0,0,1,.46-.14,1.27,1.27,0,0,1,.36,0Zm-18.41,1a2.18,2.18,0,0,1,.58.13c1.37.47,2.73.9,4.16,1.34l3.3,2.73L64.21,163s-.65-.19-.88,0c-1,1-2.07,1.75-3.47,2.93h0l.43-1.65s1-1,1.7-1.58,1.21-1,1.72-1ZM33.35,162.8a3.5,3.5,0,0,1,2.64.92c1.09,1.11,1.25,2.33.82,5.5-.8,6.27-.78,8-1.62,14.61-.29,2.74-.63,5.31-1,8-.11,1-.37,2.28-.37,2.28s-.42-1.88-.62-3.58c-.07-.62-.27-2.15-.43-3.42-.48-3.74-.76-6.82-1.23-10.26-1.16-8.47-1.43-11.18-1.15-11.9a3.1,3.1,0,0,1,3-2.17Zm107.92.78,2.36,2.78-3.14,2.54-2.34-2.69Zm-107.72.05a2.18,2.18,0,0,0-.51.11c-1.3.36-1.84,1.4-1.83,3.51a36.47,36.47,0,0,0,.53,5.76c.17,1.37.41,3.3.53,4.29.84,7.06,1,8.52,1.28,8.48h0s.09-.07.15-.16c.18-.28,0-2.15-.64-8.08-1.27-11.33-1.27-11.57.28-12.76.76-.59.88-.82.51-1A.61.61,0,0,0,33.55,163.63Zm30.47,0a7.35,7.35,0,0,1,1.39.47c5.37,2.09,8,3.45,8,3.45l1.09,1s-1.4-.4-2.32-.77c-1.89-.69-3.77-1.48-5.59-2.2-2.32-.92-2.2-.95-4.42,1a33.79,33.79,0,0,1-3,2.48l.5-1.85a33.7,33.7,0,0,1,4-3.47,1.09,1.09,0,0,1,.21-.1.48.48,0,0,1,.18,0Zm72.35.2a2,2,0,0,1,1.36.52c.51.51.58.94.23,1.2a4.36,4.36,0,0,1-1.83.41,14,14,0,0,1,1.69.69c1,.59.14,1.9-1.51,2-2.61.11-3.22-3.45-.92-4.62A2.62,2.62,0,0,1,136.37,163.84Zm9,.08a2.33,2.33,0,0,1,1.79,4,2.24,2.24,0,0,1-3.46-.21c-.26-.44-.14-.76.36-1a12.87,12.87,0,0,1,1.76-.46,10.6,10.6,0,0,1-1.79-.46c-.85-.37-.78-1.06.46-1.65A2.48,2.48,0,0,1,145.35,163.92ZM50,164.18c.49.05.65.75.89,1.25.56,1.17,1.23,2.76.7,3.47a11.3,11.3,0,0,0-1.78-3.05c-.66-.63-.82-1.12-.43-1.47a1,1,0,0,1,.62-.19Zm36.92,1.13c.87.11,1.59,1.06.86,1.66-.9.24-.74,1.35-.75,2,0,1-.05,1.37-.21,1.38s-.23-.13-.44-.37c-1.25-1.49-1.39-3.78-.27-4.47a1.19,1.19,0,0,1,.42-.16,1.29,1.29,0,0,1,.38,0Zm54,.13a.81.81,0,0,0-.81.81h0a.81.81,0,0,0,.81.81h0a.81.81,0,0,0,0-1.63Zm-76.49.16a1.5,1.5,0,0,1,.45.1c2.89,1,5.54,2.17,8.35,3.32H70.7s-1.21-.39-3-1.14c-2.08-.86-2.62-1.13-3.42-.6s-1.41,1.29-2.25,1.78h0l-1.41,0a22.49,22.49,0,0,1,3.55-3.36.62.62,0,0,1,.26-.07Zm-14.83.66c.14,0,.26.16.43.38a6.58,6.58,0,0,1,1,3.21c.07,1.11,0,1.69-.14,1.69s-.3-.34-.51-1.05c-.53-1.76-.76-2.21-1.25-2.44a.9.9,0,0,1-.1-1.68A.8.8,0,0,1,49.58,166.26Zm43.07.86a1.43,1.43,0,0,1,1.09.52c.86.87.65,1.55-.63,2-1.09.4-1.45,1.65-1.11,3.92.13.91.14,1.35,0,1.36s-.43-.32-.88-1c-1.33-2-.87-5.73.8-6.61A1.81,1.81,0,0,1,92.64,167.12Zm-3.77.16a1.22,1.22,0,0,1,.58.24c.74.51.79,1.27.12,1.62s-.68,1-.19,2.37c.37,1,.47,1.47.28,1.46s-.4-.24-.82-.69c-1.37-1.45-1.77-3.47-.87-4.47C88.31,167.43,88.58,167.26,88.87,167.28Zm-23.68.41a3.83,3.83,0,0,1,1.13.33c.91.38,2.61,1.05,2.61,1.05h-6s.89-.74,1.57-1.2A1.1,1.1,0,0,1,65.19,167.69Zm-17.66.17a2.14,2.14,0,0,1,1.57.93c1.14,1.67,1.91,5.53,1.11,5.53a5.12,5.12,0,0,1-.75-1.93,4.73,4.73,0,0,0-1.31-2.28c-1.6-.27-2.28-1.16-1.49-2a1.11,1.11,0,0,1,.87-.29Zm95.38.54,3.22.83,1.16,3.24-3.23-1.34Zm-4.38.06-1,2.94-2.48.71,1-2.72Zm3.44.37c.68.07,1.43,1.21,1.24,2.34a2.53,2.53,0,0,1-2.49,2.22,2.14,2.14,0,0,1-2.13-1.87c-.27-1.46.55-2.52,1.25-2.35s1,1.49,1,1.49a5.39,5.39,0,0,1,.49-1.48A.64.64,0,0,1,142,168.84ZM94.2,171.46c.82.08,1.18,1.29.31,2.38-.3.38-.35,1.07-.17,2.61.06.55,0,.83-.08.84s-.38-.25-.77-.77c-1.33-1.8-1.44-3.81-.24-4.73a1.36,1.36,0,0,1,1-.34Zm-46.46.42c.79-.07,1.4.65,1.78,2.15.29,1.13.23,1.71,0,1.69s-.56-.41-1-1.21c-.25-.51-.4-.66-.83-.81-1-.37-1.2-1.42-.31-1.73a1.45,1.45,0,0,1,.35-.08Zm48.55,1.61a1,1,0,0,1,.84,1.62,1.31,1.31,0,0,1-.5.39c-.58.19-.72,1.11-.4,2.71,0,.24,0,.34-.12.34-.29,0-.94-.63-1.21-1.35-.53-1.41-.29-3,.55-3.49a1.42,1.42,0,0,1,.86-.22Zm-49.37,1.06c.71,0,1.75,1.08,1.5,1.87,0,.15-.09.22-.21.23a2.88,2.88,0,0,1-1-.38c-.85-.42-1.15-1-.74-1.52A.54.54,0,0,1,46.91,174.54Zm21.07.19c9,.1,18.34,1.65,25.25,4.72a6.6,6.6,0,0,1,.74.49,40,40,0,0,1-2,3.55q-.12-.78-.25-1.55l.84-1.41-1.65.28L89.45,180q.18.81.34,1.61L89,183l1.59-.32,1.35.81-.65,1.06c-11-3.94-22.44-5.05-36.26-2.93-.49-.32-1-.65-1.44-1l.81-.73,1.63,0L55,178.68c0-.55,0-1.1,0-1.65l-1.26,1.09-1.66.05,1.11,1.22c0,.33,0,.65,0,1-1.51-1.11-3-2.29-4.44-3.26A65.79,65.79,0,0,1,68,174.73Zm1.22,1-1.45.84-1.66-.23q.46.69.89,1.38-.11.81-.22,1.63l1.37-.86,1.37.24.22,0-.21-.38-.6-1.05q.14-.81.29-1.62Zm-4.79.12-1.38.94-1.66-.12,1,1.32q-.06.82-.11,1.64l1.31-1,1.61.16q-.45-.68-.92-1.36.08-.82.17-1.64Zm33.8.08h.25c.55.07,1,.51.84,1.08a3,3,0,0,1-1.63.86c-.63,0-.74-1.06-.17-1.63a1.11,1.11,0,0,1,.71-.32ZM74,176l-1.51.73-1.63-.36q.4.72.78,1.45-.18.8-.35,1.61l1.43-.76,1.56.41q-.34-.74-.7-1.48.2-.8.42-1.59Zm-14.34.3-1.31,1-1.67,0,1.06,1.27q0,.82,0,1.65l1.26-1,1.62.06-1-1.3q0-.82.07-1.65Zm19.09.33-1.56.61-1.6-.48q.34.75.67,1.51l-.47,1.57,1.48-.64,1.53.52q-.28-.77-.59-1.53Zm1.54.87q.29.78.56,1.55l-.59,1.54,1.53-.53,1.49.63q-.23-.79-.48-1.57l.65-1.51-1.6.5Zm4.63,1.08q.23.79.45,1.59l-.69,1.49,1.56-.43,1.44.74q-.18-.8-.37-1.6l.75-1.47-1.63.39-1.52-.71Zm-17.55,2.54c7.76,0,17,1.22,23.66,4l-.84,1.75s-11-3.64-19.41-3.47a6.77,6.77,0,0,1-3-.49c-.91-.3-2.34-.7-3.18-.89a11.85,11.85,0,0,0-6.87.46c-.32.13-.78.52-1.25.38-.29-.09-.7-.66-.7-.66a47.81,47.81,0,0,1,11.55-1.12Zm29.07,11.45,3.22,1.66-19.1,34.22-4.29,0ZM31,192.81a2.26,2.26,0,1,1-2.26,2.26A2.26,2.26,0,0,1,31,192.81Zm5.55.05a2.21,2.21,0,1,1-2.21,2.21A2.21,2.21,0,0,1,36.54,192.86Zm63.74,1.73,2,.79s-.19.1-.18,1.53a4.29,4.29,0,0,0,1,3.1c.58.78.82.83-.87.59a4.46,4.46,0,0,0-4.55,6.24c.53,1.14.45,1.2-.95,1.34a4.52,4.52,0,0,0-2.63,7.74c.56.51.31.84-.74.61-3.34-.72-5.93,3-4.6,5.9.43.81,0,.95-.57,1a4.68,4.68,0,0,0-3.74,5.14h0l-3.21-.06Zm2.7,1.07a42.39,42.39,0,0,0,6.42,1.73,58.32,58.32,0,0,0,.68,31.19H95.24c2-3.06-1.53-4.88-2-4.66,3.2-1.75,2.32-4.22.66-5.07s-4-.08-3.39,3.48l-.79.35c-.77-.88-1.54-6.31,4.35-5.55,1,.13,1.62-.85.74-1.39-4.66-5.37,2.63-7.74,3-6.85l0,.91c-2-.36-4.5,2.18-2.28,4.45,1.26,1.29,4.91.66,4.28-3.25,2.16,3.23,4.51,2.25,5.14.55a2.56,2.56,0,0,0-2.28-3.44c2.4-2,1.24-4.26-.41-4.76-1.82-.55-3.68.2-3.18,3.51,0,.31-.66.21-.72.23-1.88-4.71,2.62-6.44,5-5.47.9.35,1.37-1,.42-1.75-1.45-1.08-1-4.17-.83-4.2Zm-69.19.57,3.25,6.62-3.73,6.24-3.41-6ZM33.6,199l-2.48,3.87,2.26,4.17,2.4-4Zm0,1.5,1.25,2.58-1.52,2.26L32.1,203Zm66.11,7a1.27,1.27,0,1,1-1.27,1.28A1.27,1.27,0,0,1,99.71,207.57ZM91.12,223a1.37,1.37,0,1,1-1.37,1.38A1.37,1.37,0,0,1,91.12,223Zm-2,.91a5.66,5.66,0,0,0,.16,1.55c-1.23.28-2.86-.06-2.91,3.11H85.06a4.28,4.28,0,0,1,4.1-4.66Z"/>
  <path d="M130.7,223.29c7.38-10.53,15.28-16.58,15.41-24.79,0-2.66-1.39-7.18-5.9-8-2.92-.56-6.94,1.81-7,6.61,0,1-1,.93-1-.38a27.26,27.26,0,0,1,3.35-11.79h-9.67a27.26,27.26,0,0,1,3.35,11.79c0,1.31-1,1.34-1,.38-.08-4.8-4.11-7.17-7-6.61-4.5.87-5.94,5.38-5.9,8,.13,8.21,8,14.27,15.41,24.79Z"/>
  <path d="M47.88,26.16C55.26,36.68,63.16,42.74,63.29,51c0,2.66-1.39,7.18-5.9,8-2.92.56-6.94-1.81-7-6.61,0-1-1-.93-1,.38a27.26,27.26,0,0,0,3.35,11.79H43A27.26,27.26,0,0,0,46.4,52.76c0-1.31-1-1.34-1-.38-.08,4.8-4.11,7.17-7,6.61-4.5-.87-5.94-5.38-5.9-8,.13-8.21,8-14.27,15.41-24.79Z"/>
</svg>
