<svg xmlns="http://www.w3.org/2000/svg" viewBox="0 0 178.58 249.45">
  <title>S13</title>
  <path d="M13.72,43.2c-3.45,4.39-7.14,6.91-7.2,10.33a3.32,3.32,0,0,0,2.76,3.35,2.86,2.86,0,0,0,3.28-2.75c0-.4.47-.39.47.16a10.45,10.45,0,0,1-1.57,4.91H16a10.45,10.45,0,0,1-1.57-4.91c0-.55.47-.56.47-.16a2.86,2.86,0,0,0,3.28,2.75,3.32,3.32,0,0,0,2.76-3.35c-.06-3.42-3.75-5.95-7.2-10.33Z"/>
  <path d="M164.76,212.69c-3.45-4.39-7.14-6.91-7.2-10.33a3.32,3.32,0,0,1,2.76-3.35,2.86,2.86,0,0,1,3.28,2.75c0,.4.47.39.47-.16a10.45,10.45,0,0,0-1.57-4.91H167a10.45,10.45,0,0,0-1.57,4.91c0,.55.47.56.47.16A2.86,2.86,0,0,1,169.2,199a3.32,3.32,0,0,1,2.76,3.35c-.06,3.42-3.75,5.95-7.2,10.33Z"/>
  <path d="M14.36,37.78H17L13.11,28l-3,4.12,0,5.63h2.09v2.9H4.87v-2.9H7.3v-21H4.87V14.29h7.48v2.62H10.29l0,10.22,6.53-10.3H14.47V14.29h8v2.54h-2.1L15,25.25l5.27,12.54h2.34v2.9H14.38l0-2.91Z"/>
  <path d="M164.12,218.11h-2.66l3.9,9.75,3-4.12,0-5.63h-2.09v-2.9h7.38v2.9h-2.43v21h2.43v2.54h-7.48V239h2.07l0-10.22-6.53,10.3H164v2.54h-8v-2.54h2.1l5.38-8.42-5.27-12.54h-2.34v-2.9h8.19l0,2.91Z"/>
  <path d="M23.64,22.34h131.2v211.2H23.64ZM116.76,232.2c-4.88-8.89-12.59-23.36-12.82-23.47-2.85,1.53-31.93,5.44-45.91,1.65-4.78,7.22-9.48,14.36-13.64,21.52ZM72.11,205.62c-.73,0-1.55.46-1.4.07.09-.23.29-2.5.38-3.32.22-.36.53.59.49,1.47,0,.51.22.14,1.88.23a23.29,23.29,0,0,1,3.87.56c2.12.46,6.22.13,8-1.15,1-.69,1.31.06.33.8-4.43,3.37-7.93,2.08-11.78,1.52a5.73,5.73,0,0,0-1.75-.19ZM74,202.43a.69.69,0,0,0-.81,0c-1.36.64-1-.28,0-1.2.45-.42.43-.63.09-1.07-.17-.22-.46-.25-.39-.59.29-1.44,2.31-3.62,4.57-4.6.94-.41,1.09,0-.1.74-1.82,1.08-2.41,2-1.38,1.62,2-.72,3.83-.21,6.39,1.07a2.55,2.55,0,0,0,1.69.37c.46-.38.87.08,1.16.32s.22.21.42.17c1.46-.34.58.59-1.41,2-3.57,2.53-7.46,3.72-10.2,1.16Zm5.49.62a12.83,12.83,0,0,0,4.32-2.32c1.33-1.17.58-1-.95-.25a11.91,11.91,0,0,1-6.23,1.31c-2.08,0-2-.13-2.09.13-.27.91,2.59,1.84,4.93,1.13Zm-4-3.56a1.94,1.94,0,0,0,.1-1.08c-.19-.31-.6-.08-1.13.58-.32.41-.28.47,0,.79l.38.25c.44.19.51-.22.61-.54Zm.91.54c.64-2.18,2.07-2.14,3.09-.05h.72c-1.48-4.06-4.34-2-4.43,0a1.19,1.19,0,0,0,.63,0Zm5.34-.37c.67-.38.58-.63-.28-1.08-.61-.32-.93-.38-1-.18a2.79,2.79,0,0,0,.29,1.45C80.92,200,81.29,199.86,81.7,199.67Zm-9.46-6.2c-.12-.2-.1-.58.37-.8,2.89-1.34.79-4.18-1.45-2.05a2.64,2.64,0,0,1-2.58.51c-.77-.33-.78-1.27.24-1.47a5.46,5.46,0,0,0,1.51-.47c3.88-2.08,5.95,2.45,3.19,4-.57.33-1.17.52-1.28.33Zm-10.88-4.11a2.48,2.48,0,0,1-.31-4.17c.94-.64,1.9-.82,4.49.46,1.83.91,2.88-.07,2.83,1,0,.64-.07,1.29-1.13,1.44-1.73.25-2.91-2.1-5.13-1.88a1.26,1.26,0,0,0-.24,2.47c1.54.52.61,1.14-.5.68Zm28.86.37c-.21,0-.3-.57-.18-.85.78-1.88,1.51-3.36,2.23-5.11.57-1.4,1-2,1.21-2s.38.21-.05,1.07c-.59,1.56-2.67,6-3,6.77a.17.17,0,0,1-.19.13Zm-12.82-.5c-.7-.5-.58-1.24.21-.68,1,.72,2.69-.6,2.35-1.84-.41-1.5-2.4-1.86-4.06-.52-2.62,2.12-5.51,2.23-5.51.57,0-.47-.06-.58,1-.65a8.55,8.55,0,0,0,3.41-1.1c3.19-2,6.59-.6,5.89,2.65A2.34,2.34,0,0,1,77.4,189.23Zm-12.58-4.65c-.27-.2-.23-.78-.45-1.39-.39-1.1,0-.75.67-.46.93.36,1.81-.94,2.59-1.21a5.61,5.61,0,0,1,3.56,0c1.36.18,2.13,1.35,3.37,1s1-.27.76.56a5.32,5.32,0,0,1-.5,1.45c-.93-.52-1.63-1.11-2.24-.76-1,.44-1.66-.32-2.48-.57-.77-.44-1.28,0-1.9.38-1.07.52-1.54.1-2.15.07s-1.09,1-1.22.92Zm20.89-2.43c.19-.33.46-.79.72-1.3,2.07-4.13,2.22-5.28.75-6.67-2-1.87-3.64-1.06-5.53,2.67-.46.91-.73,1.59-.92,1.87s-.46.07-.58-.05,1.86-4.2,2.68-5.07a3.46,3.46,0,0,1,5.88,2.63c-.13,1.55-.42,2.4-1.84,5.25-.35.7-.65,1.3-.84,1.59-.66.45-.51-.58-.32-.92Zm-19.47-.86c.33-1.47,5-2.15,6.27-.22.12.19,0,.18-.48,0-2.39-.79-2.87-.75-5.16.16-.34.13-.59.19-.63,0Zm17.87.42a4.42,4.42,0,0,1,.44-1.21c1.57-3.11,2-3.86,1.52-4.44-.93-1.13-2.18-.15-3.33,3.1-.43,1.21-.72,1-.93.76-.4-.37,1.38-4.14,2.23-4.71,1.94-1.24,3.47.2,2.62,2.73-.67,1.14-1.22,2.91-1.85,3.83-.3.42-.7.29-.7-.07Zm-7-5c-.09-.16.09-.37.76-1.81.93-2,1.21-2.73.84-3.86a2.94,2.94,0,0,0-4.73-1.19,4.35,4.35,0,0,0-1.08,1.55,26.3,26.3,0,0,1-1.35,3.16c-.29.29-.69.35-.66-.16a16.79,16.79,0,0,1,1.4-3.48c2.15-4.69,8.35-2.52,6.9,2.42a12.9,12.9,0,0,1-1.53,3.59A.32.32,0,0,1,77.07,176.65Zm-1.44-.86a8.56,8.56,0,0,1,.48-1.21c1-2.6,1.06-3.4-.47-3.43-.91.12-1.05.49-1.85,2.55a8.31,8.31,0,0,1-.56,1.34c-.17.22-.48.09-.61,0-.33-.34,1.1-3.7,1.86-4.34,1.74-1.52,4,.64,2.94,2.57a13.9,13.9,0,0,1-1.21,2.69c-.26.37-.58.32-.58-.14Zm-37-30.33-5.29-.36a47.57,47.57,0,0,1,0,16.34,32,32,0,0,0-.58,9.86c.28,3.82,1.89,7.06,2.3,11.11a31,31,0,0,1-.93,8.92c-1,4.88-.77,5.39-.63,11.12.13,5.31-.36,5.12-.66,4.81a13.43,13.43,0,0,1-.08-2.1c0-1.12-.06-3.85-.13-5.74a38.92,38.92,0,0,1,.6-8.51c.62-2.8,1.31-5.67.89-8.78-.87-3.92-2.1-7.83-2.53-11.6-.53-4.65.77-9.32,1.2-12.7s0-8.91-.88-11.26a6.13,6.13,0,0,0-.84-1.8c-.83-.1-2-.16-2.71-.22-.06,22.41,0,44.83,0,67.25l4.93,4.59,5.06-4.83ZM39,171.17s7.52,4.35,15.81,8.62c-.79-4.89,1.71-5.63,4.07-6.19-.56-9.44,8.05-7.51,9.37.7H69c1.49-4.09,3-6.92,6.37-7.59,2.63-.52,5.23,1.15,5.89,5.1-.12-.28,8.73-5.22,9,5.22,4-2.51,6.89-.34,8,2.84,1.7-2.6,5.94-2.71,7.3-2.9-.07-.59,4.94-1.56,7.18-.79,2.74-.36,3.88,1.86,5.24,2.48,2.85-.81,10.49-3.5,9.84-4.89a3,3,0,0,0,.9.67,9.42,9.42,0,0,0,1.8-.9c-11-12.72-20-37.66-14-60.62-.85-.76.77-.13.39,0,0,0-2.09,10.23-1.84,14.65,24.61,11.77,21.58,36.57,15.29,44.74l1,1.34c.44.3,19.38-10.8,18.76-11.25l3.58-1.79-.58-48.48L139,111a1.28,1.28,0,0,1,.33-.51c.13-3-.13-7.34,0-11,.06-10.47.16-14,0-14.32C135,82.28,128.48,78,123,76a18.47,18.47,0,0,1-.26,4.58c-5.13,1.65-2.75,3.75-4.65,6a4.08,4.08,0,0,1-5.7,0c-1.72-1.67-2.53-5.51-2.53-5.51-2.72,2.92-2.16,6.44-5.79,7.77-5.84,2.91-7.7-5.79-7.36-5.59-2.24,2.17-8.52,3.93-9.2-5.23-2.83,2.61-6,1.32-7.34-1.9-1.72.06-3.66,1.42-5.4,2.15a13.38,13.38,0,0,1-5.23,1.11,12.2,12.2,0,0,1-5.24-.29,3.45,3.45,0,0,1-3.22-1.67,2.21,2.21,0,0,0-2.45-.9c-2.81,1.49-5.82,1.84-9.13,3.4-.21.14.29.42.12.36s-1.74.82-1.74.82c16.79,22.17,17.7,44.56,14.18,60.43a1.36,1.36,0,0,0,.15,1.38c-.53-.09-.54.06-.64-.28.35-4.79,1.81-6.87,1.77-14.55-6-3.29-12.84-8.12-15.76-14.08-6.43-10.06-4.31-22.06.51-31.57l-1.2-1.25A107,107,0,0,0,24.51,95.89l.06,47.57L39,145.14ZM32,139.4a1.87,1.87,0,0,0-2.14-.21c-.11.1-.36.6-.43.58-.34-.3-.68-.32-1.2-.86l.7-1.06c.55-.84,1.34-1.13,2.68-1.45.47-.11,1.19-.21,1.44-.32,1-.44,1.35-1.38.34-1-.74.2-1.78.14-1.92-.55a.92.92,0,0,0-1.12-.71,10.13,10.13,0,0,0-2.74,1.27c-.38.23-1.11.76-1.11.76-.11.18-.54-1.14-.14-1.53a2.64,2.64,0,0,0,1.39-.13c1.2-.48,2.35-1.06,3.55-1.52.77-.3.84-.28.64-.83a2.13,2.13,0,0,1-.06-1.22c.14-.37.12-.56-.11-.72-.54-.36-1.84,0-3.68.86a6.31,6.31,0,0,0-1.28.66c.23-.58.09-.69.09-1.3a3.41,3.41,0,0,0,2-.52,6.19,6.19,0,0,1,2.4-.69c.37,0,.2-1.41-.22-1.8a2.47,2.47,0,0,0-2.25-.08,3.84,3.84,0,0,0-2.65,1.39c.6-1.65.15-1,1.45-2a17.34,17.34,0,0,0,2.34-.38c.55-.12.64-1.42-.16-2-.5-.44,1.82-.45,1.78-.32s-.05.63.13.77A1.55,1.55,0,0,1,32.79,126c1.15,1.9,1.72.71,2.51.05-.17,4.13,1.27,4.6,1.46,4.86-2,3.7-.49,3.79,1.37,4.65a3.46,3.46,0,0,1-1.17.26,5.75,5.75,0,0,0-2.77,1.35c-.34.29-.35,0-1.71,0a3.14,3.14,0,0,0-2,.32c-1.15.51-1.15,1,0,.81A2.12,2.12,0,0,1,33,139.85c.1.19,0,.2,0,.19-.25,0-.82,0-.81-.07s0-.25-.22-.57Zm1.75-5a.72.72,0,0,0,.1-1,2,2,0,0,0-1.66.18c-.7.55.58,1.48,1.56.87Zm.7-2.49a1.15,1.15,0,0,0,.1-1.52,1.34,1.34,0,0,0-2.22.64c-.09,1,1.28,1.53,2.12.87Zm-.5-3.41a1,1,0,0,0-1.49-1c-.93.49-.37,1.51.8,1.45.65,0,.65,0,.69-.5Zm-2.72-3.34a.6.6,0,0,0,0,1.06C32.79,127.11,32.29,124.69,31.2,125.15Zm114,4.93c-.72-2.65-2.69,0-2.69,0-.07-2.72.44-3.93-1.59-4.86,2-3.1,1.61-3.53-.55-4.72.2,0,2.87-.58,3.32-2.11.1.07,4.19,1.08,4.7-1.16-1.23.56-3.66.65-3.68-1.76.23-.07.8,0,.76.13-.32,1.54,2.48,1.93,2.94.71a6.88,6.88,0,0,0,1.35.73,5.44,5.44,0,0,1-2.48,2.15c-2.17.72-2.92.92-2.92,1.35,0,.17.35.2,1,.33,1.35.09,1.32.38,1.5.83s.31.48.76.44a7,7,0,0,0,3.38-1.86c.13,0,.28,1.13.37,1.17,0-.18-1.09.14-2.78,1.13-1.38.81-1.92.93-2.1,1.15s.21.67.24,1.23-.28.69-.05.84a1.62,1.62,0,0,0,1.22,0,10.18,10.18,0,0,0,3.15-1.43c-.23.43.15,1.53.15,1.53a1.14,1.14,0,0,0-1-.18,13.1,13.1,0,0,1-3.21,1.21c-.17.15-.14.5-.15,1,0,.36-.1.69.12.8a5.34,5.34,0,0,0,3.91-1l-.29,1.52c-.39-.44-1.51-.12-2.26.18a.84.84,0,0,0-.59.69.94.94,0,0,0,.61,1.15,1.6,1.6,0,0,0,.7.07c-1.24.79-1.26,1-2.69.45a4.51,4.51,0,0,1-1.16-1.79Zm2,0a1.21,1.21,0,0,0-1.21-.44c-.29.16-.19.48-.09.73.25.69,2,.47,1.31-.29Zm-1.14-1.9c.46-.6,0-1.41-.89-1.41a.8.8,0,0,0-.89.82c0,.87,1.4,1.09,1.78.59Zm-.94-2.29a1,1,0,0,0,.52-1.65,1.92,1.92,0,0,0-2.07-.09c-.89,1,.11,2.14,1.55,1.74Zm.7-3c.5-.26.59-.68.15-1.16-.8-.68-2.18-.15-1.74.84a1.17,1.17,0,0,0,1.58.32ZM44.16,100a15.81,15.81,0,0,0,2.07-1.3c.53-.29.37-.24-.31-.64-.53-.25-1.6-1.33-1.7-1.07A8,8,0,0,0,44.16,100ZM63.1,124.69c.1-1.09-.09-.77-.68-.42-.43.28-1.13.71-1.4.85-1.08.54-.95.57.57,1.3,1,.46,1.31.51,1.4.32a16.08,16.08,0,0,0,.11-2.05ZM61.55,124c1-.65,1.37-1,1.42-1.72s-.09-1.15-.83-.56c-2.5,2-5.08-1.91-2.79-4.08a4.79,4.79,0,0,0,1.07-1.31c0-1.26-1.37,0-2.52,1.69-1.27,1.57-2.06,3.53-.95,5.41.89,1.38,2.88,1.65,4.59.57Zm-5.69-2.54a4.17,4.17,0,0,1,.21-1.51c.28-.72.27-.81-1-.21a5.89,5.89,0,0,1-1.35.3c-1,0-.78.32.71,1.57s1.55,1.37,1.44-.16Zm3.55-6c.16-.38-.17-.52-.49-.45,0,0-.57.41-1.21.92-1.95,1.54-3.37,1.72-4.34.55s-.57-2.6,1.62-4.21c1-.71,1.2-.76.73-1.07s-.37-.2-1.76.74c-2.79,1.9-3.63,3.2-3.35,5.09a1.94,1.94,0,0,0,.85,1.49c2.66,2.37,6.36-.9,7.95-3.05Zm2.82,1.12L62.06,114c-5.84-5.17-8.11-12.06-6.52-19.22L54,91.81a19.1,19.1,0,0,0-.47,12.65c1.23,4.09,3.7,9,8.69,12.12Zm-12-1.52c.9-1.74.93-1.55-.81-1.57-2,0-1.77-.26-.65,1.45C49.71,116.3,49.55,116.42,50.26,115.05Zm1.2-2.39a6.47,6.47,0,0,0,2.41-1.28c1.75-1.14,1.82-1.77.07-.89-2.25,1.13-4.23.84-5-.63-.65-1.31.71-3,3-3.59.77-.22,1.17-.4,1.17-.74,0-1-3.82.34-5.4,1.9-3,3-.38,6.57,3.75,5.23ZM46.54,108c.1-.16.38-.53.63-.92,1.08-1.26.17-.88-.79-1.23a3.48,3.48,0,0,0-1.32-.33c-.57.09.19,1.2.38,1.91C46,109,45.9,109,46.54,108Zm4.07-2.88c1.93-.19,2.13-.38,2.13-.78s-.24-.32-1.2-.19c-2.56.36-4.26-.3-4.63-1.67s1.36-2.76,3.67-2.68c1.25,0,2.09-.39,1.33-.81a16.21,16.21,0,0,0-4.63.06c-2.29.67-3.23,2-3,3.73.32,2.19,1.51,2.82,4.41,2.66.56,0,1.27-.25,1.95-.32ZM52.11,98c0-.34-.55-.39-2.37-.66-2.42-.36-3.51-2.62-2-4a3.68,3.68,0,0,1,2.61-.6c1.6.29,2.58.62,2.59.08s-.46-.52-3.46-1.16c-4.53-1-7,3.51-3.4,5.69,1.38.83,6.07,1.3,6.07.62Zm1.12-6.4c0-.17-.15-.3-.49-.44-2.12-.58-5.06-3.42-2.91-5.08,1-1-.77-2.24-2.16-1.08s-1.32,3.1.34,4.6,5.22,2.81,5.23,2Zm-7.35-.27c1.58-.74,2.71-.32,1.5-1.34-.68-.63-1.25-2.42-1.73-.9A14.23,14.23,0,0,0,45,91.72C45.13,91.83,45.11,91.65,45.88,91.31ZM99.06,82.9a19.59,19.59,0,0,1,1.53-4c.79-.63.68.21,0,1.67s-1.18,2.69-1,3.57a2.89,2.89,0,0,0,2.1,2.54,3,3,0,0,0,2.37-.57c.77-.55,1.51-2,2.38-3.91.28-.55.66-2.23,1.12-1.21.22.53-1.64,4.07-2.34,5C102.15,89.72,98.1,86.09,99.06,82.9Zm13.38,3.37a3.74,3.74,0,0,0,3.32,1c2.37-.84,3.44-3.08,2.55-6.7-.45-2-.84-3.28-1.23-3.53-.19-.12-.4.11-.58.39s.09.6.36,1.56c1.13,4,.84,5.83-.55,6.6-2,1.11-3.72-.17-4.3-3-.09-.44-.37-1.34-.37-1.34-.15-.4-1.39-.31-.94,1A10,10,0,0,0,112.44,86.27ZM122.6,75.75c0-1.41-3-7.54-3.19-6.89a14.64,14.64,0,0,0,.1,2,2.54,2.54,0,0,0,.32.64c2.57,4.6,2.17,7.85-.06,8.56-.76.35-.92.69-.58,1,.69.75,2.41-.73,2.74-1.27C122.78,78.62,122.66,76.41,122.6,75.75Zm-43-1c4.53-5.86,8-19.23,8.61-27.7a2.28,2.28,0,0,0-1.49.09c-.16.21-.05.68-.11,1.28a85.47,85.47,0,0,1-5,19.86,31.49,31.49,0,0,1-3.38,6.64c-.23.34-.52.69-.63.89-.33.48-.09.79.29.59a8.17,8.17,0,0,0,1.75-1.65Zm-3.3,1.7c5-7.49,7.75-15.58,9.63-29.07a2.21,2.21,0,0,0-1.47.17c-.17.25-.06.75-.21,1.92a84.23,84.23,0,0,1-2,10C79.61,68.15,77.18,73,74,77.33c-.26.36-.49.59-.46.75s.34.21.85-.11a12.16,12.16,0,0,0,1.88-1.55Zm-4.71,2.27c1.51-.86,4.17-4.61,6.05-8.65a94,94,0,0,0,5-14.82,53.56,53.56,0,0,0,1.11-7.49c-.1-.25-1.58,0-1.39.21a109.54,109.54,0,0,1-3,12.73c-2.93,8.4-5.47,14.09-8.19,16.83l-1.06,1.06s0,.31.24.36a1.79,1.79,0,0,0,1.26-.24Zm-2.31-.33c3.41-1.92,7.4-10.88,10.66-22.12.56-1.92,1.58-8.37,1.58-8.37s-1.36.05-1.62.34-.22,1.38-.6,3.73a75.92,75.92,0,0,1-7,20c-1.44,2.84-3.83,5.52-5.33,6.28-.84.43-1.09.9-.47.93,1,0,1.13.26,1.89-.15ZM116,178.54c-2.56,0-4.73,2.46-6.66,5.56-4.12,6.36-6.88,17-7.56,22.63l1.55-.29c-.23.11,2.9-15,7.68-21.51,2.58-4.09,2.47-4.15,3.92-4.53,1.83-.47,3.3,1.52,2.39,2.72-.33.41-.69.11-.59-.47.33-1.85-2.36-2.21-3.11-.39-.86,2.09,1.43,4,3.67,3.14,2-.71,2.84-3.53,1.43-5.61a3.86,3.86,0,0,0-2.74-1.25Zm-13.46-.26c-3.06,3.87-4.58,7.85-6.46,13.28a70.64,70.64,0,0,0-3.81,16.82l1.65-.21c-.06-3.91,4.2-22.55,10.19-29.53a2.86,2.86,0,0,0,.58-.91C104.33,176.77,102.91,177.91,102.51,178.28Zm6.76-1.44c-4,3.27-7.14,10.42-9.23,17-2.26,7.14-3.27,13.69-3.1,13.69l1.58-.23c-.12-.41,4.43-25.59,12.87-30.17.73-.37.89-.74.27-.9a3.52,3.52,0,0,0-2.38.58Zm4.44,0C105.06,178,99.39,204.75,99.21,207c0,0,0,.21,0,.21l1.73-.36,0-.13a70.18,70.18,0,0,1,5-17.81c2.11-4.58,5-10.43,9.35-11,.35,0,.69.1.56-.32-.26-.66-1.56-.74-2.16-.72Zm-51.64-8.43c-3.13.81-3.23,4.59-1.15,9.42.16.36.13.56.29.7.36.31.64-.12.68-.41a4.35,4.35,0,0,0-.46-1.89c-1.29-3.34-1-5.27.3-6.12,3.28-1.7,4.16,1.79,4.65,3.4.12.39.16.93.38,1a1.3,1.3,0,0,0,1-.14,43.35,43.35,0,0,0-1.4-4.13,3.52,3.52,0,0,0-4.24-1.78ZM39.36,172l0,39.83-6,5.67c-2.57-2.22-6-5.7-6-5.7l.11-67.34-1.93-.16c-.47,28.93,0,58.45,0,87.44h17.6C48,223.86,53.19,216.12,58,208.22c.18-.45.16-1.11.07-3.56a9,9,0,0,0-.07-2c-.15-.24-.46-.07-.75.06s-.47.09-.31-.27c.09-.2.38-.64.64-1.06.82-1.36,1-1.8.75-3.31a3.73,3.73,0,0,0-.7-1.12c-2.47-3.67-3.47-9.12-2.25-13.1a3.5,3.5,0,0,0-.59-3.49ZM117,129.16c-1.61-.83-1.58-.82-1.59.76,0,1.18,0,1.47.47,1.31.64-.33,1.41-.62,2-.87,1.12-.39-.3-.88-.88-1.19Zm6.38,4.1c-1.25-1-.79-.89-1.14,1.38-.21,1.37-.49,1.41.92,1,.8-.28,2.44-.1,1.7-1ZM69.2,174.93c-6.71.81-9.51,7.45-9.81,13-.24,4.38-.53,9.48-.09,9.93,4.4-2,6.09.31,6.51-.31.19-.27-1-1.17-2.44-2a9,9,0,0,1-1.07-.69c-.53-.45,1.07-.06,2.08.63,1.29.88,1.51.7.95-1.88-.61-2.81-.71-3.15,1.43-4.27a6,6,0,0,0,2-1.52c.49-.55.62-.69.44.13-.31,1.41-1.56,2-2.68,2.6a1.53,1.53,0,0,0-.79,1.37,31.25,31.25,0,0,0,.84,4.13c.25.83.34,1.67.53,2.52a8.43,8.43,0,0,1,.28,4.24,8.15,8.15,0,0,0-.17,2c0,.52.12,1.22.12,1.22s-1.2-1.24-3.82-.2A5,5,0,0,1,59,205.3a9.45,9.45,0,0,0-.16,2.81,95.93,95.93,0,0,0,28.09.91,80.3,80.3,0,0,1,6.22-24.19,8,8,0,0,1,1.79-2.4c.14-.07.06-.21.09-.32a2.08,2.08,0,0,0-.5-1.41c-.91-.73-2.35.21-2.83,1.83a53,53,0,0,1-2.45,5.11c-.11-.07-.38-.08-.28-.4.73-1.71,1.73-3.51,2.29-5,.78-2.21,2.47-3.37,3.73-2,.43.48.61.92.81,1.07s.35,0,.48-.15c.48-.72-.63-2.37-1.81-2.7-1.71-.48-3,.78-4.92,4.86-1.12,2.35-1.32,2.95-1.5,2.76,0,0-.34,0-.23-.44A33.28,33.28,0,0,1,90.61,180c1.59-2.68,4.55-2.89,5.79-.57.19.32.2.73.41,1,.38.5,1,.4,1.17-.42-.17-.54-1.21-2.5-1.93-2.84a4.16,4.16,0,0,0-5.38.6c-.39.35-.79,1.05-1.91,3.36-1.66,3.7-1.7,3.71-2.16,3.12.67-1.8,2.42-4.72,3.13-6.52a1.67,1.67,0,0,0,.15-.83c0-1.3.17-3.61-2.57-5.25a4.8,4.8,0,0,0-6.46,2.56c-.8,1.91-1.39,3.22-1.79,3.49-.57.38-.46-.15-.41-.34.81-1.73,1.95-3.48,2.13-5.22a4.68,4.68,0,0,0-6.7-4.67c-2.52,1.07-3.73,4.38-4.87,7.44ZM48.64,79.84a63.36,63.36,0,0,1,10-3.72c.51-.22.59-.28,0-1.35-2.38-4.76,4.16-8.56,6.38-3.88.3.62.37,1,.66.67,2.81-3,7.29-14.46,8.39-22.45-5-8.72-13.69-24.7-13.69-24.7H25.53V94.3c9.72-8.18,16.33-11.14,23.12-14.46Zm41.42-6.9c.27-.56.7-1.42.88-1.83.23-.74,1.08-1.2.66.12a9.12,9.12,0,0,1-.51,1.18c-.5.91-1,2-1.34,2.76-1.93,3.91-1.84,6.19.32,7.88a4.63,4.63,0,0,0,6.8-.78,7.37,7.37,0,0,0,.59-1.12A17,17,0,0,1,99,78.09c.8-1,.93.25-.27,2.2a5.81,5.81,0,0,0-.21,6.39,4.65,4.65,0,0,0,7.2.57h0a14.93,14.93,0,0,0,2.65-5c.15-.46.31-.81.43-1.08s.43-.58,1.08-.7c4.46-.86,8.21-5.49,8.74-10.53.07-.68.26-1.89.33-2.61.14-1.43.14-8.84,0-9.28a.45.45,0,0,0-.5-.36,3.34,3.34,0,0,0-1,.24,4.3,4.3,0,0,1-3.57.15,2.6,2.6,0,0,0-1-.21c-.62.05.21,1,2,2,.78.43,1.4,1,.76,1A29.05,29.05,0,0,1,113,59.42c-1-.62-.74.16-.22,2.21.69,2.75.29,3.52-1.86,4.6a5.64,5.64,0,0,0-1.21.89c-1.14,1.7-.85.45-.27-.46,1-1,.38-1.39-1.63-.67-2.3.82-3.34.22-4-1.07-.73-1.46.64-3.33,1.78-3.29.37,0,.3.15-.24.52a2,2,0,0,0-1,1.66c-.14,1.58,1,2.24,2.54,1.19a6,6,0,0,1,1.88-1c.55-.13,1.38.08,1.38.53a4.39,4.39,0,0,0,0,.74c.15.5.94-.21,1.28-.46,1.18-.89,1.14-1.06.82-2.5-.52-2-.79-3.85-1.29-5.89a8.87,8.87,0,0,1-.15-3.37c.08-.55.29-1.67.33-2.44s0-1.87,0-1.87c1.17.9,1.64,1.06,2.78.62a4.64,4.64,0,0,1,4.36.06c.55.27,1.05.45,1.05.45l.07-2.31s-1.37-.29-3.92-.62c-7.65-1-23.35-1.23-23.93-.3-1,6.18-2.44,13.58-4.06,18.36-.28.95-.56,1.33-.41,1.36s.34-.36.48-.51c.74-.87.17,1.19-.95,3.67a2.2,2.2,0,0,0-.19.54A27.87,27.87,0,0,1,85.24,73c-.3.65-.55.84-.55.43.34-1.43,1.24-3.27,1.37-4.55-.79,1.15-1.94,3.05-2.81,4.19-.16.31,0,.4.15.78.52,1.41,1.79,1.54,2.52.26.41-.71,1.68-3.4,2.12-4.57A5.94,5.94,0,0,1,89,67.64c.3-.16.36.53-.18,1.67-1.63,3.47-2.34,5.41-3.14,6.13A1.48,1.48,0,0,1,83.36,75c-1-1.68-1.88-1.12-.95.6a2.46,2.46,0,0,0,4.3.34,51.61,51.61,0,0,0,2.72-5.35,4.63,4.63,0,0,1,.76-1.43c.6-.23-.08,1.54-1.8,5.1-.56,1.37-1.45,2.81-2.66,3.26-2.94.65-3.33-.92-4.35-2.7-.5-.44-.95.27-.76,1.05a3.68,3.68,0,0,0,1.86,2.43,4,4,0,0,0,4.94-.57,24.88,24.88,0,0,0,2.66-4.76Zm10.8,11.76a2.67,2.67,0,0,1-.09-1.76,14.52,14.52,0,0,1,1.41-3.57c1-.46.23,1.37.11,1.64-1.16,2.45-1.27,3.39-.19,3.67.93.24,1.43-.33,2.31-2.52.45-1.13.63-1.62.79-1.69.34-.14.5,0,.48.34a16,16,0,0,1-2,4.15c-.93.79-2.34.79-2.83-.26Zm-8.72-1.88c-4.65-1.66-1.86-6.77-.92-8.61.16-.31.75-1.5.94-1.89.34-.7.68-.43.67,0a18.21,18.21,0,0,1-1,2.23c-2.25,4.44-2.17,6.24,0,7.3s3.09.44,4.79-2.95c1-2.54,1.47-2.58,1.42-1.62a18.25,18.25,0,0,1-2,3.93C95,82.86,93.77,83.41,92.14,82.82Zm.16-2.14a2.33,2.33,0,0,1-.68-2.89c.45-.88,1.6-4.24,2.15-4.43.87,0,.41.71-.67,2.78-1.28,2.74-1.23,3.47-.25,3.89s1.35-.41,2.69-3.61c.21-.5.51-1,.68-.92s.59.15-.12,1.6c-.17.35-.45,1.08-.77,1.75-.92,2-2,2.49-3,1.83Zm13.48-6.47c0-.05.13,0,.18,0a4.58,4.58,0,0,0,5.6-.14c.35-.31.6-.1.41.29-.42.83-1.8,1.35-2.86,1.49C107.41,76,105.81,74.83,105.79,74.21Zm-3.45-1a8.12,8.12,0,0,0,.32-1c.19-.72.15-1.25.31-1.15.72.39,2,1.6,2.63,1.21a3.18,3.18,0,0,1,2.59-.22,1.14,1.14,0,0,0,1.61-.15c.57-.45.59-.26,1.62.1.77.27,1.07-.75,1.39-.81.12,0,.38-.31.46-.29.25,0,.28.76.51,1.57s.09.89-.55.46c-.48-.32-1.84.73-3.27,1.17a5.2,5.2,0,0,1-2.66,0c-1.93-.33-2.73-1.71-4.17-.87-.77.45-.79.72-.79-.07Zm-4.8-3.66c-.93-1.89,1.21-4.39,3.1-3.51.63.29,1.18,1.4.26.89-4.3-.87-3.22,5.47,1.39,2.12,3.07-2.05,5.24-2.37,5.42-.38-.09.73-.73.61-1.22.68a10.13,10.13,0,0,0-3.21,1c-2.24.71-4.43,1.29-5.74-.82Zm16.81.87c-1-.27-2-.69-3.05-.89s-1.57-.76-1.38-1.53,1.29-.88,2.92.12c1.81,1.11,3.12,1.38,3.78,1,1.34-.85.62-2.23-.66-2.58-1-.27-.25-.64.78-.33,1.66.63,1.7,3.66,0,4.29a4.72,4.72,0,0,1-2.37,0Zm-14.63-10a19.34,19.34,0,0,0,2.82-1.89c.22-.24.83-1,.36-.79-2.49,1.51-5.38.26-7.47-.78-1-.47-.76-.26-1.53-.21-.52,0-.94.15-1-.23,0-.17-.33-.1-.52-.12-.77-.08-.28-1.11,1.34-2.25,3-2.17,7.56-4.16,10-1.49.5.48.45.8.9.51,1-.67,1,.22.17,1-.6.57-.38.72.35,1.26.35.26.06.5-.13.88a4.1,4.1,0,0,0-.05.66c-.16.81-3.81,3.66-5.13,4.15-.91.17-.43-.52-.08-.74Zm1.93-5.24c-.69,2.12-2,2.84-3,.3l-.48,0c0,2.15,3.63,3.48,4.1-.32-.29,0-.44,0-.6,0Zm-3.38,2c-.25-.42-.53-1.39-.79-1.41-.71,0-1.69.1-1.46.54C96.39,56.95,98.57,57.6,98.28,57.11Zm4.87-.38c.66-.4.8-.67.37-1.11s-.84-.28-1,.63S102.46,57.15,103.15,56.73Zm-8.89-1.49c4.39-2,6.06-2.26,7.84-1.77a5.68,5.68,0,0,0,1,.33c.85-.05.31-1-1.22-1.57-1.75-.63-2.86-.34-6.23,1.42-2,1-3.57,2.57-1.4,1.58ZM107,52.81a12.71,12.71,0,0,1-.4-1.21c-.08-.29-.14-.59-.23-.59a11.51,11.51,0,0,1-4.31-.17,14.13,14.13,0,0,0-8.28.29,8.88,8.88,0,0,0-1.28.62c-.18.17-.44,0-.43-.23a6.71,6.71,0,0,1,2.23-1.76,11.41,11.41,0,0,1,8.41-.71,5.36,5.36,0,0,0,4.51.08c.62-.27.18.4,0,1.3a4.46,4.46,0,0,0,0,1.5c.08.85,0,1.27-.23.87Zm45.89,178.93V161.65c-17.5,12.15-25.16,14.57-33.39,17.55,3.14,5.46-3.81,10.69-6.79,4.75-3.58,4-8.51,18.23-8.68,22.93,0,0,9.52,16.59,14.16,24.86Zm-63.61-23a71.86,71.86,0,0,1,3.4-16.46A55.34,55.34,0,0,1,96.48,183c.66-1,.71-1.45,0-1.08a16.39,16.39,0,0,0-2.76,3.14c-2.77,7.7-4.91,13.37-6,23.78Zm2.29-.29c.74-8.57,3.87-20.13,8.57-27.67.44-.72,1-1.34,1-1.59-.06-.73-1.87.53-3.27,2.7a73,73,0,0,0-4.34,10.17,65.83,65.83,0,0,0-3.42,16.59Zm4.52-.72c.47-4.94,2-9.47,3.27-14a45.66,45.66,0,0,1,6.06-13.31c.78-1.18,1.7-2.28,2.57-3.41a.8.8,0,0,0,.2-.48,2.07,2.07,0,0,0-1.44.32,8.31,8.31,0,0,0-2,1.84c-3.45,4.44-5.31,9.62-7,14.86A56.23,56.23,0,0,0,94.65,208ZM65,204c.69-.05,1.14.08,1.34-.11s.13-.68.2-1.32c.13-1.36,0-1.28-.85-.41-1.39,1.45-3.94,2-5.45,1.13-.76-.44-1.29-.75-1.37-.38a.9.9,0,0,0,.36,1C61.11,204.73,62.85,204.15,65,204Zm-1.64-1a4.91,4.91,0,0,0,2.5-1.64c.53-.76.52-.87.12-.72-2,1-3.25,1.47-5,1.2-2.38-.36-2.47-.06-.9.93A3.46,3.46,0,0,0,63.4,202.94Zm-3.49-3c.37-.27.46-1.39.17-1.45s-.74.49-.84.94.32.75.68.51Zm3.68,0,.63-.06c-.32-2.79-3.33-2.91-3.89.28l.48.07c.62-2.48,2.31-2.46,2.78-.29Zm2.1-.52c.78-.5.44-1.1-.75-1.33-.82-.19-.77.48-.35,1.39.18.4.32.38.77.13ZM58.49,196a3.26,3.26,0,0,0-.28-1.12,16.48,16.48,0,0,1-1.53-8c.09-2.3.11-3-.36-3-.66.32-1.06,4.61-.21,8.18.6,2.52,2.42,5.65,2.38,3.95Zm0-3.49c-.07-1.2.2-3.9.07-4.49a3.3,3.3,0,0,0-.88-1.66c-.4-.29-.5.26-.36,1.71.32,3.39.86,6,1.18,4.44Zm.34-6.18c.26-.48.16-1-.42-2.12-2.27-4.47-2.57-7.53-.19-8.64.27-.12.43-.15.61-.25.75-.42.46-1.18-.66-.86-3.1.87-3.71,3.78-1.1,9.19,1.33,2.7,1.54,3.07,1.75,2.68Zm.72-3.6a12.23,12.23,0,0,0-.62-1.44C58,179,58,178.08,59,177.43c.31-.18.63-.19.68-.4s.07-.86-.13-1a2.18,2.18,0,0,0-2.24,1.57c-.25,2.79.92,4.72,1.95,6.57a6.49,6.49,0,0,0,.3-1.44Zm.89-1.85c.73-1.48,0-3.41-1-2.75-.65.43-.68.88-.29,2.11.49,1.51.78,1.61,1.25.64Zm2.67-4.15c.08-.31-.17-.83-.61-2.17s-.25-2.36.63-2.64c1.26-.31,1.71,1.77,2,2.65.14.68.58.86,1,.39.11-.13.14-.24,0-1-.82-3.23-1.88-4.25-3.6-3.45s-1.38,2.41-.23,5.92c.15.47.26.82.37.87a.85.85,0,0,0,.54-.58Zm1.3-.92c.38-.38.36-.21-.08-1.55-.49-1.54-.75-1.86-1.28-1.33-.33.32-.16.68.21,1.94.43,1.46.55,1.54,1.15.94Zm66-5.26c2.51-1.75,1.48-4.88-1.83-6-.39-.14-.82-.3-1-.37-1.52-.74-2.7-1-2.71-.39,0,.34.45.51,1.91,1.22,2.16,1.06,2.64,2.28,1.58,3.82-.77,1.11.67,2.38,2,1.75Zm2.28-3.81c.22-.9.54-1.66.7-2.19.21-.82-.06-.63-.6-.5-1.39.72-2.38.33-1.7,1.33C131.84,166.69,132.45,167.71,132.69,166.73Zm-.17-3.13a3.19,3.19,0,0,0,.5-5,5.8,5.8,0,0,0-1.85-1,11.48,11.48,0,0,0-4.86-.47c-.19.22-.19.57,0,.67a6.33,6.33,0,0,0,1.3.21c6.08,1,3.6,5.54-.59,4.57-1.36-.3-2-.16-1.45.17A12.83,12.83,0,0,0,129,163.9a5.3,5.3,0,0,0,3.52-.3Zm-8.29-.45c1.94-4.39,3-15.91-8.14-24.23l.37,2.3a20.24,20.24,0,0,1,6.76,19.86Zm9.92-7.87A14.55,14.55,0,0,1,132,156.6c-.53.24-.55.3.18.7a5.77,5.77,0,0,1,1.15.79c.38.42.84.58,1,.43C134.3,157.86,134.52,155.7,134.15,155.28Zm-3.29.83c2.25-.72,3.45-1.8,3.2-3.63-.38-2.67-2.6-3.24-6.76-2.19-2,.5-2.18,1.45-.28,1,2.4-.62,4.28.31,4,2.08-.15,1.52-1.37,2.41-3.51,2.41-1.13,0-1.48.1-1.33.51S129.94,156.4,130.86,156.11Zm-3.71-6.35c3.68-1.27,5.39-3.24,4.55-5.45-1-2.6-4.2-2.63-7.42-.21-1.51,1.11-1.28,1.52.18,1,1.89-.87,3.11-1,3.88-.31,1.4,1.26.46,3.45-1.67,4.23-1,.43-1.36.67-1.36,1,0,.49.18.37,1.83-.2Zm6.2,0c.09-.77-.77-3.44-1.14-2.82a5.31,5.31,0,0,1-.88,1.31c-1.27,1.14-1,.71.23,1.06C132.26,149.45,133.25,149.95,133.35,149.72Zm-9.73-5.7c3.72-2.17,5.14-5.26,3.21-7.32-1.73-1.85-4.6-.77-7.27,2.59-1.22,1.54-.3,1.35,1.34-.12,1.92-1.71,4.36-.88,4.35,1.25,0,.91-1.29,2.44-2.5,3.15a.57.57,0,0,0-.3.78c.14.24.44.08,1.16-.33Zm6.52-2.26c-.19-.58-1.59-3.08-1.89-3-.32.64-.34,1.49-.72,2.17-.52,1-.45.86,1.2.86,1.23,0,1.38.17,1.42,0Zm-10.93-2.83c3.12-3.26,3.4-7.08.47-8-1.62-.49-4.21.69-4.22,1.91,0,.76.14.9.79.62,2.76-1,4.95,1.64,2.41,4.71-.62.89-.7,1.11-.52,1.3s.38.13,1.06-.58Zm33.66-27.41V24.4H134.58l-14.52,23,0,5.65c0,.2.33.32.54.07.82-.64.51,0-.44,1.49s-.67,2.68.38,4.25c2.22,3.33,3.38,9.43,2.44,12.66a3.53,3.53,0,0,0-.2,2.39,2.63,2.63,0,0,0,1.2,1.7A131.53,131.53,0,0,1,139,84l0-40.61,5.6-5.41,5.92,5.7.21,67.63Zm-3.22-67.64-5-4.65-4.9,4.58c0,21.84.12,66.66.12,66.66l4.87.35a8.34,8.34,0,0,0-.1-3.67c-.68-4-.64-8.81.46-16.18a30.54,30.54,0,0,0-1-12.57,19.79,19.79,0,0,1-.77-7.76c.35-3.92,1.42-6.89,1.55-12.53.07-3.22-.08-6.37,0-10.34,0-.53.27-.47.31.08.15,3.59.29,7,.32,10.51-.11,4.56-1.22,9.26-1.34,13.43a15.7,15.7,0,0,0,1.08,7.42c1.91,5.54.65,14,.63,14.19-.81,5.45-1.4,12.42,1.33,17.63l2.65.24Zm-34.11,41.2c1.46-.68,1.75-1.87,1-4.75-.14-.51-.3-1.12-.36-1.36-.17-.71-.49-.79-.91-.22-.25.34,0,.42.37,2,.59,2.39.25,3.18-.64,3.17s-1.39-.65-1.62-2.2a3.13,3.13,0,0,0-.31-1.1c-.21-.36-.47-.29-.68.1s.24,2.6.9,3.61,1.22,1.23,2.27.75Zm-.4-2.15c.31-.59-.07-2-.28-3-.19-.53-.4-.66-.74-.57-.52.13-.49.7-.31,1.64C114.2,82.93,114.41,83.17,115.15,82.94Zm4.45-3.45c1.67-1,1.83-2.62.71-5.63-.46-1.23-1-2.1-1.35-2.11-.12.79-.24,1.2-.1,1.51,1,1.53,1.73,3.93.28,5.29-.86.65-.32,1.19.46.94ZM64.82,78.33c3.93-.8,7.47-7.19,9.69-12.85,2-5.7,4.19-12,4.53-17.19,0,0-1.48.07-1.67.38a8.42,8.42,0,0,0-.4,1.89,74.72,74.72,0,0,1-3.62,13A48.53,48.53,0,0,1,67.41,75a6.13,6.13,0,0,1-3.95,2.38,6.21,6.21,0,0,0-1.25.1c-.3.21,0,.7.75.89a3.83,3.83,0,0,0,1.87,0Zm54.08-.74c.6-.64.66-1.4,0-3-.19-.45-.27-.71-.5-.64-.47.13-1,1.38-.7,2.44.43,1.38.67,1.78,1.21,1.21Zm-55.45-1a5.57,5.57,0,0,0,3.66-2.52C73.54,64,74.64,58.36,76.65,48.82c0,0-1.45-.05-1.76.26a80.43,80.43,0,0,1-2.77,11C70.55,65.54,66,74.31,63.59,74.73c-1.32.22-2.83-.93-2.59-2.12.15-.73.25-1,.6-1.19.86-.3,1.35.28.41.67-1.09,1,.87,2.41,2.07,1.39,2-1.72-1-5-3.41-3.51-2.71,1.68-2,4.59-.31,6a3.76,3.76,0,0,0,3.08.63Zm19.22-3.94a17.18,17.18,0,0,0,3.85-6.78,105.48,105.48,0,0,0,4.23-19.16s-1.43-.15-1.75.16C88.48,53,86,65.55,82,72c-.87,1.54-.55,1.93.72.62Zm37.21-13.12c-.16-.08-.14,0-.21,0-.23.16-.08,1,.44,2.2,1.37,2.22,1.53,6.53,1.44,8.15a2.75,2.75,0,0,0,.07,1.2c.15.42.4.92.81.09a17.17,17.17,0,0,0-1.12-9.24,7.48,7.48,0,0,0-1.43-2.42Zm1.05,9.41a13.86,13.86,0,0,0-.75-5.46c-.22-.48-.62-.52-.57,0,0,1.18-.12,3.42,0,4.09.6,1.39,1.06,2.27,1.32,1.34Zm-3.1-13.75h-.65c0,2.23-1.94,2.85-2.66.17l-.58.14c.77,3.77,4.26,2,3.89-.31Zm-3.92,1.68c-.34-1-.2-1.35-1-.9-.65.34-1,.7-.12,1.14s1.38.39,1.17-.24Zm4.92-.57c.27-.55.24-1-.17-1s-.4.25-.49.78c-.16.95.23,1.12.66.26Zm.34-3.7c.25-.08.18-.43.11-.88-1.06-1.49-3.69-1-4.64-.74a2.18,2.18,0,0,1-2.11-.12c-.61-.11-.7,0-.85.33a5.1,5.1,0,0,0-.2,1.61c0,.73,0,1.06.24.84,2.24-2.22,3.95-2.76,7.44-1Zm-7.24,2c0,.3.25.11.9-.3a5.8,5.8,0,0,1,5.75-.54c.45.15.73-.32.24-.73C116.43,51,113.47,52.31,111.94,54.59Zm8.56-9.14L133.3,24.13l-71.37-.05L74.05,46.71a108,108,0,0,1,46.44-1.26Z" style="fill: #131f67"/>
  <path d="M57.2,212.2c1.51-2.27,9,1.77,9.39,3.38,4.43-3.51,9.81-3.77,14.14.63,4.45-4.9,9.22-4.56,14.17-1.73-.55-1.11,6.34-6,10.53-2.89l11.33,20.31-72.57.24C48.48,225.65,52.28,217.92,57.2,212.2ZM25.5,106.29c-.39-1.1-2-12.38,2.05-12.66,25.74,16,26.24,44.73,25.68,45-.39-.11,8.23,8.59,8.84,9.43,1.85,2.56-16.39,27.44-17.11,26.48L39,171.11l.15-8.68.13-17.52-14.23-1.25.5-3.81c4.77.39,9.67,1.29,14.09.26,2.91-5.36,1.8-13.35-1.7-16.57-1.85-1.13-3.6-.77-5.47-.53-7.62-1.28-3.67-14.2-7-16.72Zm127.39,5.79,0,3.2c-5,1.1-13.88-3.17-16.56,3.71.33,7.44,2,10.77,3.14,13,.87,2,7-.28,9.12,1.75,6.16,7.63,4.71,17.8,4.76,27l-2.67,1.36c-18.48-11-32.66-45-34.63-54.74-.13-6.23,17-26.24,17-26.24s6.22,3.79,6.22,3.79-.13,26.26-.13,26.14C144,111.3,148.75,111.78,152.89,112.09Zm-36.63-24c-21.55,37.94-12.74,66,3.12,90.24,0,0-1.37.31-1.52.18-4.33-4.33-9.67-2.35-14-1.43-13.13.25-8.2-3.89-26.91-10.46-4.55.41-11.48,2.57-14.11.82,18.24-33.89,15.51-55.59-3.38-91.11,1.57.46,1.81,1.94,3,2.3,3.88,1.51,9.23.94,12.44-.47C80,75.87,85.47,82.14,101.12,89c1.28.66,2.89-.38,4.3-.67,2.89-.59,5.36-1.83,7.51-1.1.69.23,3.33.86,3.33.86ZM72.77,43.79C71.84,42,62.34,23.85,62.34,23.85l70.66.43L122.4,41.83c-1,1-6,3.61-11.06-2.4-.1.86-7.54,6.21-13.93-.23-3.85,3.52-7.78,5.56-14.25,1.6-.14,1.11-5.2,6.06-10.38,3Z" style="fill: #e2cf00"/>
  <path d="M80.5,215.79c-6.85-6.46-14-.63-13.81-.26-2.62-2.63-5-4-9.11-3.82,0,0,.18-1.08.2-1.1,10.65,2,27,2.47,46-1.55l1,2.06c-5.11-1.83-7.75.64-10,3.52C86.57,209.49,84.56,214,80.5,215.79Zm16-75.15,4.84-.1c.91,14.2,12.68,35.93,13,35.93-.82-1.15-8.59-.24-8.53-.1C101.47,164.89,96.78,153.41,96.47,140.64ZM68.22,174.33a22.06,22.06,0,0,0-2.49-5.81c5.08-8.75,9.26-17.81,11.4-27.89l3.46,0C79.56,154.57,68.52,175.69,68.22,174.33Zm62.31-1.86c7.63-13.88,6.31-33.88-15.33-44.93,0,0,.56-14.66,2.17-14.69.36.11,9.8-.12,9.8-.12,2.47-6.11,6.45-13.51,12-18.5l.14,16.39c-4.11.41-6.62,1.73-7.87,5l-5.7,1.28c.42,16.46,6.56,31.67,24.79,45.33-4.35,3.77-19.24,11.43-19.18,11.3ZM39.21,162.12l.16-17.06c2.76-.6,4.94.21,7.22-4.79,0,0,3.83,1.83,5.1,2.51C48.12,149.23,45,156.13,39.21,162.12Zm36.28-30.07.19-8.75h8.16a16.09,16.09,0,0,0,0,8.75Zm18.61,0c.56-2.83,1-5.75-.2-8.75h8.83l-.21,8.75ZM77.3,114.86c-1.47-17-13-36.22-13.18-35.82,1.36.22,3.76.9,5.08.27a6.11,6.11,0,0,0,3.06-.06c-.2-1.86,9.1,18,9.32,35.57a31.15,31.15,0,0,1-4.27,0Zm20.42.15c1.25-7.85,4.47-22.21,12.07-33.85a43.32,43.32,0,0,0,2.77,6.13c-5.73,8.41-9.26,18-11.4,27.82ZM44.9,110.78C41.42,103.63,27,92.37,27.69,93.51c6-5.41,12.67-8.85,19.33-12.32,0,0,1.19,1.13,1,1.42-4.1,6.51-6.09,20.31-2.12,28.22,3.81,8.45,10.58,13.44,17.48,17.36a93.43,93.43,0,0,1-2.08,14.35s-4.33-2.3-7.89-3.78c-.57-10-2.61-18.89-8.53-28ZM83.21,40.69c5.1,3.13,9.67,2.8,14.09-1.45a10.29,10.29,0,0,0,14.11.42,9.68,9.68,0,0,0,9.89,3.27l-1.11,2.35c-14.27-2.84-29.79-1.73-46,1a18.09,18.09,0,0,1-.95-2.07c1.31-.08,5.84,1.83,9.92-3.49Z" style="fill: #d40000"/>
  <path d="M61.3,23.29,73.89,46.94l.55-.1c17.45-3.44,31.27-3.91,46.12-1.28l13.2-22C109.74,23.27,61.3,23.29,61.3,23.29Zm1.4,1,70,.08-3.94,6.51c-2.36-.73-3.67.36-4,2.64a3.14,3.14,0,0,0-.84-.19,2.41,2.41,0,1,0-.67,4.76c.82.14,1,0,1,0-2.87,2.43-4.51.79-5.86,0a3.41,3.41,0,0,1-5-.09c3.43.35,4-3.12,2.32-4.44a8,8,0,0,0-.69-.61,2.12,2.12,0,0,0,.46-2.73c-1-2.17-4.3-2-4.79.33a10.57,10.57,0,0,0-.2,1.08,2.64,2.64,0,0,0-2.26,4.07,2.94,2.94,0,0,0,2.69.91c-1.41,2-4.63,1.32-6.06-.33-2.28,2.7-4.88,2.37-6.17.93a2.82,2.82,0,0,0,2.3-.78,2.54,2.54,0,0,0-1.25-4.22,3.28,3.28,0,0,0-.67-.15,4.09,4.09,0,0,0,.14-.83c.49-4-5.44-3.59-4.87.33a2.48,2.48,0,0,0,.19.7,2.6,2.6,0,0,0-1,.13c-3.29,1.53-1,5.74,1.52,4.66a9.19,9.19,0,0,1,1-.42c-3.15,3.94-5.79,1.15-6.49.72-2.13,3.18-5.82,1-5.9.79a3.05,3.05,0,0,0,1.58-.42,2.53,2.53,0,0,0-.13-4.52A4.39,4.39,0,0,0,83.35,33a4.7,4.7,0,0,0,0-1,2.41,2.41,0,1,0-4.59,1.32,2,2,0,0,0,.38.57,8.47,8.47,0,0,0-.93.65,2.42,2.42,0,0,0,2.68,4c.34-.18.67-.56.76-.54-1.24,2.29-3.12,3.08-5.81,1.19a2.94,2.94,0,0,1-5.12.22c2.52.23,4.16-4.65-.69-4.81-.38-1.33-.36-3.34-3.43-3ZM96.9,32.67a1,1,0,1,1-1,1A1,1,0,0,1,96.9,32.67Zm15.64.12a1.08,1.08,0,1,1-1.06,1.08A1.07,1.07,0,0,1,112.54,32.79ZM81.88,34a1,1,0,1,1-1,1A1,1,0,0,1,81.88,34Zm43.51,1.19a1.58,1.58,0,0,1,.42.08l-.89,1.6C124.06,36.08,124.47,35.11,125.39,35.16Zm-56.65.64c1.59.11,1.12,1.25.89,1.65Zm28,.75c6,6.91,11.4,4.87,14.92.27,1.51,3.92,4.88,6.62,10.68,4a18.23,18.23,0,0,1-1.23,1.73c-5.12,1.39-7.66-1-9.64-3.36-5.21,4.37-10.12,3.31-14.17-.54C93.87,43,88.27,44,83.09,40.39c-2.37,3.53-5.77,5-10,3.19,0,0-.91-1.44-1-1.53.62.52,8.49,3.82,10.41-4.11,2.74,4.69,11.72,4.94,14.29-1.39Zm.6,2.84c6.76,6.38,13.85.86,14,.47.11.35,4,5,9.53,3.26L120,44.69c-14.78-2.4-28.9-1.91-45.66,1.31l-.92-1.65c4.29,1.33,8-.33,9.74-3.21C84.18,41.79,91.82,46.1,97.37,39.39ZM79.65,75.12c-.18,0-.4.21-.77.58-.8.79-1,.9-1.75,1a6.65,6.65,0,0,0-2.56,1.49,2.19,2.19,0,0,1-1.05.42l-1.23.21a2.61,2.61,0,0,0-.66.19,2.41,2.41,0,0,1-1.75.1,2.11,2.11,0,0,0-1.57.07,2.79,2.79,0,0,1-2.38,0,2.63,2.63,0,0,0-2-.29c-.81.27-2.92-1-2.92-1.76a3.67,3.67,0,0,0-1.5-1.08c-1.07-.16-10.46,3.58-10.42,3.8C60.66,94.24,70.36,116.15,63.05,143l-1.29-.63a97.29,97.29,0,0,0,1.85-14.76C42,118.14,40.09,96.2,48.5,82.35l-1.43-1.53c-5.09,2.74-10.27,4.3-22.85,15q.05,24,.06,48c4.55.51,9.57.93,14.52,1.35,0,0-.06,15.42-.18,21.46-.1,5.1.09,4.78.09,4.78l16.38,8.72c-1.15-4.59,1.69-6.42,4.07-6.23-1.05-4.43,1.56-6.45,4.54-5.89,2,.38,2.72,1.5,3.87,5.21l.44,1.41,1.15,0c1.44-3.12,2.4-7.08,5.78-7.59,4.43-.67,6.07,2.4,6.07,5.47,4.29-3.81,9.43-.86,9.09,4.84,2.16-1.4,5.81-2.67,8.12,2.73.87-.18,1.31-1.16,2.52-1.46a8.81,8.81,0,0,0,1.49-.66v-.19a14.94,14.94,0,0,1,2.24-.55c1.1.41.78.4,1.37-.34a5.22,5.22,0,0,1,2.56-.49,3.25,3.25,0,0,0,1.76-.08c.79-.35,1.53-.44,2,.09s.82.2,1.35.18a3.11,3.11,0,0,1,2.87,1.34,9,9,0,0,0,2,1.33l1.14-.26.13-.42,9.28-3.58c-18.92-20.91-18.43-48.66-14-62.71l1.71.83a56.24,56.24,0,0,0-1.8,14.64c17,7.67,25.52,27.49,15.19,44.79l1.09,1.43c4.3-1.82,15.11-7.95,18.85-11.28l.8.07s2.27-1.48,3.27-2.27l.14-45.92-.79.21-.14-2.68-14-1.13c.18-.13.31-.19.35-.46L139.54,85c-.52-.81-12.29-7.76-16.66-9.39-.18,0-.06.3,0,1,.21,2.49-1.45,4.71-3.38,4.72-.7,0-.82.3-.78,1.73a3.83,3.83,0,0,1-2.8,4.18c-2.52.92-4.22-.41-5.62-5.64-.37-1.37-1.09-1-1.78.85a45.07,45.07,0,0,1-2.11,4.38A4.48,4.48,0,0,1,104,88.7a5.11,5.11,0,0,1-3.77-.19c-1.93-1-2.68-2.18-3.24-5.13-.07-.39-.32-.35-.95.13-3.41,2.59-8.21-.09-8.18-4.57,0-1.32,0-1.37-.81-.74-2.31,1.91-5.46.94-6.72-2.06-.29-.7-.45-1-.68-1ZM60.07,76.71c.21.05.71.68,1,1a10.24,10.24,0,0,0,2.59,1.74c.09-.14,11.29,15,13.2,36l5.21,0c-1-20.33-6.53-30.11-9.07-36.38l1.87-.6c4.19,8.11,9.3,24.56,9.13,39H75.35A79.39,79.39,0,0,0,60.8,78.26c-.54-.82-1-1.38-.81-1.54a.07.07,0,0,1,.07,0Zm-3.33,2.15.87,2.77a1.92,1.92,0,0,1,.37-.89c1.7-1.55,3.33.49,2.56,3.25L60,86.51a25.7,25.7,0,0,0-2.57-1.17c-2.37-1-3.16-3-1.35-3.25.3,0,.93-.07.93-.07-.75-.6-2.41-2-2.41-2Zm8,.31a5.38,5.38,0,0,0,3.63.45,4.86,4.86,0,0,1,2.4-.07,7.16,7.16,0,0,0,1.53-.18,97.81,97.81,0,0,1,9.18,35.4l-4,0A85.18,85.18,0,0,0,65.08,80.24C64.81,79.83,64.45,79.18,64.71,79.16Zm16.59.26c1.87.06,3.68,2.62,4.21,4.06s.68,1.34,1.34,1.11c1.69-.59,3.5,1.29,1.23,1.6s-1,4.77-1.15,5.15c-.9.16-2.6-3.58-2.55-4.69.11-2.73-2.43-5-4-3.86-.75.54-.66.93-.9.73a2.49,2.49,0,0,1,0-3.2,2.32,2.32,0,0,1,1.84-.91Zm46.25.87s.09,3.58,0,4.37c-.26,2.39-3.36,2.64-3.48.73A8.19,8.19,0,0,0,123,88l-2.19-1.52A11.51,11.51,0,0,0,123,84.56c-1.63.12-2.53-1.3-1.45-2.5,1.21-1.38,4.55-1.53,6-1.77Zm-80.6,1.13,1,1.1C39.27,98,42.32,117.74,63.17,128.12a65.66,65.66,0,0,1-1.86,14l-7.69-3.77c.05-17.47-9.75-34.13-25.4-45.08A92,92,0,0,1,46.94,81.42Zm63,.13c.37,2,2.28,5.73,2.42,5.52,0-.12-8,10.27-11.42,27.65H98A97.7,97.7,0,0,1,109.92,81.56Zm24.49.48L136,83c-8.23,7-13.66,15.78-17.64,25.29l-2.08-1C122.43,93.5,128.53,87.37,134.41,82Zm2.11,1.54c.7.05,1.29.69,1.82,1,.76.46.58.66-.88,1.79-1.73,1.33-1.89,1.28-1.87-.63C135.6,84.49,135.91,83.54,136.52,83.58Zm-1.81,2c.48-.08.25,2.17.12,2.9s-2.37,2.64-3.16,3.38c-.32.21-.46.13-.52-.24,0-.59.08-1.38.09-2.18,0-.25,0-.51.17-.7C132.5,87.42,134.08,85.65,134.71,85.55Zm4.18.62s0,0,0,0a8,8,0,0,1,0,2.88,6.39,6.39,0,0,1-2.82-.35c-.1-.3,2.41-2.56,2.82-2.55ZM61.7,87l.6,2.54s.17-.34.22-.41c1.19-1.84,2.64-.76,2.62,1.79a40.22,40.22,0,0,1-.73,4s-4.48-2.17-4.83-3.12a1.27,1.27,0,0,1,1-1.84,3.37,3.37,0,0,1,1,0L59.6,88Zm51.24.34,2,.76c-4.23,7-8.6,13.82-11.79,29.48H94.66a92.14,92.14,0,0,1,7.91-28.14,7.68,7.68,0,0,0,2.61-.83s-7,16.25-7.85,26.69l4.11.09C103.64,105.21,107.75,94.66,112.93,87.34Zm-16.11.25c1.14,0,2,.77,1.92,2.21s-.13,1.51-1.06,1a2.67,2.67,0,0,0-3.26.08c-.6.43-1.18.79-1.18.79a7.79,7.79,0,0,1,1.33-3A3.68,3.68,0,0,1,96.82,87.59Zm-6.7.83A2.44,2.44,0,0,1,92.45,91a7.89,7.89,0,0,1-.51,1.79s.67-.26,1-.41A2.22,2.22,0,0,1,96,94.5a2.42,2.42,0,0,1-2.36,2.27,2.29,2.29,0,0,1-1.42-.5c.34,1.89.41,2.76-1,3.71a2.36,2.36,0,0,1-3.42-2.22l.08-1.3-1.16.15a2.28,2.28,0,0,1-.68-4.51,3.05,3.05,0,0,1,2.17.61,3.64,3.64,0,0,1,.16-3.46,2.17,2.17,0,0,1,1.71-.84Zm30.57,0c.18,1.5.77,3.14.6,4.55-.25,1.79-1.76,2.86-3,1.69-.15-.14-.41-.44-.41-.44a8.33,8.33,0,0,0-.87,2.62L115,95.58A10.88,10.88,0,0,0,116.82,94a1.5,1.5,0,0,0,.17-.47,1.52,1.52,0,0,1-1.84-1.9C115.78,89.85,118.91,89.2,120.68,88.47Zm14.81,1c.79,0,2,.26,2.8.35s.33.55-1.32,2.18-1.47,1.35-2.64,1.33c-2.73,0-3.21,0-1.62-1.72a10.32,10.32,0,0,1,2.16-2A1.36,1.36,0,0,1,135.49,89.51Zm-5.09.33a.12.12,0,0,1,.11,0,6.59,6.59,0,0,1,.1,2.17c0,1.22,0,1.22-.52,1.86-.65.82-1.18,1.65-1.86,2.44s-.56.57-.91-1-.08-1.89,1.75-4.12A6.63,6.63,0,0,1,130.4,89.84Zm8.49,1.11c0,.84,0,1.84,0,2.8a50.92,50.92,0,0,0-12,18.71l-1.91-.93A63.37,63.37,0,0,1,138.89,90.94ZM90.1,92.55a1.7,1.7,0,1,0,1.69,1.7A1.69,1.69,0,0,0,90.1,92.55Zm0,.54a1.18,1.18,0,1,1-1.16,1.18A1.17,1.17,0,0,1,90.09,93.08Zm0,.67a.54.54,0,1,0,.54.54A.54.54,0,0,0,90.09,93.75Zm-62.59.05C45.08,105.18,53,122.82,52.92,138l-1-.45c-1-21.41-12.56-34.58-25-43.1ZM131.38,94a15.67,15.67,0,0,1,1.88.15c1.45.08,1.63.17.63,1.33a15.16,15.16,0,0,1-2.2,2.58,22,22,0,0,1-3.59-.12c-.24,0,.07-.28,1.32-2.07C130.38,94.46,130.48,94,131.38,94Zm7.51.63s.25,9.72,0,15.94c-4-.15-6.3,1.38-7.27,4.29l-4.16-2.1A55,55,0,0,1,138.89,94.59Zm-12.42.08c.23,0,.34.58.41,1.52.33,1.77.2,1.9-.46,3s-1.7,2.89-1.84,2.24c-.55-1.81-.72-2.93-.53-3.3A18.19,18.19,0,0,1,126.47,94.67ZM26.21,95c14.13,8.83,24.46,23.9,24.89,42.12,0,0-3-1.43-4.87-2.47l-.1-1.77,1,0,.31,2,2.16-.07-.57-5-3.38.32L45,127.25l1-.22.57,1.82,2.2-.59-1.17-4.44-3.39.94-1.09-3,1.13-.41.91,1.79,2.07-.73L45.25,118l-3.12,1.49-1.58-2.9,1.22-.66,1,1.73,1.93-1-2.39-4.09-3,1.67-1.49-2.25.92-.65,1,1.19,1.69-1.21-2.6-3.53L36,110l-2.1-2.45,1-.83,1.44,1.3L38,106.59l-3.09-3.4-2.7,2.48-2-1.76,1-1.1,1.25,1,1.33-1.6-3.36-2.79-2.52,2.52-2.41-1.61v-1.2a21.9,21.9,0,0,1,2.36,1.06L29,98.24l-3.61-2.46Zm39.34.75.53,3.11c.51-.85.91-1.43,2-1.1,1.32.54,1.33,2.54.22,5.61a10.13,10.13,0,0,1-.46,1.06,6.29,6.29,0,0,1-1-.51A9,9,0,0,1,64,101.59c-.73-1.16-.74-2.77.59-2.64a4.67,4.67,0,0,1,.79.13l-2-2.58Zm-40.12.93,2.44,1.59-.51.93-1.94-.88Zm61.32.73c.71,1-1.78,3.95,1.48,5.12a1.18,1.18,0,0,1-.6,1.09c-1.6,1.17-3.89-1-3.18-3.17C84.92,99,86.23,97.38,86.76,97.37Zm6.77.09s1,.73,1.18.92c1.82,1.76,1.83,4.28.19,5.16a2,2,0,0,1-2.76-.74.57.57,0,0,1,.55-.8c.78,0,1.38-1.51,1.15-3.11C93.74,98.26,93.53,97.46,93.53,97.46ZM115,98a21.41,21.41,0,0,0,.53,3.11c1,2.68-.26,4.31-2,3.41a3.55,3.55,0,0,1-.7-.71l-.18,3.08-2.53-.75c.55-.89,1.34-1.52,1.93-2.52l-.71,0c-1.51.05-2.07-1.64-.48-3A29.32,29.32,0,0,1,115,98Zm13.48.69a17.25,17.25,0,0,1,2.62.16,22.48,22.48,0,0,1-2.11,3.49,1.41,1.41,0,0,1-.53.21,23.13,23.13,0,0,1-3.2.11c-.24,0,.25-.85.53-1.37.68-1.28,1.2-2.26,1.79-2.53C127.83,98.76,128.13,98.74,128.44,98.73Zm-5.2,1c.19,0,.34.34.52,1.07.43,1.7.54,1.74-.15,3.13l-1.2,2.38c-.63,1.26-.67,1.25-1.06.12-.76-2.17-.83-1.95.43-4.38C122.56,100.55,123,99.77,123.24,99.75Zm-92.7.59,2.27,1.84-.65.63-1.26-.94-1.86,2,3.05,2.81,2.58-2.57,2.22,2.34-.68.58-1.3-1.27L33,107.46l2.9,3.46,2.93-2.25,1.84,2.43-.75.47-1.2-1.17-1.9,1.33,2.37,3.37,3-1.73,1.69,2.81-.94.46-1-1.54-2.14,1.25,2,3.94,3.22-1.36,1.3,3-1,.4-.83-1.81-2.17.87,1.45,4.14,3.27-.95.79,3.07-1,.28-.5-1.7-2.08.5.87,4.15,3.33-.21.4,3.36-1,0-.26-2-2.12,0c0,.71.09,2.15.09,2.15l-1.28-.6a46.17,46.17,0,0,0-18.8-30.82l-.05-1.52,2.46,1.58s2.26-2,2.65-2.55Zm95.84,3c.49,0,1,0,1.57,0,.27.18-.07.8-.76,2.14-1,1.84-1.13,1.88-2.92,2.32-2.18.54-2.12.66-.94-1.88a9,9,0,0,1,1.49-2.47C125.4,103.43,125.89,103.4,126.38,103.38Zm-100.83.48c10.5,6.84,17.14,21,18,29.55a6.74,6.74,0,0,0-.86-.46c-.8-.37-1-.61-1.22-1.78A43.71,43.71,0,0,0,25.6,105.52Zm94.68,1.75c.52-.18,1.4,3.74,1.13,4.06l-2.54-1.16S119.94,105.68,120.24,105.62Zm-50.63.15-.05,3.34a5.58,5.58,0,0,1,.6-.63c.78-.58,2,.22,2,1.21C72.24,111,72,111.6,71,113.5c-.34.59-.84,1.34-.84,1.34a24.06,24.06,0,0,1-2.68-2.33c-1.51-1.52-1.22-3.55.1-3.56a3.53,3.53,0,0,1,1.1.24,20.5,20.5,0,0,0-1.35-2.89Zm41,2.5a12.52,12.52,0,0,1,1.47,3.31c.75,2.29-.4,4-2,3.15a2.7,2.7,0,0,1-.58-.49,17.39,17.39,0,0,0,.11,3.12l-2.53-.45a19,19,0,0,0,1.49-2.78s-.16.13-.85.13c-2.55,0-2-3.06.92-4.76C109.15,109.24,110.65,108.27,110.65,108.27Zm14.6,0c.55,0,.29.51-.32,1.77-.33.68-.56,1.06-.56,1.06s-1.83-.79-2.65-1.28A7,7,0,0,1,125.25,108.3Zm-36.14.41c2,0,3.47,2,3.17,4.82-.51,4.85-.22,4.55.31,5,1,.88-.34,1.41-1.47.57-.79-.59-1-1.16-1-3.84,0-3.08-.12-3.86-1.21-3.59-.68.17-.89.75-.82,2.83.11,2.91-.09,3.64-1.18,4.58s-2.45.1-1.38-.51c.49-.56.59-1.27.4-3C85.7,114.08,84.83,108.69,89.1,108.71Zm48.65,2.44c.49,0,1,0,1.45,0,3.84.15,13.55.94,13.55.94l.08,2.9c-.6-.09-14.08-1.21-16-.63.87.36.79,4.73-3,3.67-3.23-1.17-1.69-5.69,2.48-6.7A7.22,7.22,0,0,1,137.75,111.15ZM89.05,113c.22,0,.39.87.39,2s-.18,2-.39,2-.39-.87-.39-2S88.83,113,89.05,113Zm28,.13,8.3,4.13c1.16,15.73,6.54,32.34,24.86,44.94a101.41,101.41,0,0,1-18.92,11l-.7-.75c10.1-17.34,2.47-36.43-15.22-45.07A69.33,69.33,0,0,1,117.08,113.1Zm17.75,2a.73.73,0,1,0,.73.73A.73.73,0,0,0,134.82,115.08Zm7.5.31c1.29,0,2.65.32,3.94.34h0c1.59-.06,2,.12,2.14.85s.63.85,1.23.63c1.46-.54,2.35,2.08,1.14,3.24-.75.72-.62,1,0,1,1.53,0,1.48,2-.07,3.17-.64.47-.64.69,0,1,1.13.56.9,1.67-.53,2.59-.78.5-.8.62-.16.8,1.62.44,0,2.77-1.8,2.36a2.62,2.62,0,0,0-2.11.45c-1.9.8-2.21,1-4.26.7-1.8-.33-2.6-.93-3.07-2.52-1.05-3.24-2.19-6.83-2.2-10.37-.16-2.17,3.45-4.14,5.15-4.22l.55,0Zm-109.57.4a3.49,3.49,0,1,1-3.45,3.49A3.47,3.47,0,0,1,32.75,115.79Zm38.38,1-.31,3,.63-.5a1.24,1.24,0,0,1,2,1.27,13.87,13.87,0,0,1-2.59,4.78s-2.85-3.14-3.16-3.75c-.68-1.36.25-2.78,1.48-2.18a7.91,7.91,0,0,1,.68.47L69,117Zm-38.07.11c-1.25-.09-2.49.58-2.3,1.94.1.43.75-.19,1.4-.6a1.94,1.94,0,0,1,2.64.88c.24.3.51.55.66.4A2.4,2.4,0,0,0,33.06,116.92Zm92.93.61,1.23.64c1.66,22.23,12.8,35.29,24.5,43.07l-.93.57A55,55,0,0,1,126,117.53Zm1.87.91s3.1,1.6,4.72,2.34l.06,2-1.08,0-.37-1.89-2.25.16.7,4.65,3.63-.45.51,2.81-1.23.26-.63-1.73-2.08.51,1.35,4.52,3.28-1.07,1,3-1.1.4-.7-1.73-2.16.76,1.67,4.41,3.41-1.11,1.38,2.76-1,.46-1-1.71-2,1.06,2.4,4.12,3.08-1.63,1.44,2.2-1.13.76-1-1.35-1.66,1.1,2.65,3.66,2.65-2,2,2.31-.88.78-1.35-1.39-1.6,1.44,3.16,3.5,2.75-2.41,2,1.83-.58.61-1.31-.83-1.74,1.86,3.32,2.92,2.64-2.92,2.23,1.66v1.23l-2-1-1.34,2,3.33,2.55,0,1c-19-11.46-24-29.24-25-42.47Zm-39,.22c.82,0,1.69.76,3.13,2.43,4,4.69,2.94,11.95-2.3,15.73-.76.55-1.07.5-2-.31-5.38-4.66-5.69-10.9-.9-16.38.83-.95,1.44-1.46,2.08-1.48Zm19.23.64c1,1.53,2.24,3.11,2.38,5-.07,1.84-1.3,2.18-2.57,1.11a9,9,0,0,0,.38,2.84L106,128a7.77,7.77,0,0,0,.94-2.59,1.58,1.58,0,0,1-2.6-1.52C104.8,121.86,106.44,120.51,108.11,119.31ZM89,120.51a1.42,1.42,0,0,0-.69.39,10,10,0,0,0-3.07,4,8.53,8.53,0,0,0,2.3,9.28c1.38,1.37,1.87,1.28,4-1.56a8.3,8.3,0,0,0,1-8.12A9,9,0,0,0,89.87,121c-.45-.35-.68-.52-.92-.51Zm44.24.57L135,122c2.28,15.16,9.66,24.4,17.93,30.78l0,1.41-2.22-1.74L148,155.22l-2.15-1.78.81-.79,1.23.79,1.57-1.78-3.09-2.78-2.69,2.36-2.24-2.33.68-.57,1.55,1.37,1.74-1.55-3-3.4-2.68,2.06-1.87-2.51.82-.49,1,1.36,2.07-1.3-2.19-3.4-3.12,1.61-1.6-2.9.91-.44,1,1.63,1.94-.94-2-4-3.19,1.06-1.17-3.15.91-.34.8,1.86,2.16-.7-1.47-4.31-3.3.94-.81-3.17,1-.22.53,1.71,2.27-.46-.83-4.11-3.37.43a30.56,30.56,0,0,1-.6-3.29l1-.08.33,1.81,2.27-.08Zm-44.12.33c1.24.17,2.75,2.58,3.09,3.45a7.7,7.7,0,0,1,.11,5.27,11.89,11.89,0,0,1-2.86,4.15c-.75.41-1.37.11-2.44-1.35-2.1-2.89-2.51-6.36-.85-8.73,1.27-1.82,2.21-2.78,3-2.78Zm46.51.75.9.43c1.1,8.78,6.26,20.84,16.41,28v1.1C145,146,137.75,136.15,135.59,122.16Zm-46.67.6c-3.53,2.69-3,6.9-.29,9.74C91.51,130.56,92.53,125.36,88.92,122.76ZM35,122.93h0c2,0,3.26.65,3.86,2a13,13,0,0,1,1.27,3.71l.38,2.18c1,5.89.27,8.11-3.27,9a8.19,8.19,0,0,1-3.56.11c-.27-.07-1.26-.07-2-.1a3.7,3.7,0,0,1-2.79-.85,1.88,1.88,0,0,0-.89-.47c-1.77-.28-2.29-1.92-1-3.12.76-.69.84-.78.77-.9a1.43,1.43,0,0,0-.73-.12c-1.78,0-1.76-1.86,0-3.18.85-.63,1.24-1.22.67-1.08-1.62.39-2.2-2-.5-2.75.9-.51,1.55-.94.68-1s-1.33-.48-1.1-1.12a2.55,2.55,0,0,1,2.62-1.22c.67.21,1.32.4,1.74.09A4.75,4.75,0,0,1,33.5,123a11,11,0,0,1,1.47-.08Zm59.26.45,8.07.16v8.11l-7.84-.15a10.56,10.56,0,0,0-.23-8.12Zm-18.44.19,7.93.1a12.5,12.5,0,0,0-.33,8l-7.6-.12Zm13.16,1c1.61,1,1.33,5.33-.15,6.29C87.49,129.76,87.11,125.64,89,124.56Zm-19.33,2.55,2.1.2-.75,3a2.53,2.53,0,0,1,.45-.4c2.7-1.28,2.9,1.62.15,4.24-.61.58-1.58,1.37-1.58,1.37s-.77-1.17-1.37-2.22a4.94,4.94,0,0,1-1-2.8c.17-.88,1.22-1.46,1.88-.92a8.77,8.77,0,0,1,.71.66Zm37.56,2.23s.88.91,1.42,1.5c1.86,2.05,2.18,4,1.23,4.55a1.63,1.63,0,0,1-2-.42,12.73,12.73,0,0,0,1.11,3.15l-2.77.45a18.06,18.06,0,0,0,.63-3.51,6.31,6.31,0,0,1-.82.55c-1.81.67-2.71-1.41-1.22-3.48A21.53,21.53,0,0,1,107.18,129.34Zm37.88,3.84a3.4,3.4,0,1,1-3.37,3.4A3.39,3.39,0,0,1,145.06,133.18Zm1.66,1.56c-.15,0-.26.37-.28,1.11a1.77,1.77,0,0,1-2.8,1.43c-.56-.29-1-.71-1-.39a3.94,3.94,0,0,0,.76,1.39c1.17,1.06,4,.81,3.94-1.66C147.28,135.47,147,134.68,146.72,134.74ZM85.55,136a1.51,1.51,0,0,1,1.13.44c.92.64,1.1,1.45,1.15,4.51.05,2.7,0,2.77.44,3.09,1.08.8,1.73-.42,1.42-3.16s.64-4.55,2.22-4.54c.78,0,.92.46.33,1.05s-.77,1.38-.58,2.9c.5,3.9.07,5.82-1.56,6.61a3,3,0,0,1-4.26-2.28,18.22,18.22,0,0,1-.07-4.76c0-1.69,0-1.89-.59-2.86-.41-.65-.11-1,.36-1Zm-42.63,1.27A2.79,2.79,0,0,1,45.42,139c1.4,2.93-1.64,5.33-4.43,5.52a111.22,111.22,0,0,1-15.46-1.28l.08-2.76c4.46.26,9.49.63,14.91.88-.62-2.57.85-4.11,2.41-4.11Zm25.47.57,2.7.6-1.72,2.83a1.65,1.65,0,0,1,1.37-.19c1.1.4,1.11,1.8.31,3.12A12.71,12.71,0,0,1,67.4,147c-.69-1.49-2.2-4.09-1.6-5.52a1.46,1.46,0,0,1,2-.71c.27.17.8.44.8.44Zm6.37.08L83,138c-1.19,8.38-3.53,19.58-8.13,28.7l-1.94.5a95.2,95.2,0,0,0,8-27.08H76.83C74.46,150.35,71,159.81,65.59,168l-2.39-.79C68.95,158,73.5,147.79,74.76,137.92Zm18.74.15h9.16c1.68,17.07,7.4,28.72,15.9,40.25a1.74,1.74,0,0,1-.85,0,5.31,5.31,0,0,0-3-2.13c-7.15-10.39-11.94-24.91-13.1-36H96.15c.62,14,4.45,25.39,9.54,36.47l-2.76.51C98.84,167.22,94.35,158.59,93.5,138.07Zm-4.72,1.14c.22,0,.39.87.39,2s-.18,2-.39,2-.39-.87-.39-2S88.57,139.21,88.78,139.21ZM43,139.38a.73.73,0,1,0,.73.73A.73.73,0,0,0,43,139.38Zm64.78.8c.75.59,1.57,1.17,2.34,1.73,2.06,1.46,2,4.22,0,4.21l-.71,0s.82,1.81,1.34,2.73c-.84.22-2.58.56-2.58.56a22.41,22.41,0,0,0,.2-3.25,2.57,2.57,0,0,1-.61.51c-1.33.56-2.45-.61-2.29-2,.22-1.87,2.29-4.45,2.29-4.45Zm-61.18.33,4.51,2.26c-3.07,7.06-6.69,13.67-11.78,18.69l.23-16.31C42.31,145.07,45.16,145,46.57,140.51Zm30.82.26h2.77c-1.23,13-9.75,30.63-11.35,32.76l-.53.4s-1.09-4-2.37-5.42C70.73,162,75.77,149.38,77.4,140.77Zm19.5,0h4.19c1.3,10.37,4.48,21.58,12.53,35.19a2.61,2.61,0,0,1-1.43-.29c-1.37-.86-2.33.28-3.15.23a7,7,0,0,0-2.82.17A96.36,96.36,0,0,1,96.89,140.77ZM51.65,143.1h0l1.49.71c-3.22,7.51-6.22,13.48-13.84,20.81v-2.18c5.35-5.23,9.06-12.13,12.35-19.33Zm2.18,1a16.81,16.81,0,0,1,2.53,1.36,4.63,4.63,0,0,1-3.42,1.68c-.65.15-.45-.5.26-1.95A9.23,9.23,0,0,1,53.83,144.15Zm3,1.59,2.71,1.34a19,19,0,0,1-.89,2.35c-.88,1.92-1.05,2-1.32.38,0-.27-.31-1.17-.47-1.76a4.24,4.24,0,0,1,0-2.31Zm3.27,1.55s1.05.52,1.39.74c-4.69,14.19-17.19,25.91-17.12,25.64l-1.95-1.16A67.12,67.12,0,0,0,60.09,147.29Zm-5,.2c.45,0,.06.57-.56,1.94s-.77,1.81-1.32,2a20.13,20.13,0,0,1-2.89.47c-.43.07-.25-.25.41-1.6.77-1.57.81-1.9,2-2.23a17.12,17.12,0,0,1,2.34-.61ZM56,148c.38.15.61,2.15.74,2.28.48,1.76.47,2.1.15,2.71-.61,1.14-1.4,2.48-1.62,2.84-.55.9-.7.72-1-1.48a7.54,7.54,0,0,1-.23-2.57c.27-.67,1.09-2.25,1.55-3.18.16-.49.31-.65.44-.6Zm9.38.74,2.46.82-1.93,2.35a5.59,5.59,0,0,1,.91-.11c1.94.13,1.61,2.07.11,3.25a26.94,26.94,0,0,1-3.68,2c-.33-1.74-1-2.85-.84-4.63.11-1,.2-1.83,1.37-1.86.61,0,.86.6,1.26,1.11ZM110,150.88a21.52,21.52,0,0,1,2.86,1.84c1.79,1.39,2.1,3,.31,3.66a3.3,3.3,0,0,1-.8,0,16.55,16.55,0,0,0,1.66,2.16,8.72,8.72,0,0,1-2.33,1s-.23-2.16-.45-3a2,2,0,0,1-.53.65c-1.73,1.08-3.08-1-2.15-3.54a14.36,14.36,0,0,1,1.43-2.85Zm-19,.36c4.31-.11,1.78,7-.37,6.56,0-.06,1.78-4.21-.67-4.87C88.9,152.62,89.87,151.23,91.06,151.24Zm-7.07.51c1.34,0,2.31.94,1,1.54-2,.94-.81,3.21-.77,4.49,0,.78-1.79-.68-2.18-2.27C81.57,153.45,81.8,151.92,84,151.75Zm-31.89.75a1.28,1.28,0,0,1,.6.08c.13.34-.48,1.39-1.35,2.73a2.92,2.92,0,0,1-1,1.09,5.92,5.92,0,0,1-2.43.34c-1.18,0-1,0,.33-2.07a9.14,9.14,0,0,1,1.3-1.91A15.6,15.6,0,0,1,52.1,152.49Zm1.3.75c.16,0,.25.29.25.73,0,2.58.87,3.42.23,4.23a35.82,35.82,0,0,1-2.13,3.09c-.61.74-.54.6-.7-1.33a8.79,8.79,0,0,1-.06-2.77c.52-1.26,1.14-1.87,1.79-3.21C53,153.45,53.25,153.23,53.4,153.25Zm34.28,2a2.32,2.32,0,0,1,2,2.59L89.6,159c1.62-.63,3.63,0,3.72,1.58.15,2.72-1.83,2.4-3.51,2.29.17.06.42,2.45-.58,3.37-1.56,1.77-4.48,0-3.75-2.63a5.48,5.48,0,0,0,.18-.88,6.43,6.43,0,0,1-1.42.36c-3.17-.14-2.93-4.67.26-4.13a7,7,0,0,1,1.09.27s-.07-.29-.18-.69c-.46-1.74.51-3.34,2.26-3.31Zm63.5.81,1.71,1V159l-2.43-1.82ZM48.59,157.37c.67,0,1.21,0,1.1.21a14.74,14.74,0,0,1-2.35,3.36c-.74.81-.85.69-2.67.6-.71,0-1.18,0-1.16-.23.84-1.11,2-2.54,2.79-3.73A12.36,12.36,0,0,1,48.59,157.37Zm1.57,1.05c.37.08.3,2,.39,3.18s.12,1.1-.35,1.76-1.16,1.53-1.89,2.24c-1.11,1.24-1,1.31-1-1.34,0-2.07-.14-2.07.27-2.55.23-.27.93-1.14,1.4-1.82C49.7,158.87,50,158.43,50.16,158.43Zm10.65.22,2.28,1.23-2.28,2.33a7.25,7.25,0,0,1,.76,0c1.47.29,1.35,1.85-.12,3a35.34,35.34,0,0,1-4,1.72A31.4,31.4,0,0,1,57.1,163a2.9,2.9,0,0,1,.58-1.92A1.21,1.21,0,0,1,59.4,161a3.15,3.15,0,0,1,.64.81Zm26.87.8a1.63,1.63,0,1,0,1.62,1.63A1.62,1.62,0,0,0,87.68,159.44Zm25.45.38a17.06,17.06,0,0,1,4.32,2.37c1.25,1.06.66,2.8-.58,2.83-.09,0-.62-.08-.62-.08.42.65,1.84,2.24,1.84,2.24l-2.3.94s-.37-1.79-.65-2.79c-.8,1.87-2.78.65-2.92-.51C111.9,163.11,112.62,161.44,113.13,159.82ZM87.68,160a1.13,1.13,0,1,1-1.12,1.13A1.13,1.13,0,0,1,87.68,160Zm0,.6a.54.54,0,1,0,.54.54A.54.54,0,0,0,87.68,160.56Zm-43.43,1.72c.56,0,1.12,0,1.7.06.34.26-.37,1.09-1.75,2.55-1.11,1.17-1.27,1-2.61,1-2.25,0-2.31,0-1.27-1.15a12.67,12.67,0,0,1,2.31-2.41,12.4,12.4,0,0,1,1.62-.07Zm2.18,1.18c.35,0,.12,1.42.14,1.91l-.06,2.35-1.75,1.7c-2,1.83-1.78,1.95-1.77.23a8,8,0,0,1,.29-2.92c.88-1.08,1.81-2,2.81-3.05.15-.17.26-.23.34-.23Zm44.49.55c.49,0,1.73,2.11,2,3.91.71,4.11,3.15,6.06,4.86,4.41.7-1,.78.09.74.59-.36,5.2-6.21,3-6.87-2.13-2.05,1.34-4-1.37-2.74-1.33,2.89-.93,2.1-3.61,2-5.45Zm-6.77,0c.29,1.8-2.93,4.88-4.74,2.72-.92-1.1-.08-3.37,1.09-2C81.8,165.76,83.05,164.64,84.16,164Zm-43.79,2.4c.55,0,1.2.11,1.64.12.59.06.17.35-1.11,1.52-1.1,1-1.47,1.46-1.6,1-.06-.68,0-1.5,0-2.46.05-.2.51-.23,1.06-.2ZM55,167.71l2,1.44L55,171c1.74-.09,1.9,1.56,1.24,2.48-.43.65-2.08,1.33-3.74,1.6l-1.81.28s0-.77-.06-2.06c-.06-2.63.12-3.67,1.12-4.18A1.92,1.92,0,0,1,54,170a5.61,5.61,0,0,0,.36.61Zm-12.62.14h0c.11.15-.29,4.43-.29,4.43l-2.77-1.62s2.8-2.77,3-2.82Zm75.22.51c2,1,3.43.92,4.9,2a1.63,1.63,0,0,1,0,2.74,3.32,3.32,0,0,1-1,.05,14.8,14.8,0,0,0,2.28,2l-2.49,1.05s-.34-1.7-.66-2.62a1.79,1.79,0,0,1-2.87.7c-.62-.48-.88-2.09-.58-3.48.08-.37.48-2.43.48-2.43Zm-13.31,39.86c-24.57,5.88-44.54,2.24-46.52,1.55l-1.57,2.36c-.19.4-.31,1.6-1.37,1.92l-1.59,2.4.31.33L52.11,218l.34.41-1,1.51-.4,0-2.38,3.65L49,224l-5.46,8.62,73.83,0c-4.29-8.17-8.88-16.18-13.13-24.38Zm-.45,1.06.6,1.25a8.65,8.65,0,0,0-9.73,3.59c-4.54-3.44-10.25-2.36-14,1.51a10.43,10.43,0,0,0-14.06-.47c-1.87-4.06-8.82-4.25-8.89-3.78a3.84,3.84,0,0,0,.33-.61C66.59,212.76,86.14,213.58,103.8,209.29ZM101.73,211a13.23,13.23,0,0,1,3.24.6l.76,1.33c-1.6-.86-8.44-2.81-10.38,4.05-2-2.79-10.46-6.83-14.73,1.76-1.21-2.33-8.29-9-14.73-.49-2.54-5.3-4.67-5.75-9.33-5,3.32-3.22,8,.13,10,2.87,5.56-4.66,10.22-3.26,14.28.53,5.24-5.76,10.47-4.37,14.15-1.48C96.87,212.23,98.78,210.86,101.73,211Zm2.92,3h.42a3.64,3.64,0,0,1,2.05.91s-.67.11-.88.17A2.51,2.51,0,0,0,107,220a9.86,9.86,0,0,0,1-.11c-.06,2.81.79,3.5,3.63,3.34l4.82,8.7-71.34-.31,4.53-7.31c2.28.27,3.71-1,3.2-3a12.35,12.35,0,0,0,1.79.44c2.58,0,3.25-4,.77-4.67-.27-.08-1-.15-1.05-.18,1.13-2.85,4.24-1.17,5.13,0a3.12,3.12,0,0,1,5.17,1.23s-.37-.21-.49-.29c-2.35-1.73-4.53,1.85-2.23,3.51a3,3,0,0,0,.7.3,2.69,2.69,0,0,0-.53.66,2.65,2.65,0,0,0,3,3.86c1.78-.7,1.8-2.05,1.8-3.54,0,0,.62,0,1.17.05,2.14,0,2.75-2.74,1.44-4a3.35,3.35,0,0,0-2.09-.73c2.46-2.44,4.13-.76,5.87.37.26,0,3-3.34,6.29-.07a2.5,2.5,0,0,0-3.24,2.29c0,1.07.79,2,2.44,2.1a4.67,4.67,0,0,0-.3,1.47,2.47,2.47,0,0,0,3,2.57,2.51,2.51,0,0,0,2-3.21,1.85,1.85,0,0,0-.55-.85,2.41,2.41,0,1,0,.79-4.74,2.47,2.47,0,0,0-2,.9c1.76-3.64,5-2.91,6.2-1.42,1.66-1.21,3.94-2.87,6.67.08a3.73,3.73,0,0,0-1.63,0,2.26,2.26,0,0,0-.46,4.2,3.58,3.58,0,0,0,1.71.35,2.6,2.6,0,0,0,3.81,2.88c1.3-.8,1.64-2.69.23-4.42,2.37-.11,2.6-3.09,1.23-4.14-1.07-.82-2.34-.43-3.25.65-.29-.86,2-3.83,5.36-1.69a5.59,5.59,0,0,1,3-1.37Zm3.51,3.24.93,1.7A1.07,1.07,0,0,1,108.16,217.19Zm-12,1.73a1.06,1.06,0,1,1-1,1.06A1.06,1.06,0,0,1,96.2,218.92ZM52.9,219c.14.57.2,1.14-.82,1.25ZM65,220a1,1,0,1,1-1,1A1,1,0,0,1,65,220Zm16,.3a1,1,0,1,1-1,1A1,1,0,0,1,81,220.31Z"/>
  <path d="M47.83,29.38C40.45,39.9,32.55,46,32.42,54.17c0,2.66,1.39,7.18,5.9,8,2.92.56,6.94-1.81,7-6.61,0-1,1-.93,1,.38A27.26,27.26,0,0,1,43,67.78h9.67A27.26,27.26,0,0,1,49.31,56c0-1.31,1-1.34,1-.38.08,4.8,4.11,7.17,7,6.61,4.5-.87,5.94-5.38,5.9-8-.13-8.21-8-14.27-15.41-24.79Z"/>
  <path d="M130.65,226.51c-7.38-10.53-15.28-16.58-15.41-24.79,0-2.66,1.39-7.18,5.9-8,2.92-.56,6.94,1.81,7,6.61,0,1,1,.93,1-.38a27.26,27.26,0,0,0-3.35-11.79h9.67a27.26,27.26,0,0,0-3.35,11.79c0,1.31,1,1.34,1,.38.08-4.8,4.11-7.17,7-6.61,4.5.87,5.94,5.38,5.9,8-.13,8.21-8,14.27-15.41,24.79Z"/>
</svg>
