<svg xmlns="http://www.w3.org/2000/svg" viewBox="0 0 178.58 249.45">
  <title>S2</title>
  <path d="M164.81,209.47c3.45-4.39,7.14-6.91,7.2-10.33a3.32,3.32,0,0,0-2.76-3.35,2.86,2.86,0,0,0-3.28,2.75c0,.4-.47.39-.47-.16a10.45,10.45,0,0,1,1.57-4.91h-4.52a10.45,10.45,0,0,1,1.57,4.91c0,.55-.47.56-.47.16a2.86,2.86,0,0,0-3.28-2.75,3.32,3.32,0,0,0-2.76,3.35c.06,3.42,3.75,5.95,7.2,10.33Z"/>
  <path d="M13.77,40c3.45,4.39,7.14,6.91,7.2,10.33a3.32,3.32,0,0,1-2.76,3.35,2.86,2.86,0,0,1-3.28-2.75c0-.4-.47-.39-.47.16A10.45,10.45,0,0,0,16,56H11.51a10.45,10.45,0,0,0,1.57-4.91c0-.55-.47-.56-.47-.16a2.86,2.86,0,0,1-3.28,2.75,3.32,3.32,0,0,1-2.76-3.35c.06-3.42,3.75-5.95,7.2-10.33Z"/>
  <path d="M89.29,223.29c7.38-10.53,15.28-16.58,15.41-24.79,0-2.66-1.39-7.18-5.9-8-2.92-.56-6.94,1.81-7,6.61,0,1-1,.93-1-.38a27.26,27.26,0,0,1,3.35-11.79H84.46a27.26,27.26,0,0,1,3.35,11.79c0,1.31-1,1.34-1,.38-.08-4.8-4.11-7.17-7-6.61-4.5.87-5.94,5.38-5.9,8,.13,8.21,8,14.27,15.41,24.79Z"/>
  <path d="M89.29,26.16C96.67,36.68,104.57,42.74,104.7,51c0,2.66-1.39,7.18-5.9,8-2.92.56-6.94-1.81-7-6.61,0-1-1-.93-1,.38a27.26,27.26,0,0,0,3.35,11.79H84.46a27.26,27.26,0,0,0,3.35-11.79c0-1.31-1-1.34-1-.38-.08,4.8-4.11,7.17-7,6.61-4.5-.87-5.94-5.38-5.9-8,.13-8.21,8-14.27,15.41-24.79Z"/>
  <path d="M172.32,212l-.13,1.63c-.41,5-1.49,6.73-7.62,12-3,2.55-4,3.8-4.09,5.26-.39,3.44,2.65,4.51,4.63,4.53,2.57,0,5.47-1.54,4.09-5.17l2.88-.86c.58,3.39,0,6.56-2.71,8-3.6,1.84-8.22,1.12-10.55-1.78a6.91,6.91,0,0,1-1.08-6.74c2.46-5.38,10.78-7.74,11.47-14H160v3.46H157.3V212l15,.06Z"/>
  <path d="M6.26,37.41l.13-1.63c.41-5,1.49-6.73,7.62-12,3-2.55,4-3.8,4.09-5.26.39-3.44-2.65-4.51-4.63-4.53C10.9,14,8,15.56,9.38,19.19l-2.88.86c-.58-3.39,0-6.56,2.71-8,3.6-1.84,8.22-1.12,10.55,1.78a6.91,6.91,0,0,1,1.08,6.74c-2.46,5.38-10.78,7.74-11.47,14h9.2V31.09h2.71v6.38l-15-.06Z"/>
</svg>
