<svg xmlns="http://www.w3.org/2000/svg" viewBox="0 0 178.58 249.45">
  <title>S3</title>
  <path d="M13.77,40c-3.45,4.39-7.14,6.91-7.2,10.33a3.32,3.32,0,0,0,2.76,3.35,2.86,2.86,0,0,0,3.28-2.75c0-.4.47-.39.47.16A10.45,10.45,0,0,1,11.52,56H16a10.45,10.45,0,0,1-1.57-4.91c0-.55.47-.56.47-.16a2.86,2.86,0,0,0,3.28,2.75A3.32,3.32,0,0,0,21,50.31c-.06-3.42-3.75-5.95-7.2-10.33Z"/>
  <path d="M164.81,209.47c-3.45-4.39-7.14-6.91-7.2-10.33a3.32,3.32,0,0,1,2.76-3.35,2.86,2.86,0,0,1,3.28,2.75c0,.4.47.39.47-.16a10.44,10.44,0,0,0-1.57-4.91h4.52a10.45,10.45,0,0,0-1.57,4.91c0,.55.47.56.47.16a2.86,2.86,0,0,1,3.28-2.75,3.32,3.32,0,0,1,2.76,3.35c-.06,3.42-3.75,5.95-7.2,10.33Z"/>
  <path d="M89.29,26.16C81.91,36.68,74,42.74,73.88,51c0,2.66,1.39,7.18,5.9,8,2.92.56,6.94-1.81,7-6.61,0-1,1-.93,1,.38a27.26,27.26,0,0,1-3.35,11.79h9.67a27.26,27.26,0,0,1-3.35-11.79c0-1.31,1-1.34,1-.38.08,4.8,4.11,7.17,7,6.61,4.5-.87,5.94-5.38,5.9-8-.13-8.21-8-14.27-15.41-24.79Z"/>
  <path d="M89.29,223.29C81.91,212.77,74,206.71,73.88,198.5c0-2.66,1.39-7.18,5.9-8,2.92-.56,6.94,1.81,7,6.61,0,1,1,.93,1-.38a27.26,27.26,0,0,0-3.35-11.79h9.67a27.26,27.26,0,0,0-3.35,11.79c0,1.31,1,1.34,1,.38.08-4.8,4.11-7.17,7-6.61,4.5.87,5.94,5.38,5.9,8-.13,8.21-8,14.27-15.41,24.79Z"/>
  <path d="M89.29,105.52C81.91,116.05,74,122.11,73.88,130.32c0,2.66,1.39,7.18,5.9,8,2.92.56,6.94-1.81,7-6.61,0-1,1-.93,1,.38a27.26,27.26,0,0,1-3.35,11.79h9.67a27.26,27.26,0,0,1-3.35-11.79c0-1.31,1-1.34,1-.38.08,4.8,4.11,7.17,7,6.61,4.5-.87,5.94-5.38,5.9-8-.13-8.21-8-14.27-15.41-24.79Z"/>
  <path d="M5.2,31.68l2-1.49C9,33.06,11,35,14,34.63c4.53-.31,6.4-5.06,5.46-8.63a5.24,5.24,0,0,0-7.65-3.06,7.47,7.47,0,0,1-1.52.74c-.31,0-1-1.41-.92-1.84a93.37,93.37,0,0,1,6.86-8H8.63v3.43H5.72V11.07H20.55v2.09a50.49,50.49,0,0,0-5.29,6.38A7.2,7.2,0,0,1,22,24.95a14.34,14.34,0,0,1-.41,7.29,9.15,9.15,0,0,1-7.44,5.21c-5,.34-7.66-3.17-9-5.76Z"/>
  <path d="M173.38,217.77l-2,1.49c-1.76-2.87-3.74-4.76-6.75-4.44-4.53.31-6.4,5.06-5.46,8.63a5.24,5.24,0,0,0,7.65,3.06,7.47,7.47,0,0,1,1.52-.74c.31,0,1,1.41.92,1.84a93.37,93.37,0,0,1-6.86,8h7.59v-3.43h2.91v6.15H158v-2.09a50.49,50.49,0,0,0,5.29-6.38,7.2,7.2,0,0,1-6.78-5.41,14.34,14.34,0,0,1,.41-7.29,9.15,9.15,0,0,1,7.44-5.21C169.39,211.66,172.05,215.17,173.38,217.77Z"/>
</svg>
