<svg xmlns="http://www.w3.org/2000/svg" viewBox="0 0 178.58 249.45">
  <title>S4</title>
  <g>
    <path d="M130.7,223.29c7.38-10.53,15.28-16.58,15.41-24.79,0-2.66-1.39-7.18-5.9-8-2.92-.56-6.94,1.81-7,6.61,0,1-1,.93-1-.38a27.26,27.26,0,0,1,3.35-11.79h-9.67a27.26,27.26,0,0,1,3.35,11.79c0,1.31-1,1.34-1,.38-.08-4.8-4.11-7.17-7-6.61-4.5.87-5.94,5.38-5.9,8,.13,8.21,8,14.27,15.41,24.79Z"/>
    <path d="M164.81,209.47c3.45-4.39,7.14-6.91,7.2-10.33a3.32,3.32,0,0,0-2.76-3.35,2.86,2.86,0,0,0-3.28,2.75c0,.4-.47.39-.47-.16a10.45,10.45,0,0,1,1.57-4.91h-4.52a10.45,10.45,0,0,1,1.57,4.91c0,.55-.47.56-.47.16a2.86,2.86,0,0,0-3.28-2.75,3.32,3.32,0,0,0-2.76,3.35c.06,3.42,3.75,5.95,7.2,10.33Z"/>
    <path d="M13.77,40c3.45,4.39,7.14,6.91,7.2,10.33a3.32,3.32,0,0,1-2.76,3.35,2.86,2.86,0,0,1-3.28-2.75c0-.4-.47-.39-.47.16A10.44,10.44,0,0,0,16,56H11.51a10.45,10.45,0,0,0,1.57-4.91c0-.55-.47-.56-.47-.16a2.86,2.86,0,0,1-3.28,2.75,3.32,3.32,0,0,1-2.76-3.35c.06-3.42,3.75-5.95,7.2-10.33Z"/>
    <path d="M47.88,223.29c7.38-10.53,15.28-16.58,15.41-24.79,0-2.66-1.39-7.18-5.9-8-2.92-.56-6.94,1.81-7,6.61,0,1-1,.93-1-.38a27.26,27.26,0,0,1,3.35-11.79H43a27.26,27.26,0,0,1,3.35,11.79c0,1.31-1,1.34-1,.38-.08-4.8-4.11-7.17-7-6.61-4.5.87-5.94,5.38-5.9,8,.13,8.21,8,14.27,15.41,24.79Z"/>
    <path d="M130.7,26.16C138.09,36.68,146,42.74,146.11,51c0,2.66-1.39,7.18-5.9,8-2.92.56-6.94-1.81-7-6.61,0-1-1-.93-1,.38a27.26,27.26,0,0,0,3.35,11.79h-9.67a27.26,27.26,0,0,0,3.35-11.79c0-1.31-1-1.34-1-.38-.08,4.8-4.11,7.17-7,6.61-4.5-.87-5.94-5.38-5.9-8,.13-8.21,8-14.27,15.41-24.79Z"/>
    <path d="M47.88,26.16C55.26,36.68,63.16,42.74,63.29,51c0,2.66-1.39,7.18-5.9,8-2.92.56-6.94-1.81-7-6.61,0-1-1-.93-1,.38a27.26,27.26,0,0,0,3.35,11.79H43A27.26,27.26,0,0,0,46.4,52.76c0-1.31-1-1.34-1-.38-.08,4.8-4.11,7.17-7,6.61-4.5-.87-5.94-5.38-5.9-8,.13-8.21,8-14.27,15.41-24.79Z"/>
    <path d="M164.62,212v2.33h-2.1v3.85H173v2.71l-11.39,17.5H159.8v-17.5h-3.22v-2.71h3.22l.06-3.85h-1.76V212h6.53Zm-2.1,20,7.23-11.1h-7.23Z"/>
    <path d="M14,37.47V35.14h2.1V31.29H5.54V28.57l11.39-17.5h1.86v17.5H22v2.71H18.79l-.06,3.85h1.76v2.33H14Zm2.1-20L8.83,28.58h7.23Z"/>
  </g>
</svg>
