<svg xmlns="http://www.w3.org/2000/svg" viewBox="0 0 178.58 249.45">
  <title>S5</title>
  <g>
    <path d="M47.88,26.16C40.5,36.68,32.6,42.74,32.47,51c0,2.66,1.39,7.18,5.9,8,2.92.56,6.94-1.81,7-6.61,0-1,1-.93,1,.38A27.26,27.26,0,0,1,43,64.56h9.67a27.26,27.26,0,0,1-3.35-11.79c0-1.31,1-1.34,1-.38.08,4.8,4.11,7.17,7,6.61,4.5-.87,5.94-5.38,5.9-8-.13-8.21-8-14.27-15.41-24.79Z"/>
    <path d="M13.77,40c-3.45,4.39-7.14,6.91-7.2,10.33a3.32,3.32,0,0,0,2.76,3.35,2.86,2.86,0,0,0,3.28-2.75c0-.4.47-.39.47.16A10.45,10.45,0,0,1,11.52,56H16a10.45,10.45,0,0,1-1.57-4.91c0-.55.47-.56.47-.16a2.86,2.86,0,0,0,3.28,2.75A3.32,3.32,0,0,0,21,50.31c-.06-3.42-3.75-5.95-7.2-10.33Z"/>
    <path d="M164.81,209.47c-3.45-4.39-7.14-6.91-7.2-10.33a3.32,3.32,0,0,1,2.76-3.35,2.86,2.86,0,0,1,3.28,2.75c0,.4.47.39.47-.16a10.44,10.44,0,0,0-1.57-4.91h4.52a10.45,10.45,0,0,0-1.57,4.91c0,.55.47.56.47.16a2.86,2.86,0,0,1,3.28-2.75,3.32,3.32,0,0,1,2.76,3.35c-.06,3.42-3.75,5.95-7.2,10.33Z"/>
    <path d="M130.7,26.16C123.32,36.68,115.43,42.74,115.3,51c0,2.66,1.39,7.18,5.9,8,2.92.56,6.94-1.81,7-6.61,0-1,1-.93,1,.38a27.26,27.26,0,0,1-3.35,11.79h9.67a27.26,27.26,0,0,1-3.35-11.79c0-1.31,1-1.34,1-.38.08,4.8,4.11,7.17,7,6.61,4.5-.87,5.94-5.38,5.9-8-.13-8.21-8-14.27-15.41-24.79Z"/>
    <path d="M47.88,223.29C40.5,212.77,32.6,206.71,32.47,198.5c0-2.66,1.39-7.18,5.9-8,2.92-.56,6.94,1.81,7,6.61,0,1,1,.93,1-.38A27.26,27.26,0,0,0,43,184.89h9.67a27.26,27.26,0,0,0-3.35,11.79c0,1.31,1,1.34,1,.38.08-4.8,4.11-7.17,7-6.61,4.5.87,5.94,5.38,5.9,8-.13,8.21-8,14.27-15.41,24.79Z"/>
    <path d="M130.7,223.29c-7.38-10.53-15.28-16.58-15.41-24.79,0-2.66,1.39-7.18,5.9-8,2.92-.56,6.94,1.81,7,6.61,0,1,1,.93,1-.38a27.26,27.26,0,0,0-3.35-11.79h9.67a27.26,27.26,0,0,0-3.35,11.79c0,1.31,1,1.34,1,.38.08-4.8,4.11-7.17,7-6.61,4.5.87,5.94,5.38,5.9,8-.13,8.21-8,14.27-15.41,24.79Z"/>
    <path d="M89.29,105.52C81.91,116.05,74,122.11,73.88,130.32c0,2.66,1.39,7.18,5.9,8,2.92.56,6.94-1.81,7-6.61,0-1,1-.93,1,.38a27.26,27.26,0,0,1-3.35,11.79h9.67a27.26,27.26,0,0,1-3.35-11.79c0-1.31,1-1.34,1-.38.08,4.8,4.11,7.17,7,6.61,4.5-.87,5.94-5.38,5.9-8-.13-8.21-8-14.27-15.41-24.79Z"/>
    <path d="M5.45,30.64l2.59,0c.49,1.59,1.59,3.21,3.07,3.66a6.19,6.19,0,0,0,7.77-4.13c1.08-3.34,0-8-2.91-9.68-2.39-1.38-5.94-.22-7.57,2.73L6.59,22.06l1-11H19.4v2.6H9.81l-.15,4.58a7.58,7.58,0,0,1,7.3-.43c3.91,1.9,5.73,6.22,5,11.31-1.05,5.06-3.38,7.93-8.61,8.34-5.83.05-7.88-4-7.86-6.83h0Z"/>
    <path d="M173.13,218.81l-2.59,0c-.49-1.59-1.59-3.21-3.07-3.66a6.19,6.19,0,0,0-7.77,4.13c-1.08,3.34,0,8,2.91,9.68,2.39,1.38,5.94.22,7.57-2.73l1.81,1.13-1,11H159.18v-2.6h9.59l.15-4.58a7.58,7.58,0,0,1-7.3.43c-3.91-1.9-5.73-6.22-5-11.31,1.05-5.06,3.38-7.93,8.61-8.34,5.83-.05,7.88,4,7.86,6.83h0Z"/>
  </g>
</svg>
