<svg xmlns="http://www.w3.org/2000/svg" viewBox="0 0 178.58 249.45">
  <title>S6</title>
  <path d="M47.88,26.16C40.5,36.68,32.6,42.74,32.47,51c0,2.66,1.39,7.18,5.9,8,2.92.56,6.94-1.81,7-6.61,0-1,1-.93,1,.38A27.26,27.26,0,0,1,43,64.56h9.67a27.26,27.26,0,0,1-3.35-11.79c0-1.31,1-1.34,1-.38.08,4.8,4.11,7.17,7,6.61,4.5-.87,5.94-5.38,5.9-8-.13-8.21-8-14.27-15.41-24.79Z"/>
  <path d="M13.77,40c-3.45,4.39-7.14,6.91-7.2,10.33a3.32,3.32,0,0,0,2.76,3.35,2.86,2.86,0,0,0,3.28-2.75c0-.4.47-.39.47.16A10.45,10.45,0,0,1,11.52,56H16a10.45,10.45,0,0,1-1.57-4.91c0-.55.47-.56.47-.16a2.86,2.86,0,0,0,3.28,2.75A3.32,3.32,0,0,0,21,50.31c-.06-3.42-3.75-5.95-7.2-10.33Z"/>
  <path d="M164.81,209.47c-3.45-4.39-7.14-6.91-7.2-10.33a3.32,3.32,0,0,1,2.76-3.35,2.86,2.86,0,0,1,3.28,2.75c0,.4.47.39.47-.16a10.45,10.45,0,0,0-1.57-4.91h4.52a10.45,10.45,0,0,0-1.57,4.91c0,.55.47.56.47.16a2.86,2.86,0,0,1,3.28-2.75,3.32,3.32,0,0,1,2.76,3.35c-.06,3.42-3.75,5.95-7.2,10.33Z"/>
  <path d="M130.7,26.16C123.32,36.68,115.43,42.74,115.3,51c0,2.66,1.39,7.18,5.9,8,2.92.56,6.94-1.81,7-6.61,0-1,1-.93,1,.38a27.26,27.26,0,0,1-3.35,11.79h9.67a27.26,27.26,0,0,1-3.35-11.79c0-1.31,1-1.34,1-.38.08,4.8,4.11,7.17,7,6.61,4.5-.87,5.94-5.38,5.9-8C146,42.74,138.09,36.68,130.7,26.16Z"/>
  <path d="M47.88,105.52c-7.38,10.53-15.28,16.58-15.41,24.79,0,2.66,1.39,7.18,5.9,8,2.92.56,6.94-1.81,7-6.61,0-1,1-.93,1,.38A27.26,27.26,0,0,1,43,143.92h9.67a27.26,27.26,0,0,1-3.35-11.79c0-1.31,1-1.34,1-.38.08,4.8,4.11,7.17,7,6.61,4.5-.87,5.94-5.38,5.9-8-.13-8.21-8-14.27-15.41-24.79Z"/>
  <path d="M47.88,223.29C40.5,212.77,32.6,206.71,32.47,198.5c0-2.66,1.39-7.18,5.9-8,2.92-.56,6.94,1.81,7,6.61,0,1,1,.93,1-.38A27.26,27.26,0,0,0,43,184.89h9.67a27.26,27.26,0,0,0-3.35,11.79c0,1.31,1,1.34,1,.38.08-4.8,4.11-7.17,7-6.61,4.5.87,5.94,5.38,5.9,8-.13,8.21-8,14.27-15.41,24.79Z"/>
  <path d="M130.7,223.29c-7.38-10.53-15.28-16.58-15.41-24.79,0-2.66,1.39-7.18,5.9-8,2.92-.56,6.94,1.81,7,6.61,0,1,1,.93,1-.38a27.26,27.26,0,0,0-3.35-11.79h9.67a27.26,27.26,0,0,0-3.35,11.79c0,1.31,1,1.34,1,.38.08-4.8,4.11-7.17,7-6.61,4.5.87,5.94,5.38,5.9,8-.13,8.21-8,14.27-15.41,24.79Z"/>
  <path d="M130.7,105.52c-7.38,10.53-15.28,16.58-15.41,24.79,0,2.66,1.39,7.18,5.9,8,2.92.56,6.94-1.81,7-6.61,0-1,1-.93,1,.38a27.26,27.26,0,0,1-3.35,11.79h9.67a27.26,27.26,0,0,1-3.35-11.79c0-1.31,1-1.34,1-.38.08,4.8,4.11,7.17,7,6.61,4.5-.87,5.94-5.38,5.9-8C146,122.11,138.09,116.05,130.7,105.52Z"/>
  <path d="M6,29.35A53,53,0,0,1,6,19.68c.82-5.21,2.81-7.59,6.14-8.37s7.78.09,8.78,4.44l-2.7.05c-1.46-2.94-5.16-2.16-7.25-.88-1.66,1-2.42,5.28-2.09,5.54,0,0,3.15-2.33,5.63-2.16,5.3.55,7.48,5.15,7.3,9.49-.17,5.22-1.82,9.39-7.44,9.67C9,37.26,6.53,34.35,6,29.35H6ZM19.19,28c0-3.62-1.61-6.34-4.73-6.63s-6.25,2.74-6,6.43,1.65,6.83,5.42,6.81c4.06,0,5.32-4,5.34-6.6Z"/>
  <path d="M172.56,220.1a53,53,0,0,1,.05,9.67c-.82,5.21-2.81,7.59-6.14,8.37s-7.78-.09-8.78-4.44l2.7-.05c1.46,2.94,5.16,2.16,7.25.88,1.66-1,2.42-5.28,2.09-5.54,0,0-3.15,2.33-5.63,2.16-5.3-.55-7.48-5.15-7.3-9.49.17-5.22,1.82-9.39,7.44-9.67,5.34.21,7.79,3.12,8.3,8.12h0Zm-13.17,1.38c0,3.62,1.61,6.34,4.73,6.63s6.25-2.74,6-6.43-1.65-6.83-5.42-6.81C160.67,214.89,159.41,218.9,159.39,221.48Z"/>
</svg>
