<svg xmlns="http://www.w3.org/2000/svg" viewBox="0 0 178.58 249.45">
  <title>S7</title>
  <path d="M47.88,26.16C40.5,36.68,32.6,42.74,32.47,51c0,2.66,1.39,7.18,5.9,8,2.92.56,6.94-1.81,7-6.61,0-1,1-.93,1,.38A27.26,27.26,0,0,1,43,64.56h9.67a27.26,27.26,0,0,1-3.35-11.79c0-1.31,1-1.34,1-.38.08,4.8,4.11,7.17,7,6.61,4.5-.87,5.94-5.38,5.9-8C63.16,42.74,55.26,36.68,47.88,26.16Z"/>
  <path d="M13.77,40c-3.45,4.39-7.14,6.91-7.2,10.33a3.32,3.32,0,0,0,2.76,3.35,2.86,2.86,0,0,0,3.28-2.75c0-.4.47-.39.47.16A10.45,10.45,0,0,1,11.52,56H16a10.45,10.45,0,0,1-1.57-4.91c0-.55.47-.56.47-.16a2.86,2.86,0,0,0,3.28,2.75A3.32,3.32,0,0,0,21,50.31c-.06-3.42-3.75-5.95-7.2-10.33Z"/>
  <path d="M164.81,209.47c-3.45-4.39-7.14-6.91-7.2-10.33a3.32,3.32,0,0,1,2.76-3.35,2.86,2.86,0,0,1,3.28,2.75c0,.4.47.39.47-.16a10.45,10.45,0,0,0-1.57-4.91h4.52a10.45,10.45,0,0,0-1.57,4.91c0,.55.47.56.47.16a2.86,2.86,0,0,1,3.28-2.75,3.32,3.32,0,0,1,2.76,3.35c-.06,3.42-3.75,5.95-7.2,10.33Z"/>
  <path d="M130.7,26.16C123.32,36.68,115.43,42.74,115.3,51c0,2.66,1.39,7.18,5.9,8,2.92.56,6.94-1.81,7-6.61,0-1,1-.93,1,.38a27.26,27.26,0,0,1-3.35,11.79h9.67a27.26,27.26,0,0,1-3.35-11.79c0-1.31,1-1.34,1-.38.08,4.8,4.11,7.17,7,6.61,4.5-.87,5.94-5.38,5.9-8C146,42.74,138.09,36.68,130.7,26.16Z"/>
  <path d="M89.29,65.84C81.91,76.37,74,82.42,73.88,90.63c0,2.66,1.39,7.18,5.9,8,2.92.56,6.94-1.81,7-6.61,0-1,1-.93,1,.38a27.26,27.26,0,0,1-3.35,11.79h9.67a27.26,27.26,0,0,1-3.35-11.79c0-1.31,1-1.34,1-.38.08,4.8,4.11,7.17,7,6.61,4.5-.87,5.94-5.38,5.9-8C104.57,82.42,96.67,76.37,89.29,65.84Z"/>
  <path d="M47.88,105.52c-7.38,10.53-15.28,16.58-15.41,24.79,0,2.66,1.39,7.18,5.9,8,2.92.56,6.94-1.81,7-6.61,0-1,1-.93,1,.38A27.26,27.26,0,0,1,43,143.92h9.67a27.26,27.26,0,0,1-3.35-11.79c0-1.31,1-1.34,1-.38.08,4.8,4.11,7.17,7,6.61,4.5-.87,5.94-5.38,5.9-8C63.16,122.11,55.26,116.05,47.88,105.52Z"/>
  <path d="M47.88,223.29C40.5,212.77,32.6,206.71,32.47,198.5c0-2.66,1.39-7.18,5.9-8,2.92-.56,6.94,1.81,7,6.61,0,1,1,.93,1-.38A27.26,27.26,0,0,0,43,184.89h9.67a27.26,27.26,0,0,0-3.35,11.79c0,1.31,1,1.34,1,.38.08-4.8,4.11-7.17,7-6.61,4.5.87,5.94,5.38,5.9,8-.13,8.21-8,14.27-15.41,24.79Z"/>
  <path d="M130.7,223.29c-7.38-10.53-15.28-16.58-15.41-24.79,0-2.66,1.39-7.18,5.9-8,2.92-.56,6.94,1.81,7,6.61,0,1,1,.93,1-.38a27.26,27.26,0,0,0-3.35-11.79h9.67a27.26,27.26,0,0,0-3.35,11.79c0,1.31,1,1.34,1,.38.08-4.8,4.11-7.17,7-6.61,4.5.87,5.94,5.38,5.9,8-.13,8.21-8,14.27-15.41,24.79Z"/>
  <path d="M130.7,105.52c-7.38,10.53-15.28,16.58-15.41,24.79,0,2.66,1.39,7.18,5.9,8,2.92.56,6.94-1.81,7-6.61,0-1,1-.93,1,.38a27.26,27.26,0,0,1-3.35,11.79h9.67a27.26,27.26,0,0,1-3.35-11.79c0-1.31,1-1.34,1-.38.08,4.8,4.11,7.17,7,6.61,4.5-.87,5.94-5.38,5.9-8C146,122.11,138.09,116.05,130.7,105.52Z"/>
  <path d="M9.71,37.47c1.74-9.18,3.58-16.07,8.44-23.55H8.29v3.22H5.67V11.07H20.1l1.78,2.85c-5.15,5.63-9.87,23.81-9,23.55Z"/>
  <path d="M168.87,212c-1.74,9.18-3.58,16.07-8.44,23.55h9.86v-3.22h2.62v6.07H158.48l-1.78-2.85c5.15-5.63,9.87-23.81,9-23.55Z"/>
</svg>
