<svg xmlns="http://www.w3.org/2000/svg" viewBox="0 0 178.58 249.45">
  <title>S8</title>
  <path d="M130.7,223.29c7.38-10.53,15.28-16.58,15.41-24.79,0-2.66-1.39-7.18-5.9-8-2.92-.56-6.94,1.81-7,6.61,0,1-1,.93-1-.38a27.26,27.26,0,0,1,3.35-11.79h-9.67a27.26,27.26,0,0,1,3.35,11.79c0,1.31-1,1.34-1,.38-.08-4.8-4.11-7.17-7-6.61-4.5.87-5.94,5.38-5.9,8C115.43,206.71,123.32,212.77,130.7,223.29Z"/>
  <path d="M164.81,209.47c3.45-4.39,7.14-6.91,7.2-10.33a3.32,3.32,0,0,0-2.76-3.35,2.86,2.86,0,0,0-3.28,2.75c0,.4-.47.39-.47-.16a10.45,10.45,0,0,1,1.57-4.91h-4.52a10.45,10.45,0,0,1,1.57,4.91c0,.55-.47.56-.47.16a2.86,2.86,0,0,0-3.28-2.75,3.32,3.32,0,0,0-2.76,3.35c.06,3.42,3.75,5.95,7.2,10.33Z"/>
  <path d="M13.77,40c3.45,4.39,7.14,6.91,7.2,10.33a3.32,3.32,0,0,1-2.76,3.35,2.86,2.86,0,0,1-3.28-2.75c0-.4-.47-.39-.47.16A10.45,10.45,0,0,0,16,56H11.51a10.45,10.45,0,0,0,1.57-4.91c0-.55-.47-.56-.47-.16a2.86,2.86,0,0,1-3.28,2.75,3.32,3.32,0,0,1-2.76-3.35c.06-3.42,3.75-5.95,7.2-10.33Z"/>
  <path d="M47.88,223.29c7.38-10.53,15.28-16.58,15.41-24.79,0-2.66-1.39-7.18-5.9-8-2.92-.56-6.94,1.81-7,6.61,0,1-1,.93-1-.38a27.26,27.26,0,0,1,3.35-11.79H43a27.26,27.26,0,0,1,3.35,11.79c0,1.31-1,1.34-1,.38-.08-4.8-4.11-7.17-7-6.61-4.5.87-5.94,5.38-5.9,8C32.6,206.71,40.5,212.77,47.88,223.29Z"/>
  <path d="M89.29,183.61c7.38-10.53,15.28-16.58,15.41-24.79,0-2.66-1.39-7.18-5.9-8-2.92-.56-6.94,1.81-7,6.61,0,1-1,.93-1-.38a27.26,27.26,0,0,1,3.35-11.79H84.46A27.26,27.26,0,0,1,87.81,157c0,1.31-1,1.34-1,.38-.08-4.8-4.11-7.17-7-6.61-4.5.87-5.94,5.38-5.9,8C74,167,81.91,173.08,89.29,183.61Z"/>
  <path d="M130.7,143.92c7.38-10.53,15.28-16.58,15.41-24.79,0-2.66-1.39-7.18-5.9-8-2.92-.56-6.94,1.81-7,6.61,0,1-1,.93-1-.38a27.26,27.26,0,0,1,3.35-11.79h-9.67a27.26,27.26,0,0,1,3.35,11.79c0,1.31-1,1.34-1,.38-.08-4.8-4.11-7.17-7-6.61-4.5.87-5.94,5.38-5.9,8C115.43,127.34,123.32,133.4,130.7,143.92Z"/>
  <path d="M130.7,26.16C138.09,36.68,146,42.74,146.11,51c0,2.66-1.39,7.18-5.9,8-2.92.56-6.94-1.81-7-6.61,0-1-1-.93-1,.38a27.26,27.26,0,0,0,3.35,11.79h-9.67a27.26,27.26,0,0,0,3.35-11.79c0-1.31-1-1.34-1-.38-.08,4.8-4.11,7.17-7,6.61-4.5-.87-5.94-5.38-5.9-8,.13-8.21,8-14.27,15.41-24.79Z"/>
  <path d="M47.88,26.16C55.26,36.68,63.16,42.74,63.29,51c0,2.66-1.39,7.18-5.9,8-2.92.56-6.94-1.81-7-6.61,0-1-1-.93-1,.38a27.26,27.26,0,0,0,3.35,11.79H43A27.26,27.26,0,0,0,46.4,52.76c0-1.31-1-1.34-1-.38-.08,4.8-4.11,7.17-7,6.61-4.5-.87-5.94-5.38-5.9-8,.13-8.21,8-14.27,15.41-24.79Z"/>
  <path d="M89.29,65.84c7.38,10.53,15.28,16.58,15.41,24.79,0,2.66-1.39,7.18-5.9,8-2.92.56-6.94-1.81-7-6.61,0-1-1-.93-1,.38a27.26,27.26,0,0,0,3.35,11.79H84.46a27.26,27.26,0,0,0,3.35-11.79c0-1.31-1-1.34-1-.38-.08,4.8-4.11,7.17-7,6.61-4.5-.87-5.94-5.38-5.9-8C74,82.42,81.91,76.37,89.29,65.84Z"/>
  <path d="M47.88,143.92c7.38-10.53,15.28-16.58,15.41-24.79,0-2.66-1.39-7.18-5.9-8-2.92-.56-6.94,1.81-7,6.61,0,1-1,.93-1-.38a27.26,27.26,0,0,1,3.35-11.79H43a27.26,27.26,0,0,1,3.35,11.79c0,1.31-1,1.34-1,.38-.08-4.8-4.11-7.17-7-6.61-4.5.87-5.94,5.38-5.9,8C32.6,127.34,40.5,133.4,47.88,143.92Z"/>
  <path d="M173.39,219.71c-.13,3.54-1.41,4.87-3.93,6.73a6.11,6.11,0,0,1,2.69,5.41c-.41,4.41-3.82,6.62-7.54,6.52s-6.92-3-7.17-6.25a5.45,5.45,0,0,1,2.59-5.6c-2.35-2-3.84-3.28-3.79-6.77a8.21,8.21,0,0,1,8.2-7.77c5.18-.13,9.08,4.19,9,7.73Zm-14.45,0c-.22,3.21,2.62,5.37,5.82,5.4a5.9,5.9,0,0,0,5.91-5.51c0-3.09-3.63-4.77-6-4.78C161.84,214.8,159.13,216.94,158.94,219.7Zm1,11.48a4.71,4.71,0,0,0,5,4.56c2.29-.07,4.7-1.81,4.71-4.07,0-2.83-2.75-4.24-5.1-4.29-2.13,0-4.56,1.77-4.61,3.81Z"/>
  <path d="M22.35,29.74c-.13-3.54-1.41-4.87-3.93-6.73a6.11,6.11,0,0,0,2.69-5.41c-.41-4.41-3.82-6.62-7.54-6.52s-6.92,3-7.17,6.25A5.45,5.45,0,0,0,9,22.92c-2.35,2-3.84,3.28-3.79,6.77a8.21,8.21,0,0,0,8.2,7.77c5.18.13,9.08-4.19,9-7.73h0Zm-14.45,0c-.22-3.21,2.62-5.37,5.82-5.4a5.9,5.9,0,0,1,5.91,5.51c0,3.09-3.63,4.77-6,4.78-2.85,0-5.56-2.12-5.75-4.89Zm1-11.48a4.71,4.71,0,0,1,5-4.56c2.29.07,4.7,1.81,4.71,4.07,0,2.83-2.75,4.24-5.1,4.29-2.13,0-4.56-1.77-4.61-3.81Z"/>
</svg>
