<svg xmlns="http://www.w3.org/2000/svg" viewBox="0 0 178.58 249.45">
  <title>S9</title>
  <path d="M47.88,26.16C40.5,36.68,32.6,42.74,32.47,51c0,2.66,1.39,7.18,5.9,8,2.92.56,6.94-1.81,7-6.61,0-1,1-.93,1,.38A27.26,27.26,0,0,1,43,64.56h9.67a27.26,27.26,0,0,1-3.35-11.79c0-1.31,1-1.34,1-.38.08,4.8,4.11,7.17,7,6.61,4.5-.87,5.94-5.38,5.9-8C63.16,42.74,55.26,36.68,47.88,26.16Z"/>
  <path d="M13.77,40c-3.45,4.39-7.14,6.91-7.2,10.33a3.32,3.32,0,0,0,2.76,3.35,2.86,2.86,0,0,0,3.28-2.75c0-.4.47-.39.47.16A10.45,10.45,0,0,1,11.51,56H16a10.45,10.45,0,0,1-1.57-4.91c0-.55.47-.56.47-.16a2.86,2.86,0,0,0,3.28,2.75A3.32,3.32,0,0,0,21,50.31c-.06-3.42-3.75-5.95-7.2-10.33Z"/>
  <path d="M47.88,170.38C40.5,159.85,32.6,153.8,32.47,145.59c0-2.66,1.39-7.18,5.9-8,2.92-.56,6.94,1.81,7,6.61,0,1,1,.93,1-.38A27.26,27.26,0,0,0,43,132h9.67a27.26,27.26,0,0,0-3.35,11.79c0,1.31,1,1.34,1,.38.08-4.8,4.11-7.17,7-6.61,4.5.87,5.94,5.38,5.9,8C63.16,153.8,55.26,159.85,47.88,170.38Z"/>
  <path d="M164.81,209.47c-3.45-4.39-7.14-6.91-7.2-10.33a3.32,3.32,0,0,1,2.76-3.35,2.86,2.86,0,0,1,3.28,2.75c0,.4.47.39.47-.16a10.45,10.45,0,0,0-1.57-4.91h4.52a10.45,10.45,0,0,0-1.57,4.91c0,.55.47.56.47.16a2.86,2.86,0,0,1,3.28-2.75,3.32,3.32,0,0,1,2.76,3.35c-.06,3.42-3.75,5.95-7.2,10.33Z"/>
  <path d="M130.7,26.16C123.32,36.68,115.43,42.74,115.3,51c0,2.66,1.39,7.18,5.9,8,2.92.56,6.94-1.81,7-6.61,0-1,1-.93,1,.38a27.26,27.26,0,0,1-3.35,11.79h9.67a27.26,27.26,0,0,1-3.35-11.79c0-1.31,1-1.34,1-.38.08,4.8,4.11,7.17,7,6.61,4.5-.87,5.94-5.38,5.9-8C146,42.74,138.09,36.68,130.7,26.16Z"/>
  <path d="M47.88,79.07C40.5,89.59,32.6,95.65,32.47,103.86c0,2.66,1.39,7.18,5.9,8,2.92.56,6.94-1.81,7-6.61,0-1,1-.93,1,.38A27.26,27.26,0,0,1,43,117.47h9.67a27.26,27.26,0,0,1-3.35-11.79c0-1.31,1-1.34,1-.38.08,4.8,4.11,7.17,7,6.61,4.5-.87,5.94-5.38,5.9-8C63.16,95.65,55.26,89.59,47.88,79.07Z"/>
  <path d="M130.7,79.07c-7.38,10.53-15.28,16.58-15.41,24.79,0,2.66,1.39,7.18,5.9,8,2.92.56,6.94-1.81,7-6.61,0-1,1-.93,1,.38a27.26,27.26,0,0,1-3.35,11.79h9.67a27.26,27.26,0,0,1-3.35-11.79c0-1.31,1-1.34,1-.38.08,4.8,4.11,7.17,7,6.61,4.5-.87,5.94-5.38,5.9-8C146,95.65,138.09,89.59,130.7,79.07Z"/>
  <path d="M47.88,223.29C40.5,212.77,32.6,206.71,32.47,198.5c0-2.66,1.39-7.18,5.9-8,2.92-.56,6.94,1.81,7,6.61,0,1,1,.93,1-.38A27.26,27.26,0,0,0,43,184.89h9.67a27.26,27.26,0,0,0-3.35,11.79c0,1.31,1,1.34,1,.38.08-4.8,4.11-7.17,7-6.61,4.5.87,5.94,5.38,5.9,8-.13,8.21-8,14.27-15.41,24.79Z"/>
  <path d="M130.7,223.29c-7.38-10.53-15.28-16.58-15.41-24.79,0-2.66,1.39-7.18,5.9-8,2.92-.56,6.94,1.81,7,6.61,0,1,1,.93,1-.38a27.26,27.26,0,0,0-3.35-11.79h9.67a27.26,27.26,0,0,0-3.35,11.79c0,1.31,1,1.34,1,.38.08-4.8,4.11-7.17,7-6.61,4.5.87,5.94,5.38,5.9,8-.13,8.21-8,14.27-15.41,24.79Z"/>
  <path d="M130.7,170.38c-7.38-10.53-15.28-16.58-15.41-24.79,0-2.66,1.39-7.18,5.9-8,2.92-.56,6.94,1.81,7,6.61,0,1,1,.93,1-.38A27.26,27.26,0,0,0,125.87,132h9.67a27.26,27.26,0,0,0-3.35,11.79c0,1.31,1,1.34,1,.38.08-4.8,4.11-7.17,7-6.61,4.5.87,5.94,5.38,5.9,8C146,153.8,138.09,159.85,130.7,170.38Z"/>
  <path d="M89.29,105.52C81.91,116.05,74,122.11,73.88,130.32c0,2.66,1.39,7.18,5.9,8,2.92.56,6.94-1.81,7-6.61,0-1,1-.93,1,.38a27.26,27.26,0,0,1-3.35,11.79h9.67a27.26,27.26,0,0,1-3.35-11.79c0-1.31,1-1.34,1-.38.08,4.8,4.11,7.17,7,6.61,4.5-.87,5.94-5.38,5.9-8C104.57,122.11,96.67,116.05,89.29,105.52Z"/>
  <path d="M6.4,32.38l2.42-.77a4.28,4.28,0,0,0,4.7,3c3.5-.28,4.66-4.19,4.92-7.64a6.94,6.94,0,0,1-5.15,2.1c-5.57-.3-7-4.76-7.05-9.43-.15-3.94,1.48-6.79,4.27-8.1a9.56,9.56,0,0,1,6.35.12c3.41,1.8,4.68,4.91,4.45,12.35,0,6.11-1.3,13.23-7.85,13.39a6.35,6.35,0,0,1-7.05-5h0Zm9.49-6.7a5.72,5.72,0,0,0,2.29-2.41,4.53,4.53,0,0,0,.44-3c-.31-4.43-2.63-6.95-6-6.45-1.88.28-2.91,1.33-3.5,3.29C8,20.75,9.4,25,12,26a5,5,0,0,0,3.89-.27Z"/>
  <path d="M172.18,217.07l-2.42.77a4.28,4.28,0,0,0-4.7-3c-3.5.28-4.66,4.19-4.92,7.64a6.94,6.94,0,0,1,5.15-2.1c5.57.3,7,4.76,7.05,9.43.15,3.94-1.48,6.79-4.27,8.1a9.56,9.56,0,0,1-6.35-.12c-3.41-1.8-4.68-4.91-4.45-12.35,0-6.11,1.3-13.23,7.85-13.39a6.35,6.35,0,0,1,7.05,5h0Zm-9.49,6.7a5.72,5.72,0,0,0-2.29,2.41,4.53,4.53,0,0,0-.44,3c.31,4.43,2.63,6.95,6,6.45,1.88-.28,2.91-1.33,3.5-3.29,1.09-3.62-.29-7.85-2.88-8.82a5,5,0,0,0-3.89.27Z"/>
</svg>
